<?xml version="1.0" encoding="UTF-8" standalone="no"?>
<!DOCTYPE svg PUBLIC "-//W3C//DTD SVG 1.1//EN"
 "http://www.w3.org/Graphics/SVG/1.1/DTD/svg11.dtd">
<!-- Generated by graphviz version 2.43.0 (0)
 -->
<!-- Title: EditDoneEvent Pages: 1 -->
<svg width="1158pt" height="652pt"
 viewBox="0.00 0.00 1158.00 652.00" xmlns="http://www.w3.org/2000/svg" xmlns:xlink="http://www.w3.org/1999/xlink">
<g id="graph0" class="graph" transform="scale(1 1) rotate(0) translate(4 648)">
<title>EditDoneEvent</title>
<!-- Node1 -->
<g id="Node000001" class="node">
<title>Node1</title>
<g id="a_Node000001"><a xlink:title=" ">
<polygon fill="#999999" stroke="transparent" points="500.5,-79 391.5,-79 391.5,0 500.5,0 500.5,-79"/>
<text text-anchor="start" x="410" y="-66.5" font-family="Helvetica,sans-Serif" font-size="10.00">EditDoneEvent</text>
<text text-anchor="start" x="444.5" y="-51.5" font-family="Helvetica,sans-Serif" font-size="10.00"> </text>
<text text-anchor="start" x="396" y="-36.5" font-family="Helvetica,sans-Serif" font-size="10.00">+</text>
<text text-anchor="start" x="409" y="-36.5" font-family="Helvetica,sans-Serif" font-size="10.00">EditDoneEvent()</text>
<text text-anchor="start" x="396" y="-21.5" font-family="Helvetica,sans-Serif" font-size="10.00">+</text>
<text text-anchor="start" x="409" y="-21.5" font-family="Helvetica,sans-Serif" font-size="10.00">~EditDoneEvent()</text>
<text text-anchor="start" x="396" y="-6.5" font-family="Helvetica,sans-Serif" font-size="10.00">+</text>
<text text-anchor="start" x="409" y="-6.5" font-family="Helvetica,sans-Serif" font-size="10.00">handle()</text>
<polygon fill="#666666" stroke="#666666" points="392,-61.5 392,-61.5 501,-61.5 501,-61.5 392,-61.5"/>
<polygon fill="#666666" stroke="#666666" points="392,-46.5 392,-46.5 501,-46.5 501,-46.5 392,-46.5"/>
<polygon fill="none" stroke="#666666" points="391.5,0 391.5,-79 500.5,-79 500.5,0 391.5,0"/>
</a>
</g>
</g>
<!-- Node2 -->
<g id="Node000002" class="node">
<title>Node2</title>
<g id="a_Node000002"><a xlink:href="classClipboardEvent.html" target="_top" xlink:title=" ">
<polygon fill="white" stroke="transparent" points="112,-265 0,-265 0,-201 112,-201 112,-265"/>
<text text-anchor="start" x="18.5" y="-253" font-family="Helvetica,sans-Serif" font-size="10.00">ClipboardEvent</text>
<text text-anchor="start" x="54" y="-238" font-family="Helvetica,sans-Serif" font-size="10.00"> </text>
<text text-anchor="start" x="4" y="-223" font-family="Helvetica,sans-Serif" font-size="10.00">+</text>
<text text-anchor="start" x="17" y="-223" font-family="Helvetica,sans-Serif" font-size="10.00">~ClipboardEvent()</text>
<text text-anchor="start" x="4" y="-208" font-family="Helvetica,sans-Serif" font-size="10.00">+</text>
<text text-anchor="start" x="17" y="-208" font-family="Helvetica,sans-Serif" font-size="10.00">handle()</text>
<polygon fill="#666666" stroke="#666666" points="0,-248 0,-248 112,-248 112,-248 0,-248"/>
<polygon fill="#666666" stroke="#666666" points="0,-233 0,-233 112,-233 112,-233 0,-233"/>
<polygon fill="none" stroke="#666666" points="0,-201 0,-265 112,-265 112,-201 0,-201"/>
</a>
</g>
</g>
<!-- Node2&#45;&gt;Node1 -->
<g id="edge1_Node000001_Node000002" class="edge">
<title>Node2&#45;&gt;Node1</title>
<g id="a_edge1_Node000001_Node000002"><a xlink:title=" ">
<path fill="none" stroke="#63b8ff" d="M71.93,-191.23C82.63,-168.88 98.86,-142.45 121,-126 202.02,-65.8 321.96,-47.92 391.21,-42.65"/>
<polygon fill="none" stroke="#63b8ff" points="68.66,-189.97 67.68,-200.52 75.02,-192.88 68.66,-189.97"/>
</a>
</g>
</g>
<!-- Node3 -->
<g id="Node000003" class="node">
<title>Node3</title>
<g id="a_Node000003"><a xlink:href="classMemoryCellManager.html" target="_top" xlink:title=" ">
<polygon fill="white" stroke="transparent" points="278,-340 130,-340 130,-126 278,-126 278,-340"/>
<text text-anchor="start" x="152.5" y="-328" font-family="Helvetica,sans-Serif" font-size="10.00">MemoryCellManager</text>
<text text-anchor="start" x="202" y="-313" font-family="Helvetica,sans-Serif" font-size="10.00"> </text>
<text text-anchor="start" x="134" y="-298" font-family="Helvetica,sans-Serif" font-size="10.00">+</text>
<text text-anchor="start" x="147" y="-298" font-family="Helvetica,sans-Serif" font-size="10.00">getMemoryCellCount()</text>
<text text-anchor="start" x="134" y="-283" font-family="Helvetica,sans-Serif" font-size="10.00">+</text>
<text text-anchor="start" x="147" y="-283" font-family="Helvetica,sans-Serif" font-size="10.00">getMemoryCell()</text>
<text text-anchor="start" x="134" y="-268" font-family="Helvetica,sans-Serif" font-size="10.00">+</text>
<text text-anchor="start" x="147" y="-268" font-family="Helvetica,sans-Serif" font-size="10.00">addMemoryCell()</text>
<text text-anchor="start" x="134" y="-253" font-family="Helvetica,sans-Serif" font-size="10.00">+</text>
<text text-anchor="start" x="147" y="-253" font-family="Helvetica,sans-Serif" font-size="10.00">initialize()</text>
<text text-anchor="start" x="134" y="-238" font-family="Helvetica,sans-Serif" font-size="10.00">+</text>
<text text-anchor="start" x="147" y="-238" font-family="Helvetica,sans-Serif" font-size="10.00">cleanup()</text>
<text text-anchor="start" x="134" y="-223" font-family="Helvetica,sans-Serif" font-size="10.00">+</text>
<text text-anchor="start" x="147" y="-223" font-family="Helvetica,sans-Serif" font-size="10.00">setSelectedCell()</text>
<text text-anchor="start" x="134" y="-208" font-family="Helvetica,sans-Serif" font-size="10.00">+</text>
<text text-anchor="start" x="147" y="-208" font-family="Helvetica,sans-Serif" font-size="10.00">getSelectedCell()</text>
<text text-anchor="start" x="134" y="-193" font-family="Helvetica,sans-Serif" font-size="10.00">+</text>
<text text-anchor="start" x="147" y="-193" font-family="Helvetica,sans-Serif" font-size="10.00">loadCells()</text>
<text text-anchor="start" x="134" y="-178" font-family="Helvetica,sans-Serif" font-size="10.00">+</text>
<text text-anchor="start" x="147" y="-178" font-family="Helvetica,sans-Serif" font-size="10.00">getContents()</text>
<text text-anchor="start" x="134" y="-163" font-family="Helvetica,sans-Serif" font-size="10.00">+</text>
<text text-anchor="start" x="147" y="-163" font-family="Helvetica,sans-Serif" font-size="10.00">moveContentsOneDown()</text>
<text text-anchor="start" x="134" y="-148" font-family="Helvetica,sans-Serif" font-size="10.00">+</text>
<text text-anchor="start" x="147" y="-148" font-family="Helvetica,sans-Serif" font-size="10.00">Instance()</text>
<text text-anchor="start" x="134" y="-133" font-family="Helvetica,sans-Serif" font-size="10.00">#</text>
<text text-anchor="start" x="147" y="-133" font-family="Helvetica,sans-Serif" font-size="10.00">MemoryCellManager()</text>
<polygon fill="#666666" stroke="#666666" points="130,-323 130,-323 278,-323 278,-323 130,-323"/>
<polygon fill="#666666" stroke="#666666" points="130,-308 130,-308 278,-308 278,-308 130,-308"/>
<polygon fill="none" stroke="#666666" points="130,-126 130,-340 278,-340 278,-126 130,-126"/>
</a>
</g>
</g>
<!-- Node3&#45;&gt;Node1 -->
<g id="edge2_Node000001_Node000003" class="edge">
<title>Node3&#45;&gt;Node1</title>
<g id="a_edge2_Node000001_Node000003"><a xlink:title=" ">
<path fill="none" stroke="#63b8ff" d="M233.48,-126C239.63,-115.25 247.05,-105.27 256,-97 289.44,-66.09 339.07,-52.04 379.22,-45.68"/>
<polygon fill="none" stroke="#63b8ff" points="379.47,-45.64 384.84,-40.83 391.34,-43.94 385.97,-48.75 379.47,-45.64"/>
</a>
</g>
<text text-anchor="middle" x="318.5" y="-100" font-family="Helvetica,sans-Serif" font-size="10.00" fill="grey"> &#45;m_memoryCellManager</text>
</g>
<!-- Node4 -->
<g id="Node000004" class="node">
<title>Node4</title>
<g id="a_Node000004"><a xlink:title=" ">
<polygon fill="white" stroke="transparent" points="158.5,-497.5 5.5,-497.5 5.5,-437.5 158.5,-437.5 158.5,-497.5"/>
<text text-anchor="start" x="11" y="-485.5" font-family="Helvetica,sans-Serif" font-size="10.00">vector&lt; std::unique</text>
<text text-anchor="start" x="11" y="-474.5" font-family="Helvetica,sans-Serif" font-size="10.00">_ptr&lt; ClipboardInterface &gt; &gt;</text>
<text text-anchor="start" x="80.5" y="-459.5" font-family="Helvetica,sans-Serif" font-size="10.00"> </text>
<text text-anchor="start" x="80.5" y="-444.5" font-family="Helvetica,sans-Serif" font-size="10.00"> </text>
<polygon fill="#666666" stroke="#666666" points="6,-469.5 6,-469.5 159,-469.5 159,-469.5 6,-469.5"/>
<polygon fill="#666666" stroke="#666666" points="6,-454.5 6,-454.5 159,-454.5 159,-454.5 6,-454.5"/>
<polygon fill="none" stroke="#666666" points="5.5,-437.5 5.5,-497.5 158.5,-497.5 158.5,-437.5 5.5,-437.5"/>
</a>
</g>
</g>
<!-- Node4&#45;&gt;Node3 -->
<g id="edge3_Node000003_Node000004" class="edge">
<title>Node4&#45;&gt;Node3</title>
<g id="a_edge3_Node000003_Node000004"><a xlink:title=" ">
<path fill="none" stroke="#63b8ff" d="M84.12,-437.05C86.7,-414.42 92.41,-382.92 105,-358 109.83,-348.45 114.14,-348.22 121,-340 121.37,-339.56 121.73,-339.12 122.1,-338.68"/>
<polygon fill="none" stroke="#63b8ff" points="122.21,-338.55 122.94,-331.37 129.85,-329.29 129.12,-336.46 122.21,-338.55"/>
</a>
</g>
<text text-anchor="middle" x="149" y="-366.5" font-family="Helvetica,sans-Serif" font-size="10.00" fill="grey"> &#45;m_memoryCells</text>
</g>
<!-- Node5 -->
<g id="Node000005" class="node">
<title>Node5</title>
<g id="a_Node000005"><a xlink:title=" ">
<polygon fill="white" stroke="transparent" points="215.5,-492 176.5,-492 176.5,-443 215.5,-443 215.5,-492"/>
<text text-anchor="start" x="182" y="-479.5" font-family="Helvetica,sans-Serif" font-size="10.00">size_t</text>
<text text-anchor="start" x="194.5" y="-464.5" font-family="Helvetica,sans-Serif" font-size="10.00"> </text>
<text text-anchor="start" x="194.5" y="-449.5" font-family="Helvetica,sans-Serif" font-size="10.00"> </text>
<polygon fill="#666666" stroke="#666666" points="177,-474.5 177,-474.5 216,-474.5 216,-474.5 177,-474.5"/>
<polygon fill="#666666" stroke="#666666" points="177,-459.5 177,-459.5 216,-459.5 216,-459.5 177,-459.5"/>
<polygon fill="none" stroke="#666666" points="176.5,-443 176.5,-492 215.5,-492 215.5,-443 176.5,-443"/>
</a>
</g>
</g>
<!-- Node5&#45;&gt;Node3 -->
<g id="edge4_Node000003_Node000005" class="edge">
<title>Node5&#45;&gt;Node3</title>
<g id="a_edge4_Node000003_Node000005"><a xlink:title=" ">
<path fill="none" stroke="#63b8ff" d="M195.9,-442.79C195.88,-420.8 196.04,-387.18 197,-358 197.06,-356.09 197.13,-354.17 197.2,-352.23"/>
<polygon fill="none" stroke="#63b8ff" points="197.2,-352.18 193.44,-346.02 197.68,-340.19 201.44,-346.34 197.2,-352.18"/>
</a>
</g>
<text text-anchor="middle" x="230.5" y="-366.5" font-family="Helvetica,sans-Serif" font-size="10.00" fill="grey"> &#45;selectedCell</text>
</g>
<!-- Node6 -->
<g id="Node000006" class="node">
<title>Node6</title>
<g id="a_Node000006"><a xlink:href="classEditViewModel.html" target="_top" xlink:title=" ">
<polygon fill="white" stroke="transparent" points="442,-310 312,-310 312,-156 442,-156 442,-310"/>
<text text-anchor="start" x="340.5" y="-298" font-family="Helvetica,sans-Serif" font-size="10.00">EditViewModel</text>
<text text-anchor="start" x="375" y="-283" font-family="Helvetica,sans-Serif" font-size="10.00"> </text>
<text text-anchor="start" x="316" y="-268" font-family="Helvetica,sans-Serif" font-size="10.00">+</text>
<text text-anchor="start" x="329" y="-268" font-family="Helvetica,sans-Serif" font-size="10.00">RegisterKey()</text>
<text text-anchor="start" x="316" y="-253" font-family="Helvetica,sans-Serif" font-size="10.00">+</text>
<text text-anchor="start" x="329" y="-253" font-family="Helvetica,sans-Serif" font-size="10.00">ResetNewShortCut()</text>
<text text-anchor="start" x="316" y="-238" font-family="Helvetica,sans-Serif" font-size="10.00">+</text>
<text text-anchor="start" x="329" y="-238" font-family="Helvetica,sans-Serif" font-size="10.00">GetNewShortCut()</text>
<text text-anchor="start" x="316" y="-223" font-family="Helvetica,sans-Serif" font-size="10.00">+</text>
<text text-anchor="start" x="329" y="-223" font-family="Helvetica,sans-Serif" font-size="10.00">SetSelectedShortCut()</text>
<text text-anchor="start" x="316" y="-208" font-family="Helvetica,sans-Serif" font-size="10.00">+</text>
<text text-anchor="start" x="329" y="-208" font-family="Helvetica,sans-Serif" font-size="10.00">GetSelectedShortCut()</text>
<text text-anchor="start" x="316" y="-193" font-family="Helvetica,sans-Serif" font-size="10.00">+</text>
<text text-anchor="start" x="329" y="-193" font-family="Helvetica,sans-Serif" font-size="10.00">Instance()</text>
<text text-anchor="start" x="316" y="-178" font-family="Helvetica,sans-Serif" font-size="10.00">#</text>
<text text-anchor="start" x="329" y="-178" font-family="Helvetica,sans-Serif" font-size="10.00">EditViewModel()</text>
<text text-anchor="start" x="316" y="-163" font-family="Helvetica,sans-Serif" font-size="10.00">#</text>
<text text-anchor="start" x="329" y="-163" font-family="Helvetica,sans-Serif" font-size="10.00">~EditViewModel()</text>
<polygon fill="#666666" stroke="#666666" points="312,-293 312,-293 442,-293 442,-293 312,-293"/>
<polygon fill="#666666" stroke="#666666" points="312,-278 312,-278 442,-278 442,-278 312,-278"/>
<polygon fill="none" stroke="#666666" points="312,-156 312,-310 442,-310 442,-156 312,-156"/>
</a>
</g>
</g>
<!-- Node6&#45;&gt;Node1 -->
<g id="edge5_Node000001_Node000006" class="edge">
<title>Node6&#45;&gt;Node1</title>
<g id="a_edge5_Node000001_Node000006"><a xlink:title=" ">
<path fill="none" stroke="#63b8ff" d="M374.53,-156C376.31,-136.07 380.49,-115.1 389,-97 390.3,-94.24 391.79,-91.54 393.43,-88.91"/>
<polygon fill="none" stroke="#63b8ff" points="393.45,-88.89 393.68,-81.68 400.43,-79.13 400.19,-86.33 393.45,-88.89"/>
</a>
</g>
<text text-anchor="middle" x="436.5" y="-100" font-family="Helvetica,sans-Serif" font-size="10.00" fill="grey"> &#45;m_editViewModel</text>
</g>
<!-- Node7 -->
<g id="Node000007" class="node">
<title>Node7</title>
<g id="a_Node000007"><a xlink:title=" ">
<polygon fill="white" stroke="transparent" points="346.5,-644 243.5,-644 243.5,-584 346.5,-584 346.5,-644"/>
<text text-anchor="start" x="249" y="-632" font-family="Helvetica,sans-Serif" font-size="10.00">vector&lt; Rml::Input</text>
<text text-anchor="start" x="256" y="-621" font-family="Helvetica,sans-Serif" font-size="10.00">::KeyIdentifier &gt;</text>
<text text-anchor="start" x="293.5" y="-606" font-family="Helvetica,sans-Serif" font-size="10.00"> </text>
<text text-anchor="start" x="293.5" y="-591" font-family="Helvetica,sans-Serif" font-size="10.00"> </text>
<polygon fill="#666666" stroke="#666666" points="244,-616 244,-616 347,-616 347,-616 244,-616"/>
<polygon fill="#666666" stroke="#666666" points="244,-601 244,-601 347,-601 347,-601 244,-601"/>
<polygon fill="none" stroke="#666666" points="243.5,-584 243.5,-644 346.5,-644 346.5,-584 243.5,-584"/>
</a>
</g>
</g>
<!-- Node7&#45;&gt;Node6 -->
<g id="edge6_Node000006_Node000007" class="edge">
<title>Node7&#45;&gt;Node6</title>
<g id="a_edge6_Node000006_Node000007"><a xlink:title=" ">
<path fill="none" stroke="#63b8ff" d="M288.76,-583.93C280.92,-542.08 270.4,-462.77 287,-398 293.78,-371.55 305.81,-344.79 318.91,-320.78"/>
<polygon fill="none" stroke="#63b8ff" points="318.92,-320.77 318.36,-313.58 324.79,-310.3 325.34,-317.49 318.92,-320.77"/>
</a>
</g>
<text text-anchor="middle" x="322" y="-465" font-family="Helvetica,sans-Serif" font-size="10.00" fill="grey"> &#45;newShortCut</text>
</g>
<!-- Node8 -->
<g id="Node000008" class="node">
<title>Node8</title>
<g id="a_Node000008"><a xlink:href="classKeyShortCut.html" target="_top" xlink:title=" ">
<polygon fill="white" stroke="transparent" points="455.5,-537 366.5,-537 366.5,-398 455.5,-398 455.5,-537"/>
<text text-anchor="start" x="381" y="-524.5" font-family="Helvetica,sans-Serif" font-size="10.00">KeyShortCut</text>
<text text-anchor="start" x="409.5" y="-509.5" font-family="Helvetica,sans-Serif" font-size="10.00"> </text>
<text text-anchor="start" x="371" y="-494.5" font-family="Helvetica,sans-Serif" font-size="10.00">+</text>
<text text-anchor="start" x="384" y="-494.5" font-family="Helvetica,sans-Serif" font-size="10.00">KeyShortCut()</text>
<text text-anchor="start" x="371" y="-479.5" font-family="Helvetica,sans-Serif" font-size="10.00">+</text>
<text text-anchor="start" x="384" y="-479.5" font-family="Helvetica,sans-Serif" font-size="10.00">getShortCut()</text>
<text text-anchor="start" x="371" y="-464.5" font-family="Helvetica,sans-Serif" font-size="10.00">+</text>
<text text-anchor="start" x="384" y="-464.5" font-family="Helvetica,sans-Serif" font-size="10.00">setShortCut()</text>
<text text-anchor="start" x="371" y="-449.5" font-family="Helvetica,sans-Serif" font-size="10.00">+</text>
<text text-anchor="start" x="384" y="-449.5" font-family="Helvetica,sans-Serif" font-size="10.00">getEvent()</text>
<text text-anchor="start" x="371" y="-434.5" font-family="Helvetica,sans-Serif" font-size="10.00">+</text>
<text text-anchor="start" x="384" y="-434.5" font-family="Helvetica,sans-Serif" font-size="10.00">operator==()</text>
<text text-anchor="start" x="371" y="-419.5" font-family="Helvetica,sans-Serif" font-size="10.00">+</text>
<text text-anchor="start" x="384" y="-419.5" font-family="Helvetica,sans-Serif" font-size="10.00">toString()</text>
<text text-anchor="start" x="371" y="-404.5" font-family="Helvetica,sans-Serif" font-size="10.00">+</text>
<text text-anchor="start" x="384" y="-404.5" font-family="Helvetica,sans-Serif" font-size="10.00">toString()</text>
<polygon fill="#666666" stroke="#666666" points="367,-519.5 367,-519.5 456,-519.5 456,-519.5 367,-519.5"/>
<polygon fill="#666666" stroke="#666666" points="367,-504.5 367,-504.5 456,-504.5 456,-504.5 367,-504.5"/>
<polygon fill="none" stroke="#666666" points="366.5,-398 366.5,-537 455.5,-537 455.5,-398 366.5,-398"/>
</a>
</g>
</g>
<!-- Node7&#45;&gt;Node8 -->
<g id="edge8_Node000008_Node000007" class="edge">
<title>Node7&#45;&gt;Node8</title>
<g id="a_edge8_Node000008_Node000007"><a xlink:title=" ">
<path fill="none" stroke="#63b8ff" d="M307.19,-583.83C312.14,-574.02 318.48,-563.44 326,-555 335.35,-544.51 341.55,-546.4 352,-537 353.79,-535.39 355.59,-533.72 357.37,-532.01"/>
<polygon fill="none" stroke="#63b8ff" points="357.7,-531.68 359.11,-524.6 366.18,-523.18 364.77,-530.26 357.7,-531.68"/>
</a>
</g>
<text text-anchor="middle" x="389" y="-558" font-family="Helvetica,sans-Serif" font-size="10.00" fill="grey"> &#45;m_shortCutCombination</text>
</g>
<!-- Node8&#45;&gt;Node6 -->
<g id="edge7_Node000006_Node000008" class="edge">
<title>Node8&#45;&gt;Node6</title>
<g id="a_edge7_Node000006_Node000008"><a xlink:title=" ">
<path fill="none" stroke="#63b8ff" d="M400.98,-398C397.52,-374.29 393.58,-347.37 389.91,-322.29"/>
<polygon fill="none" stroke="#63b8ff" points="389.87,-322.02 385.05,-316.66 388.14,-310.15 392.96,-315.51 389.87,-322.02"/>
</a>
</g>
<text text-anchor="middle" x="452" y="-366.5" font-family="Helvetica,sans-Serif" font-size="10.00" fill="grey"> &#45;m_selectedShortCut</text>
</g>
<!-- Node9 -->
<g id="Node000009" class="node">
<title>Node9</title>
<g id="a_Node000009"><a xlink:title=" ">
<polygon fill="white" stroke="transparent" points="510,-638.5 472,-638.5 472,-589.5 510,-589.5 510,-638.5"/>
<text text-anchor="start" x="477" y="-626" font-family="Helvetica,sans-Serif" font-size="10.00">string</text>
<text text-anchor="start" x="489" y="-611" font-family="Helvetica,sans-Serif" font-size="10.00"> </text>
<text text-anchor="start" x="489" y="-596" font-family="Helvetica,sans-Serif" font-size="10.00"> </text>
<polygon fill="#666666" stroke="#666666" points="472,-621 472,-621 510,-621 510,-621 472,-621"/>
<polygon fill="#666666" stroke="#666666" points="472,-606 472,-606 510,-606 510,-606 472,-606"/>
<polygon fill="none" stroke="#666666" points="472,-589.5 472,-638.5 510,-638.5 510,-589.5 472,-589.5"/>
</a>
</g>
</g>
<!-- Node9&#45;&gt;Node8 -->
<g id="edge9_Node000008_Node000009" class="edge">
<title>Node9&#45;&gt;Node8</title>
<g id="a_edge9_Node000008_Node000009"><a xlink:title=" ">
<path fill="none" stroke="#63b8ff" d="M475.3,-589.36C470.55,-581.97 465.43,-573.72 461,-566 457.69,-560.23 454.34,-554.21 451.04,-548.12"/>
<polygon fill="none" stroke="#63b8ff" points="450.82,-547.71 444.46,-544.3 445.16,-537.13 451.52,-540.53 450.82,-547.71"/>
</a>
</g>
<text text-anchor="middle" x="486" y="-558" font-family="Helvetica,sans-Serif" font-size="10.00" fill="grey"> &#45;m_event</text>
</g>
<!-- Node17 -->
<g id="Node000017" class="node">
<title>Node17</title>
<g id="a_Node000017"><a xlink:href="classFileManager.html" target="_top" xlink:title=" ">
<polygon fill="white" stroke="transparent" points="572,-317.5 460,-317.5 460,-148.5 572,-148.5 572,-317.5"/>
<text text-anchor="start" x="485.5" y="-305" font-family="Helvetica,sans-Serif" font-size="10.00">FileManager</text>
<text text-anchor="start" x="514" y="-290" font-family="Helvetica,sans-Serif" font-size="10.00"> </text>
<text text-anchor="start" x="464" y="-275" font-family="Helvetica,sans-Serif" font-size="10.00">+</text>
<text text-anchor="start" x="477" y="-275" font-family="Helvetica,sans-Serif" font-size="10.00">getLastFile()</text>
<text text-anchor="start" x="464" y="-260" font-family="Helvetica,sans-Serif" font-size="10.00">+</text>
<text text-anchor="start" x="477" y="-260" font-family="Helvetica,sans-Serif" font-size="10.00">searchImportFile()</text>
<text text-anchor="start" x="464" y="-245" font-family="Helvetica,sans-Serif" font-size="10.00">+</text>
<text text-anchor="start" x="477" y="-245" font-family="Helvetica,sans-Serif" font-size="10.00">searchExportFile()</text>
<text text-anchor="start" x="464" y="-230" font-family="Helvetica,sans-Serif" font-size="10.00">+</text>
<text text-anchor="start" x="477" y="-230" font-family="Helvetica,sans-Serif" font-size="10.00">readFile()</text>
<text text-anchor="start" x="464" y="-215" font-family="Helvetica,sans-Serif" font-size="10.00">+</text>
<text text-anchor="start" x="477" y="-215" font-family="Helvetica,sans-Serif" font-size="10.00">exportFile()</text>
<text text-anchor="start" x="464" y="-200" font-family="Helvetica,sans-Serif" font-size="10.00">+</text>
<text text-anchor="start" x="477" y="-200" font-family="Helvetica,sans-Serif" font-size="10.00">showErrorDialog()</text>
<text text-anchor="start" x="464" y="-185" font-family="Helvetica,sans-Serif" font-size="10.00">+</text>
<text text-anchor="start" x="477" y="-185" font-family="Helvetica,sans-Serif" font-size="10.00">showGoodDialog()</text>
<text text-anchor="start" x="464" y="-170" font-family="Helvetica,sans-Serif" font-size="10.00">+</text>
<text text-anchor="start" x="477" y="-170" font-family="Helvetica,sans-Serif" font-size="10.00">Instance()</text>
<text text-anchor="start" x="464" y="-155" font-family="Helvetica,sans-Serif" font-size="10.00">#</text>
<text text-anchor="start" x="477" y="-155" font-family="Helvetica,sans-Serif" font-size="10.00">FileManager()</text>
<polygon fill="#666666" stroke="#666666" points="460,-300 460,-300 572,-300 572,-300 460,-300"/>
<polygon fill="#666666" stroke="#666666" points="460,-285 460,-285 572,-285 572,-285 460,-285"/>
<polygon fill="none" stroke="#666666" points="460,-148.5 460,-317.5 572,-317.5 572,-148.5 460,-148.5"/>
</a>
</g>
</g>
<!-- Node9&#45;&gt;Node17 -->
<g id="edge21_Node000017_Node000009" class="edge">
<title>Node9&#45;&gt;Node17</title>
<g id="a_edge21_Node000017_Node000009"><a xlink:title=" ">
<path fill="none" stroke="#63b8ff" d="M503.24,-589.19C506.38,-581.93 509.35,-573.81 511,-566 527.58,-487.69 527.65,-396.66 524.23,-329.74"/>
<polygon fill="none" stroke="#63b8ff" points="524.22,-329.52 519.9,-323.75 523.56,-317.53 527.88,-323.3 524.22,-329.52"/>
</a>
</g>
<text text-anchor="middle" x="556" y="-465" font-family="Helvetica,sans-Serif" font-size="10.00" fill="grey"> &#45;m_lastFile</text>
</g>
<!-- Node10 -->
<g id="Node000010" class="node">
<title>Node10</title>
<g id="a_Node000010"><a xlink:href="classKeyShortCutManager.html" target="_top" xlink:title=" ">
<polygon fill="white" stroke="transparent" points="1020,-332.5 878,-332.5 878,-133.5 1020,-133.5 1020,-332.5"/>
<text text-anchor="start" x="897.5" y="-320" font-family="Helvetica,sans-Serif" font-size="10.00">KeyShortCutManager</text>
<text text-anchor="start" x="947" y="-305" font-family="Helvetica,sans-Serif" font-size="10.00"> </text>
<text text-anchor="start" x="882" y="-290" font-family="Helvetica,sans-Serif" font-size="10.00">+</text>
<text text-anchor="start" x="895" y="-290" font-family="Helvetica,sans-Serif" font-size="10.00">GetPasteShortCut()</text>
<text text-anchor="start" x="882" y="-275" font-family="Helvetica,sans-Serif" font-size="10.00">+</text>
<text text-anchor="start" x="895" y="-275" font-family="Helvetica,sans-Serif" font-size="10.00">GetCopyShortCut()</text>
<text text-anchor="start" x="882" y="-260" font-family="Helvetica,sans-Serif" font-size="10.00">+</text>
<text text-anchor="start" x="895" y="-260" font-family="Helvetica,sans-Serif" font-size="10.00">FilterShortCuts()</text>
<text text-anchor="start" x="882" y="-245" font-family="Helvetica,sans-Serif" font-size="10.00">+</text>
<text text-anchor="start" x="895" y="-245" font-family="Helvetica,sans-Serif" font-size="10.00">ModifyKeyShortCuts()</text>
<text text-anchor="start" x="882" y="-230" font-family="Helvetica,sans-Serif" font-size="10.00">+</text>
<text text-anchor="start" x="895" y="-230" font-family="Helvetica,sans-Serif" font-size="10.00">Instance()</text>
<text text-anchor="start" x="882" y="-215" font-family="Helvetica,sans-Serif" font-size="10.00">#</text>
<text text-anchor="start" x="895" y="-215" font-family="Helvetica,sans-Serif" font-size="10.00">KeyShortCutManager()</text>
<text text-anchor="start" x="884.5" y="-200" font-family="Helvetica,sans-Serif" font-size="10.00">&#45;</text>
<text text-anchor="start" x="895" y="-200" font-family="Helvetica,sans-Serif" font-size="10.00">LoadKeyShortCuts()</text>
<text text-anchor="start" x="884.5" y="-185" font-family="Helvetica,sans-Serif" font-size="10.00">&#45;</text>
<text text-anchor="start" x="895" y="-185" font-family="Helvetica,sans-Serif" font-size="10.00">SelectFile()</text>
<text text-anchor="start" x="884.5" y="-170" font-family="Helvetica,sans-Serif" font-size="10.00">&#45;</text>
<text text-anchor="start" x="895" y="-170" font-family="Helvetica,sans-Serif" font-size="10.00">GetShortCutFromString()</text>
<text text-anchor="start" x="884.5" y="-155" font-family="Helvetica,sans-Serif" font-size="10.00">&#45;</text>
<text text-anchor="start" x="895" y="-155" font-family="Helvetica,sans-Serif" font-size="10.00">GetBaseList()</text>
<text text-anchor="start" x="884.5" y="-140" font-family="Helvetica,sans-Serif" font-size="10.00">&#45;</text>
<text text-anchor="start" x="895" y="-140" font-family="Helvetica,sans-Serif" font-size="10.00">WriteShortCuts()</text>
<polygon fill="#666666" stroke="#666666" points="878,-315 878,-315 1020,-315 1020,-315 878,-315"/>
<polygon fill="#666666" stroke="#666666" points="878,-300 878,-300 1020,-300 1020,-300 878,-300"/>
<polygon fill="none" stroke="#666666" points="878,-133.5 878,-332.5 1020,-332.5 1020,-133.5 878,-133.5"/>
</a>
</g>
</g>
<!-- Node10&#45;&gt;Node1 -->
<g id="edge10_Node000001_Node000010" class="edge">
<title>Node10&#45;&gt;Node1</title>
<g id="a_edge10_Node000001_Node000010"><a xlink:title=" ">
<path fill="none" stroke="#63b8ff" d="M877.61,-189.54C843.53,-169.67 801.98,-146.03 764,-126 737.8,-112.18 731.99,-106.68 704,-97 640.58,-75.07 565.35,-59.75 512.54,-50.65"/>
<polygon fill="none" stroke="#63b8ff" points="512.46,-50.63 505.88,-53.58 500.63,-48.63 507.21,-45.69 512.46,-50.63"/>
</a>
</g>
<text text-anchor="middle" x="796" y="-100" font-family="Helvetica,sans-Serif" font-size="10.00" fill="grey"> &#45;m_keyShortCutsManager</text>
</g>
<!-- Node10&#45;&gt;Node10 -->
<g id="edge11_Node000010_Node000010" class="edge">
<title>Node10&#45;&gt;Node10</title>
<g id="a_edge11_Node000010_Node000010"><a xlink:title=" ">
<path fill="none" stroke="#63b8ff" d="M1020.23,-255.11C1030.83,-251.67 1038,-244.3 1038,-233 1038,-226.11 1035.34,-220.69 1030.86,-216.72"/>
<polygon fill="none" stroke="#63b8ff" points="1030.75,-216.66 1023.56,-217.28 1020.23,-210.89 1027.41,-210.27 1030.75,-216.66"/>
</a>
</g>
<text text-anchor="middle" x="1070" y="-230.5" font-family="Helvetica,sans-Serif" font-size="10.00" fill="grey"> &#45;m_instance</text>
</g>
<!-- Node11 -->
<g id="Node000011" class="node">
<title>Node11</title>
<g id="a_Node000011"><a xlink:title=" ">
<polygon fill="white" stroke="transparent" points="959,-492 827,-492 827,-443 959,-443 959,-492"/>
<text text-anchor="start" x="832" y="-479.5" font-family="Helvetica,sans-Serif" font-size="10.00">vector&lt; KeyShortCut * &gt;</text>
<text text-anchor="start" x="891" y="-464.5" font-family="Helvetica,sans-Serif" font-size="10.00"> </text>
<text text-anchor="start" x="891" y="-449.5" font-family="Helvetica,sans-Serif" font-size="10.00"> </text>
<polygon fill="#666666" stroke="#666666" points="827,-474.5 827,-474.5 959,-474.5 959,-474.5 827,-474.5"/>
<polygon fill="#666666" stroke="#666666" points="827,-459.5 827,-459.5 959,-459.5 959,-459.5 827,-459.5"/>
<polygon fill="none" stroke="#666666" points="827,-443 827,-492 959,-492 959,-443 827,-443"/>
</a>
</g>
</g>
<!-- Node11&#45;&gt;Node10 -->
<g id="edge12_Node000010_Node000011" class="edge">
<title>Node11&#45;&gt;Node10</title>
<g id="a_edge12_Node000010_Node000011"><a xlink:title=" ">
<path fill="none" stroke="#63b8ff" d="M889.02,-442.89C886.06,-420.69 883.53,-386.67 890,-358 891.03,-353.42 892.26,-348.81 893.64,-344.21"/>
<polygon fill="none" stroke="#63b8ff" points="893.64,-344.19 891.7,-337.25 897.36,-332.78 899.3,-339.73 893.64,-344.19"/>
</a>
</g>
<text text-anchor="middle" x="934" y="-372" font-family="Helvetica,sans-Serif" font-size="10.00" fill="grey"> &#45;m_shortcuts</text>
<text text-anchor="middle" x="934" y="-361" font-family="Helvetica,sans-Serif" font-size="10.00" fill="grey">&#45;m_shortcutsBase</text>
</g>
<!-- Node12 -->
<g id="Node000012" class="node">
<title>Node12</title>
<g id="a_Node000012"><a xlink:title=" ">
<polygon fill="white" stroke="transparent" points="1015.5,-492 992.5,-492 992.5,-443 1015.5,-443 1015.5,-492"/>
<text text-anchor="start" x="998" y="-479.5" font-family="Helvetica,sans-Serif" font-size="10.00">int</text>
<text text-anchor="start" x="1002.5" y="-464.5" font-family="Helvetica,sans-Serif" font-size="10.00"> </text>
<text text-anchor="start" x="1002.5" y="-449.5" font-family="Helvetica,sans-Serif" font-size="10.00"> </text>
<polygon fill="#666666" stroke="#666666" points="993,-474.5 993,-474.5 1016,-474.5 1016,-474.5 993,-474.5"/>
<polygon fill="#666666" stroke="#666666" points="993,-459.5 993,-459.5 1016,-459.5 1016,-459.5 993,-459.5"/>
<polygon fill="none" stroke="#666666" points="992.5,-443 992.5,-492 1015.5,-492 1015.5,-443 992.5,-443"/>
</a>
</g>
</g>
<!-- Node12&#45;&gt;Node10 -->
<g id="edge13_Node000010_Node000012" class="edge">
<title>Node12&#45;&gt;Node10</title>
<g id="a_edge13_Node000010_Node000012"><a xlink:title=" ">
<path fill="none" stroke="#63b8ff" d="M999.6,-442.71C995.43,-420.66 988.79,-387.01 982,-358 980.97,-353.62 979.91,-349.16 978.81,-344.66"/>
<polygon fill="none" stroke="#63b8ff" points="978.72,-344.33 973.4,-339.47 975.83,-332.68 981.16,-337.54 978.72,-344.33"/>
</a>
</g>
<text text-anchor="middle" x="1020.5" y="-366.5" font-family="Helvetica,sans-Serif" font-size="10.00" fill="grey"> &#45;keysFiltered</text>
</g>
<!-- Node13 -->
<g id="Node000013" class="node">
<title>Node13</title>
<g id="a_Node000013"><a xlink:title=" ">
<polygon fill="white" stroke="transparent" points="1130,-492 1058,-492 1058,-443 1130,-443 1130,-492"/>
<text text-anchor="start" x="1063" y="-479.5" font-family="Helvetica,sans-Serif" font-size="10.00">KeyIdentifier</text>
<text text-anchor="start" x="1092" y="-464.5" font-family="Helvetica,sans-Serif" font-size="10.00"> </text>
<text text-anchor="start" x="1092" y="-449.5" font-family="Helvetica,sans-Serif" font-size="10.00"> </text>
<polygon fill="#666666" stroke="#666666" points="1058,-474.5 1058,-474.5 1130,-474.5 1130,-474.5 1058,-474.5"/>
<polygon fill="#666666" stroke="#666666" points="1058,-459.5 1058,-459.5 1130,-459.5 1130,-459.5 1058,-459.5"/>
<polygon fill="none" stroke="#666666" points="1058,-443 1058,-492 1130,-492 1130,-443 1058,-443"/>
</a>
</g>
</g>
<!-- Node13&#45;&gt;Node10 -->
<g id="edge14_Node000010_Node000013" class="edge">
<title>Node13&#45;&gt;Node10</title>
<g id="a_edge14_Node000010_Node000013"><a xlink:title=" ">
<path fill="none" stroke="#63b8ff" d="M1089.07,-442.93C1083.66,-420.16 1073.6,-385.2 1058,-358 1049.48,-343.15 1039.01,-328.48 1027.95,-314.72"/>
<polygon fill="none" stroke="#63b8ff" points="1027.86,-314.6 1020.95,-312.52 1020.22,-305.34 1027.13,-307.43 1027.86,-314.6"/>
</a>
</g>
<text text-anchor="middle" x="1109" y="-366.5" font-family="Helvetica,sans-Serif" font-size="10.00" fill="grey"> &#45;lastKeyPressed</text>
</g>
<!-- Node14 -->
<g id="Node000014" class="node">
<title>Node14</title>
<g id="a_Node000014"><a xlink:href="classTranslationManager.html" target="_top" xlink:title=" ">
<polygon fill="white" stroke="transparent" points="726.5,-514.5 601.5,-514.5 601.5,-420.5 726.5,-420.5 726.5,-514.5"/>
<text text-anchor="start" x="616" y="-502.5" font-family="Helvetica,sans-Serif" font-size="10.00">TranslationManager</text>
<text text-anchor="start" x="662.5" y="-487.5" font-family="Helvetica,sans-Serif" font-size="10.00"> </text>
<text text-anchor="start" x="606" y="-472.5" font-family="Helvetica,sans-Serif" font-size="10.00">+</text>
<text text-anchor="start" x="619" y="-472.5" font-family="Helvetica,sans-Serif" font-size="10.00">loadLanguage()</text>
<text text-anchor="start" x="606" y="-457.5" font-family="Helvetica,sans-Serif" font-size="10.00">+</text>
<text text-anchor="start" x="619" y="-457.5" font-family="Helvetica,sans-Serif" font-size="10.00">getString()</text>
<text text-anchor="start" x="606" y="-442.5" font-family="Helvetica,sans-Serif" font-size="10.00">+</text>
<text text-anchor="start" x="619" y="-442.5" font-family="Helvetica,sans-Serif" font-size="10.00">Instance()</text>
<text text-anchor="start" x="606" y="-427.5" font-family="Helvetica,sans-Serif" font-size="10.00">#</text>
<text text-anchor="start" x="619" y="-427.5" font-family="Helvetica,sans-Serif" font-size="10.00">TranslationManager()</text>
<polygon fill="#666666" stroke="#666666" points="602,-497.5 602,-497.5 727,-497.5 727,-497.5 602,-497.5"/>
<polygon fill="#666666" stroke="#666666" points="602,-482.5 602,-482.5 727,-482.5 727,-482.5 602,-482.5"/>
<polygon fill="none" stroke="#666666" points="601.5,-420.5 601.5,-514.5 726.5,-514.5 726.5,-420.5 601.5,-420.5"/>
</a>
</g>
</g>
<!-- Node14&#45;&gt;Node1 -->
<g id="edge15_Node000001_Node000014" class="edge">
<title>Node14&#45;&gt;Node1</title>
<g id="a_edge15_Node000001_Node000014"><a xlink:title=" ">
<path fill="none" stroke="#63b8ff" d="M679,-420.34C698.81,-349.95 724.48,-214.65 663,-126 629.21,-77.28 563.08,-56.32 512.66,-47.3"/>
<polygon fill="none" stroke="#63b8ff" points="512.38,-47.26 505.81,-50.23 500.54,-45.31 507.11,-42.34 512.38,-47.26"/>
</a>
</g>
<text text-anchor="middle" x="737" y="-230.5" font-family="Helvetica,sans-Serif" font-size="10.00" fill="grey"> &#45;m_translator</text>
</g>
<!-- Node14&#45;&gt;Node14 -->
<g id="edge16_Node000014_Node000014" class="edge">
<title>Node14&#45;&gt;Node14</title>
<g id="a_edge16_Node000014_Node000014"><a xlink:title=" ">
<path fill="none" stroke="#63b8ff" d="M726.78,-483.53C737.26,-481.29 744.5,-475.95 744.5,-467.5 744.5,-462.62 742.08,-458.77 738.01,-455.96"/>
<polygon fill="none" stroke="#63b8ff" points="737.92,-455.92 730.86,-457.41 726.78,-451.47 733.83,-449.98 737.92,-455.92"/>
</a>
</g>
<text text-anchor="middle" x="776.5" y="-465" font-family="Helvetica,sans-Serif" font-size="10.00" fill="grey"> &#45;m_instance</text>
</g>
<!-- Node14&#45;&gt;Node17 -->
<g id="edge22_Node000017_Node000014" class="edge">
<title>Node14&#45;&gt;Node17</title>
<g id="a_edge22_Node000017_Node000014"><a xlink:title=" ">
<path fill="none" stroke="#63b8ff" d="M634.58,-420.29C617.77,-393.88 596.07,-359.78 575.83,-327.99"/>
<polygon fill="none" stroke="#63b8ff" points="575.76,-327.89 569.17,-324.97 569.32,-317.76 575.92,-320.68 575.76,-327.89"/>
</a>
</g>
<text text-anchor="middle" x="635.5" y="-366.5" font-family="Helvetica,sans-Serif" font-size="10.00" fill="grey"> &#45;translator</text>
</g>
<!-- Node15 -->
<g id="Node000015" class="node">
<title>Node15</title>
<g id="a_Node000015"><a xlink:title=" ">
<polygon fill="white" stroke="transparent" points="673.5,-644 560.5,-644 560.5,-584 673.5,-584 673.5,-644"/>
<text text-anchor="start" x="566" y="-632" font-family="Helvetica,sans-Serif" font-size="10.00">map&lt; std::string, std</text>
<text text-anchor="start" x="594.5" y="-621" font-family="Helvetica,sans-Serif" font-size="10.00">::string &gt;</text>
<text text-anchor="start" x="615.5" y="-606" font-family="Helvetica,sans-Serif" font-size="10.00"> </text>
<text text-anchor="start" x="615.5" y="-591" font-family="Helvetica,sans-Serif" font-size="10.00"> </text>
<polygon fill="#666666" stroke="#666666" points="561,-616 561,-616 674,-616 674,-616 561,-616"/>
<polygon fill="#666666" stroke="#666666" points="561,-601 561,-601 674,-601 674,-601 561,-601"/>
<polygon fill="none" stroke="#666666" points="560.5,-584 560.5,-644 673.5,-644 673.5,-584 560.5,-584"/>
</a>
</g>
</g>
<!-- Node15&#45;&gt;Node14 -->
<g id="edge17_Node000014_Node000015" class="edge">
<title>Node15&#45;&gt;Node14</title>
<g id="a_edge17_Node000014_Node000015"><a xlink:title=" ">
<path fill="none" stroke="#63b8ff" d="M625.28,-583.71C627.97,-574.49 631.03,-564.29 634,-555 636.99,-545.64 640.29,-535.75 643.57,-526.13"/>
<polygon fill="none" stroke="#63b8ff" points="643.64,-525.95 641.81,-518.97 647.55,-514.6 649.37,-521.57 643.64,-525.95"/>
</a>
</g>
<text text-anchor="middle" x="661.5" y="-558" font-family="Helvetica,sans-Serif" font-size="10.00" fill="grey"> &#45;m_strings</text>
</g>
<!-- Node16 -->
<g id="Node000016" class="node">
<title>Node16</title>
<g id="a_Node000016"><a xlink:title=" ">
<polygon fill="white" stroke="transparent" points="730,-638.5 692,-638.5 692,-589.5 730,-589.5 730,-638.5"/>
<text text-anchor="start" x="697" y="-626" font-family="Helvetica,sans-Serif" font-size="10.00">string</text>
<text text-anchor="start" x="709" y="-611" font-family="Helvetica,sans-Serif" font-size="10.00"> </text>
<text text-anchor="start" x="709" y="-596" font-family="Helvetica,sans-Serif" font-size="10.00"> </text>
<polygon fill="#666666" stroke="#666666" points="692,-621 692,-621 730,-621 730,-621 692,-621"/>
<polygon fill="#666666" stroke="#666666" points="692,-606 692,-606 730,-606 730,-606 692,-606"/>
<polygon fill="none" stroke="#666666" points="692,-589.5 692,-638.5 730,-638.5 730,-589.5 692,-589.5"/>
</a>
</g>
</g>
<!-- Node16&#45;&gt;Node14 -->
<g id="edge18_Node000014_Node000016" class="edge">
<title>Node16&#45;&gt;Node14</title>
<g id="a_edge18_Node000014_Node000016"><a xlink:title=" ">
<path fill="none" stroke="#63b8ff" d="M703.34,-589.46C697.77,-572.31 689.96,-548.31 682.77,-526.2"/>
<polygon fill="none" stroke="#63b8ff" points="682.68,-525.92 677.02,-521.45 678.97,-514.51 684.63,-518.98 682.68,-525.92"/>
</a>
</g>
<text text-anchor="middle" x="738.5" y="-558" font-family="Helvetica,sans-Serif" font-size="10.00" fill="grey"> &#45;m_empty_string</text>
</g>
<!-- Node17&#45;&gt;Node1 -->
<g id="edge19_Node000001_Node000017" class="edge">
<title>Node17&#45;&gt;Node1</title>
<g id="a_edge19_Node000001_Node000017"><a xlink:title=" ">
<path fill="none" stroke="#63b8ff" d="M501.13,-148.37C496.68,-131.01 491.05,-113.11 484,-97 482.98,-94.67 481.87,-92.34 480.68,-90.02"/>
<polygon fill="none" stroke="#63b8ff" points="480.53,-89.75 474.11,-86.47 474.67,-79.28 481.09,-82.56 480.53,-89.75"/>
</a>
</g>
<text text-anchor="middle" x="529" y="-100" font-family="Helvetica,sans-Serif" font-size="10.00" fill="grey"> &#45;m_fileManager</text>
</g>
<!-- Node17&#45;&gt;Node17 -->
<g id="edge20_Node000017_Node000017" class="edge">
<title>Node17&#45;&gt;Node17</title>
<g id="a_edge20_Node000017_Node000017"><a xlink:title=" ">
<path fill="none" stroke="#63b8ff" d="M572.15,-256.12C582.62,-253.28 590,-245.57 590,-233 590,-225.54 587.4,-219.79 583.09,-215.75"/>
<polygon fill="none" stroke="#63b8ff" points="582.72,-215.55 575.54,-216.24 572.15,-209.88 579.32,-209.19 582.72,-215.55"/>
</a>
</g>
<text text-anchor="middle" x="622" y="-230.5" font-family="Helvetica,sans-Serif" font-size="10.00" fill="grey"> &#45;m_instance</text>
</g>
</g>
</svg>
