<?xml version="1.0" encoding="UTF-8" standalone="no"?>
<!DOCTYPE svg PUBLIC "-//W3C//DTD SVG 1.1//EN"
 "http://www.w3.org/Graphics/SVG/1.1/DTD/svg11.dtd">
<!-- Generated by graphviz version 2.43.0 (0)
 -->
<!-- Title: ClipboardListener Pages: 1 -->
<svg width="458pt" height="239pt"
 viewBox="0.00 0.00 457.50 239.00" xmlns="http://www.w3.org/2000/svg" xmlns:xlink="http://www.w3.org/1999/xlink">
<g id="graph0" class="graph" transform="scale(1 1) rotate(0) translate(4 235)">
<title>ClipboardListener</title>
<!-- Node1 -->
<g id="Node000001" class="node">
<title>Node1</title>
<g id="a_Node000001"><a xlink:title=" ">
<polygon fill="#999999" stroke="transparent" points="256.5,-124 87.5,-124 87.5,0 256.5,0 256.5,-124"/>
<text text-anchor="start" x="129.5" y="-112" font-family="Helvetica,sans-Serif" font-size="10.00">ClipboardListener</text>
<text text-anchor="start" x="170.5" y="-97" font-family="Helvetica,sans-Serif" font-size="10.00"> </text>
<text text-anchor="start" x="92" y="-82" font-family="Helvetica,sans-Serif" font-size="10.00">+</text>
<text text-anchor="start" x="105" y="-82" font-family="Helvetica,sans-Serif" font-size="10.00">Initialize()</text>
<text text-anchor="start" x="92" y="-67" font-family="Helvetica,sans-Serif" font-size="10.00">+</text>
<text text-anchor="start" x="105" y="-67" font-family="Helvetica,sans-Serif" font-size="10.00">AddCallback()</text>
<text text-anchor="start" x="92" y="-52" font-family="Helvetica,sans-Serif" font-size="10.00">+</text>
<text text-anchor="start" x="105" y="-52" font-family="Helvetica,sans-Serif" font-size="10.00">AddBaseCallback()</text>
<text text-anchor="start" x="92" y="-37" font-family="Helvetica,sans-Serif" font-size="10.00">+</text>
<text text-anchor="start" x="105" y="-37" font-family="Helvetica,sans-Serif" font-size="10.00">Instance()</text>
<text text-anchor="start" x="92" y="-22" font-family="Helvetica,sans-Serif" font-size="10.00">#</text>
<text text-anchor="start" x="105" y="-22" font-family="Helvetica,sans-Serif" font-size="10.00">ClipboardListener()</text>
<text text-anchor="start" x="94.5" y="-7" font-family="Helvetica,sans-Serif" font-size="10.00">&#45;</text>
<text text-anchor="start" x="105" y="-7" font-family="Helvetica,sans-Serif" font-size="10.00">OnSystemClipboardChanged()</text>
<polygon fill="#666666" stroke="#666666" points="88,-107 88,-107 257,-107 257,-107 88,-107"/>
<polygon fill="#666666" stroke="#666666" points="88,-92 88,-92 257,-92 257,-92 88,-92"/>
<polygon fill="none" stroke="#666666" points="87.5,0 87.5,-124 256.5,-124 256.5,0 87.5,0"/>
</a>
</g>
</g>
<!-- Node2 -->
<g id="Node000002" class="node">
<title>Node2</title>
<g id="a_Node000002"><a xlink:href="classQObject.html" target="_top" xlink:title=" ">
<polygon fill="white" stroke="transparent" points="50,-225.5 0,-225.5 0,-176.5 50,-176.5 50,-225.5"/>
<text text-anchor="start" x="5" y="-213" font-family="Helvetica,sans-Serif" font-size="10.00">QObject</text>
<text text-anchor="start" x="23" y="-198" font-family="Helvetica,sans-Serif" font-size="10.00"> </text>
<text text-anchor="start" x="23" y="-183" font-family="Helvetica,sans-Serif" font-size="10.00"> </text>
<polygon fill="#666666" stroke="#666666" points="0,-208 0,-208 50,-208 50,-208 0,-208"/>
<polygon fill="#666666" stroke="#666666" points="0,-193 0,-193 50,-193 50,-193 0,-193"/>
<polygon fill="none" stroke="#666666" points="0,-176.5 0,-225.5 50,-225.5 50,-176.5 0,-176.5"/>
</a>
</g>
</g>
<!-- Node2&#45;&gt;Node1 -->
<g id="edge1_Node000001_Node000002" class="edge">
<title>Node2&#45;&gt;Node1</title>
<g id="a_edge1_Node000001_Node000002"><a xlink:title=" ">
<path fill="none" stroke="#63b8ff" d="M57.9,-169.34C72.22,-155.99 89.54,-139.85 106.31,-124.22"/>
<polygon fill="none" stroke="#63b8ff" points="55.2,-167.07 50.27,-176.45 59.97,-172.19 55.2,-167.07"/>
</a>
</g>
</g>
<!-- Node3 -->
<g id="Node000003" class="node">
<title>Node3</title>
<g id="a_Node000003"><a xlink:title=" ">
<polygon fill="white" stroke="transparent" points="141.5,-225.5 68.5,-225.5 68.5,-176.5 141.5,-176.5 141.5,-225.5"/>
<text text-anchor="start" x="74" y="-213" font-family="Helvetica,sans-Serif" font-size="10.00">QClipboard *</text>
<text text-anchor="start" x="103.5" y="-198" font-family="Helvetica,sans-Serif" font-size="10.00"> </text>
<text text-anchor="start" x="103.5" y="-183" font-family="Helvetica,sans-Serif" font-size="10.00"> </text>
<polygon fill="#666666" stroke="#666666" points="69,-208 69,-208 142,-208 142,-208 69,-208"/>
<polygon fill="#666666" stroke="#666666" points="69,-193 69,-193 142,-193 142,-193 69,-193"/>
<polygon fill="none" stroke="#666666" points="68.5,-176.5 68.5,-225.5 141.5,-225.5 141.5,-176.5 68.5,-176.5"/>
</a>
</g>
</g>
<!-- Node3&#45;&gt;Node1 -->
<g id="edge2_Node000001_Node000003" class="edge">
<title>Node3&#45;&gt;Node1</title>
<g id="a_edge2_Node000001_Node000003"><a xlink:title=" ">
<path fill="none" stroke="#63b8ff" d="M116.52,-176.45C122.21,-164.81 129.41,-150.08 136.73,-135.12"/>
<polygon fill="none" stroke="#63b8ff" points="136.79,-135 135.83,-127.85 142.06,-124.22 143.02,-131.37 136.79,-135"/>
</a>
</g>
<text text-anchor="middle" x="166.5" y="-145" font-family="Helvetica,sans-Serif" font-size="10.00" fill="grey"> &#45;m_clipboard</text>
</g>
<!-- Node4 -->
<g id="Node000004" class="node">
<title>Node4</title>
<g id="a_Node000004"><a xlink:title=" ">
<polygon fill="white" stroke="transparent" points="318,-231 160,-231 160,-171 318,-171 318,-231"/>
<text text-anchor="start" x="165" y="-219" font-family="Helvetica,sans-Serif" font-size="10.00">queue&lt; std::function</text>
<text text-anchor="start" x="165" y="-208" font-family="Helvetica,sans-Serif" font-size="10.00">&lt; void(const std::string &amp;)&gt; &gt;</text>
<text text-anchor="start" x="237" y="-193" font-family="Helvetica,sans-Serif" font-size="10.00"> </text>
<text text-anchor="start" x="237" y="-178" font-family="Helvetica,sans-Serif" font-size="10.00"> </text>
<polygon fill="#666666" stroke="#666666" points="160,-203 160,-203 318,-203 318,-203 160,-203"/>
<polygon fill="#666666" stroke="#666666" points="160,-188 160,-188 318,-188 318,-188 160,-188"/>
<polygon fill="none" stroke="#666666" points="160,-171 160,-231 318,-231 318,-171 160,-171"/>
</a>
</g>
</g>
<!-- Node4&#45;&gt;Node1 -->
<g id="edge3_Node000001_Node000004" class="edge">
<title>Node4&#45;&gt;Node1</title>
<g id="a_edge3_Node000001_Node000004"><a xlink:title=" ">
<path fill="none" stroke="#63b8ff" d="M224.79,-170.95C219.62,-160.38 213.52,-147.9 207.34,-135.26"/>
<polygon fill="none" stroke="#63b8ff" points="207.18,-134.93 200.95,-131.3 201.91,-124.15 208.13,-127.78 207.18,-134.93"/>
</a>
</g>
<text text-anchor="middle" x="257" y="-145" font-family="Helvetica,sans-Serif" font-size="10.00" fill="grey"> &#45;m_actionQueue</text>
</g>
<!-- Node5 -->
<g id="Node000005" class="node">
<title>Node5</title>
<g id="a_Node000005"><a xlink:title=" ">
<polygon fill="white" stroke="transparent" points="449.5,-231 336.5,-231 336.5,-171 449.5,-171 449.5,-231"/>
<text text-anchor="start" x="342" y="-219" font-family="Helvetica,sans-Serif" font-size="10.00">function&lt; void(const</text>
<text text-anchor="start" x="356" y="-208" font-family="Helvetica,sans-Serif" font-size="10.00"> std::string &amp;)&gt;</text>
<text text-anchor="start" x="391.5" y="-193" font-family="Helvetica,sans-Serif" font-size="10.00"> </text>
<text text-anchor="start" x="391.5" y="-178" font-family="Helvetica,sans-Serif" font-size="10.00"> </text>
<polygon fill="#666666" stroke="#666666" points="337,-203 337,-203 450,-203 450,-203 337,-203"/>
<polygon fill="#666666" stroke="#666666" points="337,-188 337,-188 450,-188 450,-188 337,-188"/>
<polygon fill="none" stroke="#666666" points="336.5,-171 336.5,-231 449.5,-231 449.5,-171 336.5,-171"/>
</a>
</g>
</g>
<!-- Node5&#45;&gt;Node1 -->
<g id="edge4_Node000001_Node000005" class="edge">
<title>Node5&#45;&gt;Node1</title>
<g id="a_edge4_Node000001_Node000005"><a xlink:title=" ">
<path fill="none" stroke="#63b8ff" d="M348.3,-170.82C333.9,-161.52 317.83,-151.25 303,-142 291.5,-134.83 279.37,-127.37 267.33,-120.04"/>
<polygon fill="none" stroke="#63b8ff" points="267.04,-119.86 259.84,-120.16 256.79,-113.63 263.99,-113.33 267.04,-119.86"/>
</a>
</g>
<text text-anchor="middle" x="358" y="-145" font-family="Helvetica,sans-Serif" font-size="10.00" fill="grey"> &#45;m_baseAction</text>
</g>
</g>
</svg>
