<?xml version="1.0" encoding="UTF-8" standalone="no"?>
<!DOCTYPE svg PUBLIC "-//W3C//DTD SVG 1.1//EN"
 "http://www.w3.org/Graphics/SVG/1.1/DTD/svg11.dtd">
<!-- Generated by graphviz version 2.43.0 (0)
 -->
<!-- Title: RenderInterface_GL3_SDL Pages: 1 -->
<svg width="1611pt" height="1288pt"
 viewBox="0.00 0.00 1611.00 1288.00" xmlns="http://www.w3.org/2000/svg" xmlns:xlink="http://www.w3.org/1999/xlink">
<g id="graph0" class="graph" transform="scale(1 1) rotate(0) translate(4 1284)">
<title>RenderInterface_GL3_SDL</title>
<!-- Node1 -->
<g id="Node000001" class="node">
<title>Node1</title>
<g id="a_Node000001"><a xlink:title=" ">
<polygon fill="#999999" stroke="transparent" points="798.5,-75 661.5,-75 661.5,0 798.5,0 798.5,-75"/>
<text text-anchor="start" x="667" y="-62.5" font-family="Helvetica,sans-Serif" font-size="10.00">RenderInterface_GL3_SDL</text>
<text text-anchor="start" x="728.5" y="-47.5" font-family="Helvetica,sans-Serif" font-size="10.00"> </text>
<text text-anchor="start" x="669" y="-32.5" font-family="Helvetica,sans-Serif" font-size="10.00">+</text>
<text text-anchor="start" x="685" y="-32.5" font-family="Helvetica,sans-Serif" font-size="10.00">RenderInterface_GL3</text>
<text text-anchor="start" x="685" y="-21.5" font-family="Helvetica,sans-Serif" font-size="10.00">_SDL()</text>
<text text-anchor="start" x="669" y="-6.5" font-family="Helvetica,sans-Serif" font-size="10.00">+</text>
<text text-anchor="start" x="685" y="-6.5" font-family="Helvetica,sans-Serif" font-size="10.00">LoadTexture()</text>
<polygon fill="#666666" stroke="#666666" points="662,-57.5 662,-57.5 799,-57.5 799,-57.5 662,-57.5"/>
<polygon fill="#666666" stroke="#666666" points="662,-42.5 662,-42.5 799,-42.5 799,-42.5 662,-42.5"/>
<polygon fill="none" stroke="#666666" points="661.5,0 661.5,-75 798.5,-75 798.5,0 661.5,0"/>
</a>
</g>
</g>
<!-- Node2 -->
<g id="Node000002" class="node">
<title>Node2</title>
<g id="a_Node000002"><a xlink:href="classRenderInterface__GL3.html" target="_top" xlink:title=" ">
<polygon fill="white" stroke="transparent" points="820,-731 640,-731 640,-112 820,-112 820,-731"/>
<text text-anchor="start" x="678.5" y="-718.5" font-family="Helvetica,sans-Serif" font-size="10.00">RenderInterface_GL3</text>
<text text-anchor="start" x="728" y="-703.5" font-family="Helvetica,sans-Serif" font-size="10.00"> </text>
<text text-anchor="start" x="644" y="-688.5" font-family="Helvetica,sans-Serif" font-size="10.00">+</text>
<text text-anchor="start" x="657" y="-688.5" font-family="Helvetica,sans-Serif" font-size="10.00">RenderInterface_GL3()</text>
<text text-anchor="start" x="644" y="-673.5" font-family="Helvetica,sans-Serif" font-size="10.00">+</text>
<text text-anchor="start" x="657" y="-673.5" font-family="Helvetica,sans-Serif" font-size="10.00">~RenderInterface_GL3()</text>
<text text-anchor="start" x="644" y="-658.5" font-family="Helvetica,sans-Serif" font-size="10.00">+</text>
<text text-anchor="start" x="657" y="-658.5" font-family="Helvetica,sans-Serif" font-size="10.00">operator bool()</text>
<text text-anchor="start" x="644" y="-643.5" font-family="Helvetica,sans-Serif" font-size="10.00">+</text>
<text text-anchor="start" x="657" y="-643.5" font-family="Helvetica,sans-Serif" font-size="10.00">SetViewport()</text>
<text text-anchor="start" x="644" y="-628.5" font-family="Helvetica,sans-Serif" font-size="10.00">+</text>
<text text-anchor="start" x="657" y="-628.5" font-family="Helvetica,sans-Serif" font-size="10.00">BeginFrame()</text>
<text text-anchor="start" x="644" y="-613.5" font-family="Helvetica,sans-Serif" font-size="10.00">+</text>
<text text-anchor="start" x="657" y="-613.5" font-family="Helvetica,sans-Serif" font-size="10.00">EndFrame()</text>
<text text-anchor="start" x="644" y="-598.5" font-family="Helvetica,sans-Serif" font-size="10.00">+</text>
<text text-anchor="start" x="657" y="-598.5" font-family="Helvetica,sans-Serif" font-size="10.00">Clear()</text>
<text text-anchor="start" x="644" y="-583.5" font-family="Helvetica,sans-Serif" font-size="10.00">+</text>
<text text-anchor="start" x="657" y="-583.5" font-family="Helvetica,sans-Serif" font-size="10.00">CompileGeometry()</text>
<text text-anchor="start" x="644" y="-568.5" font-family="Helvetica,sans-Serif" font-size="10.00">+</text>
<text text-anchor="start" x="657" y="-568.5" font-family="Helvetica,sans-Serif" font-size="10.00">RenderGeometry()</text>
<text text-anchor="start" x="644" y="-553.5" font-family="Helvetica,sans-Serif" font-size="10.00">+</text>
<text text-anchor="start" x="657" y="-553.5" font-family="Helvetica,sans-Serif" font-size="10.00">ReleaseGeometry()</text>
<text text-anchor="start" x="644" y="-538.5" font-family="Helvetica,sans-Serif" font-size="10.00">+</text>
<text text-anchor="start" x="657" y="-538.5" font-family="Helvetica,sans-Serif" font-size="10.00">LoadTexture()</text>
<text text-anchor="start" x="644" y="-523.5" font-family="Helvetica,sans-Serif" font-size="10.00">+</text>
<text text-anchor="start" x="657" y="-523.5" font-family="Helvetica,sans-Serif" font-size="10.00">GenerateTexture()</text>
<text text-anchor="start" x="644" y="-508.5" font-family="Helvetica,sans-Serif" font-size="10.00">+</text>
<text text-anchor="start" x="657" y="-508.5" font-family="Helvetica,sans-Serif" font-size="10.00">ReleaseTexture()</text>
<text text-anchor="start" x="644" y="-493.5" font-family="Helvetica,sans-Serif" font-size="10.00">+</text>
<text text-anchor="start" x="657" y="-493.5" font-family="Helvetica,sans-Serif" font-size="10.00">EnableScissorRegion()</text>
<text text-anchor="start" x="644" y="-478.5" font-family="Helvetica,sans-Serif" font-size="10.00">+</text>
<text text-anchor="start" x="657" y="-478.5" font-family="Helvetica,sans-Serif" font-size="10.00">SetScissorRegion()</text>
<text text-anchor="start" x="644" y="-463.5" font-family="Helvetica,sans-Serif" font-size="10.00">+</text>
<text text-anchor="start" x="657" y="-463.5" font-family="Helvetica,sans-Serif" font-size="10.00">EnableClipMask()</text>
<text text-anchor="start" x="644" y="-448.5" font-family="Helvetica,sans-Serif" font-size="10.00">+</text>
<text text-anchor="start" x="657" y="-448.5" font-family="Helvetica,sans-Serif" font-size="10.00">RenderToClipMask()</text>
<text text-anchor="start" x="644" y="-433.5" font-family="Helvetica,sans-Serif" font-size="10.00">+</text>
<text text-anchor="start" x="657" y="-433.5" font-family="Helvetica,sans-Serif" font-size="10.00">SetTransform()</text>
<text text-anchor="start" x="644" y="-418.5" font-family="Helvetica,sans-Serif" font-size="10.00">+</text>
<text text-anchor="start" x="657" y="-418.5" font-family="Helvetica,sans-Serif" font-size="10.00">PushLayer()</text>
<text text-anchor="start" x="644" y="-403.5" font-family="Helvetica,sans-Serif" font-size="10.00">+</text>
<text text-anchor="start" x="657" y="-403.5" font-family="Helvetica,sans-Serif" font-size="10.00">CompositeLayers()</text>
<text text-anchor="start" x="644" y="-388.5" font-family="Helvetica,sans-Serif" font-size="10.00">+</text>
<text text-anchor="start" x="657" y="-388.5" font-family="Helvetica,sans-Serif" font-size="10.00">PopLayer()</text>
<text text-anchor="start" x="644" y="-373.5" font-family="Helvetica,sans-Serif" font-size="10.00">+</text>
<text text-anchor="start" x="657" y="-373.5" font-family="Helvetica,sans-Serif" font-size="10.00">SaveLayerAsTexture()</text>
<text text-anchor="start" x="644" y="-358.5" font-family="Helvetica,sans-Serif" font-size="10.00">+</text>
<text text-anchor="start" x="657" y="-358.5" font-family="Helvetica,sans-Serif" font-size="10.00">SaveLayerAsMaskImage()</text>
<text text-anchor="start" x="644" y="-343.5" font-family="Helvetica,sans-Serif" font-size="10.00">+</text>
<text text-anchor="start" x="657" y="-343.5" font-family="Helvetica,sans-Serif" font-size="10.00">CompileFilter()</text>
<text text-anchor="start" x="644" y="-328.5" font-family="Helvetica,sans-Serif" font-size="10.00">+</text>
<text text-anchor="start" x="657" y="-328.5" font-family="Helvetica,sans-Serif" font-size="10.00">ReleaseFilter()</text>
<text text-anchor="start" x="644" y="-313.5" font-family="Helvetica,sans-Serif" font-size="10.00">+</text>
<text text-anchor="start" x="657" y="-313.5" font-family="Helvetica,sans-Serif" font-size="10.00">CompileShader()</text>
<text text-anchor="start" x="644" y="-298.5" font-family="Helvetica,sans-Serif" font-size="10.00">+</text>
<text text-anchor="start" x="657" y="-298.5" font-family="Helvetica,sans-Serif" font-size="10.00">RenderShader()</text>
<text text-anchor="start" x="644" y="-283.5" font-family="Helvetica,sans-Serif" font-size="10.00">+</text>
<text text-anchor="start" x="657" y="-283.5" font-family="Helvetica,sans-Serif" font-size="10.00">ReleaseShader()</text>
<text text-anchor="start" x="644" y="-268.5" font-family="Helvetica,sans-Serif" font-size="10.00">+</text>
<text text-anchor="start" x="657" y="-268.5" font-family="Helvetica,sans-Serif" font-size="10.00">GetTransform()</text>
<text text-anchor="start" x="644" y="-253.5" font-family="Helvetica,sans-Serif" font-size="10.00">+</text>
<text text-anchor="start" x="657" y="-253.5" font-family="Helvetica,sans-Serif" font-size="10.00">ResetProgram()</text>
<text text-anchor="start" x="646.5" y="-238.5" font-family="Helvetica,sans-Serif" font-size="10.00">&#45;</text>
<text text-anchor="start" x="657" y="-238.5" font-family="Helvetica,sans-Serif" font-size="10.00">UseProgram()</text>
<text text-anchor="start" x="646.5" y="-223.5" font-family="Helvetica,sans-Serif" font-size="10.00">&#45;</text>
<text text-anchor="start" x="657" y="-223.5" font-family="Helvetica,sans-Serif" font-size="10.00">GetUniformLocation()</text>
<text text-anchor="start" x="646.5" y="-208.5" font-family="Helvetica,sans-Serif" font-size="10.00">&#45;</text>
<text text-anchor="start" x="657" y="-208.5" font-family="Helvetica,sans-Serif" font-size="10.00">SubmitTransformUniform()</text>
<text text-anchor="start" x="646.5" y="-193.5" font-family="Helvetica,sans-Serif" font-size="10.00">&#45;</text>
<text text-anchor="start" x="657" y="-193.5" font-family="Helvetica,sans-Serif" font-size="10.00">BlitLayerToPostprocessPrimary()</text>
<text text-anchor="start" x="646.5" y="-178.5" font-family="Helvetica,sans-Serif" font-size="10.00">&#45;</text>
<text text-anchor="start" x="657" y="-178.5" font-family="Helvetica,sans-Serif" font-size="10.00">RenderFilters()</text>
<text text-anchor="start" x="646.5" y="-163.5" font-family="Helvetica,sans-Serif" font-size="10.00">&#45;</text>
<text text-anchor="start" x="657" y="-163.5" font-family="Helvetica,sans-Serif" font-size="10.00">SetScissor()</text>
<text text-anchor="start" x="646.5" y="-148.5" font-family="Helvetica,sans-Serif" font-size="10.00">&#45;</text>
<text text-anchor="start" x="657" y="-148.5" font-family="Helvetica,sans-Serif" font-size="10.00">DrawFullscreenQuad()</text>
<text text-anchor="start" x="646.5" y="-133.5" font-family="Helvetica,sans-Serif" font-size="10.00">&#45;</text>
<text text-anchor="start" x="657" y="-133.5" font-family="Helvetica,sans-Serif" font-size="10.00">DrawFullscreenQuad()</text>
<text text-anchor="start" x="646.5" y="-118.5" font-family="Helvetica,sans-Serif" font-size="10.00">&#45;</text>
<text text-anchor="start" x="657" y="-118.5" font-family="Helvetica,sans-Serif" font-size="10.00">RenderBlur()</text>
<polygon fill="#666666" stroke="#666666" points="640,-713.5 640,-713.5 820,-713.5 820,-713.5 640,-713.5"/>
<polygon fill="#666666" stroke="#666666" points="640,-698.5 640,-698.5 820,-698.5 820,-698.5 640,-698.5"/>
<polygon fill="none" stroke="#666666" points="640,-112 640,-731 820,-731 820,-112 640,-112"/>
</a>
</g>
</g>
<!-- Node2&#45;&gt;Node1 -->
<g id="edge1_Node000001_Node000002" class="edge">
<title>Node2&#45;&gt;Node1</title>
<g id="a_edge1_Node000001_Node000002"><a xlink:title=" ">
<path fill="none" stroke="#63b8ff" d="M730,-101.4C730,-91.79 730,-82.98 730,-75.19"/>
<polygon fill="none" stroke="#63b8ff" points="726.5,-101.7 730,-111.7 733.5,-101.7 726.5,-101.7"/>
</a>
</g>
</g>
<!-- Node3 -->
<g id="Node000003" class="node">
<title>Node3</title>
<g id="a_Node000003"><a xlink:title=" ">
<polygon fill="white" stroke="transparent" points="114,-956 0,-956 0,-907 114,-907 114,-956"/>
<text text-anchor="start" x="5" y="-943.5" font-family="Helvetica,sans-Serif" font-size="10.00">Rml::RenderInterface</text>
<text text-anchor="start" x="55" y="-928.5" font-family="Helvetica,sans-Serif" font-size="10.00"> </text>
<text text-anchor="start" x="55" y="-913.5" font-family="Helvetica,sans-Serif" font-size="10.00"> </text>
<polygon fill="#666666" stroke="#666666" points="0,-938.5 0,-938.5 114,-938.5 114,-938.5 0,-938.5"/>
<polygon fill="#666666" stroke="#666666" points="0,-923.5 0,-923.5 114,-923.5 114,-923.5 0,-923.5"/>
<polygon fill="none" stroke="#666666" points="0,-907 0,-956 114,-956 114,-907 0,-907"/>
</a>
</g>
</g>
<!-- Node3&#45;&gt;Node2 -->
<g id="edge2_Node000002_Node000003" class="edge">
<title>Node3&#45;&gt;Node2</title>
<g id="a_edge2_Node000002_Node000003"><a xlink:title=" ">
<path fill="none" stroke="#63b8ff" d="M66.43,-896.92C76.44,-866.05 94.76,-820.43 123,-789 270.89,-624.41 510.36,-510.26 639.89,-456.87"/>
<polygon fill="none" stroke="#63b8ff" points="62.99,-896.2 63.35,-906.78 69.67,-898.28 62.99,-896.2"/>
</a>
</g>
</g>
<!-- Node4 -->
<g id="Node000004" class="node">
<title>Node4</title>
<g id="a_Node000004"><a xlink:title=" ">
<polygon fill="white" stroke="transparent" points="213.5,-956 132.5,-956 132.5,-907 213.5,-907 213.5,-956"/>
<text text-anchor="start" x="138" y="-943.5" font-family="Helvetica,sans-Serif" font-size="10.00">TextureHandle</text>
<text text-anchor="start" x="171.5" y="-928.5" font-family="Helvetica,sans-Serif" font-size="10.00"> </text>
<text text-anchor="start" x="171.5" y="-913.5" font-family="Helvetica,sans-Serif" font-size="10.00"> </text>
<polygon fill="#666666" stroke="#666666" points="133,-938.5 133,-938.5 214,-938.5 214,-938.5 133,-938.5"/>
<polygon fill="#666666" stroke="#666666" points="133,-923.5 133,-923.5 214,-923.5 214,-923.5 133,-923.5"/>
<polygon fill="none" stroke="#666666" points="132.5,-907 132.5,-956 213.5,-956 213.5,-907 132.5,-907"/>
</a>
</g>
</g>
<!-- Node4&#45;&gt;Node2 -->
<g id="edge3_Node000002_Node000004" class="edge">
<title>Node4&#45;&gt;Node2</title>
<g id="a_edge3_Node000002_Node000004"><a xlink:title=" ">
<path fill="none" stroke="#63b8ff" d="M175,-906.7C179.19,-869.62 191.72,-797.31 228,-749 332.53,-609.82 515.05,-513.04 628.84,-462.73"/>
<polygon fill="none" stroke="#63b8ff" points="628.98,-462.67 632.87,-456.6 639.97,-457.86 636.08,-463.93 628.98,-462.67"/>
</a>
</g>
<text text-anchor="middle" x="306" y="-763" font-family="Helvetica,sans-Serif" font-size="10.00" fill="grey"> +TextureEnableWithoutBinding</text>
<text text-anchor="middle" x="306" y="-752" font-family="Helvetica,sans-Serif" font-size="10.00" fill="grey">+TexturePostprocess</text>
</g>
<!-- Node5 -->
<g id="Node000005" class="node">
<title>Node5</title>
<g id="a_Node000005"><a xlink:title=" ">
<polygon fill="white" stroke="transparent" points="371.5,-956 332.5,-956 332.5,-907 371.5,-907 371.5,-956"/>
<text text-anchor="start" x="338" y="-943.5" font-family="Helvetica,sans-Serif" font-size="10.00">size_t</text>
<text text-anchor="start" x="350.5" y="-928.5" font-family="Helvetica,sans-Serif" font-size="10.00"> </text>
<text text-anchor="start" x="350.5" y="-913.5" font-family="Helvetica,sans-Serif" font-size="10.00"> </text>
<polygon fill="#666666" stroke="#666666" points="333,-938.5 333,-938.5 372,-938.5 372,-938.5 333,-938.5"/>
<polygon fill="#666666" stroke="#666666" points="333,-923.5 333,-923.5 372,-923.5 372,-923.5 333,-923.5"/>
<polygon fill="none" stroke="#666666" points="332.5,-907 332.5,-956 371.5,-956 371.5,-907 332.5,-907"/>
</a>
</g>
</g>
<!-- Node5&#45;&gt;Node2 -->
<g id="edge4_Node000002_Node000005" class="edge">
<title>Node5&#45;&gt;Node2</title>
<g id="a_edge4_Node000002_Node000005"><a xlink:title=" ">
<path fill="none" stroke="#63b8ff" d="M353.73,-906.93C357.25,-870.78 367.61,-800.44 397,-749 455.46,-646.7 555.06,-555.2 630.14,-495.28"/>
<polygon fill="none" stroke="#63b8ff" points="630.23,-495.21 632.45,-488.35 639.64,-487.76 637.41,-494.62 630.23,-495.21"/>
</a>
</g>
<text text-anchor="middle" x="446" y="-757.5" font-family="Helvetica,sans-Serif" font-size="10.00" fill="grey"> &#45;MaxNumPrograms</text>
</g>
<!-- Node6 -->
<g id="Node000006" class="node">
<title>Node6</title>
<g id="a_Node000006"><a xlink:title=" ">
<polygon fill="white" stroke="transparent" points="549,-956 397,-956 397,-907 549,-907 549,-956"/>
<text text-anchor="start" x="402" y="-943.5" font-family="Helvetica,sans-Serif" font-size="10.00">bitset&lt; MaxNumPrograms &gt;</text>
<text text-anchor="start" x="471" y="-928.5" font-family="Helvetica,sans-Serif" font-size="10.00"> </text>
<text text-anchor="start" x="471" y="-913.5" font-family="Helvetica,sans-Serif" font-size="10.00"> </text>
<polygon fill="#666666" stroke="#666666" points="397,-938.5 397,-938.5 549,-938.5 549,-938.5 397,-938.5"/>
<polygon fill="#666666" stroke="#666666" points="397,-923.5 397,-923.5 549,-923.5 549,-923.5 397,-923.5"/>
<polygon fill="none" stroke="#666666" points="397,-907 397,-956 549,-956 549,-907 397,-907"/>
</a>
</g>
</g>
<!-- Node6&#45;&gt;Node2 -->
<g id="edge5_Node000002_Node000006" class="edge">
<title>Node6&#45;&gt;Node2</title>
<g id="a_edge5_Node000002_Node000006"><a xlink:title=" ">
<path fill="none" stroke="#63b8ff" d="M474.13,-906.99C476.53,-871.52 483.87,-802.75 506,-749 536.99,-673.73 587.23,-598.24 632.29,-538.84"/>
<polygon fill="none" stroke="#63b8ff" points="632.47,-538.6 632.94,-531.41 639.76,-529.07 639.29,-536.27 632.47,-538.6"/>
</a>
</g>
<text text-anchor="start" x="506" y="-763" font-family="Helvetica,sans-Serif" font-size="10.00" fill="grey"> &#45;program_transform</text>
<text text-anchor="middle" x="557" y="-752" font-family="Helvetica,sans-Serif" font-size="10.00" fill="grey">_dirty</text>
</g>
<!-- Node7 -->
<g id="Node000007" class="node">
<title>Node7</title>
<g id="a_Node000007"><a xlink:title=" ">
<polygon fill="white" stroke="transparent" points="624,-956 572,-956 572,-907 624,-907 624,-956"/>
<text text-anchor="start" x="577" y="-943.5" font-family="Helvetica,sans-Serif" font-size="10.00">Matrix4f</text>
<text text-anchor="start" x="596" y="-928.5" font-family="Helvetica,sans-Serif" font-size="10.00"> </text>
<text text-anchor="start" x="596" y="-913.5" font-family="Helvetica,sans-Serif" font-size="10.00"> </text>
<polygon fill="#666666" stroke="#666666" points="572,-938.5 572,-938.5 624,-938.5 624,-938.5 572,-938.5"/>
<polygon fill="#666666" stroke="#666666" points="572,-923.5 572,-923.5 624,-923.5 624,-923.5 572,-923.5"/>
<polygon fill="none" stroke="#666666" points="572,-907 572,-956 624,-956 624,-907 572,-907"/>
</a>
</g>
</g>
<!-- Node7&#45;&gt;Node2 -->
<g id="edge6_Node000002_Node000007" class="edge">
<title>Node7&#45;&gt;Node2</title>
<g id="a_edge6_Node000002_Node000007"><a xlink:title=" ">
<path fill="none" stroke="#63b8ff" d="M598.57,-906.72C599.8,-871.78 603.71,-804.66 616,-749 621.64,-723.47 628.66,-697.17 636.43,-671.11"/>
<polygon fill="none" stroke="#63b8ff" points="636.45,-671.04 634.36,-664.14 639.93,-659.56 642.02,-666.46 636.45,-671.04"/>
</a>
</g>
<text text-anchor="middle" x="644" y="-763" font-family="Helvetica,sans-Serif" font-size="10.00" fill="grey"> &#45;projection</text>
<text text-anchor="middle" x="644" y="-752" font-family="Helvetica,sans-Serif" font-size="10.00" fill="grey">&#45;transform</text>
</g>
<!-- Node8 -->
<g id="Node000008" class="node">
<title>Node8</title>
<g id="a_Node000008"><a xlink:title=" ">
<polygon fill="white" stroke="transparent" points="707.5,-956 646.5,-956 646.5,-907 707.5,-907 707.5,-956"/>
<text text-anchor="start" x="652" y="-943.5" font-family="Helvetica,sans-Serif" font-size="10.00">ProgramId</text>
<text text-anchor="start" x="675.5" y="-928.5" font-family="Helvetica,sans-Serif" font-size="10.00"> </text>
<text text-anchor="start" x="675.5" y="-913.5" font-family="Helvetica,sans-Serif" font-size="10.00"> </text>
<polygon fill="#666666" stroke="#666666" points="647,-938.5 647,-938.5 708,-938.5 708,-938.5 647,-938.5"/>
<polygon fill="#666666" stroke="#666666" points="647,-923.5 647,-923.5 708,-923.5 708,-923.5 647,-923.5"/>
<polygon fill="none" stroke="#666666" points="646.5,-907 646.5,-956 707.5,-956 707.5,-907 646.5,-907"/>
</a>
</g>
</g>
<!-- Node8&#45;&gt;Node2 -->
<g id="edge7_Node000002_Node000008" class="edge">
<title>Node8&#45;&gt;Node2</title>
<g id="a_edge7_Node000002_Node000008"><a xlink:title=" ">
<path fill="none" stroke="#63b8ff" d="M675.99,-906.96C674.76,-872.3 673.37,-805.53 678,-749 678.15,-747.17 678.3,-745.33 678.46,-743.49"/>
<polygon fill="none" stroke="#63b8ff" points="678.49,-743.21 675.05,-736.88 679.57,-731.26 683.01,-737.6 678.49,-743.21"/>
</a>
</g>
<text text-anchor="middle" x="720" y="-757.5" font-family="Helvetica,sans-Serif" font-size="10.00" fill="grey"> &#45;active_program</text>
</g>
<!-- Node9 -->
<g id="Node000009" class="node">
<title>Node9</title>
<g id="a_Node000009"><a xlink:title=" ">
<polygon fill="white" stroke="transparent" points="815,-956 753,-956 753,-907 815,-907 815,-956"/>
<text text-anchor="start" x="758" y="-943.5" font-family="Helvetica,sans-Serif" font-size="10.00">Rectanglei</text>
<text text-anchor="start" x="782" y="-928.5" font-family="Helvetica,sans-Serif" font-size="10.00"> </text>
<text text-anchor="start" x="782" y="-913.5" font-family="Helvetica,sans-Serif" font-size="10.00"> </text>
<polygon fill="#666666" stroke="#666666" points="753,-938.5 753,-938.5 815,-938.5 815,-938.5 753,-938.5"/>
<polygon fill="#666666" stroke="#666666" points="753,-923.5 753,-923.5 815,-923.5 815,-923.5 753,-923.5"/>
<polygon fill="none" stroke="#666666" points="753,-907 753,-956 815,-956 815,-907 753,-907"/>
</a>
</g>
</g>
<!-- Node9&#45;&gt;Node2 -->
<g id="edge8_Node000002_Node000009" class="edge">
<title>Node9&#45;&gt;Node2</title>
<g id="a_edge8_Node000002_Node000009"><a xlink:title=" ">
<path fill="none" stroke="#63b8ff" d="M781.47,-906.68C778.02,-874.23 771.42,-812.2 764.08,-743.1"/>
<polygon fill="none" stroke="#63b8ff" points="764.07,-742.97 759.45,-737.43 762.8,-731.04 767.41,-736.58 764.07,-742.97"/>
</a>
</g>
<text text-anchor="middle" x="801.5" y="-757.5" font-family="Helvetica,sans-Serif" font-size="10.00" fill="grey"> &#45;scissor_state</text>
</g>
<!-- Node10 -->
<g id="Node000010" class="node">
<title>Node10</title>
<g id="a_Node000010"><a xlink:title=" ">
<polygon fill="white" stroke="transparent" points="1082.5,-1280 1059.5,-1280 1059.5,-1231 1082.5,-1231 1082.5,-1280"/>
<text text-anchor="start" x="1065" y="-1267.5" font-family="Helvetica,sans-Serif" font-size="10.00">int</text>
<text text-anchor="start" x="1069.5" y="-1252.5" font-family="Helvetica,sans-Serif" font-size="10.00"> </text>
<text text-anchor="start" x="1069.5" y="-1237.5" font-family="Helvetica,sans-Serif" font-size="10.00"> </text>
<polygon fill="#666666" stroke="#666666" points="1060,-1262.5 1060,-1262.5 1083,-1262.5 1083,-1262.5 1060,-1262.5"/>
<polygon fill="#666666" stroke="#666666" points="1060,-1247.5 1060,-1247.5 1083,-1247.5 1083,-1247.5 1060,-1247.5"/>
<polygon fill="none" stroke="#666666" points="1059.5,-1231 1059.5,-1280 1082.5,-1280 1082.5,-1231 1059.5,-1231"/>
</a>
</g>
</g>
<!-- Node10&#45;&gt;Node2 -->
<g id="edge9_Node000002_Node000010" class="edge">
<title>Node10&#45;&gt;Node2</title>
<g id="a_edge9_Node000002_Node000010"><a xlink:title=" ">
<path fill="none" stroke="#63b8ff" d="M1059.17,-1248.22C1023.14,-1228.35 914.5,-1162.92 870,-1074 805.1,-944.32 871,-890.88 841,-749 836.1,-725.84 830.07,-702.05 823.38,-678.38"/>
<polygon fill="none" stroke="#63b8ff" points="823.35,-678.3 817.85,-673.64 820.04,-666.77 825.54,-671.43 823.35,-678.3"/>
</a>
</g>
<text text-anchor="middle" x="915.5" y="-945.5" font-family="Helvetica,sans-Serif" font-size="10.00" fill="grey"> &#45;viewport_height</text>
<text text-anchor="middle" x="915.5" y="-934.5" font-family="Helvetica,sans-Serif" font-size="10.00" fill="grey">&#45;viewport_offset_x</text>
<text text-anchor="middle" x="915.5" y="-923.5" font-family="Helvetica,sans-Serif" font-size="10.00" fill="grey">&#45;viewport_offset_y</text>
<text text-anchor="middle" x="915.5" y="-912.5" font-family="Helvetica,sans-Serif" font-size="10.00" fill="grey">&#45;viewport_width</text>
</g>
<!-- Node13 -->
<g id="Node000013" class="node">
<title>Node13</title>
<g id="a_Node000013"><a xlink:href="classRenderInterface__GL3_1_1RenderLayerStack.html" target="_top" xlink:title=" ">
<polygon fill="#fff0f0" stroke="transparent" points="1172.5,-1074 969.5,-1074 969.5,-789 1172.5,-789 1172.5,-1074"/>
<text text-anchor="start" x="1020" y="-1061.5" font-family="Helvetica,sans-Serif" font-size="10.00">RenderInterface_GL3</text>
<text text-anchor="start" x="1024" y="-1050.5" font-family="Helvetica,sans-Serif" font-size="10.00">::RenderLayerStack</text>
<text text-anchor="start" x="1069.5" y="-1035.5" font-family="Helvetica,sans-Serif" font-size="10.00"> </text>
<text text-anchor="start" x="974" y="-1020.5" font-family="Helvetica,sans-Serif" font-size="10.00">+</text>
<text text-anchor="start" x="987" y="-1020.5" font-family="Helvetica,sans-Serif" font-size="10.00">RenderLayerStack()</text>
<text text-anchor="start" x="974" y="-1005.5" font-family="Helvetica,sans-Serif" font-size="10.00">+</text>
<text text-anchor="start" x="987" y="-1005.5" font-family="Helvetica,sans-Serif" font-size="10.00">~RenderLayerStack()</text>
<text text-anchor="start" x="974" y="-990.5" font-family="Helvetica,sans-Serif" font-size="10.00">+</text>
<text text-anchor="start" x="987" y="-990.5" font-family="Helvetica,sans-Serif" font-size="10.00">PushLayer()</text>
<text text-anchor="start" x="974" y="-975.5" font-family="Helvetica,sans-Serif" font-size="10.00">+</text>
<text text-anchor="start" x="987" y="-975.5" font-family="Helvetica,sans-Serif" font-size="10.00">PopLayer()</text>
<text text-anchor="start" x="974" y="-960.5" font-family="Helvetica,sans-Serif" font-size="10.00">+</text>
<text text-anchor="start" x="987" y="-960.5" font-family="Helvetica,sans-Serif" font-size="10.00">GetLayer()</text>
<text text-anchor="start" x="974" y="-945.5" font-family="Helvetica,sans-Serif" font-size="10.00">+</text>
<text text-anchor="start" x="987" y="-945.5" font-family="Helvetica,sans-Serif" font-size="10.00">GetTopLayer()</text>
<text text-anchor="start" x="974" y="-930.5" font-family="Helvetica,sans-Serif" font-size="10.00">+</text>
<text text-anchor="start" x="987" y="-930.5" font-family="Helvetica,sans-Serif" font-size="10.00">GetTopLayerHandle()</text>
<text text-anchor="start" x="974" y="-915.5" font-family="Helvetica,sans-Serif" font-size="10.00">+</text>
<text text-anchor="start" x="987" y="-915.5" font-family="Helvetica,sans-Serif" font-size="10.00">GetPostprocessPrimary()</text>
<text text-anchor="start" x="974" y="-900.5" font-family="Helvetica,sans-Serif" font-size="10.00">+</text>
<text text-anchor="start" x="987" y="-900.5" font-family="Helvetica,sans-Serif" font-size="10.00">GetPostprocessSecondary()</text>
<text text-anchor="start" x="974" y="-885.5" font-family="Helvetica,sans-Serif" font-size="10.00">+</text>
<text text-anchor="start" x="987" y="-885.5" font-family="Helvetica,sans-Serif" font-size="10.00">GetPostprocessTertiary()</text>
<text text-anchor="start" x="974" y="-870.5" font-family="Helvetica,sans-Serif" font-size="10.00">+</text>
<text text-anchor="start" x="987" y="-870.5" font-family="Helvetica,sans-Serif" font-size="10.00">GetBlendMask()</text>
<text text-anchor="start" x="974" y="-855.5" font-family="Helvetica,sans-Serif" font-size="10.00">+</text>
<text text-anchor="start" x="987" y="-855.5" font-family="Helvetica,sans-Serif" font-size="10.00">SwapPostprocessPrimarySecondary()</text>
<text text-anchor="start" x="974" y="-840.5" font-family="Helvetica,sans-Serif" font-size="10.00">+</text>
<text text-anchor="start" x="987" y="-840.5" font-family="Helvetica,sans-Serif" font-size="10.00">BeginFrame()</text>
<text text-anchor="start" x="974" y="-825.5" font-family="Helvetica,sans-Serif" font-size="10.00">+</text>
<text text-anchor="start" x="987" y="-825.5" font-family="Helvetica,sans-Serif" font-size="10.00">EndFrame()</text>
<text text-anchor="start" x="976.5" y="-810.5" font-family="Helvetica,sans-Serif" font-size="10.00">&#45;</text>
<text text-anchor="start" x="987" y="-810.5" font-family="Helvetica,sans-Serif" font-size="10.00">DestroyFramebuffers()</text>
<text text-anchor="start" x="976.5" y="-795.5" font-family="Helvetica,sans-Serif" font-size="10.00">&#45;</text>
<text text-anchor="start" x="987" y="-795.5" font-family="Helvetica,sans-Serif" font-size="10.00">EnsureFramebufferPostprocess()</text>
<polygon fill="red" stroke="red" points="970,-1045.5 970,-1045.5 1173,-1045.5 1173,-1045.5 970,-1045.5"/>
<polygon fill="red" stroke="red" points="970,-1030.5 970,-1030.5 1173,-1030.5 1173,-1030.5 970,-1030.5"/>
<polygon fill="none" stroke="red" points="969.5,-789 969.5,-1074 1172.5,-1074 1172.5,-789 969.5,-789"/>
</a>
</g>
</g>
<!-- Node10&#45;&gt;Node13 -->
<g id="edge13_Node000013_Node000010" class="edge">
<title>Node10&#45;&gt;Node13</title>
<g id="a_edge13_Node000013_Node000010"><a xlink:title=" ">
<path fill="none" stroke="#63b8ff" d="M1071,-1230.82C1071,-1199.77 1071,-1142.63 1071,-1086.6"/>
<polygon fill="none" stroke="#63b8ff" points="1071,-1086.3 1067,-1080.3 1071,-1074.3 1075,-1080.3 1071,-1086.3"/>
</a>
</g>
<text text-anchor="middle" x="1100.5" y="-1161" font-family="Helvetica,sans-Serif" font-size="10.00" fill="grey"> &#45;height</text>
<text text-anchor="middle" x="1100.5" y="-1150" font-family="Helvetica,sans-Serif" font-size="10.00" fill="grey">&#45;layers_size</text>
<text text-anchor="middle" x="1100.5" y="-1139" font-family="Helvetica,sans-Serif" font-size="10.00" fill="grey">&#45;width</text>
</g>
<!-- Node15 -->
<g id="Node000015" class="node">
<title>Node15</title>
<g id="a_Node000015"><a xlink:href="structRenderInterface__GL3_1_1GLStateBackup.html" target="_top" xlink:title=" ">
<polygon fill="#fff0f0" stroke="transparent" points="1303.5,-961.5 1190.5,-961.5 1190.5,-901.5 1303.5,-901.5 1303.5,-961.5"/>
<text text-anchor="start" x="1196" y="-949.5" font-family="Helvetica,sans-Serif" font-size="10.00">RenderInterface_GL3</text>
<text text-anchor="start" x="1207.5" y="-938.5" font-family="Helvetica,sans-Serif" font-size="10.00">::GLStateBackup</text>
<text text-anchor="start" x="1245.5" y="-923.5" font-family="Helvetica,sans-Serif" font-size="10.00"> </text>
<text text-anchor="start" x="1245.5" y="-908.5" font-family="Helvetica,sans-Serif" font-size="10.00"> </text>
<polygon fill="red" stroke="red" points="1191,-933.5 1191,-933.5 1304,-933.5 1304,-933.5 1191,-933.5"/>
<polygon fill="red" stroke="red" points="1191,-918.5 1191,-918.5 1304,-918.5 1304,-918.5 1191,-918.5"/>
<polygon fill="none" stroke="red" points="1190.5,-901.5 1190.5,-961.5 1303.5,-961.5 1303.5,-901.5 1190.5,-901.5"/>
</a>
</g>
</g>
<!-- Node10&#45;&gt;Node15 -->
<g id="edge15_Node000015_Node000010" class="edge">
<title>Node10&#45;&gt;Node15</title>
<g id="a_edge15_Node000015_Node000010"><a xlink:title=" ">
<path fill="none" stroke="#63b8ff" d="M1082.78,-1249.43C1096.75,-1242.88 1119.9,-1230.23 1134,-1213 1193.46,-1140.31 1225,-1032.26 1238.6,-973.74"/>
<polygon fill="none" stroke="#63b8ff" points="1238.68,-973.41 1236.09,-966.68 1241.31,-961.7 1243.9,-968.43 1238.68,-973.41"/>
</a>
</g>
<text text-anchor="middle" x="1257" y="-1205" font-family="Helvetica,sans-Serif" font-size="10.00" fill="grey"> +active_texture</text>
<text text-anchor="middle" x="1257" y="-1194" font-family="Helvetica,sans-Serif" font-size="10.00" fill="grey">+blend_dst_alpha</text>
<text text-anchor="middle" x="1257" y="-1183" font-family="Helvetica,sans-Serif" font-size="10.00" fill="grey">+blend_dst_rgb</text>
<text text-anchor="middle" x="1257" y="-1172" font-family="Helvetica,sans-Serif" font-size="10.00" fill="grey">+blend_equation_alpha</text>
<text text-anchor="middle" x="1257" y="-1161" font-family="Helvetica,sans-Serif" font-size="10.00" fill="grey">+blend_equation_rgb</text>
<text text-anchor="middle" x="1257" y="-1150" font-family="Helvetica,sans-Serif" font-size="10.00" fill="grey">+blend_src_alpha</text>
<text text-anchor="middle" x="1257" y="-1139" font-family="Helvetica,sans-Serif" font-size="10.00" fill="grey">+blend_src_rgb</text>
<text text-anchor="middle" x="1257" y="-1128" font-family="Helvetica,sans-Serif" font-size="10.00" fill="grey">+scissor</text>
<text text-anchor="middle" x="1257" y="-1117" font-family="Helvetica,sans-Serif" font-size="10.00" fill="grey">+stencil_clear_value</text>
<text text-anchor="middle" x="1257" y="-1106" font-family="Helvetica,sans-Serif" font-size="10.00" fill="grey">+viewport</text>
<text text-anchor="middle" x="1257" y="-1095" font-family="Helvetica,sans-Serif" font-size="10.00" fill="grey">...</text>
</g>
<!-- Node11 -->
<g id="Node000011" class="node">
<title>Node11</title>
<g id="a_Node000011"><a xlink:title=" ">
<polygon fill="white" stroke="transparent" points="1462,-956 1322,-956 1322,-907 1462,-907 1462,-956"/>
<text text-anchor="start" x="1327" y="-943.5" font-family="Helvetica,sans-Serif" font-size="10.00">CompiledGeometryHandle</text>
<text text-anchor="start" x="1390" y="-928.5" font-family="Helvetica,sans-Serif" font-size="10.00"> </text>
<text text-anchor="start" x="1390" y="-913.5" font-family="Helvetica,sans-Serif" font-size="10.00"> </text>
<polygon fill="#666666" stroke="#666666" points="1322,-938.5 1322,-938.5 1462,-938.5 1462,-938.5 1322,-938.5"/>
<polygon fill="#666666" stroke="#666666" points="1322,-923.5 1322,-923.5 1462,-923.5 1462,-923.5 1322,-923.5"/>
<polygon fill="none" stroke="#666666" points="1322,-907 1322,-956 1462,-956 1462,-907 1322,-907"/>
</a>
</g>
</g>
<!-- Node11&#45;&gt;Node2 -->
<g id="edge10_Node000002_Node000011" class="edge">
<title>Node11&#45;&gt;Node2</title>
<g id="a_edge10_Node000002_Node000011"><a xlink:title=" ">
<path fill="none" stroke="#63b8ff" d="M1383.15,-906.92C1370.95,-876.81 1346.61,-824.4 1313,-789 1171.38,-639.81 956.77,-525.61 831.26,-466.75"/>
<polygon fill="none" stroke="#63b8ff" points="831.02,-466.64 823.9,-467.74 820.15,-461.58 827.27,-460.48 831.02,-466.64"/>
</a>
</g>
<text text-anchor="middle" x="1354.5" y="-757.5" font-family="Helvetica,sans-Serif" font-size="10.00" fill="grey"> &#45;fullscreen_quad_geometry</text>
</g>
<!-- Node12 -->
<g id="Node000012" class="node">
<title>Node12</title>
<g id="a_Node000012"><a xlink:title=" ">
<polygon fill="white" stroke="transparent" points="1603,-961.5 1487,-961.5 1487,-901.5 1603,-901.5 1603,-961.5"/>
<text text-anchor="start" x="1492" y="-949.5" font-family="Helvetica,sans-Serif" font-size="10.00">UniquePtr&lt; const Gfx</text>
<text text-anchor="start" x="1504" y="-938.5" font-family="Helvetica,sans-Serif" font-size="10.00">::ProgramData &gt;</text>
<text text-anchor="start" x="1543" y="-923.5" font-family="Helvetica,sans-Serif" font-size="10.00"> </text>
<text text-anchor="start" x="1543" y="-908.5" font-family="Helvetica,sans-Serif" font-size="10.00"> </text>
<polygon fill="#666666" stroke="#666666" points="1487,-933.5 1487,-933.5 1603,-933.5 1603,-933.5 1487,-933.5"/>
<polygon fill="#666666" stroke="#666666" points="1487,-918.5 1487,-918.5 1603,-918.5 1603,-918.5 1487,-918.5"/>
<polygon fill="none" stroke="#666666" points="1487,-901.5 1487,-961.5 1603,-961.5 1603,-901.5 1487,-901.5"/>
</a>
</g>
</g>
<!-- Node12&#45;&gt;Node2 -->
<g id="edge11_Node000002_Node000012" class="edge">
<title>Node12&#45;&gt;Node2</title>
<g id="a_edge11_Node000002_Node000012"><a xlink:title=" ">
<path fill="none" stroke="#63b8ff" d="M1533.38,-901.38C1520.65,-871.48 1498.36,-824.44 1471,-789 1454.85,-768.08 1448.99,-763.66 1427,-749 1230.04,-617.71 971.92,-511.78 831.59,-458.98"/>
<polygon fill="none" stroke="#63b8ff" points="831.28,-458.86 824.26,-460.5 820.04,-454.65 827.06,-453.01 831.28,-458.86"/>
</a>
</g>
<text text-anchor="middle" x="1493" y="-757.5" font-family="Helvetica,sans-Serif" font-size="10.00" fill="grey"> &#45;program_data</text>
</g>
<!-- Node13&#45;&gt;Node2 -->
<g id="edge12_Node000002_Node000013" class="edge">
<title>Node13&#45;&gt;Node2</title>
<g id="a_edge12_Node000002_Node000013"><a xlink:title=" ">
<path fill="none" stroke="#63b8ff" d="M976.01,-788.99C929.52,-719.74 873.65,-636.5 826.91,-566.87"/>
<polygon fill="none" stroke="#63b8ff" points="826.77,-566.66 820.1,-563.91 820.08,-556.7 826.75,-559.45 826.77,-566.66"/>
</a>
</g>
<text text-anchor="middle" x="997" y="-757.5" font-family="Helvetica,sans-Serif" font-size="10.00" fill="grey"> &#45;render_layers</text>
</g>
<!-- Node15&#45;&gt;Node2 -->
<g id="edge14_Node000002_Node000015" class="edge">
<title>Node15&#45;&gt;Node2</title>
<g id="a_edge14_Node000002_Node000015"><a xlink:title=" ">
<path fill="none" stroke="#63b8ff" d="M1238.01,-901.27C1227.75,-871.07 1208.85,-823.6 1182,-789 1082.59,-660.92 930.18,-549.39 830.29,-483.99"/>
<polygon fill="none" stroke="#63b8ff" points="830.25,-483.97 823.04,-484.05 820.19,-477.42 827.4,-477.34 830.25,-483.97"/>
</a>
</g>
<text text-anchor="middle" x="1202.5" y="-757.5" font-family="Helvetica,sans-Serif" font-size="10.00" fill="grey"> &#45;glstate_backup</text>
</g>
</g>
</svg>
