<?xml version="1.0" encoding="UTF-8" standalone="no"?>
<!DOCTYPE svg PUBLIC "-//W3C//DTD SVG 1.1//EN"
 "http://www.w3.org/Graphics/SVG/1.1/DTD/svg11.dtd">
<!-- Generated by graphviz version 2.43.0 (0)
 -->
<!-- Title: ElementEdit Pages: 1 -->
<svg width="451pt" height="641pt"
 viewBox="0.00 0.00 450.50 641.00" xmlns="http://www.w3.org/2000/svg" xmlns:xlink="http://www.w3.org/1999/xlink">
<g id="graph0" class="graph" transform="scale(1 1) rotate(0) translate(4 637)">
<title>ElementEdit</title>
<!-- Node1 -->
<g id="Node000001" class="node">
<title>Node1</title>
<g id="a_Node000001"><a xlink:title=" ">
<polygon fill="#999999" stroke="transparent" points="200.5,-139 92.5,-139 92.5,0 200.5,0 200.5,-139"/>
<text text-anchor="start" x="116.5" y="-126.5" font-family="Helvetica,sans-Serif" font-size="10.00">ElementEdit</text>
<text text-anchor="start" x="144.5" y="-111.5" font-family="Helvetica,sans-Serif" font-size="10.00"> </text>
<text text-anchor="start" x="96.5" y="-96.5" font-family="Helvetica,sans-Serif" font-size="10.00">+</text>
<text text-anchor="start" x="109.5" y="-96.5" font-family="Helvetica,sans-Serif" font-size="10.00">ElementEdit()</text>
<text text-anchor="start" x="96.5" y="-81.5" font-family="Helvetica,sans-Serif" font-size="10.00">+</text>
<text text-anchor="start" x="109.5" y="-81.5" font-family="Helvetica,sans-Serif" font-size="10.00">~ElementEdit()</text>
<text text-anchor="start" x="96.5" y="-66.5" font-family="Helvetica,sans-Serif" font-size="10.00">+</text>
<text text-anchor="start" x="109.5" y="-66.5" font-family="Helvetica,sans-Serif" font-size="10.00">OnChildAdd()</text>
<text text-anchor="start" x="96.5" y="-51.5" font-family="Helvetica,sans-Serif" font-size="10.00">+</text>
<text text-anchor="start" x="109.5" y="-51.5" font-family="Helvetica,sans-Serif" font-size="10.00">OnChildRemove()</text>
<text text-anchor="start" x="96.5" y="-36.5" font-family="Helvetica,sans-Serif" font-size="10.00">+</text>
<text text-anchor="start" x="109.5" y="-36.5" font-family="Helvetica,sans-Serif" font-size="10.00">ProcessEvent()</text>
<text text-anchor="start" x="96.5" y="-21.5" font-family="Helvetica,sans-Serif" font-size="10.00">#</text>
<text text-anchor="start" x="109.5" y="-21.5" font-family="Helvetica,sans-Serif" font-size="10.00">OnUpdate()</text>
<text text-anchor="start" x="96.5" y="-6.5" font-family="Helvetica,sans-Serif" font-size="10.00">#</text>
<text text-anchor="start" x="109.5" y="-6.5" font-family="Helvetica,sans-Serif" font-size="10.00">OnRender()</text>
<polygon fill="#666666" stroke="#666666" points="92.5,-121.5 92.5,-121.5 200.5,-121.5 200.5,-121.5 92.5,-121.5"/>
<polygon fill="#666666" stroke="#666666" points="92.5,-106.5 92.5,-106.5 200.5,-106.5 200.5,-106.5 92.5,-106.5"/>
<polygon fill="none" stroke="#666666" points="92.5,0 92.5,-139 200.5,-139 200.5,0 92.5,0"/>
</a>
</g>
</g>
<!-- Node2 -->
<g id="Node000002" class="node">
<title>Node2</title>
<g id="a_Node000002"><a xlink:title=" ">
<polygon fill="white" stroke="transparent" points="77,-287.5 0,-287.5 0,-238.5 77,-238.5 77,-287.5"/>
<text text-anchor="start" x="5.5" y="-275" font-family="Helvetica,sans-Serif" font-size="10.00">Rml::Element</text>
<text text-anchor="start" x="37" y="-260" font-family="Helvetica,sans-Serif" font-size="10.00"> </text>
<text text-anchor="start" x="37" y="-245" font-family="Helvetica,sans-Serif" font-size="10.00"> </text>
<polygon fill="#666666" stroke="#666666" points="0.5,-270 0.5,-270 77.5,-270 77.5,-270 0.5,-270"/>
<polygon fill="#666666" stroke="#666666" points="0.5,-255 0.5,-255 77.5,-255 77.5,-255 0.5,-255"/>
<polygon fill="none" stroke="#666666" points="0,-238.5 0,-287.5 77,-287.5 77,-238.5 0,-238.5"/>
</a>
</g>
</g>
<!-- Node2&#45;&gt;Node1 -->
<g id="edge1_Node000001_Node000002" class="edge">
<title>Node2&#45;&gt;Node1</title>
<g id="a_edge1_Node000001_Node000002"><a xlink:title=" ">
<path fill="none" stroke="#63b8ff" d="M57,-229.2C70.9,-204.55 90.45,-169.89 107.73,-139.25"/>
<polygon fill="none" stroke="#63b8ff" points="53.82,-227.7 51.96,-238.13 59.92,-231.14 53.82,-227.7"/>
</a>
</g>
</g>
<!-- Node3 -->
<g id="Node000003" class="node">
<title>Node3</title>
<g id="a_Node000003"><a xlink:title=" ">
<polygon fill="white" stroke="transparent" points="198,-287.5 95,-287.5 95,-238.5 198,-238.5 198,-287.5"/>
<text text-anchor="start" x="100.5" y="-275" font-family="Helvetica,sans-Serif" font-size="10.00">Rml::EventListener</text>
<text text-anchor="start" x="145" y="-260" font-family="Helvetica,sans-Serif" font-size="10.00"> </text>
<text text-anchor="start" x="145" y="-245" font-family="Helvetica,sans-Serif" font-size="10.00"> </text>
<polygon fill="#666666" stroke="#666666" points="95.5,-270 95.5,-270 198.5,-270 198.5,-270 95.5,-270"/>
<polygon fill="#666666" stroke="#666666" points="95.5,-255 95.5,-255 198.5,-255 198.5,-255 95.5,-255"/>
<polygon fill="none" stroke="#666666" points="95,-238.5 95,-287.5 198,-287.5 198,-238.5 95,-238.5"/>
</a>
</g>
</g>
<!-- Node3&#45;&gt;Node1 -->
<g id="edge2_Node000001_Node000003" class="edge">
<title>Node3&#45;&gt;Node1</title>
<g id="a_edge2_Node000001_Node000003"><a xlink:title=" ">
<path fill="none" stroke="#63b8ff" d="M146.5,-227.89C146.5,-203.33 146.5,-169.35 146.5,-139.25"/>
<polygon fill="none" stroke="#63b8ff" points="143,-228.13 146.5,-238.13 150,-228.13 143,-228.13"/>
</a>
</g>
</g>
<!-- Node4 -->
<g id="Node000004" class="node">
<title>Node4</title>
<g id="a_Node000004"><a xlink:href="classEditViewModel.html" target="_top" xlink:title=" ">
<polygon fill="white" stroke="transparent" points="346.5,-340 216.5,-340 216.5,-186 346.5,-186 346.5,-340"/>
<text text-anchor="start" x="245" y="-328" font-family="Helvetica,sans-Serif" font-size="10.00">EditViewModel</text>
<text text-anchor="start" x="279.5" y="-313" font-family="Helvetica,sans-Serif" font-size="10.00"> </text>
<text text-anchor="start" x="220.5" y="-298" font-family="Helvetica,sans-Serif" font-size="10.00">+</text>
<text text-anchor="start" x="233.5" y="-298" font-family="Helvetica,sans-Serif" font-size="10.00">RegisterKey()</text>
<text text-anchor="start" x="220.5" y="-283" font-family="Helvetica,sans-Serif" font-size="10.00">+</text>
<text text-anchor="start" x="233.5" y="-283" font-family="Helvetica,sans-Serif" font-size="10.00">ResetNewShortCut()</text>
<text text-anchor="start" x="220.5" y="-268" font-family="Helvetica,sans-Serif" font-size="10.00">+</text>
<text text-anchor="start" x="233.5" y="-268" font-family="Helvetica,sans-Serif" font-size="10.00">GetNewShortCut()</text>
<text text-anchor="start" x="220.5" y="-253" font-family="Helvetica,sans-Serif" font-size="10.00">+</text>
<text text-anchor="start" x="233.5" y="-253" font-family="Helvetica,sans-Serif" font-size="10.00">SetSelectedShortCut()</text>
<text text-anchor="start" x="220.5" y="-238" font-family="Helvetica,sans-Serif" font-size="10.00">+</text>
<text text-anchor="start" x="233.5" y="-238" font-family="Helvetica,sans-Serif" font-size="10.00">GetSelectedShortCut()</text>
<text text-anchor="start" x="220.5" y="-223" font-family="Helvetica,sans-Serif" font-size="10.00">+</text>
<text text-anchor="start" x="233.5" y="-223" font-family="Helvetica,sans-Serif" font-size="10.00">Instance()</text>
<text text-anchor="start" x="220.5" y="-208" font-family="Helvetica,sans-Serif" font-size="10.00">#</text>
<text text-anchor="start" x="233.5" y="-208" font-family="Helvetica,sans-Serif" font-size="10.00">EditViewModel()</text>
<text text-anchor="start" x="220.5" y="-193" font-family="Helvetica,sans-Serif" font-size="10.00">#</text>
<text text-anchor="start" x="233.5" y="-193" font-family="Helvetica,sans-Serif" font-size="10.00">~EditViewModel()</text>
<polygon fill="#666666" stroke="#666666" points="216.5,-323 216.5,-323 346.5,-323 346.5,-323 216.5,-323"/>
<polygon fill="#666666" stroke="#666666" points="216.5,-308 216.5,-308 346.5,-308 346.5,-308 216.5,-308"/>
<polygon fill="none" stroke="#666666" points="216.5,-186 216.5,-340 346.5,-340 346.5,-186 216.5,-186"/>
</a>
</g>
</g>
<!-- Node4&#45;&gt;Node1 -->
<g id="edge3_Node000001_Node000004" class="edge">
<title>Node4&#45;&gt;Node1</title>
<g id="a_edge3_Node000001_Node000004"><a xlink:title=" ">
<path fill="none" stroke="#63b8ff" d="M227.76,-185.76C219.25,-173.7 210.45,-161.21 201.91,-149.1"/>
<polygon fill="none" stroke="#63b8ff" points="201.73,-148.84 195,-146.24 194.81,-139.03 201.54,-141.63 201.73,-148.84"/>
</a>
</g>
<text text-anchor="middle" x="244.5" y="-160" font-family="Helvetica,sans-Serif" font-size="10.00" fill="grey"> &#45;viewModel</text>
</g>
<!-- Node5 -->
<g id="Node000005" class="node">
<title>Node5</title>
<g id="a_Node000005"><a xlink:title=" ">
<polygon fill="white" stroke="transparent" points="304,-633 201,-633 201,-573 304,-573 304,-633"/>
<text text-anchor="start" x="206.5" y="-621" font-family="Helvetica,sans-Serif" font-size="10.00">vector&lt; Rml::Input</text>
<text text-anchor="start" x="213.5" y="-610" font-family="Helvetica,sans-Serif" font-size="10.00">::KeyIdentifier &gt;</text>
<text text-anchor="start" x="251" y="-595" font-family="Helvetica,sans-Serif" font-size="10.00"> </text>
<text text-anchor="start" x="251" y="-580" font-family="Helvetica,sans-Serif" font-size="10.00"> </text>
<polygon fill="#666666" stroke="#666666" points="201.5,-605 201.5,-605 304.5,-605 304.5,-605 201.5,-605"/>
<polygon fill="#666666" stroke="#666666" points="201.5,-590 201.5,-590 304.5,-590 304.5,-590 201.5,-590"/>
<polygon fill="none" stroke="#666666" points="201,-573 201,-633 304,-633 304,-573 201,-573"/>
</a>
</g>
</g>
<!-- Node5&#45;&gt;Node4 -->
<g id="edge4_Node000004_Node000005" class="edge">
<title>Node5&#45;&gt;Node4</title>
<g id="a_edge4_Node000004_Node000005"><a xlink:title=" ">
<path fill="none" stroke="#63b8ff" d="M249.18,-572.81C247.73,-558.69 246.21,-541.49 245.5,-526 242.66,-464.29 236.73,-448.15 245.5,-387 247.16,-375.44 249.65,-363.44 252.56,-351.68"/>
<polygon fill="none" stroke="#63b8ff" points="252.58,-351.64 250.22,-344.82 255.6,-340.02 257.96,-346.84 252.58,-351.64"/>
</a>
</g>
<text text-anchor="middle" x="280.5" y="-454" font-family="Helvetica,sans-Serif" font-size="10.00" fill="grey"> &#45;newShortCut</text>
</g>
<!-- Node6 -->
<g id="Node000006" class="node">
<title>Node6</title>
<g id="a_Node000006"><a xlink:href="classKeyShortCut.html" target="_top" xlink:title=" ">
<polygon fill="#fff0f0" stroke="transparent" points="442.5,-526 324.5,-526 324.5,-387 442.5,-387 442.5,-526"/>
<text text-anchor="start" x="353" y="-513.5" font-family="Helvetica,sans-Serif" font-size="10.00">KeyShortCut</text>
<text text-anchor="start" x="381.5" y="-498.5" font-family="Helvetica,sans-Serif" font-size="10.00"> </text>
<text text-anchor="start" x="328.5" y="-483.5" font-family="Helvetica,sans-Serif" font-size="10.00">+</text>
<text text-anchor="start" x="341.5" y="-483.5" font-family="Helvetica,sans-Serif" font-size="10.00">KeyShortCut()</text>
<text text-anchor="start" x="328.5" y="-468.5" font-family="Helvetica,sans-Serif" font-size="10.00">+</text>
<text text-anchor="start" x="341.5" y="-468.5" font-family="Helvetica,sans-Serif" font-size="10.00">getShortCut()</text>
<text text-anchor="start" x="328.5" y="-453.5" font-family="Helvetica,sans-Serif" font-size="10.00">+</text>
<text text-anchor="start" x="341.5" y="-453.5" font-family="Helvetica,sans-Serif" font-size="10.00">setShortCut()</text>
<text text-anchor="start" x="328.5" y="-438.5" font-family="Helvetica,sans-Serif" font-size="10.00">+</text>
<text text-anchor="start" x="341.5" y="-438.5" font-family="Helvetica,sans-Serif" font-size="10.00">getEvent()</text>
<text text-anchor="start" x="328.5" y="-423.5" font-family="Helvetica,sans-Serif" font-size="10.00">+</text>
<text text-anchor="start" x="341.5" y="-423.5" font-family="Helvetica,sans-Serif" font-size="10.00">operator==()</text>
<text text-anchor="start" x="328.5" y="-408.5" font-family="Helvetica,sans-Serif" font-size="10.00">+</text>
<text text-anchor="start" x="341.5" y="-408.5" font-family="Helvetica,sans-Serif" font-size="10.00">toString()</text>
<text text-anchor="start" x="328.5" y="-393.5" font-family="Helvetica,sans-Serif" font-size="10.00">+</text>
<text text-anchor="start" x="341.5" y="-393.5" font-family="Helvetica,sans-Serif" font-size="10.00">toStringTranslated()</text>
<polygon fill="red" stroke="red" points="324.5,-508.5 324.5,-508.5 442.5,-508.5 442.5,-508.5 324.5,-508.5"/>
<polygon fill="red" stroke="red" points="324.5,-493.5 324.5,-493.5 442.5,-493.5 442.5,-493.5 324.5,-493.5"/>
<polygon fill="none" stroke="red" points="324.5,-387 324.5,-526 442.5,-526 442.5,-387 324.5,-387"/>
</a>
</g>
</g>
<!-- Node5&#45;&gt;Node6 -->
<g id="edge6_Node000006_Node000005" class="edge">
<title>Node5&#45;&gt;Node6</title>
<g id="a_edge6_Node000006_Node000005"><a xlink:title=" ">
<path fill="none" stroke="#63b8ff" d="M279.01,-572.76C289.84,-560.81 302.92,-546.39 316.09,-531.85"/>
<polygon fill="none" stroke="#63b8ff" points="316.23,-531.7 317.3,-524.57 324.29,-522.81 323.22,-529.94 316.23,-531.7"/>
</a>
</g>
<text text-anchor="middle" x="364.5" y="-547" font-family="Helvetica,sans-Serif" font-size="10.00" fill="grey"> &#45;m_shortCutCombination</text>
</g>
<!-- Node6&#45;&gt;Node4 -->
<g id="edge5_Node000004_Node000006" class="edge">
<title>Node6&#45;&gt;Node4</title>
<g id="a_edge5_Node000004_Node000006"><a xlink:title=" ">
<path fill="none" stroke="#63b8ff" d="M346.96,-386.91C340.79,-375.32 334.31,-363.16 327.93,-351.17"/>
<polygon fill="none" stroke="#63b8ff" points="327.75,-350.83 321.4,-347.42 322.11,-340.24 328.46,-343.65 327.75,-350.83"/>
</a>
</g>
<text text-anchor="middle" x="388.5" y="-361" font-family="Helvetica,sans-Serif" font-size="10.00" fill="grey"> &#45;m_selectedShortCut</text>
</g>
</g>
</svg>
