<?xml version="1.0" encoding="UTF-8" standalone="no"?>
<!DOCTYPE svg PUBLIC "-//W3C//DTD SVG 1.1//EN"
 "http://www.w3.org/Graphics/SVG/1.1/DTD/svg11.dtd">
<!-- Generated by graphviz version 2.43.0 (0)
 -->
<!-- Title: AutoCopyEvent Pages: 1 -->
<svg width="378pt" height="470pt"
 viewBox="0.00 0.00 378.00 470.00" xmlns="http://www.w3.org/2000/svg" xmlns:xlink="http://www.w3.org/1999/xlink">
<g id="graph0" class="graph" transform="scale(1 1) rotate(0) translate(4 466)">
<title>AutoCopyEvent</title>
<!-- Node1 -->
<g id="Node000001" class="node">
<title>Node1</title>
<g id="a_Node000001"><a xlink:title=" ">
<polygon fill="#999999" stroke="transparent" points="247,-94 135,-94 135,0 247,0 247,-94"/>
<text text-anchor="start" x="153" y="-82" font-family="Helvetica,sans-Serif" font-size="10.00">AutoCopyEvent</text>
<text text-anchor="start" x="189" y="-67" font-family="Helvetica,sans-Serif" font-size="10.00"> </text>
<text text-anchor="start" x="139" y="-52" font-family="Helvetica,sans-Serif" font-size="10.00">+</text>
<text text-anchor="start" x="152" y="-52" font-family="Helvetica,sans-Serif" font-size="10.00">AutoCopyEvent()</text>
<text text-anchor="start" x="139" y="-37" font-family="Helvetica,sans-Serif" font-size="10.00">+</text>
<text text-anchor="start" x="152" y="-37" font-family="Helvetica,sans-Serif" font-size="10.00">~AutoCopyEvent()</text>
<text text-anchor="start" x="139" y="-22" font-family="Helvetica,sans-Serif" font-size="10.00">+</text>
<text text-anchor="start" x="152" y="-22" font-family="Helvetica,sans-Serif" font-size="10.00">handle()</text>
<text text-anchor="start" x="139" y="-7" font-family="Helvetica,sans-Serif" font-size="10.00">+</text>
<text text-anchor="start" x="152" y="-7" font-family="Helvetica,sans-Serif" font-size="10.00">isOn()</text>
<polygon fill="#666666" stroke="#666666" points="135,-77 135,-77 247,-77 247,-77 135,-77"/>
<polygon fill="#666666" stroke="#666666" points="135,-62 135,-62 247,-62 247,-62 135,-62"/>
<polygon fill="none" stroke="#666666" points="135,0 135,-94 247,-94 247,0 135,0"/>
</a>
</g>
</g>
<!-- Node2 -->
<g id="Node000002" class="node">
<title>Node2</title>
<g id="a_Node000002"><a xlink:href="classClipboardEvent.html" target="_top" xlink:title=" ">
<polygon fill="white" stroke="transparent" points="112,-280 0,-280 0,-216 112,-216 112,-280"/>
<text text-anchor="start" x="18.5" y="-268" font-family="Helvetica,sans-Serif" font-size="10.00">ClipboardEvent</text>
<text text-anchor="start" x="54" y="-253" font-family="Helvetica,sans-Serif" font-size="10.00"> </text>
<text text-anchor="start" x="4" y="-238" font-family="Helvetica,sans-Serif" font-size="10.00">+</text>
<text text-anchor="start" x="17" y="-238" font-family="Helvetica,sans-Serif" font-size="10.00">~ClipboardEvent()</text>
<text text-anchor="start" x="4" y="-223" font-family="Helvetica,sans-Serif" font-size="10.00">+</text>
<text text-anchor="start" x="17" y="-223" font-family="Helvetica,sans-Serif" font-size="10.00">handle()</text>
<polygon fill="#666666" stroke="#666666" points="0,-263 0,-263 112,-263 112,-263 0,-263"/>
<polygon fill="#666666" stroke="#666666" points="0,-248 0,-248 112,-248 112,-248 0,-248"/>
<polygon fill="none" stroke="#666666" points="0,-216 0,-280 112,-280 112,-216 0,-216"/>
</a>
</g>
</g>
<!-- Node2&#45;&gt;Node1 -->
<g id="edge1_Node000001_Node000002" class="edge">
<title>Node2&#45;&gt;Node1</title>
<g id="a_edge1_Node000001_Node000002"><a xlink:title=" ">
<path fill="none" stroke="#63b8ff" d="M79.14,-207.27C91.18,-187.13 106.4,-162.45 121,-141 131.58,-125.46 143.71,-108.94 154.86,-94.2"/>
<polygon fill="none" stroke="#63b8ff" points="76.12,-205.51 74.01,-215.9 82.13,-209.09 76.12,-205.51"/>
</a>
</g>
</g>
<!-- Node3 -->
<g id="Node000003" class="node">
<title>Node3</title>
<g id="a_Node000003"><a xlink:href="classMemoryCellManager.html" target="_top" xlink:title=" ">
<polygon fill="white" stroke="transparent" points="278,-355 130,-355 130,-141 278,-141 278,-355"/>
<text text-anchor="start" x="152.5" y="-343" font-family="Helvetica,sans-Serif" font-size="10.00">MemoryCellManager</text>
<text text-anchor="start" x="202" y="-328" font-family="Helvetica,sans-Serif" font-size="10.00"> </text>
<text text-anchor="start" x="134" y="-313" font-family="Helvetica,sans-Serif" font-size="10.00">+</text>
<text text-anchor="start" x="147" y="-313" font-family="Helvetica,sans-Serif" font-size="10.00">getMemoryCellCount()</text>
<text text-anchor="start" x="134" y="-298" font-family="Helvetica,sans-Serif" font-size="10.00">+</text>
<text text-anchor="start" x="147" y="-298" font-family="Helvetica,sans-Serif" font-size="10.00">getMemoryCell()</text>
<text text-anchor="start" x="134" y="-283" font-family="Helvetica,sans-Serif" font-size="10.00">+</text>
<text text-anchor="start" x="147" y="-283" font-family="Helvetica,sans-Serif" font-size="10.00">addMemoryCell()</text>
<text text-anchor="start" x="134" y="-268" font-family="Helvetica,sans-Serif" font-size="10.00">+</text>
<text text-anchor="start" x="147" y="-268" font-family="Helvetica,sans-Serif" font-size="10.00">initialize()</text>
<text text-anchor="start" x="134" y="-253" font-family="Helvetica,sans-Serif" font-size="10.00">+</text>
<text text-anchor="start" x="147" y="-253" font-family="Helvetica,sans-Serif" font-size="10.00">cleanup()</text>
<text text-anchor="start" x="134" y="-238" font-family="Helvetica,sans-Serif" font-size="10.00">+</text>
<text text-anchor="start" x="147" y="-238" font-family="Helvetica,sans-Serif" font-size="10.00">setSelectedCell()</text>
<text text-anchor="start" x="134" y="-223" font-family="Helvetica,sans-Serif" font-size="10.00">+</text>
<text text-anchor="start" x="147" y="-223" font-family="Helvetica,sans-Serif" font-size="10.00">getSelectedCell()</text>
<text text-anchor="start" x="134" y="-208" font-family="Helvetica,sans-Serif" font-size="10.00">+</text>
<text text-anchor="start" x="147" y="-208" font-family="Helvetica,sans-Serif" font-size="10.00">loadCells()</text>
<text text-anchor="start" x="134" y="-193" font-family="Helvetica,sans-Serif" font-size="10.00">+</text>
<text text-anchor="start" x="147" y="-193" font-family="Helvetica,sans-Serif" font-size="10.00">getContents()</text>
<text text-anchor="start" x="134" y="-178" font-family="Helvetica,sans-Serif" font-size="10.00">+</text>
<text text-anchor="start" x="147" y="-178" font-family="Helvetica,sans-Serif" font-size="10.00">moveContentsOneDown()</text>
<text text-anchor="start" x="134" y="-163" font-family="Helvetica,sans-Serif" font-size="10.00">+</text>
<text text-anchor="start" x="147" y="-163" font-family="Helvetica,sans-Serif" font-size="10.00">Instance()</text>
<text text-anchor="start" x="134" y="-148" font-family="Helvetica,sans-Serif" font-size="10.00">#</text>
<text text-anchor="start" x="147" y="-148" font-family="Helvetica,sans-Serif" font-size="10.00">MemoryCellManager()</text>
<polygon fill="#666666" stroke="#666666" points="130,-338 130,-338 278,-338 278,-338 130,-338"/>
<polygon fill="#666666" stroke="#666666" points="130,-323 130,-323 278,-323 278,-323 130,-323"/>
<polygon fill="none" stroke="#666666" points="130,-141 130,-355 278,-355 278,-141 130,-141"/>
</a>
</g>
</g>
<!-- Node3&#45;&gt;Node1 -->
<g id="edge2_Node000001_Node000003" class="edge">
<title>Node3&#45;&gt;Node1</title>
<g id="a_edge2_Node000001_Node000003"><a xlink:title=" ">
<path fill="none" stroke="#63b8ff" d="M193.14,-140.84C192.71,-134.81 192.32,-128.83 192,-123 191.7,-117.59 191.48,-111.95 191.3,-106.31"/>
<polygon fill="none" stroke="#63b8ff" points="191.3,-106.03 187.15,-100.12 191.01,-94.03 195.15,-99.93 191.3,-106.03"/>
</a>
</g>
<text text-anchor="middle" x="254.5" y="-115" font-family="Helvetica,sans-Serif" font-size="10.00" fill="grey"> &#45;m_memoryCellManager</text>
</g>
<!-- Node4 -->
<g id="Node000004" class="node">
<title>Node4</title>
<g id="a_Node000004"><a xlink:title=" ">
<polygon fill="white" stroke="transparent" points="223.5,-462 70.5,-462 70.5,-402 223.5,-402 223.5,-462"/>
<text text-anchor="start" x="76" y="-450" font-family="Helvetica,sans-Serif" font-size="10.00">vector&lt; std::unique</text>
<text text-anchor="start" x="76" y="-439" font-family="Helvetica,sans-Serif" font-size="10.00">_ptr&lt; ClipboardInterface &gt; &gt;</text>
<text text-anchor="start" x="145.5" y="-424" font-family="Helvetica,sans-Serif" font-size="10.00"> </text>
<text text-anchor="start" x="145.5" y="-409" font-family="Helvetica,sans-Serif" font-size="10.00"> </text>
<polygon fill="#666666" stroke="#666666" points="71,-434 71,-434 224,-434 224,-434 71,-434"/>
<polygon fill="#666666" stroke="#666666" points="71,-419 71,-419 224,-419 224,-419 71,-419"/>
<polygon fill="none" stroke="#666666" points="70.5,-402 70.5,-462 223.5,-462 223.5,-402 70.5,-402"/>
</a>
</g>
</g>
<!-- Node4&#45;&gt;Node3 -->
<g id="edge3_Node000003_Node000004" class="edge">
<title>Node4&#45;&gt;Node3</title>
<g id="a_edge3_Node000003_Node000004"><a xlink:title=" ">
<path fill="none" stroke="#63b8ff" d="M147.11,-401.8C147.65,-392.49 148.78,-382.22 151,-373 151.49,-370.97 152.01,-368.92 152.56,-366.87"/>
<polygon fill="none" stroke="#63b8ff" points="152.63,-366.62 150.47,-359.74 155.98,-355.09 158.15,-361.97 152.63,-366.62"/>
</a>
</g>
<text text-anchor="middle" x="195" y="-376" font-family="Helvetica,sans-Serif" font-size="10.00" fill="grey"> &#45;m_memoryCells</text>
</g>
<!-- Node5 -->
<g id="Node000005" class="node">
<title>Node5</title>
<g id="a_Node000005"><a xlink:title=" ">
<polygon fill="white" stroke="transparent" points="280.5,-456.5 241.5,-456.5 241.5,-407.5 280.5,-407.5 280.5,-456.5"/>
<text text-anchor="start" x="247" y="-444" font-family="Helvetica,sans-Serif" font-size="10.00">size_t</text>
<text text-anchor="start" x="259.5" y="-429" font-family="Helvetica,sans-Serif" font-size="10.00"> </text>
<text text-anchor="start" x="259.5" y="-414" font-family="Helvetica,sans-Serif" font-size="10.00"> </text>
<polygon fill="#666666" stroke="#666666" points="242,-439 242,-439 281,-439 281,-439 242,-439"/>
<polygon fill="#666666" stroke="#666666" points="242,-424 242,-424 281,-424 281,-424 242,-424"/>
<polygon fill="none" stroke="#666666" points="241.5,-407.5 241.5,-456.5 280.5,-456.5 280.5,-407.5 241.5,-407.5"/>
</a>
</g>
</g>
<!-- Node5&#45;&gt;Node3 -->
<g id="edge4_Node000003_Node000005" class="edge">
<title>Node5&#45;&gt;Node3</title>
<g id="a_edge4_Node000003_Node000005"><a xlink:title=" ">
<path fill="none" stroke="#63b8ff" d="M253.55,-407.21C250.09,-396.15 245.69,-382.1 240.94,-366.96"/>
<polygon fill="none" stroke="#63b8ff" points="240.85,-366.65 235.24,-362.12 237.26,-355.2 242.87,-359.73 240.85,-366.65"/>
</a>
</g>
<text text-anchor="middle" x="278.5" y="-376" font-family="Helvetica,sans-Serif" font-size="10.00" fill="grey"> &#45;selectedCell</text>
</g>
<!-- Node6 -->
<g id="Node000006" class="node">
<title>Node6</title>
<g id="a_Node000006"><a xlink:title=" ">
<polygon fill="white" stroke="transparent" points="370,-272.5 308,-272.5 308,-223.5 370,-223.5 370,-272.5"/>
<text text-anchor="start" x="313" y="-260" font-family="Helvetica,sans-Serif" font-size="10.00">static bool</text>
<text text-anchor="start" x="337" y="-245" font-family="Helvetica,sans-Serif" font-size="10.00"> </text>
<text text-anchor="start" x="337" y="-230" font-family="Helvetica,sans-Serif" font-size="10.00"> </text>
<polygon fill="#666666" stroke="#666666" points="308,-255 308,-255 370,-255 370,-255 308,-255"/>
<polygon fill="#666666" stroke="#666666" points="308,-240 308,-240 370,-240 370,-240 308,-240"/>
<polygon fill="none" stroke="#666666" points="308,-223.5 308,-272.5 370,-272.5 370,-223.5 308,-223.5"/>
</a>
</g>
</g>
<!-- Node6&#45;&gt;Node1 -->
<g id="edge5_Node000001_Node000006" class="edge">
<title>Node6&#45;&gt;Node1</title>
<g id="a_edge5_Node000001_Node000006"><a xlink:title=" ">
<path fill="none" stroke="#63b8ff" d="M341.25,-223.33C342.74,-194.29 341.03,-144.88 317,-112 302.58,-92.26 280.29,-78.2 258.45,-68.37"/>
<polygon fill="none" stroke="#63b8ff" points="258.18,-68.26 251.1,-69.63 247.12,-63.62 254.2,-62.25 258.18,-68.26"/>
</a>
</g>
<text text-anchor="middle" x="344" y="-115" font-family="Helvetica,sans-Serif" font-size="10.00" fill="grey"> &#45;m_isOn</text>
</g>
</g>
</svg>
