<?xml version="1.0" encoding="UTF-8" standalone="no"?>
<!DOCTYPE svg PUBLIC "-//W3C//DTD SVG 1.1//EN"
 "http://www.w3.org/Graphics/SVG/1.1/DTD/svg11.dtd">
<!-- Generated by graphviz version 2.43.0 (0)
 -->
<!-- Title: EditDoneEvent Pages: 1 -->
<svg width="1255pt" height="667pt"
 viewBox="0.00 0.00 1255.00 667.00" xmlns="http://www.w3.org/2000/svg" xmlns:xlink="http://www.w3.org/1999/xlink">
<g id="graph0" class="graph" transform="scale(1 1) rotate(0) translate(4 663)">
<title>EditDoneEvent</title>
<!-- Node1 -->
<g id="Node000001" class="node">
<title>Node1</title>
<g id="a_Node000001"><a xlink:title=" ">
<polygon fill="#999999" stroke="transparent" points="575,-79 466,-79 466,0 575,0 575,-79"/>
<text text-anchor="start" x="484.5" y="-66.5" font-family="Helvetica,sans-Serif" font-size="10.00">EditDoneEvent</text>
<text text-anchor="start" x="519" y="-51.5" font-family="Helvetica,sans-Serif" font-size="10.00"> </text>
<text text-anchor="start" x="470.5" y="-36.5" font-family="Helvetica,sans-Serif" font-size="10.00">+</text>
<text text-anchor="start" x="483.5" y="-36.5" font-family="Helvetica,sans-Serif" font-size="10.00">EditDoneEvent()</text>
<text text-anchor="start" x="470.5" y="-21.5" font-family="Helvetica,sans-Serif" font-size="10.00">+</text>
<text text-anchor="start" x="483.5" y="-21.5" font-family="Helvetica,sans-Serif" font-size="10.00">~EditDoneEvent()</text>
<text text-anchor="start" x="470.5" y="-6.5" font-family="Helvetica,sans-Serif" font-size="10.00">+</text>
<text text-anchor="start" x="483.5" y="-6.5" font-family="Helvetica,sans-Serif" font-size="10.00">handle()</text>
<polygon fill="#666666" stroke="#666666" points="466.5,-61.5 466.5,-61.5 575.5,-61.5 575.5,-61.5 466.5,-61.5"/>
<polygon fill="#666666" stroke="#666666" points="466.5,-46.5 466.5,-46.5 575.5,-46.5 575.5,-46.5 466.5,-46.5"/>
<polygon fill="none" stroke="#666666" points="466,0 466,-79 575,-79 575,0 466,0"/>
</a>
</g>
</g>
<!-- Node2 -->
<g id="Node000002" class="node">
<title>Node2</title>
<g id="a_Node000002"><a xlink:href="classClipboardEvent.html" target="_top" xlink:title=" ">
<polygon fill="white" stroke="transparent" points="126.5,-265 14.5,-265 14.5,-201 126.5,-201 126.5,-265"/>
<text text-anchor="start" x="33" y="-253" font-family="Helvetica,sans-Serif" font-size="10.00">ClipboardEvent</text>
<text text-anchor="start" x="68.5" y="-238" font-family="Helvetica,sans-Serif" font-size="10.00"> </text>
<text text-anchor="start" x="18.5" y="-223" font-family="Helvetica,sans-Serif" font-size="10.00">+</text>
<text text-anchor="start" x="31.5" y="-223" font-family="Helvetica,sans-Serif" font-size="10.00">~ClipboardEvent()</text>
<text text-anchor="start" x="18.5" y="-208" font-family="Helvetica,sans-Serif" font-size="10.00">+</text>
<text text-anchor="start" x="31.5" y="-208" font-family="Helvetica,sans-Serif" font-size="10.00">handle()</text>
<polygon fill="#666666" stroke="#666666" points="14.5,-248 14.5,-248 126.5,-248 126.5,-248 14.5,-248"/>
<polygon fill="#666666" stroke="#666666" points="14.5,-233 14.5,-233 126.5,-233 126.5,-233 14.5,-233"/>
<polygon fill="none" stroke="#666666" points="14.5,-201 14.5,-265 126.5,-265 126.5,-201 14.5,-201"/>
</a>
</g>
</g>
<!-- Node2&#45;&gt;Node1 -->
<g id="edge1_Node000001_Node000002" class="edge">
<title>Node2&#45;&gt;Node1</title>
<g id="a_edge1_Node000001_Node000002"><a xlink:title=" ">
<path fill="none" stroke="#63b8ff" d="M85.97,-191.36C96.6,-168.81 112.9,-142.12 135.5,-126 235.97,-54.33 385.83,-41.2 465.71,-39.7"/>
<polygon fill="none" stroke="#63b8ff" points="82.67,-190.18 81.77,-200.74 89.05,-193.05 82.67,-190.18"/>
</a>
</g>
</g>
<!-- Node3 -->
<g id="Node000003" class="node">
<title>Node3</title>
<g id="a_Node000003"><a xlink:href="classMemoryCellManager.html" target="_top" xlink:title=" ">
<polygon fill="white" stroke="transparent" points="292.5,-340 144.5,-340 144.5,-126 292.5,-126 292.5,-340"/>
<text text-anchor="start" x="167" y="-328" font-family="Helvetica,sans-Serif" font-size="10.00">MemoryCellManager</text>
<text text-anchor="start" x="216.5" y="-313" font-family="Helvetica,sans-Serif" font-size="10.00"> </text>
<text text-anchor="start" x="148.5" y="-298" font-family="Helvetica,sans-Serif" font-size="10.00">+</text>
<text text-anchor="start" x="161.5" y="-298" font-family="Helvetica,sans-Serif" font-size="10.00">getMemoryCellCount()</text>
<text text-anchor="start" x="148.5" y="-283" font-family="Helvetica,sans-Serif" font-size="10.00">+</text>
<text text-anchor="start" x="161.5" y="-283" font-family="Helvetica,sans-Serif" font-size="10.00">getMemoryCell()</text>
<text text-anchor="start" x="148.5" y="-268" font-family="Helvetica,sans-Serif" font-size="10.00">+</text>
<text text-anchor="start" x="161.5" y="-268" font-family="Helvetica,sans-Serif" font-size="10.00">addMemoryCell()</text>
<text text-anchor="start" x="148.5" y="-253" font-family="Helvetica,sans-Serif" font-size="10.00">+</text>
<text text-anchor="start" x="161.5" y="-253" font-family="Helvetica,sans-Serif" font-size="10.00">initialize()</text>
<text text-anchor="start" x="148.5" y="-238" font-family="Helvetica,sans-Serif" font-size="10.00">+</text>
<text text-anchor="start" x="161.5" y="-238" font-family="Helvetica,sans-Serif" font-size="10.00">cleanup()</text>
<text text-anchor="start" x="148.5" y="-223" font-family="Helvetica,sans-Serif" font-size="10.00">+</text>
<text text-anchor="start" x="161.5" y="-223" font-family="Helvetica,sans-Serif" font-size="10.00">setSelectedCell()</text>
<text text-anchor="start" x="148.5" y="-208" font-family="Helvetica,sans-Serif" font-size="10.00">+</text>
<text text-anchor="start" x="161.5" y="-208" font-family="Helvetica,sans-Serif" font-size="10.00">getSelectedCell()</text>
<text text-anchor="start" x="148.5" y="-193" font-family="Helvetica,sans-Serif" font-size="10.00">+</text>
<text text-anchor="start" x="161.5" y="-193" font-family="Helvetica,sans-Serif" font-size="10.00">loadCells()</text>
<text text-anchor="start" x="148.5" y="-178" font-family="Helvetica,sans-Serif" font-size="10.00">+</text>
<text text-anchor="start" x="161.5" y="-178" font-family="Helvetica,sans-Serif" font-size="10.00">getContents()</text>
<text text-anchor="start" x="148.5" y="-163" font-family="Helvetica,sans-Serif" font-size="10.00">+</text>
<text text-anchor="start" x="161.5" y="-163" font-family="Helvetica,sans-Serif" font-size="10.00">moveContentsOneDown()</text>
<text text-anchor="start" x="148.5" y="-148" font-family="Helvetica,sans-Serif" font-size="10.00">+</text>
<text text-anchor="start" x="161.5" y="-148" font-family="Helvetica,sans-Serif" font-size="10.00">Instance()</text>
<text text-anchor="start" x="148.5" y="-133" font-family="Helvetica,sans-Serif" font-size="10.00">#</text>
<text text-anchor="start" x="161.5" y="-133" font-family="Helvetica,sans-Serif" font-size="10.00">MemoryCellManager()</text>
<polygon fill="#666666" stroke="#666666" points="144.5,-323 144.5,-323 292.5,-323 292.5,-323 144.5,-323"/>
<polygon fill="#666666" stroke="#666666" points="144.5,-308 144.5,-308 292.5,-308 292.5,-308 144.5,-308"/>
<polygon fill="none" stroke="#666666" points="144.5,-126 144.5,-340 292.5,-340 292.5,-126 144.5,-126"/>
</a>
</g>
</g>
<!-- Node3&#45;&gt;Node1 -->
<g id="edge2_Node000001_Node000003" class="edge">
<title>Node3&#45;&gt;Node1</title>
<g id="a_edge2_Node000001_Node000003"><a xlink:title=" ">
<path fill="none" stroke="#63b8ff" d="M292.63,-126.34C303.41,-115.39 315.09,-105.27 327.5,-97 365.27,-71.81 414.48,-57.63 453.75,-49.78"/>
<polygon fill="none" stroke="#63b8ff" points="453.8,-49.77 458.95,-44.72 465.59,-47.54 460.44,-52.58 453.8,-49.77"/>
</a>
</g>
<text text-anchor="middle" x="390" y="-100" font-family="Helvetica,sans-Serif" font-size="10.00" fill="grey"> &#45;m_memoryCellManager</text>
</g>
<!-- Node4 -->
<g id="Node000004" class="node">
<title>Node4</title>
<g id="a_Node000004"><a xlink:title=" ">
<polygon fill="white" stroke="transparent" points="153,-505 0,-505 0,-445 153,-445 153,-505"/>
<text text-anchor="start" x="5.5" y="-493" font-family="Helvetica,sans-Serif" font-size="10.00">vector&lt; std::unique</text>
<text text-anchor="start" x="5.5" y="-482" font-family="Helvetica,sans-Serif" font-size="10.00">_ptr&lt; ClipboardInterface &gt; &gt;</text>
<text text-anchor="start" x="75" y="-467" font-family="Helvetica,sans-Serif" font-size="10.00"> </text>
<text text-anchor="start" x="75" y="-452" font-family="Helvetica,sans-Serif" font-size="10.00"> </text>
<polygon fill="#666666" stroke="#666666" points="0.5,-477 0.5,-477 153.5,-477 153.5,-477 0.5,-477"/>
<polygon fill="#666666" stroke="#666666" points="0.5,-462 0.5,-462 153.5,-462 153.5,-462 0.5,-462"/>
<polygon fill="none" stroke="#666666" points="0,-445 0,-505 153,-505 153,-445 0,-445"/>
</a>
</g>
</g>
<!-- Node4&#45;&gt;Node3 -->
<g id="edge3_Node000003_Node000004" class="edge">
<title>Node4&#45;&gt;Node3</title>
<g id="a_edge3_Node000003_Node000004"><a xlink:title=" ">
<path fill="none" stroke="#63b8ff" d="M75.07,-444.88C75.31,-419.48 79.45,-382.91 98.5,-358 107.87,-345.74 117.64,-349.54 134.34,-339.54"/>
<polygon fill="none" stroke="#63b8ff" points="134.6,-339.35 137.16,-332.6 144.37,-332.37 141.81,-339.11 134.6,-339.35"/>
</a>
</g>
<text text-anchor="middle" x="142.5" y="-366.5" font-family="Helvetica,sans-Serif" font-size="10.00" fill="grey"> &#45;m_memoryCells</text>
</g>
<!-- Node5 -->
<g id="Node000005" class="node">
<title>Node5</title>
<g id="a_Node000005"><a xlink:title=" ">
<polygon fill="white" stroke="transparent" points="210,-499.5 171,-499.5 171,-450.5 210,-450.5 210,-499.5"/>
<text text-anchor="start" x="176.5" y="-487" font-family="Helvetica,sans-Serif" font-size="10.00">size_t</text>
<text text-anchor="start" x="189" y="-472" font-family="Helvetica,sans-Serif" font-size="10.00"> </text>
<text text-anchor="start" x="189" y="-457" font-family="Helvetica,sans-Serif" font-size="10.00"> </text>
<polygon fill="#666666" stroke="#666666" points="171.5,-482 171.5,-482 210.5,-482 210.5,-482 171.5,-482"/>
<polygon fill="#666666" stroke="#666666" points="171.5,-467 171.5,-467 210.5,-467 210.5,-467 171.5,-467"/>
<polygon fill="none" stroke="#666666" points="171,-450.5 171,-499.5 210,-499.5 210,-450.5 171,-450.5"/>
</a>
</g>
</g>
<!-- Node5&#45;&gt;Node3 -->
<g id="edge4_Node000003_Node000005" class="edge">
<title>Node5&#45;&gt;Node3</title>
<g id="a_edge4_Node000003_Node000005"><a xlink:title=" ">
<path fill="none" stroke="#63b8ff" d="M189.29,-450.36C188.41,-426.86 187.94,-389.82 191.5,-358 191.71,-356.1 191.94,-354.18 192.19,-352.25"/>
<polygon fill="none" stroke="#63b8ff" points="192.2,-352.18 189.08,-345.68 193.87,-340.3 197,-346.8 192.2,-352.18"/>
</a>
</g>
<text text-anchor="middle" x="225" y="-366.5" font-family="Helvetica,sans-Serif" font-size="10.00" fill="grey"> &#45;selectedCell</text>
</g>
<!-- Node6 -->
<g id="Node000006" class="node">
<title>Node6</title>
<g id="a_Node000006"><a xlink:href="classEditViewModel.html" target="_top" xlink:title=" ">
<polygon fill="white" stroke="transparent" points="468.5,-310 338.5,-310 338.5,-156 468.5,-156 468.5,-310"/>
<text text-anchor="start" x="367" y="-298" font-family="Helvetica,sans-Serif" font-size="10.00">EditViewModel</text>
<text text-anchor="start" x="401.5" y="-283" font-family="Helvetica,sans-Serif" font-size="10.00"> </text>
<text text-anchor="start" x="342.5" y="-268" font-family="Helvetica,sans-Serif" font-size="10.00">+</text>
<text text-anchor="start" x="355.5" y="-268" font-family="Helvetica,sans-Serif" font-size="10.00">RegisterKey()</text>
<text text-anchor="start" x="342.5" y="-253" font-family="Helvetica,sans-Serif" font-size="10.00">+</text>
<text text-anchor="start" x="355.5" y="-253" font-family="Helvetica,sans-Serif" font-size="10.00">ResetNewShortCut()</text>
<text text-anchor="start" x="342.5" y="-238" font-family="Helvetica,sans-Serif" font-size="10.00">+</text>
<text text-anchor="start" x="355.5" y="-238" font-family="Helvetica,sans-Serif" font-size="10.00">GetNewShortCut()</text>
<text text-anchor="start" x="342.5" y="-223" font-family="Helvetica,sans-Serif" font-size="10.00">+</text>
<text text-anchor="start" x="355.5" y="-223" font-family="Helvetica,sans-Serif" font-size="10.00">SetSelectedShortCut()</text>
<text text-anchor="start" x="342.5" y="-208" font-family="Helvetica,sans-Serif" font-size="10.00">+</text>
<text text-anchor="start" x="355.5" y="-208" font-family="Helvetica,sans-Serif" font-size="10.00">GetSelectedShortCut()</text>
<text text-anchor="start" x="342.5" y="-193" font-family="Helvetica,sans-Serif" font-size="10.00">+</text>
<text text-anchor="start" x="355.5" y="-193" font-family="Helvetica,sans-Serif" font-size="10.00">Instance()</text>
<text text-anchor="start" x="342.5" y="-178" font-family="Helvetica,sans-Serif" font-size="10.00">#</text>
<text text-anchor="start" x="355.5" y="-178" font-family="Helvetica,sans-Serif" font-size="10.00">EditViewModel()</text>
<text text-anchor="start" x="342.5" y="-163" font-family="Helvetica,sans-Serif" font-size="10.00">#</text>
<text text-anchor="start" x="355.5" y="-163" font-family="Helvetica,sans-Serif" font-size="10.00">~EditViewModel()</text>
<polygon fill="#666666" stroke="#666666" points="338.5,-293 338.5,-293 468.5,-293 468.5,-293 338.5,-293"/>
<polygon fill="#666666" stroke="#666666" points="338.5,-278 338.5,-278 468.5,-278 468.5,-278 338.5,-278"/>
<polygon fill="none" stroke="#666666" points="338.5,-156 338.5,-310 468.5,-310 468.5,-156 338.5,-156"/>
</a>
</g>
</g>
<!-- Node6&#45;&gt;Node1 -->
<g id="edge5_Node000001_Node000006" class="edge">
<title>Node6&#45;&gt;Node1</title>
<g id="a_edge5_Node000001_Node000006"><a xlink:title=" ">
<path fill="none" stroke="#63b8ff" d="M430.75,-155.7C439.47,-135.77 450.13,-114.88 462.5,-97 464.49,-94.13 466.63,-91.28 468.89,-88.48"/>
<polygon fill="none" stroke="#63b8ff" points="469.08,-88.26 469.98,-81.11 476.93,-79.18 476.03,-86.34 469.08,-88.26"/>
</a>
</g>
<text text-anchor="middle" x="510" y="-100" font-family="Helvetica,sans-Serif" font-size="10.00" fill="grey"> &#45;m_editViewModel</text>
</g>
<!-- Node7 -->
<g id="Node000007" class="node">
<title>Node7</title>
<g id="a_Node000007"><a xlink:title=" ">
<polygon fill="white" stroke="transparent" points="361,-659 258,-659 258,-599 361,-599 361,-659"/>
<text text-anchor="start" x="263.5" y="-647" font-family="Helvetica,sans-Serif" font-size="10.00">vector&lt; Rml::Input</text>
<text text-anchor="start" x="270.5" y="-636" font-family="Helvetica,sans-Serif" font-size="10.00">::KeyIdentifier &gt;</text>
<text text-anchor="start" x="308" y="-621" font-family="Helvetica,sans-Serif" font-size="10.00"> </text>
<text text-anchor="start" x="308" y="-606" font-family="Helvetica,sans-Serif" font-size="10.00"> </text>
<polygon fill="#666666" stroke="#666666" points="258.5,-631 258.5,-631 361.5,-631 361.5,-631 258.5,-631"/>
<polygon fill="#666666" stroke="#666666" points="258.5,-616 258.5,-616 361.5,-616 361.5,-616 258.5,-616"/>
<polygon fill="none" stroke="#666666" points="258,-599 258,-659 361,-659 361,-599 258,-599"/>
</a>
</g>
</g>
<!-- Node7&#45;&gt;Node6 -->
<g id="edge6_Node000006_Node000007" class="edge">
<title>Node7&#45;&gt;Node6</title>
<g id="a_edge6_Node000006_Node000007"><a xlink:title=" ">
<path fill="none" stroke="#63b8ff" d="M295.96,-598.72C290.28,-584.87 284.34,-567.92 281.5,-552 269.48,-484.62 259.98,-462.97 281.5,-398 291.89,-366.64 310.86,-336.39 330.79,-310.6"/>
<polygon fill="none" stroke="#63b8ff" points="331,-310.34 331.6,-303.16 338.46,-300.94 337.86,-308.13 331,-310.34"/>
</a>
</g>
<text text-anchor="middle" x="316.5" y="-472.5" font-family="Helvetica,sans-Serif" font-size="10.00" fill="grey"> &#45;newShortCut</text>
</g>
<!-- Node8 -->
<g id="Node000008" class="node">
<title>Node8</title>
<g id="a_Node000008"><a xlink:href="classKeyShortCut.html" target="_top" xlink:title=" ">
<polygon fill="white" stroke="transparent" points="478.5,-544.5 360.5,-544.5 360.5,-405.5 478.5,-405.5 478.5,-544.5"/>
<text text-anchor="start" x="389" y="-532" font-family="Helvetica,sans-Serif" font-size="10.00">KeyShortCut</text>
<text text-anchor="start" x="417.5" y="-517" font-family="Helvetica,sans-Serif" font-size="10.00"> </text>
<text text-anchor="start" x="364.5" y="-502" font-family="Helvetica,sans-Serif" font-size="10.00">+</text>
<text text-anchor="start" x="377.5" y="-502" font-family="Helvetica,sans-Serif" font-size="10.00">KeyShortCut()</text>
<text text-anchor="start" x="364.5" y="-487" font-family="Helvetica,sans-Serif" font-size="10.00">+</text>
<text text-anchor="start" x="377.5" y="-487" font-family="Helvetica,sans-Serif" font-size="10.00">getShortCut()</text>
<text text-anchor="start" x="364.5" y="-472" font-family="Helvetica,sans-Serif" font-size="10.00">+</text>
<text text-anchor="start" x="377.5" y="-472" font-family="Helvetica,sans-Serif" font-size="10.00">setShortCut()</text>
<text text-anchor="start" x="364.5" y="-457" font-family="Helvetica,sans-Serif" font-size="10.00">+</text>
<text text-anchor="start" x="377.5" y="-457" font-family="Helvetica,sans-Serif" font-size="10.00">getEvent()</text>
<text text-anchor="start" x="364.5" y="-442" font-family="Helvetica,sans-Serif" font-size="10.00">+</text>
<text text-anchor="start" x="377.5" y="-442" font-family="Helvetica,sans-Serif" font-size="10.00">operator==()</text>
<text text-anchor="start" x="364.5" y="-427" font-family="Helvetica,sans-Serif" font-size="10.00">+</text>
<text text-anchor="start" x="377.5" y="-427" font-family="Helvetica,sans-Serif" font-size="10.00">toString()</text>
<text text-anchor="start" x="364.5" y="-412" font-family="Helvetica,sans-Serif" font-size="10.00">+</text>
<text text-anchor="start" x="377.5" y="-412" font-family="Helvetica,sans-Serif" font-size="10.00">toStringTranslated()</text>
<polygon fill="#666666" stroke="#666666" points="360.5,-527 360.5,-527 478.5,-527 478.5,-527 360.5,-527"/>
<polygon fill="#666666" stroke="#666666" points="360.5,-512 360.5,-512 478.5,-512 478.5,-512 360.5,-512"/>
<polygon fill="none" stroke="#666666" points="360.5,-405.5 360.5,-544.5 478.5,-544.5 478.5,-405.5 360.5,-405.5"/>
</a>
</g>
</g>
<!-- Node7&#45;&gt;Node8 -->
<g id="edge8_Node000008_Node000007" class="edge">
<title>Node7&#45;&gt;Node8</title>
<g id="a_edge8_Node000008_Node000007"><a xlink:title=" ">
<path fill="none" stroke="#63b8ff" d="M330.71,-598.69C339.96,-585.9 351.3,-570.24 362.74,-554.43"/>
<polygon fill="none" stroke="#63b8ff" points="362.82,-554.31 363.1,-547.11 369.86,-544.59 369.58,-551.8 362.82,-554.31"/>
</a>
</g>
<text text-anchor="middle" x="414.5" y="-573" font-family="Helvetica,sans-Serif" font-size="10.00" fill="grey"> &#45;m_shortCutCombination</text>
</g>
<!-- Node8&#45;&gt;Node6 -->
<g id="edge7_Node000006_Node000008" class="edge">
<title>Node8&#45;&gt;Node6</title>
<g id="a_edge7_Node000006_Node000008"><a xlink:title=" ">
<path fill="none" stroke="#63b8ff" d="M407.32,-405.35C406.17,-396.84 405.18,-388.23 404.5,-380 402.96,-361.37 402.22,-341.35 401.96,-322.29"/>
<polygon fill="none" stroke="#63b8ff" points="401.95,-322.25 397.9,-316.29 401.85,-310.25 405.9,-316.21 401.95,-322.25"/>
</a>
</g>
<text text-anchor="middle" x="457.5" y="-366.5" font-family="Helvetica,sans-Serif" font-size="10.00" fill="grey"> &#45;m_selectedShortCut</text>
</g>
<!-- Node9 -->
<g id="Node000009" class="node">
<title>Node9</title>
<g id="a_Node000009"><a xlink:title=" ">
<polygon fill="white" stroke="transparent" points="832.5,-653.5 794.5,-653.5 794.5,-604.5 832.5,-604.5 832.5,-653.5"/>
<text text-anchor="start" x="799.5" y="-641" font-family="Helvetica,sans-Serif" font-size="10.00">string</text>
<text text-anchor="start" x="811.5" y="-626" font-family="Helvetica,sans-Serif" font-size="10.00"> </text>
<text text-anchor="start" x="811.5" y="-611" font-family="Helvetica,sans-Serif" font-size="10.00"> </text>
<polygon fill="#666666" stroke="#666666" points="794.5,-636 794.5,-636 832.5,-636 832.5,-636 794.5,-636"/>
<polygon fill="#666666" stroke="#666666" points="794.5,-621 794.5,-621 832.5,-621 832.5,-621 794.5,-621"/>
<polygon fill="none" stroke="#666666" points="794.5,-604.5 794.5,-653.5 832.5,-653.5 832.5,-604.5 794.5,-604.5"/>
</a>
</g>
</g>
<!-- Node9&#45;&gt;Node8 -->
<g id="edge9_Node000008_Node000009" class="edge">
<title>Node9&#45;&gt;Node8</title>
<g id="a_edge9_Node000008_Node000009"><a xlink:title=" ">
<path fill="none" stroke="#63b8ff" d="M794.38,-627.49C741.71,-625.28 591.49,-613.63 487.5,-552 487.27,-551.86 487.04,-551.73 486.82,-551.59"/>
<polygon fill="none" stroke="#63b8ff" points="486.73,-551.53 479.52,-551.47 476.81,-544.78 484.02,-544.85 486.73,-551.53"/>
</a>
</g>
<text text-anchor="middle" x="570.5" y="-573" font-family="Helvetica,sans-Serif" font-size="10.00" fill="grey"> &#45;m_event</text>
</g>
<!-- Node18 -->
<g id="Node000018" class="node">
<title>Node18</title>
<g id="a_Node000018"><a xlink:href="classFileManager.html" target="_top" xlink:title=" ">
<polygon fill="white" stroke="transparent" points="986.5,-325 874.5,-325 874.5,-141 986.5,-141 986.5,-325"/>
<text text-anchor="start" x="900" y="-313" font-family="Helvetica,sans-Serif" font-size="10.00">FileManager</text>
<text text-anchor="start" x="928.5" y="-298" font-family="Helvetica,sans-Serif" font-size="10.00"> </text>
<text text-anchor="start" x="878.5" y="-283" font-family="Helvetica,sans-Serif" font-size="10.00">+</text>
<text text-anchor="start" x="891.5" y="-283" font-family="Helvetica,sans-Serif" font-size="10.00">~FileManager()</text>
<text text-anchor="start" x="878.5" y="-268" font-family="Helvetica,sans-Serif" font-size="10.00">+</text>
<text text-anchor="start" x="891.5" y="-268" font-family="Helvetica,sans-Serif" font-size="10.00">getLastFile()</text>
<text text-anchor="start" x="878.5" y="-253" font-family="Helvetica,sans-Serif" font-size="10.00">+</text>
<text text-anchor="start" x="891.5" y="-253" font-family="Helvetica,sans-Serif" font-size="10.00">searchImportFile()</text>
<text text-anchor="start" x="878.5" y="-238" font-family="Helvetica,sans-Serif" font-size="10.00">+</text>
<text text-anchor="start" x="891.5" y="-238" font-family="Helvetica,sans-Serif" font-size="10.00">searchExportFile()</text>
<text text-anchor="start" x="878.5" y="-223" font-family="Helvetica,sans-Serif" font-size="10.00">+</text>
<text text-anchor="start" x="891.5" y="-223" font-family="Helvetica,sans-Serif" font-size="10.00">readFile()</text>
<text text-anchor="start" x="878.5" y="-208" font-family="Helvetica,sans-Serif" font-size="10.00">+</text>
<text text-anchor="start" x="891.5" y="-208" font-family="Helvetica,sans-Serif" font-size="10.00">exportFile()</text>
<text text-anchor="start" x="878.5" y="-193" font-family="Helvetica,sans-Serif" font-size="10.00">+</text>
<text text-anchor="start" x="891.5" y="-193" font-family="Helvetica,sans-Serif" font-size="10.00">showErrorDialog()</text>
<text text-anchor="start" x="878.5" y="-178" font-family="Helvetica,sans-Serif" font-size="10.00">+</text>
<text text-anchor="start" x="891.5" y="-178" font-family="Helvetica,sans-Serif" font-size="10.00">showGoodDialog()</text>
<text text-anchor="start" x="878.5" y="-163" font-family="Helvetica,sans-Serif" font-size="10.00">+</text>
<text text-anchor="start" x="891.5" y="-163" font-family="Helvetica,sans-Serif" font-size="10.00">Instance()</text>
<text text-anchor="start" x="878.5" y="-148" font-family="Helvetica,sans-Serif" font-size="10.00">#</text>
<text text-anchor="start" x="891.5" y="-148" font-family="Helvetica,sans-Serif" font-size="10.00">FileManager()</text>
<polygon fill="#666666" stroke="#666666" points="874.5,-308 874.5,-308 986.5,-308 986.5,-308 874.5,-308"/>
<polygon fill="#666666" stroke="#666666" points="874.5,-293 874.5,-293 986.5,-293 986.5,-293 874.5,-293"/>
<polygon fill="none" stroke="#666666" points="874.5,-141 874.5,-325 986.5,-325 986.5,-141 874.5,-141"/>
</a>
</g>
</g>
<!-- Node9&#45;&gt;Node18 -->
<g id="edge23_Node000018_Node000009" class="edge">
<title>Node9&#45;&gt;Node18</title>
<g id="a_edge23_Node000018_Node000009"><a xlink:title=" ">
<path fill="none" stroke="#63b8ff" d="M832.67,-619.97C856.96,-608.68 898,-585.67 917.5,-552 954.77,-487.63 956.44,-403.02 949.64,-337.26"/>
<polygon fill="none" stroke="#63b8ff" points="949.63,-337.13 944.98,-331.62 948.28,-325.21 952.93,-330.72 949.63,-337.13"/>
</a>
</g>
<text text-anchor="middle" x="982.5" y="-472.5" font-family="Helvetica,sans-Serif" font-size="10.00" fill="grey"> &#45;m_lastFile</text>
</g>
<!-- Node10 -->
<g id="Node000010" class="node">
<title>Node10</title>
<g id="a_Node000010"><a xlink:href="classKeyShortCutManager.html" target="_top" xlink:title=" ">
<polygon fill="white" stroke="transparent" points="708.5,-340 566.5,-340 566.5,-126 708.5,-126 708.5,-340"/>
<text text-anchor="start" x="586" y="-328" font-family="Helvetica,sans-Serif" font-size="10.00">KeyShortCutManager</text>
<text text-anchor="start" x="635.5" y="-313" font-family="Helvetica,sans-Serif" font-size="10.00"> </text>
<text text-anchor="start" x="570.5" y="-298" font-family="Helvetica,sans-Serif" font-size="10.00">+</text>
<text text-anchor="start" x="583.5" y="-298" font-family="Helvetica,sans-Serif" font-size="10.00">GetPasteShortCut()</text>
<text text-anchor="start" x="570.5" y="-283" font-family="Helvetica,sans-Serif" font-size="10.00">+</text>
<text text-anchor="start" x="583.5" y="-283" font-family="Helvetica,sans-Serif" font-size="10.00">GetCopyShortCut()</text>
<text text-anchor="start" x="570.5" y="-268" font-family="Helvetica,sans-Serif" font-size="10.00">+</text>
<text text-anchor="start" x="583.5" y="-268" font-family="Helvetica,sans-Serif" font-size="10.00">FilterShortCuts()</text>
<text text-anchor="start" x="570.5" y="-253" font-family="Helvetica,sans-Serif" font-size="10.00">+</text>
<text text-anchor="start" x="583.5" y="-253" font-family="Helvetica,sans-Serif" font-size="10.00">ModifyKeyShortCuts()</text>
<text text-anchor="start" x="570.5" y="-238" font-family="Helvetica,sans-Serif" font-size="10.00">+</text>
<text text-anchor="start" x="583.5" y="-238" font-family="Helvetica,sans-Serif" font-size="10.00">Initialize()</text>
<text text-anchor="start" x="570.5" y="-223" font-family="Helvetica,sans-Serif" font-size="10.00">+</text>
<text text-anchor="start" x="583.5" y="-223" font-family="Helvetica,sans-Serif" font-size="10.00">Instance()</text>
<text text-anchor="start" x="570.5" y="-208" font-family="Helvetica,sans-Serif" font-size="10.00">#</text>
<text text-anchor="start" x="583.5" y="-208" font-family="Helvetica,sans-Serif" font-size="10.00">KeyShortCutManager()</text>
<text text-anchor="start" x="573" y="-193" font-family="Helvetica,sans-Serif" font-size="10.00">&#45;</text>
<text text-anchor="start" x="583.5" y="-193" font-family="Helvetica,sans-Serif" font-size="10.00">LoadKeyShortCuts()</text>
<text text-anchor="start" x="573" y="-178" font-family="Helvetica,sans-Serif" font-size="10.00">&#45;</text>
<text text-anchor="start" x="583.5" y="-178" font-family="Helvetica,sans-Serif" font-size="10.00">SelectFile()</text>
<text text-anchor="start" x="573" y="-163" font-family="Helvetica,sans-Serif" font-size="10.00">&#45;</text>
<text text-anchor="start" x="583.5" y="-163" font-family="Helvetica,sans-Serif" font-size="10.00">GetShortCutFromString()</text>
<text text-anchor="start" x="573" y="-148" font-family="Helvetica,sans-Serif" font-size="10.00">&#45;</text>
<text text-anchor="start" x="583.5" y="-148" font-family="Helvetica,sans-Serif" font-size="10.00">GetBaseList()</text>
<text text-anchor="start" x="573" y="-133" font-family="Helvetica,sans-Serif" font-size="10.00">&#45;</text>
<text text-anchor="start" x="583.5" y="-133" font-family="Helvetica,sans-Serif" font-size="10.00">WriteShortCuts()</text>
<polygon fill="#666666" stroke="#666666" points="566.5,-323 566.5,-323 708.5,-323 708.5,-323 566.5,-323"/>
<polygon fill="#666666" stroke="#666666" points="566.5,-308 566.5,-308 708.5,-308 708.5,-308 566.5,-308"/>
<polygon fill="none" stroke="#666666" points="566.5,-126 566.5,-340 708.5,-340 708.5,-126 566.5,-126"/>
</a>
</g>
</g>
<!-- Node10&#45;&gt;Node1 -->
<g id="edge10_Node000001_Node000010" class="edge">
<title>Node10&#45;&gt;Node1</title>
<g id="a_edge10_Node000001_Node000010"><a xlink:title=" ">
<path fill="none" stroke="#63b8ff" d="M575.28,-125.97C569.33,-116.14 563.34,-106.36 557.5,-97 555.98,-94.57 554.42,-92.08 552.83,-89.58"/>
<polygon fill="none" stroke="#63b8ff" points="552.69,-89.36 546.08,-86.47 546.21,-79.26 552.81,-82.15 552.69,-89.36"/>
</a>
</g>
<text text-anchor="middle" x="629.5" y="-100" font-family="Helvetica,sans-Serif" font-size="10.00" fill="grey"> &#45;m_keyShortCutsManager</text>
</g>
<!-- Node10&#45;&gt;Node10 -->
<g id="edge11_Node000010_Node000010" class="edge">
<title>Node10&#45;&gt;Node10</title>
<g id="a_edge11_Node000010_Node000010"><a xlink:title=" ">
<path fill="none" stroke="#63b8ff" d="M708.73,-255.11C719.33,-251.67 726.5,-244.3 726.5,-233 726.5,-226.11 723.84,-220.69 719.36,-216.72"/>
<polygon fill="none" stroke="#63b8ff" points="719.25,-216.66 712.06,-217.28 708.73,-210.89 715.91,-210.27 719.25,-216.66"/>
</a>
</g>
<text text-anchor="middle" x="758.5" y="-230.5" font-family="Helvetica,sans-Serif" font-size="10.00" fill="grey"> &#45;m_instance</text>
</g>
<!-- Node11 -->
<g id="Node000011" class="node">
<title>Node11</title>
<g id="a_Node000011"><a xlink:title=" ">
<polygon fill="white" stroke="transparent" points="718.5,-499.5 586.5,-499.5 586.5,-450.5 718.5,-450.5 718.5,-499.5"/>
<text text-anchor="start" x="591.5" y="-487" font-family="Helvetica,sans-Serif" font-size="10.00">vector&lt; KeyShortCut * &gt;</text>
<text text-anchor="start" x="650.5" y="-472" font-family="Helvetica,sans-Serif" font-size="10.00"> </text>
<text text-anchor="start" x="650.5" y="-457" font-family="Helvetica,sans-Serif" font-size="10.00"> </text>
<polygon fill="#666666" stroke="#666666" points="586.5,-482 586.5,-482 718.5,-482 718.5,-482 586.5,-482"/>
<polygon fill="#666666" stroke="#666666" points="586.5,-467 586.5,-467 718.5,-467 718.5,-467 586.5,-467"/>
<polygon fill="none" stroke="#666666" points="586.5,-450.5 586.5,-499.5 718.5,-499.5 718.5,-450.5 586.5,-450.5"/>
</a>
</g>
</g>
<!-- Node11&#45;&gt;Node10 -->
<g id="edge12_Node000010_Node000011" class="edge">
<title>Node11&#45;&gt;Node10</title>
<g id="a_edge12_Node000010_Node000011"><a xlink:title=" ">
<path fill="none" stroke="#63b8ff" d="M648,-450.15C644.65,-431.21 640.36,-404.02 638.5,-380 637.81,-371.04 637.28,-361.76 636.9,-352.42"/>
<polygon fill="none" stroke="#63b8ff" points="636.89,-352.12 632.69,-346.27 636.48,-340.13 640.68,-345.99 636.89,-352.12"/>
</a>
</g>
<text text-anchor="middle" x="682.5" y="-372" font-family="Helvetica,sans-Serif" font-size="10.00" fill="grey"> &#45;m_shortcuts</text>
<text text-anchor="middle" x="682.5" y="-361" font-family="Helvetica,sans-Serif" font-size="10.00" fill="grey">&#45;m_shortcutsBase</text>
</g>
<!-- Node12 -->
<g id="Node000012" class="node">
<title>Node12</title>
<g id="a_Node000012"><a xlink:href="classIFileManager.html" target="_top" xlink:title=" ">
<polygon fill="white" stroke="transparent" points="908.5,-552 796.5,-552 796.5,-398 908.5,-398 908.5,-552"/>
<text text-anchor="start" x="820.5" y="-540" font-family="Helvetica,sans-Serif" font-size="10.00">IFileManager</text>
<text text-anchor="start" x="850.5" y="-525" font-family="Helvetica,sans-Serif" font-size="10.00"> </text>
<text text-anchor="start" x="800.5" y="-510" font-family="Helvetica,sans-Serif" font-size="10.00">+</text>
<text text-anchor="start" x="813.5" y="-510" font-family="Helvetica,sans-Serif" font-size="10.00">~IFileManager()</text>
<text text-anchor="start" x="800.5" y="-495" font-family="Helvetica,sans-Serif" font-size="10.00">+</text>
<text text-anchor="start" x="813.5" y="-495" font-family="Helvetica,sans-Serif" font-size="10.00">getLastFile()</text>
<text text-anchor="start" x="800.5" y="-480" font-family="Helvetica,sans-Serif" font-size="10.00">+</text>
<text text-anchor="start" x="813.5" y="-480" font-family="Helvetica,sans-Serif" font-size="10.00">searchImportFile()</text>
<text text-anchor="start" x="800.5" y="-465" font-family="Helvetica,sans-Serif" font-size="10.00">+</text>
<text text-anchor="start" x="813.5" y="-465" font-family="Helvetica,sans-Serif" font-size="10.00">searchExportFile()</text>
<text text-anchor="start" x="800.5" y="-450" font-family="Helvetica,sans-Serif" font-size="10.00">+</text>
<text text-anchor="start" x="813.5" y="-450" font-family="Helvetica,sans-Serif" font-size="10.00">readFile()</text>
<text text-anchor="start" x="800.5" y="-435" font-family="Helvetica,sans-Serif" font-size="10.00">+</text>
<text text-anchor="start" x="813.5" y="-435" font-family="Helvetica,sans-Serif" font-size="10.00">exportFile()</text>
<text text-anchor="start" x="800.5" y="-420" font-family="Helvetica,sans-Serif" font-size="10.00">+</text>
<text text-anchor="start" x="813.5" y="-420" font-family="Helvetica,sans-Serif" font-size="10.00">showErrorDialog()</text>
<text text-anchor="start" x="800.5" y="-405" font-family="Helvetica,sans-Serif" font-size="10.00">+</text>
<text text-anchor="start" x="813.5" y="-405" font-family="Helvetica,sans-Serif" font-size="10.00">showGoodDialog()</text>
<polygon fill="#666666" stroke="#666666" points="796.5,-535 796.5,-535 908.5,-535 908.5,-535 796.5,-535"/>
<polygon fill="#666666" stroke="#666666" points="796.5,-520 796.5,-520 908.5,-520 908.5,-520 796.5,-520"/>
<polygon fill="none" stroke="#666666" points="796.5,-398 796.5,-552 908.5,-552 908.5,-398 796.5,-398"/>
</a>
</g>
</g>
<!-- Node12&#45;&gt;Node10 -->
<g id="edge13_Node000010_Node000012" class="edge">
<title>Node12&#45;&gt;Node10</title>
<g id="a_edge13_Node000010_Node000012"><a xlink:title=" ">
<path fill="none" stroke="#63b8ff" d="M828.62,-397.7C822.34,-383.73 814.69,-369.84 805.5,-358 782.04,-327.77 749.36,-301.38 719.05,-280.81"/>
<polygon fill="none" stroke="#63b8ff" points="718.88,-280.7 711.67,-280.71 708.88,-274.06 716.09,-274.05 718.88,-280.7"/>
</a>
</g>
<text text-anchor="middle" x="859.5" y="-366.5" font-family="Helvetica,sans-Serif" font-size="10.00" fill="grey"> &#45;m_fileManager</text>
</g>
<!-- Node12&#45;&gt;Node18 -->
<g id="edge21_Node000018_Node000012" class="edge">
<title>Node12&#45;&gt;Node18</title>
<g id="a_edge21_Node000018_Node000012"><a xlink:title=" ">
<path fill="none" stroke="#63b8ff" d="M913.3,-394.52C915.64,-389.74 917.73,-384.88 919.5,-380 925.73,-362.79 929.32,-343.71 931.27,-325.18"/>
<polygon fill="none" stroke="#63b8ff" points="910.07,-393.14 908.53,-403.62 916.27,-396.39 910.07,-393.14"/>
</a>
</g>
</g>
<!-- Node13 -->
<g id="Node000013" class="node">
<title>Node13</title>
<g id="a_Node000013"><a xlink:title=" ">
<polygon fill="white" stroke="transparent" points="760,-499.5 737,-499.5 737,-450.5 760,-450.5 760,-499.5"/>
<text text-anchor="start" x="742.5" y="-487" font-family="Helvetica,sans-Serif" font-size="10.00">int</text>
<text text-anchor="start" x="747" y="-472" font-family="Helvetica,sans-Serif" font-size="10.00"> </text>
<text text-anchor="start" x="747" y="-457" font-family="Helvetica,sans-Serif" font-size="10.00"> </text>
<polygon fill="#666666" stroke="#666666" points="737.5,-482 737.5,-482 760.5,-482 760.5,-482 737.5,-482"/>
<polygon fill="#666666" stroke="#666666" points="737.5,-467 737.5,-467 760.5,-467 760.5,-467 737.5,-467"/>
<polygon fill="none" stroke="#666666" points="737,-450.5 737,-499.5 760,-499.5 760,-450.5 737,-450.5"/>
</a>
</g>
</g>
<!-- Node13&#45;&gt;Node10 -->
<g id="edge14_Node000010_Node000013" class="edge">
<title>Node13&#45;&gt;Node10</title>
<g id="a_edge14_Node000010_Node000013"><a xlink:title=" ">
<path fill="none" stroke="#63b8ff" d="M747.03,-450.46C744.85,-426.39 739.5,-388.33 726.5,-358 723.09,-350.05 719.1,-342.1 714.74,-334.3"/>
<polygon fill="none" stroke="#63b8ff" points="714.63,-334.12 708.15,-330.95 708.58,-323.76 715.06,-326.92 714.63,-334.12"/>
</a>
</g>
<text text-anchor="middle" x="768" y="-366.5" font-family="Helvetica,sans-Serif" font-size="10.00" fill="grey"> &#45;keysFiltered</text>
</g>
<!-- Node14 -->
<g id="Node000014" class="node">
<title>Node14</title>
<g id="a_Node000014"><a xlink:title=" ">
<polygon fill="white" stroke="transparent" points="568.5,-499.5 496.5,-499.5 496.5,-450.5 568.5,-450.5 568.5,-499.5"/>
<text text-anchor="start" x="501.5" y="-487" font-family="Helvetica,sans-Serif" font-size="10.00">KeyIdentifier</text>
<text text-anchor="start" x="530.5" y="-472" font-family="Helvetica,sans-Serif" font-size="10.00"> </text>
<text text-anchor="start" x="530.5" y="-457" font-family="Helvetica,sans-Serif" font-size="10.00"> </text>
<polygon fill="#666666" stroke="#666666" points="496.5,-482 496.5,-482 568.5,-482 568.5,-482 496.5,-482"/>
<polygon fill="#666666" stroke="#666666" points="496.5,-467 496.5,-467 568.5,-467 568.5,-467 496.5,-467"/>
<polygon fill="none" stroke="#666666" points="496.5,-450.5 496.5,-499.5 568.5,-499.5 568.5,-450.5 496.5,-450.5"/>
</a>
</g>
</g>
<!-- Node14&#45;&gt;Node10 -->
<g id="edge15_Node000010_Node000014" class="edge">
<title>Node14&#45;&gt;Node10</title>
<g id="a_edge15_Node000010_Node000014"><a xlink:title=" ">
<path fill="none" stroke="#63b8ff" d="M533.35,-450.07C534.9,-426.01 539.26,-388.27 551.5,-358 554.14,-351.47 557.18,-344.93 560.5,-338.48"/>
<polygon fill="none" stroke="#63b8ff" points="560.62,-338.25 559.96,-331.07 566.33,-327.7 567,-334.88 560.62,-338.25"/>
</a>
</g>
<text text-anchor="middle" x="592.5" y="-366.5" font-family="Helvetica,sans-Serif" font-size="10.00" fill="grey"> &#45;lastKeyPressed</text>
</g>
<!-- Node15 -->
<g id="Node000015" class="node">
<title>Node15</title>
<g id="a_Node000015"><a xlink:href="classTranslationManager.html" target="_top" xlink:title=" ">
<polygon fill="white" stroke="transparent" points="1165,-522 1040,-522 1040,-428 1165,-428 1165,-522"/>
<text text-anchor="start" x="1054.5" y="-510" font-family="Helvetica,sans-Serif" font-size="10.00">TranslationManager</text>
<text text-anchor="start" x="1101" y="-495" font-family="Helvetica,sans-Serif" font-size="10.00"> </text>
<text text-anchor="start" x="1044.5" y="-480" font-family="Helvetica,sans-Serif" font-size="10.00">+</text>
<text text-anchor="start" x="1057.5" y="-480" font-family="Helvetica,sans-Serif" font-size="10.00">loadLanguage()</text>
<text text-anchor="start" x="1044.5" y="-465" font-family="Helvetica,sans-Serif" font-size="10.00">+</text>
<text text-anchor="start" x="1057.5" y="-465" font-family="Helvetica,sans-Serif" font-size="10.00">getString()</text>
<text text-anchor="start" x="1044.5" y="-450" font-family="Helvetica,sans-Serif" font-size="10.00">+</text>
<text text-anchor="start" x="1057.5" y="-450" font-family="Helvetica,sans-Serif" font-size="10.00">Instance()</text>
<text text-anchor="start" x="1044.5" y="-435" font-family="Helvetica,sans-Serif" font-size="10.00">#</text>
<text text-anchor="start" x="1057.5" y="-435" font-family="Helvetica,sans-Serif" font-size="10.00">TranslationManager()</text>
<polygon fill="#666666" stroke="#666666" points="1040.5,-505 1040.5,-505 1165.5,-505 1165.5,-505 1040.5,-505"/>
<polygon fill="#666666" stroke="#666666" points="1040.5,-490 1040.5,-490 1165.5,-490 1165.5,-490 1040.5,-490"/>
<polygon fill="none" stroke="#666666" points="1040,-428 1040,-522 1165,-522 1165,-428 1040,-428"/>
</a>
</g>
</g>
<!-- Node15&#45;&gt;Node1 -->
<g id="edge16_Node000001_Node000015" class="edge">
<title>Node15&#45;&gt;Node1</title>
<g id="a_edge16_Node000001_Node000015"><a xlink:title=" ">
<path fill="none" stroke="#63b8ff" d="M1115.26,-427.85C1132.65,-353.82 1153.58,-208.48 1077.5,-126 1012.53,-55.57 720.87,-42.86 587.47,-40.78"/>
<polygon fill="none" stroke="#63b8ff" points="587.45,-40.78 581.4,-44.7 575.45,-40.61 581.51,-36.7 587.45,-40.78"/>
</a>
</g>
<text text-anchor="middle" x="1167.5" y="-230.5" font-family="Helvetica,sans-Serif" font-size="10.00" fill="grey"> &#45;m_translator</text>
</g>
<!-- Node15&#45;&gt;Node15 -->
<g id="edge17_Node000015_Node000015" class="edge">
<title>Node15&#45;&gt;Node15</title>
<g id="a_edge17_Node000015_Node000015"><a xlink:title=" ">
<path fill="none" stroke="#63b8ff" d="M1165.28,-492.43C1175.76,-489.99 1183,-484.18 1183,-475 1183,-469.69 1180.58,-465.51 1176.51,-462.46"/>
<polygon fill="none" stroke="#63b8ff" points="1176.28,-462.36 1169.19,-463.63 1165.28,-457.57 1172.38,-456.3 1176.28,-462.36"/>
</a>
</g>
<text text-anchor="middle" x="1215" y="-472.5" font-family="Helvetica,sans-Serif" font-size="10.00" fill="grey"> &#45;m_instance</text>
</g>
<!-- Node15&#45;&gt;Node18 -->
<g id="edge24_Node000018_Node000015" class="edge">
<title>Node15&#45;&gt;Node18</title>
<g id="a_edge24_Node000018_Node000015"><a xlink:title=" ">
<path fill="none" stroke="#63b8ff" d="M1069.34,-427.73C1047.92,-397.84 1019.37,-358 993.73,-322.23"/>
<polygon fill="none" stroke="#63b8ff" points="993.57,-322.01 986.83,-319.46 986.58,-312.25 993.33,-314.8 993.57,-322.01"/>
</a>
</g>
<text text-anchor="middle" x="1060" y="-366.5" font-family="Helvetica,sans-Serif" font-size="10.00" fill="grey"> &#45;translator</text>
</g>
<!-- Node16 -->
<g id="Node000016" class="node">
<title>Node16</title>
<g id="a_Node000016"><a xlink:title=" ">
<polygon fill="white" stroke="transparent" points="1112,-659 999,-659 999,-599 1112,-599 1112,-659"/>
<text text-anchor="start" x="1004.5" y="-647" font-family="Helvetica,sans-Serif" font-size="10.00">map&lt; std::string, std</text>
<text text-anchor="start" x="1033" y="-636" font-family="Helvetica,sans-Serif" font-size="10.00">::string &gt;</text>
<text text-anchor="start" x="1054" y="-621" font-family="Helvetica,sans-Serif" font-size="10.00"> </text>
<text text-anchor="start" x="1054" y="-606" font-family="Helvetica,sans-Serif" font-size="10.00"> </text>
<polygon fill="#666666" stroke="#666666" points="999.5,-631 999.5,-631 1112.5,-631 1112.5,-631 999.5,-631"/>
<polygon fill="#666666" stroke="#666666" points="999.5,-616 999.5,-616 1112.5,-616 1112.5,-616 999.5,-616"/>
<polygon fill="none" stroke="#666666" points="999,-599 999,-659 1112,-659 1112,-599 999,-599"/>
</a>
</g>
</g>
<!-- Node16&#45;&gt;Node15 -->
<g id="edge18_Node000015_Node000016" class="edge">
<title>Node16&#45;&gt;Node15</title>
<g id="a_edge18_Node000015_Node000016"><a xlink:title=" ">
<path fill="none" stroke="#63b8ff" d="M1063.93,-598.75C1066.62,-589.54 1069.64,-579.33 1072.5,-570 1076.07,-558.33 1079.98,-545.87 1083.76,-533.97"/>
<polygon fill="none" stroke="#63b8ff" points="1083.83,-533.74 1081.85,-526.81 1087.48,-522.31 1089.47,-529.24 1083.83,-533.74"/>
</a>
</g>
<text text-anchor="middle" x="1100" y="-573" font-family="Helvetica,sans-Serif" font-size="10.00" fill="grey"> &#45;m_strings</text>
</g>
<!-- Node17 -->
<g id="Node000017" class="node">
<title>Node17</title>
<g id="a_Node000017"><a xlink:title=" ">
<polygon fill="white" stroke="transparent" points="1168.5,-653.5 1130.5,-653.5 1130.5,-604.5 1168.5,-604.5 1168.5,-653.5"/>
<text text-anchor="start" x="1135.5" y="-641" font-family="Helvetica,sans-Serif" font-size="10.00">string</text>
<text text-anchor="start" x="1147.5" y="-626" font-family="Helvetica,sans-Serif" font-size="10.00"> </text>
<text text-anchor="start" x="1147.5" y="-611" font-family="Helvetica,sans-Serif" font-size="10.00"> </text>
<polygon fill="#666666" stroke="#666666" points="1130.5,-636 1130.5,-636 1168.5,-636 1168.5,-636 1130.5,-636"/>
<polygon fill="#666666" stroke="#666666" points="1130.5,-621 1130.5,-621 1168.5,-621 1168.5,-621 1130.5,-621"/>
<polygon fill="none" stroke="#666666" points="1130.5,-604.5 1130.5,-653.5 1168.5,-653.5 1168.5,-604.5 1130.5,-604.5"/>
</a>
</g>
</g>
<!-- Node17&#45;&gt;Node15 -->
<g id="edge19_Node000015_Node000017" class="edge">
<title>Node17&#45;&gt;Node15</title>
<g id="a_edge19_Node000015_Node000017"><a xlink:title=" ">
<path fill="none" stroke="#63b8ff" d="M1142.16,-604.25C1136.34,-585.45 1127.97,-558.38 1120.42,-533.96"/>
<polygon fill="none" stroke="#63b8ff" points="1120.34,-533.69 1114.74,-529.14 1116.79,-522.22 1122.39,-526.77 1120.34,-533.69"/>
</a>
</g>
<text text-anchor="middle" x="1178" y="-573" font-family="Helvetica,sans-Serif" font-size="10.00" fill="grey"> &#45;m_empty_string</text>
</g>
<!-- Node18&#45;&gt;Node1 -->
<g id="edge20_Node000001_Node000018" class="edge">
<title>Node18&#45;&gt;Node1</title>
<g id="a_edge20_Node000001_Node000018"><a xlink:title=" ">
<path fill="none" stroke="#63b8ff" d="M874.24,-178.56C852.25,-159.88 825.98,-140.08 799.5,-126 731.33,-89.74 645.44,-66.35 587.09,-53.36"/>
<polygon fill="none" stroke="#63b8ff" points="586.8,-53.3 580.09,-55.93 575.08,-50.74 581.79,-48.11 586.8,-53.3"/>
</a>
</g>
<text text-anchor="middle" x="796.5" y="-100" font-family="Helvetica,sans-Serif" font-size="10.00" fill="grey"> &#45;m_fileManager</text>
</g>
<!-- Node18&#45;&gt;Node18 -->
<g id="edge22_Node000018_Node000018" class="edge">
<title>Node18&#45;&gt;Node18</title>
<g id="a_edge22_Node000018_Node000018"><a xlink:title=" ">
<path fill="none" stroke="#63b8ff" d="M986.65,-256.12C997.12,-253.28 1004.5,-245.57 1004.5,-233 1004.5,-225.54 1001.9,-219.79 997.59,-215.75"/>
<polygon fill="none" stroke="#63b8ff" points="997.22,-215.55 990.04,-216.24 986.65,-209.88 993.82,-209.19 997.22,-215.55"/>
</a>
</g>
<text text-anchor="middle" x="1036.5" y="-230.5" font-family="Helvetica,sans-Serif" font-size="10.00" fill="grey"> &#45;m_instance</text>
</g>
</g>
</svg>
