<?xml version="1.0" encoding="UTF-8" standalone="no"?>
<!DOCTYPE svg PUBLIC "-//W3C//DTD SVG 1.1//EN"
 "http://www.w3.org/Graphics/SVG/1.1/DTD/svg11.dtd">
<!-- Generated by graphviz version 2.43.0 (0)
 -->
<!-- Title: ExpandEvent Pages: 1 -->
<svg width="147pt" height="202pt"
 viewBox="0.00 0.00 147.00 202.00" xmlns="http://www.w3.org/2000/svg" xmlns:xlink="http://www.w3.org/1999/xlink">
<g id="graph0" class="graph" transform="scale(1 1) rotate(0) translate(4 198)">
<title>ExpandEvent</title>
<!-- Node1 -->
<g id="Node000001" class="node">
<title>Node1</title>
<g id="a_Node000001"><a xlink:title=" ">
<polygon fill="#999999" stroke="transparent" points="139,-94 0,-94 0,0 139,0 139,-94"/>
<text text-anchor="start" x="38" y="-82" font-family="Helvetica,sans-Serif" font-size="10.00">ExpandEvent</text>
<text text-anchor="start" x="7" y="-67" font-family="Helvetica,sans-Serif" font-size="10.00">&#45;</text>
<text text-anchor="start" x="17.5" y="-67" font-family="Helvetica,sans-Serif" font-size="10.00">m_memoryCellManager</text>
<text text-anchor="start" x="7" y="-52" font-family="Helvetica,sans-Serif" font-size="10.00">&#45;</text>
<text text-anchor="start" x="17.5" y="-52" font-family="Helvetica,sans-Serif" font-size="10.00">m_shortCutsViewModel</text>
<text text-anchor="start" x="4.5" y="-37" font-family="Helvetica,sans-Serif" font-size="10.00">+</text>
<text text-anchor="start" x="17.5" y="-37" font-family="Helvetica,sans-Serif" font-size="10.00">ExpandEvent()</text>
<text text-anchor="start" x="4.5" y="-22" font-family="Helvetica,sans-Serif" font-size="10.00">+</text>
<text text-anchor="start" x="17.5" y="-22" font-family="Helvetica,sans-Serif" font-size="10.00">~ExpandEvent()</text>
<text text-anchor="start" x="4.5" y="-7" font-family="Helvetica,sans-Serif" font-size="10.00">+</text>
<text text-anchor="start" x="17.5" y="-7" font-family="Helvetica,sans-Serif" font-size="10.00">handle()</text>
<polygon fill="#666666" stroke="#666666" points="0.5,-77 0.5,-77 139.5,-77 139.5,-77 0.5,-77"/>
<polygon fill="#666666" stroke="#666666" points="0.5,-47 0.5,-47 15.5,-47 15.5,-47 0.5,-47"/>
<polygon fill="#666666" stroke="#666666" points="15.5,-47 15.5,-47 139.5,-47 139.5,-47 15.5,-47"/>
<polygon fill="none" stroke="#666666" points="0,0 0,-94 139,-94 139,0 0,0"/>
</a>
</g>
</g>
<!-- Node2 -->
<g id="Node000002" class="node">
<title>Node2</title>
<g id="a_Node000002"><a xlink:href="classClipboardEvent.html" target="_top" xlink:title=" ">
<polygon fill="white" stroke="transparent" points="125.5,-194 13.5,-194 13.5,-130 125.5,-130 125.5,-194"/>
<text text-anchor="start" x="32" y="-182" font-family="Helvetica,sans-Serif" font-size="10.00">ClipboardEvent</text>
<text text-anchor="start" x="67.5" y="-167" font-family="Helvetica,sans-Serif" font-size="10.00"> </text>
<text text-anchor="start" x="17.5" y="-152" font-family="Helvetica,sans-Serif" font-size="10.00">+</text>
<text text-anchor="start" x="30.5" y="-152" font-family="Helvetica,sans-Serif" font-size="10.00">~ClipboardEvent()</text>
<text text-anchor="start" x="17.5" y="-137" font-family="Helvetica,sans-Serif" font-size="10.00">+</text>
<text text-anchor="start" x="30.5" y="-137" font-family="Helvetica,sans-Serif" font-size="10.00">handle()</text>
<polygon fill="#666666" stroke="#666666" points="13.5,-177 13.5,-177 125.5,-177 125.5,-177 13.5,-177"/>
<polygon fill="#666666" stroke="#666666" points="13.5,-162 13.5,-162 125.5,-162 125.5,-162 13.5,-162"/>
<polygon fill="none" stroke="#666666" points="13.5,-130 13.5,-194 125.5,-194 125.5,-130 13.5,-130"/>
</a>
</g>
</g>
<!-- Node2&#45;&gt;Node1 -->
<g id="edge1_Node000001_Node000002" class="edge">
<title>Node2&#45;&gt;Node1</title>
<g id="a_edge1_Node000001_Node000002"><a xlink:title=" ">
<path fill="none" stroke="#63b8ff" d="M69.5,-119.68C69.5,-111.43 69.5,-102.72 69.5,-94.31"/>
<polygon fill="none" stroke="#63b8ff" points="66,-119.82 69.5,-129.82 73,-119.82 66,-119.82"/>
</a>
</g>
</g>
</g>
</svg>
