<?xml version="1.0" encoding="UTF-8" standalone="no"?>
<!DOCTYPE svg PUBLIC "-//W3C//DTD SVG 1.1//EN"
 "http://www.w3.org/Graphics/SVG/1.1/DTD/svg11.dtd">
<!-- Generated by graphviz version 2.43.0 (0)
 -->
<!-- Title: KeyShortCutManager Pages: 1 -->
<svg width="343pt" height="314pt"
 viewBox="0.00 0.00 343.00 314.00" xmlns="http://www.w3.org/2000/svg" xmlns:xlink="http://www.w3.org/1999/xlink">
<g id="graph0" class="graph" transform="scale(1 1) rotate(0) translate(4 310)">
<title>KeyShortCutManager</title>
<!-- Node1 -->
<g id="Node000001" class="node">
<title>Node1</title>
<g id="a_Node000001"><a xlink:title=" ">
<polygon fill="#999999" stroke="transparent" points="248,-199 106,-199 106,0 248,0 248,-199"/>
<text text-anchor="start" x="125.5" y="-186.5" font-family="Helvetica,sans-Serif" font-size="10.00">KeyShortCutManager</text>
<text text-anchor="start" x="175" y="-171.5" font-family="Helvetica,sans-Serif" font-size="10.00"> </text>
<text text-anchor="start" x="110" y="-156.5" font-family="Helvetica,sans-Serif" font-size="10.00">+</text>
<text text-anchor="start" x="123" y="-156.5" font-family="Helvetica,sans-Serif" font-size="10.00">GetPasteShortCut()</text>
<text text-anchor="start" x="110" y="-141.5" font-family="Helvetica,sans-Serif" font-size="10.00">+</text>
<text text-anchor="start" x="123" y="-141.5" font-family="Helvetica,sans-Serif" font-size="10.00">GetCopyShortCut()</text>
<text text-anchor="start" x="110" y="-126.5" font-family="Helvetica,sans-Serif" font-size="10.00">+</text>
<text text-anchor="start" x="123" y="-126.5" font-family="Helvetica,sans-Serif" font-size="10.00">FilterShortCuts()</text>
<text text-anchor="start" x="110" y="-111.5" font-family="Helvetica,sans-Serif" font-size="10.00">+</text>
<text text-anchor="start" x="123" y="-111.5" font-family="Helvetica,sans-Serif" font-size="10.00">ModifyKeyShortCuts()</text>
<text text-anchor="start" x="110" y="-96.5" font-family="Helvetica,sans-Serif" font-size="10.00">+</text>
<text text-anchor="start" x="123" y="-96.5" font-family="Helvetica,sans-Serif" font-size="10.00">Instance()</text>
<text text-anchor="start" x="110" y="-81.5" font-family="Helvetica,sans-Serif" font-size="10.00">#</text>
<text text-anchor="start" x="123" y="-81.5" font-family="Helvetica,sans-Serif" font-size="10.00">KeyShortCutManager()</text>
<text text-anchor="start" x="112.5" y="-66.5" font-family="Helvetica,sans-Serif" font-size="10.00">&#45;</text>
<text text-anchor="start" x="123" y="-66.5" font-family="Helvetica,sans-Serif" font-size="10.00">LoadKeyShortCuts()</text>
<text text-anchor="start" x="112.5" y="-51.5" font-family="Helvetica,sans-Serif" font-size="10.00">&#45;</text>
<text text-anchor="start" x="123" y="-51.5" font-family="Helvetica,sans-Serif" font-size="10.00">SelectFile()</text>
<text text-anchor="start" x="112.5" y="-36.5" font-family="Helvetica,sans-Serif" font-size="10.00">&#45;</text>
<text text-anchor="start" x="123" y="-36.5" font-family="Helvetica,sans-Serif" font-size="10.00">GetShortCutFromString()</text>
<text text-anchor="start" x="112.5" y="-21.5" font-family="Helvetica,sans-Serif" font-size="10.00">&#45;</text>
<text text-anchor="start" x="123" y="-21.5" font-family="Helvetica,sans-Serif" font-size="10.00">GetBaseList()</text>
<text text-anchor="start" x="112.5" y="-6.5" font-family="Helvetica,sans-Serif" font-size="10.00">&#45;</text>
<text text-anchor="start" x="123" y="-6.5" font-family="Helvetica,sans-Serif" font-size="10.00">WriteShortCuts()</text>
<polygon fill="#666666" stroke="#666666" points="106,-181.5 106,-181.5 248,-181.5 248,-181.5 106,-181.5"/>
<polygon fill="#666666" stroke="#666666" points="106,-166.5 106,-166.5 248,-166.5 248,-166.5 106,-166.5"/>
<polygon fill="none" stroke="#666666" points="106,0 106,-199 248,-199 248,0 106,0"/>
</a>
</g>
</g>
<!-- Node1&#45;&gt;Node1 -->
<g id="edge1_Node000001_Node000001" class="edge">
<title>Node1&#45;&gt;Node1</title>
<g id="a_edge1_Node000001_Node000001"><a xlink:title=" ">
<path fill="none" stroke="#63b8ff" d="M248.23,-121.27C258.83,-117.88 266,-110.62 266,-99.5 266,-92.72 263.34,-87.38 258.86,-83.47"/>
<polygon fill="none" stroke="#63b8ff" points="258.78,-83.43 251.6,-84.1 248.23,-77.73 255.41,-77.06 258.78,-83.43"/>
</a>
</g>
<text text-anchor="middle" x="298" y="-97" font-family="Helvetica,sans-Serif" font-size="10.00" fill="grey"> &#45;m_instance</text>
</g>
<!-- Node2 -->
<g id="Node000002" class="node">
<title>Node2</title>
<g id="a_Node000002"><a xlink:title=" ">
<polygon fill="white" stroke="transparent" points="132,-306 0,-306 0,-257 132,-257 132,-306"/>
<text text-anchor="start" x="5" y="-293.5" font-family="Helvetica,sans-Serif" font-size="10.00">vector&lt; KeyShortCut * &gt;</text>
<text text-anchor="start" x="64" y="-278.5" font-family="Helvetica,sans-Serif" font-size="10.00"> </text>
<text text-anchor="start" x="64" y="-263.5" font-family="Helvetica,sans-Serif" font-size="10.00"> </text>
<polygon fill="#666666" stroke="#666666" points="0,-288.5 0,-288.5 132,-288.5 132,-288.5 0,-288.5"/>
<polygon fill="#666666" stroke="#666666" points="0,-273.5 0,-273.5 132,-273.5 132,-273.5 0,-273.5"/>
<polygon fill="none" stroke="#666666" points="0,-257 0,-306 132,-306 132,-257 0,-257"/>
</a>
</g>
</g>
<!-- Node2&#45;&gt;Node1 -->
<g id="edge2_Node000001_Node000002" class="edge">
<title>Node2&#45;&gt;Node1</title>
<g id="a_edge2_Node000001_Node000002"><a xlink:title=" ">
<path fill="none" stroke="#63b8ff" d="M70.84,-256.76C73.9,-244.46 78.52,-229.46 85,-217 89.22,-208.88 94.04,-200.77 99.22,-192.83"/>
<polygon fill="none" stroke="#63b8ff" points="99.23,-192.82 99.27,-185.6 105.94,-182.87 105.9,-190.08 99.23,-192.82"/>
</a>
</g>
<text text-anchor="middle" x="129" y="-231" font-family="Helvetica,sans-Serif" font-size="10.00" fill="grey"> &#45;m_shortcuts</text>
<text text-anchor="middle" x="129" y="-220" font-family="Helvetica,sans-Serif" font-size="10.00" fill="grey">&#45;m_shortcutsBase</text>
</g>
<!-- Node3 -->
<g id="Node000003" class="node">
<title>Node3</title>
<g id="a_Node000003"><a xlink:title=" ">
<polygon fill="white" stroke="transparent" points="188.5,-306 165.5,-306 165.5,-257 188.5,-257 188.5,-306"/>
<text text-anchor="start" x="171" y="-293.5" font-family="Helvetica,sans-Serif" font-size="10.00">int</text>
<text text-anchor="start" x="175.5" y="-278.5" font-family="Helvetica,sans-Serif" font-size="10.00"> </text>
<text text-anchor="start" x="175.5" y="-263.5" font-family="Helvetica,sans-Serif" font-size="10.00"> </text>
<polygon fill="#666666" stroke="#666666" points="166,-288.5 166,-288.5 189,-288.5 189,-288.5 166,-288.5"/>
<polygon fill="#666666" stroke="#666666" points="166,-273.5 166,-273.5 189,-273.5 189,-273.5 166,-273.5"/>
<polygon fill="none" stroke="#666666" points="165.5,-257 165.5,-306 188.5,-306 188.5,-257 165.5,-257"/>
</a>
</g>
</g>
<!-- Node3&#45;&gt;Node1 -->
<g id="edge3_Node000001_Node000003" class="edge">
<title>Node3&#45;&gt;Node1</title>
<g id="a_edge3_Node000001_Node000003"><a xlink:title=" ">
<path fill="none" stroke="#63b8ff" d="M177,-256.97C177,-244.58 177,-228.4 177,-211.14"/>
<polygon fill="none" stroke="#63b8ff" points="177,-211.06 173,-205.06 177,-199.06 181,-205.06 177,-211.06"/>
</a>
</g>
<text text-anchor="middle" x="210.5" y="-225.5" font-family="Helvetica,sans-Serif" font-size="10.00" fill="grey"> &#45;keysFiltered</text>
</g>
<!-- Node4 -->
<g id="Node000004" class="node">
<title>Node4</title>
<g id="a_Node000004"><a xlink:title=" ">
<polygon fill="white" stroke="transparent" points="303,-306 231,-306 231,-257 303,-257 303,-306"/>
<text text-anchor="start" x="236" y="-293.5" font-family="Helvetica,sans-Serif" font-size="10.00">KeyIdentifier</text>
<text text-anchor="start" x="265" y="-278.5" font-family="Helvetica,sans-Serif" font-size="10.00"> </text>
<text text-anchor="start" x="265" y="-263.5" font-family="Helvetica,sans-Serif" font-size="10.00"> </text>
<polygon fill="#666666" stroke="#666666" points="231,-288.5 231,-288.5 303,-288.5 303,-288.5 231,-288.5"/>
<polygon fill="#666666" stroke="#666666" points="231,-273.5 231,-273.5 303,-273.5 303,-273.5 231,-273.5"/>
<polygon fill="none" stroke="#666666" points="231,-257 231,-306 303,-306 303,-257 231,-257"/>
</a>
</g>
</g>
<!-- Node4&#45;&gt;Node1 -->
<g id="edge4_Node000001_Node000004" class="edge">
<title>Node4&#45;&gt;Node1</title>
<g id="a_edge4_Node000001_Node000004"><a xlink:title=" ">
<path fill="none" stroke="#63b8ff" d="M260.02,-256.85C256.13,-244.71 250.9,-229.83 245,-217 243.95,-214.71 242.87,-212.42 241.76,-210.11"/>
<polygon fill="none" stroke="#63b8ff" points="241.71,-210.02 235.47,-206.42 236.38,-199.27 242.63,-202.87 241.71,-210.02"/>
</a>
</g>
<text text-anchor="middle" x="294" y="-225.5" font-family="Helvetica,sans-Serif" font-size="10.00" fill="grey"> &#45;lastKeyPressed</text>
</g>
</g>
</svg>
