<?xml version="1.0" encoding="UTF-8" standalone="no"?>
<!DOCTYPE svg PUBLIC "-//W3C//DTD SVG 1.1//EN"
 "http://www.w3.org/Graphics/SVG/1.1/DTD/svg11.dtd">
<!-- Generated by graphviz version 2.43.0 (0)
 -->
<!-- Title: EditViewModel Pages: 1 -->
<svg width="277pt" height="455pt"
 viewBox="0.00 0.00 277.00 455.00" xmlns="http://www.w3.org/2000/svg" xmlns:xlink="http://www.w3.org/1999/xlink">
<g id="graph0" class="graph" transform="scale(1 1) rotate(0) translate(4 451)">
<title>EditViewModel</title>
<!-- Node1 -->
<g id="Node000001" class="node">
<title>Node1</title>
<g id="a_Node000001"><a xlink:title=" ">
<polygon fill="#999999" stroke="transparent" points="130,-154 0,-154 0,0 130,0 130,-154"/>
<text text-anchor="start" x="28.5" y="-142" font-family="Helvetica,sans-Serif" font-size="10.00">EditViewModel</text>
<text text-anchor="start" x="63" y="-127" font-family="Helvetica,sans-Serif" font-size="10.00"> </text>
<text text-anchor="start" x="4" y="-112" font-family="Helvetica,sans-Serif" font-size="10.00">+</text>
<text text-anchor="start" x="17" y="-112" font-family="Helvetica,sans-Serif" font-size="10.00">RegisterKey()</text>
<text text-anchor="start" x="4" y="-97" font-family="Helvetica,sans-Serif" font-size="10.00">+</text>
<text text-anchor="start" x="17" y="-97" font-family="Helvetica,sans-Serif" font-size="10.00">ResetNewShortCut()</text>
<text text-anchor="start" x="4" y="-82" font-family="Helvetica,sans-Serif" font-size="10.00">+</text>
<text text-anchor="start" x="17" y="-82" font-family="Helvetica,sans-Serif" font-size="10.00">GetNewShortCut()</text>
<text text-anchor="start" x="4" y="-67" font-family="Helvetica,sans-Serif" font-size="10.00">+</text>
<text text-anchor="start" x="17" y="-67" font-family="Helvetica,sans-Serif" font-size="10.00">SetSelectedShortCut()</text>
<text text-anchor="start" x="4" y="-52" font-family="Helvetica,sans-Serif" font-size="10.00">+</text>
<text text-anchor="start" x="17" y="-52" font-family="Helvetica,sans-Serif" font-size="10.00">GetSelectedShortCut()</text>
<text text-anchor="start" x="4" y="-37" font-family="Helvetica,sans-Serif" font-size="10.00">+</text>
<text text-anchor="start" x="17" y="-37" font-family="Helvetica,sans-Serif" font-size="10.00">Instance()</text>
<text text-anchor="start" x="4" y="-22" font-family="Helvetica,sans-Serif" font-size="10.00">#</text>
<text text-anchor="start" x="17" y="-22" font-family="Helvetica,sans-Serif" font-size="10.00">EditViewModel()</text>
<text text-anchor="start" x="4" y="-7" font-family="Helvetica,sans-Serif" font-size="10.00">#</text>
<text text-anchor="start" x="17" y="-7" font-family="Helvetica,sans-Serif" font-size="10.00">~EditViewModel()</text>
<polygon fill="#666666" stroke="#666666" points="0,-137 0,-137 130,-137 130,-137 0,-137"/>
<polygon fill="#666666" stroke="#666666" points="0,-122 0,-122 130,-122 130,-122 0,-122"/>
<polygon fill="none" stroke="#666666" points="0,0 0,-154 130,-154 130,0 0,0"/>
</a>
</g>
</g>
<!-- Node2 -->
<g id="Node000002" class="node">
<title>Node2</title>
<g id="a_Node000002"><a xlink:title=" ">
<polygon fill="white" stroke="transparent" points="117.5,-447 14.5,-447 14.5,-387 117.5,-387 117.5,-447"/>
<text text-anchor="start" x="20" y="-435" font-family="Helvetica,sans-Serif" font-size="10.00">vector&lt; Rml::Input</text>
<text text-anchor="start" x="27" y="-424" font-family="Helvetica,sans-Serif" font-size="10.00">::KeyIdentifier &gt;</text>
<text text-anchor="start" x="64.5" y="-409" font-family="Helvetica,sans-Serif" font-size="10.00"> </text>
<text text-anchor="start" x="64.5" y="-394" font-family="Helvetica,sans-Serif" font-size="10.00"> </text>
<polygon fill="#666666" stroke="#666666" points="15,-419 15,-419 118,-419 118,-419 15,-419"/>
<polygon fill="#666666" stroke="#666666" points="15,-404 15,-404 118,-404 118,-404 15,-404"/>
<polygon fill="none" stroke="#666666" points="14.5,-387 14.5,-447 117.5,-447 117.5,-387 14.5,-387"/>
</a>
</g>
</g>
<!-- Node2&#45;&gt;Node1 -->
<g id="edge1_Node000001_Node000002" class="edge">
<title>Node2&#45;&gt;Node1</title>
<g id="a_edge1_Node000001_Node000002"><a xlink:title=" ">
<path fill="none" stroke="#63b8ff" d="M62.21,-386.82C60.55,-372.71 58.81,-355.5 58,-340 54.97,-282.28 56.67,-217.33 59.15,-166.54"/>
<polygon fill="none" stroke="#63b8ff" points="59.17,-166.26 55.48,-160.07 59.78,-154.28 63.47,-160.48 59.17,-166.26"/>
</a>
</g>
<text text-anchor="middle" x="93" y="-268" font-family="Helvetica,sans-Serif" font-size="10.00" fill="grey"> &#45;newShortCut</text>
</g>
<!-- Node3 -->
<g id="Node000003" class="node">
<title>Node3</title>
<g id="a_Node000003"><a xlink:href="classKeyShortCut.html" target="_top" xlink:title=" ">
<polygon fill="white" stroke="transparent" points="255,-340 137,-340 137,-201 255,-201 255,-340"/>
<text text-anchor="start" x="165.5" y="-327.5" font-family="Helvetica,sans-Serif" font-size="10.00">KeyShortCut</text>
<text text-anchor="start" x="194" y="-312.5" font-family="Helvetica,sans-Serif" font-size="10.00"> </text>
<text text-anchor="start" x="141" y="-297.5" font-family="Helvetica,sans-Serif" font-size="10.00">+</text>
<text text-anchor="start" x="154" y="-297.5" font-family="Helvetica,sans-Serif" font-size="10.00">KeyShortCut()</text>
<text text-anchor="start" x="141" y="-282.5" font-family="Helvetica,sans-Serif" font-size="10.00">+</text>
<text text-anchor="start" x="154" y="-282.5" font-family="Helvetica,sans-Serif" font-size="10.00">getShortCut()</text>
<text text-anchor="start" x="141" y="-267.5" font-family="Helvetica,sans-Serif" font-size="10.00">+</text>
<text text-anchor="start" x="154" y="-267.5" font-family="Helvetica,sans-Serif" font-size="10.00">setShortCut()</text>
<text text-anchor="start" x="141" y="-252.5" font-family="Helvetica,sans-Serif" font-size="10.00">+</text>
<text text-anchor="start" x="154" y="-252.5" font-family="Helvetica,sans-Serif" font-size="10.00">getEvent()</text>
<text text-anchor="start" x="141" y="-237.5" font-family="Helvetica,sans-Serif" font-size="10.00">+</text>
<text text-anchor="start" x="154" y="-237.5" font-family="Helvetica,sans-Serif" font-size="10.00">operator==()</text>
<text text-anchor="start" x="141" y="-222.5" font-family="Helvetica,sans-Serif" font-size="10.00">+</text>
<text text-anchor="start" x="154" y="-222.5" font-family="Helvetica,sans-Serif" font-size="10.00">toString()</text>
<text text-anchor="start" x="141" y="-207.5" font-family="Helvetica,sans-Serif" font-size="10.00">+</text>
<text text-anchor="start" x="154" y="-207.5" font-family="Helvetica,sans-Serif" font-size="10.00">toStringTranslated()</text>
<polygon fill="#666666" stroke="#666666" points="137,-322.5 137,-322.5 255,-322.5 255,-322.5 137,-322.5"/>
<polygon fill="#666666" stroke="#666666" points="137,-307.5 137,-307.5 255,-307.5 255,-307.5 137,-307.5"/>
<polygon fill="none" stroke="#666666" points="137,-201 137,-340 255,-340 255,-201 137,-201"/>
</a>
</g>
</g>
<!-- Node2&#45;&gt;Node3 -->
<g id="edge3_Node000003_Node000002" class="edge">
<title>Node2&#45;&gt;Node3</title>
<g id="a_edge3_Node000003_Node000002"><a xlink:title=" ">
<path fill="none" stroke="#63b8ff" d="M72.46,-386.88C75.8,-376.85 80.75,-366.11 88,-358 99.65,-344.96 108.71,-350.08 123,-340 124.46,-338.97 125.93,-337.91 127.39,-336.82"/>
<polygon fill="none" stroke="#63b8ff" points="127.52,-336.72 129.8,-329.88 137,-329.35 134.71,-336.19 127.52,-336.72"/>
</a>
</g>
<text text-anchor="middle" x="151" y="-361" font-family="Helvetica,sans-Serif" font-size="10.00" fill="grey"> &#45;m_shortCutCombination</text>
</g>
<!-- Node3&#45;&gt;Node1 -->
<g id="edge2_Node000001_Node000003" class="edge">
<title>Node3&#45;&gt;Node1</title>
<g id="a_edge2_Node000001_Node000003"><a xlink:title=" ">
<path fill="none" stroke="#63b8ff" d="M149.08,-200.91C140.99,-189.08 132.49,-176.66 124.13,-164.44"/>
<polygon fill="none" stroke="#63b8ff" points="123.93,-164.14 117.24,-161.45 117.15,-154.24 123.84,-156.93 123.93,-164.14"/>
</a>
</g>
<text text-anchor="middle" x="188" y="-175" font-family="Helvetica,sans-Serif" font-size="10.00" fill="grey"> &#45;m_selectedShortCut</text>
</g>
<!-- Node4 -->
<g id="Node000004" class="node">
<title>Node4</title>
<g id="a_Node000004"><a xlink:title=" ">
<polygon fill="white" stroke="transparent" points="250,-441.5 212,-441.5 212,-392.5 250,-392.5 250,-441.5"/>
<text text-anchor="start" x="217" y="-429" font-family="Helvetica,sans-Serif" font-size="10.00">string</text>
<text text-anchor="start" x="229" y="-414" font-family="Helvetica,sans-Serif" font-size="10.00"> </text>
<text text-anchor="start" x="229" y="-399" font-family="Helvetica,sans-Serif" font-size="10.00"> </text>
<polygon fill="#666666" stroke="#666666" points="212,-424 212,-424 250,-424 250,-424 212,-424"/>
<polygon fill="#666666" stroke="#666666" points="212,-409 212,-409 250,-409 250,-409 212,-409"/>
<polygon fill="none" stroke="#666666" points="212,-392.5 212,-441.5 250,-441.5 250,-392.5 212,-392.5"/>
</a>
</g>
</g>
<!-- Node4&#45;&gt;Node3 -->
<g id="edge4_Node000003_Node000004" class="edge">
<title>Node4&#45;&gt;Node3</title>
<g id="a_edge4_Node000003_Node000004"><a xlink:title=" ">
<path fill="none" stroke="#63b8ff" d="M225.3,-392.46C222.56,-381.17 219.11,-366.9 215.54,-352.16"/>
<polygon fill="none" stroke="#63b8ff" points="215.48,-351.94 210.18,-347.05 212.66,-340.28 217.96,-345.17 215.48,-351.94"/>
</a>
</g>
<text text-anchor="middle" x="244" y="-361" font-family="Helvetica,sans-Serif" font-size="10.00" fill="grey"> &#45;m_event</text>
</g>
</g>
</svg>
