<?xml version="1.0" encoding="UTF-8" standalone="no"?>
<!DOCTYPE svg PUBLIC "-//W3C//DTD SVG 1.1//EN"
 "http://www.w3.org/Graphics/SVG/1.1/DTD/svg11.dtd">
<!-- Generated by graphviz version 2.43.0 (0)
 -->
<!-- Title: ResetShortCutEvent Pages: 1 -->
<svg width="347pt" height="581pt"
 viewBox="0.00 0.00 347.00 581.00" xmlns="http://www.w3.org/2000/svg" xmlns:xlink="http://www.w3.org/1999/xlink">
<g id="graph0" class="graph" transform="scale(1 1) rotate(0) translate(4 577)">
<title>ResetShortCutEvent</title>
<!-- Node1 -->
<g id="Node000001" class="node">
<title>Node1</title>
<g id="a_Node000001"><a xlink:title=" ">
<polygon fill="#999999" stroke="transparent" points="166.5,-79 31.5,-79 31.5,0 166.5,0 166.5,-79"/>
<text text-anchor="start" x="50.5" y="-66.5" font-family="Helvetica,sans-Serif" font-size="10.00">ResetShortCutEvent</text>
<text text-anchor="start" x="97.5" y="-51.5" font-family="Helvetica,sans-Serif" font-size="10.00"> </text>
<text text-anchor="start" x="36" y="-36.5" font-family="Helvetica,sans-Serif" font-size="10.00">+</text>
<text text-anchor="start" x="49" y="-36.5" font-family="Helvetica,sans-Serif" font-size="10.00">ResetShortCutEvent()</text>
<text text-anchor="start" x="36" y="-21.5" font-family="Helvetica,sans-Serif" font-size="10.00">+</text>
<text text-anchor="start" x="49" y="-21.5" font-family="Helvetica,sans-Serif" font-size="10.00">~ResetShortCutEvent()</text>
<text text-anchor="start" x="36" y="-6.5" font-family="Helvetica,sans-Serif" font-size="10.00">+</text>
<text text-anchor="start" x="49" y="-6.5" font-family="Helvetica,sans-Serif" font-size="10.00">handle()</text>
<polygon fill="#666666" stroke="#666666" points="32,-61.5 32,-61.5 167,-61.5 167,-61.5 32,-61.5"/>
<polygon fill="#666666" stroke="#666666" points="32,-46.5 32,-46.5 167,-46.5 167,-46.5 32,-46.5"/>
<polygon fill="none" stroke="#666666" points="31.5,0 31.5,-79 166.5,-79 166.5,0 31.5,0"/>
</a>
</g>
</g>
<!-- Node2 -->
<g id="Node000002" class="node">
<title>Node2</title>
<g id="a_Node000002"><a xlink:href="classClipboardEvent.html" target="_top" xlink:title=" ">
<polygon fill="white" stroke="transparent" points="112,-235 0,-235 0,-171 112,-171 112,-235"/>
<text text-anchor="start" x="18.5" y="-223" font-family="Helvetica,sans-Serif" font-size="10.00">ClipboardEvent</text>
<text text-anchor="start" x="54" y="-208" font-family="Helvetica,sans-Serif" font-size="10.00"> </text>
<text text-anchor="start" x="4" y="-193" font-family="Helvetica,sans-Serif" font-size="10.00">+</text>
<text text-anchor="start" x="17" y="-193" font-family="Helvetica,sans-Serif" font-size="10.00">~ClipboardEvent()</text>
<text text-anchor="start" x="4" y="-178" font-family="Helvetica,sans-Serif" font-size="10.00">+</text>
<text text-anchor="start" x="17" y="-178" font-family="Helvetica,sans-Serif" font-size="10.00">handle()</text>
<polygon fill="#666666" stroke="#666666" points="0,-218 0,-218 112,-218 112,-218 0,-218"/>
<polygon fill="#666666" stroke="#666666" points="0,-203 0,-203 112,-203 112,-203 0,-203"/>
<polygon fill="none" stroke="#666666" points="0,-171 0,-235 112,-235 112,-171 0,-171"/>
</a>
</g>
</g>
<!-- Node2&#45;&gt;Node1 -->
<g id="edge1_Node000001_Node000002" class="edge">
<title>Node2&#45;&gt;Node1</title>
<g id="a_edge1_Node000001_Node000002"><a xlink:title=" ">
<path fill="none" stroke="#63b8ff" d="M66.94,-160.91C73.62,-135.81 82.12,-103.91 88.68,-79.25"/>
<polygon fill="none" stroke="#63b8ff" points="63.48,-160.3 64.29,-170.86 70.25,-162.1 63.48,-160.3"/>
</a>
</g>
</g>
<!-- Node3 -->
<g id="Node000003" class="node">
<title>Node3</title>
<g id="a_Node000003"><a xlink:href="classEditViewModel.html" target="_top" xlink:title=" ">
<polygon fill="white" stroke="transparent" points="260,-280 130,-280 130,-126 260,-126 260,-280"/>
<text text-anchor="start" x="158.5" y="-268" font-family="Helvetica,sans-Serif" font-size="10.00">EditViewModel</text>
<text text-anchor="start" x="193" y="-253" font-family="Helvetica,sans-Serif" font-size="10.00"> </text>
<text text-anchor="start" x="134" y="-238" font-family="Helvetica,sans-Serif" font-size="10.00">+</text>
<text text-anchor="start" x="147" y="-238" font-family="Helvetica,sans-Serif" font-size="10.00">RegisterKey()</text>
<text text-anchor="start" x="134" y="-223" font-family="Helvetica,sans-Serif" font-size="10.00">+</text>
<text text-anchor="start" x="147" y="-223" font-family="Helvetica,sans-Serif" font-size="10.00">ResetNewShortCut()</text>
<text text-anchor="start" x="134" y="-208" font-family="Helvetica,sans-Serif" font-size="10.00">+</text>
<text text-anchor="start" x="147" y="-208" font-family="Helvetica,sans-Serif" font-size="10.00">GetNewShortCut()</text>
<text text-anchor="start" x="134" y="-193" font-family="Helvetica,sans-Serif" font-size="10.00">+</text>
<text text-anchor="start" x="147" y="-193" font-family="Helvetica,sans-Serif" font-size="10.00">SetSelectedShortCut()</text>
<text text-anchor="start" x="134" y="-178" font-family="Helvetica,sans-Serif" font-size="10.00">+</text>
<text text-anchor="start" x="147" y="-178" font-family="Helvetica,sans-Serif" font-size="10.00">GetSelectedShortCut()</text>
<text text-anchor="start" x="134" y="-163" font-family="Helvetica,sans-Serif" font-size="10.00">+</text>
<text text-anchor="start" x="147" y="-163" font-family="Helvetica,sans-Serif" font-size="10.00">Instance()</text>
<text text-anchor="start" x="134" y="-148" font-family="Helvetica,sans-Serif" font-size="10.00">#</text>
<text text-anchor="start" x="147" y="-148" font-family="Helvetica,sans-Serif" font-size="10.00">EditViewModel()</text>
<text text-anchor="start" x="134" y="-133" font-family="Helvetica,sans-Serif" font-size="10.00">#</text>
<text text-anchor="start" x="147" y="-133" font-family="Helvetica,sans-Serif" font-size="10.00">~EditViewModel()</text>
<polygon fill="#666666" stroke="#666666" points="130,-263 130,-263 260,-263 260,-263 130,-263"/>
<polygon fill="#666666" stroke="#666666" points="130,-248 130,-248 260,-248 260,-248 130,-248"/>
<polygon fill="none" stroke="#666666" points="130,-126 130,-280 260,-280 260,-126 130,-126"/>
</a>
</g>
</g>
<!-- Node3&#45;&gt;Node1 -->
<g id="edge2_Node000001_Node000003" class="edge">
<title>Node3&#45;&gt;Node1</title>
<g id="a_edge2_Node000001_Node000003"><a xlink:title=" ">
<path fill="none" stroke="#63b8ff" d="M149.81,-125.98C142.51,-113.7 135.13,-101.28 128.34,-89.85"/>
<polygon fill="none" stroke="#63b8ff" points="128.16,-89.55 121.65,-86.44 122.03,-79.24 128.53,-82.35 128.16,-89.55"/>
</a>
</g>
<text text-anchor="middle" x="185.5" y="-100" font-family="Helvetica,sans-Serif" font-size="10.00" fill="grey"> &#45;m_editViewModel</text>
</g>
<!-- Node4 -->
<g id="Node000004" class="node">
<title>Node4</title>
<g id="a_Node000004"><a xlink:title=" ">
<polygon fill="white" stroke="transparent" points="188.5,-573 85.5,-573 85.5,-513 188.5,-513 188.5,-573"/>
<text text-anchor="start" x="91" y="-561" font-family="Helvetica,sans-Serif" font-size="10.00">vector&lt; Rml::Input</text>
<text text-anchor="start" x="98" y="-550" font-family="Helvetica,sans-Serif" font-size="10.00">::KeyIdentifier &gt;</text>
<text text-anchor="start" x="135.5" y="-535" font-family="Helvetica,sans-Serif" font-size="10.00"> </text>
<text text-anchor="start" x="135.5" y="-520" font-family="Helvetica,sans-Serif" font-size="10.00"> </text>
<polygon fill="#666666" stroke="#666666" points="86,-545 86,-545 189,-545 189,-545 86,-545"/>
<polygon fill="#666666" stroke="#666666" points="86,-530 86,-530 189,-530 189,-530 86,-530"/>
<polygon fill="none" stroke="#666666" points="85.5,-513 85.5,-573 188.5,-573 188.5,-513 85.5,-513"/>
</a>
</g>
</g>
<!-- Node4&#45;&gt;Node3 -->
<g id="edge3_Node000003_Node000004" class="edge">
<title>Node4&#45;&gt;Node3</title>
<g id="a_edge3_Node000003_Node000004"><a xlink:title=" ">
<path fill="none" stroke="#63b8ff" d="M131.11,-512.96C123.74,-471.15 113.91,-391.88 130,-327 132.97,-315.01 137.35,-302.9 142.46,-291.2"/>
<polygon fill="none" stroke="#63b8ff" points="142.54,-291.02 141.41,-283.9 147.56,-280.12 148.68,-287.24 142.54,-291.02"/>
</a>
</g>
<text text-anchor="middle" x="165" y="-394" font-family="Helvetica,sans-Serif" font-size="10.00" fill="grey"> &#45;newShortCut</text>
</g>
<!-- Node5 -->
<g id="Node000005" class="node">
<title>Node5</title>
<g id="a_Node000005"><a xlink:href="classKeyShortCut.html" target="_top" xlink:title=" ">
<polygon fill="#fff0f0" stroke="transparent" points="327,-466 209,-466 209,-327 327,-327 327,-466"/>
<text text-anchor="start" x="237.5" y="-453.5" font-family="Helvetica,sans-Serif" font-size="10.00">KeyShortCut</text>
<text text-anchor="start" x="266" y="-438.5" font-family="Helvetica,sans-Serif" font-size="10.00"> </text>
<text text-anchor="start" x="213" y="-423.5" font-family="Helvetica,sans-Serif" font-size="10.00">+</text>
<text text-anchor="start" x="226" y="-423.5" font-family="Helvetica,sans-Serif" font-size="10.00">KeyShortCut()</text>
<text text-anchor="start" x="213" y="-408.5" font-family="Helvetica,sans-Serif" font-size="10.00">+</text>
<text text-anchor="start" x="226" y="-408.5" font-family="Helvetica,sans-Serif" font-size="10.00">getShortCut()</text>
<text text-anchor="start" x="213" y="-393.5" font-family="Helvetica,sans-Serif" font-size="10.00">+</text>
<text text-anchor="start" x="226" y="-393.5" font-family="Helvetica,sans-Serif" font-size="10.00">setShortCut()</text>
<text text-anchor="start" x="213" y="-378.5" font-family="Helvetica,sans-Serif" font-size="10.00">+</text>
<text text-anchor="start" x="226" y="-378.5" font-family="Helvetica,sans-Serif" font-size="10.00">getEvent()</text>
<text text-anchor="start" x="213" y="-363.5" font-family="Helvetica,sans-Serif" font-size="10.00">+</text>
<text text-anchor="start" x="226" y="-363.5" font-family="Helvetica,sans-Serif" font-size="10.00">operator==()</text>
<text text-anchor="start" x="213" y="-348.5" font-family="Helvetica,sans-Serif" font-size="10.00">+</text>
<text text-anchor="start" x="226" y="-348.5" font-family="Helvetica,sans-Serif" font-size="10.00">toString()</text>
<text text-anchor="start" x="213" y="-333.5" font-family="Helvetica,sans-Serif" font-size="10.00">+</text>
<text text-anchor="start" x="226" y="-333.5" font-family="Helvetica,sans-Serif" font-size="10.00">toStringTranslated()</text>
<polygon fill="red" stroke="red" points="209,-448.5 209,-448.5 327,-448.5 327,-448.5 209,-448.5"/>
<polygon fill="red" stroke="red" points="209,-433.5 209,-433.5 327,-433.5 327,-433.5 209,-433.5"/>
<polygon fill="none" stroke="red" points="209,-327 209,-466 327,-466 327,-327 209,-327"/>
</a>
</g>
</g>
<!-- Node4&#45;&gt;Node5 -->
<g id="edge5_Node000005_Node000004" class="edge">
<title>Node4&#45;&gt;Node5</title>
<g id="a_edge5_Node000005_Node000004"><a xlink:title=" ">
<path fill="none" stroke="#63b8ff" d="M163.51,-512.76C174.34,-500.81 187.42,-486.39 200.59,-471.85"/>
<polygon fill="none" stroke="#63b8ff" points="200.73,-471.7 201.8,-464.57 208.79,-462.81 207.72,-469.94 200.73,-471.7"/>
</a>
</g>
<text text-anchor="middle" x="249" y="-487" font-family="Helvetica,sans-Serif" font-size="10.00" fill="grey"> &#45;m_shortCutCombination</text>
</g>
<!-- Node5&#45;&gt;Node3 -->
<g id="edge4_Node000003_Node000005" class="edge">
<title>Node5&#45;&gt;Node3</title>
<g id="a_edge4_Node000003_Node000005"><a xlink:title=" ">
<path fill="none" stroke="#63b8ff" d="M241.85,-326.91C237.48,-315.44 232.89,-303.4 228.37,-291.54"/>
<polygon fill="none" stroke="#63b8ff" points="228.34,-291.45 222.46,-287.27 224.06,-280.24 229.94,-284.42 228.34,-291.45"/>
</a>
</g>
<text text-anchor="middle" x="286" y="-301" font-family="Helvetica,sans-Serif" font-size="10.00" fill="grey"> &#45;m_selectedShortCut</text>
</g>
</g>
</svg>
