<?xml version="1.0" encoding="UTF-8" standalone="no"?>
<!DOCTYPE svg PUBLIC "-//W3C//DTD SVG 1.1//EN"
 "http://www.w3.org/Graphics/SVG/1.1/DTD/svg11.dtd">
<!-- Generated by graphviz version 2.43.0 (0)
 -->
<!-- Title: ExportFileEvent Pages: 1 -->
<svg width="662pt" height="549pt"
 viewBox="0.00 0.00 661.50 549.00" xmlns="http://www.w3.org/2000/svg" xmlns:xlink="http://www.w3.org/1999/xlink">
<g id="graph0" class="graph" transform="scale(1 1) rotate(0) translate(4 545)">
<title>ExportFileEvent</title>
<!-- Node1 -->
<g id="Node000001" class="node">
<title>Node1</title>
<g id="a_Node000001"><a xlink:title=" ">
<polygon fill="#999999" stroke="transparent" points="335,-79 221,-79 221,0 335,0 335,-79"/>
<text text-anchor="start" x="239.5" y="-66.5" font-family="Helvetica,sans-Serif" font-size="10.00">ExportFileEvent</text>
<text text-anchor="start" x="276" y="-51.5" font-family="Helvetica,sans-Serif" font-size="10.00"> </text>
<text text-anchor="start" x="225" y="-36.5" font-family="Helvetica,sans-Serif" font-size="10.00">+</text>
<text text-anchor="start" x="238" y="-36.5" font-family="Helvetica,sans-Serif" font-size="10.00">ExportFileEvent()</text>
<text text-anchor="start" x="225" y="-21.5" font-family="Helvetica,sans-Serif" font-size="10.00">+</text>
<text text-anchor="start" x="238" y="-21.5" font-family="Helvetica,sans-Serif" font-size="10.00">~ExportFileEvent()</text>
<text text-anchor="start" x="225" y="-6.5" font-family="Helvetica,sans-Serif" font-size="10.00">+</text>
<text text-anchor="start" x="238" y="-6.5" font-family="Helvetica,sans-Serif" font-size="10.00">handle()</text>
<polygon fill="#666666" stroke="#666666" points="221,-61.5 221,-61.5 335,-61.5 335,-61.5 221,-61.5"/>
<polygon fill="#666666" stroke="#666666" points="221,-46.5 221,-46.5 335,-46.5 335,-46.5 221,-46.5"/>
<polygon fill="none" stroke="#666666" points="221,0 221,-79 335,-79 335,0 221,0"/>
</a>
</g>
</g>
<!-- Node2 -->
<g id="Node000002" class="node">
<title>Node2</title>
<g id="a_Node000002"><a xlink:href="classClipboardEvent.html" target="_top" xlink:title=" ">
<polygon fill="white" stroke="transparent" points="112,-265 0,-265 0,-201 112,-201 112,-265"/>
<text text-anchor="start" x="18.5" y="-253" font-family="Helvetica,sans-Serif" font-size="10.00">ClipboardEvent</text>
<text text-anchor="start" x="54" y="-238" font-family="Helvetica,sans-Serif" font-size="10.00"> </text>
<text text-anchor="start" x="4" y="-223" font-family="Helvetica,sans-Serif" font-size="10.00">+</text>
<text text-anchor="start" x="17" y="-223" font-family="Helvetica,sans-Serif" font-size="10.00">~ClipboardEvent()</text>
<text text-anchor="start" x="4" y="-208" font-family="Helvetica,sans-Serif" font-size="10.00">+</text>
<text text-anchor="start" x="17" y="-208" font-family="Helvetica,sans-Serif" font-size="10.00">handle()</text>
<polygon fill="#666666" stroke="#666666" points="0,-248 0,-248 112,-248 112,-248 0,-248"/>
<polygon fill="#666666" stroke="#666666" points="0,-233 0,-233 112,-233 112,-233 0,-233"/>
<polygon fill="none" stroke="#666666" points="0,-201 0,-265 112,-265 112,-201 0,-201"/>
</a>
</g>
</g>
<!-- Node2&#45;&gt;Node1 -->
<g id="edge1_Node000001_Node000002" class="edge">
<title>Node2&#45;&gt;Node1</title>
<g id="a_edge1_Node000001_Node000002"><a xlink:title=" ">
<path fill="none" stroke="#63b8ff" d="M74.39,-191.51C85.59,-170.11 101.5,-144.52 121,-126 149.69,-98.75 188.75,-77.43 220.73,-62.9"/>
<polygon fill="none" stroke="#63b8ff" points="71.13,-190.2 69.73,-200.7 77.38,-193.36 71.13,-190.2"/>
</a>
</g>
</g>
<!-- Node3 -->
<g id="Node000003" class="node">
<title>Node3</title>
<g id="a_Node000003"><a xlink:href="classMemoryCellManager.html" target="_top" xlink:title=" ">
<polygon fill="white" stroke="transparent" points="278,-340 130,-340 130,-126 278,-126 278,-340"/>
<text text-anchor="start" x="152.5" y="-328" font-family="Helvetica,sans-Serif" font-size="10.00">MemoryCellManager</text>
<text text-anchor="start" x="202" y="-313" font-family="Helvetica,sans-Serif" font-size="10.00"> </text>
<text text-anchor="start" x="134" y="-298" font-family="Helvetica,sans-Serif" font-size="10.00">+</text>
<text text-anchor="start" x="147" y="-298" font-family="Helvetica,sans-Serif" font-size="10.00">getMemoryCellCount()</text>
<text text-anchor="start" x="134" y="-283" font-family="Helvetica,sans-Serif" font-size="10.00">+</text>
<text text-anchor="start" x="147" y="-283" font-family="Helvetica,sans-Serif" font-size="10.00">getMemoryCell()</text>
<text text-anchor="start" x="134" y="-268" font-family="Helvetica,sans-Serif" font-size="10.00">+</text>
<text text-anchor="start" x="147" y="-268" font-family="Helvetica,sans-Serif" font-size="10.00">addMemoryCell()</text>
<text text-anchor="start" x="134" y="-253" font-family="Helvetica,sans-Serif" font-size="10.00">+</text>
<text text-anchor="start" x="147" y="-253" font-family="Helvetica,sans-Serif" font-size="10.00">initialize()</text>
<text text-anchor="start" x="134" y="-238" font-family="Helvetica,sans-Serif" font-size="10.00">+</text>
<text text-anchor="start" x="147" y="-238" font-family="Helvetica,sans-Serif" font-size="10.00">cleanup()</text>
<text text-anchor="start" x="134" y="-223" font-family="Helvetica,sans-Serif" font-size="10.00">+</text>
<text text-anchor="start" x="147" y="-223" font-family="Helvetica,sans-Serif" font-size="10.00">setSelectedCell()</text>
<text text-anchor="start" x="134" y="-208" font-family="Helvetica,sans-Serif" font-size="10.00">+</text>
<text text-anchor="start" x="147" y="-208" font-family="Helvetica,sans-Serif" font-size="10.00">getSelectedCell()</text>
<text text-anchor="start" x="134" y="-193" font-family="Helvetica,sans-Serif" font-size="10.00">+</text>
<text text-anchor="start" x="147" y="-193" font-family="Helvetica,sans-Serif" font-size="10.00">loadCells()</text>
<text text-anchor="start" x="134" y="-178" font-family="Helvetica,sans-Serif" font-size="10.00">+</text>
<text text-anchor="start" x="147" y="-178" font-family="Helvetica,sans-Serif" font-size="10.00">getContents()</text>
<text text-anchor="start" x="134" y="-163" font-family="Helvetica,sans-Serif" font-size="10.00">+</text>
<text text-anchor="start" x="147" y="-163" font-family="Helvetica,sans-Serif" font-size="10.00">moveContentsOneDown()</text>
<text text-anchor="start" x="134" y="-148" font-family="Helvetica,sans-Serif" font-size="10.00">+</text>
<text text-anchor="start" x="147" y="-148" font-family="Helvetica,sans-Serif" font-size="10.00">Instance()</text>
<text text-anchor="start" x="134" y="-133" font-family="Helvetica,sans-Serif" font-size="10.00">#</text>
<text text-anchor="start" x="147" y="-133" font-family="Helvetica,sans-Serif" font-size="10.00">MemoryCellManager()</text>
<polygon fill="#666666" stroke="#666666" points="130,-323 130,-323 278,-323 278,-323 130,-323"/>
<polygon fill="#666666" stroke="#666666" points="130,-308 130,-308 278,-308 278,-308 130,-308"/>
<polygon fill="none" stroke="#666666" points="130,-126 130,-340 278,-340 278,-126 130,-126"/>
</a>
</g>
</g>
<!-- Node3&#45;&gt;Node1 -->
<g id="edge2_Node000001_Node000003" class="edge">
<title>Node3&#45;&gt;Node1</title>
<g id="a_edge2_Node000001_Node000003"><a xlink:title=" ">
<path fill="none" stroke="#63b8ff" d="M195.64,-125.9C197.53,-115.84 200.53,-106.03 205,-97 207.14,-92.68 209.78,-88.6 212.78,-84.75"/>
<polygon fill="none" stroke="#63b8ff" points="212.89,-84.63 213.91,-77.49 220.89,-75.69 219.87,-82.83 212.89,-84.63"/>
</a>
</g>
<text text-anchor="middle" x="267.5" y="-100" font-family="Helvetica,sans-Serif" font-size="10.00" fill="grey"> &#45;m_memoryCellManager</text>
</g>
<!-- Node4 -->
<g id="Node000004" class="node">
<title>Node4</title>
<g id="a_Node000004"><a xlink:title=" ">
<polygon fill="white" stroke="transparent" points="166.5,-494 13.5,-494 13.5,-434 166.5,-434 166.5,-494"/>
<text text-anchor="start" x="19" y="-482" font-family="Helvetica,sans-Serif" font-size="10.00">vector&lt; std::unique</text>
<text text-anchor="start" x="19" y="-471" font-family="Helvetica,sans-Serif" font-size="10.00">_ptr&lt; ClipboardInterface &gt; &gt;</text>
<text text-anchor="start" x="88.5" y="-456" font-family="Helvetica,sans-Serif" font-size="10.00"> </text>
<text text-anchor="start" x="88.5" y="-441" font-family="Helvetica,sans-Serif" font-size="10.00"> </text>
<polygon fill="#666666" stroke="#666666" points="14,-466 14,-466 167,-466 167,-466 14,-466"/>
<polygon fill="#666666" stroke="#666666" points="14,-451 14,-451 167,-451 167,-451 14,-451"/>
<polygon fill="none" stroke="#666666" points="13.5,-434 13.5,-494 166.5,-494 166.5,-434 13.5,-434"/>
</a>
</g>
</g>
<!-- Node4&#45;&gt;Node3 -->
<g id="edge3_Node000003_Node000004" class="edge">
<title>Node4&#45;&gt;Node3</title>
<g id="a_edge3_Node000003_Node000004"><a xlink:title=" ">
<path fill="none" stroke="#63b8ff" d="M92.69,-433.89C95.5,-412.21 101.08,-382.29 112,-358 115.4,-350.44 119.32,-342.89 123.58,-335.47"/>
<polygon fill="none" stroke="#63b8ff" points="123.65,-335.36 123.31,-328.16 129.83,-325.08 130.17,-332.28 123.65,-335.36"/>
</a>
</g>
<text text-anchor="middle" x="156" y="-361" font-family="Helvetica,sans-Serif" font-size="10.00" fill="grey"> &#45;m_memoryCells</text>
</g>
<!-- Node5 -->
<g id="Node000005" class="node">
<title>Node5</title>
<g id="a_Node000005"><a xlink:title=" ">
<polygon fill="white" stroke="transparent" points="223.5,-488.5 184.5,-488.5 184.5,-439.5 223.5,-439.5 223.5,-488.5"/>
<text text-anchor="start" x="190" y="-476" font-family="Helvetica,sans-Serif" font-size="10.00">size_t</text>
<text text-anchor="start" x="202.5" y="-461" font-family="Helvetica,sans-Serif" font-size="10.00"> </text>
<text text-anchor="start" x="202.5" y="-446" font-family="Helvetica,sans-Serif" font-size="10.00"> </text>
<polygon fill="#666666" stroke="#666666" points="185,-471 185,-471 224,-471 224,-471 185,-471"/>
<polygon fill="#666666" stroke="#666666" points="185,-456 185,-456 224,-456 224,-456 185,-456"/>
<polygon fill="none" stroke="#666666" points="184.5,-439.5 184.5,-488.5 223.5,-488.5 223.5,-439.5 184.5,-439.5"/>
</a>
</g>
</g>
<!-- Node5&#45;&gt;Node3 -->
<g id="edge4_Node000003_Node000005" class="edge">
<title>Node5&#45;&gt;Node3</title>
<g id="a_edge4_Node000003_Node000005"><a xlink:title=" ">
<path fill="none" stroke="#63b8ff" d="M204,-439.36C204,-418.19 204,-385.45 204,-352.29"/>
<polygon fill="none" stroke="#63b8ff" points="204,-352.08 200,-346.08 204,-340.08 208,-346.08 204,-352.08"/>
</a>
</g>
<text text-anchor="middle" x="237.5" y="-361" font-family="Helvetica,sans-Serif" font-size="10.00" fill="grey"> &#45;selectedCell</text>
</g>
<!-- Node6 -->
<g id="Node000006" class="node">
<title>Node6</title>
<g id="a_Node000006"><a xlink:href="classFileManager.html" target="_top" xlink:title=" ">
<polygon fill="white" stroke="transparent" points="408,-325 296,-325 296,-141 408,-141 408,-325"/>
<text text-anchor="start" x="321.5" y="-313" font-family="Helvetica,sans-Serif" font-size="10.00">FileManager</text>
<text text-anchor="start" x="350" y="-298" font-family="Helvetica,sans-Serif" font-size="10.00"> </text>
<text text-anchor="start" x="300" y="-283" font-family="Helvetica,sans-Serif" font-size="10.00">+</text>
<text text-anchor="start" x="313" y="-283" font-family="Helvetica,sans-Serif" font-size="10.00">~FileManager()</text>
<text text-anchor="start" x="300" y="-268" font-family="Helvetica,sans-Serif" font-size="10.00">+</text>
<text text-anchor="start" x="313" y="-268" font-family="Helvetica,sans-Serif" font-size="10.00">getLastFile()</text>
<text text-anchor="start" x="300" y="-253" font-family="Helvetica,sans-Serif" font-size="10.00">+</text>
<text text-anchor="start" x="313" y="-253" font-family="Helvetica,sans-Serif" font-size="10.00">searchImportFile()</text>
<text text-anchor="start" x="300" y="-238" font-family="Helvetica,sans-Serif" font-size="10.00">+</text>
<text text-anchor="start" x="313" y="-238" font-family="Helvetica,sans-Serif" font-size="10.00">searchExportFile()</text>
<text text-anchor="start" x="300" y="-223" font-family="Helvetica,sans-Serif" font-size="10.00">+</text>
<text text-anchor="start" x="313" y="-223" font-family="Helvetica,sans-Serif" font-size="10.00">readFile()</text>
<text text-anchor="start" x="300" y="-208" font-family="Helvetica,sans-Serif" font-size="10.00">+</text>
<text text-anchor="start" x="313" y="-208" font-family="Helvetica,sans-Serif" font-size="10.00">exportFile()</text>
<text text-anchor="start" x="300" y="-193" font-family="Helvetica,sans-Serif" font-size="10.00">+</text>
<text text-anchor="start" x="313" y="-193" font-family="Helvetica,sans-Serif" font-size="10.00">showErrorDialog()</text>
<text text-anchor="start" x="300" y="-178" font-family="Helvetica,sans-Serif" font-size="10.00">+</text>
<text text-anchor="start" x="313" y="-178" font-family="Helvetica,sans-Serif" font-size="10.00">showGoodDialog()</text>
<text text-anchor="start" x="300" y="-163" font-family="Helvetica,sans-Serif" font-size="10.00">+</text>
<text text-anchor="start" x="313" y="-163" font-family="Helvetica,sans-Serif" font-size="10.00">Instance()</text>
<text text-anchor="start" x="300" y="-148" font-family="Helvetica,sans-Serif" font-size="10.00">#</text>
<text text-anchor="start" x="313" y="-148" font-family="Helvetica,sans-Serif" font-size="10.00">FileManager()</text>
<polygon fill="#666666" stroke="#666666" points="296,-308 296,-308 408,-308 408,-308 296,-308"/>
<polygon fill="#666666" stroke="#666666" points="296,-293 296,-293 408,-293 408,-293 296,-293"/>
<polygon fill="none" stroke="#666666" points="296,-141 296,-325 408,-325 408,-141 296,-141"/>
</a>
</g>
</g>
<!-- Node6&#45;&gt;Node1 -->
<g id="edge5_Node000001_Node000006" class="edge">
<title>Node6&#45;&gt;Node1</title>
<g id="a_edge5_Node000001_Node000006"><a xlink:title=" ">
<path fill="none" stroke="#63b8ff" d="M344.58,-140.8C341.27,-125.7 336.6,-110.56 330,-97 328.67,-94.27 327.17,-91.58 325.54,-88.95"/>
<polygon fill="none" stroke="#63b8ff" points="325.52,-88.92 318.81,-86.29 318.66,-79.08 325.37,-81.71 325.52,-88.92"/>
</a>
</g>
<text text-anchor="middle" x="375" y="-100" font-family="Helvetica,sans-Serif" font-size="10.00" fill="grey"> &#45;m_fileManager</text>
</g>
<!-- Node6&#45;&gt;Node6 -->
<g id="edge7_Node000006_Node000006" class="edge">
<title>Node6&#45;&gt;Node6</title>
<g id="a_edge7_Node000006_Node000006"><a xlink:title=" ">
<path fill="none" stroke="#63b8ff" d="M408.15,-256.12C418.62,-253.28 426,-245.57 426,-233 426,-225.54 423.4,-219.79 419.09,-215.75"/>
<polygon fill="none" stroke="#63b8ff" points="418.72,-215.55 411.54,-216.24 408.15,-209.88 415.32,-209.19 418.72,-215.55"/>
</a>
</g>
<text text-anchor="middle" x="458" y="-230.5" font-family="Helvetica,sans-Serif" font-size="10.00" fill="grey"> &#45;m_instance</text>
</g>
<!-- Node7 -->
<g id="Node000007" class="node">
<title>Node7</title>
<g id="a_Node000007"><a xlink:href="classIFileManager.html" target="_top" xlink:title=" ">
<polygon fill="white" stroke="transparent" points="354,-541 242,-541 242,-387 354,-387 354,-541"/>
<text text-anchor="start" x="266" y="-529" font-family="Helvetica,sans-Serif" font-size="10.00">IFileManager</text>
<text text-anchor="start" x="296" y="-514" font-family="Helvetica,sans-Serif" font-size="10.00"> </text>
<text text-anchor="start" x="246" y="-499" font-family="Helvetica,sans-Serif" font-size="10.00">+</text>
<text text-anchor="start" x="259" y="-499" font-family="Helvetica,sans-Serif" font-size="10.00">~IFileManager()</text>
<text text-anchor="start" x="246" y="-484" font-family="Helvetica,sans-Serif" font-size="10.00">+</text>
<text text-anchor="start" x="259" y="-484" font-family="Helvetica,sans-Serif" font-size="10.00">getLastFile()</text>
<text text-anchor="start" x="246" y="-469" font-family="Helvetica,sans-Serif" font-size="10.00">+</text>
<text text-anchor="start" x="259" y="-469" font-family="Helvetica,sans-Serif" font-size="10.00">searchImportFile()</text>
<text text-anchor="start" x="246" y="-454" font-family="Helvetica,sans-Serif" font-size="10.00">+</text>
<text text-anchor="start" x="259" y="-454" font-family="Helvetica,sans-Serif" font-size="10.00">searchExportFile()</text>
<text text-anchor="start" x="246" y="-439" font-family="Helvetica,sans-Serif" font-size="10.00">+</text>
<text text-anchor="start" x="259" y="-439" font-family="Helvetica,sans-Serif" font-size="10.00">readFile()</text>
<text text-anchor="start" x="246" y="-424" font-family="Helvetica,sans-Serif" font-size="10.00">+</text>
<text text-anchor="start" x="259" y="-424" font-family="Helvetica,sans-Serif" font-size="10.00">exportFile()</text>
<text text-anchor="start" x="246" y="-409" font-family="Helvetica,sans-Serif" font-size="10.00">+</text>
<text text-anchor="start" x="259" y="-409" font-family="Helvetica,sans-Serif" font-size="10.00">showErrorDialog()</text>
<text text-anchor="start" x="246" y="-394" font-family="Helvetica,sans-Serif" font-size="10.00">+</text>
<text text-anchor="start" x="259" y="-394" font-family="Helvetica,sans-Serif" font-size="10.00">showGoodDialog()</text>
<polygon fill="#666666" stroke="#666666" points="242,-524 242,-524 354,-524 354,-524 242,-524"/>
<polygon fill="#666666" stroke="#666666" points="242,-509 242,-509 354,-509 354,-509 242,-509"/>
<polygon fill="none" stroke="#666666" points="242,-387 242,-541 354,-541 354,-387 242,-387"/>
</a>
</g>
</g>
<!-- Node7&#45;&gt;Node6 -->
<g id="edge6_Node000006_Node000007" class="edge">
<title>Node7&#45;&gt;Node6</title>
<g id="a_edge6_Node000006_Node000007"><a xlink:title=" ">
<path fill="none" stroke="#63b8ff" d="M318.31,-376.89C322.3,-359.94 326.51,-342.12 330.54,-325.02"/>
<polygon fill="none" stroke="#63b8ff" points="314.87,-376.21 315.98,-386.75 321.68,-377.82 314.87,-376.21"/>
</a>
</g>
</g>
<!-- Node8 -->
<g id="Node000008" class="node">
<title>Node8</title>
<g id="a_Node000008"><a xlink:title=" ">
<polygon fill="white" stroke="transparent" points="410,-488.5 372,-488.5 372,-439.5 410,-439.5 410,-488.5"/>
<text text-anchor="start" x="377" y="-476" font-family="Helvetica,sans-Serif" font-size="10.00">string</text>
<text text-anchor="start" x="389" y="-461" font-family="Helvetica,sans-Serif" font-size="10.00"> </text>
<text text-anchor="start" x="389" y="-446" font-family="Helvetica,sans-Serif" font-size="10.00"> </text>
<polygon fill="#666666" stroke="#666666" points="372,-471 372,-471 410,-471 410,-471 372,-471"/>
<polygon fill="#666666" stroke="#666666" points="372,-456 372,-456 410,-456 410,-456 372,-456"/>
<polygon fill="none" stroke="#666666" points="372,-439.5 372,-488.5 410,-488.5 410,-439.5 372,-439.5"/>
</a>
</g>
</g>
<!-- Node8&#45;&gt;Node6 -->
<g id="edge8_Node000006_Node000008" class="edge">
<title>Node8&#45;&gt;Node6</title>
<g id="a_edge8_Node000006_Node000008"><a xlink:title=" ">
<path fill="none" stroke="#63b8ff" d="M386.97,-439.36C382.83,-415.02 376.08,-375.4 369.61,-337.43"/>
<polygon fill="none" stroke="#63b8ff" points="369.54,-337 364.59,-331.76 367.53,-325.18 372.48,-330.42 369.54,-337"/>
</a>
</g>
<text text-anchor="middle" x="403" y="-361" font-family="Helvetica,sans-Serif" font-size="10.00" fill="grey"> &#45;m_lastFile</text>
</g>
<!-- Node9 -->
<g id="Node000009" class="node">
<title>Node9</title>
<g id="a_Node000009"><a xlink:href="classTranslationManager.html" target="_top" xlink:title=" ">
<polygon fill="#fff0f0" stroke="transparent" points="571.5,-511 446.5,-511 446.5,-417 571.5,-417 571.5,-511"/>
<text text-anchor="start" x="461" y="-499" font-family="Helvetica,sans-Serif" font-size="10.00">TranslationManager</text>
<text text-anchor="start" x="507.5" y="-484" font-family="Helvetica,sans-Serif" font-size="10.00"> </text>
<text text-anchor="start" x="451" y="-469" font-family="Helvetica,sans-Serif" font-size="10.00">+</text>
<text text-anchor="start" x="464" y="-469" font-family="Helvetica,sans-Serif" font-size="10.00">loadLanguage()</text>
<text text-anchor="start" x="451" y="-454" font-family="Helvetica,sans-Serif" font-size="10.00">+</text>
<text text-anchor="start" x="464" y="-454" font-family="Helvetica,sans-Serif" font-size="10.00">getString()</text>
<text text-anchor="start" x="451" y="-439" font-family="Helvetica,sans-Serif" font-size="10.00">+</text>
<text text-anchor="start" x="464" y="-439" font-family="Helvetica,sans-Serif" font-size="10.00">Instance()</text>
<text text-anchor="start" x="451" y="-424" font-family="Helvetica,sans-Serif" font-size="10.00">#</text>
<text text-anchor="start" x="464" y="-424" font-family="Helvetica,sans-Serif" font-size="10.00">TranslationManager()</text>
<polygon fill="red" stroke="red" points="447,-494 447,-494 572,-494 572,-494 447,-494"/>
<polygon fill="red" stroke="red" points="447,-479 447,-479 572,-479 572,-479 447,-479"/>
<polygon fill="none" stroke="red" points="446.5,-417 446.5,-511 571.5,-511 571.5,-417 446.5,-417"/>
</a>
</g>
</g>
<!-- Node9&#45;&gt;Node1 -->
<g id="edge11_Node000001_Node000009" class="edge">
<title>Node9&#45;&gt;Node1</title>
<g id="a_edge11_Node000001_Node000009"><a xlink:title=" ">
<path fill="none" stroke="#63b8ff" d="M522.33,-416.89C539.56,-346.98 560.6,-213.09 499,-126 464.58,-77.34 398.33,-56.37 347.31,-47.34"/>
<polygon fill="none" stroke="#63b8ff" points="347.2,-47.32 340.63,-50.3 335.35,-45.39 341.92,-42.41 347.2,-47.32"/>
</a>
</g>
<text text-anchor="middle" x="576" y="-230.5" font-family="Helvetica,sans-Serif" font-size="10.00" fill="grey"> &#45;m_translator</text>
</g>
<!-- Node9&#45;&gt;Node6 -->
<g id="edge9_Node000006_Node000009" class="edge">
<title>Node9&#45;&gt;Node6</title>
<g id="a_edge9_Node000006_Node000009"><a xlink:title=" ">
<path fill="none" stroke="#63b8ff" d="M477.42,-416.93C459.56,-390.89 436.59,-357.38 415.19,-326.17"/>
<polygon fill="none" stroke="#63b8ff" points="415.1,-326.03 408.4,-323.35 408.31,-316.14 415,-318.82 415.1,-326.03"/>
</a>
</g>
<text text-anchor="middle" x="467.5" y="-361" font-family="Helvetica,sans-Serif" font-size="10.00" fill="grey"> &#45;translator</text>
</g>
<!-- Node9&#45;&gt;Node9 -->
<g id="edge10_Node000009_Node000009" class="edge">
<title>Node9&#45;&gt;Node9</title>
<g id="a_edge10_Node000009_Node000009"><a xlink:title=" ">
<path fill="none" stroke="#63b8ff" d="M571.78,-481.43C582.26,-478.99 589.5,-473.18 589.5,-464 589.5,-458.69 587.08,-454.51 583.01,-451.46"/>
<polygon fill="none" stroke="#63b8ff" points="582.78,-451.36 575.69,-452.63 571.78,-446.57 578.88,-445.3 582.78,-451.36"/>
</a>
</g>
<text text-anchor="middle" x="621.5" y="-461.5" font-family="Helvetica,sans-Serif" font-size="10.00" fill="grey"> &#45;m_instance</text>
</g>
</g>
</svg>
