<?xml version="1.0" encoding="UTF-8" standalone="no"?>
<!DOCTYPE svg PUBLIC "-//W3C//DTD SVG 1.1//EN"
 "http://www.w3.org/Graphics/SVG/1.1/DTD/svg11.dtd">
<!-- Generated by graphviz version 2.43.0 (0)
 -->
<!-- Title: ClipboardAdapter Pages: 1 -->
<svg width="415pt" height="526pt"
 viewBox="0.00 0.00 414.50 526.00" xmlns="http://www.w3.org/2000/svg" xmlns:xlink="http://www.w3.org/1999/xlink">
<g id="graph0" class="graph" transform="scale(1 1) rotate(0) translate(4 522)">
<title>ClipboardAdapter</title>
<!-- Node1 -->
<g id="Node000001" class="node">
<title>Node1</title>
<g id="a_Node000001"><a xlink:title=" ">
<polygon fill="#999999" stroke="transparent" points="251,-184 120,-184 120,0 251,0 251,-184"/>
<text text-anchor="start" x="143.5" y="-172" font-family="Helvetica,sans-Serif" font-size="10.00">ClipboardAdapter</text>
<text text-anchor="start" x="184" y="-157" font-family="Helvetica,sans-Serif" font-size="10.00"> </text>
<text text-anchor="start" x="124.5" y="-142" font-family="Helvetica,sans-Serif" font-size="10.00">+</text>
<text text-anchor="start" x="137.5" y="-142" font-family="Helvetica,sans-Serif" font-size="10.00">ClipboardAdapter()</text>
<text text-anchor="start" x="124.5" y="-127" font-family="Helvetica,sans-Serif" font-size="10.00">+</text>
<text text-anchor="start" x="137.5" y="-127" font-family="Helvetica,sans-Serif" font-size="10.00">~ClipboardAdapter()</text>
<text text-anchor="start" x="124.5" y="-112" font-family="Helvetica,sans-Serif" font-size="10.00">+</text>
<text text-anchor="start" x="137.5" y="-112" font-family="Helvetica,sans-Serif" font-size="10.00">setText()</text>
<text text-anchor="start" x="124.5" y="-97" font-family="Helvetica,sans-Serif" font-size="10.00">+</text>
<text text-anchor="start" x="137.5" y="-97" font-family="Helvetica,sans-Serif" font-size="10.00">text()</text>
<text text-anchor="start" x="124.5" y="-82" font-family="Helvetica,sans-Serif" font-size="10.00">+</text>
<text text-anchor="start" x="137.5" y="-82" font-family="Helvetica,sans-Serif" font-size="10.00">name()</text>
<text text-anchor="start" x="124.5" y="-67" font-family="Helvetica,sans-Serif" font-size="10.00">+</text>
<text text-anchor="start" x="137.5" y="-67" font-family="Helvetica,sans-Serif" font-size="10.00">clear()</text>
<text text-anchor="start" x="124.5" y="-52" font-family="Helvetica,sans-Serif" font-size="10.00">+</text>
<text text-anchor="start" x="137.5" y="-52" font-family="Helvetica,sans-Serif" font-size="10.00">getKeyShortCutPaste()</text>
<text text-anchor="start" x="124.5" y="-37" font-family="Helvetica,sans-Serif" font-size="10.00">+</text>
<text text-anchor="start" x="137.5" y="-37" font-family="Helvetica,sans-Serif" font-size="10.00">getKeyShortCutCopy()</text>
<text text-anchor="start" x="124.5" y="-22" font-family="Helvetica,sans-Serif" font-size="10.00">+</text>
<text text-anchor="start" x="137.5" y="-22" font-family="Helvetica,sans-Serif" font-size="10.00">setKeyShortCutPaste()</text>
<text text-anchor="start" x="124.5" y="-7" font-family="Helvetica,sans-Serif" font-size="10.00">+</text>
<text text-anchor="start" x="137.5" y="-7" font-family="Helvetica,sans-Serif" font-size="10.00">setKeyShortCutCopy()</text>
<polygon fill="#666666" stroke="#666666" points="120.5,-167 120.5,-167 251.5,-167 251.5,-167 120.5,-167"/>
<polygon fill="#666666" stroke="#666666" points="120.5,-152 120.5,-152 251.5,-152 251.5,-152 120.5,-152"/>
<polygon fill="none" stroke="#666666" points="120,0 120,-184 251,-184 251,0 120,0"/>
</a>
</g>
</g>
<!-- Node2 -->
<g id="Node000002" class="node">
<title>Node2</title>
<g id="a_Node000002"><a xlink:href="classClipboardInterface.html" target="_top" xlink:title=" ">
<polygon fill="white" stroke="transparent" points="131,-411 0,-411 0,-242 131,-242 131,-411"/>
<text text-anchor="start" x="20.5" y="-398.5" font-family="Helvetica,sans-Serif" font-size="10.00">ClipboardInterface</text>
<text text-anchor="start" x="64" y="-383.5" font-family="Helvetica,sans-Serif" font-size="10.00"> </text>
<text text-anchor="start" x="4.5" y="-368.5" font-family="Helvetica,sans-Serif" font-size="10.00">+</text>
<text text-anchor="start" x="17.5" y="-368.5" font-family="Helvetica,sans-Serif" font-size="10.00">~ClipboardInterface()</text>
<text text-anchor="start" x="4.5" y="-353.5" font-family="Helvetica,sans-Serif" font-size="10.00">+</text>
<text text-anchor="start" x="17.5" y="-353.5" font-family="Helvetica,sans-Serif" font-size="10.00">setText()</text>
<text text-anchor="start" x="4.5" y="-338.5" font-family="Helvetica,sans-Serif" font-size="10.00">+</text>
<text text-anchor="start" x="17.5" y="-338.5" font-family="Helvetica,sans-Serif" font-size="10.00">text()</text>
<text text-anchor="start" x="4.5" y="-323.5" font-family="Helvetica,sans-Serif" font-size="10.00">+</text>
<text text-anchor="start" x="17.5" y="-323.5" font-family="Helvetica,sans-Serif" font-size="10.00">name()</text>
<text text-anchor="start" x="4.5" y="-308.5" font-family="Helvetica,sans-Serif" font-size="10.00">+</text>
<text text-anchor="start" x="17.5" y="-308.5" font-family="Helvetica,sans-Serif" font-size="10.00">clear()</text>
<text text-anchor="start" x="4.5" y="-293.5" font-family="Helvetica,sans-Serif" font-size="10.00">+</text>
<text text-anchor="start" x="17.5" y="-293.5" font-family="Helvetica,sans-Serif" font-size="10.00">getKeyShortCutPaste()</text>
<text text-anchor="start" x="4.5" y="-278.5" font-family="Helvetica,sans-Serif" font-size="10.00">+</text>
<text text-anchor="start" x="17.5" y="-278.5" font-family="Helvetica,sans-Serif" font-size="10.00">getKeyShortCutCopy()</text>
<text text-anchor="start" x="4.5" y="-263.5" font-family="Helvetica,sans-Serif" font-size="10.00">+</text>
<text text-anchor="start" x="17.5" y="-263.5" font-family="Helvetica,sans-Serif" font-size="10.00">setKeyShortCutPaste()</text>
<text text-anchor="start" x="4.5" y="-248.5" font-family="Helvetica,sans-Serif" font-size="10.00">+</text>
<text text-anchor="start" x="17.5" y="-248.5" font-family="Helvetica,sans-Serif" font-size="10.00">setKeyShortCutCopy()</text>
<polygon fill="#666666" stroke="#666666" points="0.5,-393.5 0.5,-393.5 131.5,-393.5 131.5,-393.5 0.5,-393.5"/>
<polygon fill="#666666" stroke="#666666" points="0.5,-378.5 0.5,-378.5 131.5,-378.5 131.5,-378.5 0.5,-378.5"/>
<polygon fill="none" stroke="#666666" points="0,-242 0,-411 131,-411 131,-242 0,-242"/>
</a>
</g>
</g>
<!-- Node2&#45;&gt;Node1 -->
<g id="edge1_Node000001_Node000002" class="edge">
<title>Node2&#45;&gt;Node1</title>
<g id="a_edge1_Node000001_Node000002"><a xlink:title=" ">
<path fill="none" stroke="#63b8ff" d="M113.46,-232.57C121.7,-216.61 130.25,-200.04 138.47,-184.13"/>
<polygon fill="none" stroke="#63b8ff" points="110.13,-231.4 108.65,-241.89 116.35,-234.61 110.13,-231.4"/>
</a>
</g>
</g>
<!-- Node3 -->
<g id="Node000003" class="node">
<title>Node3</title>
<g id="a_Node000003"><a xlink:title=" ">
<polygon fill="white" stroke="transparent" points="222,-351 149,-351 149,-302 222,-302 222,-351"/>
<text text-anchor="start" x="154.5" y="-338.5" font-family="Helvetica,sans-Serif" font-size="10.00">QClipboard *</text>
<text text-anchor="start" x="184" y="-323.5" font-family="Helvetica,sans-Serif" font-size="10.00"> </text>
<text text-anchor="start" x="184" y="-308.5" font-family="Helvetica,sans-Serif" font-size="10.00"> </text>
<polygon fill="#666666" stroke="#666666" points="149.5,-333.5 149.5,-333.5 222.5,-333.5 222.5,-333.5 149.5,-333.5"/>
<polygon fill="#666666" stroke="#666666" points="149.5,-318.5 149.5,-318.5 222.5,-318.5 222.5,-318.5 149.5,-318.5"/>
<polygon fill="none" stroke="#666666" points="149,-302 149,-351 222,-351 222,-302 149,-302"/>
</a>
</g>
</g>
<!-- Node3&#45;&gt;Node1 -->
<g id="edge2_Node000001_Node000003" class="edge">
<title>Node3&#45;&gt;Node1</title>
<g id="a_edge2_Node000001_Node000003"><a xlink:title=" ">
<path fill="none" stroke="#63b8ff" d="M185.5,-301.93C185.5,-276.87 185.5,-235.51 185.5,-196.18"/>
<polygon fill="none" stroke="#63b8ff" points="185.5,-196.05 181.5,-190.05 185.5,-184.05 189.5,-190.05 185.5,-196.05"/>
</a>
</g>
<text text-anchor="middle" x="219" y="-210.5" font-family="Helvetica,sans-Serif" font-size="10.00" fill="grey"> &#45;m_clipboard</text>
</g>
<!-- Node4 -->
<g id="Node000004" class="node">
<title>Node4</title>
<g id="a_Node000004"><a xlink:href="classKeyShortCut.html" target="_top" xlink:title=" ">
<polygon fill="white" stroke="transparent" points="358.5,-396 240.5,-396 240.5,-257 358.5,-257 358.5,-396"/>
<text text-anchor="start" x="269" y="-383.5" font-family="Helvetica,sans-Serif" font-size="10.00">KeyShortCut</text>
<text text-anchor="start" x="297.5" y="-368.5" font-family="Helvetica,sans-Serif" font-size="10.00"> </text>
<text text-anchor="start" x="244.5" y="-353.5" font-family="Helvetica,sans-Serif" font-size="10.00">+</text>
<text text-anchor="start" x="257.5" y="-353.5" font-family="Helvetica,sans-Serif" font-size="10.00">KeyShortCut()</text>
<text text-anchor="start" x="244.5" y="-338.5" font-family="Helvetica,sans-Serif" font-size="10.00">+</text>
<text text-anchor="start" x="257.5" y="-338.5" font-family="Helvetica,sans-Serif" font-size="10.00">getShortCut()</text>
<text text-anchor="start" x="244.5" y="-323.5" font-family="Helvetica,sans-Serif" font-size="10.00">+</text>
<text text-anchor="start" x="257.5" y="-323.5" font-family="Helvetica,sans-Serif" font-size="10.00">setShortCut()</text>
<text text-anchor="start" x="244.5" y="-308.5" font-family="Helvetica,sans-Serif" font-size="10.00">+</text>
<text text-anchor="start" x="257.5" y="-308.5" font-family="Helvetica,sans-Serif" font-size="10.00">getEvent()</text>
<text text-anchor="start" x="244.5" y="-293.5" font-family="Helvetica,sans-Serif" font-size="10.00">+</text>
<text text-anchor="start" x="257.5" y="-293.5" font-family="Helvetica,sans-Serif" font-size="10.00">operator==()</text>
<text text-anchor="start" x="244.5" y="-278.5" font-family="Helvetica,sans-Serif" font-size="10.00">+</text>
<text text-anchor="start" x="257.5" y="-278.5" font-family="Helvetica,sans-Serif" font-size="10.00">toString()</text>
<text text-anchor="start" x="244.5" y="-263.5" font-family="Helvetica,sans-Serif" font-size="10.00">+</text>
<text text-anchor="start" x="257.5" y="-263.5" font-family="Helvetica,sans-Serif" font-size="10.00">toStringTranslated()</text>
<polygon fill="#666666" stroke="#666666" points="240.5,-378.5 240.5,-378.5 358.5,-378.5 358.5,-378.5 240.5,-378.5"/>
<polygon fill="#666666" stroke="#666666" points="240.5,-363.5 240.5,-363.5 358.5,-363.5 358.5,-363.5 240.5,-363.5"/>
<polygon fill="none" stroke="#666666" points="240.5,-257 240.5,-396 358.5,-396 358.5,-257 240.5,-257"/>
</a>
</g>
</g>
<!-- Node4&#45;&gt;Node1 -->
<g id="edge3_Node000001_Node000004" class="edge">
<title>Node4&#45;&gt;Node1</title>
<g id="a_edge3_Node000001_Node000004"><a xlink:title=" ">
<path fill="none" stroke="#63b8ff" d="M278.95,-256.99C272.6,-238.76 265,-219.32 256.5,-202 255.37,-199.7 254.21,-197.4 253.01,-195.08"/>
<polygon fill="none" stroke="#63b8ff" points="252.86,-194.81 246.49,-191.43 247.17,-184.25 253.54,-187.64 252.86,-194.81"/>
</a>
</g>
<text text-anchor="middle" x="318.5" y="-216" font-family="Helvetica,sans-Serif" font-size="10.00" fill="grey"> &#45;m_keyShortCutCopy</text>
<text text-anchor="middle" x="318.5" y="-205" font-family="Helvetica,sans-Serif" font-size="10.00" fill="grey">&#45;m_keyShortCutPaste</text>
</g>
<!-- Node5 -->
<g id="Node000005" class="node">
<title>Node5</title>
<g id="a_Node000005"><a xlink:title=" ">
<polygon fill="white" stroke="transparent" points="277,-518 174,-518 174,-458 277,-458 277,-518"/>
<text text-anchor="start" x="179.5" y="-506" font-family="Helvetica,sans-Serif" font-size="10.00">vector&lt; Rml::Input</text>
<text text-anchor="start" x="186.5" y="-495" font-family="Helvetica,sans-Serif" font-size="10.00">::KeyIdentifier &gt;</text>
<text text-anchor="start" x="224" y="-480" font-family="Helvetica,sans-Serif" font-size="10.00"> </text>
<text text-anchor="start" x="224" y="-465" font-family="Helvetica,sans-Serif" font-size="10.00"> </text>
<polygon fill="#666666" stroke="#666666" points="174.5,-490 174.5,-490 277.5,-490 277.5,-490 174.5,-490"/>
<polygon fill="#666666" stroke="#666666" points="174.5,-475 174.5,-475 277.5,-475 277.5,-475 174.5,-475"/>
<polygon fill="none" stroke="#666666" points="174,-458 174,-518 277,-518 277,-458 174,-458"/>
</a>
</g>
</g>
<!-- Node5&#45;&gt;Node4 -->
<g id="edge4_Node000004_Node000005" class="edge">
<title>Node5&#45;&gt;Node4</title>
<g id="a_edge4_Node000004_Node000005"><a xlink:title=" ">
<path fill="none" stroke="#63b8ff" d="M222.61,-457.81C222.57,-448.41 223.49,-438.08 226.5,-429 229.03,-421.39 232.34,-413.86 236.17,-406.54"/>
<polygon fill="none" stroke="#63b8ff" points="236.22,-406.46 235.68,-399.27 242.11,-396 242.65,-403.19 236.22,-406.46"/>
</a>
</g>
<text text-anchor="middle" x="289.5" y="-432" font-family="Helvetica,sans-Serif" font-size="10.00" fill="grey"> &#45;m_shortCutCombination</text>
</g>
<!-- Node6 -->
<g id="Node000006" class="node">
<title>Node6</title>
<g id="a_Node000006"><a xlink:title=" ">
<polygon fill="white" stroke="transparent" points="393.5,-512.5 355.5,-512.5 355.5,-463.5 393.5,-463.5 393.5,-512.5"/>
<text text-anchor="start" x="360.5" y="-500" font-family="Helvetica,sans-Serif" font-size="10.00">string</text>
<text text-anchor="start" x="372.5" y="-485" font-family="Helvetica,sans-Serif" font-size="10.00"> </text>
<text text-anchor="start" x="372.5" y="-470" font-family="Helvetica,sans-Serif" font-size="10.00"> </text>
<polygon fill="#666666" stroke="#666666" points="355.5,-495 355.5,-495 393.5,-495 393.5,-495 355.5,-495"/>
<polygon fill="#666666" stroke="#666666" points="355.5,-480 355.5,-480 393.5,-480 393.5,-480 355.5,-480"/>
<polygon fill="none" stroke="#666666" points="355.5,-463.5 355.5,-512.5 393.5,-512.5 393.5,-463.5 355.5,-463.5"/>
</a>
</g>
</g>
<!-- Node6&#45;&gt;Node4 -->
<g id="edge5_Node000004_Node000006" class="edge">
<title>Node6&#45;&gt;Node4</title>
<g id="a_edge5_Node000004_Node000006"><a xlink:title=" ">
<path fill="none" stroke="#63b8ff" d="M366.24,-463.32C362.35,-452.7 357.48,-440.1 352.5,-429 349.25,-421.75 345.72,-414.29 342.07,-406.86"/>
<polygon fill="none" stroke="#63b8ff" points="342.03,-406.77 335.77,-403.18 336.68,-396.03 342.94,-399.61 342.03,-406.77"/>
</a>
</g>
<text text-anchor="middle" x="381.5" y="-432" font-family="Helvetica,sans-Serif" font-size="10.00" fill="grey"> &#45;m_event</text>
</g>
</g>
</svg>
