<?xml version="1.0" encoding="UTF-8" standalone="no"?>
<!DOCTYPE svg PUBLIC "-//W3C//DTD SVG 1.1//EN"
 "http://www.w3.org/Graphics/SVG/1.1/DTD/svg11.dtd">
<!-- Generated by graphviz version 2.43.0 (0)
 -->
<!-- Title: ResetShortCutEvent Pages: 1 -->
<svg width="143pt" height="187pt"
 viewBox="0.00 0.00 143.00 187.00" xmlns="http://www.w3.org/2000/svg" xmlns:xlink="http://www.w3.org/1999/xlink">
<g id="graph0" class="graph" transform="scale(1 1) rotate(0) translate(4 183)">
<title>ResetShortCutEvent</title>
<!-- Node1 -->
<g id="Node000001" class="node">
<title>Node1</title>
<g id="a_Node000001"><a xlink:title=" ">
<polygon fill="#999999" stroke="transparent" points="135,-79 0,-79 0,0 135,0 135,-79"/>
<text text-anchor="start" x="19" y="-66.5" font-family="Helvetica,sans-Serif" font-size="10.00">ResetShortCutEvent</text>
<text text-anchor="start" x="7" y="-51.5" font-family="Helvetica,sans-Serif" font-size="10.00">&#45;</text>
<text text-anchor="start" x="17.5" y="-51.5" font-family="Helvetica,sans-Serif" font-size="10.00">m_editViewModel</text>
<text text-anchor="start" x="4.5" y="-36.5" font-family="Helvetica,sans-Serif" font-size="10.00">+</text>
<text text-anchor="start" x="17.5" y="-36.5" font-family="Helvetica,sans-Serif" font-size="10.00">ResetShortCutEvent()</text>
<text text-anchor="start" x="4.5" y="-21.5" font-family="Helvetica,sans-Serif" font-size="10.00">+</text>
<text text-anchor="start" x="17.5" y="-21.5" font-family="Helvetica,sans-Serif" font-size="10.00">~ResetShortCutEvent()</text>
<text text-anchor="start" x="4.5" y="-6.5" font-family="Helvetica,sans-Serif" font-size="10.00">+</text>
<text text-anchor="start" x="17.5" y="-6.5" font-family="Helvetica,sans-Serif" font-size="10.00">handle()</text>
<polygon fill="#666666" stroke="#666666" points="0.5,-61.5 0.5,-61.5 135.5,-61.5 135.5,-61.5 0.5,-61.5"/>
<polygon fill="#666666" stroke="#666666" points="0.5,-46.5 0.5,-46.5 15.5,-46.5 15.5,-46.5 0.5,-46.5"/>
<polygon fill="#666666" stroke="#666666" points="15.5,-46.5 15.5,-46.5 135.5,-46.5 135.5,-46.5 15.5,-46.5"/>
<polygon fill="none" stroke="#666666" points="0,0 0,-79 135,-79 135,0 0,0"/>
</a>
</g>
</g>
<!-- Node2 -->
<g id="Node000002" class="node">
<title>Node2</title>
<g id="a_Node000002"><a xlink:href="classClipboardEvent.html" target="_top" xlink:title=" ">
<polygon fill="white" stroke="transparent" points="123.5,-179 11.5,-179 11.5,-115 123.5,-115 123.5,-179"/>
<text text-anchor="start" x="30" y="-167" font-family="Helvetica,sans-Serif" font-size="10.00">ClipboardEvent</text>
<text text-anchor="start" x="65.5" y="-152" font-family="Helvetica,sans-Serif" font-size="10.00"> </text>
<text text-anchor="start" x="15.5" y="-137" font-family="Helvetica,sans-Serif" font-size="10.00">+</text>
<text text-anchor="start" x="28.5" y="-137" font-family="Helvetica,sans-Serif" font-size="10.00">~ClipboardEvent()</text>
<text text-anchor="start" x="15.5" y="-122" font-family="Helvetica,sans-Serif" font-size="10.00">+</text>
<text text-anchor="start" x="28.5" y="-122" font-family="Helvetica,sans-Serif" font-size="10.00">handle()</text>
<polygon fill="#666666" stroke="#666666" points="11.5,-162 11.5,-162 123.5,-162 123.5,-162 11.5,-162"/>
<polygon fill="#666666" stroke="#666666" points="11.5,-147 11.5,-147 123.5,-147 123.5,-147 11.5,-147"/>
<polygon fill="none" stroke="#666666" points="11.5,-115 11.5,-179 123.5,-179 123.5,-115 11.5,-115"/>
</a>
</g>
</g>
<!-- Node2&#45;&gt;Node1 -->
<g id="edge1_Node000001_Node000002" class="edge">
<title>Node2&#45;&gt;Node1</title>
<g id="a_edge1_Node000001_Node000002"><a xlink:title=" ">
<path fill="none" stroke="#63b8ff" d="M67.5,-104.89C67.5,-96.44 67.5,-87.58 67.5,-79.22"/>
<polygon fill="none" stroke="#63b8ff" points="64,-104.92 67.5,-114.92 71,-104.92 64,-104.92"/>
</a>
</g>
</g>
</g>
</svg>
