<?xml version="1.0" encoding="UTF-8" standalone="no"?>
<!DOCTYPE svg PUBLIC "-//W3C//DTD SVG 1.1//EN"
 "http://www.w3.org/Graphics/SVG/1.1/DTD/svg11.dtd">
<!-- Generated by graphviz version 2.43.0 (0)
 -->
<!-- Title: ClipboardXX Pages: 1 -->
<!--zoomable 448 -->

<svg id="main" version="1.1" xmlns="http://www.w3.org/2000/svg" xmlns:xlink="http://www.w3.org/1999/xlink" xml:space="preserve" onload="init(evt)">
<style type="text/css"><![CDATA[
.node, .edge {opacity: 0.7;}
.node.selected, .edge.selected {opacity: 1;}
.edge:hover path { stroke: red; }
.edge:hover polygon { stroke: red; fill: red; }
]]></style>

<defs>
  <circle id="rim" cx="0" cy="0" r="7"/>
  <circle id="rim2" cx="0" cy="0" r="3.5"/>
  <g id="zoomPlus">
    <use xlink:href="#rim" fill="#404040"><set attributeName="fill" to="#808080" begin="zoomplus.mouseover" end="zoomplus.mouseout"/></use>
    <path d="M-4,0h8M0,-4v8" fill="none" stroke="white" stroke-width="1.5" pointer-events="none"/>
  </g>
  <g id="zoomMin">
    <use xlink:href="#rim" fill="#404040"><set attributeName="fill" to="#808080" begin="zoomminus.mouseover" end="zoomminus.mouseout"/></use>
    <path d="M-4,0h8" fill="none" stroke="white" stroke-width="1.5" pointer-events="none"/>
  </g>
  <g id="arrowUp" transform="translate(30 24)">
    <use xlink:href="#rim"/>
    <path pointer-events="none" fill="none" stroke="white" stroke-width="1.5" d="M0,-3.0v7 M-2.5,-0.5L0,-3.0L2.5,-0.5"/>
  </g>
  <g id="arrowRight" transform="rotate(90) translate(36 -43)">
    <use xlink:href="#rim"/>
    <path pointer-events="none" fill="none" stroke="white" stroke-width="1.5" d="M0,-3.0v7 M-2.5,-0.5L0,-3.0L2.5,-0.5"/>
  </g>
  <g id="arrowDown" transform="rotate(180) translate(-30 -48)">
    <use xlink:href="#rim"/>
    <path pointer-events="none" fill="none" stroke="white" stroke-width="1.5" d="M0,-3.0v7 M-2.5,-0.5L0,-3.0L2.5,-0.5"/>
  </g>
  <g id="arrowLeft" transform="rotate(270) translate(-36 17)">
    <use xlink:href="#rim"/>
    <path pointer-events="none" fill="none" stroke="white" stroke-width="1.5" d="M0,-3.0v7 M-2.5,-0.5L0,-3.0L2.5,-0.5"/>
  </g>
  <g id="resetDef">
    <use xlink:href="#rim2" fill="#404040"><set attributeName="fill" to="#808080" begin="reset.mouseover" end="reset.mouseout"/></use>
  </g>
</defs>
<script type="application/ecmascript">
var viewWidth = 1540;
var viewHeight = 448;
var sectionId = 'dynsection-1';
</script>
<script type="application/ecmascript" xlink:href="svg.min.js"/>
<svg id="graph" class="graph">
<g id="viewport">
<title>ClipboardXX</title>
<!-- Node1 -->
<g id="Node000001" class="node">
<title>Node1</title>
<g id="a_Node000001"><a xlink:title=" ">
<polygon fill="#999999" stroke="transparent" points="762,-184 644,-184 644,0 762,0 762,-184"/>
<text text-anchor="start" x="672.5" y="-172" font-family="Helvetica,sans-Serif" font-size="10.00">ClipboardXX</text>
<text text-anchor="start" x="701" y="-157" font-family="Helvetica,sans-Serif" font-size="10.00"> </text>
<text text-anchor="start" x="648" y="-142" font-family="Helvetica,sans-Serif" font-size="10.00">+</text>
<text text-anchor="start" x="661" y="-142" font-family="Helvetica,sans-Serif" font-size="10.00">ClipboardXX()</text>
<text text-anchor="start" x="648" y="-127" font-family="Helvetica,sans-Serif" font-size="10.00">+</text>
<text text-anchor="start" x="661" y="-127" font-family="Helvetica,sans-Serif" font-size="10.00">~ClipboardXX()</text>
<text text-anchor="start" x="648" y="-112" font-family="Helvetica,sans-Serif" font-size="10.00">+</text>
<text text-anchor="start" x="661" y="-112" font-family="Helvetica,sans-Serif" font-size="10.00">Run()</text>
<text text-anchor="start" x="650.5" y="-97" font-family="Helvetica,sans-Serif" font-size="10.00">&#45;</text>
<text text-anchor="start" x="661" y="-97" font-family="Helvetica,sans-Serif" font-size="10.00">initialize()</text>
<text text-anchor="start" x="650.5" y="-82" font-family="Helvetica,sans-Serif" font-size="10.00">&#45;</text>
<text text-anchor="start" x="661" y="-82" font-family="Helvetica,sans-Serif" font-size="10.00">mainLoop()</text>
<text text-anchor="start" x="650.5" y="-67" font-family="Helvetica,sans-Serif" font-size="10.00">&#45;</text>
<text text-anchor="start" x="661" y="-67" font-family="Helvetica,sans-Serif" font-size="10.00">shutdown()</text>
<text text-anchor="start" x="650.5" y="-52" font-family="Helvetica,sans-Serif" font-size="10.00">&#45;</text>
<text text-anchor="start" x="661" y="-52" font-family="Helvetica,sans-Serif" font-size="10.00">captureHWND()</text>
<text text-anchor="start" x="650.5" y="-37" font-family="Helvetica,sans-Serif" font-size="10.00">&#45;</text>
<text text-anchor="start" x="661" y="-37" font-family="Helvetica,sans-Serif" font-size="10.00">hideAllDocuments()</text>
<text text-anchor="start" x="650.5" y="-22" font-family="Helvetica,sans-Serif" font-size="10.00">&#45;</text>
<text text-anchor="start" x="661" y="-22" font-family="Helvetica,sans-Serif" font-size="10.00">showShortcuts()</text>
<text text-anchor="start" x="650.5" y="-7" font-family="Helvetica,sans-Serif" font-size="10.00">&#45;</text>
<text text-anchor="start" x="661" y="-7" font-family="Helvetica,sans-Serif" font-size="10.00">quit()</text>
<polygon fill="#666666" stroke="#666666" points="644,-167 644,-167 762,-167 762,-167 644,-167"/>
<polygon fill="#666666" stroke="#666666" points="644,-152 644,-152 762,-152 762,-152 644,-152"/>
<polygon fill="none" stroke="#666666" points="644,0 644,-184 762,-184 762,0 644,0"/>
</a>
</g>
</g>
<!-- Node2 -->
<g id="Node000002" class="node">
<title>Node2</title>
<g id="a_Node000002"><a xlink:href="classQObject.html" target="_top" xlink:title=" ">
<polygon fill="white" stroke="transparent" points="50,-339 0,-339 0,-290 50,-290 50,-339"/>
<text text-anchor="start" x="5" y="-326.5" font-family="Helvetica,sans-Serif" font-size="10.00">QObject</text>
<text text-anchor="start" x="23" y="-311.5" font-family="Helvetica,sans-Serif" font-size="10.00"> </text>
<text text-anchor="start" x="23" y="-296.5" font-family="Helvetica,sans-Serif" font-size="10.00"> </text>
<polygon fill="#666666" stroke="#666666" points="0,-321.5 0,-321.5 50,-321.5 50,-321.5 0,-321.5"/>
<polygon fill="#666666" stroke="#666666" points="0,-306.5 0,-306.5 50,-306.5 50,-306.5 0,-306.5"/>
<polygon fill="none" stroke="#666666" points="0,-290 0,-339 50,-339 50,-290 0,-290"/>
</a>
</g>
</g>
<!-- Node2&#45;&gt;Node1 -->
<g id="edge1_Node000001_Node000002" class="edge">
<title>Node2&#45;&gt;Node1</title>
<g id="a_edge1_Node000001_Node000002"><a xlink:title=" ">
<path fill="none" stroke="#63b8ff" d="M50.53,-282.56C53.27,-279.88 56.11,-277.31 59,-275 111.66,-232.88 128.8,-225.51 192,-202 349.71,-143.34 547.17,-112.46 643.97,-99.9"/>
<polygon fill="none" stroke="#63b8ff" points="47.95,-280.2 43.58,-289.85 53.02,-285.03 47.95,-280.2"/>
</a>
</g>
</g>
<!-- Node3 -->
<g id="Node000003" class="node">
<title>Node3</title>
<g id="a_Node000003"><a xlink:title=" ">
<polygon fill="white" stroke="transparent" points="215.5,-339 68.5,-339 68.5,-290 215.5,-290 215.5,-339"/>
<text text-anchor="start" x="74" y="-326.5" font-family="Helvetica,sans-Serif" font-size="10.00">unique_ptr&lt; QApplication &gt;</text>
<text text-anchor="start" x="140.5" y="-311.5" font-family="Helvetica,sans-Serif" font-size="10.00"> </text>
<text text-anchor="start" x="140.5" y="-296.5" font-family="Helvetica,sans-Serif" font-size="10.00"> </text>
<polygon fill="#666666" stroke="#666666" points="69,-321.5 69,-321.5 216,-321.5 216,-321.5 69,-321.5"/>
<polygon fill="#666666" stroke="#666666" points="69,-306.5 69,-306.5 216,-306.5 216,-306.5 69,-306.5"/>
<polygon fill="none" stroke="#666666" points="68.5,-290 68.5,-339 215.5,-339 215.5,-290 68.5,-290"/>
</a>
</g>
</g>
<!-- Node3&#45;&gt;Node1 -->
<g id="edge2_Node000001_Node000003" class="edge">
<title>Node3&#45;&gt;Node1</title>
<g id="a_edge2_Node000001_Node000003"><a xlink:title=" ">
<path fill="none" stroke="#63b8ff" d="M162.48,-289.78C185.77,-264.31 226.13,-224.5 269,-202 387.26,-139.94 542.41,-112.08 631.57,-100.47"/>
<polygon fill="none" stroke="#63b8ff" points="631.79,-100.44 637.25,-95.72 643.7,-98.93 638.25,-103.66 631.79,-100.44"/>
</a>
</g>
<text text-anchor="middle" x="289" y="-227" font-family="Helvetica,sans-Serif" font-size="10.00" fill="grey"> &#45;m_app</text>
</g>
<!-- Node4 -->
<g id="Node000004" class="node">
<title>Node4</title>
<g id="a_Node000004"><a xlink:title=" ">
<polygon fill="white" stroke="transparent" points="338,-339 234,-339 234,-290 338,-290 338,-339"/>
<text text-anchor="start" x="239" y="-326.5" font-family="Helvetica,sans-Serif" font-size="10.00">QSystemTrayIcon *</text>
<text text-anchor="start" x="284" y="-311.5" font-family="Helvetica,sans-Serif" font-size="10.00"> </text>
<text text-anchor="start" x="284" y="-296.5" font-family="Helvetica,sans-Serif" font-size="10.00"> </text>
<polygon fill="#666666" stroke="#666666" points="234,-321.5 234,-321.5 338,-321.5 338,-321.5 234,-321.5"/>
<polygon fill="#666666" stroke="#666666" points="234,-306.5 234,-306.5 338,-306.5 338,-306.5 234,-306.5"/>
<polygon fill="none" stroke="#666666" points="234,-290 234,-339 338,-339 338,-290 234,-290"/>
</a>
</g>
</g>
<!-- Node4&#45;&gt;Node1 -->
<g id="edge3_Node000001_Node000004" class="edge">
<title>Node4&#45;&gt;Node1</title>
<g id="a_edge3_Node000001_Node000004"><a xlink:title=" ">
<path fill="none" stroke="#63b8ff" d="M295.58,-290C307.05,-264.72 328.58,-225.07 359,-202 440.32,-140.31 557.47,-112.99 631.9,-101.28"/>
<polygon fill="none" stroke="#63b8ff" points="632.06,-101.26 637.39,-96.41 643.92,-99.47 638.59,-104.32 632.06,-101.26"/>
</a>
</g>
<text text-anchor="middle" x="390" y="-227" font-family="Helvetica,sans-Serif" font-size="10.00" fill="grey"> &#45;m_trayIcon</text>
</g>
<!-- Node5 -->
<g id="Node000005" class="node">
<title>Node5</title>
<g id="a_Node000005"><a xlink:title=" ">
<polygon fill="white" stroke="transparent" points="466,-339 356,-339 356,-290 466,-290 466,-339"/>
<text text-anchor="start" x="361" y="-326.5" font-family="Helvetica,sans-Serif" font-size="10.00">ElementDocument *</text>
<text text-anchor="start" x="409" y="-311.5" font-family="Helvetica,sans-Serif" font-size="10.00"> </text>
<text text-anchor="start" x="409" y="-296.5" font-family="Helvetica,sans-Serif" font-size="10.00"> </text>
<polygon fill="#666666" stroke="#666666" points="356,-321.5 356,-321.5 466,-321.5 466,-321.5 356,-321.5"/>
<polygon fill="#666666" stroke="#666666" points="356,-306.5 356,-306.5 466,-306.5 466,-306.5 356,-306.5"/>
<polygon fill="none" stroke="#666666" points="356,-290 356,-339 466,-339 466,-290 356,-290"/>
</a>
</g>
</g>
<!-- Node5&#45;&gt;Node1 -->
<g id="edge4_Node000001_Node000005" class="edge">
<title>Node5&#45;&gt;Node1</title>
<g id="a_edge4_Node000001_Node000005"><a xlink:title=" ">
<path fill="none" stroke="#63b8ff" d="M414.89,-289.72C420.07,-264.96 431.48,-226.44 455,-202 502.86,-152.28 577.33,-123.75 632.18,-108.45"/>
<polygon fill="none" stroke="#63b8ff" points="632.33,-108.41 637.09,-102.98 643.92,-105.29 639.17,-110.71 632.33,-108.41"/>
</a>
</g>
<text text-anchor="middle" x="512" y="-249" font-family="Helvetica,sans-Serif" font-size="10.00" fill="grey"> &#45;m_doc_edit</text>
<text text-anchor="middle" x="512" y="-238" font-family="Helvetica,sans-Serif" font-size="10.00" fill="grey">&#45;m_doc_fileExport</text>
<text text-anchor="middle" x="512" y="-227" font-family="Helvetica,sans-Serif" font-size="10.00" fill="grey">&#45;m_doc_fileImport</text>
<text text-anchor="middle" x="512" y="-216" font-family="Helvetica,sans-Serif" font-size="10.00" fill="grey">&#45;m_doc_main</text>
<text text-anchor="middle" x="512" y="-205" font-family="Helvetica,sans-Serif" font-size="10.00" fill="grey">&#45;m_doc_shortcutsMenu</text>
</g>
<!-- Node6 -->
<g id="Node000006" class="node">
<title>Node6</title>
<g id="a_Node000006"><a xlink:title=" ">
<polygon fill="white" stroke="transparent" points="618,-344.5 484,-344.5 484,-284.5 618,-284.5 618,-344.5"/>
<text text-anchor="start" x="489" y="-332.5" font-family="Helvetica,sans-Serif" font-size="10.00">ElementInstancerGeneric</text>
<text text-anchor="start" x="496" y="-321.5" font-family="Helvetica,sans-Serif" font-size="10.00">&lt; ElementClipboard &gt;</text>
<text text-anchor="start" x="549" y="-306.5" font-family="Helvetica,sans-Serif" font-size="10.00"> </text>
<text text-anchor="start" x="549" y="-291.5" font-family="Helvetica,sans-Serif" font-size="10.00"> </text>
<polygon fill="#666666" stroke="#666666" points="484,-316.5 484,-316.5 618,-316.5 618,-316.5 484,-316.5"/>
<polygon fill="#666666" stroke="#666666" points="484,-301.5 484,-301.5 618,-301.5 618,-301.5 484,-301.5"/>
<polygon fill="none" stroke="#666666" points="484,-284.5 484,-344.5 618,-344.5 618,-284.5 484,-284.5"/>
</a>
</g>
</g>
<!-- Node6&#45;&gt;Node1 -->
<g id="edge5_Node000001_Node000006" class="edge">
<title>Node6&#45;&gt;Node1</title>
<g id="a_edge5_Node000001_Node000006"><a xlink:title=" ">
<path fill="none" stroke="#63b8ff" d="M561.08,-284.19C569.81,-260.88 583.73,-227.97 601,-202 611.07,-186.86 623.27,-171.84 635.69,-158"/>
<polygon fill="none" stroke="#63b8ff" points="635.75,-157.94 636.86,-150.81 643.86,-149.09 642.76,-156.22 635.75,-157.94"/>
</a>
</g>
<text text-anchor="start" x="601" y="-232.5" font-family="Helvetica,sans-Serif" font-size="10.00" fill="grey"> &#45;element_clipboard</text>
<text text-anchor="middle" x="650" y="-221.5" font-family="Helvetica,sans-Serif" font-size="10.00" fill="grey">_instancer</text>
</g>
<!-- Node7 -->
<g id="Node000007" class="node">
<title>Node7</title>
<g id="a_Node000007"><a xlink:title=" ">
<polygon fill="white" stroke="transparent" points="770,-344.5 636,-344.5 636,-284.5 770,-284.5 770,-344.5"/>
<text text-anchor="start" x="641" y="-332.5" font-family="Helvetica,sans-Serif" font-size="10.00">ElementInstancerGeneric</text>
<text text-anchor="start" x="641" y="-321.5" font-family="Helvetica,sans-Serif" font-size="10.00">&lt; ElementFileManager &gt;</text>
<text text-anchor="start" x="701" y="-306.5" font-family="Helvetica,sans-Serif" font-size="10.00"> </text>
<text text-anchor="start" x="701" y="-291.5" font-family="Helvetica,sans-Serif" font-size="10.00"> </text>
<polygon fill="#666666" stroke="#666666" points="636,-316.5 636,-316.5 770,-316.5 770,-316.5 636,-316.5"/>
<polygon fill="#666666" stroke="#666666" points="636,-301.5 636,-301.5 770,-301.5 770,-301.5 636,-301.5"/>
<polygon fill="none" stroke="#666666" points="636,-284.5 636,-344.5 770,-344.5 770,-284.5 636,-284.5"/>
</a>
</g>
</g>
<!-- Node7&#45;&gt;Node1 -->
<g id="edge6_Node000001_Node000007" class="edge">
<title>Node7&#45;&gt;Node1</title>
<g id="a_edge6_Node000001_Node000007"><a xlink:title=" ">
<path fill="none" stroke="#63b8ff" d="M703,-284.22C703,-261.57 703,-228.77 703,-196.71"/>
<polygon fill="none" stroke="#63b8ff" points="703,-196.48 699,-190.48 703,-184.48 707,-190.48 703,-196.48"/>
</a>
</g>
<text text-anchor="middle" x="762" y="-227" font-family="Helvetica,sans-Serif" font-size="10.00" fill="grey"> &#45;element_file_instancer</text>
</g>
<!-- Node8 -->
<g id="Node000008" class="node">
<title>Node8</title>
<g id="a_Node000008"><a xlink:title=" ">
<polygon fill="white" stroke="transparent" points="922,-344.5 788,-344.5 788,-284.5 922,-284.5 922,-344.5"/>
<text text-anchor="start" x="793" y="-332.5" font-family="Helvetica,sans-Serif" font-size="10.00">ElementInstancerGeneric</text>
<text text-anchor="start" x="800.5" y="-321.5" font-family="Helvetica,sans-Serif" font-size="10.00">&lt; ElementShortcuts &gt;</text>
<text text-anchor="start" x="853" y="-306.5" font-family="Helvetica,sans-Serif" font-size="10.00"> </text>
<text text-anchor="start" x="853" y="-291.5" font-family="Helvetica,sans-Serif" font-size="10.00"> </text>
<polygon fill="#666666" stroke="#666666" points="788,-316.5 788,-316.5 922,-316.5 922,-316.5 788,-316.5"/>
<polygon fill="#666666" stroke="#666666" points="788,-301.5 788,-301.5 922,-301.5 922,-301.5 788,-301.5"/>
<polygon fill="none" stroke="#666666" points="788,-284.5 788,-344.5 922,-344.5 922,-284.5 788,-284.5"/>
</a>
</g>
</g>
<!-- Node8&#45;&gt;Node1 -->
<g id="edge7_Node000001_Node000008" class="edge">
<title>Node8&#45;&gt;Node1</title>
<g id="a_edge7_Node000001_Node000008"><a xlink:title=" ">
<path fill="none" stroke="#63b8ff" d="M851.8,-284.2C848.16,-260.58 840.56,-227.26 825,-202 811.11,-179.46 791.15,-158.87 771.39,-141.82"/>
<polygon fill="none" stroke="#63b8ff" points="771.24,-141.69 764.08,-140.9 762.05,-133.98 769.21,-134.77 771.24,-141.69"/>
</a>
</g>
<text text-anchor="start" x="846" y="-232.5" font-family="Helvetica,sans-Serif" font-size="10.00" fill="grey"> &#45;element_shortcuts</text>
<text text-anchor="middle" x="895" y="-221.5" font-family="Helvetica,sans-Serif" font-size="10.00" fill="grey">_instancer</text>
</g>
<!-- Node9 -->
<g id="Node000009" class="node">
<title>Node9</title>
<g id="a_Node000009"><a xlink:title=" ">
<polygon fill="white" stroke="transparent" points="1074,-344.5 940,-344.5 940,-284.5 1074,-284.5 1074,-344.5"/>
<text text-anchor="start" x="945" y="-332.5" font-family="Helvetica,sans-Serif" font-size="10.00">ElementInstancerGeneric</text>
<text text-anchor="start" x="966" y="-321.5" font-family="Helvetica,sans-Serif" font-size="10.00">&lt; ElementEdit &gt;</text>
<text text-anchor="start" x="1005" y="-306.5" font-family="Helvetica,sans-Serif" font-size="10.00"> </text>
<text text-anchor="start" x="1005" y="-291.5" font-family="Helvetica,sans-Serif" font-size="10.00"> </text>
<polygon fill="#666666" stroke="#666666" points="940,-316.5 940,-316.5 1074,-316.5 1074,-316.5 940,-316.5"/>
<polygon fill="#666666" stroke="#666666" points="940,-301.5 940,-301.5 1074,-301.5 1074,-301.5 940,-301.5"/>
<polygon fill="none" stroke="#666666" points="940,-284.5 940,-344.5 1074,-344.5 1074,-284.5 940,-284.5"/>
</a>
</g>
</g>
<!-- Node9&#45;&gt;Node1 -->
<g id="edge8_Node000001_Node000009" class="edge">
<title>Node9&#45;&gt;Node1</title>
<g id="a_edge8_Node000001_Node000009"><a xlink:title=" ">
<path fill="none" stroke="#63b8ff" d="M992.85,-284.43C977.62,-253.52 954.66,-208.22 948,-202 898.82,-156.06 827.05,-127.24 773.89,-110.86"/>
<polygon fill="none" stroke="#63b8ff" points="773.67,-110.8 766.77,-112.91 762.17,-107.36 769.07,-105.25 773.67,-110.8"/>
</a>
</g>
<text text-anchor="middle" x="1040" y="-227" font-family="Helvetica,sans-Serif" font-size="10.00" fill="grey"> &#45;element_edit_instancer</text>
</g>
<!-- Node10 -->
<g id="Node000010" class="node">
<title>Node10</title>
<g id="a_Node000010"><a xlink:href="classEventListenerInstancer.html" target="_top" xlink:title=" ">
<polygon fill="white" stroke="transparent" points="1241.5,-354 1092.5,-354 1092.5,-275 1241.5,-275 1241.5,-354"/>
<text text-anchor="start" x="1111.5" y="-341.5" font-family="Helvetica,sans-Serif" font-size="10.00">EventListenerInstancer</text>
<text text-anchor="start" x="1165.5" y="-326.5" font-family="Helvetica,sans-Serif" font-size="10.00"> </text>
<text text-anchor="start" x="1097" y="-311.5" font-family="Helvetica,sans-Serif" font-size="10.00">+</text>
<text text-anchor="start" x="1110" y="-311.5" font-family="Helvetica,sans-Serif" font-size="10.00">EventListenerInstancer()</text>
<text text-anchor="start" x="1097" y="-296.5" font-family="Helvetica,sans-Serif" font-size="10.00">+</text>
<text text-anchor="start" x="1110" y="-296.5" font-family="Helvetica,sans-Serif" font-size="10.00">~EventListenerInstancer()</text>
<text text-anchor="start" x="1097" y="-281.5" font-family="Helvetica,sans-Serif" font-size="10.00">+</text>
<text text-anchor="start" x="1110" y="-281.5" font-family="Helvetica,sans-Serif" font-size="10.00">InstanceEventListener()</text>
<polygon fill="#666666" stroke="#666666" points="1093,-336.5 1093,-336.5 1242,-336.5 1242,-336.5 1093,-336.5"/>
<polygon fill="#666666" stroke="#666666" points="1093,-321.5 1093,-321.5 1242,-321.5 1242,-321.5 1093,-321.5"/>
<polygon fill="none" stroke="#666666" points="1092.5,-275 1092.5,-354 1241.5,-354 1241.5,-275 1092.5,-275"/>
</a>
</g>
</g>
<!-- Node10&#45;&gt;Node1 -->
<g id="edge9_Node000001_Node000010" class="edge">
<title>Node10&#45;&gt;Node1</title>
<g id="a_edge9_Node000001_Node000010"><a xlink:title=" ">
<path fill="none" stroke="#63b8ff" d="M1137.11,-274.76C1133.16,-268.95 1129.32,-262.92 1126,-257 1113.02,-233.9 1122.91,-219.48 1103,-202 1010.1,-120.46 861.83,-99.27 774.28,-94.15"/>
<polygon fill="none" stroke="#63b8ff" points="774.07,-94.14 767.87,-97.82 762.08,-93.52 768.28,-89.83 774.07,-94.14"/>
</a>
</g>
<text text-anchor="middle" x="1189.5" y="-227" font-family="Helvetica,sans-Serif" font-size="10.00" fill="grey"> &#45;event_listener_instancer</text>
</g>
<!-- Node11 -->
<g id="Node000011" class="node">
<title>Node11</title>
<g id="a_Node000011"><a xlink:title=" ">
<polygon fill="white" stroke="transparent" points="1241,-440 1093,-440 1093,-391 1241,-391 1241,-440"/>
<text text-anchor="start" x="1098" y="-427.5" font-family="Helvetica,sans-Serif" font-size="10.00">Rml::EventListenerInstancer</text>
<text text-anchor="start" x="1165" y="-412.5" font-family="Helvetica,sans-Serif" font-size="10.00"> </text>
<text text-anchor="start" x="1165" y="-397.5" font-family="Helvetica,sans-Serif" font-size="10.00"> </text>
<polygon fill="#666666" stroke="#666666" points="1093,-422.5 1093,-422.5 1241,-422.5 1241,-422.5 1093,-422.5"/>
<polygon fill="#666666" stroke="#666666" points="1093,-407.5 1093,-407.5 1241,-407.5 1241,-407.5 1093,-407.5"/>
<polygon fill="none" stroke="#666666" points="1093,-391 1093,-440 1241,-440 1241,-391 1093,-391"/>
</a>
</g>
</g>
<!-- Node11&#45;&gt;Node10 -->
<g id="edge10_Node000010_Node000011" class="edge">
<title>Node11&#45;&gt;Node10</title>
<g id="a_edge10_Node000010_Node000011"><a xlink:title=" ">
<path fill="none" stroke="#63b8ff" d="M1167,-380.75C1167,-372.18 1167,-362.89 1167,-354.09"/>
<polygon fill="none" stroke="#63b8ff" points="1163.5,-380.79 1167,-390.79 1170.5,-380.79 1163.5,-380.79"/>
</a>
</g>
</g>
<!-- Node12 -->
<g id="Node000012" class="node">
<title>Node12</title>
<g id="a_Node000012"><a xlink:title=" ">
<polygon fill="white" stroke="transparent" points="1291,-339 1259,-339 1259,-290 1291,-290 1291,-339"/>
<text text-anchor="start" x="1264" y="-326.5" font-family="Helvetica,sans-Serif" font-size="10.00">bool</text>
<text text-anchor="start" x="1273" y="-311.5" font-family="Helvetica,sans-Serif" font-size="10.00"> </text>
<text text-anchor="start" x="1273" y="-296.5" font-family="Helvetica,sans-Serif" font-size="10.00"> </text>
<polygon fill="#666666" stroke="#666666" points="1259,-321.5 1259,-321.5 1291,-321.5 1291,-321.5 1259,-321.5"/>
<polygon fill="#666666" stroke="#666666" points="1259,-306.5 1259,-306.5 1291,-306.5 1291,-306.5 1259,-306.5"/>
<polygon fill="none" stroke="#666666" points="1259,-290 1259,-339 1291,-339 1291,-290 1259,-290"/>
</a>
</g>
</g>
<!-- Node12&#45;&gt;Node1 -->
<g id="edge11_Node000001_Node000012" class="edge">
<title>Node12&#45;&gt;Node1</title>
<g id="a_edge11_Node000001_Node000012"><a xlink:title=" ">
<path fill="none" stroke="#63b8ff" d="M1273.39,-290C1270.9,-261.02 1265.1,-214.11 1253,-202 1186.61,-135.56 907.79,-107.35 774.52,-97.49"/>
<polygon fill="none" stroke="#63b8ff" points="774.44,-97.48 768.17,-101.04 762.48,-96.61 768.75,-93.06 774.44,-97.48"/>
</a>
</g>
<text text-anchor="middle" x="1322.5" y="-232.5" font-family="Helvetica,sans-Serif" font-size="10.00" fill="grey"> &#45;m_isWindowOpened</text>
<text text-anchor="middle" x="1322.5" y="-221.5" font-family="Helvetica,sans-Serif" font-size="10.00" fill="grey">&#45;m_running</text>
</g>
<!-- Node13 -->
<g id="Node000013" class="node">
<title>Node13</title>
<g id="a_Node000013"><a xlink:title=" ">
<polygon fill="white" stroke="transparent" points="1426,-339 1384,-339 1384,-290 1426,-290 1426,-339"/>
<text text-anchor="start" x="1389" y="-326.5" font-family="Helvetica,sans-Serif" font-size="10.00">thread</text>
<text text-anchor="start" x="1403" y="-311.5" font-family="Helvetica,sans-Serif" font-size="10.00"> </text>
<text text-anchor="start" x="1403" y="-296.5" font-family="Helvetica,sans-Serif" font-size="10.00"> </text>
<polygon fill="#666666" stroke="#666666" points="1384,-321.5 1384,-321.5 1426,-321.5 1426,-321.5 1384,-321.5"/>
<polygon fill="#666666" stroke="#666666" points="1384,-306.5 1384,-306.5 1426,-306.5 1426,-306.5 1384,-306.5"/>
<polygon fill="none" stroke="#666666" points="1384,-290 1384,-339 1426,-339 1426,-290 1384,-290"/>
</a>
</g>
</g>
<!-- Node13&#45;&gt;Node1 -->
<g id="edge12_Node000001_Node000013" class="edge">
<title>Node13&#45;&gt;Node1</title>
<g id="a_edge12_Node000001_Node000013"><a xlink:title=" ">
<path fill="none" stroke="#63b8ff" d="M1406.81,-289.75C1407.33,-264.27 1403.84,-224.43 1380,-202 1293.42,-120.54 929.89,-99.84 774.23,-94.68"/>
<polygon fill="none" stroke="#63b8ff" points="774.04,-94.67 767.92,-98.48 762.05,-94.29 768.17,-90.48 774.04,-94.67"/>
</a>
</g>
<text text-anchor="middle" x="1468" y="-227" font-family="Helvetica,sans-Serif" font-size="10.00" fill="grey"> &#45;m_hotkeyListenerThread</text>
</g>
</g>
</svg>

<g id="navigator" transform="translate(0 0)" fill="#404254">
  <rect fill="#f2f5e9" fill-opacity="0.5" stroke="#606060" stroke-width=".5" x="0" y="0" width="60" height="60"/>
  <use id="zoomplus" xlink:href="#zoomPlus" x="17" y="9" onmousedown="handleZoom(evt,'in')"/>
  <use id="zoomminus" xlink:href="#zoomMin" x="42" y="9" onmousedown="handleZoom(evt,'out')"/>
  <use id="reset" xlink:href="#resetDef" x="30" y="36" onmousedown="handleReset()"/>
   <use id="arrowup" xlink:href="#arrowUp" x="0" y="0" onmousedown="handlePan(0,-1)"/>
  <use id="arrowright" xlink:href="#arrowRight" x="0" y="0" onmousedown="handlePan(1,0)"/>
  <use id="arrowdown" xlink:href="#arrowDown" x="0" y="0" onmousedown="handlePan(0,1)"/>
  <use id="arrowleft" xlink:href="#arrowLeft" x="0" y="0" onmousedown="handlePan(-1,0)"/>
</g>
<svg viewBox="0 0 15 15" width="100%" height="30px" preserveAspectRatio="xMaxYMin meet">
 <g id="arrow_out" transform="scale(0.3 0.3)">
  <a xlink:href="classClipboardXX__coll__graph_org.svg" target="_base">
   <rect id="button" ry="5" rx="5" y="6" x="6" height="38" width="38"
        fill="#f2f5e9" fill-opacity="0.5" stroke="#606060" stroke-width="1.0"/>
   <path id="arrow"
     d="M 11.500037,31.436501 C 11.940474,20.09759 22.043105,11.32322 32.158766,21.979434 L 37.068811,17.246167 C 37.068811,17.246167 37.088388,32 37.088388,32 L 22.160133,31.978069 C 22.160133,31.978069 26.997745,27.140456 26.997745,27.140456 C 18.528582,18.264221 13.291696,25.230495 11.500037,31.436501 z"
     style="fill:#404040;"/>
  </a>
 </g>
</svg>

<style type='text/css'>
<![CDATA[
[data-mouse-over-selected='false'] { opacity: 0.7; }
[data-mouse-over-selected='true']  { opacity: 1.0; }
]]>
</style>
<script type="application/ecmascript"><![CDATA[
document.addEventListener('DOMContentLoaded', (event) => {
  highlightEdges();
  highlightAdjacentNodes();
});
]]></script>
</svg>
