<?xml version="1.0" encoding="UTF-8" standalone="no"?>
<!DOCTYPE svg PUBLIC "-//W3C//DTD SVG 1.1//EN"
 "http://www.w3.org/Graphics/SVG/1.1/DTD/svg11.dtd">
<!-- Generated by graphviz version 2.43.0 (0)
 -->
<!-- Title: EditEvent Pages: 1 -->
<svg width="553pt" height="641pt"
 viewBox="0.00 0.00 553.00 641.00" xmlns="http://www.w3.org/2000/svg" xmlns:xlink="http://www.w3.org/1999/xlink">
<g id="graph0" class="graph" transform="scale(1 1) rotate(0) translate(4 637)">
<title>EditEvent</title>
<!-- Node1 -->
<g id="Node000001" class="node">
<title>Node1</title>
<g id="a_Node000001"><a xlink:title=" ">
<polygon fill="#999999" stroke="transparent" points="246,-79 162,-79 162,0 246,0 246,-79"/>
<text text-anchor="start" x="180.5" y="-66.5" font-family="Helvetica,sans-Serif" font-size="10.00">EditEvent</text>
<text text-anchor="start" x="202" y="-51.5" font-family="Helvetica,sans-Serif" font-size="10.00"> </text>
<text text-anchor="start" x="166" y="-36.5" font-family="Helvetica,sans-Serif" font-size="10.00">+</text>
<text text-anchor="start" x="179" y="-36.5" font-family="Helvetica,sans-Serif" font-size="10.00">EditEvent()</text>
<text text-anchor="start" x="166" y="-21.5" font-family="Helvetica,sans-Serif" font-size="10.00">+</text>
<text text-anchor="start" x="179" y="-21.5" font-family="Helvetica,sans-Serif" font-size="10.00">~EditEvent()</text>
<text text-anchor="start" x="166" y="-6.5" font-family="Helvetica,sans-Serif" font-size="10.00">+</text>
<text text-anchor="start" x="179" y="-6.5" font-family="Helvetica,sans-Serif" font-size="10.00">handle()</text>
<polygon fill="#666666" stroke="#666666" points="162,-61.5 162,-61.5 246,-61.5 246,-61.5 162,-61.5"/>
<polygon fill="#666666" stroke="#666666" points="162,-46.5 162,-46.5 246,-46.5 246,-46.5 162,-46.5"/>
<polygon fill="none" stroke="#666666" points="162,0 162,-79 246,-79 246,0 162,0"/>
</a>
</g>
</g>
<!-- Node2 -->
<g id="Node000002" class="node">
<title>Node2</title>
<g id="a_Node000002"><a xlink:href="classClipboardEvent.html" target="_top" xlink:title=" ">
<polygon fill="white" stroke="transparent" points="112,-265 0,-265 0,-201 112,-201 112,-265"/>
<text text-anchor="start" x="18.5" y="-253" font-family="Helvetica,sans-Serif" font-size="10.00">ClipboardEvent</text>
<text text-anchor="start" x="54" y="-238" font-family="Helvetica,sans-Serif" font-size="10.00"> </text>
<text text-anchor="start" x="4" y="-223" font-family="Helvetica,sans-Serif" font-size="10.00">+</text>
<text text-anchor="start" x="17" y="-223" font-family="Helvetica,sans-Serif" font-size="10.00">~ClipboardEvent()</text>
<text text-anchor="start" x="4" y="-208" font-family="Helvetica,sans-Serif" font-size="10.00">+</text>
<text text-anchor="start" x="17" y="-208" font-family="Helvetica,sans-Serif" font-size="10.00">handle()</text>
<polygon fill="#666666" stroke="#666666" points="0,-248 0,-248 112,-248 112,-248 0,-248"/>
<polygon fill="#666666" stroke="#666666" points="0,-233 0,-233 112,-233 112,-233 0,-233"/>
<polygon fill="none" stroke="#666666" points="0,-201 0,-265 112,-265 112,-201 0,-201"/>
</a>
</g>
</g>
<!-- Node2&#45;&gt;Node1 -->
<g id="edge1_Node000001_Node000002" class="edge">
<title>Node2&#45;&gt;Node1</title>
<g id="a_edge1_Node000001_Node000002"><a xlink:title=" ">
<path fill="none" stroke="#63b8ff" d="M77.77,-191.91C89.56,-171.47 104.97,-146.64 121,-126 133.56,-109.82 148.82,-93.37 162.81,-79.28"/>
<polygon fill="none" stroke="#63b8ff" points="74.69,-190.24 72.79,-200.67 80.78,-193.71 74.69,-190.24"/>
</a>
</g>
</g>
<!-- Node3 -->
<g id="Node000003" class="node">
<title>Node3</title>
<g id="a_Node000003"><a xlink:href="classMemoryCellManager.html" target="_top" xlink:title=" ">
<polygon fill="white" stroke="transparent" points="278,-340 130,-340 130,-126 278,-126 278,-340"/>
<text text-anchor="start" x="152.5" y="-328" font-family="Helvetica,sans-Serif" font-size="10.00">MemoryCellManager</text>
<text text-anchor="start" x="202" y="-313" font-family="Helvetica,sans-Serif" font-size="10.00"> </text>
<text text-anchor="start" x="134" y="-298" font-family="Helvetica,sans-Serif" font-size="10.00">+</text>
<text text-anchor="start" x="147" y="-298" font-family="Helvetica,sans-Serif" font-size="10.00">getMemoryCellCount()</text>
<text text-anchor="start" x="134" y="-283" font-family="Helvetica,sans-Serif" font-size="10.00">+</text>
<text text-anchor="start" x="147" y="-283" font-family="Helvetica,sans-Serif" font-size="10.00">getMemoryCell()</text>
<text text-anchor="start" x="134" y="-268" font-family="Helvetica,sans-Serif" font-size="10.00">+</text>
<text text-anchor="start" x="147" y="-268" font-family="Helvetica,sans-Serif" font-size="10.00">addMemoryCell()</text>
<text text-anchor="start" x="134" y="-253" font-family="Helvetica,sans-Serif" font-size="10.00">+</text>
<text text-anchor="start" x="147" y="-253" font-family="Helvetica,sans-Serif" font-size="10.00">initialize()</text>
<text text-anchor="start" x="134" y="-238" font-family="Helvetica,sans-Serif" font-size="10.00">+</text>
<text text-anchor="start" x="147" y="-238" font-family="Helvetica,sans-Serif" font-size="10.00">cleanup()</text>
<text text-anchor="start" x="134" y="-223" font-family="Helvetica,sans-Serif" font-size="10.00">+</text>
<text text-anchor="start" x="147" y="-223" font-family="Helvetica,sans-Serif" font-size="10.00">setSelectedCell()</text>
<text text-anchor="start" x="134" y="-208" font-family="Helvetica,sans-Serif" font-size="10.00">+</text>
<text text-anchor="start" x="147" y="-208" font-family="Helvetica,sans-Serif" font-size="10.00">getSelectedCell()</text>
<text text-anchor="start" x="134" y="-193" font-family="Helvetica,sans-Serif" font-size="10.00">+</text>
<text text-anchor="start" x="147" y="-193" font-family="Helvetica,sans-Serif" font-size="10.00">loadCells()</text>
<text text-anchor="start" x="134" y="-178" font-family="Helvetica,sans-Serif" font-size="10.00">+</text>
<text text-anchor="start" x="147" y="-178" font-family="Helvetica,sans-Serif" font-size="10.00">getContents()</text>
<text text-anchor="start" x="134" y="-163" font-family="Helvetica,sans-Serif" font-size="10.00">+</text>
<text text-anchor="start" x="147" y="-163" font-family="Helvetica,sans-Serif" font-size="10.00">moveContentsOneDown()</text>
<text text-anchor="start" x="134" y="-148" font-family="Helvetica,sans-Serif" font-size="10.00">+</text>
<text text-anchor="start" x="147" y="-148" font-family="Helvetica,sans-Serif" font-size="10.00">Instance()</text>
<text text-anchor="start" x="134" y="-133" font-family="Helvetica,sans-Serif" font-size="10.00">#</text>
<text text-anchor="start" x="147" y="-133" font-family="Helvetica,sans-Serif" font-size="10.00">MemoryCellManager()</text>
<polygon fill="#666666" stroke="#666666" points="130,-323 130,-323 278,-323 278,-323 130,-323"/>
<polygon fill="#666666" stroke="#666666" points="130,-308 130,-308 278,-308 278,-308 130,-308"/>
<polygon fill="none" stroke="#666666" points="130,-126 130,-340 278,-340 278,-126 130,-126"/>
</a>
</g>
</g>
<!-- Node3&#45;&gt;Node1 -->
<g id="edge2_Node000001_Node000003" class="edge">
<title>Node3&#45;&gt;Node1</title>
<g id="a_edge2_Node000001_Node000003"><a xlink:title=" ">
<path fill="none" stroke="#63b8ff" d="M204,-125.89C204,-113.86 204,-102.04 204,-91.23"/>
<polygon fill="none" stroke="#63b8ff" points="204,-91.03 200,-85.03 204,-79.03 208,-85.03 204,-91.03"/>
</a>
</g>
<text text-anchor="middle" x="266.5" y="-100" font-family="Helvetica,sans-Serif" font-size="10.00" fill="grey"> &#45;m_memoryCellManager</text>
</g>
<!-- Node4 -->
<g id="Node000004" class="node">
<title>Node4</title>
<g id="a_Node000004"><a xlink:title=" ">
<polygon fill="white" stroke="transparent" points="198.5,-486.5 45.5,-486.5 45.5,-426.5 198.5,-426.5 198.5,-486.5"/>
<text text-anchor="start" x="51" y="-474.5" font-family="Helvetica,sans-Serif" font-size="10.00">vector&lt; std::unique</text>
<text text-anchor="start" x="51" y="-463.5" font-family="Helvetica,sans-Serif" font-size="10.00">_ptr&lt; ClipboardInterface &gt; &gt;</text>
<text text-anchor="start" x="120.5" y="-448.5" font-family="Helvetica,sans-Serif" font-size="10.00"> </text>
<text text-anchor="start" x="120.5" y="-433.5" font-family="Helvetica,sans-Serif" font-size="10.00"> </text>
<polygon fill="#666666" stroke="#666666" points="46,-458.5 46,-458.5 199,-458.5 199,-458.5 46,-458.5"/>
<polygon fill="#666666" stroke="#666666" points="46,-443.5 46,-443.5 199,-443.5 199,-443.5 46,-443.5"/>
<polygon fill="none" stroke="#666666" points="45.5,-426.5 45.5,-486.5 198.5,-486.5 198.5,-426.5 45.5,-426.5"/>
</a>
</g>
</g>
<!-- Node4&#45;&gt;Node3 -->
<g id="edge3_Node000003_Node000004" class="edge">
<title>Node4&#45;&gt;Node3</title>
<g id="a_edge3_Node000003_Node000004"><a xlink:title=" ">
<path fill="none" stroke="#63b8ff" d="M120.98,-426.25C121.11,-406.52 122.9,-380.16 130,-358 130.69,-355.85 131.42,-353.71 132.19,-351.56"/>
<polygon fill="none" stroke="#63b8ff" points="132.29,-351.29 130.74,-344.24 136.65,-340.1 138.2,-347.15 132.29,-351.29"/>
</a>
</g>
<text text-anchor="middle" x="174" y="-361" font-family="Helvetica,sans-Serif" font-size="10.00" fill="grey"> &#45;m_memoryCells</text>
</g>
<!-- Node5 -->
<g id="Node000005" class="node">
<title>Node5</title>
<g id="a_Node000005"><a xlink:title=" ">
<polygon fill="white" stroke="transparent" points="255.5,-481 216.5,-481 216.5,-432 255.5,-432 255.5,-481"/>
<text text-anchor="start" x="222" y="-468.5" font-family="Helvetica,sans-Serif" font-size="10.00">size_t</text>
<text text-anchor="start" x="234.5" y="-453.5" font-family="Helvetica,sans-Serif" font-size="10.00"> </text>
<text text-anchor="start" x="234.5" y="-438.5" font-family="Helvetica,sans-Serif" font-size="10.00"> </text>
<polygon fill="#666666" stroke="#666666" points="217,-463.5 217,-463.5 256,-463.5 256,-463.5 217,-463.5"/>
<polygon fill="#666666" stroke="#666666" points="217,-448.5 217,-448.5 256,-448.5 256,-448.5 217,-448.5"/>
<polygon fill="none" stroke="#666666" points="216.5,-432 216.5,-481 255.5,-481 255.5,-432 216.5,-432"/>
</a>
</g>
</g>
<!-- Node5&#45;&gt;Node3 -->
<g id="edge4_Node000003_Node000005" class="edge">
<title>Node5&#45;&gt;Node3</title>
<g id="a_edge4_Node000003_Node000005"><a xlink:title=" ">
<path fill="none" stroke="#63b8ff" d="M232.58,-431.8C229.74,-412.14 225.47,-382.6 221.09,-352.31"/>
<polygon fill="none" stroke="#63b8ff" points="221.06,-352.1 216.25,-346.73 219.35,-340.22 224.16,-345.59 221.06,-352.1"/>
</a>
</g>
<text text-anchor="middle" x="256.5" y="-361" font-family="Helvetica,sans-Serif" font-size="10.00" fill="grey"> &#45;selectedCell</text>
</g>
<!-- Node6 -->
<g id="Node000006" class="node">
<title>Node6</title>
<g id="a_Node000006"><a xlink:href="classEditViewModel.html" target="_top" xlink:title=" ">
<polygon fill="white" stroke="transparent" points="426,-310 296,-310 296,-156 426,-156 426,-310"/>
<text text-anchor="start" x="324.5" y="-298" font-family="Helvetica,sans-Serif" font-size="10.00">EditViewModel</text>
<text text-anchor="start" x="359" y="-283" font-family="Helvetica,sans-Serif" font-size="10.00"> </text>
<text text-anchor="start" x="300" y="-268" font-family="Helvetica,sans-Serif" font-size="10.00">+</text>
<text text-anchor="start" x="313" y="-268" font-family="Helvetica,sans-Serif" font-size="10.00">RegisterKey()</text>
<text text-anchor="start" x="300" y="-253" font-family="Helvetica,sans-Serif" font-size="10.00">+</text>
<text text-anchor="start" x="313" y="-253" font-family="Helvetica,sans-Serif" font-size="10.00">ResetNewShortCut()</text>
<text text-anchor="start" x="300" y="-238" font-family="Helvetica,sans-Serif" font-size="10.00">+</text>
<text text-anchor="start" x="313" y="-238" font-family="Helvetica,sans-Serif" font-size="10.00">GetNewShortCut()</text>
<text text-anchor="start" x="300" y="-223" font-family="Helvetica,sans-Serif" font-size="10.00">+</text>
<text text-anchor="start" x="313" y="-223" font-family="Helvetica,sans-Serif" font-size="10.00">SetSelectedShortCut()</text>
<text text-anchor="start" x="300" y="-208" font-family="Helvetica,sans-Serif" font-size="10.00">+</text>
<text text-anchor="start" x="313" y="-208" font-family="Helvetica,sans-Serif" font-size="10.00">GetSelectedShortCut()</text>
<text text-anchor="start" x="300" y="-193" font-family="Helvetica,sans-Serif" font-size="10.00">+</text>
<text text-anchor="start" x="313" y="-193" font-family="Helvetica,sans-Serif" font-size="10.00">Instance()</text>
<text text-anchor="start" x="300" y="-178" font-family="Helvetica,sans-Serif" font-size="10.00">#</text>
<text text-anchor="start" x="313" y="-178" font-family="Helvetica,sans-Serif" font-size="10.00">EditViewModel()</text>
<text text-anchor="start" x="300" y="-163" font-family="Helvetica,sans-Serif" font-size="10.00">#</text>
<text text-anchor="start" x="313" y="-163" font-family="Helvetica,sans-Serif" font-size="10.00">~EditViewModel()</text>
<polygon fill="#666666" stroke="#666666" points="296,-293 296,-293 426,-293 426,-293 296,-293"/>
<polygon fill="#666666" stroke="#666666" points="296,-278 296,-278 426,-278 426,-278 296,-278"/>
<polygon fill="none" stroke="#666666" points="296,-156 296,-310 426,-310 426,-156 296,-156"/>
</a>
</g>
</g>
<!-- Node6&#45;&gt;Node1 -->
<g id="edge5_Node000001_Node000006" class="edge">
<title>Node6&#45;&gt;Node1</title>
<g id="a_edge5_Node000001_Node000006"><a xlink:title=" ">
<path fill="none" stroke="#63b8ff" d="M357.93,-155.73C353.89,-134.91 346.42,-113.55 333,-97 314.31,-73.94 284.33,-60.05 257.98,-51.81"/>
<polygon fill="none" stroke="#63b8ff" points="257.71,-51.73 250.84,-53.92 246.18,-48.41 253.05,-46.23 257.71,-51.73"/>
</a>
</g>
<text text-anchor="middle" x="387.5" y="-100" font-family="Helvetica,sans-Serif" font-size="10.00" fill="grey"> &#45;m_editViewModel</text>
</g>
<!-- Node7 -->
<g id="Node000007" class="node">
<title>Node7</title>
<g id="a_Node000007"><a xlink:title=" ">
<polygon fill="white" stroke="transparent" points="406.5,-633 303.5,-633 303.5,-573 406.5,-573 406.5,-633"/>
<text text-anchor="start" x="309" y="-621" font-family="Helvetica,sans-Serif" font-size="10.00">vector&lt; Rml::Input</text>
<text text-anchor="start" x="316" y="-610" font-family="Helvetica,sans-Serif" font-size="10.00">::KeyIdentifier &gt;</text>
<text text-anchor="start" x="353.5" y="-595" font-family="Helvetica,sans-Serif" font-size="10.00"> </text>
<text text-anchor="start" x="353.5" y="-580" font-family="Helvetica,sans-Serif" font-size="10.00"> </text>
<polygon fill="#666666" stroke="#666666" points="304,-605 304,-605 407,-605 407,-605 304,-605"/>
<polygon fill="#666666" stroke="#666666" points="304,-590 304,-590 407,-590 407,-590 304,-590"/>
<polygon fill="none" stroke="#666666" points="303.5,-573 303.5,-633 406.5,-633 406.5,-573 303.5,-573"/>
</a>
</g>
</g>
<!-- Node7&#45;&gt;Node6 -->
<g id="edge6_Node000006_Node000007" class="edge">
<title>Node7&#45;&gt;Node6</title>
<g id="a_edge6_Node000006_Node000007"><a xlink:title=" ">
<path fill="none" stroke="#63b8ff" d="M351.68,-572.81C350.23,-558.69 348.71,-541.49 348,-526 345.16,-464.29 345.38,-448.72 348,-387 348.89,-365.97 350.47,-343.37 352.23,-322.15"/>
<polygon fill="none" stroke="#63b8ff" points="352.23,-322.14 348.75,-315.82 353.25,-310.19 356.72,-316.5 352.23,-322.14"/>
</a>
</g>
<text text-anchor="middle" x="383" y="-454" font-family="Helvetica,sans-Serif" font-size="10.00" fill="grey"> &#45;newShortCut</text>
</g>
<!-- Node8 -->
<g id="Node000008" class="node">
<title>Node8</title>
<g id="a_Node000008"><a xlink:href="classKeyShortCut.html" target="_top" xlink:title=" ">
<polygon fill="#fff0f0" stroke="transparent" points="545,-526 427,-526 427,-387 545,-387 545,-526"/>
<text text-anchor="start" x="455.5" y="-513.5" font-family="Helvetica,sans-Serif" font-size="10.00">KeyShortCut</text>
<text text-anchor="start" x="484" y="-498.5" font-family="Helvetica,sans-Serif" font-size="10.00"> </text>
<text text-anchor="start" x="431" y="-483.5" font-family="Helvetica,sans-Serif" font-size="10.00">+</text>
<text text-anchor="start" x="444" y="-483.5" font-family="Helvetica,sans-Serif" font-size="10.00">KeyShortCut()</text>
<text text-anchor="start" x="431" y="-468.5" font-family="Helvetica,sans-Serif" font-size="10.00">+</text>
<text text-anchor="start" x="444" y="-468.5" font-family="Helvetica,sans-Serif" font-size="10.00">getShortCut()</text>
<text text-anchor="start" x="431" y="-453.5" font-family="Helvetica,sans-Serif" font-size="10.00">+</text>
<text text-anchor="start" x="444" y="-453.5" font-family="Helvetica,sans-Serif" font-size="10.00">setShortCut()</text>
<text text-anchor="start" x="431" y="-438.5" font-family="Helvetica,sans-Serif" font-size="10.00">+</text>
<text text-anchor="start" x="444" y="-438.5" font-family="Helvetica,sans-Serif" font-size="10.00">getEvent()</text>
<text text-anchor="start" x="431" y="-423.5" font-family="Helvetica,sans-Serif" font-size="10.00">+</text>
<text text-anchor="start" x="444" y="-423.5" font-family="Helvetica,sans-Serif" font-size="10.00">operator==()</text>
<text text-anchor="start" x="431" y="-408.5" font-family="Helvetica,sans-Serif" font-size="10.00">+</text>
<text text-anchor="start" x="444" y="-408.5" font-family="Helvetica,sans-Serif" font-size="10.00">toString()</text>
<text text-anchor="start" x="431" y="-393.5" font-family="Helvetica,sans-Serif" font-size="10.00">+</text>
<text text-anchor="start" x="444" y="-393.5" font-family="Helvetica,sans-Serif" font-size="10.00">toStringTranslated()</text>
<polygon fill="red" stroke="red" points="427,-508.5 427,-508.5 545,-508.5 545,-508.5 427,-508.5"/>
<polygon fill="red" stroke="red" points="427,-493.5 427,-493.5 545,-493.5 545,-493.5 427,-493.5"/>
<polygon fill="none" stroke="red" points="427,-387 427,-526 545,-526 545,-387 427,-387"/>
</a>
</g>
</g>
<!-- Node7&#45;&gt;Node8 -->
<g id="edge8_Node000008_Node000007" class="edge">
<title>Node7&#45;&gt;Node8</title>
<g id="a_edge8_Node000008_Node000007"><a xlink:title=" ">
<path fill="none" stroke="#63b8ff" d="M381.51,-572.76C392.34,-560.81 405.42,-546.39 418.59,-531.85"/>
<polygon fill="none" stroke="#63b8ff" points="418.73,-531.7 419.8,-524.57 426.79,-522.81 425.72,-529.94 418.73,-531.7"/>
</a>
</g>
<text text-anchor="middle" x="467" y="-547" font-family="Helvetica,sans-Serif" font-size="10.00" fill="grey"> &#45;m_shortCutCombination</text>
</g>
<!-- Node8&#45;&gt;Node6 -->
<g id="edge7_Node000006_Node000008" class="edge">
<title>Node8&#45;&gt;Node6</title>
<g id="a_edge7_Node000006_Node000008"><a xlink:title=" ">
<path fill="none" stroke="#63b8ff" d="M447.31,-386.93C435.54,-366.08 422.44,-342.88 410.08,-320.98"/>
<polygon fill="none" stroke="#63b8ff" points="409.98,-320.8 403.55,-317.54 404.09,-310.35 410.52,-313.61 409.98,-320.8"/>
</a>
</g>
<text text-anchor="middle" x="487" y="-361" font-family="Helvetica,sans-Serif" font-size="10.00" fill="grey"> &#45;m_selectedShortCut</text>
</g>
</g>
</svg>
