<?xml version="1.0" encoding="UTF-8" standalone="no"?>
<!DOCTYPE svg PUBLIC "-//W3C//DTD SVG 1.1//EN"
 "http://www.w3.org/Graphics/SVG/1.1/DTD/svg11.dtd">
<!-- Generated by graphviz version 2.43.0 (0)
 -->
<!-- Title: FileManager Pages: 1 -->
<svg width="272pt" height="425pt"
 viewBox="0.00 0.00 271.50 425.00" xmlns="http://www.w3.org/2000/svg" xmlns:xlink="http://www.w3.org/1999/xlink">
<g id="graph0" class="graph" transform="scale(1 1) rotate(0) translate(4 421)">
<title>FileManager</title>
<!-- Node1 -->
<g id="Node000001" class="node">
<title>Node1</title>
<g id="a_Node000001"><a xlink:title=" ">
<polygon fill="#999999" stroke="transparent" points="115,-169 3,-169 3,0 115,0 115,-169"/>
<text text-anchor="start" x="28.5" y="-156.5" font-family="Helvetica,sans-Serif" font-size="10.00">FileManager</text>
<text text-anchor="start" x="57" y="-141.5" font-family="Helvetica,sans-Serif" font-size="10.00"> </text>
<text text-anchor="start" x="7" y="-126.5" font-family="Helvetica,sans-Serif" font-size="10.00">+</text>
<text text-anchor="start" x="20" y="-126.5" font-family="Helvetica,sans-Serif" font-size="10.00">getLastFile()</text>
<text text-anchor="start" x="7" y="-111.5" font-family="Helvetica,sans-Serif" font-size="10.00">+</text>
<text text-anchor="start" x="20" y="-111.5" font-family="Helvetica,sans-Serif" font-size="10.00">searchImportFile()</text>
<text text-anchor="start" x="7" y="-96.5" font-family="Helvetica,sans-Serif" font-size="10.00">+</text>
<text text-anchor="start" x="20" y="-96.5" font-family="Helvetica,sans-Serif" font-size="10.00">searchExportFile()</text>
<text text-anchor="start" x="7" y="-81.5" font-family="Helvetica,sans-Serif" font-size="10.00">+</text>
<text text-anchor="start" x="20" y="-81.5" font-family="Helvetica,sans-Serif" font-size="10.00">readFile()</text>
<text text-anchor="start" x="7" y="-66.5" font-family="Helvetica,sans-Serif" font-size="10.00">+</text>
<text text-anchor="start" x="20" y="-66.5" font-family="Helvetica,sans-Serif" font-size="10.00">exportFile()</text>
<text text-anchor="start" x="7" y="-51.5" font-family="Helvetica,sans-Serif" font-size="10.00">+</text>
<text text-anchor="start" x="20" y="-51.5" font-family="Helvetica,sans-Serif" font-size="10.00">showErrorDialog()</text>
<text text-anchor="start" x="7" y="-36.5" font-family="Helvetica,sans-Serif" font-size="10.00">+</text>
<text text-anchor="start" x="20" y="-36.5" font-family="Helvetica,sans-Serif" font-size="10.00">showGoodDialog()</text>
<text text-anchor="start" x="7" y="-21.5" font-family="Helvetica,sans-Serif" font-size="10.00">+</text>
<text text-anchor="start" x="20" y="-21.5" font-family="Helvetica,sans-Serif" font-size="10.00">Instance()</text>
<text text-anchor="start" x="7" y="-6.5" font-family="Helvetica,sans-Serif" font-size="10.00">#</text>
<text text-anchor="start" x="20" y="-6.5" font-family="Helvetica,sans-Serif" font-size="10.00">FileManager()</text>
<polygon fill="#666666" stroke="#666666" points="3,-151.5 3,-151.5 115,-151.5 115,-151.5 3,-151.5"/>
<polygon fill="#666666" stroke="#666666" points="3,-136.5 3,-136.5 115,-136.5 115,-136.5 3,-136.5"/>
<polygon fill="none" stroke="#666666" points="3,0 3,-169 115,-169 115,0 3,0"/>
</a>
</g>
</g>
<!-- Node1&#45;&gt;Node1 -->
<g id="edge1_Node000001_Node000001" class="edge">
<title>Node1&#45;&gt;Node1</title>
<g id="a_edge1_Node000001_Node000001"><a xlink:title=" ">
<path fill="none" stroke="#63b8ff" d="M115.15,-103.35C125.62,-101.03 133,-94.75 133,-84.5 133,-78.58 130.53,-73.98 126.43,-70.7"/>
<polygon fill="none" stroke="#63b8ff" points="126.1,-70.55 118.99,-71.75 115.15,-65.65 122.26,-64.45 126.1,-70.55"/>
</a>
</g>
<text text-anchor="middle" x="165" y="-82" font-family="Helvetica,sans-Serif" font-size="10.00" fill="grey"> &#45;m_instance</text>
</g>
<!-- Node2 -->
<g id="Node000002" class="node">
<title>Node2</title>
<g id="a_Node000002"><a xlink:title=" ">
<polygon fill="white" stroke="transparent" points="38,-287.5 0,-287.5 0,-238.5 38,-238.5 38,-287.5"/>
<text text-anchor="start" x="5" y="-275" font-family="Helvetica,sans-Serif" font-size="10.00">string</text>
<text text-anchor="start" x="17" y="-260" font-family="Helvetica,sans-Serif" font-size="10.00"> </text>
<text text-anchor="start" x="17" y="-245" font-family="Helvetica,sans-Serif" font-size="10.00"> </text>
<polygon fill="#666666" stroke="#666666" points="0,-270 0,-270 38,-270 38,-270 0,-270"/>
<polygon fill="#666666" stroke="#666666" points="0,-255 0,-255 38,-255 38,-255 0,-255"/>
<polygon fill="none" stroke="#666666" points="0,-238.5 0,-287.5 38,-287.5 38,-238.5 0,-238.5"/>
</a>
</g>
</g>
<!-- Node2&#45;&gt;Node1 -->
<g id="edge2_Node000001_Node000002" class="edge">
<title>Node2&#45;&gt;Node1</title>
<g id="a_edge2_Node000001_Node000002"><a xlink:title=" ">
<path fill="none" stroke="#63b8ff" d="M21.22,-238.19C22.84,-223.37 25.39,-203.96 29,-187 29.43,-184.99 29.88,-182.97 30.34,-180.93"/>
<polygon fill="none" stroke="#63b8ff" points="30.37,-180.82 27.88,-174.05 33.17,-169.15 35.66,-175.92 30.37,-180.82"/>
</a>
</g>
<text text-anchor="middle" x="58" y="-190" font-family="Helvetica,sans-Serif" font-size="10.00" fill="grey"> &#45;m_lastFile</text>
</g>
<!-- Node3 -->
<g id="Node000003" class="node">
<title>Node3</title>
<g id="a_Node000003"><a xlink:href="classTranslationManager.html" target="_top" xlink:title=" ">
<polygon fill="white" stroke="transparent" points="181.5,-310 56.5,-310 56.5,-216 181.5,-216 181.5,-310"/>
<text text-anchor="start" x="71" y="-298" font-family="Helvetica,sans-Serif" font-size="10.00">TranslationManager</text>
<text text-anchor="start" x="117.5" y="-283" font-family="Helvetica,sans-Serif" font-size="10.00"> </text>
<text text-anchor="start" x="61" y="-268" font-family="Helvetica,sans-Serif" font-size="10.00">+</text>
<text text-anchor="start" x="74" y="-268" font-family="Helvetica,sans-Serif" font-size="10.00">loadLanguage()</text>
<text text-anchor="start" x="61" y="-253" font-family="Helvetica,sans-Serif" font-size="10.00">+</text>
<text text-anchor="start" x="74" y="-253" font-family="Helvetica,sans-Serif" font-size="10.00">getString()</text>
<text text-anchor="start" x="61" y="-238" font-family="Helvetica,sans-Serif" font-size="10.00">+</text>
<text text-anchor="start" x="74" y="-238" font-family="Helvetica,sans-Serif" font-size="10.00">Instance()</text>
<text text-anchor="start" x="61" y="-223" font-family="Helvetica,sans-Serif" font-size="10.00">#</text>
<text text-anchor="start" x="74" y="-223" font-family="Helvetica,sans-Serif" font-size="10.00">TranslationManager()</text>
<polygon fill="#666666" stroke="#666666" points="57,-293 57,-293 182,-293 182,-293 57,-293"/>
<polygon fill="#666666" stroke="#666666" points="57,-278 57,-278 182,-278 182,-278 57,-278"/>
<polygon fill="none" stroke="#666666" points="56.5,-216 56.5,-310 181.5,-310 181.5,-216 56.5,-216"/>
</a>
</g>
</g>
<!-- Node3&#45;&gt;Node1 -->
<g id="edge3_Node000001_Node000003" class="edge">
<title>Node3&#45;&gt;Node1</title>
<g id="a_edge3_Node000001_Node000003"><a xlink:title=" ">
<path fill="none" stroke="#63b8ff" d="M103.24,-215.63C99.55,-204.79 95.5,-192.86 91.38,-180.75"/>
<polygon fill="none" stroke="#63b8ff" points="91.29,-180.48 85.57,-176.08 87.42,-169.11 93.14,-173.51 91.29,-180.48"/>
</a>
</g>
<text text-anchor="middle" x="123.5" y="-190" font-family="Helvetica,sans-Serif" font-size="10.00" fill="grey"> &#45;translator</text>
</g>
<!-- Node3&#45;&gt;Node3 -->
<g id="edge4_Node000003_Node000003" class="edge">
<title>Node3&#45;&gt;Node3</title>
<g id="a_edge4_Node000003_Node000003"><a xlink:title=" ">
<path fill="none" stroke="#63b8ff" d="M181.78,-275.2C192.26,-273.49 199.5,-269.43 199.5,-263 199.5,-259.39 197.21,-256.52 193.34,-254.4"/>
<polygon fill="none" stroke="#63b8ff" points="193.24,-254.36 186.32,-256.4 181.78,-250.8 188.7,-248.76 193.24,-254.36"/>
</a>
</g>
<text text-anchor="middle" x="231.5" y="-260.5" font-family="Helvetica,sans-Serif" font-size="10.00" fill="grey"> &#45;m_instance</text>
</g>
<!-- Node4 -->
<g id="Node000004" class="node">
<title>Node4</title>
<g id="a_Node000004"><a xlink:title=" ">
<polygon fill="white" stroke="transparent" points="128.5,-417 15.5,-417 15.5,-357 128.5,-357 128.5,-417"/>
<text text-anchor="start" x="21" y="-405" font-family="Helvetica,sans-Serif" font-size="10.00">map&lt; std::string, std</text>
<text text-anchor="start" x="49.5" y="-394" font-family="Helvetica,sans-Serif" font-size="10.00">::string &gt;</text>
<text text-anchor="start" x="70.5" y="-379" font-family="Helvetica,sans-Serif" font-size="10.00"> </text>
<text text-anchor="start" x="70.5" y="-364" font-family="Helvetica,sans-Serif" font-size="10.00"> </text>
<polygon fill="#666666" stroke="#666666" points="16,-389 16,-389 129,-389 129,-389 16,-389"/>
<polygon fill="#666666" stroke="#666666" points="16,-374 16,-374 129,-374 129,-374 16,-374"/>
<polygon fill="none" stroke="#666666" points="15.5,-357 15.5,-417 128.5,-417 128.5,-357 15.5,-357"/>
</a>
</g>
</g>
<!-- Node4&#45;&gt;Node3 -->
<g id="edge5_Node000003_Node000004" class="edge">
<title>Node4&#45;&gt;Node3</title>
<g id="a_edge5_Node000003_Node000004"><a xlink:title=" ">
<path fill="none" stroke="#63b8ff" d="M79.61,-356.8C82.29,-347.5 85.51,-337.23 89,-328 89.83,-325.8 90.7,-323.58 91.61,-321.34"/>
<polygon fill="none" stroke="#63b8ff" points="91.68,-321.18 90.34,-314.1 96.36,-310.13 97.7,-317.22 91.68,-321.18"/>
</a>
</g>
<text text-anchor="middle" x="116.5" y="-331" font-family="Helvetica,sans-Serif" font-size="10.00" fill="grey"> &#45;m_strings</text>
</g>
<!-- Node5 -->
<g id="Node000005" class="node">
<title>Node5</title>
<g id="a_Node000005"><a xlink:title=" ">
<polygon fill="white" stroke="transparent" points="185,-411.5 147,-411.5 147,-362.5 185,-362.5 185,-411.5"/>
<text text-anchor="start" x="152" y="-399" font-family="Helvetica,sans-Serif" font-size="10.00">string</text>
<text text-anchor="start" x="164" y="-384" font-family="Helvetica,sans-Serif" font-size="10.00"> </text>
<text text-anchor="start" x="164" y="-369" font-family="Helvetica,sans-Serif" font-size="10.00"> </text>
<polygon fill="#666666" stroke="#666666" points="147,-394 147,-394 185,-394 185,-394 147,-394"/>
<polygon fill="#666666" stroke="#666666" points="147,-379 147,-379 185,-379 185,-379 147,-379"/>
<polygon fill="none" stroke="#666666" points="147,-362.5 147,-411.5 185,-411.5 185,-362.5 147,-362.5"/>
</a>
</g>
</g>
<!-- Node5&#45;&gt;Node3 -->
<g id="edge6_Node000003_Node000005" class="edge">
<title>Node5&#45;&gt;Node3</title>
<g id="a_edge6_Node000003_Node000005"><a xlink:title=" ">
<path fill="none" stroke="#63b8ff" d="M157.06,-362.28C153.09,-351.77 148.33,-339.26 144,-328 143.16,-325.83 142.31,-323.62 141.45,-321.38"/>
<polygon fill="none" stroke="#63b8ff" points="141.42,-321.31 135.52,-317.16 137.08,-310.12 142.98,-314.27 141.42,-321.31"/>
</a>
</g>
<text text-anchor="middle" x="190.5" y="-331" font-family="Helvetica,sans-Serif" font-size="10.00" fill="grey"> &#45;m_empty_string</text>
</g>
</g>
</svg>
