<?xml version="1.0" encoding="UTF-8" standalone="no"?>
<!DOCTYPE svg PUBLIC "-//W3C//DTD SVG 1.1//EN"
 "http://www.w3.org/Graphics/SVG/1.1/DTD/svg11.dtd">
<!-- Generated by graphviz version 2.43.0 (0)
 -->
<!-- Title: ElementClipboard Pages: 1 -->
<svg width="132pt" height="217pt"
 viewBox="0.00 0.00 132.00 217.00" xmlns="http://www.w3.org/2000/svg" xmlns:xlink="http://www.w3.org/1999/xlink">
<g id="graph0" class="graph" transform="scale(1 1) rotate(0) translate(4 213)">
<title>ElementClipboard</title>
<!-- Node1 -->
<g id="Node000001" class="node">
<title>Node1</title>
<g id="a_Node000001"><a xlink:title=" ">
<polygon fill="#999999" stroke="transparent" points="124,-124 0,-124 0,0 124,0 124,-124"/>
<text text-anchor="start" x="18" y="-112" font-family="Helvetica,sans-Serif" font-size="10.00">ElementClipboard</text>
<text text-anchor="start" x="60" y="-97" font-family="Helvetica,sans-Serif" font-size="10.00"> </text>
<text text-anchor="start" x="4" y="-82" font-family="Helvetica,sans-Serif" font-size="10.00">+</text>
<text text-anchor="start" x="17" y="-82" font-family="Helvetica,sans-Serif" font-size="10.00">ElementClipboard()</text>
<text text-anchor="start" x="4" y="-67" font-family="Helvetica,sans-Serif" font-size="10.00">+</text>
<text text-anchor="start" x="17" y="-67" font-family="Helvetica,sans-Serif" font-size="10.00">~ElementClipboard()</text>
<text text-anchor="start" x="4" y="-52" font-family="Helvetica,sans-Serif" font-size="10.00">+</text>
<text text-anchor="start" x="17" y="-52" font-family="Helvetica,sans-Serif" font-size="10.00">OnChildAdd()</text>
<text text-anchor="start" x="4" y="-37" font-family="Helvetica,sans-Serif" font-size="10.00">+</text>
<text text-anchor="start" x="17" y="-37" font-family="Helvetica,sans-Serif" font-size="10.00">OnChildRemove()</text>
<text text-anchor="start" x="4" y="-22" font-family="Helvetica,sans-Serif" font-size="10.00">#</text>
<text text-anchor="start" x="17" y="-22" font-family="Helvetica,sans-Serif" font-size="10.00">OnUpdate()</text>
<text text-anchor="start" x="4" y="-7" font-family="Helvetica,sans-Serif" font-size="10.00">#</text>
<text text-anchor="start" x="17" y="-7" font-family="Helvetica,sans-Serif" font-size="10.00">OnRender()</text>
<polygon fill="#666666" stroke="#666666" points="0,-107 0,-107 124,-107 124,-107 0,-107"/>
<polygon fill="#666666" stroke="#666666" points="0,-92 0,-92 124,-92 124,-92 0,-92"/>
<polygon fill="none" stroke="#666666" points="0,0 0,-124 124,-124 124,0 0,0"/>
</a>
</g>
</g>
<!-- Node2 -->
<g id="Node000002" class="node">
<title>Node2</title>
<g id="a_Node000002"><a xlink:title=" ">
<polygon fill="white" stroke="transparent" points="100.5,-209 23.5,-209 23.5,-160 100.5,-160 100.5,-209"/>
<text text-anchor="start" x="29" y="-196.5" font-family="Helvetica,sans-Serif" font-size="10.00">Rml::Element</text>
<text text-anchor="start" x="60.5" y="-181.5" font-family="Helvetica,sans-Serif" font-size="10.00"> </text>
<text text-anchor="start" x="60.5" y="-166.5" font-family="Helvetica,sans-Serif" font-size="10.00"> </text>
<polygon fill="#666666" stroke="#666666" points="24,-191.5 24,-191.5 101,-191.5 101,-191.5 24,-191.5"/>
<polygon fill="#666666" stroke="#666666" points="24,-176.5 24,-176.5 101,-176.5 101,-176.5 24,-176.5"/>
<polygon fill="none" stroke="#666666" points="23.5,-160 23.5,-209 100.5,-209 100.5,-160 23.5,-160"/>
</a>
</g>
</g>
<!-- Node2&#45;&gt;Node1 -->
<g id="edge1_Node000001_Node000002" class="edge">
<title>Node2&#45;&gt;Node1</title>
<g id="a_edge1_Node000001_Node000002"><a xlink:title=" ">
<path fill="none" stroke="#63b8ff" d="M62,-149.94C62,-141.91 62,-133.08 62,-124.23"/>
<polygon fill="none" stroke="#63b8ff" points="58.5,-149.98 62,-159.98 65.5,-149.98 58.5,-149.98"/>
</a>
</g>
</g>
</g>
</svg>
