<?xml version="1.0" encoding="UTF-8" standalone="no"?>
<!DOCTYPE svg PUBLIC "-//W3C//DTD SVG 1.1//EN"
 "http://www.w3.org/Graphics/SVG/1.1/DTD/svg11.dtd">
<!-- Generated by graphviz version 2.43.0 (0)
 -->
<!-- Title: KeyShortCut Pages: 1 -->
<svg width="241pt" height="254pt"
 viewBox="0.00 0.00 240.50 254.00" xmlns="http://www.w3.org/2000/svg" xmlns:xlink="http://www.w3.org/1999/xlink">
<g id="graph0" class="graph" transform="scale(1 1) rotate(0) translate(4 250)">
<title>KeyShortCut</title>
<!-- Node1 -->
<g id="Node000001" class="node">
<title>Node1</title>
<g id="a_Node000001"><a xlink:title=" ">
<polygon fill="#999999" stroke="transparent" points="170,-139 81,-139 81,0 170,0 170,-139"/>
<text text-anchor="start" x="95.5" y="-126.5" font-family="Helvetica,sans-Serif" font-size="10.00">KeyShortCut</text>
<text text-anchor="start" x="124" y="-111.5" font-family="Helvetica,sans-Serif" font-size="10.00"> </text>
<text text-anchor="start" x="85.5" y="-96.5" font-family="Helvetica,sans-Serif" font-size="10.00">+</text>
<text text-anchor="start" x="98.5" y="-96.5" font-family="Helvetica,sans-Serif" font-size="10.00">KeyShortCut()</text>
<text text-anchor="start" x="85.5" y="-81.5" font-family="Helvetica,sans-Serif" font-size="10.00">+</text>
<text text-anchor="start" x="98.5" y="-81.5" font-family="Helvetica,sans-Serif" font-size="10.00">getShortCut()</text>
<text text-anchor="start" x="85.5" y="-66.5" font-family="Helvetica,sans-Serif" font-size="10.00">+</text>
<text text-anchor="start" x="98.5" y="-66.5" font-family="Helvetica,sans-Serif" font-size="10.00">setShortCut()</text>
<text text-anchor="start" x="85.5" y="-51.5" font-family="Helvetica,sans-Serif" font-size="10.00">+</text>
<text text-anchor="start" x="98.5" y="-51.5" font-family="Helvetica,sans-Serif" font-size="10.00">getEvent()</text>
<text text-anchor="start" x="85.5" y="-36.5" font-family="Helvetica,sans-Serif" font-size="10.00">+</text>
<text text-anchor="start" x="98.5" y="-36.5" font-family="Helvetica,sans-Serif" font-size="10.00">operator==()</text>
<text text-anchor="start" x="85.5" y="-21.5" font-family="Helvetica,sans-Serif" font-size="10.00">+</text>
<text text-anchor="start" x="98.5" y="-21.5" font-family="Helvetica,sans-Serif" font-size="10.00">toString()</text>
<text text-anchor="start" x="85.5" y="-6.5" font-family="Helvetica,sans-Serif" font-size="10.00">+</text>
<text text-anchor="start" x="98.5" y="-6.5" font-family="Helvetica,sans-Serif" font-size="10.00">toString()</text>
<polygon fill="#666666" stroke="#666666" points="81.5,-121.5 81.5,-121.5 170.5,-121.5 170.5,-121.5 81.5,-121.5"/>
<polygon fill="#666666" stroke="#666666" points="81.5,-106.5 81.5,-106.5 170.5,-106.5 170.5,-106.5 81.5,-106.5"/>
<polygon fill="none" stroke="#666666" points="81,0 81,-139 170,-139 170,0 81,0"/>
</a>
</g>
</g>
<!-- Node2 -->
<g id="Node000002" class="node">
<title>Node2</title>
<g id="a_Node000002"><a xlink:title=" ">
<polygon fill="white" stroke="transparent" points="103,-246 0,-246 0,-186 103,-186 103,-246"/>
<text text-anchor="start" x="5.5" y="-234" font-family="Helvetica,sans-Serif" font-size="10.00">vector&lt; Rml::Input</text>
<text text-anchor="start" x="12.5" y="-223" font-family="Helvetica,sans-Serif" font-size="10.00">::KeyIdentifier &gt;</text>
<text text-anchor="start" x="50" y="-208" font-family="Helvetica,sans-Serif" font-size="10.00"> </text>
<text text-anchor="start" x="50" y="-193" font-family="Helvetica,sans-Serif" font-size="10.00"> </text>
<polygon fill="#666666" stroke="#666666" points="0.5,-218 0.5,-218 103.5,-218 103.5,-218 0.5,-218"/>
<polygon fill="#666666" stroke="#666666" points="0.5,-203 0.5,-203 103.5,-203 103.5,-203 0.5,-203"/>
<polygon fill="none" stroke="#666666" points="0,-186 0,-246 103,-246 103,-186 0,-186"/>
</a>
</g>
</g>
<!-- Node2&#45;&gt;Node1 -->
<g id="edge1_Node000001_Node000002" class="edge">
<title>Node2&#45;&gt;Node1</title>
<g id="a_edge1_Node000001_Node000002"><a xlink:title=" ">
<path fill="none" stroke="#63b8ff" d="M48.2,-185.96C48.11,-176.47 49.1,-166.05 52.5,-157 57.21,-144.46 64.58,-132.47 72.86,-121.63"/>
<polygon fill="none" stroke="#63b8ff" points="73.12,-121.32 73.79,-114.14 80.68,-112 80,-119.18 73.12,-121.32"/>
</a>
</g>
<text text-anchor="middle" x="115.5" y="-160" font-family="Helvetica,sans-Serif" font-size="10.00" fill="grey"> &#45;m_shortCutCombination</text>
</g>
<!-- Node3 -->
<g id="Node000003" class="node">
<title>Node3</title>
<g id="a_Node000003"><a xlink:title=" ">
<polygon fill="white" stroke="transparent" points="219.5,-240.5 181.5,-240.5 181.5,-191.5 219.5,-191.5 219.5,-240.5"/>
<text text-anchor="start" x="186.5" y="-228" font-family="Helvetica,sans-Serif" font-size="10.00">string</text>
<text text-anchor="start" x="198.5" y="-213" font-family="Helvetica,sans-Serif" font-size="10.00"> </text>
<text text-anchor="start" x="198.5" y="-198" font-family="Helvetica,sans-Serif" font-size="10.00"> </text>
<polygon fill="#666666" stroke="#666666" points="181.5,-223 181.5,-223 219.5,-223 219.5,-223 181.5,-223"/>
<polygon fill="#666666" stroke="#666666" points="181.5,-208 181.5,-208 219.5,-208 219.5,-208 181.5,-208"/>
<polygon fill="none" stroke="#666666" points="181.5,-191.5 181.5,-240.5 219.5,-240.5 219.5,-191.5 181.5,-191.5"/>
</a>
</g>
</g>
<!-- Node3&#45;&gt;Node1 -->
<g id="edge2_Node000001_Node000003" class="edge">
<title>Node3&#45;&gt;Node1</title>
<g id="a_edge2_Node000001_Node000003"><a xlink:title=" ">
<path fill="none" stroke="#63b8ff" d="M192.69,-191.43C188.86,-180.73 183.91,-168.02 178.5,-157 177.38,-154.71 176.22,-152.41 175.02,-150.1"/>
<polygon fill="none" stroke="#63b8ff" points="174.87,-149.83 168.51,-146.44 169.2,-139.26 175.56,-142.65 174.87,-149.83"/>
</a>
</g>
<text text-anchor="middle" x="207.5" y="-160" font-family="Helvetica,sans-Serif" font-size="10.00" fill="grey"> &#45;m_event</text>
</g>
</g>
</svg>
