<?xml version="1.0" encoding="UTF-8" standalone="no"?>
<!DOCTYPE svg PUBLIC "-//W3C//DTD SVG 1.1//EN"
 "http://www.w3.org/Graphics/SVG/1.1/DTD/svg11.dtd">
<!-- Generated by graphviz version 2.43.0 (0)
 -->
<!-- Title: ExportFileEvent Pages: 1 -->
<svg width="643pt" height="489pt"
 viewBox="0.00 0.00 642.50 489.00" xmlns="http://www.w3.org/2000/svg" xmlns:xlink="http://www.w3.org/1999/xlink">
<g id="graph0" class="graph" transform="scale(1 1) rotate(0) translate(4 485)">
<title>ExportFileEvent</title>
<!-- Node1 -->
<g id="Node000001" class="node">
<title>Node1</title>
<g id="a_Node000001"><a xlink:title=" ">
<polygon fill="#999999" stroke="transparent" points="335,-79 221,-79 221,0 335,0 335,-79"/>
<text text-anchor="start" x="239.5" y="-66.5" font-family="Helvetica,sans-Serif" font-size="10.00">ExportFileEvent</text>
<text text-anchor="start" x="276" y="-51.5" font-family="Helvetica,sans-Serif" font-size="10.00"> </text>
<text text-anchor="start" x="225" y="-36.5" font-family="Helvetica,sans-Serif" font-size="10.00">+</text>
<text text-anchor="start" x="238" y="-36.5" font-family="Helvetica,sans-Serif" font-size="10.00">ExportFileEvent()</text>
<text text-anchor="start" x="225" y="-21.5" font-family="Helvetica,sans-Serif" font-size="10.00">+</text>
<text text-anchor="start" x="238" y="-21.5" font-family="Helvetica,sans-Serif" font-size="10.00">~ExportFileEvent()</text>
<text text-anchor="start" x="225" y="-6.5" font-family="Helvetica,sans-Serif" font-size="10.00">+</text>
<text text-anchor="start" x="238" y="-6.5" font-family="Helvetica,sans-Serif" font-size="10.00">handle()</text>
<polygon fill="#666666" stroke="#666666" points="221,-61.5 221,-61.5 335,-61.5 335,-61.5 221,-61.5"/>
<polygon fill="#666666" stroke="#666666" points="221,-46.5 221,-46.5 335,-46.5 335,-46.5 221,-46.5"/>
<polygon fill="none" stroke="#666666" points="221,0 221,-79 335,-79 335,0 221,0"/>
</a>
</g>
</g>
<!-- Node2 -->
<g id="Node000002" class="node">
<title>Node2</title>
<g id="a_Node000002"><a xlink:href="classClipboardEvent.html" target="_top" xlink:title=" ">
<polygon fill="white" stroke="transparent" points="112,-265 0,-265 0,-201 112,-201 112,-265"/>
<text text-anchor="start" x="18.5" y="-253" font-family="Helvetica,sans-Serif" font-size="10.00">ClipboardEvent</text>
<text text-anchor="start" x="54" y="-238" font-family="Helvetica,sans-Serif" font-size="10.00"> </text>
<text text-anchor="start" x="4" y="-223" font-family="Helvetica,sans-Serif" font-size="10.00">+</text>
<text text-anchor="start" x="17" y="-223" font-family="Helvetica,sans-Serif" font-size="10.00">~ClipboardEvent()</text>
<text text-anchor="start" x="4" y="-208" font-family="Helvetica,sans-Serif" font-size="10.00">+</text>
<text text-anchor="start" x="17" y="-208" font-family="Helvetica,sans-Serif" font-size="10.00">handle()</text>
<polygon fill="#666666" stroke="#666666" points="0,-248 0,-248 112,-248 112,-248 0,-248"/>
<polygon fill="#666666" stroke="#666666" points="0,-233 0,-233 112,-233 112,-233 0,-233"/>
<polygon fill="none" stroke="#666666" points="0,-201 0,-265 112,-265 112,-201 0,-201"/>
</a>
</g>
</g>
<!-- Node2&#45;&gt;Node1 -->
<g id="edge1_Node000001_Node000002" class="edge">
<title>Node2&#45;&gt;Node1</title>
<g id="a_edge1_Node000001_Node000002"><a xlink:title=" ">
<path fill="none" stroke="#63b8ff" d="M74.39,-191.51C85.59,-170.11 101.5,-144.52 121,-126 149.69,-98.75 188.75,-77.43 220.73,-62.9"/>
<polygon fill="none" stroke="#63b8ff" points="71.13,-190.2 69.73,-200.7 77.38,-193.36 71.13,-190.2"/>
</a>
</g>
</g>
<!-- Node3 -->
<g id="Node000003" class="node">
<title>Node3</title>
<g id="a_Node000003"><a xlink:href="classMemoryCellManager.html" target="_top" xlink:title=" ">
<polygon fill="white" stroke="transparent" points="278,-340 130,-340 130,-126 278,-126 278,-340"/>
<text text-anchor="start" x="152.5" y="-328" font-family="Helvetica,sans-Serif" font-size="10.00">MemoryCellManager</text>
<text text-anchor="start" x="202" y="-313" font-family="Helvetica,sans-Serif" font-size="10.00"> </text>
<text text-anchor="start" x="134" y="-298" font-family="Helvetica,sans-Serif" font-size="10.00">+</text>
<text text-anchor="start" x="147" y="-298" font-family="Helvetica,sans-Serif" font-size="10.00">getMemoryCellCount()</text>
<text text-anchor="start" x="134" y="-283" font-family="Helvetica,sans-Serif" font-size="10.00">+</text>
<text text-anchor="start" x="147" y="-283" font-family="Helvetica,sans-Serif" font-size="10.00">getMemoryCell()</text>
<text text-anchor="start" x="134" y="-268" font-family="Helvetica,sans-Serif" font-size="10.00">+</text>
<text text-anchor="start" x="147" y="-268" font-family="Helvetica,sans-Serif" font-size="10.00">addMemoryCell()</text>
<text text-anchor="start" x="134" y="-253" font-family="Helvetica,sans-Serif" font-size="10.00">+</text>
<text text-anchor="start" x="147" y="-253" font-family="Helvetica,sans-Serif" font-size="10.00">initialize()</text>
<text text-anchor="start" x="134" y="-238" font-family="Helvetica,sans-Serif" font-size="10.00">+</text>
<text text-anchor="start" x="147" y="-238" font-family="Helvetica,sans-Serif" font-size="10.00">cleanup()</text>
<text text-anchor="start" x="134" y="-223" font-family="Helvetica,sans-Serif" font-size="10.00">+</text>
<text text-anchor="start" x="147" y="-223" font-family="Helvetica,sans-Serif" font-size="10.00">setSelectedCell()</text>
<text text-anchor="start" x="134" y="-208" font-family="Helvetica,sans-Serif" font-size="10.00">+</text>
<text text-anchor="start" x="147" y="-208" font-family="Helvetica,sans-Serif" font-size="10.00">getSelectedCell()</text>
<text text-anchor="start" x="134" y="-193" font-family="Helvetica,sans-Serif" font-size="10.00">+</text>
<text text-anchor="start" x="147" y="-193" font-family="Helvetica,sans-Serif" font-size="10.00">loadCells()</text>
<text text-anchor="start" x="134" y="-178" font-family="Helvetica,sans-Serif" font-size="10.00">+</text>
<text text-anchor="start" x="147" y="-178" font-family="Helvetica,sans-Serif" font-size="10.00">getContents()</text>
<text text-anchor="start" x="134" y="-163" font-family="Helvetica,sans-Serif" font-size="10.00">+</text>
<text text-anchor="start" x="147" y="-163" font-family="Helvetica,sans-Serif" font-size="10.00">moveContentsOneDown()</text>
<text text-anchor="start" x="134" y="-148" font-family="Helvetica,sans-Serif" font-size="10.00">+</text>
<text text-anchor="start" x="147" y="-148" font-family="Helvetica,sans-Serif" font-size="10.00">Instance()</text>
<text text-anchor="start" x="134" y="-133" font-family="Helvetica,sans-Serif" font-size="10.00">#</text>
<text text-anchor="start" x="147" y="-133" font-family="Helvetica,sans-Serif" font-size="10.00">MemoryCellManager()</text>
<polygon fill="#666666" stroke="#666666" points="130,-323 130,-323 278,-323 278,-323 130,-323"/>
<polygon fill="#666666" stroke="#666666" points="130,-308 130,-308 278,-308 278,-308 130,-308"/>
<polygon fill="none" stroke="#666666" points="130,-126 130,-340 278,-340 278,-126 130,-126"/>
</a>
</g>
</g>
<!-- Node3&#45;&gt;Node1 -->
<g id="edge2_Node000001_Node000003" class="edge">
<title>Node3&#45;&gt;Node1</title>
<g id="a_edge2_Node000001_Node000003"><a xlink:title=" ">
<path fill="none" stroke="#63b8ff" d="M195.64,-125.9C197.53,-115.84 200.53,-106.03 205,-97 207.14,-92.68 209.78,-88.6 212.78,-84.75"/>
<polygon fill="none" stroke="#63b8ff" points="212.89,-84.63 213.91,-77.49 220.89,-75.69 219.87,-82.83 212.89,-84.63"/>
</a>
</g>
<text text-anchor="middle" x="267.5" y="-100" font-family="Helvetica,sans-Serif" font-size="10.00" fill="grey"> &#45;m_memoryCellManager</text>
</g>
<!-- Node4 -->
<g id="Node000004" class="node">
<title>Node4</title>
<g id="a_Node000004"><a xlink:title=" ">
<polygon fill="white" stroke="transparent" points="195.5,-464 42.5,-464 42.5,-404 195.5,-404 195.5,-464"/>
<text text-anchor="start" x="48" y="-452" font-family="Helvetica,sans-Serif" font-size="10.00">vector&lt; std::unique</text>
<text text-anchor="start" x="48" y="-441" font-family="Helvetica,sans-Serif" font-size="10.00">_ptr&lt; ClipboardInterface &gt; &gt;</text>
<text text-anchor="start" x="117.5" y="-426" font-family="Helvetica,sans-Serif" font-size="10.00"> </text>
<text text-anchor="start" x="117.5" y="-411" font-family="Helvetica,sans-Serif" font-size="10.00"> </text>
<polygon fill="#666666" stroke="#666666" points="43,-436 43,-436 196,-436 196,-436 43,-436"/>
<polygon fill="#666666" stroke="#666666" points="43,-421 43,-421 196,-421 196,-421 43,-421"/>
<polygon fill="none" stroke="#666666" points="42.5,-404 42.5,-464 195.5,-464 195.5,-404 42.5,-404"/>
</a>
</g>
</g>
<!-- Node4&#45;&gt;Node3 -->
<g id="edge3_Node000003_Node000004" class="edge">
<title>Node4&#45;&gt;Node3</title>
<g id="a_edge3_Node000003_Node000004"><a xlink:title=" ">
<path fill="none" stroke="#63b8ff" d="M121.11,-403.88C122.77,-389.72 125.73,-372.64 131,-358 131.76,-355.89 132.56,-353.77 133.39,-351.65"/>
<polygon fill="none" stroke="#63b8ff" points="133.49,-351.4 132.11,-344.32 138.12,-340.33 139.49,-347.41 133.49,-351.4"/>
</a>
</g>
<text text-anchor="middle" x="175" y="-361" font-family="Helvetica,sans-Serif" font-size="10.00" fill="grey"> &#45;m_memoryCells</text>
</g>
<!-- Node5 -->
<g id="Node000005" class="node">
<title>Node5</title>
<g id="a_Node000005"><a xlink:title=" ">
<polygon fill="white" stroke="transparent" points="252.5,-458.5 213.5,-458.5 213.5,-409.5 252.5,-409.5 252.5,-458.5"/>
<text text-anchor="start" x="219" y="-446" font-family="Helvetica,sans-Serif" font-size="10.00">size_t</text>
<text text-anchor="start" x="231.5" y="-431" font-family="Helvetica,sans-Serif" font-size="10.00"> </text>
<text text-anchor="start" x="231.5" y="-416" font-family="Helvetica,sans-Serif" font-size="10.00"> </text>
<polygon fill="#666666" stroke="#666666" points="214,-441 214,-441 253,-441 253,-441 214,-441"/>
<polygon fill="#666666" stroke="#666666" points="214,-426 214,-426 253,-426 253,-426 214,-426"/>
<polygon fill="none" stroke="#666666" points="213.5,-409.5 213.5,-458.5 252.5,-458.5 252.5,-409.5 213.5,-409.5"/>
</a>
</g>
</g>
<!-- Node5&#45;&gt;Node3 -->
<g id="edge4_Node000003_Node000005" class="edge">
<title>Node5&#45;&gt;Node3</title>
<g id="a_edge4_Node000003_Node000005"><a xlink:title=" ">
<path fill="none" stroke="#63b8ff" d="M229.56,-409.39C227.39,-394.54 224.42,-374.13 221.26,-352.47"/>
<polygon fill="none" stroke="#63b8ff" points="221.23,-352.21 216.4,-346.85 219.5,-340.34 224.32,-345.7 221.23,-352.21"/>
</a>
</g>
<text text-anchor="middle" x="257.5" y="-361" font-family="Helvetica,sans-Serif" font-size="10.00" fill="grey"> &#45;selectedCell</text>
</g>
<!-- Node6 -->
<g id="Node000006" class="node">
<title>Node6</title>
<g id="a_Node000006"><a xlink:href="classFileManager.html" target="_top" xlink:title=" ">
<polygon fill="white" stroke="transparent" points="408,-317.5 296,-317.5 296,-148.5 408,-148.5 408,-317.5"/>
<text text-anchor="start" x="321.5" y="-305" font-family="Helvetica,sans-Serif" font-size="10.00">FileManager</text>
<text text-anchor="start" x="350" y="-290" font-family="Helvetica,sans-Serif" font-size="10.00"> </text>
<text text-anchor="start" x="300" y="-275" font-family="Helvetica,sans-Serif" font-size="10.00">+</text>
<text text-anchor="start" x="313" y="-275" font-family="Helvetica,sans-Serif" font-size="10.00">getLastFile()</text>
<text text-anchor="start" x="300" y="-260" font-family="Helvetica,sans-Serif" font-size="10.00">+</text>
<text text-anchor="start" x="313" y="-260" font-family="Helvetica,sans-Serif" font-size="10.00">searchImportFile()</text>
<text text-anchor="start" x="300" y="-245" font-family="Helvetica,sans-Serif" font-size="10.00">+</text>
<text text-anchor="start" x="313" y="-245" font-family="Helvetica,sans-Serif" font-size="10.00">searchExportFile()</text>
<text text-anchor="start" x="300" y="-230" font-family="Helvetica,sans-Serif" font-size="10.00">+</text>
<text text-anchor="start" x="313" y="-230" font-family="Helvetica,sans-Serif" font-size="10.00">readFile()</text>
<text text-anchor="start" x="300" y="-215" font-family="Helvetica,sans-Serif" font-size="10.00">+</text>
<text text-anchor="start" x="313" y="-215" font-family="Helvetica,sans-Serif" font-size="10.00">exportFile()</text>
<text text-anchor="start" x="300" y="-200" font-family="Helvetica,sans-Serif" font-size="10.00">+</text>
<text text-anchor="start" x="313" y="-200" font-family="Helvetica,sans-Serif" font-size="10.00">showErrorDialog()</text>
<text text-anchor="start" x="300" y="-185" font-family="Helvetica,sans-Serif" font-size="10.00">+</text>
<text text-anchor="start" x="313" y="-185" font-family="Helvetica,sans-Serif" font-size="10.00">showGoodDialog()</text>
<text text-anchor="start" x="300" y="-170" font-family="Helvetica,sans-Serif" font-size="10.00">+</text>
<text text-anchor="start" x="313" y="-170" font-family="Helvetica,sans-Serif" font-size="10.00">Instance()</text>
<text text-anchor="start" x="300" y="-155" font-family="Helvetica,sans-Serif" font-size="10.00">#</text>
<text text-anchor="start" x="313" y="-155" font-family="Helvetica,sans-Serif" font-size="10.00">FileManager()</text>
<polygon fill="#666666" stroke="#666666" points="296,-300 296,-300 408,-300 408,-300 296,-300"/>
<polygon fill="#666666" stroke="#666666" points="296,-285 296,-285 408,-285 408,-285 296,-285"/>
<polygon fill="none" stroke="#666666" points="296,-148.5 296,-317.5 408,-317.5 408,-148.5 296,-148.5"/>
</a>
</g>
</g>
<!-- Node6&#45;&gt;Node1 -->
<g id="edge5_Node000001_Node000006" class="edge">
<title>Node6&#45;&gt;Node1</title>
<g id="a_edge5_Node000001_Node000006"><a xlink:title=" ">
<path fill="none" stroke="#63b8ff" d="M346.11,-148.28C342.77,-130.75 337.69,-112.8 330,-97 328.67,-94.27 327.17,-91.58 325.54,-88.95"/>
<polygon fill="none" stroke="#63b8ff" points="325.52,-88.92 318.81,-86.29 318.66,-79.08 325.37,-81.71 325.52,-88.92"/>
</a>
</g>
<text text-anchor="middle" x="375" y="-100" font-family="Helvetica,sans-Serif" font-size="10.00" fill="grey"> &#45;m_fileManager</text>
</g>
<!-- Node6&#45;&gt;Node6 -->
<g id="edge6_Node000006_Node000006" class="edge">
<title>Node6&#45;&gt;Node6</title>
<g id="a_edge6_Node000006_Node000006"><a xlink:title=" ">
<path fill="none" stroke="#63b8ff" d="M408.15,-256.12C418.62,-253.28 426,-245.57 426,-233 426,-225.54 423.4,-219.79 419.09,-215.75"/>
<polygon fill="none" stroke="#63b8ff" points="418.72,-215.55 411.54,-216.24 408.15,-209.88 415.32,-209.19 418.72,-215.55"/>
</a>
</g>
<text text-anchor="middle" x="458" y="-230.5" font-family="Helvetica,sans-Serif" font-size="10.00" fill="grey"> &#45;m_instance</text>
</g>
<!-- Node7 -->
<g id="Node000007" class="node">
<title>Node7</title>
<g id="a_Node000007"><a xlink:title=" ">
<polygon fill="white" stroke="transparent" points="371,-458.5 333,-458.5 333,-409.5 371,-409.5 371,-458.5"/>
<text text-anchor="start" x="338" y="-446" font-family="Helvetica,sans-Serif" font-size="10.00">string</text>
<text text-anchor="start" x="350" y="-431" font-family="Helvetica,sans-Serif" font-size="10.00"> </text>
<text text-anchor="start" x="350" y="-416" font-family="Helvetica,sans-Serif" font-size="10.00"> </text>
<polygon fill="#666666" stroke="#666666" points="333,-441 333,-441 371,-441 371,-441 333,-441"/>
<polygon fill="#666666" stroke="#666666" points="333,-426 333,-426 371,-426 371,-426 333,-426"/>
<polygon fill="none" stroke="#666666" points="333,-409.5 333,-458.5 371,-458.5 371,-409.5 333,-409.5"/>
</a>
</g>
</g>
<!-- Node7&#45;&gt;Node6 -->
<g id="edge7_Node000006_Node000007" class="edge">
<title>Node7&#45;&gt;Node6</title>
<g id="a_edge7_Node000006_Node000007"><a xlink:title=" ">
<path fill="none" stroke="#63b8ff" d="M352,-409.39C352,-389.39 352,-359.33 352,-329.71"/>
<polygon fill="none" stroke="#63b8ff" points="352,-329.52 348,-323.52 352,-317.52 356,-323.52 352,-329.52"/>
</a>
</g>
<text text-anchor="middle" x="381" y="-361" font-family="Helvetica,sans-Serif" font-size="10.00" fill="grey"> &#45;m_lastFile</text>
</g>
<!-- Node8 -->
<g id="Node000008" class="node">
<title>Node8</title>
<g id="a_Node000008"><a xlink:href="classTranslationManager.html" target="_top" xlink:title=" ">
<polygon fill="#fff0f0" stroke="transparent" points="552.5,-481 427.5,-481 427.5,-387 552.5,-387 552.5,-481"/>
<text text-anchor="start" x="442" y="-469" font-family="Helvetica,sans-Serif" font-size="10.00">TranslationManager</text>
<text text-anchor="start" x="488.5" y="-454" font-family="Helvetica,sans-Serif" font-size="10.00"> </text>
<text text-anchor="start" x="432" y="-439" font-family="Helvetica,sans-Serif" font-size="10.00">+</text>
<text text-anchor="start" x="445" y="-439" font-family="Helvetica,sans-Serif" font-size="10.00">loadLanguage()</text>
<text text-anchor="start" x="432" y="-424" font-family="Helvetica,sans-Serif" font-size="10.00">+</text>
<text text-anchor="start" x="445" y="-424" font-family="Helvetica,sans-Serif" font-size="10.00">getString()</text>
<text text-anchor="start" x="432" y="-409" font-family="Helvetica,sans-Serif" font-size="10.00">+</text>
<text text-anchor="start" x="445" y="-409" font-family="Helvetica,sans-Serif" font-size="10.00">Instance()</text>
<text text-anchor="start" x="432" y="-394" font-family="Helvetica,sans-Serif" font-size="10.00">#</text>
<text text-anchor="start" x="445" y="-394" font-family="Helvetica,sans-Serif" font-size="10.00">TranslationManager()</text>
<polygon fill="red" stroke="red" points="428,-464 428,-464 553,-464 553,-464 428,-464"/>
<polygon fill="red" stroke="red" points="428,-449 428,-449 553,-449 553,-449 428,-449"/>
<polygon fill="none" stroke="red" points="427.5,-387 427.5,-481 552.5,-481 552.5,-387 427.5,-387"/>
</a>
</g>
</g>
<!-- Node8&#45;&gt;Node1 -->
<g id="edge10_Node000001_Node000008" class="edge">
<title>Node8&#45;&gt;Node1</title>
<g id="a_edge10_Node000001_Node000008"><a xlink:title=" ">
<path fill="none" stroke="#63b8ff" d="M507.13,-386.75C527.89,-322.04 553.74,-203.7 499,-126 464.67,-77.27 398.41,-56.32 347.36,-47.3"/>
<polygon fill="none" stroke="#63b8ff" points="347.24,-47.28 340.68,-50.27 335.4,-45.36 341.96,-42.37 347.24,-47.28"/>
</a>
</g>
<text text-anchor="middle" x="567" y="-230.5" font-family="Helvetica,sans-Serif" font-size="10.00" fill="grey"> &#45;m_translator</text>
</g>
<!-- Node8&#45;&gt;Node6 -->
<g id="edge8_Node000006_Node000008" class="edge">
<title>Node8&#45;&gt;Node6</title>
<g id="a_edge8_Node000006_Node000008"><a xlink:title=" ">
<path fill="none" stroke="#63b8ff" d="M457.99,-386.85C445.21,-368.41 430.02,-346.5 415.19,-325.12"/>
<polygon fill="none" stroke="#63b8ff" points="415.02,-324.87 408.31,-322.22 408.18,-315.01 414.89,-317.66 415.02,-324.87"/>
</a>
</g>
<text text-anchor="middle" x="473.5" y="-361" font-family="Helvetica,sans-Serif" font-size="10.00" fill="grey"> &#45;translator</text>
</g>
<!-- Node8&#45;&gt;Node8 -->
<g id="edge9_Node000008_Node000008" class="edge">
<title>Node8&#45;&gt;Node8</title>
<g id="a_edge9_Node000008_Node000008"><a xlink:title=" ">
<path fill="none" stroke="#63b8ff" d="M552.78,-446.2C563.26,-444.49 570.5,-440.43 570.5,-434 570.5,-430.39 568.21,-427.52 564.34,-425.4"/>
<polygon fill="none" stroke="#63b8ff" points="564.24,-425.36 557.32,-427.4 552.78,-421.8 559.7,-419.76 564.24,-425.36"/>
</a>
</g>
<text text-anchor="middle" x="602.5" y="-431.5" font-family="Helvetica,sans-Serif" font-size="10.00" fill="grey"> &#45;m_instance</text>
</g>
</g>
</svg>
