<?xml version="1.0" encoding="UTF-8" standalone="no"?>
<!DOCTYPE svg PUBLIC "-//W3C//DTD SVG 1.1//EN"
 "http://www.w3.org/Graphics/SVG/1.1/DTD/svg11.dtd">
<!-- Generated by graphviz version 2.43.0 (0)
 -->
<!-- Title: ExportSearchEvent Pages: 1 -->
<svg width="467pt" height="444pt"
 viewBox="0.00 0.00 466.50 444.00" xmlns="http://www.w3.org/2000/svg" xmlns:xlink="http://www.w3.org/1999/xlink">

<svg id="main" version="1.1" xmlns="http://www.w3.org/2000/svg" xmlns:xlink="http://www.w3.org/1999/xlink" xml:space="preserve" onload="init(evt)">
<style type="text/css"><![CDATA[
.node, .edge {opacity: 0.7;}
.node.selected, .edge.selected {opacity: 1;}
.edge:hover path { stroke: red; }
.edge:hover polygon { stroke: red; fill: red; }
]]></style>
<script type="application/ecmascript" xlink:href="svg.min.js"/>
<svg id="graph" class="graph">
<g id="graph0" class="graph" transform="scale(1 1) rotate(0) translate(4 440)">
<title>ExportSearchEvent</title>
<!-- Node1 -->
<g id="Node000001" class="node">
<title>Node1</title>
<g id="a_Node000001"><a xlink:title=" ">
<polygon fill="#999999" stroke="transparent" points="251,-79 121,-79 121,0 251,0 251,-79"/>
<text text-anchor="start" x="139.5" y="-66.5" font-family="Helvetica,sans-Serif" font-size="10.00">ExportSearchEvent</text>
<text text-anchor="start" x="184" y="-51.5" font-family="Helvetica,sans-Serif" font-size="10.00"> </text>
<text text-anchor="start" x="125" y="-36.5" font-family="Helvetica,sans-Serif" font-size="10.00">+</text>
<text text-anchor="start" x="138" y="-36.5" font-family="Helvetica,sans-Serif" font-size="10.00">ExportSearchEvent()</text>
<text text-anchor="start" x="125" y="-21.5" font-family="Helvetica,sans-Serif" font-size="10.00">+</text>
<text text-anchor="start" x="138" y="-21.5" font-family="Helvetica,sans-Serif" font-size="10.00">~ExportSearchEvent()</text>
<text text-anchor="start" x="125" y="-6.5" font-family="Helvetica,sans-Serif" font-size="10.00">+</text>
<text text-anchor="start" x="138" y="-6.5" font-family="Helvetica,sans-Serif" font-size="10.00">handle()</text>
<polygon fill="#666666" stroke="#666666" points="121,-61.5 121,-61.5 251,-61.5 251,-61.5 121,-61.5"/>
<polygon fill="#666666" stroke="#666666" points="121,-46.5 121,-46.5 251,-46.5 251,-46.5 121,-46.5"/>
<polygon fill="none" stroke="#666666" points="121,0 121,-79 251,-79 251,0 121,0"/>
</a>
</g>
</g>
<!-- Node2 -->
<g id="Node000002" class="node">
<title>Node2</title>
<g id="a_Node000002"><a xlink:href="classClipboardEvent.html" target="_top" xlink:title=" ">
<polygon fill="white" stroke="transparent" points="112,-242.5 0,-242.5 0,-178.5 112,-178.5 112,-242.5"/>
<text text-anchor="start" x="18.5" y="-230.5" font-family="Helvetica,sans-Serif" font-size="10.00">ClipboardEvent</text>
<text text-anchor="start" x="54" y="-215.5" font-family="Helvetica,sans-Serif" font-size="10.00"> </text>
<text text-anchor="start" x="4" y="-200.5" font-family="Helvetica,sans-Serif" font-size="10.00">+</text>
<text text-anchor="start" x="17" y="-200.5" font-family="Helvetica,sans-Serif" font-size="10.00">~ClipboardEvent()</text>
<text text-anchor="start" x="4" y="-185.5" font-family="Helvetica,sans-Serif" font-size="10.00">+</text>
<text text-anchor="start" x="17" y="-185.5" font-family="Helvetica,sans-Serif" font-size="10.00">handle()</text>
<polygon fill="#666666" stroke="#666666" points="0,-225.5 0,-225.5 112,-225.5 112,-225.5 0,-225.5"/>
<polygon fill="#666666" stroke="#666666" points="0,-210.5 0,-210.5 112,-210.5 112,-210.5 0,-210.5"/>
<polygon fill="none" stroke="#666666" points="0,-178.5 0,-242.5 112,-242.5 112,-178.5 0,-178.5"/>
</a>
</g>
</g>
<!-- Node2&#45;&gt;Node1 -->
<g id="edge1_Node000001_Node000002" class="edge">
<title>Node2&#45;&gt;Node1</title>
<g id="a_edge1_Node000001_Node000002"><a xlink:title=" ">
<path fill="none" stroke="#63b8ff" d="M86.45,-169.92C107.5,-142.55 135.38,-106.31 156.28,-79.14"/>
<polygon fill="none" stroke="#63b8ff" points="83.47,-168.05 80.15,-178.11 89.02,-172.32 83.47,-168.05"/>
</a>
</g>
</g>
<!-- Node3 -->
<g id="Node000003" class="node">
<title>Node3</title>
<g id="a_Node000003"><a xlink:href="classFileManager.html" target="_top" xlink:title=" ">
<polygon fill="white" stroke="transparent" points="242,-295 130,-295 130,-126 242,-126 242,-295"/>
<text text-anchor="start" x="155.5" y="-282.5" font-family="Helvetica,sans-Serif" font-size="10.00">FileManager</text>
<text text-anchor="start" x="184" y="-267.5" font-family="Helvetica,sans-Serif" font-size="10.00"> </text>
<text text-anchor="start" x="134" y="-252.5" font-family="Helvetica,sans-Serif" font-size="10.00">+</text>
<text text-anchor="start" x="147" y="-252.5" font-family="Helvetica,sans-Serif" font-size="10.00">getLastFile()</text>
<text text-anchor="start" x="134" y="-237.5" font-family="Helvetica,sans-Serif" font-size="10.00">+</text>
<text text-anchor="start" x="147" y="-237.5" font-family="Helvetica,sans-Serif" font-size="10.00">searchImportFile()</text>
<text text-anchor="start" x="134" y="-222.5" font-family="Helvetica,sans-Serif" font-size="10.00">+</text>
<text text-anchor="start" x="147" y="-222.5" font-family="Helvetica,sans-Serif" font-size="10.00">searchExportFile()</text>
<text text-anchor="start" x="134" y="-207.5" font-family="Helvetica,sans-Serif" font-size="10.00">+</text>
<text text-anchor="start" x="147" y="-207.5" font-family="Helvetica,sans-Serif" font-size="10.00">readFile()</text>
<text text-anchor="start" x="134" y="-192.5" font-family="Helvetica,sans-Serif" font-size="10.00">+</text>
<text text-anchor="start" x="147" y="-192.5" font-family="Helvetica,sans-Serif" font-size="10.00">exportFile()</text>
<text text-anchor="start" x="134" y="-177.5" font-family="Helvetica,sans-Serif" font-size="10.00">+</text>
<text text-anchor="start" x="147" y="-177.5" font-family="Helvetica,sans-Serif" font-size="10.00">showErrorDialog()</text>
<text text-anchor="start" x="134" y="-162.5" font-family="Helvetica,sans-Serif" font-size="10.00">+</text>
<text text-anchor="start" x="147" y="-162.5" font-family="Helvetica,sans-Serif" font-size="10.00">showGoodDialog()</text>
<text text-anchor="start" x="134" y="-147.5" font-family="Helvetica,sans-Serif" font-size="10.00">+</text>
<text text-anchor="start" x="147" y="-147.5" font-family="Helvetica,sans-Serif" font-size="10.00">Instance()</text>
<text text-anchor="start" x="134" y="-132.5" font-family="Helvetica,sans-Serif" font-size="10.00">#</text>
<text text-anchor="start" x="147" y="-132.5" font-family="Helvetica,sans-Serif" font-size="10.00">FileManager()</text>
<polygon fill="#666666" stroke="#666666" points="130,-277.5 130,-277.5 242,-277.5 242,-277.5 130,-277.5"/>
<polygon fill="#666666" stroke="#666666" points="130,-262.5 130,-262.5 242,-262.5 242,-262.5 130,-262.5"/>
<polygon fill="none" stroke="#666666" points="130,-126 130,-295 242,-295 242,-126 130,-126"/>
</a>
</g>
</g>
<!-- Node3&#45;&gt;Node1 -->
<g id="edge2_Node000001_Node000003" class="edge">
<title>Node3&#45;&gt;Node1</title>
<g id="a_edge2_Node000001_Node000003"><a xlink:title=" ">
<path fill="none" stroke="#63b8ff" d="M186,-125.99C186,-114.28 186,-102.53 186,-91.67"/>
<polygon fill="none" stroke="#63b8ff" points="186,-91.37 182,-85.37 186,-79.37 190,-85.37 186,-91.37"/>
</a>
</g>
<text text-anchor="middle" x="226" y="-100" font-family="Helvetica,sans-Serif" font-size="10.00" fill="grey"> &#45;m_fileManager</text>
</g>
<!-- Node3&#45;&gt;Node3 -->
<g id="edge3_Node000003_Node000003" class="edge">
<title>Node3&#45;&gt;Node3</title>
<g id="a_edge3_Node000003_Node000003"><a xlink:title=" ">
<path fill="none" stroke="#63b8ff" d="M242.15,-229.35C252.62,-227.03 260,-220.75 260,-210.5 260,-204.58 257.53,-199.98 253.43,-196.7"/>
<polygon fill="none" stroke="#63b8ff" points="253.1,-196.55 245.99,-197.75 242.15,-191.65 249.26,-190.45 253.1,-196.55"/>
</a>
</g>
<text text-anchor="middle" x="292" y="-208" font-family="Helvetica,sans-Serif" font-size="10.00" fill="grey"> &#45;m_instance</text>
</g>
<!-- Node4 -->
<g id="Node000004" class="node">
<title>Node4</title>
<g id="a_Node000004"><a xlink:title=" ">
<polygon fill="white" stroke="transparent" points="205,-413.5 167,-413.5 167,-364.5 205,-364.5 205,-413.5"/>
<text text-anchor="start" x="172" y="-401" font-family="Helvetica,sans-Serif" font-size="10.00">string</text>
<text text-anchor="start" x="184" y="-386" font-family="Helvetica,sans-Serif" font-size="10.00"> </text>
<text text-anchor="start" x="184" y="-371" font-family="Helvetica,sans-Serif" font-size="10.00"> </text>
<polygon fill="#666666" stroke="#666666" points="167,-396 167,-396 205,-396 205,-396 167,-396"/>
<polygon fill="#666666" stroke="#666666" points="167,-381 167,-381 205,-381 205,-381 167,-381"/>
<polygon fill="none" stroke="#666666" points="167,-364.5 167,-413.5 205,-413.5 205,-364.5 167,-364.5"/>
</a>
</g>
</g>
<!-- Node4&#45;&gt;Node3 -->
<g id="edge4_Node000003_Node000004" class="edge">
<title>Node4&#45;&gt;Node3</title>
<g id="a_edge4_Node000003_Node000004"><a xlink:title=" ">
<path fill="none" stroke="#63b8ff" d="M186,-364.2C186,-349.1 186,-328.48 186,-307.27"/>
<polygon fill="none" stroke="#63b8ff" points="186,-307.11 182,-301.11 186,-295.11 190,-301.11 186,-307.11"/>
</a>
</g>
<text text-anchor="middle" x="215" y="-316" font-family="Helvetica,sans-Serif" font-size="10.00" fill="grey"> &#45;m_lastFile</text>
</g>
<!-- Node5 -->
<g id="Node000005" class="node">
<title>Node5</title>
<g id="a_Node000005"><a xlink:href="classTranslationManager.html" target="_top" xlink:title=" ">
<polygon fill="#fff0f0" stroke="transparent" points="376.5,-436 251.5,-436 251.5,-342 376.5,-342 376.5,-436"/>
<text text-anchor="start" x="266" y="-424" font-family="Helvetica,sans-Serif" font-size="10.00">TranslationManager</text>
<text text-anchor="start" x="312.5" y="-409" font-family="Helvetica,sans-Serif" font-size="10.00"> </text>
<text text-anchor="start" x="256" y="-394" font-family="Helvetica,sans-Serif" font-size="10.00">+</text>
<text text-anchor="start" x="269" y="-394" font-family="Helvetica,sans-Serif" font-size="10.00">loadLanguage()</text>
<text text-anchor="start" x="256" y="-379" font-family="Helvetica,sans-Serif" font-size="10.00">+</text>
<text text-anchor="start" x="269" y="-379" font-family="Helvetica,sans-Serif" font-size="10.00">getString()</text>
<text text-anchor="start" x="256" y="-364" font-family="Helvetica,sans-Serif" font-size="10.00">+</text>
<text text-anchor="start" x="269" y="-364" font-family="Helvetica,sans-Serif" font-size="10.00">Instance()</text>
<text text-anchor="start" x="256" y="-349" font-family="Helvetica,sans-Serif" font-size="10.00">#</text>
<text text-anchor="start" x="269" y="-349" font-family="Helvetica,sans-Serif" font-size="10.00">TranslationManager()</text>
<polygon fill="red" stroke="red" points="252,-419 252,-419 377,-419 377,-419 252,-419"/>
<polygon fill="red" stroke="red" points="252,-404 252,-404 377,-404 377,-404 252,-404"/>
<polygon fill="none" stroke="red" points="251.5,-342 251.5,-436 376.5,-436 376.5,-342 251.5,-342"/>
</a>
</g>
</g>
<!-- Node5&#45;&gt;Node1 -->
<g id="edge7_Node000001_Node000005" class="edge">
<title>Node5&#45;&gt;Node1</title>
<g id="a_edge7_Node000001_Node000005"><a xlink:title=" ">
<path fill="none" stroke="#63b8ff" d="M332.08,-341.92C350.59,-286.69 371.66,-193.2 333,-126 317.41,-98.9 289.56,-79.58 262.26,-66.26"/>
<polygon fill="none" stroke="#63b8ff" points="261.94,-66.11 254.82,-67.23 251.04,-61.08 258.17,-59.96 261.94,-66.11"/>
</a>
</g>
<text text-anchor="middle" x="389" y="-208" font-family="Helvetica,sans-Serif" font-size="10.00" fill="grey"> &#45;m_translator</text>
</g>
<!-- Node5&#45;&gt;Node3 -->
<g id="edge5_Node000003_Node000005" class="edge">
<title>Node5&#45;&gt;Node3</title>
<g id="a_edge5_Node000003_Node000005"><a xlink:title=" ">
<path fill="none" stroke="#63b8ff" d="M280.37,-341.63C270.77,-328.39 259.98,-313.51 249.22,-298.68"/>
<polygon fill="none" stroke="#63b8ff" points="249.22,-298.67 242.46,-296.16 242.17,-288.96 248.93,-291.46 249.22,-298.67"/>
</a>
</g>
<text text-anchor="middle" x="293.5" y="-316" font-family="Helvetica,sans-Serif" font-size="10.00" fill="grey"> &#45;translator</text>
</g>
<!-- Node5&#45;&gt;Node5 -->
<g id="edge6_Node000005_Node000005" class="edge">
<title>Node5&#45;&gt;Node5</title>
<g id="a_edge6_Node000005_Node000005"><a xlink:title=" ">
<path fill="none" stroke="#63b8ff" d="M376.78,-401.2C387.26,-399.49 394.5,-395.43 394.5,-389 394.5,-385.39 392.21,-382.52 388.34,-380.4"/>
<polygon fill="none" stroke="#63b8ff" points="388.24,-380.36 381.32,-382.4 376.78,-376.8 383.7,-374.76 388.24,-380.36"/>
</a>
</g>
<text text-anchor="middle" x="426.5" y="-386.5" font-family="Helvetica,sans-Serif" font-size="10.00" fill="grey"> &#45;m_instance</text>
</g>
</g>
</svg>
</svg>

<style type='text/css'>
<![CDATA[
[data-mouse-over-selected='false'] { opacity: 0.7; }
[data-mouse-over-selected='true']  { opacity: 1.0; }
]]>
</style>
<script type="application/ecmascript"><![CDATA[
document.addEventListener('DOMContentLoaded', (event) => {
  highlightEdges();
  highlightAdjacentNodes();
});
]]></script>
</svg>
