<?xml version="1.0" encoding="UTF-8" standalone="no"?>
<!DOCTYPE svg PUBLIC "-//W3C//DTD SVG 1.1//EN"
 "http://www.w3.org/Graphics/SVG/1.1/DTD/svg11.dtd">
<!-- Generated by graphviz version 2.43.0 (0)
 -->
<!-- Title: WindowFocusEvent Pages: 1 -->
<svg width="304pt" height="392pt"
 viewBox="0.00 0.00 304.00 392.00" xmlns="http://www.w3.org/2000/svg" xmlns:xlink="http://www.w3.org/1999/xlink">

<svg id="main" version="1.1" xmlns="http://www.w3.org/2000/svg" xmlns:xlink="http://www.w3.org/1999/xlink" xml:space="preserve" onload="init(evt)">
<style type="text/css"><![CDATA[
.node, .edge {opacity: 0.7;}
.node.selected, .edge.selected {opacity: 1;}
.edge:hover path { stroke: red; }
.edge:hover polygon { stroke: red; fill: red; }
]]></style>
<script type="application/ecmascript" xlink:href="svg.min.js"/>
<svg id="graph" class="graph">
<g id="graph0" class="graph" transform="scale(1 1) rotate(0) translate(4 388)">
<title>WindowFocusEvent</title>
<!-- Node1 -->
<g id="Node000001" class="node">
<title>Node1</title>
<g id="a_Node000001"><a xlink:title=" ">
<polygon fill="#999999" stroke="transparent" points="213.5,-284 81.5,-284 81.5,-145 213.5,-145 213.5,-284"/>
<text text-anchor="start" x="100" y="-271.5" font-family="Helvetica,sans-Serif" font-size="10.00">WindowFocusEvent</text>
<text text-anchor="start" x="85.5" y="-256.5" font-family="Helvetica,sans-Serif" font-size="10.00">#</text>
<text text-anchor="start" x="98.5" y="-256.5" font-family="Helvetica,sans-Serif" font-size="10.00">m_lastWindow</text>
<text text-anchor="start" x="85.5" y="-241.5" font-family="Helvetica,sans-Serif" font-size="10.00">+</text>
<text text-anchor="start" x="98.5" y="-241.5" font-family="Helvetica,sans-Serif" font-size="10.00">WindowFocusEvent()</text>
<text text-anchor="start" x="85.5" y="-226.5" font-family="Helvetica,sans-Serif" font-size="10.00">+</text>
<text text-anchor="start" x="98.5" y="-226.5" font-family="Helvetica,sans-Serif" font-size="10.00">~WindowFocusEvent()</text>
<text text-anchor="start" x="85.5" y="-211.5" font-family="Helvetica,sans-Serif" font-size="10.00">+</text>
<text text-anchor="start" x="98.5" y="-211.5" font-family="Helvetica,sans-Serif" font-size="10.00">handle()</text>
<text text-anchor="start" x="85.5" y="-196.5" font-family="Helvetica,sans-Serif" font-size="10.00">#</text>
<text text-anchor="start" x="98.5" y="-196.5" font-family="Helvetica,sans-Serif" font-size="10.00">Attach()</text>
<text text-anchor="start" x="85.5" y="-181.5" font-family="Helvetica,sans-Serif" font-size="10.00">#</text>
<text text-anchor="start" x="98.5" y="-181.5" font-family="Helvetica,sans-Serif" font-size="10.00">ShowWindow()</text>
<text text-anchor="start" x="85.5" y="-166.5" font-family="Helvetica,sans-Serif" font-size="10.00">#</text>
<text text-anchor="start" x="98.5" y="-166.5" font-family="Helvetica,sans-Serif" font-size="10.00">DoHandle()</text>
<text text-anchor="start" x="85.5" y="-151.5" font-family="Helvetica,sans-Serif" font-size="10.00">#</text>
<text text-anchor="start" x="98.5" y="-151.5" font-family="Helvetica,sans-Serif" font-size="10.00">DeAttach()</text>
<polygon fill="#666666" stroke="#666666" points="81.5,-266.5 81.5,-266.5 213.5,-266.5 213.5,-266.5 81.5,-266.5"/>
<polygon fill="#666666" stroke="#666666" points="81.5,-251.5 81.5,-251.5 96.5,-251.5 96.5,-251.5 81.5,-251.5"/>
<polygon fill="#666666" stroke="#666666" points="96.5,-251.5 96.5,-251.5 213.5,-251.5 213.5,-251.5 96.5,-251.5"/>
<polygon fill="none" stroke="#666666" points="81.5,-145 81.5,-284 213.5,-284 213.5,-145 81.5,-145"/>
</a>
</g>
</g>
<!-- Node3 -->
<g id="Node000003" class="node">
<title>Node3</title>
<g id="a_Node000003"><a xlink:href="classCopyEvent.html" target="_top" xlink:title=" ">
<polygon fill="white" stroke="transparent" points="139,-109 0,-109 0,0 139,0 139,-109"/>
<text text-anchor="start" x="43.5" y="-96.5" font-family="Helvetica,sans-Serif" font-size="10.00">CopyEvent</text>
<text text-anchor="start" x="7" y="-81.5" font-family="Helvetica,sans-Serif" font-size="10.00">&#45;</text>
<text text-anchor="start" x="17.5" y="-81.5" font-family="Helvetica,sans-Serif" font-size="10.00">m_memoryCellManager</text>
<text text-anchor="start" x="7" y="-66.5" font-family="Helvetica,sans-Serif" font-size="10.00">&#45;</text>
<text text-anchor="start" x="17.5" y="-66.5" font-family="Helvetica,sans-Serif" font-size="10.00">m_lastWindow</text>
<text text-anchor="start" x="4.5" y="-51.5" font-family="Helvetica,sans-Serif" font-size="10.00">+</text>
<text text-anchor="start" x="17.5" y="-51.5" font-family="Helvetica,sans-Serif" font-size="10.00">CopyEvent()</text>
<text text-anchor="start" x="4.5" y="-36.5" font-family="Helvetica,sans-Serif" font-size="10.00">+</text>
<text text-anchor="start" x="17.5" y="-36.5" font-family="Helvetica,sans-Serif" font-size="10.00">~CopyEvent()</text>
<text text-anchor="start" x="4.5" y="-21.5" font-family="Helvetica,sans-Serif" font-size="10.00">#</text>
<text text-anchor="start" x="17.5" y="-21.5" font-family="Helvetica,sans-Serif" font-size="10.00">DoHandle()</text>
<text text-anchor="start" x="7" y="-6.5" font-family="Helvetica,sans-Serif" font-size="10.00">&#45;</text>
<text text-anchor="start" x="17.5" y="-6.5" font-family="Helvetica,sans-Serif" font-size="10.00">SimulateCopy()</text>
<polygon fill="#666666" stroke="#666666" points="0.5,-91.5 0.5,-91.5 139.5,-91.5 139.5,-91.5 0.5,-91.5"/>
<polygon fill="#666666" stroke="#666666" points="0.5,-61.5 0.5,-61.5 15.5,-61.5 15.5,-61.5 0.5,-61.5"/>
<polygon fill="#666666" stroke="#666666" points="15.5,-61.5 15.5,-61.5 139.5,-61.5 139.5,-61.5 15.5,-61.5"/>
<polygon fill="none" stroke="#666666" points="0,0 0,-109 139,-109 139,0 0,0"/>
</a>
</g>
</g>
<!-- Node1&#45;&gt;Node3 -->
<g id="edge2_Node000001_Node000003" class="edge">
<title>Node1&#45;&gt;Node3</title>
<g id="a_edge2_Node000001_Node000003"><a xlink:title=" ">
<path fill="none" stroke="#63b8ff" d="M108.98,-135.48C104.63,-126.65 100.26,-117.81 96.1,-109.39"/>
<polygon fill="none" stroke="#63b8ff" points="105.95,-137.24 113.51,-144.66 112.23,-134.14 105.95,-137.24"/>
</a>
</g>
</g>
<!-- Node4 -->
<g id="Node000004" class="node">
<title>Node4</title>
<g id="a_Node000004"><a xlink:href="classPasteEvent.html" target="_top" xlink:title=" ">
<polygon fill="white" stroke="transparent" points="296,-109 157,-109 157,0 296,0 296,-109"/>
<text text-anchor="start" x="199.5" y="-96.5" font-family="Helvetica,sans-Serif" font-size="10.00">PasteEvent</text>
<text text-anchor="start" x="164" y="-81.5" font-family="Helvetica,sans-Serif" font-size="10.00">&#45;</text>
<text text-anchor="start" x="174.5" y="-81.5" font-family="Helvetica,sans-Serif" font-size="10.00">m_memoryCellManager</text>
<text text-anchor="start" x="164" y="-66.5" font-family="Helvetica,sans-Serif" font-size="10.00">&#45;</text>
<text text-anchor="start" x="174.5" y="-66.5" font-family="Helvetica,sans-Serif" font-size="10.00">m_lastWindow</text>
<text text-anchor="start" x="161.5" y="-51.5" font-family="Helvetica,sans-Serif" font-size="10.00">+</text>
<text text-anchor="start" x="174.5" y="-51.5" font-family="Helvetica,sans-Serif" font-size="10.00">PasteEvent()</text>
<text text-anchor="start" x="161.5" y="-36.5" font-family="Helvetica,sans-Serif" font-size="10.00">+</text>
<text text-anchor="start" x="174.5" y="-36.5" font-family="Helvetica,sans-Serif" font-size="10.00">~PasteEvent()</text>
<text text-anchor="start" x="161.5" y="-21.5" font-family="Helvetica,sans-Serif" font-size="10.00">#</text>
<text text-anchor="start" x="174.5" y="-21.5" font-family="Helvetica,sans-Serif" font-size="10.00">DoHandle()</text>
<text text-anchor="start" x="164" y="-6.5" font-family="Helvetica,sans-Serif" font-size="10.00">&#45;</text>
<text text-anchor="start" x="174.5" y="-6.5" font-family="Helvetica,sans-Serif" font-size="10.00">SimulatePaste()</text>
<polygon fill="#666666" stroke="#666666" points="157.5,-91.5 157.5,-91.5 296.5,-91.5 296.5,-91.5 157.5,-91.5"/>
<polygon fill="#666666" stroke="#666666" points="157.5,-61.5 157.5,-61.5 172.5,-61.5 172.5,-61.5 157.5,-61.5"/>
<polygon fill="#666666" stroke="#666666" points="172.5,-61.5 172.5,-61.5 296.5,-61.5 296.5,-61.5 172.5,-61.5"/>
<polygon fill="none" stroke="#666666" points="157,0 157,-109 296,-109 296,0 157,0"/>
</a>
</g>
</g>
<!-- Node1&#45;&gt;Node4 -->
<g id="edge3_Node000001_Node000004" class="edge">
<title>Node1&#45;&gt;Node4</title>
<g id="a_edge3_Node000001_Node000004"><a xlink:title=" ">
<path fill="none" stroke="#63b8ff" d="M186.51,-135.48C190.92,-126.65 195.35,-117.81 199.56,-109.39"/>
<polygon fill="none" stroke="#63b8ff" points="183.26,-134.15 181.92,-144.66 189.52,-137.28 183.26,-134.15"/>
</a>
</g>
</g>
<!-- Node2 -->
<g id="Node000002" class="node">
<title>Node2</title>
<g id="a_Node000002"><a xlink:href="classClipboardEvent.html" target="_top" xlink:title=" ">
<polygon fill="white" stroke="transparent" points="203.5,-384 91.5,-384 91.5,-320 203.5,-320 203.5,-384"/>
<text text-anchor="start" x="110" y="-372" font-family="Helvetica,sans-Serif" font-size="10.00">ClipboardEvent</text>
<text text-anchor="start" x="145.5" y="-357" font-family="Helvetica,sans-Serif" font-size="10.00"> </text>
<text text-anchor="start" x="95.5" y="-342" font-family="Helvetica,sans-Serif" font-size="10.00">+</text>
<text text-anchor="start" x="108.5" y="-342" font-family="Helvetica,sans-Serif" font-size="10.00">~ClipboardEvent()</text>
<text text-anchor="start" x="95.5" y="-327" font-family="Helvetica,sans-Serif" font-size="10.00">+</text>
<text text-anchor="start" x="108.5" y="-327" font-family="Helvetica,sans-Serif" font-size="10.00">handle()</text>
<polygon fill="#666666" stroke="#666666" points="91.5,-367 91.5,-367 203.5,-367 203.5,-367 91.5,-367"/>
<polygon fill="#666666" stroke="#666666" points="91.5,-352 91.5,-352 203.5,-352 203.5,-352 91.5,-352"/>
<polygon fill="none" stroke="#666666" points="91.5,-320 91.5,-384 203.5,-384 203.5,-320 91.5,-320"/>
</a>
</g>
</g>
<!-- Node2&#45;&gt;Node1 -->
<g id="edge1_Node000001_Node000002" class="edge">
<title>Node2&#45;&gt;Node1</title>
<g id="a_edge1_Node000001_Node000002"><a xlink:title=" ">
<path fill="none" stroke="#63b8ff" d="M147.5,-309.69C147.5,-301.62 147.5,-292.95 147.5,-284.26"/>
<polygon fill="none" stroke="#63b8ff" points="144,-309.91 147.5,-319.91 151,-309.91 144,-309.91"/>
</a>
</g>
</g>
</g>
</svg>
</svg>

<style type='text/css'>
<![CDATA[
[data-mouse-over-selected='false'] { opacity: 0.7; }
[data-mouse-over-selected='true']  { opacity: 1.0; }
]]>
</style>
<script type="application/ecmascript"><![CDATA[
document.addEventListener('DOMContentLoaded', (event) => {
  highlightEdges();
  highlightAdjacentNodes();
});
]]></script>
</svg>
