<?xml version="1.0" encoding="UTF-8" standalone="no"?>
<!DOCTYPE svg PUBLIC "-//W3C//DTD SVG 1.1//EN"
 "http://www.w3.org/Graphics/SVG/1.1/DTD/svg11.dtd">
<!-- Generated by graphviz version 2.43.0 (0)
 -->
<!-- Title: WindowFocusEvent Pages: 1 -->
<svg width="304pt" height="377pt"
 viewBox="0.00 0.00 304.00 377.00" xmlns="http://www.w3.org/2000/svg" xmlns:xlink="http://www.w3.org/1999/xlink">
<g id="graph0" class="graph" transform="scale(1 1) rotate(0) translate(4 373)">
<title>WindowFocusEvent</title>
<!-- Node1 -->
<g id="Node000001" class="node">
<title>Node1</title>
<g id="a_Node000001"><a xlink:title=" ">
<polygon fill="#999999" stroke="transparent" points="213.5,-269 81.5,-269 81.5,-130 213.5,-130 213.5,-269"/>
<text text-anchor="start" x="100" y="-256.5" font-family="Helvetica,sans-Serif" font-size="10.00">WindowFocusEvent</text>
<text text-anchor="start" x="145.5" y="-241.5" font-family="Helvetica,sans-Serif" font-size="10.00"> </text>
<text text-anchor="start" x="85.5" y="-226.5" font-family="Helvetica,sans-Serif" font-size="10.00">+</text>
<text text-anchor="start" x="98.5" y="-226.5" font-family="Helvetica,sans-Serif" font-size="10.00">WindowFocusEvent()</text>
<text text-anchor="start" x="85.5" y="-211.5" font-family="Helvetica,sans-Serif" font-size="10.00">+</text>
<text text-anchor="start" x="98.5" y="-211.5" font-family="Helvetica,sans-Serif" font-size="10.00">~WindowFocusEvent()</text>
<text text-anchor="start" x="85.5" y="-196.5" font-family="Helvetica,sans-Serif" font-size="10.00">+</text>
<text text-anchor="start" x="98.5" y="-196.5" font-family="Helvetica,sans-Serif" font-size="10.00">handle()</text>
<text text-anchor="start" x="85.5" y="-181.5" font-family="Helvetica,sans-Serif" font-size="10.00">#</text>
<text text-anchor="start" x="98.5" y="-181.5" font-family="Helvetica,sans-Serif" font-size="10.00">DoHandle()</text>
<text text-anchor="start" x="88" y="-166.5" font-family="Helvetica,sans-Serif" font-size="10.00">&#45;</text>
<text text-anchor="start" x="98.5" y="-166.5" font-family="Helvetica,sans-Serif" font-size="10.00">Attach()</text>
<text text-anchor="start" x="88" y="-151.5" font-family="Helvetica,sans-Serif" font-size="10.00">&#45;</text>
<text text-anchor="start" x="98.5" y="-151.5" font-family="Helvetica,sans-Serif" font-size="10.00">ShowWindow()</text>
<text text-anchor="start" x="88" y="-136.5" font-family="Helvetica,sans-Serif" font-size="10.00">&#45;</text>
<text text-anchor="start" x="98.5" y="-136.5" font-family="Helvetica,sans-Serif" font-size="10.00">DeAttach()</text>
<polygon fill="#666666" stroke="#666666" points="81.5,-251.5 81.5,-251.5 213.5,-251.5 213.5,-251.5 81.5,-251.5"/>
<polygon fill="#666666" stroke="#666666" points="81.5,-236.5 81.5,-236.5 213.5,-236.5 213.5,-236.5 81.5,-236.5"/>
<polygon fill="none" stroke="#666666" points="81.5,-130 81.5,-269 213.5,-269 213.5,-130 81.5,-130"/>
</a>
</g>
</g>
<!-- Node3 -->
<g id="Node000003" class="node">
<title>Node3</title>
<g id="a_Node000003"><a xlink:href="classCopyEvent.html" target="_top" xlink:title=" ">
<polygon fill="white" stroke="transparent" points="139,-94 0,-94 0,0 139,0 139,-94"/>
<text text-anchor="start" x="43.5" y="-82" font-family="Helvetica,sans-Serif" font-size="10.00">CopyEvent</text>
<text text-anchor="start" x="7" y="-67" font-family="Helvetica,sans-Serif" font-size="10.00">&#45;</text>
<text text-anchor="start" x="17.5" y="-67" font-family="Helvetica,sans-Serif" font-size="10.00">m_memoryCellManager</text>
<text text-anchor="start" x="4.5" y="-52" font-family="Helvetica,sans-Serif" font-size="10.00">+</text>
<text text-anchor="start" x="17.5" y="-52" font-family="Helvetica,sans-Serif" font-size="10.00">CopyEvent()</text>
<text text-anchor="start" x="4.5" y="-37" font-family="Helvetica,sans-Serif" font-size="10.00">+</text>
<text text-anchor="start" x="17.5" y="-37" font-family="Helvetica,sans-Serif" font-size="10.00">~CopyEvent()</text>
<text text-anchor="start" x="4.5" y="-22" font-family="Helvetica,sans-Serif" font-size="10.00">#</text>
<text text-anchor="start" x="17.5" y="-22" font-family="Helvetica,sans-Serif" font-size="10.00">DoHandle()</text>
<text text-anchor="start" x="7" y="-7" font-family="Helvetica,sans-Serif" font-size="10.00">&#45;</text>
<text text-anchor="start" x="17.5" y="-7" font-family="Helvetica,sans-Serif" font-size="10.00">SimulateCopy()</text>
<polygon fill="#666666" stroke="#666666" points="0.5,-77 0.5,-77 139.5,-77 139.5,-77 0.5,-77"/>
<polygon fill="#666666" stroke="#666666" points="0.5,-62 0.5,-62 15.5,-62 15.5,-62 0.5,-62"/>
<polygon fill="#666666" stroke="#666666" points="15.5,-62 15.5,-62 139.5,-62 139.5,-62 15.5,-62"/>
<polygon fill="none" stroke="#666666" points="0,0 0,-94 139,-94 139,0 0,0"/>
</a>
</g>
</g>
<!-- Node1&#45;&gt;Node3 -->
<g id="edge2_Node000001_Node000003" class="edge">
<title>Node1&#45;&gt;Node3</title>
<g id="a_edge2_Node000001_Node000003"><a xlink:title=" ">
<path fill="none" stroke="#63b8ff" d="M107.21,-120.76C102.5,-111.67 97.81,-102.62 93.42,-94.15"/>
<polygon fill="none" stroke="#63b8ff" points="104.21,-122.59 111.92,-129.86 110.43,-119.37 104.21,-122.59"/>
</a>
</g>
</g>
<!-- Node4 -->
<g id="Node000004" class="node">
<title>Node4</title>
<g id="a_Node000004"><a xlink:href="classPasteEvent.html" target="_top" xlink:title=" ">
<polygon fill="white" stroke="transparent" points="296,-94 157,-94 157,0 296,0 296,-94"/>
<text text-anchor="start" x="199.5" y="-82" font-family="Helvetica,sans-Serif" font-size="10.00">PasteEvent</text>
<text text-anchor="start" x="164" y="-67" font-family="Helvetica,sans-Serif" font-size="10.00">&#45;</text>
<text text-anchor="start" x="174.5" y="-67" font-family="Helvetica,sans-Serif" font-size="10.00">m_memoryCellManager</text>
<text text-anchor="start" x="161.5" y="-52" font-family="Helvetica,sans-Serif" font-size="10.00">+</text>
<text text-anchor="start" x="174.5" y="-52" font-family="Helvetica,sans-Serif" font-size="10.00">PasteEvent()</text>
<text text-anchor="start" x="161.5" y="-37" font-family="Helvetica,sans-Serif" font-size="10.00">+</text>
<text text-anchor="start" x="174.5" y="-37" font-family="Helvetica,sans-Serif" font-size="10.00">~PasteEvent()</text>
<text text-anchor="start" x="161.5" y="-22" font-family="Helvetica,sans-Serif" font-size="10.00">#</text>
<text text-anchor="start" x="174.5" y="-22" font-family="Helvetica,sans-Serif" font-size="10.00">DoHandle()</text>
<text text-anchor="start" x="164" y="-7" font-family="Helvetica,sans-Serif" font-size="10.00">&#45;</text>
<text text-anchor="start" x="174.5" y="-7" font-family="Helvetica,sans-Serif" font-size="10.00">SimulatePaste()</text>
<polygon fill="#666666" stroke="#666666" points="157.5,-77 157.5,-77 296.5,-77 296.5,-77 157.5,-77"/>
<polygon fill="#666666" stroke="#666666" points="157.5,-62 157.5,-62 172.5,-62 172.5,-62 157.5,-62"/>
<polygon fill="#666666" stroke="#666666" points="172.5,-62 172.5,-62 296.5,-62 296.5,-62 172.5,-62"/>
<polygon fill="none" stroke="#666666" points="157,0 157,-94 296,-94 296,0 157,0"/>
</a>
</g>
</g>
<!-- Node1&#45;&gt;Node4 -->
<g id="edge3_Node000001_Node000004" class="edge">
<title>Node1&#45;&gt;Node4</title>
<g id="a_edge3_Node000001_Node000004"><a xlink:title=" ">
<path fill="none" stroke="#63b8ff" d="M188.31,-120.76C193.08,-111.67 197.83,-102.62 202.28,-94.15"/>
<polygon fill="none" stroke="#63b8ff" points="185.08,-119.38 183.53,-129.86 191.28,-122.63 185.08,-119.38"/>
</a>
</g>
</g>
<!-- Node2 -->
<g id="Node000002" class="node">
<title>Node2</title>
<g id="a_Node000002"><a xlink:href="classClipboardEvent.html" target="_top" xlink:title=" ">
<polygon fill="white" stroke="transparent" points="203.5,-369 91.5,-369 91.5,-305 203.5,-305 203.5,-369"/>
<text text-anchor="start" x="110" y="-357" font-family="Helvetica,sans-Serif" font-size="10.00">ClipboardEvent</text>
<text text-anchor="start" x="145.5" y="-342" font-family="Helvetica,sans-Serif" font-size="10.00"> </text>
<text text-anchor="start" x="95.5" y="-327" font-family="Helvetica,sans-Serif" font-size="10.00">+</text>
<text text-anchor="start" x="108.5" y="-327" font-family="Helvetica,sans-Serif" font-size="10.00">~ClipboardEvent()</text>
<text text-anchor="start" x="95.5" y="-312" font-family="Helvetica,sans-Serif" font-size="10.00">+</text>
<text text-anchor="start" x="108.5" y="-312" font-family="Helvetica,sans-Serif" font-size="10.00">handle()</text>
<polygon fill="#666666" stroke="#666666" points="91.5,-352 91.5,-352 203.5,-352 203.5,-352 91.5,-352"/>
<polygon fill="#666666" stroke="#666666" points="91.5,-337 91.5,-337 203.5,-337 203.5,-337 91.5,-337"/>
<polygon fill="none" stroke="#666666" points="91.5,-305 91.5,-369 203.5,-369 203.5,-305 91.5,-305"/>
</a>
</g>
</g>
<!-- Node2&#45;&gt;Node1 -->
<g id="edge1_Node000001_Node000002" class="edge">
<title>Node2&#45;&gt;Node1</title>
<g id="a_edge1_Node000001_Node000002"><a xlink:title=" ">
<path fill="none" stroke="#63b8ff" d="M147.5,-294.69C147.5,-286.62 147.5,-277.95 147.5,-269.26"/>
<polygon fill="none" stroke="#63b8ff" points="144,-294.91 147.5,-304.91 151,-294.91 144,-294.91"/>
</a>
</g>
</g>
</g>
</svg>
