<?xml version="1.0" encoding="UTF-8" standalone="no"?>
<!DOCTYPE svg PUBLIC "-//W3C//DTD SVG 1.1//EN"
 "http://www.w3.org/Graphics/SVG/1.1/DTD/svg11.dtd">
<!-- Generated by graphviz version 2.43.0 (0)
 -->
<!-- Title: QObject Pages: 1 -->
<svg width="358pt" height="487pt"
 viewBox="0.00 0.00 358.00 487.00" xmlns="http://www.w3.org/2000/svg" xmlns:xlink="http://www.w3.org/1999/xlink">
<g id="graph0" class="graph" transform="scale(1 1) rotate(0) translate(4 483)">
<title>QObject</title>
<!-- Node1 -->
<g id="Node000001" class="node">
<title>Node1</title>
<g id="a_Node000001"><a xlink:title=" ">
<polygon fill="#999999" stroke="transparent" points="201.5,-479 151.5,-479 151.5,-430 201.5,-430 201.5,-479"/>
<text text-anchor="start" x="156.5" y="-466.5" font-family="Helvetica,sans-Serif" font-size="10.00">QObject</text>
<text text-anchor="start" x="174.5" y="-451.5" font-family="Helvetica,sans-Serif" font-size="10.00"> </text>
<text text-anchor="start" x="174.5" y="-436.5" font-family="Helvetica,sans-Serif" font-size="10.00"> </text>
<polygon fill="#666666" stroke="#666666" points="151.5,-461.5 151.5,-461.5 201.5,-461.5 201.5,-461.5 151.5,-461.5"/>
<polygon fill="#666666" stroke="#666666" points="151.5,-446.5 151.5,-446.5 201.5,-446.5 201.5,-446.5 151.5,-446.5"/>
<polygon fill="none" stroke="#666666" points="151.5,-430 151.5,-479 201.5,-479 201.5,-430 151.5,-430"/>
</a>
</g>
</g>
<!-- Node2 -->
<g id="Node000002" class="node">
<title>Node2</title>
<g id="a_Node000002"><a xlink:href="classClipboardListener.html" target="_top" xlink:title=" ">
<polygon fill="white" stroke="transparent" points="169,-274 0,-274 0,-120 169,-120 169,-274"/>
<text text-anchor="start" x="42" y="-262" font-family="Helvetica,sans-Serif" font-size="10.00">ClipboardListener</text>
<text text-anchor="start" x="7" y="-247" font-family="Helvetica,sans-Serif" font-size="10.00">&#45;</text>
<text text-anchor="start" x="17.5" y="-247" font-family="Helvetica,sans-Serif" font-size="10.00">m_clipboard</text>
<text text-anchor="start" x="7" y="-232" font-family="Helvetica,sans-Serif" font-size="10.00">&#45;</text>
<text text-anchor="start" x="17.5" y="-232" font-family="Helvetica,sans-Serif" font-size="10.00">m_actionQueue</text>
<text text-anchor="start" x="7" y="-217" font-family="Helvetica,sans-Serif" font-size="10.00">&#45;</text>
<text text-anchor="start" x="17.5" y="-217" font-family="Helvetica,sans-Serif" font-size="10.00">m_baseAction</text>
<text text-anchor="start" x="4.5" y="-202" font-family="Helvetica,sans-Serif" font-size="10.00">+</text>
<text text-anchor="start" x="17.5" y="-202" font-family="Helvetica,sans-Serif" font-size="10.00">Initialize()</text>
<text text-anchor="start" x="4.5" y="-187" font-family="Helvetica,sans-Serif" font-size="10.00">+</text>
<text text-anchor="start" x="17.5" y="-187" font-family="Helvetica,sans-Serif" font-size="10.00">AddCallback()</text>
<text text-anchor="start" x="4.5" y="-172" font-family="Helvetica,sans-Serif" font-size="10.00">+</text>
<text text-anchor="start" x="17.5" y="-172" font-family="Helvetica,sans-Serif" font-size="10.00">AddBaseCallback()</text>
<text text-anchor="start" x="4.5" y="-157" font-family="Helvetica,sans-Serif" font-size="10.00">+</text>
<text text-anchor="start" x="17.5" y="-157" font-family="Helvetica,sans-Serif" font-size="10.00">Instance()</text>
<text text-anchor="start" x="4.5" y="-142" font-family="Helvetica,sans-Serif" font-size="10.00">#</text>
<text text-anchor="start" x="17.5" y="-142" font-family="Helvetica,sans-Serif" font-size="10.00">ClipboardListener()</text>
<text text-anchor="start" x="7" y="-127" font-family="Helvetica,sans-Serif" font-size="10.00">&#45;</text>
<text text-anchor="start" x="17.5" y="-127" font-family="Helvetica,sans-Serif" font-size="10.00">OnSystemClipboardChanged()</text>
<polygon fill="#666666" stroke="#666666" points="0.5,-257 0.5,-257 169.5,-257 169.5,-257 0.5,-257"/>
<polygon fill="#666666" stroke="#666666" points="0.5,-212 0.5,-212 15.5,-212 15.5,-212 0.5,-212"/>
<polygon fill="#666666" stroke="#666666" points="15.5,-212 15.5,-212 169.5,-212 169.5,-212 15.5,-212"/>
<polygon fill="none" stroke="#666666" points="0,-120 0,-274 169,-274 169,-120 0,-120"/>
</a>
</g>
</g>
<!-- Node1&#45;&gt;Node2 -->
<g id="edge1_Node000001_Node000002" class="edge">
<title>Node1&#45;&gt;Node2</title>
<g id="a_edge1_Node000001_Node000002"><a xlink:title=" ">
<path fill="none" stroke="#63b8ff" d="M164.5,-420.19C151.24,-383.34 129.42,-322.75 111.92,-274.14"/>
<polygon fill="none" stroke="#63b8ff" points="161.33,-421.7 168.01,-429.92 167.91,-419.33 161.33,-421.7"/>
</a>
</g>
</g>
<!-- Node3 -->
<g id="Node000003" class="node">
<title>Node3</title>
<g id="a_Node000003"><a xlink:href="classClipboardXX.html" target="_top" xlink:title=" ">
<polygon fill="white" stroke="transparent" points="350,-394 187,-394 187,0 350,0 350,-394"/>
<text text-anchor="start" x="238.5" y="-382" font-family="Helvetica,sans-Serif" font-size="10.00">ClipboardXX</text>
<text text-anchor="start" x="194" y="-367" font-family="Helvetica,sans-Serif" font-size="10.00">&#45;</text>
<text text-anchor="start" x="204.5" y="-367" font-family="Helvetica,sans-Serif" font-size="10.00">m_app</text>
<text text-anchor="start" x="194" y="-352" font-family="Helvetica,sans-Serif" font-size="10.00">&#45;</text>
<text text-anchor="start" x="204.5" y="-352" font-family="Helvetica,sans-Serif" font-size="10.00">m_trayIcon</text>
<text text-anchor="start" x="194" y="-337" font-family="Helvetica,sans-Serif" font-size="10.00">&#45;</text>
<text text-anchor="start" x="204.5" y="-337" font-family="Helvetica,sans-Serif" font-size="10.00">m_doc_main</text>
<text text-anchor="start" x="194" y="-322" font-family="Helvetica,sans-Serif" font-size="10.00">&#45;</text>
<text text-anchor="start" x="204.5" y="-322" font-family="Helvetica,sans-Serif" font-size="10.00">m_doc_fileImport</text>
<text text-anchor="start" x="194" y="-307" font-family="Helvetica,sans-Serif" font-size="10.00">&#45;</text>
<text text-anchor="start" x="204.5" y="-307" font-family="Helvetica,sans-Serif" font-size="10.00">m_doc_fileExport</text>
<text text-anchor="start" x="194" y="-292" font-family="Helvetica,sans-Serif" font-size="10.00">&#45;</text>
<text text-anchor="start" x="204.5" y="-292" font-family="Helvetica,sans-Serif" font-size="10.00">m_doc_shortcutsMenu</text>
<text text-anchor="start" x="194" y="-277" font-family="Helvetica,sans-Serif" font-size="10.00">&#45;</text>
<text text-anchor="start" x="204.5" y="-277" font-family="Helvetica,sans-Serif" font-size="10.00">m_doc_edit</text>
<text text-anchor="start" x="194" y="-262" font-family="Helvetica,sans-Serif" font-size="10.00">&#45;</text>
<text text-anchor="start" x="204.5" y="-262" font-family="Helvetica,sans-Serif" font-size="10.00">element_clipboard_instancer</text>
<text text-anchor="start" x="194" y="-247" font-family="Helvetica,sans-Serif" font-size="10.00">&#45;</text>
<text text-anchor="start" x="204.5" y="-247" font-family="Helvetica,sans-Serif" font-size="10.00">element_file_instancer</text>
<text text-anchor="start" x="194" y="-232" font-family="Helvetica,sans-Serif" font-size="10.00">&#45;</text>
<text text-anchor="start" x="204.5" y="-232" font-family="Helvetica,sans-Serif" font-size="10.00">element_shortcuts_instancer</text>
<text text-anchor="start" x="194" y="-217" font-family="Helvetica,sans-Serif" font-size="10.00">&#45;</text>
<text text-anchor="start" x="204.5" y="-217" font-family="Helvetica,sans-Serif" font-size="10.00">element_edit_instancer</text>
<text text-anchor="start" x="194" y="-202" font-family="Helvetica,sans-Serif" font-size="10.00">&#45;</text>
<text text-anchor="start" x="204.5" y="-202" font-family="Helvetica,sans-Serif" font-size="10.00">event_listener_instancer</text>
<text text-anchor="start" x="194" y="-187" font-family="Helvetica,sans-Serif" font-size="10.00">&#45;</text>
<text text-anchor="start" x="204.5" y="-187" font-family="Helvetica,sans-Serif" font-size="10.00">m_running</text>
<text text-anchor="start" x="194" y="-172" font-family="Helvetica,sans-Serif" font-size="10.00">&#45;</text>
<text text-anchor="start" x="204.5" y="-172" font-family="Helvetica,sans-Serif" font-size="10.00">m_isWindowOpened</text>
<text text-anchor="start" x="194" y="-157" font-family="Helvetica,sans-Serif" font-size="10.00">&#45;</text>
<text text-anchor="start" x="204.5" y="-157" font-family="Helvetica,sans-Serif" font-size="10.00">m_hotkeyListenerThread</text>
<text text-anchor="start" x="191.5" y="-142" font-family="Helvetica,sans-Serif" font-size="10.00">+</text>
<text text-anchor="start" x="204.5" y="-142" font-family="Helvetica,sans-Serif" font-size="10.00">ClipboardXX()</text>
<text text-anchor="start" x="191.5" y="-127" font-family="Helvetica,sans-Serif" font-size="10.00">+</text>
<text text-anchor="start" x="204.5" y="-127" font-family="Helvetica,sans-Serif" font-size="10.00">~ClipboardXX()</text>
<text text-anchor="start" x="191.5" y="-112" font-family="Helvetica,sans-Serif" font-size="10.00">+</text>
<text text-anchor="start" x="204.5" y="-112" font-family="Helvetica,sans-Serif" font-size="10.00">Run()</text>
<text text-anchor="start" x="194" y="-97" font-family="Helvetica,sans-Serif" font-size="10.00">&#45;</text>
<text text-anchor="start" x="204.5" y="-97" font-family="Helvetica,sans-Serif" font-size="10.00">initialize()</text>
<text text-anchor="start" x="194" y="-82" font-family="Helvetica,sans-Serif" font-size="10.00">&#45;</text>
<text text-anchor="start" x="204.5" y="-82" font-family="Helvetica,sans-Serif" font-size="10.00">mainLoop()</text>
<text text-anchor="start" x="194" y="-67" font-family="Helvetica,sans-Serif" font-size="10.00">&#45;</text>
<text text-anchor="start" x="204.5" y="-67" font-family="Helvetica,sans-Serif" font-size="10.00">shutdown()</text>
<text text-anchor="start" x="194" y="-52" font-family="Helvetica,sans-Serif" font-size="10.00">&#45;</text>
<text text-anchor="start" x="204.5" y="-52" font-family="Helvetica,sans-Serif" font-size="10.00">captureHWND()</text>
<text text-anchor="start" x="194" y="-37" font-family="Helvetica,sans-Serif" font-size="10.00">&#45;</text>
<text text-anchor="start" x="204.5" y="-37" font-family="Helvetica,sans-Serif" font-size="10.00">hideAllDocuments()</text>
<text text-anchor="start" x="194" y="-22" font-family="Helvetica,sans-Serif" font-size="10.00">&#45;</text>
<text text-anchor="start" x="204.5" y="-22" font-family="Helvetica,sans-Serif" font-size="10.00">showShortcuts()</text>
<text text-anchor="start" x="194" y="-7" font-family="Helvetica,sans-Serif" font-size="10.00">&#45;</text>
<text text-anchor="start" x="204.5" y="-7" font-family="Helvetica,sans-Serif" font-size="10.00">quit()</text>
<polygon fill="#666666" stroke="#666666" points="187.5,-377 187.5,-377 350.5,-377 350.5,-377 187.5,-377"/>
<polygon fill="#666666" stroke="#666666" points="187.5,-152 187.5,-152 202.5,-152 202.5,-152 187.5,-152"/>
<polygon fill="#666666" stroke="#666666" points="202.5,-152 202.5,-152 350.5,-152 350.5,-152 202.5,-152"/>
<polygon fill="none" stroke="#666666" points="187,0 187,-394 350,-394 350,0 187,0"/>
</a>
</g>
</g>
<!-- Node1&#45;&gt;Node3 -->
<g id="edge2_Node000001_Node000003" class="edge">
<title>Node1&#45;&gt;Node3</title>
<g id="a_edge2_Node000001_Node000003"><a xlink:title=" ">
<path fill="none" stroke="#63b8ff" d="M188.44,-420.33C191.25,-412.55 194.43,-403.7 197.88,-394.12"/>
<polygon fill="none" stroke="#63b8ff" points="185.09,-419.33 184.99,-429.92 191.67,-421.7 185.09,-419.33"/>
</a>
</g>
</g>
</g>
</svg>
