<?xml version="1.0" encoding="UTF-8" standalone="no"?>
<!DOCTYPE svg PUBLIC "-//W3C//DTD SVG 1.1//EN"
 "http://www.w3.org/Graphics/SVG/1.1/DTD/svg11.dtd">
<!-- Generated by graphviz version 2.43.0 (0)
 -->
<!-- Title: ExpandEvent Pages: 1 -->
<svg width="653pt" height="727pt"
 viewBox="0.00 0.00 652.50 727.00" xmlns="http://www.w3.org/2000/svg" xmlns:xlink="http://www.w3.org/1999/xlink">
<g id="graph0" class="graph" transform="scale(1 1) rotate(0) translate(4 723)">
<title>ExpandEvent</title>
<!-- Node1 -->
<g id="Node000001" class="node">
<title>Node1</title>
<g id="a_Node000001"><a xlink:title=" ">
<polygon fill="#999999" stroke="transparent" points="290,-79 189,-79 189,0 290,0 290,-79"/>
<text text-anchor="start" x="208" y="-66.5" font-family="Helvetica,sans-Serif" font-size="10.00">ExpandEvent</text>
<text text-anchor="start" x="238" y="-51.5" font-family="Helvetica,sans-Serif" font-size="10.00"> </text>
<text text-anchor="start" x="193.5" y="-36.5" font-family="Helvetica,sans-Serif" font-size="10.00">+</text>
<text text-anchor="start" x="206.5" y="-36.5" font-family="Helvetica,sans-Serif" font-size="10.00">ExpandEvent()</text>
<text text-anchor="start" x="193.5" y="-21.5" font-family="Helvetica,sans-Serif" font-size="10.00">+</text>
<text text-anchor="start" x="206.5" y="-21.5" font-family="Helvetica,sans-Serif" font-size="10.00">~ExpandEvent()</text>
<text text-anchor="start" x="193.5" y="-6.5" font-family="Helvetica,sans-Serif" font-size="10.00">+</text>
<text text-anchor="start" x="206.5" y="-6.5" font-family="Helvetica,sans-Serif" font-size="10.00">handle()</text>
<polygon fill="#666666" stroke="#666666" points="189.5,-61.5 189.5,-61.5 290.5,-61.5 290.5,-61.5 189.5,-61.5"/>
<polygon fill="#666666" stroke="#666666" points="189.5,-46.5 189.5,-46.5 290.5,-46.5 290.5,-46.5 189.5,-46.5"/>
<polygon fill="none" stroke="#666666" points="189,0 189,-79 290,-79 290,0 189,0"/>
</a>
</g>
</g>
<!-- Node2 -->
<g id="Node000002" class="node">
<title>Node2</title>
<g id="a_Node000002"><a xlink:href="classClipboardEvent.html" target="_top" xlink:title=" ">
<polygon fill="white" stroke="transparent" points="151.5,-265 39.5,-265 39.5,-201 151.5,-201 151.5,-265"/>
<text text-anchor="start" x="58" y="-253" font-family="Helvetica,sans-Serif" font-size="10.00">ClipboardEvent</text>
<text text-anchor="start" x="93.5" y="-238" font-family="Helvetica,sans-Serif" font-size="10.00"> </text>
<text text-anchor="start" x="43.5" y="-223" font-family="Helvetica,sans-Serif" font-size="10.00">+</text>
<text text-anchor="start" x="56.5" y="-223" font-family="Helvetica,sans-Serif" font-size="10.00">~ClipboardEvent()</text>
<text text-anchor="start" x="43.5" y="-208" font-family="Helvetica,sans-Serif" font-size="10.00">+</text>
<text text-anchor="start" x="56.5" y="-208" font-family="Helvetica,sans-Serif" font-size="10.00">handle()</text>
<polygon fill="#666666" stroke="#666666" points="39.5,-248 39.5,-248 151.5,-248 151.5,-248 39.5,-248"/>
<polygon fill="#666666" stroke="#666666" points="39.5,-233 39.5,-233 151.5,-233 151.5,-233 39.5,-233"/>
<polygon fill="none" stroke="#666666" points="39.5,-201 39.5,-265 151.5,-265 151.5,-201 39.5,-201"/>
</a>
</g>
</g>
<!-- Node2&#45;&gt;Node1 -->
<g id="edge1_Node000001_Node000002" class="edge">
<title>Node2&#45;&gt;Node1</title>
<g id="a_edge1_Node000001_Node000002"><a xlink:title=" ">
<path fill="none" stroke="#63b8ff" d="M117.49,-192.07C129.33,-171.68 144.72,-146.84 160.5,-126 172.7,-109.89 187.42,-93.32 200.84,-79.1"/>
<polygon fill="none" stroke="#63b8ff" points="114.42,-190.39 112.47,-200.81 120.49,-193.88 114.42,-190.39"/>
</a>
</g>
</g>
<!-- Node3 -->
<g id="Node000003" class="node">
<title>Node3</title>
<g id="a_Node000003"><a xlink:href="classMemoryCellManager.html" target="_top" xlink:title=" ">
<polygon fill="white" stroke="transparent" points="551.5,-612 403.5,-612 403.5,-398 551.5,-398 551.5,-612"/>
<text text-anchor="start" x="426" y="-600" font-family="Helvetica,sans-Serif" font-size="10.00">MemoryCellManager</text>
<text text-anchor="start" x="475.5" y="-585" font-family="Helvetica,sans-Serif" font-size="10.00"> </text>
<text text-anchor="start" x="407.5" y="-570" font-family="Helvetica,sans-Serif" font-size="10.00">+</text>
<text text-anchor="start" x="420.5" y="-570" font-family="Helvetica,sans-Serif" font-size="10.00">getMemoryCellCount()</text>
<text text-anchor="start" x="407.5" y="-555" font-family="Helvetica,sans-Serif" font-size="10.00">+</text>
<text text-anchor="start" x="420.5" y="-555" font-family="Helvetica,sans-Serif" font-size="10.00">getMemoryCell()</text>
<text text-anchor="start" x="407.5" y="-540" font-family="Helvetica,sans-Serif" font-size="10.00">+</text>
<text text-anchor="start" x="420.5" y="-540" font-family="Helvetica,sans-Serif" font-size="10.00">addMemoryCell()</text>
<text text-anchor="start" x="407.5" y="-525" font-family="Helvetica,sans-Serif" font-size="10.00">+</text>
<text text-anchor="start" x="420.5" y="-525" font-family="Helvetica,sans-Serif" font-size="10.00">initialize()</text>
<text text-anchor="start" x="407.5" y="-510" font-family="Helvetica,sans-Serif" font-size="10.00">+</text>
<text text-anchor="start" x="420.5" y="-510" font-family="Helvetica,sans-Serif" font-size="10.00">cleanup()</text>
<text text-anchor="start" x="407.5" y="-495" font-family="Helvetica,sans-Serif" font-size="10.00">+</text>
<text text-anchor="start" x="420.5" y="-495" font-family="Helvetica,sans-Serif" font-size="10.00">setSelectedCell()</text>
<text text-anchor="start" x="407.5" y="-480" font-family="Helvetica,sans-Serif" font-size="10.00">+</text>
<text text-anchor="start" x="420.5" y="-480" font-family="Helvetica,sans-Serif" font-size="10.00">getSelectedCell()</text>
<text text-anchor="start" x="407.5" y="-465" font-family="Helvetica,sans-Serif" font-size="10.00">+</text>
<text text-anchor="start" x="420.5" y="-465" font-family="Helvetica,sans-Serif" font-size="10.00">loadCells()</text>
<text text-anchor="start" x="407.5" y="-450" font-family="Helvetica,sans-Serif" font-size="10.00">+</text>
<text text-anchor="start" x="420.5" y="-450" font-family="Helvetica,sans-Serif" font-size="10.00">getContents()</text>
<text text-anchor="start" x="407.5" y="-435" font-family="Helvetica,sans-Serif" font-size="10.00">+</text>
<text text-anchor="start" x="420.5" y="-435" font-family="Helvetica,sans-Serif" font-size="10.00">moveContentsOneDown()</text>
<text text-anchor="start" x="407.5" y="-420" font-family="Helvetica,sans-Serif" font-size="10.00">+</text>
<text text-anchor="start" x="420.5" y="-420" font-family="Helvetica,sans-Serif" font-size="10.00">Instance()</text>
<text text-anchor="start" x="407.5" y="-405" font-family="Helvetica,sans-Serif" font-size="10.00">#</text>
<text text-anchor="start" x="420.5" y="-405" font-family="Helvetica,sans-Serif" font-size="10.00">MemoryCellManager()</text>
<polygon fill="#666666" stroke="#666666" points="403.5,-595 403.5,-595 551.5,-595 551.5,-595 403.5,-595"/>
<polygon fill="#666666" stroke="#666666" points="403.5,-580 403.5,-580 551.5,-580 551.5,-580 403.5,-580"/>
<polygon fill="none" stroke="#666666" points="403.5,-398 403.5,-612 551.5,-612 551.5,-398 403.5,-398"/>
</a>
</g>
</g>
<!-- Node3&#45;&gt;Node1 -->
<g id="edge2_Node000001_Node000003" class="edge">
<title>Node3&#45;&gt;Node1</title>
<g id="a_edge2_Node000001_Node000003"><a xlink:title=" ">
<path fill="none" stroke="#63b8ff" d="M527.67,-397.88C529.48,-384.51 529.14,-370.97 525.5,-358 488.8,-227.22 468.52,-186.68 366.5,-97 347.9,-80.65 323.81,-68.33 301.61,-59.44"/>
<polygon fill="none" stroke="#63b8ff" points="301.43,-59.37 294.4,-60.97 290.22,-55.09 297.25,-53.49 301.43,-59.37"/>
</a>
</g>
<text text-anchor="middle" x="582" y="-230.5" font-family="Helvetica,sans-Serif" font-size="10.00" fill="grey"> &#45;m_memoryCellManager</text>
</g>
<!-- Node6 -->
<g id="Node000006" class="node">
<title>Node6</title>
<g id="a_Node000006"><a xlink:href="classShortCutsViewModel.html" target="_top" xlink:title=" ">
<polygon fill="white" stroke="transparent" points="309,-340 170,-340 170,-126 309,-126 309,-340"/>
<text text-anchor="start" x="189" y="-328" font-family="Helvetica,sans-Serif" font-size="10.00">ShortCutsViewModel</text>
<text text-anchor="start" x="238" y="-313" font-family="Helvetica,sans-Serif" font-size="10.00"> </text>
<text text-anchor="start" x="174.5" y="-298" font-family="Helvetica,sans-Serif" font-size="10.00">+</text>
<text text-anchor="start" x="187.5" y="-298" font-family="Helvetica,sans-Serif" font-size="10.00">updateList()</text>
<text text-anchor="start" x="174.5" y="-283" font-family="Helvetica,sans-Serif" font-size="10.00">+</text>
<text text-anchor="start" x="187.5" y="-283" font-family="Helvetica,sans-Serif" font-size="10.00">moveUpIndex()</text>
<text text-anchor="start" x="174.5" y="-268" font-family="Helvetica,sans-Serif" font-size="10.00">+</text>
<text text-anchor="start" x="187.5" y="-268" font-family="Helvetica,sans-Serif" font-size="10.00">moveDownIndex()</text>
<text text-anchor="start" x="174.5" y="-253" font-family="Helvetica,sans-Serif" font-size="10.00">+</text>
<text text-anchor="start" x="187.5" y="-253" font-family="Helvetica,sans-Serif" font-size="10.00">getMemoryCell()</text>
<text text-anchor="start" x="174.5" y="-238" font-family="Helvetica,sans-Serif" font-size="10.00">+</text>
<text text-anchor="start" x="187.5" y="-238" font-family="Helvetica,sans-Serif" font-size="10.00">getSelectedCell()</text>
<text text-anchor="start" x="174.5" y="-223" font-family="Helvetica,sans-Serif" font-size="10.00">+</text>
<text text-anchor="start" x="187.5" y="-223" font-family="Helvetica,sans-Serif" font-size="10.00">hasSelectedCell()</text>
<text text-anchor="start" x="174.5" y="-208" font-family="Helvetica,sans-Serif" font-size="10.00">+</text>
<text text-anchor="start" x="187.5" y="-208" font-family="Helvetica,sans-Serif" font-size="10.00">getSelectedCellIndex()</text>
<text text-anchor="start" x="174.5" y="-193" font-family="Helvetica,sans-Serif" font-size="10.00">+</text>
<text text-anchor="start" x="187.5" y="-193" font-family="Helvetica,sans-Serif" font-size="10.00">canMoveUp()</text>
<text text-anchor="start" x="174.5" y="-178" font-family="Helvetica,sans-Serif" font-size="10.00">+</text>
<text text-anchor="start" x="187.5" y="-178" font-family="Helvetica,sans-Serif" font-size="10.00">canMoveDown()</text>
<text text-anchor="start" x="174.5" y="-163" font-family="Helvetica,sans-Serif" font-size="10.00">+</text>
<text text-anchor="start" x="187.5" y="-163" font-family="Helvetica,sans-Serif" font-size="10.00">Instance()</text>
<text text-anchor="start" x="174.5" y="-148" font-family="Helvetica,sans-Serif" font-size="10.00">#</text>
<text text-anchor="start" x="187.5" y="-148" font-family="Helvetica,sans-Serif" font-size="10.00">ShortCutsViewModel()</text>
<text text-anchor="start" x="174.5" y="-133" font-family="Helvetica,sans-Serif" font-size="10.00">#</text>
<text text-anchor="start" x="187.5" y="-133" font-family="Helvetica,sans-Serif" font-size="10.00">~ShortCutsViewModel()</text>
<polygon fill="#666666" stroke="#666666" points="170.5,-323 170.5,-323 309.5,-323 309.5,-323 170.5,-323"/>
<polygon fill="#666666" stroke="#666666" points="170.5,-308 170.5,-308 309.5,-308 309.5,-308 170.5,-308"/>
<polygon fill="none" stroke="#666666" points="170,-126 170,-340 309,-340 309,-126 170,-126"/>
</a>
</g>
</g>
<!-- Node3&#45;&gt;Node6 -->
<g id="edge6_Node000006_Node000003" class="edge">
<title>Node3&#45;&gt;Node6</title>
<g id="a_edge6_Node000006_Node000003"><a xlink:title=" ">
<path fill="none" stroke="#63b8ff" d="M407.49,-397.8C397.22,-384.04 386.42,-370.43 375.5,-358 358.04,-338.12 337.64,-318.12 318.04,-300.17"/>
<polygon fill="none" stroke="#63b8ff" points="317.99,-300.13 310.86,-299.06 309.1,-292.07 316.23,-293.13 317.99,-300.13"/>
</a>
</g>
<text text-anchor="middle" x="456.5" y="-366.5" font-family="Helvetica,sans-Serif" font-size="10.00" fill="grey"> &#45;m_memoryCellsManager</text>
</g>
<!-- Node4 -->
<g id="Node000004" class="node">
<title>Node4</title>
<g id="a_Node000004"><a xlink:title=" ">
<polygon fill="white" stroke="transparent" points="497,-719 344,-719 344,-659 497,-659 497,-719"/>
<text text-anchor="start" x="349.5" y="-707" font-family="Helvetica,sans-Serif" font-size="10.00">vector&lt; std::unique</text>
<text text-anchor="start" x="349.5" y="-696" font-family="Helvetica,sans-Serif" font-size="10.00">_ptr&lt; ClipboardInterface &gt; &gt;</text>
<text text-anchor="start" x="419" y="-681" font-family="Helvetica,sans-Serif" font-size="10.00"> </text>
<text text-anchor="start" x="419" y="-666" font-family="Helvetica,sans-Serif" font-size="10.00"> </text>
<polygon fill="#666666" stroke="#666666" points="344.5,-691 344.5,-691 497.5,-691 497.5,-691 344.5,-691"/>
<polygon fill="#666666" stroke="#666666" points="344.5,-676 344.5,-676 497.5,-676 497.5,-676 344.5,-676"/>
<polygon fill="none" stroke="#666666" points="344,-659 344,-719 497,-719 497,-659 344,-659"/>
</a>
</g>
</g>
<!-- Node4&#45;&gt;Node3 -->
<g id="edge3_Node000003_Node000004" class="edge">
<title>Node4&#45;&gt;Node3</title>
<g id="a_edge3_Node000003_Node000004"><a xlink:title=" ">
<path fill="none" stroke="#63b8ff" d="M420.61,-658.8C421.15,-649.49 422.28,-639.22 424.5,-630 424.99,-627.97 425.51,-625.92 426.06,-623.87"/>
<polygon fill="none" stroke="#63b8ff" points="426.13,-623.62 423.97,-616.74 429.48,-612.09 431.65,-618.97 426.13,-623.62"/>
</a>
</g>
<text text-anchor="middle" x="468.5" y="-633" font-family="Helvetica,sans-Serif" font-size="10.00" fill="grey"> &#45;m_memoryCells</text>
</g>
<!-- Node5 -->
<g id="Node000005" class="node">
<title>Node5</title>
<g id="a_Node000005"><a xlink:title=" ">
<polygon fill="white" stroke="transparent" points="554,-713.5 515,-713.5 515,-664.5 554,-664.5 554,-713.5"/>
<text text-anchor="start" x="520.5" y="-701" font-family="Helvetica,sans-Serif" font-size="10.00">size_t</text>
<text text-anchor="start" x="533" y="-686" font-family="Helvetica,sans-Serif" font-size="10.00"> </text>
<text text-anchor="start" x="533" y="-671" font-family="Helvetica,sans-Serif" font-size="10.00"> </text>
<polygon fill="#666666" stroke="#666666" points="515.5,-696 515.5,-696 554.5,-696 554.5,-696 515.5,-696"/>
<polygon fill="#666666" stroke="#666666" points="515.5,-681 515.5,-681 554.5,-681 554.5,-681 515.5,-681"/>
<polygon fill="none" stroke="#666666" points="515,-664.5 515,-713.5 554,-713.5 554,-664.5 515,-664.5"/>
</a>
</g>
</g>
<!-- Node5&#45;&gt;Node3 -->
<g id="edge4_Node000003_Node000005" class="edge">
<title>Node5&#45;&gt;Node3</title>
<g id="a_edge4_Node000003_Node000005"><a xlink:title=" ">
<path fill="none" stroke="#63b8ff" d="M527.05,-664.21C523.59,-653.15 519.19,-639.1 514.44,-623.96"/>
<polygon fill="none" stroke="#63b8ff" points="514.35,-623.65 508.74,-619.12 510.76,-612.2 516.37,-616.73 514.35,-623.65"/>
</a>
</g>
<text text-anchor="middle" x="552" y="-633" font-family="Helvetica,sans-Serif" font-size="10.00" fill="grey"> &#45;selectedCell</text>
</g>
<!-- Node6&#45;&gt;Node1 -->
<g id="edge5_Node000001_Node000006" class="edge">
<title>Node6&#45;&gt;Node1</title>
<g id="a_edge5_Node000001_Node000006"><a xlink:title=" ">
<path fill="none" stroke="#63b8ff" d="M239.5,-125.89C239.5,-113.86 239.5,-102.04 239.5,-91.23"/>
<polygon fill="none" stroke="#63b8ff" points="239.5,-91.03 235.5,-85.03 239.5,-79.03 243.5,-85.03 239.5,-91.03"/>
</a>
</g>
<text text-anchor="middle" x="301" y="-100" font-family="Helvetica,sans-Serif" font-size="10.00" fill="grey"> &#45;m_shortCutsViewModel</text>
</g>
<!-- Node7 -->
<g id="Node000007" class="node">
<title>Node7</title>
<g id="a_Node000007"><a xlink:title=" ">
<polygon fill="white" stroke="transparent" points="23,-529.5 0,-529.5 0,-480.5 23,-480.5 23,-529.5"/>
<text text-anchor="start" x="5.5" y="-517" font-family="Helvetica,sans-Serif" font-size="10.00">int</text>
<text text-anchor="start" x="10" y="-502" font-family="Helvetica,sans-Serif" font-size="10.00"> </text>
<text text-anchor="start" x="10" y="-487" font-family="Helvetica,sans-Serif" font-size="10.00"> </text>
<polygon fill="#666666" stroke="#666666" points="0.5,-512 0.5,-512 23.5,-512 23.5,-512 0.5,-512"/>
<polygon fill="#666666" stroke="#666666" points="0.5,-497 0.5,-497 23.5,-497 23.5,-497 0.5,-497"/>
<polygon fill="none" stroke="#666666" points="0,-480.5 0,-529.5 23,-529.5 23,-480.5 0,-480.5"/>
</a>
</g>
</g>
<!-- Node7&#45;&gt;Node6 -->
<g id="edge7_Node000006_Node000007" class="edge">
<title>Node7&#45;&gt;Node6</title>
<g id="a_edge7_Node000006_Node000007"><a xlink:title=" ">
<path fill="none" stroke="#63b8ff" d="M8.11,-480.48C4.88,-448.02 4.6,-389.9 37.5,-358 74.61,-322.02 108.41,-362.38 159.23,-339.35"/>
<polygon fill="none" stroke="#63b8ff" points="159.38,-339.27 162.81,-332.92 169.98,-333.64 166.56,-339.99 159.38,-339.27"/>
</a>
</g>
<text text-anchor="middle" x="66" y="-372" font-family="Helvetica,sans-Serif" font-size="10.00" fill="grey"> &#45;cellsIndex</text>
<text text-anchor="middle" x="66" y="-361" font-family="Helvetica,sans-Serif" font-size="10.00" fill="grey">&#45;viewIndex</text>
</g>
<!-- Node8 -->
<g id="Node000008" class="node">
<title>Node8</title>
<g id="a_Node000008"><a xlink:title=" ">
<polygon fill="white" stroke="transparent" points="137.5,-529.5 45.5,-529.5 45.5,-480.5 137.5,-480.5 137.5,-529.5"/>
<text text-anchor="start" x="50.5" y="-517" font-family="Helvetica,sans-Serif" font-size="10.00">vector&lt; size_t &gt;</text>
<text text-anchor="start" x="89.5" y="-502" font-family="Helvetica,sans-Serif" font-size="10.00"> </text>
<text text-anchor="start" x="89.5" y="-487" font-family="Helvetica,sans-Serif" font-size="10.00"> </text>
<polygon fill="#666666" stroke="#666666" points="45.5,-512 45.5,-512 137.5,-512 137.5,-512 45.5,-512"/>
<polygon fill="#666666" stroke="#666666" points="45.5,-497 45.5,-497 137.5,-497 137.5,-497 45.5,-497"/>
<polygon fill="none" stroke="#666666" points="45.5,-480.5 45.5,-529.5 137.5,-529.5 137.5,-480.5 45.5,-480.5"/>
</a>
</g>
</g>
<!-- Node8&#45;&gt;Node6 -->
<g id="edge8_Node000006_Node000008" class="edge">
<title>Node8&#45;&gt;Node6</title>
<g id="a_edge8_Node000006_Node000008"><a xlink:title=" ">
<path fill="none" stroke="#63b8ff" d="M87.65,-480.41C83.9,-448.92 82.31,-393.06 110.5,-358 125.3,-339.6 141.53,-354.07 160.5,-340 160.6,-339.93 160.7,-339.85 160.8,-339.78"/>
<polygon fill="none" stroke="#63b8ff" points="160.64,-339.91 162.78,-333.02 169.96,-332.35 167.82,-339.24 160.64,-339.91"/>
</a>
</g>
<text text-anchor="middle" x="173" y="-366.5" font-family="Helvetica,sans-Serif" font-size="10.00" fill="grey"> &#45;m_selectedCellsIndexes</text>
</g>
<!-- Node9 -->
<g id="Node000009" class="node">
<title>Node9</title>
<g id="a_Node000009"><a xlink:title=" ">
<polygon fill="white" stroke="transparent" points="320.5,-529.5 158.5,-529.5 158.5,-480.5 320.5,-480.5 320.5,-529.5"/>
<text text-anchor="start" x="163.5" y="-517" font-family="Helvetica,sans-Serif" font-size="10.00">vector&lt; ClipboardInterface * &gt;</text>
<text text-anchor="start" x="237.5" y="-502" font-family="Helvetica,sans-Serif" font-size="10.00"> </text>
<text text-anchor="start" x="237.5" y="-487" font-family="Helvetica,sans-Serif" font-size="10.00"> </text>
<polygon fill="#666666" stroke="#666666" points="158.5,-512 158.5,-512 320.5,-512 320.5,-512 158.5,-512"/>
<polygon fill="#666666" stroke="#666666" points="158.5,-497 158.5,-497 320.5,-497 320.5,-497 158.5,-497"/>
<polygon fill="none" stroke="#666666" points="158.5,-480.5 158.5,-529.5 320.5,-529.5 320.5,-480.5 158.5,-480.5"/>
</a>
</g>
</g>
<!-- Node9&#45;&gt;Node6 -->
<g id="edge9_Node000006_Node000009" class="edge">
<title>Node9&#45;&gt;Node6</title>
<g id="a_edge9_Node000006_Node000009"><a xlink:title=" ">
<path fill="none" stroke="#63b8ff" d="M239.5,-480.04C239.5,-451.07 239.5,-400.21 239.5,-352.22"/>
<polygon fill="none" stroke="#63b8ff" points="239.5,-352.1 235.5,-346.1 239.5,-340.1 243.5,-346.1 239.5,-352.1"/>
</a>
</g>
<text text-anchor="middle" x="307" y="-366.5" font-family="Helvetica,sans-Serif" font-size="10.00" fill="grey"> &#45;m_memoryCellsShortCuts</text>
</g>
</g>
</svg>
