<?xml version="1.0" encoding="UTF-8" standalone="no"?>
<!DOCTYPE svg PUBLIC "-//W3C//DTD SVG 1.1//EN"
 "http://www.w3.org/Graphics/SVG/1.1/DTD/svg11.dtd">
<!-- Generated by graphviz version 2.43.0 (0)
 -->
<!-- Title: ElementEdit Pages: 1 -->
<svg width="206pt" height="232pt"
 viewBox="0.00 0.00 206.00 232.00" xmlns="http://www.w3.org/2000/svg" xmlns:xlink="http://www.w3.org/1999/xlink">
<g id="graph0" class="graph" transform="scale(1 1) rotate(0) translate(4 228)">
<title>ElementEdit</title>
<!-- Node1 -->
<g id="Node000001" class="node">
<title>Node1</title>
<g id="a_Node000001"><a xlink:title=" ">
<polygon fill="#999999" stroke="transparent" points="146.5,-139 38.5,-139 38.5,0 146.5,0 146.5,-139"/>
<text text-anchor="start" x="62.5" y="-126.5" font-family="Helvetica,sans-Serif" font-size="10.00">ElementEdit</text>
<text text-anchor="start" x="45" y="-111.5" font-family="Helvetica,sans-Serif" font-size="10.00">&#45;</text>
<text text-anchor="start" x="55.5" y="-111.5" font-family="Helvetica,sans-Serif" font-size="10.00">viewModel</text>
<text text-anchor="start" x="42.5" y="-96.5" font-family="Helvetica,sans-Serif" font-size="10.00">+</text>
<text text-anchor="start" x="55.5" y="-96.5" font-family="Helvetica,sans-Serif" font-size="10.00">ElementEdit()</text>
<text text-anchor="start" x="42.5" y="-81.5" font-family="Helvetica,sans-Serif" font-size="10.00">+</text>
<text text-anchor="start" x="55.5" y="-81.5" font-family="Helvetica,sans-Serif" font-size="10.00">~ElementEdit()</text>
<text text-anchor="start" x="42.5" y="-66.5" font-family="Helvetica,sans-Serif" font-size="10.00">+</text>
<text text-anchor="start" x="55.5" y="-66.5" font-family="Helvetica,sans-Serif" font-size="10.00">OnChildAdd()</text>
<text text-anchor="start" x="42.5" y="-51.5" font-family="Helvetica,sans-Serif" font-size="10.00">+</text>
<text text-anchor="start" x="55.5" y="-51.5" font-family="Helvetica,sans-Serif" font-size="10.00">OnChildRemove()</text>
<text text-anchor="start" x="42.5" y="-36.5" font-family="Helvetica,sans-Serif" font-size="10.00">+</text>
<text text-anchor="start" x="55.5" y="-36.5" font-family="Helvetica,sans-Serif" font-size="10.00">ProcessEvent()</text>
<text text-anchor="start" x="42.5" y="-21.5" font-family="Helvetica,sans-Serif" font-size="10.00">#</text>
<text text-anchor="start" x="55.5" y="-21.5" font-family="Helvetica,sans-Serif" font-size="10.00">OnUpdate()</text>
<text text-anchor="start" x="42.5" y="-6.5" font-family="Helvetica,sans-Serif" font-size="10.00">#</text>
<text text-anchor="start" x="55.5" y="-6.5" font-family="Helvetica,sans-Serif" font-size="10.00">OnRender()</text>
<polygon fill="#666666" stroke="#666666" points="38.5,-121.5 38.5,-121.5 146.5,-121.5 146.5,-121.5 38.5,-121.5"/>
<polygon fill="#666666" stroke="#666666" points="38.5,-106.5 38.5,-106.5 53.5,-106.5 53.5,-106.5 38.5,-106.5"/>
<polygon fill="#666666" stroke="#666666" points="53.5,-106.5 53.5,-106.5 146.5,-106.5 146.5,-106.5 53.5,-106.5"/>
<polygon fill="none" stroke="#666666" points="38.5,0 38.5,-139 146.5,-139 146.5,0 38.5,0"/>
</a>
</g>
</g>
<!-- Node2 -->
<g id="Node000002" class="node">
<title>Node2</title>
<g id="a_Node000002"><a xlink:title=" ">
<polygon fill="white" stroke="transparent" points="77,-224 0,-224 0,-175 77,-175 77,-224"/>
<text text-anchor="start" x="5.5" y="-211.5" font-family="Helvetica,sans-Serif" font-size="10.00">Rml::Element</text>
<text text-anchor="start" x="37" y="-196.5" font-family="Helvetica,sans-Serif" font-size="10.00"> </text>
<text text-anchor="start" x="37" y="-181.5" font-family="Helvetica,sans-Serif" font-size="10.00"> </text>
<polygon fill="#666666" stroke="#666666" points="0.5,-206.5 0.5,-206.5 77.5,-206.5 77.5,-206.5 0.5,-206.5"/>
<polygon fill="#666666" stroke="#666666" points="0.5,-191.5 0.5,-191.5 77.5,-191.5 77.5,-191.5 0.5,-191.5"/>
<polygon fill="none" stroke="#666666" points="0,-175 0,-224 77,-224 77,-175 0,-175"/>
</a>
</g>
</g>
<!-- Node2&#45;&gt;Node1 -->
<g id="edge1_Node000001_Node000002" class="edge">
<title>Node2&#45;&gt;Node1</title>
<g id="a_edge1_Node000001_Node000002"><a xlink:title=" ">
<path fill="none" stroke="#63b8ff" d="M52.51,-165.29C55.94,-157.16 59.74,-148.16 63.59,-139.04"/>
<polygon fill="none" stroke="#63b8ff" points="49.19,-164.15 48.53,-174.72 55.64,-166.87 49.19,-164.15"/>
</a>
</g>
</g>
<!-- Node3 -->
<g id="Node000003" class="node">
<title>Node3</title>
<g id="a_Node000003"><a xlink:title=" ">
<polygon fill="white" stroke="transparent" points="198,-224 95,-224 95,-175 198,-175 198,-224"/>
<text text-anchor="start" x="100.5" y="-211.5" font-family="Helvetica,sans-Serif" font-size="10.00">Rml::EventListener</text>
<text text-anchor="start" x="145" y="-196.5" font-family="Helvetica,sans-Serif" font-size="10.00"> </text>
<text text-anchor="start" x="145" y="-181.5" font-family="Helvetica,sans-Serif" font-size="10.00"> </text>
<polygon fill="#666666" stroke="#666666" points="95.5,-206.5 95.5,-206.5 198.5,-206.5 198.5,-206.5 95.5,-206.5"/>
<polygon fill="#666666" stroke="#666666" points="95.5,-191.5 95.5,-191.5 198.5,-191.5 198.5,-191.5 95.5,-191.5"/>
<polygon fill="none" stroke="#666666" points="95,-175 95,-224 198,-224 198,-175 95,-175"/>
</a>
</g>
</g>
<!-- Node3&#45;&gt;Node1 -->
<g id="edge2_Node000001_Node000003" class="edge">
<title>Node3&#45;&gt;Node1</title>
<g id="a_edge2_Node000001_Node000003"><a xlink:title=" ">
<path fill="none" stroke="#63b8ff" d="M132.49,-165.29C129.06,-157.16 125.26,-148.16 121.41,-139.04"/>
<polygon fill="none" stroke="#63b8ff" points="129.36,-166.87 136.47,-174.72 135.81,-164.15 129.36,-166.87"/>
</a>
</g>
</g>
</g>
</svg>
