<?xml version="1.0" encoding="UTF-8" standalone="no"?>
<!DOCTYPE svg PUBLIC "-//W3C//DTD SVG 1.1//EN"
 "http://www.w3.org/Graphics/SVG/1.1/DTD/svg11.dtd">
<!-- Generated by graphviz version 2.43.0 (0)
 -->
<!-- Title: SystemInterface_SDL Pages: 1 -->
<svg width="359pt" height="354pt"
 viewBox="0.00 0.00 359.00 354.00" xmlns="http://www.w3.org/2000/svg" xmlns:xlink="http://www.w3.org/1999/xlink">

<svg id="main" version="1.1" xmlns="http://www.w3.org/2000/svg" xmlns:xlink="http://www.w3.org/1999/xlink" xml:space="preserve" onload="init(evt)">
<style type="text/css"><![CDATA[
.node, .edge {opacity: 0.7;}
.node.selected, .edge.selected {opacity: 1;}
.edge:hover path { stroke: red; }
.edge:hover polygon { stroke: red; fill: red; }
]]></style>
<script type="application/ecmascript" xlink:href="svg.min.js"/>
<svg id="graph" class="graph">
<g id="graph0" class="graph" transform="scale(1 1) rotate(0) translate(4 350)">
<title>SystemInterface_SDL</title>
<!-- Node1 -->
<g id="Node000001" class="node">
<title>Node1</title>
<g id="a_Node000001"><a xlink:title=" ">
<polygon fill="#999999" stroke="transparent" points="246,-184 104,-184 104,0 246,0 246,-184"/>
<text text-anchor="start" x="122.5" y="-172" font-family="Helvetica,sans-Serif" font-size="10.00">SystemInterface_SDL</text>
<text text-anchor="start" x="173" y="-157" font-family="Helvetica,sans-Serif" font-size="10.00"> </text>
<text text-anchor="start" x="108" y="-142" font-family="Helvetica,sans-Serif" font-size="10.00">+</text>
<text text-anchor="start" x="121" y="-142" font-family="Helvetica,sans-Serif" font-size="10.00">SystemInterface_SDL()</text>
<text text-anchor="start" x="108" y="-127" font-family="Helvetica,sans-Serif" font-size="10.00">+</text>
<text text-anchor="start" x="121" y="-127" font-family="Helvetica,sans-Serif" font-size="10.00">~SystemInterface_SDL()</text>
<text text-anchor="start" x="108" y="-112" font-family="Helvetica,sans-Serif" font-size="10.00">+</text>
<text text-anchor="start" x="121" y="-112" font-family="Helvetica,sans-Serif" font-size="10.00">SetWindow()</text>
<text text-anchor="start" x="108" y="-97" font-family="Helvetica,sans-Serif" font-size="10.00">+</text>
<text text-anchor="start" x="121" y="-97" font-family="Helvetica,sans-Serif" font-size="10.00">GetElapsedTime()</text>
<text text-anchor="start" x="108" y="-82" font-family="Helvetica,sans-Serif" font-size="10.00">+</text>
<text text-anchor="start" x="121" y="-82" font-family="Helvetica,sans-Serif" font-size="10.00">SetMouseCursor()</text>
<text text-anchor="start" x="108" y="-67" font-family="Helvetica,sans-Serif" font-size="10.00">+</text>
<text text-anchor="start" x="121" y="-67" font-family="Helvetica,sans-Serif" font-size="10.00">SetClipboardText()</text>
<text text-anchor="start" x="108" y="-52" font-family="Helvetica,sans-Serif" font-size="10.00">+</text>
<text text-anchor="start" x="121" y="-52" font-family="Helvetica,sans-Serif" font-size="10.00">GetClipboardText()</text>
<text text-anchor="start" x="108" y="-37" font-family="Helvetica,sans-Serif" font-size="10.00">+</text>
<text text-anchor="start" x="121" y="-37" font-family="Helvetica,sans-Serif" font-size="10.00">ActivateKeyboard()</text>
<text text-anchor="start" x="108" y="-22" font-family="Helvetica,sans-Serif" font-size="10.00">+</text>
<text text-anchor="start" x="121" y="-22" font-family="Helvetica,sans-Serif" font-size="10.00">DeactivateKeyboard()</text>
<text text-anchor="start" x="108" y="-7" font-family="Helvetica,sans-Serif" font-size="10.00">+</text>
<text text-anchor="start" x="121" y="-7" font-family="Helvetica,sans-Serif" font-size="10.00">TranslateString()</text>
<polygon fill="#666666" stroke="#666666" points="104,-167 104,-167 246,-167 246,-167 104,-167"/>
<polygon fill="#666666" stroke="#666666" points="104,-152 104,-152 246,-152 246,-152 104,-152"/>
<polygon fill="none" stroke="#666666" points="104,0 104,-184 246,-184 246,0 104,0"/>
</a>
</g>
</g>
<!-- Node2 -->
<g id="Node000002" class="node">
<title>Node2</title>
<g id="a_Node000002"><a xlink:title=" ">
<polygon fill="white" stroke="transparent" points="116,-346 0,-346 0,-297 116,-297 116,-346"/>
<text text-anchor="start" x="5" y="-333.5" font-family="Helvetica,sans-Serif" font-size="10.00">Rml::SystemInterface</text>
<text text-anchor="start" x="56" y="-318.5" font-family="Helvetica,sans-Serif" font-size="10.00"> </text>
<text text-anchor="start" x="56" y="-303.5" font-family="Helvetica,sans-Serif" font-size="10.00"> </text>
<polygon fill="#666666" stroke="#666666" points="0,-328.5 0,-328.5 116,-328.5 116,-328.5 0,-328.5"/>
<polygon fill="#666666" stroke="#666666" points="0,-313.5 0,-313.5 116,-313.5 116,-313.5 0,-313.5"/>
<polygon fill="none" stroke="#666666" points="0,-297 0,-346 116,-346 116,-297 0,-297"/>
</a>
</g>
</g>
<!-- Node2&#45;&gt;Node1 -->
<g id="edge1_Node000001_Node000002" class="edge">
<title>Node2&#45;&gt;Node1</title>
<g id="a_edge1_Node000001_Node000002"><a xlink:title=" ">
<path fill="none" stroke="#63b8ff" d="M74.95,-287.54C88.91,-260.39 109.39,-220.57 128.2,-184.01"/>
<polygon fill="none" stroke="#63b8ff" points="71.76,-286.09 70.3,-296.58 77.99,-289.29 71.76,-286.09"/>
</a>
</g>
</g>
<!-- Node3 -->
<g id="Node000003" class="node">
<title>Node3</title>
<g id="a_Node000003"><a xlink:title=" ">
<polygon fill="white" stroke="transparent" points="216,-346 134,-346 134,-297 216,-297 216,-346"/>
<text text-anchor="start" x="139" y="-333.5" font-family="Helvetica,sans-Serif" font-size="10.00">SDL_Window *</text>
<text text-anchor="start" x="173" y="-318.5" font-family="Helvetica,sans-Serif" font-size="10.00"> </text>
<text text-anchor="start" x="173" y="-303.5" font-family="Helvetica,sans-Serif" font-size="10.00"> </text>
<polygon fill="#666666" stroke="#666666" points="134,-328.5 134,-328.5 216,-328.5 216,-328.5 134,-328.5"/>
<polygon fill="#666666" stroke="#666666" points="134,-313.5 134,-313.5 216,-313.5 216,-313.5 134,-313.5"/>
<polygon fill="none" stroke="#666666" points="134,-297 134,-346 216,-346 216,-297 134,-297"/>
</a>
</g>
</g>
<!-- Node3&#45;&gt;Node1 -->
<g id="edge2_Node000001_Node000003" class="edge">
<title>Node3&#45;&gt;Node1</title>
<g id="a_edge2_Node000001_Node000003"><a xlink:title=" ">
<path fill="none" stroke="#63b8ff" d="M175,-296.58C175,-272.44 175,-233.48 175,-196.08"/>
<polygon fill="none" stroke="#63b8ff" points="175,-196.01 171,-190.01 175,-184.01 179,-190.01 175,-196.01"/>
</a>
</g>
<text text-anchor="middle" x="197.5" y="-238" font-family="Helvetica,sans-Serif" font-size="10.00" fill="grey"> &#45;window</text>
</g>
<!-- Node4 -->
<g id="Node000004" class="node">
<title>Node4</title>
<g id="a_Node000004"><a xlink:title=" ">
<polygon fill="white" stroke="transparent" points="308,-346 234,-346 234,-297 308,-297 308,-346"/>
<text text-anchor="start" x="239" y="-333.5" font-family="Helvetica,sans-Serif" font-size="10.00">SDL_Cursor *</text>
<text text-anchor="start" x="269" y="-318.5" font-family="Helvetica,sans-Serif" font-size="10.00"> </text>
<text text-anchor="start" x="269" y="-303.5" font-family="Helvetica,sans-Serif" font-size="10.00"> </text>
<polygon fill="#666666" stroke="#666666" points="234,-328.5 234,-328.5 308,-328.5 308,-328.5 234,-328.5"/>
<polygon fill="#666666" stroke="#666666" points="234,-313.5 234,-313.5 308,-313.5 308,-313.5 234,-313.5"/>
<polygon fill="none" stroke="#666666" points="234,-297 234,-346 308,-346 308,-297 234,-297"/>
</a>
</g>
</g>
<!-- Node4&#45;&gt;Node1 -->
<g id="edge3_Node000001_Node000004" class="edge">
<title>Node4&#45;&gt;Node1</title>
<g id="a_edge3_Node000001_Node000004"><a xlink:title=" ">
<path fill="none" stroke="#63b8ff" d="M261.95,-296.77C252.7,-272.75 237.79,-234.62 224,-202 223.08,-199.81 222.14,-197.61 221.19,-195.38"/>
<polygon fill="none" stroke="#63b8ff" points="221.1,-195.18 215.05,-191.25 216.34,-184.16 222.39,-188.08 221.1,-195.18"/>
</a>
</g>
<text text-anchor="middle" x="302.5" y="-271" font-family="Helvetica,sans-Serif" font-size="10.00" fill="grey"> &#45;cursor_cross</text>
<text text-anchor="middle" x="302.5" y="-260" font-family="Helvetica,sans-Serif" font-size="10.00" fill="grey">&#45;cursor_default</text>
<text text-anchor="middle" x="302.5" y="-249" font-family="Helvetica,sans-Serif" font-size="10.00" fill="grey">&#45;cursor_move</text>
<text text-anchor="middle" x="302.5" y="-238" font-family="Helvetica,sans-Serif" font-size="10.00" fill="grey">&#45;cursor_pointer</text>
<text text-anchor="middle" x="302.5" y="-227" font-family="Helvetica,sans-Serif" font-size="10.00" fill="grey">&#45;cursor_resize</text>
<text text-anchor="middle" x="302.5" y="-216" font-family="Helvetica,sans-Serif" font-size="10.00" fill="grey">&#45;cursor_text</text>
<text text-anchor="middle" x="302.5" y="-205" font-family="Helvetica,sans-Serif" font-size="10.00" fill="grey">&#45;cursor_unavailable</text>
</g>
</g>
</svg>
</svg>

<style type='text/css'>
<![CDATA[
[data-mouse-over-selected='false'] { opacity: 0.7; }
[data-mouse-over-selected='true']  { opacity: 1.0; }
]]>
</style>
<script type="application/ecmascript"><![CDATA[
document.addEventListener('DOMContentLoaded', (event) => {
  highlightEdges();
  highlightAdjacentNodes();
});
]]></script>
</svg>
