<?xml version="1.0" encoding="UTF-8" standalone="no"?>
<!DOCTYPE svg PUBLIC "-//W3C//DTD SVG 1.1//EN"
 "http://www.w3.org/Graphics/SVG/1.1/DTD/svg11.dtd">
<!-- Generated by graphviz version 2.43.0 (0)
 -->
<!-- Title: RenderInterface_GL3 Pages: 1 -->
<!--zoomable 1048 -->

<svg id="main" version="1.1" xmlns="http://www.w3.org/2000/svg" xmlns:xlink="http://www.w3.org/1999/xlink" xml:space="preserve" onload="init(evt)">
<style type="text/css"><![CDATA[
.node, .edge {opacity: 0.7;}
.node.selected, .edge.selected {opacity: 1;}
.edge:hover path { stroke: red; }
.edge:hover polygon { stroke: red; fill: red; }
]]></style>

<defs>
  <circle id="rim" cx="0" cy="0" r="7"/>
  <circle id="rim2" cx="0" cy="0" r="3.5"/>
  <g id="zoomPlus">
    <use xlink:href="#rim" fill="#404040"><set attributeName="fill" to="#808080" begin="zoomplus.mouseover" end="zoomplus.mouseout"/></use>
    <path d="M-4,0h8M0,-4v8" fill="none" stroke="white" stroke-width="1.5" pointer-events="none"/>
  </g>
  <g id="zoomMin">
    <use xlink:href="#rim" fill="#404040"><set attributeName="fill" to="#808080" begin="zoomminus.mouseover" end="zoomminus.mouseout"/></use>
    <path d="M-4,0h8" fill="none" stroke="white" stroke-width="1.5" pointer-events="none"/>
  </g>
  <g id="arrowUp" transform="translate(30 24)">
    <use xlink:href="#rim"/>
    <path pointer-events="none" fill="none" stroke="white" stroke-width="1.5" d="M0,-3.0v7 M-2.5,-0.5L0,-3.0L2.5,-0.5"/>
  </g>
  <g id="arrowRight" transform="rotate(90) translate(36 -43)">
    <use xlink:href="#rim"/>
    <path pointer-events="none" fill="none" stroke="white" stroke-width="1.5" d="M0,-3.0v7 M-2.5,-0.5L0,-3.0L2.5,-0.5"/>
  </g>
  <g id="arrowDown" transform="rotate(180) translate(-30 -48)">
    <use xlink:href="#rim"/>
    <path pointer-events="none" fill="none" stroke="white" stroke-width="1.5" d="M0,-3.0v7 M-2.5,-0.5L0,-3.0L2.5,-0.5"/>
  </g>
  <g id="arrowLeft" transform="rotate(270) translate(-36 17)">
    <use xlink:href="#rim"/>
    <path pointer-events="none" fill="none" stroke="white" stroke-width="1.5" d="M0,-3.0v7 M-2.5,-0.5L0,-3.0L2.5,-0.5"/>
  </g>
  <g id="resetDef">
    <use xlink:href="#rim2" fill="#404040"><set attributeName="fill" to="#808080" begin="reset.mouseover" end="reset.mouseout"/></use>
  </g>
</defs>
<script type="application/ecmascript">
var viewWidth = 188;
var viewHeight = 1048;
var sectionId = 'dynsection-0';
</script>
<script type="application/ecmascript" xlink:href="svg.min.js"/>
<svg id="graph" class="graph">
<g id="viewport">
<title>RenderInterface_GL3</title>
<!-- Node1 -->
<g id="Node000001" class="node">
<title>Node1</title>
<g id="a_Node000001"><a xlink:title=" ">
<polygon fill="#999999" stroke="transparent" points="180,-955 0,-955 0,-111 180,-111 180,-955"/>
<text text-anchor="start" x="38.5" y="-943" font-family="Helvetica,sans-Serif" font-size="10.00">RenderInterface_GL3</text>
<text text-anchor="start" x="4" y="-928" font-family="Helvetica,sans-Serif" font-size="10.00">+</text>
<text text-anchor="start" x="17" y="-928" font-family="Helvetica,sans-Serif" font-size="10.00">TextureEnableWithoutBinding</text>
<text text-anchor="start" x="4" y="-913" font-family="Helvetica,sans-Serif" font-size="10.00">+</text>
<text text-anchor="start" x="17" y="-913" font-family="Helvetica,sans-Serif" font-size="10.00">TexturePostprocess</text>
<text text-anchor="start" x="6.5" y="-898" font-family="Helvetica,sans-Serif" font-size="10.00">&#45;</text>
<text text-anchor="start" x="17" y="-898" font-family="Helvetica,sans-Serif" font-size="10.00">program_transform_dirty</text>
<text text-anchor="start" x="6.5" y="-883" font-family="Helvetica,sans-Serif" font-size="10.00">&#45;</text>
<text text-anchor="start" x="17" y="-883" font-family="Helvetica,sans-Serif" font-size="10.00">transform</text>
<text text-anchor="start" x="6.5" y="-868" font-family="Helvetica,sans-Serif" font-size="10.00">&#45;</text>
<text text-anchor="start" x="17" y="-868" font-family="Helvetica,sans-Serif" font-size="10.00">projection</text>
<text text-anchor="start" x="6.5" y="-853" font-family="Helvetica,sans-Serif" font-size="10.00">&#45;</text>
<text text-anchor="start" x="17" y="-853" font-family="Helvetica,sans-Serif" font-size="10.00">active_program</text>
<text text-anchor="start" x="6.5" y="-838" font-family="Helvetica,sans-Serif" font-size="10.00">&#45;</text>
<text text-anchor="start" x="17" y="-838" font-family="Helvetica,sans-Serif" font-size="10.00">scissor_state</text>
<text text-anchor="start" x="6.5" y="-823" font-family="Helvetica,sans-Serif" font-size="10.00">&#45;</text>
<text text-anchor="start" x="17" y="-823" font-family="Helvetica,sans-Serif" font-size="10.00">viewport_width</text>
<text text-anchor="start" x="6.5" y="-808" font-family="Helvetica,sans-Serif" font-size="10.00">&#45;</text>
<text text-anchor="start" x="17" y="-808" font-family="Helvetica,sans-Serif" font-size="10.00">viewport_height</text>
<text text-anchor="start" x="6.5" y="-793" font-family="Helvetica,sans-Serif" font-size="10.00">&#45;</text>
<text text-anchor="start" x="17" y="-793" font-family="Helvetica,sans-Serif" font-size="10.00">viewport_offset_x</text>
<text text-anchor="start" x="6.5" y="-778" font-family="Helvetica,sans-Serif" font-size="10.00">&#45;</text>
<text text-anchor="start" x="17" y="-778" font-family="Helvetica,sans-Serif" font-size="10.00">viewport_offset_y</text>
<text text-anchor="start" x="6.5" y="-763" font-family="Helvetica,sans-Serif" font-size="10.00">&#45;</text>
<text text-anchor="start" x="17" y="-763" font-family="Helvetica,sans-Serif" font-size="10.00">fullscreen_quad_geometry</text>
<text text-anchor="start" x="6.5" y="-748" font-family="Helvetica,sans-Serif" font-size="10.00">&#45;</text>
<text text-anchor="start" x="17" y="-748" font-family="Helvetica,sans-Serif" font-size="10.00">program_data</text>
<text text-anchor="start" x="6.5" y="-733" font-family="Helvetica,sans-Serif" font-size="10.00">&#45;</text>
<text text-anchor="start" x="17" y="-733" font-family="Helvetica,sans-Serif" font-size="10.00">render_layers</text>
<text text-anchor="start" x="6.5" y="-718" font-family="Helvetica,sans-Serif" font-size="10.00">&#45;</text>
<text text-anchor="start" x="17" y="-718" font-family="Helvetica,sans-Serif" font-size="10.00">glstate_backup</text>
<text text-anchor="start" x="6.5" y="-703" font-family="Helvetica,sans-Serif" font-size="10.00">&#45;</text>
<text text-anchor="start" x="17" y="-703" font-family="Helvetica,sans-Serif" font-size="10.00">MaxNumPrograms</text>
<text text-anchor="start" x="4" y="-688" font-family="Helvetica,sans-Serif" font-size="10.00">+</text>
<text text-anchor="start" x="17" y="-688" font-family="Helvetica,sans-Serif" font-size="10.00">RenderInterface_GL3()</text>
<text text-anchor="start" x="4" y="-673" font-family="Helvetica,sans-Serif" font-size="10.00">+</text>
<text text-anchor="start" x="17" y="-673" font-family="Helvetica,sans-Serif" font-size="10.00">~RenderInterface_GL3()</text>
<text text-anchor="start" x="4" y="-658" font-family="Helvetica,sans-Serif" font-size="10.00">+</text>
<text text-anchor="start" x="17" y="-658" font-family="Helvetica,sans-Serif" font-size="10.00">operator bool()</text>
<text text-anchor="start" x="4" y="-643" font-family="Helvetica,sans-Serif" font-size="10.00">+</text>
<text text-anchor="start" x="17" y="-643" font-family="Helvetica,sans-Serif" font-size="10.00">SetViewport()</text>
<text text-anchor="start" x="4" y="-628" font-family="Helvetica,sans-Serif" font-size="10.00">+</text>
<text text-anchor="start" x="17" y="-628" font-family="Helvetica,sans-Serif" font-size="10.00">BeginFrame()</text>
<text text-anchor="start" x="4" y="-613" font-family="Helvetica,sans-Serif" font-size="10.00">+</text>
<text text-anchor="start" x="17" y="-613" font-family="Helvetica,sans-Serif" font-size="10.00">EndFrame()</text>
<text text-anchor="start" x="4" y="-598" font-family="Helvetica,sans-Serif" font-size="10.00">+</text>
<text text-anchor="start" x="17" y="-598" font-family="Helvetica,sans-Serif" font-size="10.00">Clear()</text>
<text text-anchor="start" x="4" y="-583" font-family="Helvetica,sans-Serif" font-size="10.00">+</text>
<text text-anchor="start" x="17" y="-583" font-family="Helvetica,sans-Serif" font-size="10.00">CompileGeometry()</text>
<text text-anchor="start" x="4" y="-568" font-family="Helvetica,sans-Serif" font-size="10.00">+</text>
<text text-anchor="start" x="17" y="-568" font-family="Helvetica,sans-Serif" font-size="10.00">RenderGeometry()</text>
<text text-anchor="start" x="4" y="-553" font-family="Helvetica,sans-Serif" font-size="10.00">+</text>
<text text-anchor="start" x="17" y="-553" font-family="Helvetica,sans-Serif" font-size="10.00">ReleaseGeometry()</text>
<text text-anchor="start" x="4" y="-538" font-family="Helvetica,sans-Serif" font-size="10.00">+</text>
<text text-anchor="start" x="17" y="-538" font-family="Helvetica,sans-Serif" font-size="10.00">LoadTexture()</text>
<text text-anchor="start" x="4" y="-523" font-family="Helvetica,sans-Serif" font-size="10.00">+</text>
<text text-anchor="start" x="17" y="-523" font-family="Helvetica,sans-Serif" font-size="10.00">GenerateTexture()</text>
<text text-anchor="start" x="4" y="-508" font-family="Helvetica,sans-Serif" font-size="10.00">+</text>
<text text-anchor="start" x="17" y="-508" font-family="Helvetica,sans-Serif" font-size="10.00">ReleaseTexture()</text>
<text text-anchor="start" x="4" y="-493" font-family="Helvetica,sans-Serif" font-size="10.00">+</text>
<text text-anchor="start" x="17" y="-493" font-family="Helvetica,sans-Serif" font-size="10.00">EnableScissorRegion()</text>
<text text-anchor="start" x="4" y="-478" font-family="Helvetica,sans-Serif" font-size="10.00">+</text>
<text text-anchor="start" x="17" y="-478" font-family="Helvetica,sans-Serif" font-size="10.00">SetScissorRegion()</text>
<text text-anchor="start" x="4" y="-463" font-family="Helvetica,sans-Serif" font-size="10.00">+</text>
<text text-anchor="start" x="17" y="-463" font-family="Helvetica,sans-Serif" font-size="10.00">EnableClipMask()</text>
<text text-anchor="start" x="4" y="-448" font-family="Helvetica,sans-Serif" font-size="10.00">+</text>
<text text-anchor="start" x="17" y="-448" font-family="Helvetica,sans-Serif" font-size="10.00">RenderToClipMask()</text>
<text text-anchor="start" x="4" y="-433" font-family="Helvetica,sans-Serif" font-size="10.00">+</text>
<text text-anchor="start" x="17" y="-433" font-family="Helvetica,sans-Serif" font-size="10.00">SetTransform()</text>
<text text-anchor="start" x="4" y="-418" font-family="Helvetica,sans-Serif" font-size="10.00">+</text>
<text text-anchor="start" x="17" y="-418" font-family="Helvetica,sans-Serif" font-size="10.00">PushLayer()</text>
<text text-anchor="start" x="4" y="-403" font-family="Helvetica,sans-Serif" font-size="10.00">+</text>
<text text-anchor="start" x="17" y="-403" font-family="Helvetica,sans-Serif" font-size="10.00">CompositeLayers()</text>
<text text-anchor="start" x="4" y="-388" font-family="Helvetica,sans-Serif" font-size="10.00">+</text>
<text text-anchor="start" x="17" y="-388" font-family="Helvetica,sans-Serif" font-size="10.00">PopLayer()</text>
<text text-anchor="start" x="4" y="-373" font-family="Helvetica,sans-Serif" font-size="10.00">+</text>
<text text-anchor="start" x="17" y="-373" font-family="Helvetica,sans-Serif" font-size="10.00">SaveLayerAsTexture()</text>
<text text-anchor="start" x="4" y="-358" font-family="Helvetica,sans-Serif" font-size="10.00">+</text>
<text text-anchor="start" x="17" y="-358" font-family="Helvetica,sans-Serif" font-size="10.00">SaveLayerAsMaskImage()</text>
<text text-anchor="start" x="4" y="-343" font-family="Helvetica,sans-Serif" font-size="10.00">+</text>
<text text-anchor="start" x="17" y="-343" font-family="Helvetica,sans-Serif" font-size="10.00">CompileFilter()</text>
<text text-anchor="start" x="4" y="-328" font-family="Helvetica,sans-Serif" font-size="10.00">+</text>
<text text-anchor="start" x="17" y="-328" font-family="Helvetica,sans-Serif" font-size="10.00">ReleaseFilter()</text>
<text text-anchor="start" x="4" y="-313" font-family="Helvetica,sans-Serif" font-size="10.00">+</text>
<text text-anchor="start" x="17" y="-313" font-family="Helvetica,sans-Serif" font-size="10.00">CompileShader()</text>
<text text-anchor="start" x="4" y="-298" font-family="Helvetica,sans-Serif" font-size="10.00">+</text>
<text text-anchor="start" x="17" y="-298" font-family="Helvetica,sans-Serif" font-size="10.00">RenderShader()</text>
<text text-anchor="start" x="4" y="-283" font-family="Helvetica,sans-Serif" font-size="10.00">+</text>
<text text-anchor="start" x="17" y="-283" font-family="Helvetica,sans-Serif" font-size="10.00">ReleaseShader()</text>
<text text-anchor="start" x="4" y="-268" font-family="Helvetica,sans-Serif" font-size="10.00">+</text>
<text text-anchor="start" x="17" y="-268" font-family="Helvetica,sans-Serif" font-size="10.00">GetTransform()</text>
<text text-anchor="start" x="4" y="-253" font-family="Helvetica,sans-Serif" font-size="10.00">+</text>
<text text-anchor="start" x="17" y="-253" font-family="Helvetica,sans-Serif" font-size="10.00">ResetProgram()</text>
<text text-anchor="start" x="6.5" y="-238" font-family="Helvetica,sans-Serif" font-size="10.00">&#45;</text>
<text text-anchor="start" x="17" y="-238" font-family="Helvetica,sans-Serif" font-size="10.00">UseProgram()</text>
<text text-anchor="start" x="6.5" y="-223" font-family="Helvetica,sans-Serif" font-size="10.00">&#45;</text>
<text text-anchor="start" x="17" y="-223" font-family="Helvetica,sans-Serif" font-size="10.00">GetUniformLocation()</text>
<text text-anchor="start" x="6.5" y="-208" font-family="Helvetica,sans-Serif" font-size="10.00">&#45;</text>
<text text-anchor="start" x="17" y="-208" font-family="Helvetica,sans-Serif" font-size="10.00">SubmitTransformUniform()</text>
<text text-anchor="start" x="6.5" y="-193" font-family="Helvetica,sans-Serif" font-size="10.00">&#45;</text>
<text text-anchor="start" x="17" y="-193" font-family="Helvetica,sans-Serif" font-size="10.00">BlitLayerToPostprocessPrimary()</text>
<text text-anchor="start" x="6.5" y="-178" font-family="Helvetica,sans-Serif" font-size="10.00">&#45;</text>
<text text-anchor="start" x="17" y="-178" font-family="Helvetica,sans-Serif" font-size="10.00">RenderFilters()</text>
<text text-anchor="start" x="6.5" y="-163" font-family="Helvetica,sans-Serif" font-size="10.00">&#45;</text>
<text text-anchor="start" x="17" y="-163" font-family="Helvetica,sans-Serif" font-size="10.00">SetScissor()</text>
<text text-anchor="start" x="6.5" y="-148" font-family="Helvetica,sans-Serif" font-size="10.00">&#45;</text>
<text text-anchor="start" x="17" y="-148" font-family="Helvetica,sans-Serif" font-size="10.00">DrawFullscreenQuad()</text>
<text text-anchor="start" x="6.5" y="-133" font-family="Helvetica,sans-Serif" font-size="10.00">&#45;</text>
<text text-anchor="start" x="17" y="-133" font-family="Helvetica,sans-Serif" font-size="10.00">DrawFullscreenQuad()</text>
<text text-anchor="start" x="6.5" y="-118" font-family="Helvetica,sans-Serif" font-size="10.00">&#45;</text>
<text text-anchor="start" x="17" y="-118" font-family="Helvetica,sans-Serif" font-size="10.00">RenderBlur()</text>
<polygon fill="#666666" stroke="#666666" points="0,-938 0,-938 180,-938 180,-938 0,-938"/>
<polygon fill="#666666" stroke="#666666" points="0,-698 0,-698 15,-698 15,-698 0,-698"/>
<polygon fill="#666666" stroke="#666666" points="15,-698 15,-698 180,-698 180,-698 15,-698"/>
<polygon fill="none" stroke="#666666" points="0,-111 0,-955 180,-955 180,-111 0,-111"/>
</a>
</g>
</g>
<!-- Node3 -->
<g id="Node000003" class="node">
<title>Node3</title>
<g id="a_Node000003"><a xlink:href="classRenderInterface__GL3__SDL.html" target="_top" xlink:title=" ">
<polygon fill="white" stroke="transparent" points="158.5,-75 21.5,-75 21.5,0 158.5,0 158.5,-75"/>
<text text-anchor="start" x="27" y="-62.5" font-family="Helvetica,sans-Serif" font-size="10.00">RenderInterface_GL3_SDL</text>
<text text-anchor="start" x="88.5" y="-47.5" font-family="Helvetica,sans-Serif" font-size="10.00"> </text>
<text text-anchor="start" x="29" y="-32.5" font-family="Helvetica,sans-Serif" font-size="10.00">+</text>
<text text-anchor="start" x="45" y="-32.5" font-family="Helvetica,sans-Serif" font-size="10.00">RenderInterface_GL3</text>
<text text-anchor="start" x="45" y="-21.5" font-family="Helvetica,sans-Serif" font-size="10.00">_SDL()</text>
<text text-anchor="start" x="29" y="-6.5" font-family="Helvetica,sans-Serif" font-size="10.00">+</text>
<text text-anchor="start" x="45" y="-6.5" font-family="Helvetica,sans-Serif" font-size="10.00">LoadTexture()</text>
<polygon fill="#666666" stroke="#666666" points="22,-57.5 22,-57.5 159,-57.5 159,-57.5 22,-57.5"/>
<polygon fill="#666666" stroke="#666666" points="22,-42.5 22,-42.5 159,-42.5 159,-42.5 22,-42.5"/>
<polygon fill="none" stroke="#666666" points="21.5,0 21.5,-75 158.5,-75 158.5,0 21.5,0"/>
</a>
</g>
</g>
<!-- Node1&#45;&gt;Node3 -->
<g id="edge2_Node000001_Node000003" class="edge">
<title>Node1&#45;&gt;Node3</title>
<g id="a_edge2_Node000001_Node000003"><a xlink:title=" ">
<path fill="none" stroke="#63b8ff" d="M90,-100.68C90,-91.26 90,-82.68 90,-75.1"/>
<polygon fill="none" stroke="#63b8ff" points="86.5,-100.79 90,-110.79 93.5,-100.79 86.5,-100.79"/>
</a>
</g>
</g>
<!-- Node2 -->
<g id="Node000002" class="node">
<title>Node2</title>
<g id="a_Node000002"><a xlink:title=" ">
<polygon fill="white" stroke="transparent" points="147,-1040 33,-1040 33,-991 147,-991 147,-1040"/>
<text text-anchor="start" x="38" y="-1027.5" font-family="Helvetica,sans-Serif" font-size="10.00">Rml::RenderInterface</text>
<text text-anchor="start" x="88" y="-1012.5" font-family="Helvetica,sans-Serif" font-size="10.00"> </text>
<text text-anchor="start" x="88" y="-997.5" font-family="Helvetica,sans-Serif" font-size="10.00"> </text>
<polygon fill="#666666" stroke="#666666" points="33,-1022.5 33,-1022.5 147,-1022.5 147,-1022.5 33,-1022.5"/>
<polygon fill="#666666" stroke="#666666" points="33,-1007.5 33,-1007.5 147,-1007.5 147,-1007.5 33,-1007.5"/>
<polygon fill="none" stroke="#666666" points="33,-991 33,-1040 147,-1040 147,-991 33,-991"/>
</a>
</g>
</g>
<!-- Node2&#45;&gt;Node1 -->
<g id="edge1_Node000001_Node000002" class="edge">
<title>Node2&#45;&gt;Node1</title>
<g id="a_edge1_Node000001_Node000002"><a xlink:title=" ">
<path fill="none" stroke="#63b8ff" d="M90,-980.82C90,-973.34 90,-964.79 90,-955.35"/>
<polygon fill="none" stroke="#63b8ff" points="86.5,-981 90,-991 93.5,-981 86.5,-981"/>
</a>
</g>
</g>
</g>
</svg>

<g id="navigator" transform="translate(0 0)" fill="#404254">
  <rect fill="#f2f5e9" fill-opacity="0.5" stroke="#606060" stroke-width=".5" x="0" y="0" width="60" height="60"/>
  <use id="zoomplus" xlink:href="#zoomPlus" x="17" y="9" onmousedown="handleZoom(evt,'in')"/>
  <use id="zoomminus" xlink:href="#zoomMin" x="42" y="9" onmousedown="handleZoom(evt,'out')"/>
  <use id="reset" xlink:href="#resetDef" x="30" y="36" onmousedown="handleReset()"/>
   <use id="arrowup" xlink:href="#arrowUp" x="0" y="0" onmousedown="handlePan(0,-1)"/>
  <use id="arrowright" xlink:href="#arrowRight" x="0" y="0" onmousedown="handlePan(1,0)"/>
  <use id="arrowdown" xlink:href="#arrowDown" x="0" y="0" onmousedown="handlePan(0,1)"/>
  <use id="arrowleft" xlink:href="#arrowLeft" x="0" y="0" onmousedown="handlePan(-1,0)"/>
</g>
<svg viewBox="0 0 15 15" width="100%" height="30px" preserveAspectRatio="xMaxYMin meet">
 <g id="arrow_out" transform="scale(0.3 0.3)">
  <a xlink:href="classRenderInterface__GL3__inherit__graph_org.svg" target="_base">
   <rect id="button" ry="5" rx="5" y="6" x="6" height="38" width="38"
        fill="#f2f5e9" fill-opacity="0.5" stroke="#606060" stroke-width="1.0"/>
   <path id="arrow"
     d="M 11.500037,31.436501 C 11.940474,20.09759 22.043105,11.32322 32.158766,21.979434 L 37.068811,17.246167 C 37.068811,17.246167 37.088388,32 37.088388,32 L 22.160133,31.978069 C 22.160133,31.978069 26.997745,27.140456 26.997745,27.140456 C 18.528582,18.264221 13.291696,25.230495 11.500037,31.436501 z"
     style="fill:#404040;"/>
  </a>
 </g>
</svg>

<style type='text/css'>
<![CDATA[
[data-mouse-over-selected='false'] { opacity: 0.7; }
[data-mouse-over-selected='true']  { opacity: 1.0; }
]]>
</style>
<script type="application/ecmascript"><![CDATA[
document.addEventListener('DOMContentLoaded', (event) => {
  highlightEdges();
  highlightAdjacentNodes();
});
]]></script>
</svg>
