<?xml version="1.0" encoding="UTF-8" standalone="no"?>
<!DOCTYPE svg PUBLIC "-//W3C//DTD SVG 1.1//EN"
 "http://www.w3.org/Graphics/SVG/1.1/DTD/svg11.dtd">
<!-- Generated by graphviz version 2.43.0 (0)
 -->
<!-- Title: ElementFileManager Pages: 1 -->
<svg width="146pt" height="217pt"
 viewBox="0.00 0.00 146.00 217.00" xmlns="http://www.w3.org/2000/svg" xmlns:xlink="http://www.w3.org/1999/xlink">
<g id="graph0" class="graph" transform="scale(1 1) rotate(0) translate(4 213)">
<title>ElementFileManager</title>
<!-- Node1 -->
<g id="Node000001" class="node">
<title>Node1</title>
<g id="a_Node000001"><a xlink:title=" ">
<polygon fill="#999999" stroke="transparent" points="138,-124 0,-124 0,0 138,0 138,-124"/>
<text text-anchor="start" x="18.5" y="-112" font-family="Helvetica,sans-Serif" font-size="10.00">ElementFileManager</text>
<text text-anchor="start" x="67" y="-97" font-family="Helvetica,sans-Serif" font-size="10.00"> </text>
<text text-anchor="start" x="4" y="-82" font-family="Helvetica,sans-Serif" font-size="10.00">+</text>
<text text-anchor="start" x="17" y="-82" font-family="Helvetica,sans-Serif" font-size="10.00">ElementFileManager()</text>
<text text-anchor="start" x="4" y="-67" font-family="Helvetica,sans-Serif" font-size="10.00">+</text>
<text text-anchor="start" x="17" y="-67" font-family="Helvetica,sans-Serif" font-size="10.00">~ElementFileManager()</text>
<text text-anchor="start" x="4" y="-52" font-family="Helvetica,sans-Serif" font-size="10.00">+</text>
<text text-anchor="start" x="17" y="-52" font-family="Helvetica,sans-Serif" font-size="10.00">OnChildAdd()</text>
<text text-anchor="start" x="4" y="-37" font-family="Helvetica,sans-Serif" font-size="10.00">+</text>
<text text-anchor="start" x="17" y="-37" font-family="Helvetica,sans-Serif" font-size="10.00">OnChildRemove()</text>
<text text-anchor="start" x="4" y="-22" font-family="Helvetica,sans-Serif" font-size="10.00">#</text>
<text text-anchor="start" x="17" y="-22" font-family="Helvetica,sans-Serif" font-size="10.00">OnUpdate()</text>
<text text-anchor="start" x="4" y="-7" font-family="Helvetica,sans-Serif" font-size="10.00">#</text>
<text text-anchor="start" x="17" y="-7" font-family="Helvetica,sans-Serif" font-size="10.00">OnRender()</text>
<polygon fill="#666666" stroke="#666666" points="0,-107 0,-107 138,-107 138,-107 0,-107"/>
<polygon fill="#666666" stroke="#666666" points="0,-92 0,-92 138,-92 138,-92 0,-92"/>
<polygon fill="none" stroke="#666666" points="0,0 0,-124 138,-124 138,0 0,0"/>
</a>
</g>
</g>
<!-- Node2 -->
<g id="Node000002" class="node">
<title>Node2</title>
<g id="a_Node000002"><a xlink:title=" ">
<polygon fill="white" stroke="transparent" points="107.5,-209 30.5,-209 30.5,-160 107.5,-160 107.5,-209"/>
<text text-anchor="start" x="36" y="-196.5" font-family="Helvetica,sans-Serif" font-size="10.00">Rml::Element</text>
<text text-anchor="start" x="67.5" y="-181.5" font-family="Helvetica,sans-Serif" font-size="10.00"> </text>
<text text-anchor="start" x="67.5" y="-166.5" font-family="Helvetica,sans-Serif" font-size="10.00"> </text>
<polygon fill="#666666" stroke="#666666" points="31,-191.5 31,-191.5 108,-191.5 108,-191.5 31,-191.5"/>
<polygon fill="#666666" stroke="#666666" points="31,-176.5 31,-176.5 108,-176.5 108,-176.5 31,-176.5"/>
<polygon fill="none" stroke="#666666" points="30.5,-160 30.5,-209 107.5,-209 107.5,-160 30.5,-160"/>
</a>
</g>
</g>
<!-- Node2&#45;&gt;Node1 -->
<g id="edge1_Node000001_Node000002" class="edge">
<title>Node2&#45;&gt;Node1</title>
<g id="a_edge1_Node000001_Node000002"><a xlink:title=" ">
<path fill="none" stroke="#63b8ff" d="M69,-149.94C69,-141.91 69,-133.08 69,-124.23"/>
<polygon fill="none" stroke="#63b8ff" points="65.5,-149.98 69,-159.98 72.5,-149.98 65.5,-149.98"/>
</a>
</g>
</g>
</g>
</svg>
