<?xml version="1.0" encoding="UTF-8" standalone="no"?>
<!DOCTYPE svg PUBLIC "-//W3C//DTD SVG 1.1//EN"
 "http://www.w3.org/Graphics/SVG/1.1/DTD/svg11.dtd">
<!-- Generated by graphviz version 2.43.0 (0)
 -->
<!-- Title: CopyEvent Pages: 1 -->
<svg width="147pt" height="392pt"
 viewBox="0.00 0.00 147.00 392.00" xmlns="http://www.w3.org/2000/svg" xmlns:xlink="http://www.w3.org/1999/xlink">
<g id="graph0" class="graph" transform="scale(1 1) rotate(0) translate(4 388)">
<title>CopyEvent</title>
<!-- Node1 -->
<g id="Node000001" class="node">
<title>Node1</title>
<g id="a_Node000001"><a xlink:title=" ">
<polygon fill="#999999" stroke="transparent" points="139,-109 0,-109 0,0 139,0 139,-109"/>
<text text-anchor="start" x="43.5" y="-96.5" font-family="Helvetica,sans-Serif" font-size="10.00">CopyEvent</text>
<text text-anchor="start" x="7" y="-81.5" font-family="Helvetica,sans-Serif" font-size="10.00">&#45;</text>
<text text-anchor="start" x="17.5" y="-81.5" font-family="Helvetica,sans-Serif" font-size="10.00">m_memoryCellManager</text>
<text text-anchor="start" x="7" y="-66.5" font-family="Helvetica,sans-Serif" font-size="10.00">&#45;</text>
<text text-anchor="start" x="17.5" y="-66.5" font-family="Helvetica,sans-Serif" font-size="10.00">m_lastWindow</text>
<text text-anchor="start" x="4.5" y="-51.5" font-family="Helvetica,sans-Serif" font-size="10.00">+</text>
<text text-anchor="start" x="17.5" y="-51.5" font-family="Helvetica,sans-Serif" font-size="10.00">CopyEvent()</text>
<text text-anchor="start" x="4.5" y="-36.5" font-family="Helvetica,sans-Serif" font-size="10.00">+</text>
<text text-anchor="start" x="17.5" y="-36.5" font-family="Helvetica,sans-Serif" font-size="10.00">~CopyEvent()</text>
<text text-anchor="start" x="4.5" y="-21.5" font-family="Helvetica,sans-Serif" font-size="10.00">#</text>
<text text-anchor="start" x="17.5" y="-21.5" font-family="Helvetica,sans-Serif" font-size="10.00">DoHandle()</text>
<text text-anchor="start" x="7" y="-6.5" font-family="Helvetica,sans-Serif" font-size="10.00">&#45;</text>
<text text-anchor="start" x="17.5" y="-6.5" font-family="Helvetica,sans-Serif" font-size="10.00">SimulateCopy()</text>
<polygon fill="#666666" stroke="#666666" points="0.5,-91.5 0.5,-91.5 139.5,-91.5 139.5,-91.5 0.5,-91.5"/>
<polygon fill="#666666" stroke="#666666" points="0.5,-61.5 0.5,-61.5 15.5,-61.5 15.5,-61.5 0.5,-61.5"/>
<polygon fill="#666666" stroke="#666666" points="15.5,-61.5 15.5,-61.5 139.5,-61.5 139.5,-61.5 15.5,-61.5"/>
<polygon fill="none" stroke="#666666" points="0,0 0,-109 139,-109 139,0 0,0"/>
</a>
</g>
</g>
<!-- Node2 -->
<g id="Node000002" class="node">
<title>Node2</title>
<g id="a_Node000002"><a xlink:href="classWindowFocusEvent.html" target="_top" xlink:title=" ">
<polygon fill="white" stroke="transparent" points="135.5,-284 3.5,-284 3.5,-145 135.5,-145 135.5,-284"/>
<text text-anchor="start" x="22" y="-271.5" font-family="Helvetica,sans-Serif" font-size="10.00">WindowFocusEvent</text>
<text text-anchor="start" x="7.5" y="-256.5" font-family="Helvetica,sans-Serif" font-size="10.00">#</text>
<text text-anchor="start" x="20.5" y="-256.5" font-family="Helvetica,sans-Serif" font-size="10.00">m_lastWindow</text>
<text text-anchor="start" x="7.5" y="-241.5" font-family="Helvetica,sans-Serif" font-size="10.00">+</text>
<text text-anchor="start" x="20.5" y="-241.5" font-family="Helvetica,sans-Serif" font-size="10.00">WindowFocusEvent()</text>
<text text-anchor="start" x="7.5" y="-226.5" font-family="Helvetica,sans-Serif" font-size="10.00">+</text>
<text text-anchor="start" x="20.5" y="-226.5" font-family="Helvetica,sans-Serif" font-size="10.00">~WindowFocusEvent()</text>
<text text-anchor="start" x="7.5" y="-211.5" font-family="Helvetica,sans-Serif" font-size="10.00">+</text>
<text text-anchor="start" x="20.5" y="-211.5" font-family="Helvetica,sans-Serif" font-size="10.00">handle()</text>
<text text-anchor="start" x="7.5" y="-196.5" font-family="Helvetica,sans-Serif" font-size="10.00">#</text>
<text text-anchor="start" x="20.5" y="-196.5" font-family="Helvetica,sans-Serif" font-size="10.00">Attach()</text>
<text text-anchor="start" x="7.5" y="-181.5" font-family="Helvetica,sans-Serif" font-size="10.00">#</text>
<text text-anchor="start" x="20.5" y="-181.5" font-family="Helvetica,sans-Serif" font-size="10.00">ShowWindow()</text>
<text text-anchor="start" x="7.5" y="-166.5" font-family="Helvetica,sans-Serif" font-size="10.00">#</text>
<text text-anchor="start" x="20.5" y="-166.5" font-family="Helvetica,sans-Serif" font-size="10.00">DoHandle()</text>
<text text-anchor="start" x="7.5" y="-151.5" font-family="Helvetica,sans-Serif" font-size="10.00">#</text>
<text text-anchor="start" x="20.5" y="-151.5" font-family="Helvetica,sans-Serif" font-size="10.00">DeAttach()</text>
<polygon fill="#666666" stroke="#666666" points="3.5,-266.5 3.5,-266.5 135.5,-266.5 135.5,-266.5 3.5,-266.5"/>
<polygon fill="#666666" stroke="#666666" points="3.5,-251.5 3.5,-251.5 18.5,-251.5 18.5,-251.5 3.5,-251.5"/>
<polygon fill="#666666" stroke="#666666" points="18.5,-251.5 18.5,-251.5 135.5,-251.5 135.5,-251.5 18.5,-251.5"/>
<polygon fill="none" stroke="#666666" points="3.5,-145 3.5,-284 135.5,-284 135.5,-145 3.5,-145"/>
</a>
</g>
</g>
<!-- Node2&#45;&gt;Node1 -->
<g id="edge1_Node000001_Node000002" class="edge">
<title>Node2&#45;&gt;Node1</title>
<g id="a_edge1_Node000001_Node000002"><a xlink:title=" ">
<path fill="none" stroke="#63b8ff" d="M69.5,-134.65C69.5,-126.1 69.5,-117.54 69.5,-109.39"/>
<polygon fill="none" stroke="#63b8ff" points="66,-134.66 69.5,-144.66 73,-134.66 66,-134.66"/>
</a>
</g>
</g>
<!-- Node3 -->
<g id="Node000003" class="node">
<title>Node3</title>
<g id="a_Node000003"><a xlink:href="classClipboardEvent.html" target="_top" xlink:title=" ">
<polygon fill="white" stroke="transparent" points="125.5,-384 13.5,-384 13.5,-320 125.5,-320 125.5,-384"/>
<text text-anchor="start" x="32" y="-372" font-family="Helvetica,sans-Serif" font-size="10.00">ClipboardEvent</text>
<text text-anchor="start" x="67.5" y="-357" font-family="Helvetica,sans-Serif" font-size="10.00"> </text>
<text text-anchor="start" x="17.5" y="-342" font-family="Helvetica,sans-Serif" font-size="10.00">+</text>
<text text-anchor="start" x="30.5" y="-342" font-family="Helvetica,sans-Serif" font-size="10.00">~ClipboardEvent()</text>
<text text-anchor="start" x="17.5" y="-327" font-family="Helvetica,sans-Serif" font-size="10.00">+</text>
<text text-anchor="start" x="30.5" y="-327" font-family="Helvetica,sans-Serif" font-size="10.00">handle()</text>
<polygon fill="#666666" stroke="#666666" points="13.5,-367 13.5,-367 125.5,-367 125.5,-367 13.5,-367"/>
<polygon fill="#666666" stroke="#666666" points="13.5,-352 13.5,-352 125.5,-352 125.5,-352 13.5,-352"/>
<polygon fill="none" stroke="#666666" points="13.5,-320 13.5,-384 125.5,-384 125.5,-320 13.5,-320"/>
</a>
</g>
</g>
<!-- Node3&#45;&gt;Node2 -->
<g id="edge2_Node000002_Node000003" class="edge">
<title>Node3&#45;&gt;Node2</title>
<g id="a_edge2_Node000002_Node000003"><a xlink:title=" ">
<path fill="none" stroke="#63b8ff" d="M69.5,-309.69C69.5,-301.62 69.5,-292.95 69.5,-284.26"/>
<polygon fill="none" stroke="#63b8ff" points="66,-309.91 69.5,-319.91 73,-309.91 66,-309.91"/>
</a>
</g>
</g>
</g>
</svg>
