<?xml version="1.0" encoding="UTF-8" standalone="no"?>
<!DOCTYPE svg PUBLIC "-//W3C//DTD SVG 1.1//EN"
 "http://www.w3.org/Graphics/SVG/1.1/DTD/svg11.dtd">
<!-- Generated by graphviz version 2.43.0 (0)
 -->
<!-- Title: ShortCutsViewModel Pages: 1 -->
<svg width="631pt" height="601pt"
 viewBox="0.00 0.00 630.50 601.00" xmlns="http://www.w3.org/2000/svg" xmlns:xlink="http://www.w3.org/1999/xlink">
<g id="graph0" class="graph" transform="scale(1 1) rotate(0) translate(4 597)">
<title>ShortCutsViewModel</title>
<!-- Node1 -->
<g id="Node000001" class="node">
<title>Node1</title>
<g id="a_Node000001"><a xlink:title=" ">
<polygon fill="#999999" stroke="transparent" points="396,-214 257,-214 257,0 396,0 396,-214"/>
<text text-anchor="start" x="276" y="-202" font-family="Helvetica,sans-Serif" font-size="10.00">ShortCutsViewModel</text>
<text text-anchor="start" x="325" y="-187" font-family="Helvetica,sans-Serif" font-size="10.00"> </text>
<text text-anchor="start" x="261.5" y="-172" font-family="Helvetica,sans-Serif" font-size="10.00">+</text>
<text text-anchor="start" x="274.5" y="-172" font-family="Helvetica,sans-Serif" font-size="10.00">updateList()</text>
<text text-anchor="start" x="261.5" y="-157" font-family="Helvetica,sans-Serif" font-size="10.00">+</text>
<text text-anchor="start" x="274.5" y="-157" font-family="Helvetica,sans-Serif" font-size="10.00">moveUpIndex()</text>
<text text-anchor="start" x="261.5" y="-142" font-family="Helvetica,sans-Serif" font-size="10.00">+</text>
<text text-anchor="start" x="274.5" y="-142" font-family="Helvetica,sans-Serif" font-size="10.00">moveDownIndex()</text>
<text text-anchor="start" x="261.5" y="-127" font-family="Helvetica,sans-Serif" font-size="10.00">+</text>
<text text-anchor="start" x="274.5" y="-127" font-family="Helvetica,sans-Serif" font-size="10.00">getMemoryCell()</text>
<text text-anchor="start" x="261.5" y="-112" font-family="Helvetica,sans-Serif" font-size="10.00">+</text>
<text text-anchor="start" x="274.5" y="-112" font-family="Helvetica,sans-Serif" font-size="10.00">getSelectedCell()</text>
<text text-anchor="start" x="261.5" y="-97" font-family="Helvetica,sans-Serif" font-size="10.00">+</text>
<text text-anchor="start" x="274.5" y="-97" font-family="Helvetica,sans-Serif" font-size="10.00">hasSelectedCell()</text>
<text text-anchor="start" x="261.5" y="-82" font-family="Helvetica,sans-Serif" font-size="10.00">+</text>
<text text-anchor="start" x="274.5" y="-82" font-family="Helvetica,sans-Serif" font-size="10.00">getSelectedCellIndex()</text>
<text text-anchor="start" x="261.5" y="-67" font-family="Helvetica,sans-Serif" font-size="10.00">+</text>
<text text-anchor="start" x="274.5" y="-67" font-family="Helvetica,sans-Serif" font-size="10.00">canMoveUp()</text>
<text text-anchor="start" x="261.5" y="-52" font-family="Helvetica,sans-Serif" font-size="10.00">+</text>
<text text-anchor="start" x="274.5" y="-52" font-family="Helvetica,sans-Serif" font-size="10.00">canMoveDown()</text>
<text text-anchor="start" x="261.5" y="-37" font-family="Helvetica,sans-Serif" font-size="10.00">+</text>
<text text-anchor="start" x="274.5" y="-37" font-family="Helvetica,sans-Serif" font-size="10.00">Instance()</text>
<text text-anchor="start" x="261.5" y="-22" font-family="Helvetica,sans-Serif" font-size="10.00">#</text>
<text text-anchor="start" x="274.5" y="-22" font-family="Helvetica,sans-Serif" font-size="10.00">ShortCutsViewModel()</text>
<text text-anchor="start" x="261.5" y="-7" font-family="Helvetica,sans-Serif" font-size="10.00">#</text>
<text text-anchor="start" x="274.5" y="-7" font-family="Helvetica,sans-Serif" font-size="10.00">~ShortCutsViewModel()</text>
<polygon fill="#666666" stroke="#666666" points="257.5,-197 257.5,-197 396.5,-197 396.5,-197 257.5,-197"/>
<polygon fill="#666666" stroke="#666666" points="257.5,-182 257.5,-182 396.5,-182 396.5,-182 257.5,-182"/>
<polygon fill="none" stroke="#666666" points="257,0 257,-214 396,-214 396,0 257,0"/>
</a>
</g>
</g>
<!-- Node2 -->
<g id="Node000002" class="node">
<title>Node2</title>
<g id="a_Node000002"><a xlink:href="classMemoryCellManager.html" target="_top" xlink:title=" ">
<polygon fill="white" stroke="transparent" points="207.5,-486 59.5,-486 59.5,-272 207.5,-272 207.5,-486"/>
<text text-anchor="start" x="82" y="-474" font-family="Helvetica,sans-Serif" font-size="10.00">MemoryCellManager</text>
<text text-anchor="start" x="131.5" y="-459" font-family="Helvetica,sans-Serif" font-size="10.00"> </text>
<text text-anchor="start" x="63.5" y="-444" font-family="Helvetica,sans-Serif" font-size="10.00">+</text>
<text text-anchor="start" x="76.5" y="-444" font-family="Helvetica,sans-Serif" font-size="10.00">getMemoryCellCount()</text>
<text text-anchor="start" x="63.5" y="-429" font-family="Helvetica,sans-Serif" font-size="10.00">+</text>
<text text-anchor="start" x="76.5" y="-429" font-family="Helvetica,sans-Serif" font-size="10.00">getMemoryCell()</text>
<text text-anchor="start" x="63.5" y="-414" font-family="Helvetica,sans-Serif" font-size="10.00">+</text>
<text text-anchor="start" x="76.5" y="-414" font-family="Helvetica,sans-Serif" font-size="10.00">addMemoryCell()</text>
<text text-anchor="start" x="63.5" y="-399" font-family="Helvetica,sans-Serif" font-size="10.00">+</text>
<text text-anchor="start" x="76.5" y="-399" font-family="Helvetica,sans-Serif" font-size="10.00">initialize()</text>
<text text-anchor="start" x="63.5" y="-384" font-family="Helvetica,sans-Serif" font-size="10.00">+</text>
<text text-anchor="start" x="76.5" y="-384" font-family="Helvetica,sans-Serif" font-size="10.00">cleanup()</text>
<text text-anchor="start" x="63.5" y="-369" font-family="Helvetica,sans-Serif" font-size="10.00">+</text>
<text text-anchor="start" x="76.5" y="-369" font-family="Helvetica,sans-Serif" font-size="10.00">setSelectedCell()</text>
<text text-anchor="start" x="63.5" y="-354" font-family="Helvetica,sans-Serif" font-size="10.00">+</text>
<text text-anchor="start" x="76.5" y="-354" font-family="Helvetica,sans-Serif" font-size="10.00">getSelectedCell()</text>
<text text-anchor="start" x="63.5" y="-339" font-family="Helvetica,sans-Serif" font-size="10.00">+</text>
<text text-anchor="start" x="76.5" y="-339" font-family="Helvetica,sans-Serif" font-size="10.00">loadCells()</text>
<text text-anchor="start" x="63.5" y="-324" font-family="Helvetica,sans-Serif" font-size="10.00">+</text>
<text text-anchor="start" x="76.5" y="-324" font-family="Helvetica,sans-Serif" font-size="10.00">getContents()</text>
<text text-anchor="start" x="63.5" y="-309" font-family="Helvetica,sans-Serif" font-size="10.00">+</text>
<text text-anchor="start" x="76.5" y="-309" font-family="Helvetica,sans-Serif" font-size="10.00">moveContentsOneDown()</text>
<text text-anchor="start" x="63.5" y="-294" font-family="Helvetica,sans-Serif" font-size="10.00">+</text>
<text text-anchor="start" x="76.5" y="-294" font-family="Helvetica,sans-Serif" font-size="10.00">Instance()</text>
<text text-anchor="start" x="63.5" y="-279" font-family="Helvetica,sans-Serif" font-size="10.00">#</text>
<text text-anchor="start" x="76.5" y="-279" font-family="Helvetica,sans-Serif" font-size="10.00">MemoryCellManager()</text>
<polygon fill="#666666" stroke="#666666" points="59.5,-469 59.5,-469 207.5,-469 207.5,-469 59.5,-469"/>
<polygon fill="#666666" stroke="#666666" points="59.5,-454 59.5,-454 207.5,-454 207.5,-454 59.5,-454"/>
<polygon fill="none" stroke="#666666" points="59.5,-272 59.5,-486 207.5,-486 207.5,-272 59.5,-272"/>
</a>
</g>
</g>
<!-- Node2&#45;&gt;Node1 -->
<g id="edge1_Node000001_Node000002" class="edge">
<title>Node2&#45;&gt;Node1</title>
<g id="a_edge1_Node000001_Node000002"><a xlink:title=" ">
<path fill="none" stroke="#63b8ff" d="M135.22,-271.63C138.45,-257.68 143.33,-244.06 150.5,-232 172.66,-194.73 210.87,-165.78 246.04,-145.26"/>
<polygon fill="none" stroke="#63b8ff" points="246.39,-145.06 249.65,-138.63 256.84,-139.16 253.58,-145.59 246.39,-145.06"/>
</a>
</g>
<text text-anchor="middle" x="215.5" y="-240.5" font-family="Helvetica,sans-Serif" font-size="10.00" fill="grey"> &#45;m_memoryCellsManager</text>
</g>
<!-- Node3 -->
<g id="Node000003" class="node">
<title>Node3</title>
<g id="a_Node000003"><a xlink:title=" ">
<polygon fill="white" stroke="transparent" points="153,-593 0,-593 0,-533 153,-533 153,-593"/>
<text text-anchor="start" x="5.5" y="-581" font-family="Helvetica,sans-Serif" font-size="10.00">vector&lt; std::unique</text>
<text text-anchor="start" x="5.5" y="-570" font-family="Helvetica,sans-Serif" font-size="10.00">_ptr&lt; ClipboardInterface &gt; &gt;</text>
<text text-anchor="start" x="75" y="-555" font-family="Helvetica,sans-Serif" font-size="10.00"> </text>
<text text-anchor="start" x="75" y="-540" font-family="Helvetica,sans-Serif" font-size="10.00"> </text>
<polygon fill="#666666" stroke="#666666" points="0.5,-565 0.5,-565 153.5,-565 153.5,-565 0.5,-565"/>
<polygon fill="#666666" stroke="#666666" points="0.5,-550 0.5,-550 153.5,-550 153.5,-550 0.5,-550"/>
<polygon fill="none" stroke="#666666" points="0,-533 0,-593 153,-593 153,-533 0,-533"/>
</a>
</g>
</g>
<!-- Node3&#45;&gt;Node2 -->
<g id="edge2_Node000002_Node000003" class="edge">
<title>Node3&#45;&gt;Node2</title>
<g id="a_edge2_Node000002_Node000003"><a xlink:title=" ">
<path fill="none" stroke="#63b8ff" d="M76.61,-532.8C77.15,-523.49 78.28,-513.22 80.5,-504 80.99,-501.97 81.51,-499.92 82.06,-497.87"/>
<polygon fill="none" stroke="#63b8ff" points="82.13,-497.62 79.97,-490.74 85.48,-486.09 87.65,-492.97 82.13,-497.62"/>
</a>
</g>
<text text-anchor="middle" x="124.5" y="-507" font-family="Helvetica,sans-Serif" font-size="10.00" fill="grey"> &#45;m_memoryCells</text>
</g>
<!-- Node4 -->
<g id="Node000004" class="node">
<title>Node4</title>
<g id="a_Node000004"><a xlink:title=" ">
<polygon fill="white" stroke="transparent" points="210,-587.5 171,-587.5 171,-538.5 210,-538.5 210,-587.5"/>
<text text-anchor="start" x="176.5" y="-575" font-family="Helvetica,sans-Serif" font-size="10.00">size_t</text>
<text text-anchor="start" x="189" y="-560" font-family="Helvetica,sans-Serif" font-size="10.00"> </text>
<text text-anchor="start" x="189" y="-545" font-family="Helvetica,sans-Serif" font-size="10.00"> </text>
<polygon fill="#666666" stroke="#666666" points="171.5,-570 171.5,-570 210.5,-570 210.5,-570 171.5,-570"/>
<polygon fill="#666666" stroke="#666666" points="171.5,-555 171.5,-555 210.5,-555 210.5,-555 171.5,-555"/>
<polygon fill="none" stroke="#666666" points="171,-538.5 171,-587.5 210,-587.5 210,-538.5 171,-538.5"/>
</a>
</g>
</g>
<!-- Node4&#45;&gt;Node2 -->
<g id="edge3_Node000002_Node000004" class="edge">
<title>Node4&#45;&gt;Node2</title>
<g id="a_edge3_Node000002_Node000004"><a xlink:title=" ">
<path fill="none" stroke="#63b8ff" d="M183.05,-538.21C179.59,-527.15 175.19,-513.1 170.44,-497.96"/>
<polygon fill="none" stroke="#63b8ff" points="170.35,-497.65 164.74,-493.12 166.76,-486.2 172.37,-490.73 170.35,-497.65"/>
</a>
</g>
<text text-anchor="middle" x="209" y="-507" font-family="Helvetica,sans-Serif" font-size="10.00" fill="grey"> &#45;selectedCell</text>
</g>
<!-- Node5 -->
<g id="Node000005" class="node">
<title>Node5</title>
<g id="a_Node000005"><a xlink:title=" ">
<polygon fill="white" stroke="transparent" points="298,-403.5 275,-403.5 275,-354.5 298,-354.5 298,-403.5"/>
<text text-anchor="start" x="280.5" y="-391" font-family="Helvetica,sans-Serif" font-size="10.00">int</text>
<text text-anchor="start" x="285" y="-376" font-family="Helvetica,sans-Serif" font-size="10.00"> </text>
<text text-anchor="start" x="285" y="-361" font-family="Helvetica,sans-Serif" font-size="10.00"> </text>
<polygon fill="#666666" stroke="#666666" points="275.5,-386 275.5,-386 298.5,-386 298.5,-386 275.5,-386"/>
<polygon fill="#666666" stroke="#666666" points="275.5,-371 275.5,-371 298.5,-371 298.5,-371 275.5,-371"/>
<polygon fill="none" stroke="#666666" points="275,-354.5 275,-403.5 298,-403.5 298,-354.5 275,-354.5"/>
</a>
</g>
</g>
<!-- Node5&#45;&gt;Node1 -->
<g id="edge4_Node000001_Node000005" class="edge">
<title>Node5&#45;&gt;Node1</title>
<g id="a_edge4_Node000001_Node000005"><a xlink:title=" ">
<path fill="none" stroke="#63b8ff" d="M284.52,-354.31C282.58,-325.28 280.79,-274.69 287.5,-232 287.82,-229.97 288.16,-227.93 288.53,-225.87"/>
<polygon fill="none" stroke="#63b8ff" points="288.55,-225.81 285.8,-219.14 290.9,-214.04 293.65,-220.71 288.55,-225.81"/>
</a>
</g>
<text text-anchor="middle" x="316" y="-246" font-family="Helvetica,sans-Serif" font-size="10.00" fill="grey"> &#45;cellsIndex</text>
<text text-anchor="middle" x="316" y="-235" font-family="Helvetica,sans-Serif" font-size="10.00" fill="grey">&#45;viewIndex</text>
</g>
<!-- Node6 -->
<g id="Node000006" class="node">
<title>Node6</title>
<g id="a_Node000006"><a xlink:title=" ">
<polygon fill="white" stroke="transparent" points="412.5,-403.5 320.5,-403.5 320.5,-354.5 412.5,-354.5 412.5,-403.5"/>
<text text-anchor="start" x="325.5" y="-391" font-family="Helvetica,sans-Serif" font-size="10.00">vector&lt; size_t &gt;</text>
<text text-anchor="start" x="364.5" y="-376" font-family="Helvetica,sans-Serif" font-size="10.00"> </text>
<text text-anchor="start" x="364.5" y="-361" font-family="Helvetica,sans-Serif" font-size="10.00"> </text>
<polygon fill="#666666" stroke="#666666" points="320.5,-386 320.5,-386 412.5,-386 412.5,-386 320.5,-386"/>
<polygon fill="#666666" stroke="#666666" points="320.5,-371 320.5,-371 412.5,-371 412.5,-371 320.5,-371"/>
<polygon fill="none" stroke="#666666" points="320.5,-354.5 320.5,-403.5 412.5,-403.5 412.5,-354.5 320.5,-354.5"/>
</a>
</g>
</g>
<!-- Node6&#45;&gt;Node1 -->
<g id="edge5_Node000001_Node000006" class="edge">
<title>Node6&#45;&gt;Node1</title>
<g id="a_edge5_Node000001_Node000006"><a xlink:title=" ">
<path fill="none" stroke="#63b8ff" d="M362.95,-354.04C358.66,-325.07 351.12,-274.21 344.01,-226.22"/>
<polygon fill="none" stroke="#63b8ff" points="343.98,-225.97 339.14,-220.62 342.22,-214.1 347.05,-219.44 343.98,-225.97"/>
</a>
</g>
<text text-anchor="middle" x="410" y="-240.5" font-family="Helvetica,sans-Serif" font-size="10.00" fill="grey"> &#45;m_selectedCellsIndexes</text>
</g>
<!-- Node7 -->
<g id="Node000007" class="node">
<title>Node7</title>
<g id="a_Node000007"><a xlink:title=" ">
<polygon fill="white" stroke="transparent" points="595.5,-403.5 433.5,-403.5 433.5,-354.5 595.5,-354.5 595.5,-403.5"/>
<text text-anchor="start" x="438.5" y="-391" font-family="Helvetica,sans-Serif" font-size="10.00">vector&lt; ClipboardInterface * &gt;</text>
<text text-anchor="start" x="512.5" y="-376" font-family="Helvetica,sans-Serif" font-size="10.00"> </text>
<text text-anchor="start" x="512.5" y="-361" font-family="Helvetica,sans-Serif" font-size="10.00"> </text>
<polygon fill="#666666" stroke="#666666" points="433.5,-386 433.5,-386 595.5,-386 595.5,-386 433.5,-386"/>
<polygon fill="#666666" stroke="#666666" points="433.5,-371 433.5,-371 595.5,-371 595.5,-371 433.5,-371"/>
<polygon fill="none" stroke="#666666" points="433.5,-354.5 433.5,-403.5 595.5,-403.5 595.5,-354.5 433.5,-354.5"/>
</a>
</g>
</g>
<!-- Node7&#45;&gt;Node1 -->
<g id="edge6_Node000001_Node000007" class="edge">
<title>Node7&#45;&gt;Node1</title>
<g id="a_edge6_Node000001_Node000007"><a xlink:title=" ">
<path fill="none" stroke="#63b8ff" d="M512.84,-354.49C509.74,-324.07 500.99,-270.43 476.5,-232 458.47,-203.7 431.85,-178.7 406.03,-158.69"/>
<polygon fill="none" stroke="#63b8ff" points="405.77,-158.5 398.57,-158.08 396.19,-151.27 403.39,-151.69 405.77,-158.5"/>
</a>
</g>
<text text-anchor="middle" x="555" y="-240.5" font-family="Helvetica,sans-Serif" font-size="10.00" fill="grey"> &#45;m_memoryCellsShortCuts</text>
</g>
</g>
</svg>
