<?xml version="1.0" encoding="UTF-8" standalone="no"?>
<!DOCTYPE svg PUBLIC "-//W3C//DTD SVG 1.1//EN"
 "http://www.w3.org/Graphics/SVG/1.1/DTD/svg11.dtd">
<!-- Generated by graphviz version 2.43.0 (0)
 -->
<!-- Title: ExportSearchEvent Pages: 1 -->
<!--zoomable 519 -->

<svg id="main" version="1.1" xmlns="http://www.w3.org/2000/svg" xmlns:xlink="http://www.w3.org/1999/xlink" xml:space="preserve" onload="init(evt)">
<style type="text/css"><![CDATA[
.node, .edge {opacity: 0.7;}
.node.selected, .edge.selected {opacity: 1;}
.edge:hover path { stroke: red; }
.edge:hover polygon { stroke: red; fill: red; }
]]></style>

<defs>
  <circle id="rim" cx="0" cy="0" r="7"/>
  <circle id="rim2" cx="0" cy="0" r="3.5"/>
  <g id="zoomPlus">
    <use xlink:href="#rim" fill="#404040"><set attributeName="fill" to="#808080" begin="zoomplus.mouseover" end="zoomplus.mouseout"/></use>
    <path d="M-4,0h8M0,-4v8" fill="none" stroke="white" stroke-width="1.5" pointer-events="none"/>
  </g>
  <g id="zoomMin">
    <use xlink:href="#rim" fill="#404040"><set attributeName="fill" to="#808080" begin="zoomminus.mouseover" end="zoomminus.mouseout"/></use>
    <path d="M-4,0h8" fill="none" stroke="white" stroke-width="1.5" pointer-events="none"/>
  </g>
  <g id="arrowUp" transform="translate(30 24)">
    <use xlink:href="#rim"/>
    <path pointer-events="none" fill="none" stroke="white" stroke-width="1.5" d="M0,-3.0v7 M-2.5,-0.5L0,-3.0L2.5,-0.5"/>
  </g>
  <g id="arrowRight" transform="rotate(90) translate(36 -43)">
    <use xlink:href="#rim"/>
    <path pointer-events="none" fill="none" stroke="white" stroke-width="1.5" d="M0,-3.0v7 M-2.5,-0.5L0,-3.0L2.5,-0.5"/>
  </g>
  <g id="arrowDown" transform="rotate(180) translate(-30 -48)">
    <use xlink:href="#rim"/>
    <path pointer-events="none" fill="none" stroke="white" stroke-width="1.5" d="M0,-3.0v7 M-2.5,-0.5L0,-3.0L2.5,-0.5"/>
  </g>
  <g id="arrowLeft" transform="rotate(270) translate(-36 17)">
    <use xlink:href="#rim"/>
    <path pointer-events="none" fill="none" stroke="white" stroke-width="1.5" d="M0,-3.0v7 M-2.5,-0.5L0,-3.0L2.5,-0.5"/>
  </g>
  <g id="resetDef">
    <use xlink:href="#rim2" fill="#404040"><set attributeName="fill" to="#808080" begin="reset.mouseover" end="reset.mouseout"/></use>
  </g>
</defs>
<script type="application/ecmascript">
var viewWidth = 479;
var viewHeight = 519;
var sectionId = 'dynsection-1';
</script>
<script type="application/ecmascript" xlink:href="svg.min.js"/>
<svg id="graph" class="graph">
<g id="viewport">
<title>ExportSearchEvent</title>
<!-- Node1 -->
<g id="Node000001" class="node">
<title>Node1</title>
<g id="a_Node000001"><a xlink:title=" ">
<polygon fill="#999999" stroke="transparent" points="251,-79 121,-79 121,0 251,0 251,-79"/>
<text text-anchor="start" x="139.5" y="-66.5" font-family="Helvetica,sans-Serif" font-size="10.00">ExportSearchEvent</text>
<text text-anchor="start" x="184" y="-51.5" font-family="Helvetica,sans-Serif" font-size="10.00"> </text>
<text text-anchor="start" x="125" y="-36.5" font-family="Helvetica,sans-Serif" font-size="10.00">+</text>
<text text-anchor="start" x="138" y="-36.5" font-family="Helvetica,sans-Serif" font-size="10.00">ExportSearchEvent()</text>
<text text-anchor="start" x="125" y="-21.5" font-family="Helvetica,sans-Serif" font-size="10.00">+</text>
<text text-anchor="start" x="138" y="-21.5" font-family="Helvetica,sans-Serif" font-size="10.00">~ExportSearchEvent()</text>
<text text-anchor="start" x="125" y="-6.5" font-family="Helvetica,sans-Serif" font-size="10.00">+</text>
<text text-anchor="start" x="138" y="-6.5" font-family="Helvetica,sans-Serif" font-size="10.00">handle()</text>
<polygon fill="#666666" stroke="#666666" points="121,-61.5 121,-61.5 251,-61.5 251,-61.5 121,-61.5"/>
<polygon fill="#666666" stroke="#666666" points="121,-46.5 121,-46.5 251,-46.5 251,-46.5 121,-46.5"/>
<polygon fill="none" stroke="#666666" points="121,0 121,-79 251,-79 251,0 121,0"/>
</a>
</g>
</g>
<!-- Node2 -->
<g id="Node000002" class="node">
<title>Node2</title>
<g id="a_Node000002"><a xlink:href="classClipboardEvent.html" target="_top" xlink:title=" ">
<polygon fill="white" stroke="transparent" points="112,-250 0,-250 0,-186 112,-186 112,-250"/>
<text text-anchor="start" x="18.5" y="-238" font-family="Helvetica,sans-Serif" font-size="10.00">ClipboardEvent</text>
<text text-anchor="start" x="54" y="-223" font-family="Helvetica,sans-Serif" font-size="10.00"> </text>
<text text-anchor="start" x="4" y="-208" font-family="Helvetica,sans-Serif" font-size="10.00">+</text>
<text text-anchor="start" x="17" y="-208" font-family="Helvetica,sans-Serif" font-size="10.00">~ClipboardEvent()</text>
<text text-anchor="start" x="4" y="-193" font-family="Helvetica,sans-Serif" font-size="10.00">+</text>
<text text-anchor="start" x="17" y="-193" font-family="Helvetica,sans-Serif" font-size="10.00">handle()</text>
<polygon fill="#666666" stroke="#666666" points="0,-233 0,-233 112,-233 112,-233 0,-233"/>
<polygon fill="#666666" stroke="#666666" points="0,-218 0,-218 112,-218 112,-218 0,-218"/>
<polygon fill="none" stroke="#666666" points="0,-186 0,-250 112,-250 112,-186 0,-186"/>
</a>
</g>
</g>
<!-- Node2&#45;&gt;Node1 -->
<g id="edge1_Node000001_Node000002" class="edge">
<title>Node2&#45;&gt;Node1</title>
<g id="a_edge1_Node000001_Node000002"><a xlink:title=" ">
<path fill="none" stroke="#63b8ff" d="M84.12,-177.09C95.47,-161.12 108.75,-142.62 121,-126 132.39,-110.54 145.14,-93.68 156.31,-79.05"/>
<polygon fill="none" stroke="#63b8ff" points="80.97,-175.49 78.03,-185.67 86.67,-179.54 80.97,-175.49"/>
</a>
</g>
</g>
<!-- Node3 -->
<g id="Node000003" class="node">
<title>Node3</title>
<g id="a_Node000003"><a xlink:href="classFileManager.html" target="_top" xlink:title=" ">
<polygon fill="white" stroke="transparent" points="242,-310 130,-310 130,-126 242,-126 242,-310"/>
<text text-anchor="start" x="155.5" y="-298" font-family="Helvetica,sans-Serif" font-size="10.00">FileManager</text>
<text text-anchor="start" x="184" y="-283" font-family="Helvetica,sans-Serif" font-size="10.00"> </text>
<text text-anchor="start" x="134" y="-268" font-family="Helvetica,sans-Serif" font-size="10.00">+</text>
<text text-anchor="start" x="147" y="-268" font-family="Helvetica,sans-Serif" font-size="10.00">~FileManager()</text>
<text text-anchor="start" x="134" y="-253" font-family="Helvetica,sans-Serif" font-size="10.00">+</text>
<text text-anchor="start" x="147" y="-253" font-family="Helvetica,sans-Serif" font-size="10.00">getLastFile()</text>
<text text-anchor="start" x="134" y="-238" font-family="Helvetica,sans-Serif" font-size="10.00">+</text>
<text text-anchor="start" x="147" y="-238" font-family="Helvetica,sans-Serif" font-size="10.00">searchImportFile()</text>
<text text-anchor="start" x="134" y="-223" font-family="Helvetica,sans-Serif" font-size="10.00">+</text>
<text text-anchor="start" x="147" y="-223" font-family="Helvetica,sans-Serif" font-size="10.00">searchExportFile()</text>
<text text-anchor="start" x="134" y="-208" font-family="Helvetica,sans-Serif" font-size="10.00">+</text>
<text text-anchor="start" x="147" y="-208" font-family="Helvetica,sans-Serif" font-size="10.00">readFile()</text>
<text text-anchor="start" x="134" y="-193" font-family="Helvetica,sans-Serif" font-size="10.00">+</text>
<text text-anchor="start" x="147" y="-193" font-family="Helvetica,sans-Serif" font-size="10.00">exportFile()</text>
<text text-anchor="start" x="134" y="-178" font-family="Helvetica,sans-Serif" font-size="10.00">+</text>
<text text-anchor="start" x="147" y="-178" font-family="Helvetica,sans-Serif" font-size="10.00">showErrorDialog()</text>
<text text-anchor="start" x="134" y="-163" font-family="Helvetica,sans-Serif" font-size="10.00">+</text>
<text text-anchor="start" x="147" y="-163" font-family="Helvetica,sans-Serif" font-size="10.00">showGoodDialog()</text>
<text text-anchor="start" x="134" y="-148" font-family="Helvetica,sans-Serif" font-size="10.00">+</text>
<text text-anchor="start" x="147" y="-148" font-family="Helvetica,sans-Serif" font-size="10.00">Instance()</text>
<text text-anchor="start" x="134" y="-133" font-family="Helvetica,sans-Serif" font-size="10.00">#</text>
<text text-anchor="start" x="147" y="-133" font-family="Helvetica,sans-Serif" font-size="10.00">FileManager()</text>
<polygon fill="#666666" stroke="#666666" points="130,-293 130,-293 242,-293 242,-293 130,-293"/>
<polygon fill="#666666" stroke="#666666" points="130,-278 130,-278 242,-278 242,-278 130,-278"/>
<polygon fill="none" stroke="#666666" points="130,-126 130,-310 242,-310 242,-126 130,-126"/>
</a>
</g>
</g>
<!-- Node3&#45;&gt;Node1 -->
<g id="edge2_Node000001_Node000003" class="edge">
<title>Node3&#45;&gt;Node1</title>
<g id="a_edge2_Node000001_Node000003"><a xlink:title=" ">
<path fill="none" stroke="#63b8ff" d="M186,-125.91C186,-114.03 186,-102.23 186,-91.35"/>
<polygon fill="none" stroke="#63b8ff" points="186,-91.06 182,-85.06 186,-79.06 190,-85.06 186,-91.06"/>
</a>
</g>
<text text-anchor="middle" x="226" y="-100" font-family="Helvetica,sans-Serif" font-size="10.00" fill="grey"> &#45;m_fileManager</text>
</g>
<!-- Node3&#45;&gt;Node3 -->
<g id="edge4_Node000003_Node000003" class="edge">
<title>Node3&#45;&gt;Node3</title>
<g id="a_edge4_Node000003_Node000003"><a xlink:title=" ">
<path fill="none" stroke="#63b8ff" d="M242.15,-238.28C252.62,-235.78 260,-229.02 260,-218 260,-211.46 257.4,-206.41 253.09,-202.88"/>
<polygon fill="none" stroke="#63b8ff" points="253,-202.83 245.87,-203.9 242.15,-197.72 249.28,-196.66 253,-202.83"/>
</a>
</g>
<text text-anchor="middle" x="292" y="-215.5" font-family="Helvetica,sans-Serif" font-size="10.00" fill="grey"> &#45;m_instance</text>
</g>
<!-- Node4 -->
<g id="Node000004" class="node">
<title>Node4</title>
<g id="a_Node000004"><a xlink:href="classIFileManager.html" target="_top" xlink:title=" ">
<polygon fill="white" stroke="transparent" points="155,-511 43,-511 43,-357 155,-357 155,-511"/>
<text text-anchor="start" x="67" y="-499" font-family="Helvetica,sans-Serif" font-size="10.00">IFileManager</text>
<text text-anchor="start" x="97" y="-484" font-family="Helvetica,sans-Serif" font-size="10.00"> </text>
<text text-anchor="start" x="47" y="-469" font-family="Helvetica,sans-Serif" font-size="10.00">+</text>
<text text-anchor="start" x="60" y="-469" font-family="Helvetica,sans-Serif" font-size="10.00">~IFileManager()</text>
<text text-anchor="start" x="47" y="-454" font-family="Helvetica,sans-Serif" font-size="10.00">+</text>
<text text-anchor="start" x="60" y="-454" font-family="Helvetica,sans-Serif" font-size="10.00">getLastFile()</text>
<text text-anchor="start" x="47" y="-439" font-family="Helvetica,sans-Serif" font-size="10.00">+</text>
<text text-anchor="start" x="60" y="-439" font-family="Helvetica,sans-Serif" font-size="10.00">searchImportFile()</text>
<text text-anchor="start" x="47" y="-424" font-family="Helvetica,sans-Serif" font-size="10.00">+</text>
<text text-anchor="start" x="60" y="-424" font-family="Helvetica,sans-Serif" font-size="10.00">searchExportFile()</text>
<text text-anchor="start" x="47" y="-409" font-family="Helvetica,sans-Serif" font-size="10.00">+</text>
<text text-anchor="start" x="60" y="-409" font-family="Helvetica,sans-Serif" font-size="10.00">readFile()</text>
<text text-anchor="start" x="47" y="-394" font-family="Helvetica,sans-Serif" font-size="10.00">+</text>
<text text-anchor="start" x="60" y="-394" font-family="Helvetica,sans-Serif" font-size="10.00">exportFile()</text>
<text text-anchor="start" x="47" y="-379" font-family="Helvetica,sans-Serif" font-size="10.00">+</text>
<text text-anchor="start" x="60" y="-379" font-family="Helvetica,sans-Serif" font-size="10.00">showErrorDialog()</text>
<text text-anchor="start" x="47" y="-364" font-family="Helvetica,sans-Serif" font-size="10.00">+</text>
<text text-anchor="start" x="60" y="-364" font-family="Helvetica,sans-Serif" font-size="10.00">showGoodDialog()</text>
<polygon fill="#666666" stroke="#666666" points="43,-494 43,-494 155,-494 155,-494 43,-494"/>
<polygon fill="#666666" stroke="#666666" points="43,-479 43,-479 155,-479 155,-479 43,-479"/>
<polygon fill="none" stroke="#666666" points="43,-357 43,-511 155,-511 155,-357 43,-357"/>
</a>
</g>
</g>
<!-- Node4&#45;&gt;Node3 -->
<g id="edge3_Node000003_Node000004" class="edge">
<title>Node4&#45;&gt;Node3</title>
<g id="a_edge3_Node000003_Node000004"><a xlink:title=" ">
<path fill="none" stroke="#63b8ff" d="M133.71,-347.62C138.71,-335.31 143.88,-322.61 148.93,-310.19"/>
<polygon fill="none" stroke="#63b8ff" points="130.44,-346.37 129.92,-356.95 136.93,-349 130.44,-346.37"/>
</a>
</g>
</g>
<!-- Node5 -->
<g id="Node000005" class="node">
<title>Node5</title>
<g id="a_Node000005"><a xlink:title=" ">
<polygon fill="white" stroke="transparent" points="211,-458.5 173,-458.5 173,-409.5 211,-409.5 211,-458.5"/>
<text text-anchor="start" x="178" y="-446" font-family="Helvetica,sans-Serif" font-size="10.00">string</text>
<text text-anchor="start" x="190" y="-431" font-family="Helvetica,sans-Serif" font-size="10.00"> </text>
<text text-anchor="start" x="190" y="-416" font-family="Helvetica,sans-Serif" font-size="10.00"> </text>
<polygon fill="#666666" stroke="#666666" points="173,-441 173,-441 211,-441 211,-441 173,-441"/>
<polygon fill="#666666" stroke="#666666" points="173,-426 173,-426 211,-426 211,-426 173,-426"/>
<polygon fill="none" stroke="#666666" points="173,-409.5 173,-458.5 211,-458.5 211,-409.5 173,-409.5"/>
</a>
</g>
</g>
<!-- Node5&#45;&gt;Node3 -->
<g id="edge5_Node000003_Node000005" class="edge">
<title>Node5&#45;&gt;Node3</title>
<g id="a_edge5_Node000003_Node000005"><a xlink:title=" ">
<path fill="none" stroke="#63b8ff" d="M191.33,-409.28C190.74,-387.96 189.82,-355.08 188.91,-322.62"/>
<polygon fill="none" stroke="#63b8ff" points="188.89,-322.22 184.73,-316.33 188.56,-310.22 192.72,-316.11 188.89,-322.22"/>
</a>
</g>
<text text-anchor="middle" x="219" y="-331" font-family="Helvetica,sans-Serif" font-size="10.00" fill="grey"> &#45;m_lastFile</text>
</g>
<!-- Node6 -->
<g id="Node000006" class="node">
<title>Node6</title>
<g id="a_Node000006"><a xlink:href="classTranslationManager.html" target="_top" xlink:title=" ">
<polygon fill="#fff0f0" stroke="transparent" points="388.5,-481 263.5,-481 263.5,-387 388.5,-387 388.5,-481"/>
<text text-anchor="start" x="278" y="-469" font-family="Helvetica,sans-Serif" font-size="10.00">TranslationManager</text>
<text text-anchor="start" x="324.5" y="-454" font-family="Helvetica,sans-Serif" font-size="10.00"> </text>
<text text-anchor="start" x="268" y="-439" font-family="Helvetica,sans-Serif" font-size="10.00">+</text>
<text text-anchor="start" x="281" y="-439" font-family="Helvetica,sans-Serif" font-size="10.00">loadLanguage()</text>
<text text-anchor="start" x="268" y="-424" font-family="Helvetica,sans-Serif" font-size="10.00">+</text>
<text text-anchor="start" x="281" y="-424" font-family="Helvetica,sans-Serif" font-size="10.00">getString()</text>
<text text-anchor="start" x="268" y="-409" font-family="Helvetica,sans-Serif" font-size="10.00">+</text>
<text text-anchor="start" x="281" y="-409" font-family="Helvetica,sans-Serif" font-size="10.00">Instance()</text>
<text text-anchor="start" x="268" y="-394" font-family="Helvetica,sans-Serif" font-size="10.00">#</text>
<text text-anchor="start" x="281" y="-394" font-family="Helvetica,sans-Serif" font-size="10.00">TranslationManager()</text>
<polygon fill="red" stroke="red" points="264,-464 264,-464 389,-464 389,-464 264,-464"/>
<polygon fill="red" stroke="red" points="264,-449 264,-449 389,-449 389,-449 264,-449"/>
<polygon fill="none" stroke="red" points="263.5,-387 263.5,-481 388.5,-481 388.5,-387 263.5,-387"/>
</a>
</g>
</g>
<!-- Node6&#45;&gt;Node1 -->
<g id="edge8_Node000001_Node000006" class="edge">
<title>Node6&#45;&gt;Node1</title>
<g id="a_edge8_Node000001_Node000006"><a xlink:title=" ">
<path fill="none" stroke="#63b8ff" d="M340.96,-386.97C358.63,-323.57 380.12,-207.91 333,-126 317.41,-98.9 289.56,-79.58 262.26,-66.26"/>
<polygon fill="none" stroke="#63b8ff" points="261.94,-66.11 254.82,-67.23 251.04,-61.08 258.17,-59.96 261.94,-66.11"/>
</a>
</g>
<text text-anchor="middle" x="396" y="-215.5" font-family="Helvetica,sans-Serif" font-size="10.00" fill="grey"> &#45;m_translator</text>
</g>
<!-- Node6&#45;&gt;Node3 -->
<g id="edge6_Node000003_Node000006" class="edge">
<title>Node6&#45;&gt;Node3</title>
<g id="a_edge6_Node000003_Node000006"><a xlink:title=" ">
<path fill="none" stroke="#63b8ff" d="M295.79,-386.83C282.02,-365.77 265.16,-340 248.83,-315.04"/>
<polygon fill="none" stroke="#63b8ff" points="248.69,-314.83 242.06,-312 242.12,-304.79 248.75,-307.62 248.69,-314.83"/>
</a>
</g>
<text text-anchor="middle" x="292.5" y="-331" font-family="Helvetica,sans-Serif" font-size="10.00" fill="grey"> &#45;translator</text>
</g>
<!-- Node6&#45;&gt;Node6 -->
<g id="edge7_Node000006_Node000006" class="edge">
<title>Node6&#45;&gt;Node6</title>
<g id="a_edge7_Node000006_Node000006"><a xlink:title=" ">
<path fill="none" stroke="#63b8ff" d="M388.78,-451.43C399.26,-448.99 406.5,-443.18 406.5,-434 406.5,-428.69 404.08,-424.51 400.01,-421.46"/>
<polygon fill="none" stroke="#63b8ff" points="399.78,-421.36 392.69,-422.63 388.78,-416.57 395.88,-415.3 399.78,-421.36"/>
</a>
</g>
<text text-anchor="middle" x="438.5" y="-431.5" font-family="Helvetica,sans-Serif" font-size="10.00" fill="grey"> &#45;m_instance</text>
</g>
</g>
</svg>

<g id="navigator" transform="translate(0 0)" fill="#404254">
  <rect fill="#f2f5e9" fill-opacity="0.5" stroke="#606060" stroke-width=".5" x="0" y="0" width="60" height="60"/>
  <use id="zoomplus" xlink:href="#zoomPlus" x="17" y="9" onmousedown="handleZoom(evt,'in')"/>
  <use id="zoomminus" xlink:href="#zoomMin" x="42" y="9" onmousedown="handleZoom(evt,'out')"/>
  <use id="reset" xlink:href="#resetDef" x="30" y="36" onmousedown="handleReset()"/>
   <use id="arrowup" xlink:href="#arrowUp" x="0" y="0" onmousedown="handlePan(0,-1)"/>
  <use id="arrowright" xlink:href="#arrowRight" x="0" y="0" onmousedown="handlePan(1,0)"/>
  <use id="arrowdown" xlink:href="#arrowDown" x="0" y="0" onmousedown="handlePan(0,1)"/>
  <use id="arrowleft" xlink:href="#arrowLeft" x="0" y="0" onmousedown="handlePan(-1,0)"/>
</g>
<svg viewBox="0 0 15 15" width="100%" height="30px" preserveAspectRatio="xMaxYMin meet">
 <g id="arrow_out" transform="scale(0.3 0.3)">
  <a xlink:href="classExportSearchEvent__coll__graph_org.svg" target="_base">
   <rect id="button" ry="5" rx="5" y="6" x="6" height="38" width="38"
        fill="#f2f5e9" fill-opacity="0.5" stroke="#606060" stroke-width="1.0"/>
   <path id="arrow"
     d="M 11.500037,31.436501 C 11.940474,20.09759 22.043105,11.32322 32.158766,21.979434 L 37.068811,17.246167 C 37.068811,17.246167 37.088388,32 37.088388,32 L 22.160133,31.978069 C 22.160133,31.978069 26.997745,27.140456 26.997745,27.140456 C 18.528582,18.264221 13.291696,25.230495 11.500037,31.436501 z"
     style="fill:#404040;"/>
  </a>
 </g>
</svg>

<style type='text/css'>
<![CDATA[
[data-mouse-over-selected='false'] { opacity: 0.7; }
[data-mouse-over-selected='true']  { opacity: 1.0; }
]]>
</style>
<script type="application/ecmascript"><![CDATA[
document.addEventListener('DOMContentLoaded', (event) => {
  highlightEdges();
  highlightAdjacentNodes();
});
]]></script>
</svg>
