<?xml version="1.0" encoding="UTF-8" standalone="no"?>
<!DOCTYPE svg PUBLIC "-//W3C//DTD SVG 1.1//EN"
 "http://www.w3.org/Graphics/SVG/1.1/DTD/svg11.dtd">
<!-- Generated by graphviz version 2.43.0 (0)
 -->
<!-- Title: CopyEvent Pages: 1 -->
<svg width="392pt" height="474pt"
 viewBox="0.00 0.00 392.00 474.00" xmlns="http://www.w3.org/2000/svg" xmlns:xlink="http://www.w3.org/1999/xlink">
<g id="graph0" class="graph" transform="scale(1 1) rotate(0) translate(4 470)">
<title>CopyEvent</title>
<!-- Node1 -->
<g id="Node000001" class="node">
<title>Node1</title>
<g id="a_Node000001"><a xlink:title=" ">
<polygon fill="#999999" stroke="transparent" points="192.5,-94 95.5,-94 95.5,0 192.5,0 192.5,-94"/>
<text text-anchor="start" x="118" y="-82" font-family="Helvetica,sans-Serif" font-size="10.00">CopyEvent</text>
<text text-anchor="start" x="142.5" y="-67" font-family="Helvetica,sans-Serif" font-size="10.00"> </text>
<text text-anchor="start" x="100" y="-52" font-family="Helvetica,sans-Serif" font-size="10.00">+</text>
<text text-anchor="start" x="113" y="-52" font-family="Helvetica,sans-Serif" font-size="10.00">CopyEvent()</text>
<text text-anchor="start" x="100" y="-37" font-family="Helvetica,sans-Serif" font-size="10.00">+</text>
<text text-anchor="start" x="113" y="-37" font-family="Helvetica,sans-Serif" font-size="10.00">~CopyEvent()</text>
<text text-anchor="start" x="100" y="-22" font-family="Helvetica,sans-Serif" font-size="10.00">#</text>
<text text-anchor="start" x="113" y="-22" font-family="Helvetica,sans-Serif" font-size="10.00">DoHandle()</text>
<text text-anchor="start" x="102.5" y="-7" font-family="Helvetica,sans-Serif" font-size="10.00">&#45;</text>
<text text-anchor="start" x="113" y="-7" font-family="Helvetica,sans-Serif" font-size="10.00">SimulateCopy()</text>
<polygon fill="#666666" stroke="#666666" points="96,-77 96,-77 193,-77 193,-77 96,-77"/>
<polygon fill="#666666" stroke="#666666" points="96,-62 96,-62 193,-62 193,-62 96,-62"/>
<polygon fill="none" stroke="#666666" points="95.5,0 95.5,-94 192.5,-94 192.5,0 95.5,0"/>
</a>
</g>
</g>
<!-- Node2 -->
<g id="Node000002" class="node">
<title>Node2</title>
<g id="a_Node000002"><a xlink:href="classWindowFocusEvent.html" target="_top" xlink:title=" ">
<polygon fill="white" stroke="transparent" points="132,-317.5 0,-317.5 0,-178.5 132,-178.5 132,-317.5"/>
<text text-anchor="start" x="18.5" y="-305" font-family="Helvetica,sans-Serif" font-size="10.00">WindowFocusEvent</text>
<text text-anchor="start" x="64" y="-290" font-family="Helvetica,sans-Serif" font-size="10.00"> </text>
<text text-anchor="start" x="4" y="-275" font-family="Helvetica,sans-Serif" font-size="10.00">+</text>
<text text-anchor="start" x="17" y="-275" font-family="Helvetica,sans-Serif" font-size="10.00">WindowFocusEvent()</text>
<text text-anchor="start" x="4" y="-260" font-family="Helvetica,sans-Serif" font-size="10.00">+</text>
<text text-anchor="start" x="17" y="-260" font-family="Helvetica,sans-Serif" font-size="10.00">~WindowFocusEvent()</text>
<text text-anchor="start" x="4" y="-245" font-family="Helvetica,sans-Serif" font-size="10.00">+</text>
<text text-anchor="start" x="17" y="-245" font-family="Helvetica,sans-Serif" font-size="10.00">handle()</text>
<text text-anchor="start" x="4" y="-230" font-family="Helvetica,sans-Serif" font-size="10.00">#</text>
<text text-anchor="start" x="17" y="-230" font-family="Helvetica,sans-Serif" font-size="10.00">Attach()</text>
<text text-anchor="start" x="4" y="-215" font-family="Helvetica,sans-Serif" font-size="10.00">#</text>
<text text-anchor="start" x="17" y="-215" font-family="Helvetica,sans-Serif" font-size="10.00">ShowWindow()</text>
<text text-anchor="start" x="4" y="-200" font-family="Helvetica,sans-Serif" font-size="10.00">#</text>
<text text-anchor="start" x="17" y="-200" font-family="Helvetica,sans-Serif" font-size="10.00">DoHandle()</text>
<text text-anchor="start" x="4" y="-185" font-family="Helvetica,sans-Serif" font-size="10.00">#</text>
<text text-anchor="start" x="17" y="-185" font-family="Helvetica,sans-Serif" font-size="10.00">DeAttach()</text>
<polygon fill="#666666" stroke="#666666" points="0,-300 0,-300 132,-300 132,-300 0,-300"/>
<polygon fill="#666666" stroke="#666666" points="0,-285 0,-285 132,-285 132,-285 0,-285"/>
<polygon fill="none" stroke="#666666" points="0,-178.5 0,-317.5 132,-317.5 132,-178.5 0,-178.5"/>
</a>
</g>
</g>
<!-- Node2&#45;&gt;Node1 -->
<g id="edge1_Node000001_Node000002" class="edge">
<title>Node2&#45;&gt;Node1</title>
<g id="a_edge1_Node000001_Node000002"><a xlink:title=" ">
<path fill="none" stroke="#63b8ff" d="M96.7,-168.68C106.58,-143.48 117.2,-116.38 125.87,-94.25"/>
<polygon fill="none" stroke="#63b8ff" points="93.34,-167.65 92.95,-178.24 99.86,-170.2 93.34,-167.65"/>
</a>
</g>
</g>
<!-- Node3 -->
<g id="Node000003" class="node">
<title>Node3</title>
<g id="a_Node000003"><a xlink:href="classClipboardEvent.html" target="_top" xlink:title=" ">
<polygon fill="white" stroke="transparent" points="122,-466 10,-466 10,-402 122,-402 122,-466"/>
<text text-anchor="start" x="28.5" y="-454" font-family="Helvetica,sans-Serif" font-size="10.00">ClipboardEvent</text>
<text text-anchor="start" x="64" y="-439" font-family="Helvetica,sans-Serif" font-size="10.00"> </text>
<text text-anchor="start" x="14" y="-424" font-family="Helvetica,sans-Serif" font-size="10.00">+</text>
<text text-anchor="start" x="27" y="-424" font-family="Helvetica,sans-Serif" font-size="10.00">~ClipboardEvent()</text>
<text text-anchor="start" x="14" y="-409" font-family="Helvetica,sans-Serif" font-size="10.00">+</text>
<text text-anchor="start" x="27" y="-409" font-family="Helvetica,sans-Serif" font-size="10.00">handle()</text>
<polygon fill="#666666" stroke="#666666" points="10,-449 10,-449 122,-449 122,-449 10,-449"/>
<polygon fill="#666666" stroke="#666666" points="10,-434 10,-434 122,-434 122,-434 10,-434"/>
<polygon fill="none" stroke="#666666" points="10,-402 10,-466 122,-466 122,-402 10,-402"/>
</a>
</g>
</g>
<!-- Node3&#45;&gt;Node2 -->
<g id="edge2_Node000002_Node000003" class="edge">
<title>Node3&#45;&gt;Node2</title>
<g id="a_edge2_Node000002_Node000003"><a xlink:title=" ">
<path fill="none" stroke="#63b8ff" d="M66,-391.59C66,-369.85 66,-342.65 66,-317.84"/>
<polygon fill="none" stroke="#63b8ff" points="62.5,-391.79 66,-401.79 69.5,-391.79 62.5,-391.79"/>
</a>
</g>
</g>
<!-- Node4 -->
<g id="Node000004" class="node">
<title>Node4</title>
<g id="a_Node000004"><a xlink:href="classMemoryCellManager.html" target="_top" xlink:title=" ">
<polygon fill="white" stroke="transparent" points="298,-355 150,-355 150,-141 298,-141 298,-355"/>
<text text-anchor="start" x="172.5" y="-343" font-family="Helvetica,sans-Serif" font-size="10.00">MemoryCellManager</text>
<text text-anchor="start" x="222" y="-328" font-family="Helvetica,sans-Serif" font-size="10.00"> </text>
<text text-anchor="start" x="154" y="-313" font-family="Helvetica,sans-Serif" font-size="10.00">+</text>
<text text-anchor="start" x="167" y="-313" font-family="Helvetica,sans-Serif" font-size="10.00">getMemoryCellCount()</text>
<text text-anchor="start" x="154" y="-298" font-family="Helvetica,sans-Serif" font-size="10.00">+</text>
<text text-anchor="start" x="167" y="-298" font-family="Helvetica,sans-Serif" font-size="10.00">getMemoryCell()</text>
<text text-anchor="start" x="154" y="-283" font-family="Helvetica,sans-Serif" font-size="10.00">+</text>
<text text-anchor="start" x="167" y="-283" font-family="Helvetica,sans-Serif" font-size="10.00">addMemoryCell()</text>
<text text-anchor="start" x="154" y="-268" font-family="Helvetica,sans-Serif" font-size="10.00">+</text>
<text text-anchor="start" x="167" y="-268" font-family="Helvetica,sans-Serif" font-size="10.00">initialize()</text>
<text text-anchor="start" x="154" y="-253" font-family="Helvetica,sans-Serif" font-size="10.00">+</text>
<text text-anchor="start" x="167" y="-253" font-family="Helvetica,sans-Serif" font-size="10.00">cleanup()</text>
<text text-anchor="start" x="154" y="-238" font-family="Helvetica,sans-Serif" font-size="10.00">+</text>
<text text-anchor="start" x="167" y="-238" font-family="Helvetica,sans-Serif" font-size="10.00">setSelectedCell()</text>
<text text-anchor="start" x="154" y="-223" font-family="Helvetica,sans-Serif" font-size="10.00">+</text>
<text text-anchor="start" x="167" y="-223" font-family="Helvetica,sans-Serif" font-size="10.00">getSelectedCell()</text>
<text text-anchor="start" x="154" y="-208" font-family="Helvetica,sans-Serif" font-size="10.00">+</text>
<text text-anchor="start" x="167" y="-208" font-family="Helvetica,sans-Serif" font-size="10.00">loadCells()</text>
<text text-anchor="start" x="154" y="-193" font-family="Helvetica,sans-Serif" font-size="10.00">+</text>
<text text-anchor="start" x="167" y="-193" font-family="Helvetica,sans-Serif" font-size="10.00">getContents()</text>
<text text-anchor="start" x="154" y="-178" font-family="Helvetica,sans-Serif" font-size="10.00">+</text>
<text text-anchor="start" x="167" y="-178" font-family="Helvetica,sans-Serif" font-size="10.00">moveContentsOneDown()</text>
<text text-anchor="start" x="154" y="-163" font-family="Helvetica,sans-Serif" font-size="10.00">+</text>
<text text-anchor="start" x="167" y="-163" font-family="Helvetica,sans-Serif" font-size="10.00">Instance()</text>
<text text-anchor="start" x="154" y="-148" font-family="Helvetica,sans-Serif" font-size="10.00">#</text>
<text text-anchor="start" x="167" y="-148" font-family="Helvetica,sans-Serif" font-size="10.00">MemoryCellManager()</text>
<polygon fill="#666666" stroke="#666666" points="150,-338 150,-338 298,-338 298,-338 150,-338"/>
<polygon fill="#666666" stroke="#666666" points="150,-323 150,-323 298,-323 298,-323 150,-323"/>
<polygon fill="none" stroke="#666666" points="150,-141 150,-355 298,-355 298,-141 150,-141"/>
</a>
</g>
</g>
<!-- Node4&#45;&gt;Node1 -->
<g id="edge3_Node000001_Node000004" class="edge">
<title>Node4&#45;&gt;Node1</title>
<g id="a_edge3_Node000001_Node000004"><a xlink:title=" ">
<path fill="none" stroke="#63b8ff" d="M181.31,-140.8C176.44,-128.7 171.63,-116.74 167.17,-105.62"/>
<polygon fill="none" stroke="#63b8ff" points="167.12,-105.52 161.17,-101.44 162.65,-94.38 168.6,-98.46 167.12,-105.52"/>
</a>
</g>
<text text-anchor="middle" x="235.5" y="-115" font-family="Helvetica,sans-Serif" font-size="10.00" fill="grey"> &#45;m_memoryCellManager</text>
</g>
<!-- Node5 -->
<g id="Node000005" class="node">
<title>Node5</title>
<g id="a_Node000005"><a xlink:title=" ">
<polygon fill="white" stroke="transparent" points="296.5,-464 143.5,-464 143.5,-404 296.5,-404 296.5,-464"/>
<text text-anchor="start" x="149" y="-452" font-family="Helvetica,sans-Serif" font-size="10.00">vector&lt; std::unique</text>
<text text-anchor="start" x="149" y="-441" font-family="Helvetica,sans-Serif" font-size="10.00">_ptr&lt; ClipboardInterface &gt; &gt;</text>
<text text-anchor="start" x="218.5" y="-426" font-family="Helvetica,sans-Serif" font-size="10.00"> </text>
<text text-anchor="start" x="218.5" y="-411" font-family="Helvetica,sans-Serif" font-size="10.00"> </text>
<polygon fill="#666666" stroke="#666666" points="144,-436 144,-436 297,-436 297,-436 144,-436"/>
<polygon fill="#666666" stroke="#666666" points="144,-421 144,-421 297,-421 297,-421 144,-421"/>
<polygon fill="none" stroke="#666666" points="143.5,-404 143.5,-464 296.5,-464 296.5,-404 143.5,-404"/>
</a>
</g>
</g>
<!-- Node5&#45;&gt;Node4 -->
<g id="edge4_Node000004_Node000005" class="edge">
<title>Node5&#45;&gt;Node4</title>
<g id="a_edge4_Node000004_Node000005"><a xlink:title=" ">
<path fill="none" stroke="#63b8ff" d="M220.63,-403.84C220.86,-393.45 221.13,-381 221.42,-367.74"/>
<polygon fill="none" stroke="#63b8ff" points="221.43,-367.37 217.56,-361.29 221.69,-355.37 225.56,-361.46 221.43,-367.37"/>
</a>
</g>
<text text-anchor="middle" x="266" y="-376" font-family="Helvetica,sans-Serif" font-size="10.00" fill="grey"> &#45;m_memoryCells</text>
</g>
<!-- Node6 -->
<g id="Node000006" class="node">
<title>Node6</title>
<g id="a_Node000006"><a xlink:title=" ">
<polygon fill="white" stroke="transparent" points="353.5,-458.5 314.5,-458.5 314.5,-409.5 353.5,-409.5 353.5,-458.5"/>
<text text-anchor="start" x="320" y="-446" font-family="Helvetica,sans-Serif" font-size="10.00">size_t</text>
<text text-anchor="start" x="332.5" y="-431" font-family="Helvetica,sans-Serif" font-size="10.00"> </text>
<text text-anchor="start" x="332.5" y="-416" font-family="Helvetica,sans-Serif" font-size="10.00"> </text>
<polygon fill="#666666" stroke="#666666" points="315,-441 315,-441 354,-441 354,-441 315,-441"/>
<polygon fill="#666666" stroke="#666666" points="315,-426 315,-426 354,-426 354,-426 315,-426"/>
<polygon fill="none" stroke="#666666" points="314.5,-409.5 314.5,-458.5 353.5,-458.5 353.5,-409.5 314.5,-409.5"/>
</a>
</g>
</g>
<!-- Node6&#45;&gt;Node4 -->
<g id="edge5_Node000004_Node000006" class="edge">
<title>Node6&#45;&gt;Node4</title>
<g id="a_edge5_Node000004_Node000006"><a xlink:title=" ">
<path fill="none" stroke="#63b8ff" d="M326.93,-409.3C323.16,-398.01 318.04,-384.49 312,-373 309.61,-368.47 307.09,-363.91 304.45,-359.35"/>
<polygon fill="none" stroke="#63b8ff" points="304.27,-359.05 297.76,-355.95 298.11,-348.75 304.62,-351.85 304.27,-359.05"/>
</a>
</g>
<text text-anchor="middle" x="350.5" y="-376" font-family="Helvetica,sans-Serif" font-size="10.00" fill="grey"> &#45;selectedCell</text>
</g>
</g>
</svg>
