<?xml version="1.0" encoding="UTF-8" standalone="no"?>
<!DOCTYPE svg PUBLIC "-//W3C//DTD SVG 1.1//EN"
 "http://www.w3.org/Graphics/SVG/1.1/DTD/svg11.dtd">
<!-- Generated by graphviz version 2.43.0 (0)
 -->
<!-- Title: SearchEvent Pages: 1 -->
<svg width="571pt" height="620pt"
 viewBox="0.00 0.00 571.00 620.00" xmlns="http://www.w3.org/2000/svg" xmlns:xlink="http://www.w3.org/1999/xlink">
<g id="graph0" class="graph" transform="scale(1 1) rotate(0) translate(4 616)">
<title>SearchEvent</title>
<!-- Node1 -->
<g id="Node000001" class="node">
<title>Node1</title>
<g id="a_Node000001"><a xlink:title=" ">
<polygon fill="#999999" stroke="transparent" points="188,-79 90,-79 90,0 188,0 188,-79"/>
<text text-anchor="start" x="108.5" y="-66.5" font-family="Helvetica,sans-Serif" font-size="10.00">SearchEvent</text>
<text text-anchor="start" x="137" y="-51.5" font-family="Helvetica,sans-Serif" font-size="10.00"> </text>
<text text-anchor="start" x="94" y="-36.5" font-family="Helvetica,sans-Serif" font-size="10.00">+</text>
<text text-anchor="start" x="107" y="-36.5" font-family="Helvetica,sans-Serif" font-size="10.00">SearchEvent()</text>
<text text-anchor="start" x="94" y="-21.5" font-family="Helvetica,sans-Serif" font-size="10.00">+</text>
<text text-anchor="start" x="107" y="-21.5" font-family="Helvetica,sans-Serif" font-size="10.00">~SearchEvent()</text>
<text text-anchor="start" x="94" y="-6.5" font-family="Helvetica,sans-Serif" font-size="10.00">+</text>
<text text-anchor="start" x="107" y="-6.5" font-family="Helvetica,sans-Serif" font-size="10.00">handle()</text>
<polygon fill="#666666" stroke="#666666" points="90,-61.5 90,-61.5 188,-61.5 188,-61.5 90,-61.5"/>
<polygon fill="#666666" stroke="#666666" points="90,-46.5 90,-46.5 188,-46.5 188,-46.5 90,-46.5"/>
<polygon fill="none" stroke="#666666" points="90,0 90,-79 188,-79 188,0 90,0"/>
</a>
</g>
</g>
<!-- Node2 -->
<g id="Node000002" class="node">
<title>Node2</title>
<g id="a_Node000002"><a xlink:href="classClipboardEvent.html" target="_top" xlink:title=" ">
<polygon fill="white" stroke="transparent" points="179,-265 67,-265 67,-201 179,-201 179,-265"/>
<text text-anchor="start" x="85.5" y="-253" font-family="Helvetica,sans-Serif" font-size="10.00">ClipboardEvent</text>
<text text-anchor="start" x="121" y="-238" font-family="Helvetica,sans-Serif" font-size="10.00"> </text>
<text text-anchor="start" x="71" y="-223" font-family="Helvetica,sans-Serif" font-size="10.00">+</text>
<text text-anchor="start" x="84" y="-223" font-family="Helvetica,sans-Serif" font-size="10.00">~ClipboardEvent()</text>
<text text-anchor="start" x="71" y="-208" font-family="Helvetica,sans-Serif" font-size="10.00">+</text>
<text text-anchor="start" x="84" y="-208" font-family="Helvetica,sans-Serif" font-size="10.00">handle()</text>
<polygon fill="#666666" stroke="#666666" points="67,-248 67,-248 179,-248 179,-248 67,-248"/>
<polygon fill="#666666" stroke="#666666" points="67,-233 67,-233 179,-233 179,-233 67,-233"/>
<polygon fill="none" stroke="#666666" points="67,-201 67,-265 179,-265 179,-201 67,-201"/>
</a>
</g>
</g>
<!-- Node2&#45;&gt;Node1 -->
<g id="edge1_Node000001_Node000002" class="edge">
<title>Node2&#45;&gt;Node1</title>
<g id="a_edge1_Node000001_Node000002"><a xlink:title=" ">
<path fill="none" stroke="#63b8ff" d="M126.46,-190.57C129.22,-157.53 133.06,-111.61 135.76,-79.29"/>
<polygon fill="none" stroke="#63b8ff" points="122.95,-190.55 125.61,-200.81 129.93,-191.13 122.95,-190.55"/>
</a>
</g>
</g>
<!-- Node3 -->
<g id="Node000003" class="node">
<title>Node3</title>
<g id="a_Node000003"><a xlink:href="classShortCutsViewModel.html" target="_top" xlink:title=" ">
<polygon fill="white" stroke="transparent" points="336.5,-340 197.5,-340 197.5,-126 336.5,-126 336.5,-340"/>
<text text-anchor="start" x="216.5" y="-328" font-family="Helvetica,sans-Serif" font-size="10.00">ShortCutsViewModel</text>
<text text-anchor="start" x="265.5" y="-313" font-family="Helvetica,sans-Serif" font-size="10.00"> </text>
<text text-anchor="start" x="202" y="-298" font-family="Helvetica,sans-Serif" font-size="10.00">+</text>
<text text-anchor="start" x="215" y="-298" font-family="Helvetica,sans-Serif" font-size="10.00">updateList()</text>
<text text-anchor="start" x="202" y="-283" font-family="Helvetica,sans-Serif" font-size="10.00">+</text>
<text text-anchor="start" x="215" y="-283" font-family="Helvetica,sans-Serif" font-size="10.00">moveUpIndex()</text>
<text text-anchor="start" x="202" y="-268" font-family="Helvetica,sans-Serif" font-size="10.00">+</text>
<text text-anchor="start" x="215" y="-268" font-family="Helvetica,sans-Serif" font-size="10.00">moveDownIndex()</text>
<text text-anchor="start" x="202" y="-253" font-family="Helvetica,sans-Serif" font-size="10.00">+</text>
<text text-anchor="start" x="215" y="-253" font-family="Helvetica,sans-Serif" font-size="10.00">getMemoryCell()</text>
<text text-anchor="start" x="202" y="-238" font-family="Helvetica,sans-Serif" font-size="10.00">+</text>
<text text-anchor="start" x="215" y="-238" font-family="Helvetica,sans-Serif" font-size="10.00">getSelectedCell()</text>
<text text-anchor="start" x="202" y="-223" font-family="Helvetica,sans-Serif" font-size="10.00">+</text>
<text text-anchor="start" x="215" y="-223" font-family="Helvetica,sans-Serif" font-size="10.00">hasSelectedCell()</text>
<text text-anchor="start" x="202" y="-208" font-family="Helvetica,sans-Serif" font-size="10.00">+</text>
<text text-anchor="start" x="215" y="-208" font-family="Helvetica,sans-Serif" font-size="10.00">getSelectedCellIndex()</text>
<text text-anchor="start" x="202" y="-193" font-family="Helvetica,sans-Serif" font-size="10.00">+</text>
<text text-anchor="start" x="215" y="-193" font-family="Helvetica,sans-Serif" font-size="10.00">canMoveUp()</text>
<text text-anchor="start" x="202" y="-178" font-family="Helvetica,sans-Serif" font-size="10.00">+</text>
<text text-anchor="start" x="215" y="-178" font-family="Helvetica,sans-Serif" font-size="10.00">canMoveDown()</text>
<text text-anchor="start" x="202" y="-163" font-family="Helvetica,sans-Serif" font-size="10.00">+</text>
<text text-anchor="start" x="215" y="-163" font-family="Helvetica,sans-Serif" font-size="10.00">Instance()</text>
<text text-anchor="start" x="202" y="-148" font-family="Helvetica,sans-Serif" font-size="10.00">#</text>
<text text-anchor="start" x="215" y="-148" font-family="Helvetica,sans-Serif" font-size="10.00">ShortCutsViewModel()</text>
<text text-anchor="start" x="202" y="-133" font-family="Helvetica,sans-Serif" font-size="10.00">#</text>
<text text-anchor="start" x="215" y="-133" font-family="Helvetica,sans-Serif" font-size="10.00">~ShortCutsViewModel()</text>
<polygon fill="#666666" stroke="#666666" points="198,-323 198,-323 337,-323 337,-323 198,-323"/>
<polygon fill="#666666" stroke="#666666" points="198,-308 198,-308 337,-308 337,-308 198,-308"/>
<polygon fill="none" stroke="#666666" points="197.5,-126 197.5,-340 336.5,-340 336.5,-126 197.5,-126"/>
</a>
</g>
</g>
<!-- Node3&#45;&gt;Node1 -->
<g id="edge2_Node000001_Node000003" class="edge">
<title>Node3&#45;&gt;Node1</title>
<g id="a_edge2_Node000001_Node000003"><a xlink:title=" ">
<path fill="none" stroke="#63b8ff" d="M197.38,-127.84C188.4,-114.41 179.57,-101.2 171.6,-89.28"/>
<polygon fill="none" stroke="#63b8ff" points="171.51,-89.14 164.85,-86.37 164.84,-79.16 171.5,-81.93 171.51,-89.14"/>
</a>
</g>
<text text-anchor="middle" x="245.5" y="-100" font-family="Helvetica,sans-Serif" font-size="10.00" fill="grey"> &#45;m_shortCutsViewModel</text>
</g>
<!-- Node4 -->
<g id="Node000004" class="node">
<title>Node4</title>
<g id="a_Node000004"><a xlink:href="classMemoryCellManager.html" target="_top" xlink:title=" ">
<polygon fill="#fff0f0" stroke="transparent" points="148,-612 0,-612 0,-398 148,-398 148,-612"/>
<text text-anchor="start" x="22.5" y="-600" font-family="Helvetica,sans-Serif" font-size="10.00">MemoryCellManager</text>
<text text-anchor="start" x="72" y="-585" font-family="Helvetica,sans-Serif" font-size="10.00"> </text>
<text text-anchor="start" x="4" y="-570" font-family="Helvetica,sans-Serif" font-size="10.00">+</text>
<text text-anchor="start" x="17" y="-570" font-family="Helvetica,sans-Serif" font-size="10.00">getMemoryCellCount()</text>
<text text-anchor="start" x="4" y="-555" font-family="Helvetica,sans-Serif" font-size="10.00">+</text>
<text text-anchor="start" x="17" y="-555" font-family="Helvetica,sans-Serif" font-size="10.00">getMemoryCell()</text>
<text text-anchor="start" x="4" y="-540" font-family="Helvetica,sans-Serif" font-size="10.00">+</text>
<text text-anchor="start" x="17" y="-540" font-family="Helvetica,sans-Serif" font-size="10.00">addMemoryCell()</text>
<text text-anchor="start" x="4" y="-525" font-family="Helvetica,sans-Serif" font-size="10.00">+</text>
<text text-anchor="start" x="17" y="-525" font-family="Helvetica,sans-Serif" font-size="10.00">initialize()</text>
<text text-anchor="start" x="4" y="-510" font-family="Helvetica,sans-Serif" font-size="10.00">+</text>
<text text-anchor="start" x="17" y="-510" font-family="Helvetica,sans-Serif" font-size="10.00">cleanup()</text>
<text text-anchor="start" x="4" y="-495" font-family="Helvetica,sans-Serif" font-size="10.00">+</text>
<text text-anchor="start" x="17" y="-495" font-family="Helvetica,sans-Serif" font-size="10.00">setSelectedCell()</text>
<text text-anchor="start" x="4" y="-480" font-family="Helvetica,sans-Serif" font-size="10.00">+</text>
<text text-anchor="start" x="17" y="-480" font-family="Helvetica,sans-Serif" font-size="10.00">getSelectedCell()</text>
<text text-anchor="start" x="4" y="-465" font-family="Helvetica,sans-Serif" font-size="10.00">+</text>
<text text-anchor="start" x="17" y="-465" font-family="Helvetica,sans-Serif" font-size="10.00">loadCells()</text>
<text text-anchor="start" x="4" y="-450" font-family="Helvetica,sans-Serif" font-size="10.00">+</text>
<text text-anchor="start" x="17" y="-450" font-family="Helvetica,sans-Serif" font-size="10.00">getContents()</text>
<text text-anchor="start" x="4" y="-435" font-family="Helvetica,sans-Serif" font-size="10.00">+</text>
<text text-anchor="start" x="17" y="-435" font-family="Helvetica,sans-Serif" font-size="10.00">moveContentsOneDown()</text>
<text text-anchor="start" x="4" y="-420" font-family="Helvetica,sans-Serif" font-size="10.00">+</text>
<text text-anchor="start" x="17" y="-420" font-family="Helvetica,sans-Serif" font-size="10.00">Instance()</text>
<text text-anchor="start" x="4" y="-405" font-family="Helvetica,sans-Serif" font-size="10.00">#</text>
<text text-anchor="start" x="17" y="-405" font-family="Helvetica,sans-Serif" font-size="10.00">MemoryCellManager()</text>
<polygon fill="red" stroke="red" points="0,-595 0,-595 148,-595 148,-595 0,-595"/>
<polygon fill="red" stroke="red" points="0,-580 0,-580 148,-580 148,-580 0,-580"/>
<polygon fill="none" stroke="red" points="0,-398 0,-612 148,-612 148,-398 0,-398"/>
</a>
</g>
</g>
<!-- Node4&#45;&gt;Node3 -->
<g id="edge3_Node000003_Node000004" class="edge">
<title>Node4&#45;&gt;Node3</title>
<g id="a_edge3_Node000003_Node000004"><a xlink:title=" ">
<path fill="none" stroke="#63b8ff" d="M70.25,-397.97C74.06,-383.15 80.55,-369.19 91,-358 118.6,-328.47 146.12,-357.78 186.76,-339.28"/>
<polygon fill="none" stroke="#63b8ff" points="186.85,-339.23 190.2,-332.84 197.38,-333.48 194.03,-339.87 186.85,-339.23"/>
</a>
</g>
<text text-anchor="middle" x="156" y="-366.5" font-family="Helvetica,sans-Serif" font-size="10.00" fill="grey"> &#45;m_memoryCellsManager</text>
</g>
<!-- Node7 -->
<g id="Node000007" class="node">
<title>Node7</title>
<g id="a_Node000007"><a xlink:title=" ">
<polygon fill="white" stroke="transparent" points="238.5,-529.5 215.5,-529.5 215.5,-480.5 238.5,-480.5 238.5,-529.5"/>
<text text-anchor="start" x="221" y="-517" font-family="Helvetica,sans-Serif" font-size="10.00">int</text>
<text text-anchor="start" x="225.5" y="-502" font-family="Helvetica,sans-Serif" font-size="10.00"> </text>
<text text-anchor="start" x="225.5" y="-487" font-family="Helvetica,sans-Serif" font-size="10.00"> </text>
<polygon fill="#666666" stroke="#666666" points="216,-512 216,-512 239,-512 239,-512 216,-512"/>
<polygon fill="#666666" stroke="#666666" points="216,-497 216,-497 239,-497 239,-497 216,-497"/>
<polygon fill="none" stroke="#666666" points="215.5,-480.5 215.5,-529.5 238.5,-529.5 238.5,-480.5 215.5,-480.5"/>
</a>
</g>
</g>
<!-- Node7&#45;&gt;Node3 -->
<g id="edge4_Node000003_Node000007" class="edge">
<title>Node7&#45;&gt;Node3</title>
<g id="a_edge4_Node000003_Node000007"><a xlink:title=" ">
<path fill="none" stroke="#63b8ff" d="M225.02,-480.31C223.08,-451.28 221.29,-400.69 228,-358 228.32,-355.97 228.66,-353.93 229.03,-351.87"/>
<polygon fill="none" stroke="#63b8ff" points="229.05,-351.81 226.3,-345.14 231.4,-340.04 234.15,-346.71 229.05,-351.81"/>
</a>
</g>
<text text-anchor="middle" x="256.5" y="-372" font-family="Helvetica,sans-Serif" font-size="10.00" fill="grey"> &#45;cellsIndex</text>
<text text-anchor="middle" x="256.5" y="-361" font-family="Helvetica,sans-Serif" font-size="10.00" fill="grey">&#45;viewIndex</text>
</g>
<!-- Node8 -->
<g id="Node000008" class="node">
<title>Node8</title>
<g id="a_Node000008"><a xlink:title=" ">
<polygon fill="white" stroke="transparent" points="353,-529.5 261,-529.5 261,-480.5 353,-480.5 353,-529.5"/>
<text text-anchor="start" x="266" y="-517" font-family="Helvetica,sans-Serif" font-size="10.00">vector&lt; size_t &gt;</text>
<text text-anchor="start" x="305" y="-502" font-family="Helvetica,sans-Serif" font-size="10.00"> </text>
<text text-anchor="start" x="305" y="-487" font-family="Helvetica,sans-Serif" font-size="10.00"> </text>
<polygon fill="#666666" stroke="#666666" points="261,-512 261,-512 353,-512 353,-512 261,-512"/>
<polygon fill="#666666" stroke="#666666" points="261,-497 261,-497 353,-497 353,-497 261,-497"/>
<polygon fill="none" stroke="#666666" points="261,-480.5 261,-529.5 353,-529.5 353,-480.5 261,-480.5"/>
</a>
</g>
</g>
<!-- Node8&#45;&gt;Node3 -->
<g id="edge5_Node000003_Node000008" class="edge">
<title>Node8&#45;&gt;Node3</title>
<g id="a_edge5_Node000003_Node000008"><a xlink:title=" ">
<path fill="none" stroke="#63b8ff" d="M303.45,-480.04C299.16,-451.07 291.62,-400.21 284.51,-352.22"/>
<polygon fill="none" stroke="#63b8ff" points="284.48,-351.97 279.64,-346.62 282.72,-340.1 287.55,-345.44 284.48,-351.97"/>
</a>
</g>
<text text-anchor="middle" x="350.5" y="-366.5" font-family="Helvetica,sans-Serif" font-size="10.00" fill="grey"> &#45;m_selectedCellsIndexes</text>
</g>
<!-- Node9 -->
<g id="Node000009" class="node">
<title>Node9</title>
<g id="a_Node000009"><a xlink:title=" ">
<polygon fill="white" stroke="transparent" points="536,-529.5 374,-529.5 374,-480.5 536,-480.5 536,-529.5"/>
<text text-anchor="start" x="379" y="-517" font-family="Helvetica,sans-Serif" font-size="10.00">vector&lt; ClipboardInterface * &gt;</text>
<text text-anchor="start" x="453" y="-502" font-family="Helvetica,sans-Serif" font-size="10.00"> </text>
<text text-anchor="start" x="453" y="-487" font-family="Helvetica,sans-Serif" font-size="10.00"> </text>
<polygon fill="#666666" stroke="#666666" points="374,-512 374,-512 536,-512 536,-512 374,-512"/>
<polygon fill="#666666" stroke="#666666" points="374,-497 374,-497 536,-497 536,-497 374,-497"/>
<polygon fill="none" stroke="#666666" points="374,-480.5 374,-529.5 536,-529.5 536,-480.5 374,-480.5"/>
</a>
</g>
</g>
<!-- Node9&#45;&gt;Node3 -->
<g id="edge6_Node000003_Node000009" class="edge">
<title>Node9&#45;&gt;Node3</title>
<g id="a_edge6_Node000003_Node000009"><a xlink:title=" ">
<path fill="none" stroke="#63b8ff" d="M453.34,-480.49C450.24,-450.07 441.49,-396.43 417,-358 398.97,-329.7 372.35,-304.7 346.53,-284.69"/>
<polygon fill="none" stroke="#63b8ff" points="346.27,-284.5 339.07,-284.08 336.69,-277.27 343.89,-277.69 346.27,-284.5"/>
</a>
</g>
<text text-anchor="middle" x="495.5" y="-366.5" font-family="Helvetica,sans-Serif" font-size="10.00" fill="grey"> &#45;m_memoryCellsShortCuts</text>
</g>
</g>
</svg>
