<?xml version="1.0" encoding="UTF-8" standalone="no"?>
<!DOCTYPE svg PUBLIC "-//W3C//DTD SVG 1.1//EN"
 "http://www.w3.org/Graphics/SVG/1.1/DTD/svg11.dtd">
<!-- Generated by graphviz version 2.43.0 (0)
 -->
<!-- Title: Gfx::EnumArray&lt; T, Enum &gt; Pages: 1 -->
<svg width="490pt" height="265pt"
 viewBox="0.00 0.00 490.00 265.00" xmlns="http://www.w3.org/2000/svg" xmlns:xlink="http://www.w3.org/1999/xlink">

<svg id="main" version="1.1" xmlns="http://www.w3.org/2000/svg" xmlns:xlink="http://www.w3.org/1999/xlink" xml:space="preserve" onload="init(evt)">
<style type="text/css"><![CDATA[
.node, .edge {opacity: 0.7;}
.node.selected, .edge.selected {opacity: 1;}
.edge:hover path { stroke: red; }
.edge:hover polygon { stroke: red; fill: red; }
]]></style>
<script type="application/ecmascript" xlink:href="svg.min.js"/>
<svg id="graph" class="graph">
<g id="graph0" class="graph" transform="scale(1 1) rotate(0) translate(4 261)">
<title>Gfx::EnumArray&lt; T, Enum &gt;</title>
<!-- Node1 -->
<g id="Node000001" class="node">
<title>Node1</title>
<g id="a_Node000001"><a xlink:title=" ">
<polygon fill="#999999" stroke="transparent" points="273,-257 165,-257 165,-152 273,-152 273,-257"/>
<text text-anchor="start" x="170" y="-244.5" font-family="Helvetica,sans-Serif" font-size="10.00">Gfx::EnumArray&lt; T,</text>
<text text-anchor="start" x="197.5" y="-233.5" font-family="Helvetica,sans-Serif" font-size="10.00"> Enum &gt;</text>
<text text-anchor="start" x="179" y="-218.5" font-family="Helvetica,sans-Serif" font-size="10.00">&#45;</text>
<text text-anchor="start" x="197" y="-218.5" font-family="Helvetica,sans-Serif" font-size="10.00">ids</text>
<text text-anchor="start" x="176.5" y="-203.5" font-family="Helvetica,sans-Serif" font-size="10.00">+</text>
<text text-anchor="start" x="197" y="-203.5" font-family="Helvetica,sans-Serif" font-size="10.00">operator[]()</text>
<text text-anchor="start" x="176.5" y="-188.5" font-family="Helvetica,sans-Serif" font-size="10.00">+</text>
<text text-anchor="start" x="197" y="-188.5" font-family="Helvetica,sans-Serif" font-size="10.00">operator[]()</text>
<text text-anchor="start" x="176.5" y="-173.5" font-family="Helvetica,sans-Serif" font-size="10.00">+</text>
<text text-anchor="start" x="197" y="-173.5" font-family="Helvetica,sans-Serif" font-size="10.00">begin()</text>
<text text-anchor="start" x="176.5" y="-158.5" font-family="Helvetica,sans-Serif" font-size="10.00">+</text>
<text text-anchor="start" x="197" y="-158.5" font-family="Helvetica,sans-Serif" font-size="10.00">end()</text>
<polygon fill="#666666" stroke="#666666" points="165,-228.5 165,-228.5 273,-228.5 273,-228.5 165,-228.5"/>
<polygon fill="#666666" stroke="#666666" points="165,-213.5 165,-213.5 195,-213.5 195,-213.5 165,-213.5"/>
<polygon fill="#666666" stroke="#666666" points="195,-213.5 195,-213.5 273,-213.5 273,-213.5 195,-213.5"/>
<polygon fill="none" stroke="#666666" points="165,-152 165,-257 273,-257 273,-152 165,-152"/>
</a>
</g>
</g>
<!-- Node2 -->
<g id="Node000002" class="node">
<title>Node2</title>
<g id="a_Node000002"><a xlink:href="classGfx_1_1EnumArray.html" target="_top" xlink:title=" ">
<polygon fill="white" stroke="transparent" points="134,-105 0,-105 0,0 134,0 134,-105"/>
<text text-anchor="start" x="5" y="-92.5" font-family="Helvetica,sans-Serif" font-size="10.00">Gfx::EnumArray&lt; GLuint,</text>
<text text-anchor="start" x="34.5" y="-81.5" font-family="Helvetica,sans-Serif" font-size="10.00"> ProgramId &gt;</text>
<text text-anchor="start" x="20.5" y="-66.5" font-family="Helvetica,sans-Serif" font-size="10.00">&#45;</text>
<text text-anchor="start" x="45" y="-66.5" font-family="Helvetica,sans-Serif" font-size="10.00">ids</text>
<text text-anchor="start" x="18" y="-51.5" font-family="Helvetica,sans-Serif" font-size="10.00">+</text>
<text text-anchor="start" x="45" y="-51.5" font-family="Helvetica,sans-Serif" font-size="10.00">operator[]()</text>
<text text-anchor="start" x="18" y="-36.5" font-family="Helvetica,sans-Serif" font-size="10.00">+</text>
<text text-anchor="start" x="45" y="-36.5" font-family="Helvetica,sans-Serif" font-size="10.00">operator[]()</text>
<text text-anchor="start" x="18" y="-21.5" font-family="Helvetica,sans-Serif" font-size="10.00">+</text>
<text text-anchor="start" x="45" y="-21.5" font-family="Helvetica,sans-Serif" font-size="10.00">begin()</text>
<text text-anchor="start" x="18" y="-6.5" font-family="Helvetica,sans-Serif" font-size="10.00">+</text>
<text text-anchor="start" x="45" y="-6.5" font-family="Helvetica,sans-Serif" font-size="10.00">end()</text>
<polygon fill="#666666" stroke="#666666" points="0,-76.5 0,-76.5 134,-76.5 134,-76.5 0,-76.5"/>
<polygon fill="#666666" stroke="#666666" points="0,-61.5 0,-61.5 43,-61.5 43,-61.5 0,-61.5"/>
<polygon fill="#666666" stroke="#666666" points="43,-61.5 43,-61.5 134,-61.5 134,-61.5 43,-61.5"/>
<polygon fill="none" stroke="#666666" points="0,0 0,-105 134,-105 134,0 0,0"/>
</a>
</g>
</g>
<!-- Node1&#45;&gt;Node2 -->
<g id="edge1_Node000001_Node000002" class="edge">
<title>Node1&#45;&gt;Node2</title>
<g id="a_edge1_Node000001_Node000002"><a xlink:title=" ">
<path fill="none" stroke="orange" d="M155.85,-176.06C136.31,-165.19 116.01,-151.14 101,-134 93.71,-125.67 87.81,-115.54 83.1,-105.32"/>
<polygon fill="orange" stroke="orange" points="154.28,-179.19 164.75,-180.82 157.58,-173.02 154.28,-179.19"/>
</a>
</g>
<text text-anchor="middle" x="158" y="-126" font-family="Helvetica,sans-Serif" font-size="10.00" fill="grey"> &lt; GLuint, ProgramId &gt;</text>
</g>
<!-- Node3 -->
<g id="Node000003" class="node">
<title>Node3</title>
<g id="a_Node000003"><a xlink:href="classGfx_1_1EnumArray.html" target="_top" xlink:title=" ">
<polygon fill="white" stroke="transparent" points="286,-105 152,-105 152,0 286,0 286,-105"/>
<text text-anchor="start" x="157" y="-92.5" font-family="Helvetica,sans-Serif" font-size="10.00">Gfx::EnumArray&lt; GLuint,</text>
<text text-anchor="start" x="180.5" y="-81.5" font-family="Helvetica,sans-Serif" font-size="10.00"> VertShaderId &gt;</text>
<text text-anchor="start" x="172.5" y="-66.5" font-family="Helvetica,sans-Serif" font-size="10.00">&#45;</text>
<text text-anchor="start" x="197" y="-66.5" font-family="Helvetica,sans-Serif" font-size="10.00">ids</text>
<text text-anchor="start" x="170" y="-51.5" font-family="Helvetica,sans-Serif" font-size="10.00">+</text>
<text text-anchor="start" x="197" y="-51.5" font-family="Helvetica,sans-Serif" font-size="10.00">operator[]()</text>
<text text-anchor="start" x="170" y="-36.5" font-family="Helvetica,sans-Serif" font-size="10.00">+</text>
<text text-anchor="start" x="197" y="-36.5" font-family="Helvetica,sans-Serif" font-size="10.00">operator[]()</text>
<text text-anchor="start" x="170" y="-21.5" font-family="Helvetica,sans-Serif" font-size="10.00">+</text>
<text text-anchor="start" x="197" y="-21.5" font-family="Helvetica,sans-Serif" font-size="10.00">begin()</text>
<text text-anchor="start" x="170" y="-6.5" font-family="Helvetica,sans-Serif" font-size="10.00">+</text>
<text text-anchor="start" x="197" y="-6.5" font-family="Helvetica,sans-Serif" font-size="10.00">end()</text>
<polygon fill="#666666" stroke="#666666" points="152,-76.5 152,-76.5 286,-76.5 286,-76.5 152,-76.5"/>
<polygon fill="#666666" stroke="#666666" points="152,-61.5 152,-61.5 195,-61.5 195,-61.5 152,-61.5"/>
<polygon fill="#666666" stroke="#666666" points="195,-61.5 195,-61.5 286,-61.5 286,-61.5 195,-61.5"/>
<polygon fill="none" stroke="#666666" points="152,0 152,-105 286,-105 286,0 152,0"/>
</a>
</g>
</g>
<!-- Node1&#45;&gt;Node3 -->
<g id="edge2_Node000001_Node000003" class="edge">
<title>Node1&#45;&gt;Node3</title>
<g id="a_edge2_Node000001_Node000003"><a xlink:title=" ">
<path fill="none" stroke="orange" d="M219,-141.81C219,-129.65 219,-117.01 219,-105.22"/>
<polygon fill="orange" stroke="orange" points="215.5,-141.88 219,-151.88 222.5,-141.88 215.5,-141.88"/>
</a>
</g>
<text text-anchor="middle" x="282" y="-126" font-family="Helvetica,sans-Serif" font-size="10.00" fill="grey"> &lt; GLuint, VertShaderId &gt;</text>
</g>
<!-- Node4 -->
<g id="Node000004" class="node">
<title>Node4</title>
<g id="a_Node000004"><a xlink:href="classGfx_1_1EnumArray.html" target="_top" xlink:title=" ">
<polygon fill="white" stroke="transparent" points="438,-105 304,-105 304,0 438,0 438,-105"/>
<text text-anchor="start" x="309" y="-92.5" font-family="Helvetica,sans-Serif" font-size="10.00">Gfx::EnumArray&lt; GLuint,</text>
<text text-anchor="start" x="331.5" y="-81.5" font-family="Helvetica,sans-Serif" font-size="10.00"> FragShaderId &gt;</text>
<text text-anchor="start" x="324.5" y="-66.5" font-family="Helvetica,sans-Serif" font-size="10.00">&#45;</text>
<text text-anchor="start" x="349" y="-66.5" font-family="Helvetica,sans-Serif" font-size="10.00">ids</text>
<text text-anchor="start" x="322" y="-51.5" font-family="Helvetica,sans-Serif" font-size="10.00">+</text>
<text text-anchor="start" x="349" y="-51.5" font-family="Helvetica,sans-Serif" font-size="10.00">operator[]()</text>
<text text-anchor="start" x="322" y="-36.5" font-family="Helvetica,sans-Serif" font-size="10.00">+</text>
<text text-anchor="start" x="349" y="-36.5" font-family="Helvetica,sans-Serif" font-size="10.00">operator[]()</text>
<text text-anchor="start" x="322" y="-21.5" font-family="Helvetica,sans-Serif" font-size="10.00">+</text>
<text text-anchor="start" x="349" y="-21.5" font-family="Helvetica,sans-Serif" font-size="10.00">begin()</text>
<text text-anchor="start" x="322" y="-6.5" font-family="Helvetica,sans-Serif" font-size="10.00">+</text>
<text text-anchor="start" x="349" y="-6.5" font-family="Helvetica,sans-Serif" font-size="10.00">end()</text>
<polygon fill="#666666" stroke="#666666" points="304,-76.5 304,-76.5 438,-76.5 438,-76.5 304,-76.5"/>
<polygon fill="#666666" stroke="#666666" points="304,-61.5 304,-61.5 347,-61.5 347,-61.5 304,-61.5"/>
<polygon fill="#666666" stroke="#666666" points="347,-61.5 347,-61.5 438,-61.5 438,-61.5 347,-61.5"/>
<polygon fill="none" stroke="#666666" points="304,0 304,-105 438,-105 438,0 304,0"/>
</a>
</g>
</g>
<!-- Node1&#45;&gt;Node4 -->
<g id="edge3_Node000001_Node000004" class="edge">
<title>Node1&#45;&gt;Node4</title>
<g id="a_edge3_Node000001_Node000004"><a xlink:title=" ">
<path fill="none" stroke="orange" d="M282.62,-181.98C306.5,-171.01 331.95,-155.37 349,-134 355.69,-125.62 360.34,-115.36 363.59,-105"/>
<polygon fill="orange" stroke="orange" points="280.97,-178.88 273.22,-186.1 283.78,-185.29 280.97,-178.88"/>
</a>
</g>
<text text-anchor="middle" x="418.5" y="-126" font-family="Helvetica,sans-Serif" font-size="10.00" fill="grey"> &lt; GLuint, FragShaderId &gt;</text>
</g>
</g>
</svg>
</svg>

<style type='text/css'>
<![CDATA[
[data-mouse-over-selected='false'] { opacity: 0.7; }
[data-mouse-over-selected='true']  { opacity: 1.0; }
]]>
</style>
<script type="application/ecmascript"><![CDATA[
document.addEventListener('DOMContentLoaded', (event) => {
  highlightEdges();
  highlightAdjacentNodes();
});
]]></script>
</svg>
