<?xml version="1.0" encoding="UTF-8" standalone="no"?>
<!DOCTYPE svg PUBLIC "-//W3C//DTD SVG 1.1//EN"
 "http://www.w3.org/Graphics/SVG/1.1/DTD/svg11.dtd">
<!-- Generated by graphviz version 2.43.0 (0)
 -->
<!-- Title: TranslationManager Pages: 1 -->
<svg width="256pt" height="209pt"
 viewBox="0.00 0.00 256.00 209.00" xmlns="http://www.w3.org/2000/svg" xmlns:xlink="http://www.w3.org/1999/xlink">
<g id="graph0" class="graph" transform="scale(1 1) rotate(0) translate(4 205)">
<title>TranslationManager</title>
<!-- Node1 -->
<g id="Node000001" class="node">
<title>Node1</title>
<g id="a_Node000001"><a xlink:title=" ">
<polygon fill="#999999" stroke="transparent" points="166,-94 41,-94 41,0 166,0 166,-94"/>
<text text-anchor="start" x="55.5" y="-82" font-family="Helvetica,sans-Serif" font-size="10.00">TranslationManager</text>
<text text-anchor="start" x="102" y="-67" font-family="Helvetica,sans-Serif" font-size="10.00"> </text>
<text text-anchor="start" x="45.5" y="-52" font-family="Helvetica,sans-Serif" font-size="10.00">+</text>
<text text-anchor="start" x="58.5" y="-52" font-family="Helvetica,sans-Serif" font-size="10.00">loadLanguage()</text>
<text text-anchor="start" x="45.5" y="-37" font-family="Helvetica,sans-Serif" font-size="10.00">+</text>
<text text-anchor="start" x="58.5" y="-37" font-family="Helvetica,sans-Serif" font-size="10.00">getString()</text>
<text text-anchor="start" x="45.5" y="-22" font-family="Helvetica,sans-Serif" font-size="10.00">+</text>
<text text-anchor="start" x="58.5" y="-22" font-family="Helvetica,sans-Serif" font-size="10.00">Instance()</text>
<text text-anchor="start" x="45.5" y="-7" font-family="Helvetica,sans-Serif" font-size="10.00">#</text>
<text text-anchor="start" x="58.5" y="-7" font-family="Helvetica,sans-Serif" font-size="10.00">TranslationManager()</text>
<polygon fill="#666666" stroke="#666666" points="41.5,-77 41.5,-77 166.5,-77 166.5,-77 41.5,-77"/>
<polygon fill="#666666" stroke="#666666" points="41.5,-62 41.5,-62 166.5,-62 166.5,-62 41.5,-62"/>
<polygon fill="none" stroke="#666666" points="41,0 41,-94 166,-94 166,0 41,0"/>
</a>
</g>
</g>
<!-- Node1&#45;&gt;Node1 -->
<g id="edge1_Node000001_Node000001" class="edge">
<title>Node1&#45;&gt;Node1</title>
<g id="a_edge1_Node000001_Node000001"><a xlink:title=" ">
<path fill="none" stroke="#63b8ff" d="M166.28,-59.2C176.76,-57.49 184,-53.43 184,-47 184,-43.39 181.71,-40.52 177.84,-38.4"/>
<polygon fill="none" stroke="#63b8ff" points="177.74,-38.36 170.82,-40.4 166.28,-34.8 173.2,-32.76 177.74,-38.36"/>
</a>
</g>
<text text-anchor="middle" x="216" y="-44.5" font-family="Helvetica,sans-Serif" font-size="10.00" fill="grey"> &#45;m_instance</text>
</g>
<!-- Node2 -->
<g id="Node000002" class="node">
<title>Node2</title>
<g id="a_Node000002"><a xlink:title=" ">
<polygon fill="white" stroke="transparent" points="113,-201 0,-201 0,-141 113,-141 113,-201"/>
<text text-anchor="start" x="5.5" y="-189" font-family="Helvetica,sans-Serif" font-size="10.00">map&lt; std::string, std</text>
<text text-anchor="start" x="34" y="-178" font-family="Helvetica,sans-Serif" font-size="10.00">::string &gt;</text>
<text text-anchor="start" x="55" y="-163" font-family="Helvetica,sans-Serif" font-size="10.00"> </text>
<text text-anchor="start" x="55" y="-148" font-family="Helvetica,sans-Serif" font-size="10.00"> </text>
<polygon fill="#666666" stroke="#666666" points="0.5,-173 0.5,-173 113.5,-173 113.5,-173 0.5,-173"/>
<polygon fill="#666666" stroke="#666666" points="0.5,-158 0.5,-158 113.5,-158 113.5,-158 0.5,-158"/>
<polygon fill="none" stroke="#666666" points="0,-141 0,-201 113,-201 113,-141 0,-141"/>
</a>
</g>
</g>
<!-- Node2&#45;&gt;Node1 -->
<g id="edge2_Node000001_Node000002" class="edge">
<title>Node2&#45;&gt;Node1</title>
<g id="a_edge2_Node000001_Node000002"><a xlink:title=" ">
<path fill="none" stroke="#63b8ff" d="M64.11,-140.8C66.79,-131.5 70.01,-121.23 73.5,-112 74.33,-109.8 75.2,-107.58 76.11,-105.34"/>
<polygon fill="none" stroke="#63b8ff" points="76.18,-105.18 74.84,-98.1 80.86,-94.13 82.2,-101.22 76.18,-105.18"/>
</a>
</g>
<text text-anchor="middle" x="101" y="-115" font-family="Helvetica,sans-Serif" font-size="10.00" fill="grey"> &#45;m_strings</text>
</g>
<!-- Node3 -->
<g id="Node000003" class="node">
<title>Node3</title>
<g id="a_Node000003"><a xlink:title=" ">
<polygon fill="white" stroke="transparent" points="169.5,-195.5 131.5,-195.5 131.5,-146.5 169.5,-146.5 169.5,-195.5"/>
<text text-anchor="start" x="136.5" y="-183" font-family="Helvetica,sans-Serif" font-size="10.00">string</text>
<text text-anchor="start" x="148.5" y="-168" font-family="Helvetica,sans-Serif" font-size="10.00"> </text>
<text text-anchor="start" x="148.5" y="-153" font-family="Helvetica,sans-Serif" font-size="10.00"> </text>
<polygon fill="#666666" stroke="#666666" points="131.5,-178 131.5,-178 169.5,-178 169.5,-178 131.5,-178"/>
<polygon fill="#666666" stroke="#666666" points="131.5,-163 131.5,-163 169.5,-163 169.5,-163 131.5,-163"/>
<polygon fill="none" stroke="#666666" points="131.5,-146.5 131.5,-195.5 169.5,-195.5 169.5,-146.5 131.5,-146.5"/>
</a>
</g>
</g>
<!-- Node3&#45;&gt;Node1 -->
<g id="edge3_Node000001_Node000003" class="edge">
<title>Node3&#45;&gt;Node1</title>
<g id="a_edge3_Node000001_Node000003"><a xlink:title=" ">
<path fill="none" stroke="#63b8ff" d="M141.56,-146.28C137.59,-135.77 132.83,-123.26 128.5,-112 127.66,-109.83 126.81,-107.62 125.95,-105.38"/>
<polygon fill="none" stroke="#63b8ff" points="125.92,-105.31 120.02,-101.16 121.58,-94.12 127.48,-98.27 125.92,-105.31"/>
</a>
</g>
<text text-anchor="middle" x="175" y="-115" font-family="Helvetica,sans-Serif" font-size="10.00" fill="grey"> &#45;m_empty_string</text>
</g>
</g>
</svg>
