<?xml version="1.0" encoding="UTF-8" standalone="no"?>
<!DOCTYPE svg PUBLIC "-//W3C//DTD SVG 1.1//EN"
 "http://www.w3.org/Graphics/SVG/1.1/DTD/svg11.dtd">
<!-- Generated by graphviz version 2.43.0 (0)
 -->
<!-- Title: CopyEvent Pages: 1 -->
<svg width="493pt" height="474pt"
 viewBox="0.00 0.00 493.00 474.00" xmlns="http://www.w3.org/2000/svg" xmlns:xlink="http://www.w3.org/1999/xlink">
<g id="graph0" class="graph" transform="scale(1 1) rotate(0) translate(4 470)">
<title>CopyEvent</title>
<!-- Node1 -->
<g id="Node000001" class="node">
<title>Node1</title>
<g id="a_Node000001"><a xlink:title=" ">
<polygon fill="#999999" stroke="transparent" points="236.5,-94 139.5,-94 139.5,0 236.5,0 236.5,-94"/>
<text text-anchor="start" x="162" y="-82" font-family="Helvetica,sans-Serif" font-size="10.00">CopyEvent</text>
<text text-anchor="start" x="186.5" y="-67" font-family="Helvetica,sans-Serif" font-size="10.00"> </text>
<text text-anchor="start" x="144" y="-52" font-family="Helvetica,sans-Serif" font-size="10.00">+</text>
<text text-anchor="start" x="157" y="-52" font-family="Helvetica,sans-Serif" font-size="10.00">CopyEvent()</text>
<text text-anchor="start" x="144" y="-37" font-family="Helvetica,sans-Serif" font-size="10.00">+</text>
<text text-anchor="start" x="157" y="-37" font-family="Helvetica,sans-Serif" font-size="10.00">~CopyEvent()</text>
<text text-anchor="start" x="144" y="-22" font-family="Helvetica,sans-Serif" font-size="10.00">#</text>
<text text-anchor="start" x="157" y="-22" font-family="Helvetica,sans-Serif" font-size="10.00">DoHandle()</text>
<text text-anchor="start" x="146.5" y="-7" font-family="Helvetica,sans-Serif" font-size="10.00">&#45;</text>
<text text-anchor="start" x="157" y="-7" font-family="Helvetica,sans-Serif" font-size="10.00">SimulateCopy()</text>
<polygon fill="#666666" stroke="#666666" points="140,-77 140,-77 237,-77 237,-77 140,-77"/>
<polygon fill="#666666" stroke="#666666" points="140,-62 140,-62 237,-62 237,-62 140,-62"/>
<polygon fill="none" stroke="#666666" points="139.5,0 139.5,-94 236.5,-94 236.5,0 139.5,0"/>
</a>
</g>
</g>
<!-- Node2 -->
<g id="Node000002" class="node">
<title>Node2</title>
<g id="a_Node000002"><a xlink:href="classWindowFocusEvent.html" target="_top" xlink:title=" ">
<polygon fill="white" stroke="transparent" points="152,-317.5 20,-317.5 20,-178.5 152,-178.5 152,-317.5"/>
<text text-anchor="start" x="38.5" y="-305" font-family="Helvetica,sans-Serif" font-size="10.00">WindowFocusEvent</text>
<text text-anchor="start" x="84" y="-290" font-family="Helvetica,sans-Serif" font-size="10.00"> </text>
<text text-anchor="start" x="24" y="-275" font-family="Helvetica,sans-Serif" font-size="10.00">+</text>
<text text-anchor="start" x="37" y="-275" font-family="Helvetica,sans-Serif" font-size="10.00">WindowFocusEvent()</text>
<text text-anchor="start" x="24" y="-260" font-family="Helvetica,sans-Serif" font-size="10.00">+</text>
<text text-anchor="start" x="37" y="-260" font-family="Helvetica,sans-Serif" font-size="10.00">~WindowFocusEvent()</text>
<text text-anchor="start" x="24" y="-245" font-family="Helvetica,sans-Serif" font-size="10.00">+</text>
<text text-anchor="start" x="37" y="-245" font-family="Helvetica,sans-Serif" font-size="10.00">handle()</text>
<text text-anchor="start" x="24" y="-230" font-family="Helvetica,sans-Serif" font-size="10.00">#</text>
<text text-anchor="start" x="37" y="-230" font-family="Helvetica,sans-Serif" font-size="10.00">Attach()</text>
<text text-anchor="start" x="24" y="-215" font-family="Helvetica,sans-Serif" font-size="10.00">#</text>
<text text-anchor="start" x="37" y="-215" font-family="Helvetica,sans-Serif" font-size="10.00">ShowWindow()</text>
<text text-anchor="start" x="24" y="-200" font-family="Helvetica,sans-Serif" font-size="10.00">#</text>
<text text-anchor="start" x="37" y="-200" font-family="Helvetica,sans-Serif" font-size="10.00">DoHandle()</text>
<text text-anchor="start" x="24" y="-185" font-family="Helvetica,sans-Serif" font-size="10.00">#</text>
<text text-anchor="start" x="37" y="-185" font-family="Helvetica,sans-Serif" font-size="10.00">DeAttach()</text>
<polygon fill="#666666" stroke="#666666" points="20,-300 20,-300 152,-300 152,-300 20,-300"/>
<polygon fill="#666666" stroke="#666666" points="20,-285 20,-285 152,-285 152,-285 20,-285"/>
<polygon fill="none" stroke="#666666" points="20,-178.5 20,-317.5 152,-317.5 152,-178.5 20,-178.5"/>
</a>
</g>
</g>
<!-- Node2&#45;&gt;Node1 -->
<g id="edge1_Node000001_Node000002" class="edge">
<title>Node2&#45;&gt;Node1</title>
<g id="a_edge1_Node000001_Node000002"><a xlink:title=" ">
<path fill="none" stroke="#63b8ff" d="M125.97,-169.02C138.94,-143.72 152.9,-116.47 164.29,-94.25"/>
<polygon fill="none" stroke="#63b8ff" points="122.69,-167.74 121.25,-178.24 128.92,-170.93 122.69,-167.74"/>
</a>
</g>
</g>
<!-- Node3 -->
<g id="Node000003" class="node">
<title>Node3</title>
<g id="a_Node000003"><a xlink:href="classClipboardEvent.html" target="_top" xlink:title=" ">
<polygon fill="white" stroke="transparent" points="112,-466 0,-466 0,-402 112,-402 112,-466"/>
<text text-anchor="start" x="18.5" y="-454" font-family="Helvetica,sans-Serif" font-size="10.00">ClipboardEvent</text>
<text text-anchor="start" x="54" y="-439" font-family="Helvetica,sans-Serif" font-size="10.00"> </text>
<text text-anchor="start" x="4" y="-424" font-family="Helvetica,sans-Serif" font-size="10.00">+</text>
<text text-anchor="start" x="17" y="-424" font-family="Helvetica,sans-Serif" font-size="10.00">~ClipboardEvent()</text>
<text text-anchor="start" x="4" y="-409" font-family="Helvetica,sans-Serif" font-size="10.00">+</text>
<text text-anchor="start" x="17" y="-409" font-family="Helvetica,sans-Serif" font-size="10.00">handle()</text>
<polygon fill="#666666" stroke="#666666" points="0,-449 0,-449 112,-449 112,-449 0,-449"/>
<polygon fill="#666666" stroke="#666666" points="0,-434 0,-434 112,-434 112,-434 0,-434"/>
<polygon fill="none" stroke="#666666" points="0,-402 0,-466 112,-466 112,-402 0,-402"/>
</a>
</g>
</g>
<!-- Node3&#45;&gt;Node2 -->
<g id="edge2_Node000002_Node000003" class="edge">
<title>Node3&#45;&gt;Node2</title>
<g id="a_edge2_Node000002_Node000003"><a xlink:title=" ">
<path fill="none" stroke="#63b8ff" d="M62.7,-391.89C66.26,-370.1 70.71,-342.76 74.78,-317.84"/>
<polygon fill="none" stroke="#63b8ff" points="59.24,-391.35 61.09,-401.79 66.15,-392.48 59.24,-391.35"/>
</a>
</g>
</g>
<!-- Node4 -->
<g id="Node000004" class="node">
<title>Node4</title>
<g id="a_Node000004"><a xlink:title=" ">
<polygon fill="white" stroke="transparent" points="191.5,-458.5 148.5,-458.5 148.5,-409.5 191.5,-409.5 191.5,-458.5"/>
<text text-anchor="start" x="154" y="-446" font-family="Helvetica,sans-Serif" font-size="10.00">HWND</text>
<text text-anchor="start" x="168.5" y="-431" font-family="Helvetica,sans-Serif" font-size="10.00"> </text>
<text text-anchor="start" x="168.5" y="-416" font-family="Helvetica,sans-Serif" font-size="10.00"> </text>
<polygon fill="#666666" stroke="#666666" points="149,-441 149,-441 192,-441 192,-441 149,-441"/>
<polygon fill="#666666" stroke="#666666" points="149,-426 149,-426 192,-426 192,-426 149,-426"/>
<polygon fill="none" stroke="#666666" points="148.5,-409.5 148.5,-458.5 191.5,-458.5 191.5,-409.5 148.5,-409.5"/>
</a>
</g>
</g>
<!-- Node4&#45;&gt;Node1 -->
<g id="edge7_Node000001_Node000004" class="edge">
<title>Node4&#45;&gt;Node1</title>
<g id="a_edge7_Node000001_Node000004"><a xlink:title=" ">
<path fill="none" stroke="#63b8ff" d="M172.14,-409.09C172.81,-401.11 173.5,-392.18 174,-384 179.99,-286.83 184.12,-173.68 186.27,-106.61"/>
<polygon fill="none" stroke="#63b8ff" points="186.28,-106.22 182.47,-100.1 186.66,-94.23 190.46,-100.35 186.28,-106.22"/>
</a>
</g>
<text text-anchor="middle" x="225.5" y="-245.5" font-family="Helvetica,sans-Serif" font-size="10.00" fill="grey"> &#45;m_lastWindow</text>
</g>
<!-- Node4&#45;&gt;Node2 -->
<g id="edge3_Node000002_Node000004" class="edge">
<title>Node4&#45;&gt;Node2</title>
<g id="a_edge3_Node000002_Node000004"><a xlink:title=" ">
<path fill="none" stroke="#63b8ff" d="M148.16,-418.93C139.72,-413.56 129.95,-407.43 121,-402 107.38,-393.74 98.15,-397.69 90,-384 80.36,-367.81 76.38,-348.48 75.45,-329.58"/>
<polygon fill="none" stroke="#63b8ff" points="75.45,-329.58 71.35,-323.65 75.25,-317.58 79.35,-323.51 75.45,-329.58"/>
</a>
</g>
<text text-anchor="middle" x="132" y="-376" font-family="Helvetica,sans-Serif" font-size="10.00" fill="grey"> #m_lastWindow</text>
</g>
<!-- Node5 -->
<g id="Node000005" class="node">
<title>Node5</title>
<g id="a_Node000005"><a xlink:href="classMemoryCellManager.html" target="_top" xlink:title=" ">
<polygon fill="white" stroke="transparent" points="433,-355 285,-355 285,-141 433,-141 433,-355"/>
<text text-anchor="start" x="307.5" y="-343" font-family="Helvetica,sans-Serif" font-size="10.00">MemoryCellManager</text>
<text text-anchor="start" x="357" y="-328" font-family="Helvetica,sans-Serif" font-size="10.00"> </text>
<text text-anchor="start" x="289" y="-313" font-family="Helvetica,sans-Serif" font-size="10.00">+</text>
<text text-anchor="start" x="302" y="-313" font-family="Helvetica,sans-Serif" font-size="10.00">getMemoryCellCount()</text>
<text text-anchor="start" x="289" y="-298" font-family="Helvetica,sans-Serif" font-size="10.00">+</text>
<text text-anchor="start" x="302" y="-298" font-family="Helvetica,sans-Serif" font-size="10.00">getMemoryCell()</text>
<text text-anchor="start" x="289" y="-283" font-family="Helvetica,sans-Serif" font-size="10.00">+</text>
<text text-anchor="start" x="302" y="-283" font-family="Helvetica,sans-Serif" font-size="10.00">addMemoryCell()</text>
<text text-anchor="start" x="289" y="-268" font-family="Helvetica,sans-Serif" font-size="10.00">+</text>
<text text-anchor="start" x="302" y="-268" font-family="Helvetica,sans-Serif" font-size="10.00">initialize()</text>
<text text-anchor="start" x="289" y="-253" font-family="Helvetica,sans-Serif" font-size="10.00">+</text>
<text text-anchor="start" x="302" y="-253" font-family="Helvetica,sans-Serif" font-size="10.00">cleanup()</text>
<text text-anchor="start" x="289" y="-238" font-family="Helvetica,sans-Serif" font-size="10.00">+</text>
<text text-anchor="start" x="302" y="-238" font-family="Helvetica,sans-Serif" font-size="10.00">setSelectedCell()</text>
<text text-anchor="start" x="289" y="-223" font-family="Helvetica,sans-Serif" font-size="10.00">+</text>
<text text-anchor="start" x="302" y="-223" font-family="Helvetica,sans-Serif" font-size="10.00">getSelectedCell()</text>
<text text-anchor="start" x="289" y="-208" font-family="Helvetica,sans-Serif" font-size="10.00">+</text>
<text text-anchor="start" x="302" y="-208" font-family="Helvetica,sans-Serif" font-size="10.00">loadCells()</text>
<text text-anchor="start" x="289" y="-193" font-family="Helvetica,sans-Serif" font-size="10.00">+</text>
<text text-anchor="start" x="302" y="-193" font-family="Helvetica,sans-Serif" font-size="10.00">getContents()</text>
<text text-anchor="start" x="289" y="-178" font-family="Helvetica,sans-Serif" font-size="10.00">+</text>
<text text-anchor="start" x="302" y="-178" font-family="Helvetica,sans-Serif" font-size="10.00">moveContentsOneDown()</text>
<text text-anchor="start" x="289" y="-163" font-family="Helvetica,sans-Serif" font-size="10.00">+</text>
<text text-anchor="start" x="302" y="-163" font-family="Helvetica,sans-Serif" font-size="10.00">Instance()</text>
<text text-anchor="start" x="289" y="-148" font-family="Helvetica,sans-Serif" font-size="10.00">#</text>
<text text-anchor="start" x="302" y="-148" font-family="Helvetica,sans-Serif" font-size="10.00">MemoryCellManager()</text>
<polygon fill="#666666" stroke="#666666" points="285,-338 285,-338 433,-338 433,-338 285,-338"/>
<polygon fill="#666666" stroke="#666666" points="285,-323 285,-323 433,-323 433,-323 285,-323"/>
<polygon fill="none" stroke="#666666" points="285,-141 285,-355 433,-355 433,-141 285,-141"/>
</a>
</g>
</g>
<!-- Node5&#45;&gt;Node1 -->
<g id="edge4_Node000001_Node000005" class="edge">
<title>Node5&#45;&gt;Node1</title>
<g id="a_edge4_Node000001_Node000005"><a xlink:title=" ">
<path fill="none" stroke="#63b8ff" d="M284.81,-157.17C280.15,-151.68 275.53,-146.26 271,-141 260.42,-128.71 248.93,-115.66 237.96,-103.33"/>
<polygon fill="none" stroke="#63b8ff" points="237.69,-103.02 230.71,-101.21 229.7,-94.07 236.68,-95.88 237.69,-103.02"/>
</a>
</g>
<text text-anchor="middle" x="318.5" y="-115" font-family="Helvetica,sans-Serif" font-size="10.00" fill="grey"> &#45;m_memoryCellManager</text>
</g>
<!-- Node6 -->
<g id="Node000006" class="node">
<title>Node6</title>
<g id="a_Node000006"><a xlink:title=" ">
<polygon fill="white" stroke="transparent" points="398.5,-464 245.5,-464 245.5,-404 398.5,-404 398.5,-464"/>
<text text-anchor="start" x="251" y="-452" font-family="Helvetica,sans-Serif" font-size="10.00">vector&lt; std::unique</text>
<text text-anchor="start" x="251" y="-441" font-family="Helvetica,sans-Serif" font-size="10.00">_ptr&lt; ClipboardInterface &gt; &gt;</text>
<text text-anchor="start" x="320.5" y="-426" font-family="Helvetica,sans-Serif" font-size="10.00"> </text>
<text text-anchor="start" x="320.5" y="-411" font-family="Helvetica,sans-Serif" font-size="10.00"> </text>
<polygon fill="#666666" stroke="#666666" points="246,-436 246,-436 399,-436 399,-436 246,-436"/>
<polygon fill="#666666" stroke="#666666" points="246,-421 246,-421 399,-421 399,-421 246,-421"/>
<polygon fill="none" stroke="#666666" points="245.5,-404 245.5,-464 398.5,-464 398.5,-404 245.5,-404"/>
</a>
</g>
</g>
<!-- Node6&#45;&gt;Node5 -->
<g id="edge5_Node000005_Node000006" class="edge">
<title>Node6&#45;&gt;Node5</title>
<g id="a_edge5_Node000005_Node000006"><a xlink:title=" ">
<path fill="none" stroke="#63b8ff" d="M322.81,-403.88C323.38,-394.03 324.35,-382.99 326,-373 326.31,-371.09 326.65,-369.16 326.99,-367.23"/>
<polygon fill="none" stroke="#63b8ff" points="327.03,-367.03 324.24,-360.38 329.3,-355.24 332.09,-361.89 327.03,-367.03"/>
</a>
</g>
<text text-anchor="middle" x="370" y="-376" font-family="Helvetica,sans-Serif" font-size="10.00" fill="grey"> &#45;m_memoryCells</text>
</g>
<!-- Node7 -->
<g id="Node000007" class="node">
<title>Node7</title>
<g id="a_Node000007"><a xlink:title=" ">
<polygon fill="white" stroke="transparent" points="455.5,-458.5 416.5,-458.5 416.5,-409.5 455.5,-409.5 455.5,-458.5"/>
<text text-anchor="start" x="422" y="-446" font-family="Helvetica,sans-Serif" font-size="10.00">size_t</text>
<text text-anchor="start" x="434.5" y="-431" font-family="Helvetica,sans-Serif" font-size="10.00"> </text>
<text text-anchor="start" x="434.5" y="-416" font-family="Helvetica,sans-Serif" font-size="10.00"> </text>
<polygon fill="#666666" stroke="#666666" points="417,-441 417,-441 456,-441 456,-441 417,-441"/>
<polygon fill="#666666" stroke="#666666" points="417,-426 417,-426 456,-426 456,-426 417,-426"/>
<polygon fill="none" stroke="#666666" points="416.5,-409.5 416.5,-458.5 455.5,-458.5 455.5,-409.5 416.5,-409.5"/>
</a>
</g>
</g>
<!-- Node7&#45;&gt;Node5 -->
<g id="edge6_Node000005_Node000007" class="edge">
<title>Node7&#45;&gt;Node5</title>
<g id="a_edge6_Node000005_Node000007"><a xlink:title=" ">
<path fill="none" stroke="#63b8ff" d="M427.79,-409.5C423.8,-398.37 418.83,-384.93 414,-373 413.11,-370.79 412.2,-368.56 411.27,-366.32"/>
<polygon fill="none" stroke="#63b8ff" points="411.18,-366.08 405.18,-362.08 406.57,-355 412.57,-359.01 411.18,-366.08"/>
</a>
</g>
<text text-anchor="middle" x="451.5" y="-376" font-family="Helvetica,sans-Serif" font-size="10.00" fill="grey"> &#45;selectedCell</text>
</g>
</g>
</svg>
