<?xml version="1.0" encoding="UTF-8" standalone="no"?>
<!DOCTYPE svg PUBLIC "-//W3C//DTD SVG 1.1//EN"
 "http://www.w3.org/Graphics/SVG/1.1/DTD/svg11.dtd">
<!-- Generated by graphviz version 2.43.0 (0)
 -->
<!-- Title: KeyShortCutManager Pages: 1 -->
<svg width="461pt" height="434pt"
 viewBox="0.00 0.00 461.00 434.00" xmlns="http://www.w3.org/2000/svg" xmlns:xlink="http://www.w3.org/1999/xlink">
<g id="graph0" class="graph" transform="scale(1 1) rotate(0) translate(4 430)">
<title>KeyShortCutManager</title>
<!-- Node1 -->
<g id="Node000001" class="node">
<title>Node1</title>
<g id="a_Node000001"><a xlink:title=" ">
<polygon fill="#999999" stroke="transparent" points="328,-214 186,-214 186,0 328,0 328,-214"/>
<text text-anchor="start" x="205.5" y="-202" font-family="Helvetica,sans-Serif" font-size="10.00">KeyShortCutManager</text>
<text text-anchor="start" x="255" y="-187" font-family="Helvetica,sans-Serif" font-size="10.00"> </text>
<text text-anchor="start" x="190" y="-172" font-family="Helvetica,sans-Serif" font-size="10.00">+</text>
<text text-anchor="start" x="203" y="-172" font-family="Helvetica,sans-Serif" font-size="10.00">GetPasteShortCut()</text>
<text text-anchor="start" x="190" y="-157" font-family="Helvetica,sans-Serif" font-size="10.00">+</text>
<text text-anchor="start" x="203" y="-157" font-family="Helvetica,sans-Serif" font-size="10.00">GetCopyShortCut()</text>
<text text-anchor="start" x="190" y="-142" font-family="Helvetica,sans-Serif" font-size="10.00">+</text>
<text text-anchor="start" x="203" y="-142" font-family="Helvetica,sans-Serif" font-size="10.00">FilterShortCuts()</text>
<text text-anchor="start" x="190" y="-127" font-family="Helvetica,sans-Serif" font-size="10.00">+</text>
<text text-anchor="start" x="203" y="-127" font-family="Helvetica,sans-Serif" font-size="10.00">ModifyKeyShortCuts()</text>
<text text-anchor="start" x="190" y="-112" font-family="Helvetica,sans-Serif" font-size="10.00">+</text>
<text text-anchor="start" x="203" y="-112" font-family="Helvetica,sans-Serif" font-size="10.00">Initialize()</text>
<text text-anchor="start" x="190" y="-97" font-family="Helvetica,sans-Serif" font-size="10.00">+</text>
<text text-anchor="start" x="203" y="-97" font-family="Helvetica,sans-Serif" font-size="10.00">Instance()</text>
<text text-anchor="start" x="190" y="-82" font-family="Helvetica,sans-Serif" font-size="10.00">#</text>
<text text-anchor="start" x="203" y="-82" font-family="Helvetica,sans-Serif" font-size="10.00">KeyShortCutManager()</text>
<text text-anchor="start" x="192.5" y="-67" font-family="Helvetica,sans-Serif" font-size="10.00">&#45;</text>
<text text-anchor="start" x="203" y="-67" font-family="Helvetica,sans-Serif" font-size="10.00">LoadKeyShortCuts()</text>
<text text-anchor="start" x="192.5" y="-52" font-family="Helvetica,sans-Serif" font-size="10.00">&#45;</text>
<text text-anchor="start" x="203" y="-52" font-family="Helvetica,sans-Serif" font-size="10.00">SelectFile()</text>
<text text-anchor="start" x="192.5" y="-37" font-family="Helvetica,sans-Serif" font-size="10.00">&#45;</text>
<text text-anchor="start" x="203" y="-37" font-family="Helvetica,sans-Serif" font-size="10.00">GetShortCutFromString()</text>
<text text-anchor="start" x="192.5" y="-22" font-family="Helvetica,sans-Serif" font-size="10.00">&#45;</text>
<text text-anchor="start" x="203" y="-22" font-family="Helvetica,sans-Serif" font-size="10.00">GetBaseList()</text>
<text text-anchor="start" x="192.5" y="-7" font-family="Helvetica,sans-Serif" font-size="10.00">&#45;</text>
<text text-anchor="start" x="203" y="-7" font-family="Helvetica,sans-Serif" font-size="10.00">WriteShortCuts()</text>
<polygon fill="#666666" stroke="#666666" points="186,-197 186,-197 328,-197 328,-197 186,-197"/>
<polygon fill="#666666" stroke="#666666" points="186,-182 186,-182 328,-182 328,-182 186,-182"/>
<polygon fill="none" stroke="#666666" points="186,0 186,-214 328,-214 328,0 186,0"/>
</a>
</g>
</g>
<!-- Node1&#45;&gt;Node1 -->
<g id="edge1_Node000001_Node000001" class="edge">
<title>Node1&#45;&gt;Node1</title>
<g id="a_edge1_Node000001_Node000001"><a xlink:title=" ">
<path fill="none" stroke="#63b8ff" d="M328.23,-130.13C338.83,-126.53 346,-118.82 346,-107 346,-99.8 343.34,-94.12 338.86,-89.97"/>
<polygon fill="none" stroke="#63b8ff" points="338.63,-89.84 331.44,-90.32 328.23,-83.87 335.42,-83.38 338.63,-89.84"/>
</a>
</g>
<text text-anchor="middle" x="378" y="-104.5" font-family="Helvetica,sans-Serif" font-size="10.00" fill="grey"> &#45;m_instance</text>
</g>
<!-- Node2 -->
<g id="Node000002" class="node">
<title>Node2</title>
<g id="a_Node000002"><a xlink:title=" ">
<polygon fill="white" stroke="transparent" points="132,-373.5 0,-373.5 0,-324.5 132,-324.5 132,-373.5"/>
<text text-anchor="start" x="5" y="-361" font-family="Helvetica,sans-Serif" font-size="10.00">vector&lt; KeyShortCut * &gt;</text>
<text text-anchor="start" x="64" y="-346" font-family="Helvetica,sans-Serif" font-size="10.00"> </text>
<text text-anchor="start" x="64" y="-331" font-family="Helvetica,sans-Serif" font-size="10.00"> </text>
<polygon fill="#666666" stroke="#666666" points="0,-356 0,-356 132,-356 132,-356 0,-356"/>
<polygon fill="#666666" stroke="#666666" points="0,-341 0,-341 132,-341 132,-341 0,-341"/>
<polygon fill="none" stroke="#666666" points="0,-324.5 0,-373.5 132,-373.5 132,-324.5 0,-324.5"/>
</a>
</g>
</g>
<!-- Node2&#45;&gt;Node1 -->
<g id="edge2_Node000001_Node000002" class="edge">
<title>Node2&#45;&gt;Node1</title>
<g id="a_edge2_Node000001_Node000002"><a xlink:title=" ">
<path fill="none" stroke="#63b8ff" d="M71.54,-324.1C78.08,-299.39 90.71,-260.51 111,-232 128.79,-206.99 152.73,-183.9 176.07,-164.59"/>
<polygon fill="none" stroke="#63b8ff" points="176.33,-164.38 178.48,-157.5 185.66,-156.83 183.51,-163.72 176.33,-164.38"/>
</a>
</g>
<text text-anchor="middle" x="155" y="-246" font-family="Helvetica,sans-Serif" font-size="10.00" fill="grey"> &#45;m_shortcuts</text>
<text text-anchor="middle" x="155" y="-235" font-family="Helvetica,sans-Serif" font-size="10.00" fill="grey">&#45;m_shortcutsBase</text>
</g>
<!-- Node3 -->
<g id="Node000003" class="node">
<title>Node3</title>
<g id="a_Node000003"><a xlink:href="classIFileManager.html" target="_top" xlink:title=" ">
<polygon fill="white" stroke="transparent" points="262,-426 150,-426 150,-272 262,-272 262,-426"/>
<text text-anchor="start" x="174" y="-414" font-family="Helvetica,sans-Serif" font-size="10.00">IFileManager</text>
<text text-anchor="start" x="204" y="-399" font-family="Helvetica,sans-Serif" font-size="10.00"> </text>
<text text-anchor="start" x="154" y="-384" font-family="Helvetica,sans-Serif" font-size="10.00">+</text>
<text text-anchor="start" x="167" y="-384" font-family="Helvetica,sans-Serif" font-size="10.00">~IFileManager()</text>
<text text-anchor="start" x="154" y="-369" font-family="Helvetica,sans-Serif" font-size="10.00">+</text>
<text text-anchor="start" x="167" y="-369" font-family="Helvetica,sans-Serif" font-size="10.00">getLastFile()</text>
<text text-anchor="start" x="154" y="-354" font-family="Helvetica,sans-Serif" font-size="10.00">+</text>
<text text-anchor="start" x="167" y="-354" font-family="Helvetica,sans-Serif" font-size="10.00">searchImportFile()</text>
<text text-anchor="start" x="154" y="-339" font-family="Helvetica,sans-Serif" font-size="10.00">+</text>
<text text-anchor="start" x="167" y="-339" font-family="Helvetica,sans-Serif" font-size="10.00">searchExportFile()</text>
<text text-anchor="start" x="154" y="-324" font-family="Helvetica,sans-Serif" font-size="10.00">+</text>
<text text-anchor="start" x="167" y="-324" font-family="Helvetica,sans-Serif" font-size="10.00">readFile()</text>
<text text-anchor="start" x="154" y="-309" font-family="Helvetica,sans-Serif" font-size="10.00">+</text>
<text text-anchor="start" x="167" y="-309" font-family="Helvetica,sans-Serif" font-size="10.00">exportFile()</text>
<text text-anchor="start" x="154" y="-294" font-family="Helvetica,sans-Serif" font-size="10.00">+</text>
<text text-anchor="start" x="167" y="-294" font-family="Helvetica,sans-Serif" font-size="10.00">showErrorDialog()</text>
<text text-anchor="start" x="154" y="-279" font-family="Helvetica,sans-Serif" font-size="10.00">+</text>
<text text-anchor="start" x="167" y="-279" font-family="Helvetica,sans-Serif" font-size="10.00">showGoodDialog()</text>
<polygon fill="#666666" stroke="#666666" points="150,-409 150,-409 262,-409 262,-409 150,-409"/>
<polygon fill="#666666" stroke="#666666" points="150,-394 150,-394 262,-394 262,-394 150,-394"/>
<polygon fill="none" stroke="#666666" points="150,-272 150,-426 262,-426 262,-272 150,-272"/>
</a>
</g>
</g>
<!-- Node3&#45;&gt;Node1 -->
<g id="edge3_Node000001_Node000003" class="edge">
<title>Node3&#45;&gt;Node1</title>
<g id="a_edge3_Node000001_Node000003"><a xlink:title=" ">
<path fill="none" stroke="#63b8ff" d="M202.6,-271.77C203.15,-258.43 204.47,-244.74 207,-232 207.4,-229.97 207.84,-227.92 208.31,-225.87"/>
<polygon fill="none" stroke="#63b8ff" points="208.35,-225.72 205.94,-218.92 211.29,-214.09 213.69,-220.89 208.35,-225.72"/>
</a>
</g>
<text text-anchor="middle" x="247" y="-240.5" font-family="Helvetica,sans-Serif" font-size="10.00" fill="grey"> &#45;m_fileManager</text>
</g>
<!-- Node4 -->
<g id="Node000004" class="node">
<title>Node4</title>
<g id="a_Node000004"><a xlink:title=" ">
<polygon fill="white" stroke="transparent" points="320.5,-373.5 297.5,-373.5 297.5,-324.5 320.5,-324.5 320.5,-373.5"/>
<text text-anchor="start" x="303" y="-361" font-family="Helvetica,sans-Serif" font-size="10.00">int</text>
<text text-anchor="start" x="307.5" y="-346" font-family="Helvetica,sans-Serif" font-size="10.00"> </text>
<text text-anchor="start" x="307.5" y="-331" font-family="Helvetica,sans-Serif" font-size="10.00"> </text>
<polygon fill="#666666" stroke="#666666" points="298,-356 298,-356 321,-356 321,-356 298,-356"/>
<polygon fill="#666666" stroke="#666666" points="298,-341 298,-341 321,-341 321,-341 298,-341"/>
<polygon fill="none" stroke="#666666" points="297.5,-324.5 297.5,-373.5 320.5,-373.5 320.5,-324.5 297.5,-324.5"/>
</a>
</g>
</g>
<!-- Node4&#45;&gt;Node1 -->
<g id="edge4_Node000001_Node000004" class="edge">
<title>Node4&#45;&gt;Node1</title>
<g id="a_edge4_Node000001_Node000004"><a xlink:title=" ">
<path fill="none" stroke="#63b8ff" d="M304.88,-324.38C300.69,-300.89 293.87,-263.86 287,-232 286.57,-229.99 286.13,-227.96 285.68,-225.92"/>
<polygon fill="none" stroke="#63b8ff" points="285.66,-225.83 280.45,-220.85 283.04,-214.12 288.25,-219.1 285.66,-225.83"/>
</a>
</g>
<text text-anchor="middle" x="323.5" y="-240.5" font-family="Helvetica,sans-Serif" font-size="10.00" fill="grey"> &#45;keysFiltered</text>
</g>
<!-- Node5 -->
<g id="Node000005" class="node">
<title>Node5</title>
<g id="a_Node000005"><a xlink:title=" ">
<polygon fill="white" stroke="transparent" points="435,-373.5 363,-373.5 363,-324.5 435,-324.5 435,-373.5"/>
<text text-anchor="start" x="368" y="-361" font-family="Helvetica,sans-Serif" font-size="10.00">KeyIdentifier</text>
<text text-anchor="start" x="397" y="-346" font-family="Helvetica,sans-Serif" font-size="10.00"> </text>
<text text-anchor="start" x="397" y="-331" font-family="Helvetica,sans-Serif" font-size="10.00"> </text>
<polygon fill="#666666" stroke="#666666" points="363,-356 363,-356 435,-356 435,-356 363,-356"/>
<polygon fill="#666666" stroke="#666666" points="363,-341 363,-341 435,-341 435,-341 363,-341"/>
<polygon fill="none" stroke="#666666" points="363,-324.5 363,-373.5 435,-373.5 435,-324.5 363,-324.5"/>
</a>
</g>
</g>
<!-- Node5&#45;&gt;Node1 -->
<g id="edge5_Node000001_Node000005" class="edge">
<title>Node5&#45;&gt;Node1</title>
<g id="a_edge5_Node000001_Node000005"><a xlink:title=" ">
<path fill="none" stroke="#63b8ff" d="M394.03,-324.25C388.33,-300.02 377.57,-261.82 361,-232 353.73,-218.92 344.98,-205.91 335.69,-193.52"/>
<polygon fill="none" stroke="#63b8ff" points="335.46,-193.22 328.63,-190.91 328.14,-183.72 334.97,-186.03 335.46,-193.22"/>
</a>
</g>
<text text-anchor="middle" x="412" y="-240.5" font-family="Helvetica,sans-Serif" font-size="10.00" fill="grey"> &#45;lastKeyPressed</text>
</g>
</g>
</svg>
