<?xml version="1.0" encoding="UTF-8" standalone="no"?>
<!DOCTYPE svg PUBLIC "-//W3C//DTD SVG 1.1//EN"
 "http://www.w3.org/Graphics/SVG/1.1/DTD/svg11.dtd">
<!-- Generated by graphviz version 2.43.0 (0)
 -->
<!-- Title: EditViewModel Pages: 1 -->
<svg width="272pt" height="455pt"
 viewBox="0.00 0.00 272.00 455.00" xmlns="http://www.w3.org/2000/svg" xmlns:xlink="http://www.w3.org/1999/xlink">
<g id="graph0" class="graph" transform="scale(1 1) rotate(0) translate(4 451)">
<title>EditViewModel</title>
<!-- Node1 -->
<g id="Node000001" class="node">
<title>Node1</title>
<g id="a_Node000001"><a xlink:title=" ">
<polygon fill="#999999" stroke="transparent" points="130,-154 0,-154 0,0 130,0 130,-154"/>
<text text-anchor="start" x="28.5" y="-142" font-family="Helvetica,sans-Serif" font-size="10.00">EditViewModel</text>
<text text-anchor="start" x="63" y="-127" font-family="Helvetica,sans-Serif" font-size="10.00"> </text>
<text text-anchor="start" x="4" y="-112" font-family="Helvetica,sans-Serif" font-size="10.00">+</text>
<text text-anchor="start" x="17" y="-112" font-family="Helvetica,sans-Serif" font-size="10.00">RegisterKey()</text>
<text text-anchor="start" x="4" y="-97" font-family="Helvetica,sans-Serif" font-size="10.00">+</text>
<text text-anchor="start" x="17" y="-97" font-family="Helvetica,sans-Serif" font-size="10.00">ResetNewShortCut()</text>
<text text-anchor="start" x="4" y="-82" font-family="Helvetica,sans-Serif" font-size="10.00">+</text>
<text text-anchor="start" x="17" y="-82" font-family="Helvetica,sans-Serif" font-size="10.00">GetNewShortCut()</text>
<text text-anchor="start" x="4" y="-67" font-family="Helvetica,sans-Serif" font-size="10.00">+</text>
<text text-anchor="start" x="17" y="-67" font-family="Helvetica,sans-Serif" font-size="10.00">SetSelectedShortCut()</text>
<text text-anchor="start" x="4" y="-52" font-family="Helvetica,sans-Serif" font-size="10.00">+</text>
<text text-anchor="start" x="17" y="-52" font-family="Helvetica,sans-Serif" font-size="10.00">GetSelectedShortCut()</text>
<text text-anchor="start" x="4" y="-37" font-family="Helvetica,sans-Serif" font-size="10.00">+</text>
<text text-anchor="start" x="17" y="-37" font-family="Helvetica,sans-Serif" font-size="10.00">Instance()</text>
<text text-anchor="start" x="4" y="-22" font-family="Helvetica,sans-Serif" font-size="10.00">#</text>
<text text-anchor="start" x="17" y="-22" font-family="Helvetica,sans-Serif" font-size="10.00">EditViewModel()</text>
<text text-anchor="start" x="4" y="-7" font-family="Helvetica,sans-Serif" font-size="10.00">#</text>
<text text-anchor="start" x="17" y="-7" font-family="Helvetica,sans-Serif" font-size="10.00">~EditViewModel()</text>
<polygon fill="#666666" stroke="#666666" points="0,-137 0,-137 130,-137 130,-137 0,-137"/>
<polygon fill="#666666" stroke="#666666" points="0,-122 0,-122 130,-122 130,-122 0,-122"/>
<polygon fill="none" stroke="#666666" points="0,0 0,-154 130,-154 130,0 0,0"/>
</a>
</g>
</g>
<!-- Node2 -->
<g id="Node000002" class="node">
<title>Node2</title>
<g id="a_Node000002"><a xlink:title=" ">
<polygon fill="white" stroke="transparent" points="117.5,-447 14.5,-447 14.5,-387 117.5,-387 117.5,-447"/>
<text text-anchor="start" x="20" y="-435" font-family="Helvetica,sans-Serif" font-size="10.00">vector&lt; Rml::Input</text>
<text text-anchor="start" x="27" y="-424" font-family="Helvetica,sans-Serif" font-size="10.00">::KeyIdentifier &gt;</text>
<text text-anchor="start" x="64.5" y="-409" font-family="Helvetica,sans-Serif" font-size="10.00"> </text>
<text text-anchor="start" x="64.5" y="-394" font-family="Helvetica,sans-Serif" font-size="10.00"> </text>
<polygon fill="#666666" stroke="#666666" points="15,-419 15,-419 118,-419 118,-419 15,-419"/>
<polygon fill="#666666" stroke="#666666" points="15,-404 15,-404 118,-404 118,-404 15,-404"/>
<polygon fill="none" stroke="#666666" points="14.5,-387 14.5,-447 117.5,-447 117.5,-387 14.5,-387"/>
</a>
</g>
</g>
<!-- Node2&#45;&gt;Node1 -->
<g id="edge1_Node000001_Node000002" class="edge">
<title>Node2&#45;&gt;Node1</title>
<g id="a_edge1_Node000001_Node000002"><a xlink:title=" ">
<path fill="none" stroke="#63b8ff" d="M62.21,-386.82C60.55,-372.71 58.81,-355.5 58,-340 54.97,-282.28 56.67,-217.33 59.15,-166.54"/>
<polygon fill="none" stroke="#63b8ff" points="59.17,-166.26 55.48,-160.07 59.78,-154.28 63.47,-160.48 59.17,-166.26"/>
</a>
</g>
<text text-anchor="middle" x="93" y="-268" font-family="Helvetica,sans-Serif" font-size="10.00" fill="grey"> &#45;newShortCut</text>
</g>
<!-- Node3 -->
<g id="Node000003" class="node">
<title>Node3</title>
<g id="a_Node000003"><a xlink:href="classKeyShortCut.html" target="_top" xlink:title=" ">
<polygon fill="white" stroke="transparent" points="226.5,-340 137.5,-340 137.5,-201 226.5,-201 226.5,-340"/>
<text text-anchor="start" x="152" y="-327.5" font-family="Helvetica,sans-Serif" font-size="10.00">KeyShortCut</text>
<text text-anchor="start" x="180.5" y="-312.5" font-family="Helvetica,sans-Serif" font-size="10.00"> </text>
<text text-anchor="start" x="142" y="-297.5" font-family="Helvetica,sans-Serif" font-size="10.00">+</text>
<text text-anchor="start" x="155" y="-297.5" font-family="Helvetica,sans-Serif" font-size="10.00">KeyShortCut()</text>
<text text-anchor="start" x="142" y="-282.5" font-family="Helvetica,sans-Serif" font-size="10.00">+</text>
<text text-anchor="start" x="155" y="-282.5" font-family="Helvetica,sans-Serif" font-size="10.00">getShortCut()</text>
<text text-anchor="start" x="142" y="-267.5" font-family="Helvetica,sans-Serif" font-size="10.00">+</text>
<text text-anchor="start" x="155" y="-267.5" font-family="Helvetica,sans-Serif" font-size="10.00">setShortCut()</text>
<text text-anchor="start" x="142" y="-252.5" font-family="Helvetica,sans-Serif" font-size="10.00">+</text>
<text text-anchor="start" x="155" y="-252.5" font-family="Helvetica,sans-Serif" font-size="10.00">getEvent()</text>
<text text-anchor="start" x="142" y="-237.5" font-family="Helvetica,sans-Serif" font-size="10.00">+</text>
<text text-anchor="start" x="155" y="-237.5" font-family="Helvetica,sans-Serif" font-size="10.00">operator==()</text>
<text text-anchor="start" x="142" y="-222.5" font-family="Helvetica,sans-Serif" font-size="10.00">+</text>
<text text-anchor="start" x="155" y="-222.5" font-family="Helvetica,sans-Serif" font-size="10.00">toString()</text>
<text text-anchor="start" x="142" y="-207.5" font-family="Helvetica,sans-Serif" font-size="10.00">+</text>
<text text-anchor="start" x="155" y="-207.5" font-family="Helvetica,sans-Serif" font-size="10.00">toString()</text>
<polygon fill="#666666" stroke="#666666" points="138,-322.5 138,-322.5 227,-322.5 227,-322.5 138,-322.5"/>
<polygon fill="#666666" stroke="#666666" points="138,-307.5 138,-307.5 227,-307.5 227,-307.5 138,-307.5"/>
<polygon fill="none" stroke="#666666" points="137.5,-201 137.5,-340 226.5,-340 226.5,-201 137.5,-201"/>
</a>
</g>
</g>
<!-- Node2&#45;&gt;Node3 -->
<g id="edge3_Node000003_Node000002" class="edge">
<title>Node2&#45;&gt;Node3</title>
<g id="a_edge3_Node000003_Node000002"><a xlink:title=" ">
<path fill="none" stroke="#63b8ff" d="M69.49,-386.75C71.93,-376.71 76.04,-365.99 83,-358 95.8,-343.3 107.38,-351.66 123,-340 124.69,-338.74 126.36,-337.43 128.01,-336.06"/>
<polygon fill="none" stroke="#63b8ff" points="128.3,-335.8 130.12,-328.83 137.26,-327.82 135.44,-334.8 128.3,-335.8"/>
</a>
</g>
<text text-anchor="middle" x="146" y="-361" font-family="Helvetica,sans-Serif" font-size="10.00" fill="grey"> &#45;m_shortCutCombination</text>
</g>
<!-- Node3&#45;&gt;Node1 -->
<g id="edge2_Node000001_Node000003" class="edge">
<title>Node3&#45;&gt;Node1</title>
<g id="a_edge2_Node000001_Node000003"><a xlink:title=" ">
<path fill="none" stroke="#63b8ff" d="M140.09,-200.91C132.94,-189.2 125.43,-176.91 118.03,-164.81"/>
<polygon fill="none" stroke="#63b8ff" points="117.84,-164.48 111.29,-161.44 111.58,-154.24 118.12,-157.27 117.84,-164.48"/>
</a>
</g>
<text text-anchor="middle" x="181" y="-175" font-family="Helvetica,sans-Serif" font-size="10.00" fill="grey"> &#45;m_selectedShortCut</text>
</g>
<!-- Node4 -->
<g id="Node000004" class="node">
<title>Node4</title>
<g id="a_Node000004"><a xlink:title=" ">
<polygon fill="white" stroke="transparent" points="250,-441.5 212,-441.5 212,-392.5 250,-392.5 250,-441.5"/>
<text text-anchor="start" x="217" y="-429" font-family="Helvetica,sans-Serif" font-size="10.00">string</text>
<text text-anchor="start" x="229" y="-414" font-family="Helvetica,sans-Serif" font-size="10.00"> </text>
<text text-anchor="start" x="229" y="-399" font-family="Helvetica,sans-Serif" font-size="10.00"> </text>
<polygon fill="#666666" stroke="#666666" points="212,-424 212,-424 250,-424 250,-424 212,-424"/>
<polygon fill="#666666" stroke="#666666" points="212,-409 212,-409 250,-409 250,-409 212,-409"/>
<polygon fill="none" stroke="#666666" points="212,-392.5 212,-441.5 250,-441.5 250,-392.5 212,-392.5"/>
</a>
</g>
</g>
<!-- Node4&#45;&gt;Node3 -->
<g id="edge4_Node000003_Node000004" class="edge">
<title>Node4&#45;&gt;Node3</title>
<g id="a_edge4_Node000003_Node000004"><a xlink:title=" ">
<path fill="none" stroke="#63b8ff" d="M223.02,-392.46C219.15,-381.05 214.25,-366.61 209.2,-351.72"/>
<polygon fill="none" stroke="#63b8ff" points="209.18,-351.64 203.46,-347.25 205.32,-340.28 211.04,-344.68 209.18,-351.64"/>
</a>
</g>
<text text-anchor="middle" x="239" y="-361" font-family="Helvetica,sans-Serif" font-size="10.00" fill="grey"> &#45;m_event</text>
</g>
</g>
</svg>
