<?xml version="1.0" encoding="UTF-8" standalone="no"?>
<!DOCTYPE svg PUBLIC "-//W3C//DTD SVG 1.1//EN"
 "http://www.w3.org/Graphics/SVG/1.1/DTD/svg11.dtd">
<!-- Generated by graphviz version 2.43.0 (0)
 -->
<!-- Title: RenderInterface_GL3 Pages: 1 -->
<!--zoomable 1294 -->

<svg id="main" version="1.1" xmlns="http://www.w3.org/2000/svg" xmlns:xlink="http://www.w3.org/1999/xlink" xml:space="preserve" onload="init(evt)">
<style type="text/css"><![CDATA[
.node, .edge {opacity: 0.7;}
.node.selected, .edge.selected {opacity: 1;}
.edge:hover path { stroke: red; }
.edge:hover polygon { stroke: red; fill: red; }
]]></style>

<defs>
  <circle id="rim" cx="0" cy="0" r="7"/>
  <circle id="rim2" cx="0" cy="0" r="3.5"/>
  <g id="zoomPlus">
    <use xlink:href="#rim" fill="#404040"><set attributeName="fill" to="#808080" begin="zoomplus.mouseover" end="zoomplus.mouseout"/></use>
    <path d="M-4,0h8M0,-4v8" fill="none" stroke="white" stroke-width="1.5" pointer-events="none"/>
  </g>
  <g id="zoomMin">
    <use xlink:href="#rim" fill="#404040"><set attributeName="fill" to="#808080" begin="zoomminus.mouseover" end="zoomminus.mouseout"/></use>
    <path d="M-4,0h8" fill="none" stroke="white" stroke-width="1.5" pointer-events="none"/>
  </g>
  <g id="arrowUp" transform="translate(30 24)">
    <use xlink:href="#rim"/>
    <path pointer-events="none" fill="none" stroke="white" stroke-width="1.5" d="M0,-3.0v7 M-2.5,-0.5L0,-3.0L2.5,-0.5"/>
  </g>
  <g id="arrowRight" transform="rotate(90) translate(36 -43)">
    <use xlink:href="#rim"/>
    <path pointer-events="none" fill="none" stroke="white" stroke-width="1.5" d="M0,-3.0v7 M-2.5,-0.5L0,-3.0L2.5,-0.5"/>
  </g>
  <g id="arrowDown" transform="rotate(180) translate(-30 -48)">
    <use xlink:href="#rim"/>
    <path pointer-events="none" fill="none" stroke="white" stroke-width="1.5" d="M0,-3.0v7 M-2.5,-0.5L0,-3.0L2.5,-0.5"/>
  </g>
  <g id="arrowLeft" transform="rotate(270) translate(-36 17)">
    <use xlink:href="#rim"/>
    <path pointer-events="none" fill="none" stroke="white" stroke-width="1.5" d="M0,-3.0v7 M-2.5,-0.5L0,-3.0L2.5,-0.5"/>
  </g>
  <g id="resetDef">
    <use xlink:href="#rim2" fill="#404040"><set attributeName="fill" to="#808080" begin="reset.mouseover" end="reset.mouseout"/></use>
  </g>
</defs>
<script type="application/ecmascript">
var viewWidth = 1704;
var viewHeight = 1294;
var sectionId = 'dynsection-1';
</script>
<script type="application/ecmascript" xlink:href="svg.min.js"/>
<svg id="graph" class="graph">
<g id="viewport">
<title>RenderInterface_GL3</title>
<!-- Node1 -->
<g id="Node000001" class="node">
<title>Node1</title>
<g id="a_Node000001"><a xlink:title=" ">
<polygon fill="#999999" stroke="transparent" points="820,-619 640,-619 640,0 820,0 820,-619"/>
<text text-anchor="start" x="678.5" y="-606.5" font-family="Helvetica,sans-Serif" font-size="10.00">RenderInterface_GL3</text>
<text text-anchor="start" x="728" y="-591.5" font-family="Helvetica,sans-Serif" font-size="10.00"> </text>
<text text-anchor="start" x="644" y="-576.5" font-family="Helvetica,sans-Serif" font-size="10.00">+</text>
<text text-anchor="start" x="657" y="-576.5" font-family="Helvetica,sans-Serif" font-size="10.00">RenderInterface_GL3()</text>
<text text-anchor="start" x="644" y="-561.5" font-family="Helvetica,sans-Serif" font-size="10.00">+</text>
<text text-anchor="start" x="657" y="-561.5" font-family="Helvetica,sans-Serif" font-size="10.00">~RenderInterface_GL3()</text>
<text text-anchor="start" x="644" y="-546.5" font-family="Helvetica,sans-Serif" font-size="10.00">+</text>
<text text-anchor="start" x="657" y="-546.5" font-family="Helvetica,sans-Serif" font-size="10.00">operator bool()</text>
<text text-anchor="start" x="644" y="-531.5" font-family="Helvetica,sans-Serif" font-size="10.00">+</text>
<text text-anchor="start" x="657" y="-531.5" font-family="Helvetica,sans-Serif" font-size="10.00">SetViewport()</text>
<text text-anchor="start" x="644" y="-516.5" font-family="Helvetica,sans-Serif" font-size="10.00">+</text>
<text text-anchor="start" x="657" y="-516.5" font-family="Helvetica,sans-Serif" font-size="10.00">BeginFrame()</text>
<text text-anchor="start" x="644" y="-501.5" font-family="Helvetica,sans-Serif" font-size="10.00">+</text>
<text text-anchor="start" x="657" y="-501.5" font-family="Helvetica,sans-Serif" font-size="10.00">EndFrame()</text>
<text text-anchor="start" x="644" y="-486.5" font-family="Helvetica,sans-Serif" font-size="10.00">+</text>
<text text-anchor="start" x="657" y="-486.5" font-family="Helvetica,sans-Serif" font-size="10.00">Clear()</text>
<text text-anchor="start" x="644" y="-471.5" font-family="Helvetica,sans-Serif" font-size="10.00">+</text>
<text text-anchor="start" x="657" y="-471.5" font-family="Helvetica,sans-Serif" font-size="10.00">CompileGeometry()</text>
<text text-anchor="start" x="644" y="-456.5" font-family="Helvetica,sans-Serif" font-size="10.00">+</text>
<text text-anchor="start" x="657" y="-456.5" font-family="Helvetica,sans-Serif" font-size="10.00">RenderGeometry()</text>
<text text-anchor="start" x="644" y="-441.5" font-family="Helvetica,sans-Serif" font-size="10.00">+</text>
<text text-anchor="start" x="657" y="-441.5" font-family="Helvetica,sans-Serif" font-size="10.00">ReleaseGeometry()</text>
<text text-anchor="start" x="644" y="-426.5" font-family="Helvetica,sans-Serif" font-size="10.00">+</text>
<text text-anchor="start" x="657" y="-426.5" font-family="Helvetica,sans-Serif" font-size="10.00">LoadTexture()</text>
<text text-anchor="start" x="644" y="-411.5" font-family="Helvetica,sans-Serif" font-size="10.00">+</text>
<text text-anchor="start" x="657" y="-411.5" font-family="Helvetica,sans-Serif" font-size="10.00">GenerateTexture()</text>
<text text-anchor="start" x="644" y="-396.5" font-family="Helvetica,sans-Serif" font-size="10.00">+</text>
<text text-anchor="start" x="657" y="-396.5" font-family="Helvetica,sans-Serif" font-size="10.00">ReleaseTexture()</text>
<text text-anchor="start" x="644" y="-381.5" font-family="Helvetica,sans-Serif" font-size="10.00">+</text>
<text text-anchor="start" x="657" y="-381.5" font-family="Helvetica,sans-Serif" font-size="10.00">EnableScissorRegion()</text>
<text text-anchor="start" x="644" y="-366.5" font-family="Helvetica,sans-Serif" font-size="10.00">+</text>
<text text-anchor="start" x="657" y="-366.5" font-family="Helvetica,sans-Serif" font-size="10.00">SetScissorRegion()</text>
<text text-anchor="start" x="644" y="-351.5" font-family="Helvetica,sans-Serif" font-size="10.00">+</text>
<text text-anchor="start" x="657" y="-351.5" font-family="Helvetica,sans-Serif" font-size="10.00">EnableClipMask()</text>
<text text-anchor="start" x="644" y="-336.5" font-family="Helvetica,sans-Serif" font-size="10.00">+</text>
<text text-anchor="start" x="657" y="-336.5" font-family="Helvetica,sans-Serif" font-size="10.00">RenderToClipMask()</text>
<text text-anchor="start" x="644" y="-321.5" font-family="Helvetica,sans-Serif" font-size="10.00">+</text>
<text text-anchor="start" x="657" y="-321.5" font-family="Helvetica,sans-Serif" font-size="10.00">SetTransform()</text>
<text text-anchor="start" x="644" y="-306.5" font-family="Helvetica,sans-Serif" font-size="10.00">+</text>
<text text-anchor="start" x="657" y="-306.5" font-family="Helvetica,sans-Serif" font-size="10.00">PushLayer()</text>
<text text-anchor="start" x="644" y="-291.5" font-family="Helvetica,sans-Serif" font-size="10.00">+</text>
<text text-anchor="start" x="657" y="-291.5" font-family="Helvetica,sans-Serif" font-size="10.00">CompositeLayers()</text>
<text text-anchor="start" x="644" y="-276.5" font-family="Helvetica,sans-Serif" font-size="10.00">+</text>
<text text-anchor="start" x="657" y="-276.5" font-family="Helvetica,sans-Serif" font-size="10.00">PopLayer()</text>
<text text-anchor="start" x="644" y="-261.5" font-family="Helvetica,sans-Serif" font-size="10.00">+</text>
<text text-anchor="start" x="657" y="-261.5" font-family="Helvetica,sans-Serif" font-size="10.00">SaveLayerAsTexture()</text>
<text text-anchor="start" x="644" y="-246.5" font-family="Helvetica,sans-Serif" font-size="10.00">+</text>
<text text-anchor="start" x="657" y="-246.5" font-family="Helvetica,sans-Serif" font-size="10.00">SaveLayerAsMaskImage()</text>
<text text-anchor="start" x="644" y="-231.5" font-family="Helvetica,sans-Serif" font-size="10.00">+</text>
<text text-anchor="start" x="657" y="-231.5" font-family="Helvetica,sans-Serif" font-size="10.00">CompileFilter()</text>
<text text-anchor="start" x="644" y="-216.5" font-family="Helvetica,sans-Serif" font-size="10.00">+</text>
<text text-anchor="start" x="657" y="-216.5" font-family="Helvetica,sans-Serif" font-size="10.00">ReleaseFilter()</text>
<text text-anchor="start" x="644" y="-201.5" font-family="Helvetica,sans-Serif" font-size="10.00">+</text>
<text text-anchor="start" x="657" y="-201.5" font-family="Helvetica,sans-Serif" font-size="10.00">CompileShader()</text>
<text text-anchor="start" x="644" y="-186.5" font-family="Helvetica,sans-Serif" font-size="10.00">+</text>
<text text-anchor="start" x="657" y="-186.5" font-family="Helvetica,sans-Serif" font-size="10.00">RenderShader()</text>
<text text-anchor="start" x="644" y="-171.5" font-family="Helvetica,sans-Serif" font-size="10.00">+</text>
<text text-anchor="start" x="657" y="-171.5" font-family="Helvetica,sans-Serif" font-size="10.00">ReleaseShader()</text>
<text text-anchor="start" x="644" y="-156.5" font-family="Helvetica,sans-Serif" font-size="10.00">+</text>
<text text-anchor="start" x="657" y="-156.5" font-family="Helvetica,sans-Serif" font-size="10.00">GetTransform()</text>
<text text-anchor="start" x="644" y="-141.5" font-family="Helvetica,sans-Serif" font-size="10.00">+</text>
<text text-anchor="start" x="657" y="-141.5" font-family="Helvetica,sans-Serif" font-size="10.00">ResetProgram()</text>
<text text-anchor="start" x="646.5" y="-126.5" font-family="Helvetica,sans-Serif" font-size="10.00">&#45;</text>
<text text-anchor="start" x="657" y="-126.5" font-family="Helvetica,sans-Serif" font-size="10.00">UseProgram()</text>
<text text-anchor="start" x="646.5" y="-111.5" font-family="Helvetica,sans-Serif" font-size="10.00">&#45;</text>
<text text-anchor="start" x="657" y="-111.5" font-family="Helvetica,sans-Serif" font-size="10.00">GetUniformLocation()</text>
<text text-anchor="start" x="646.5" y="-96.5" font-family="Helvetica,sans-Serif" font-size="10.00">&#45;</text>
<text text-anchor="start" x="657" y="-96.5" font-family="Helvetica,sans-Serif" font-size="10.00">SubmitTransformUniform()</text>
<text text-anchor="start" x="646.5" y="-81.5" font-family="Helvetica,sans-Serif" font-size="10.00">&#45;</text>
<text text-anchor="start" x="657" y="-81.5" font-family="Helvetica,sans-Serif" font-size="10.00">BlitLayerToPostprocessPrimary()</text>
<text text-anchor="start" x="646.5" y="-66.5" font-family="Helvetica,sans-Serif" font-size="10.00">&#45;</text>
<text text-anchor="start" x="657" y="-66.5" font-family="Helvetica,sans-Serif" font-size="10.00">RenderFilters()</text>
<text text-anchor="start" x="646.5" y="-51.5" font-family="Helvetica,sans-Serif" font-size="10.00">&#45;</text>
<text text-anchor="start" x="657" y="-51.5" font-family="Helvetica,sans-Serif" font-size="10.00">SetScissor()</text>
<text text-anchor="start" x="646.5" y="-36.5" font-family="Helvetica,sans-Serif" font-size="10.00">&#45;</text>
<text text-anchor="start" x="657" y="-36.5" font-family="Helvetica,sans-Serif" font-size="10.00">DrawFullscreenQuad()</text>
<text text-anchor="start" x="646.5" y="-21.5" font-family="Helvetica,sans-Serif" font-size="10.00">&#45;</text>
<text text-anchor="start" x="657" y="-21.5" font-family="Helvetica,sans-Serif" font-size="10.00">DrawFullscreenQuad()</text>
<text text-anchor="start" x="646.5" y="-6.5" font-family="Helvetica,sans-Serif" font-size="10.00">&#45;</text>
<text text-anchor="start" x="657" y="-6.5" font-family="Helvetica,sans-Serif" font-size="10.00">RenderBlur()</text>
<polygon fill="#666666" stroke="#666666" points="640,-601.5 640,-601.5 820,-601.5 820,-601.5 640,-601.5"/>
<polygon fill="#666666" stroke="#666666" points="640,-586.5 640,-586.5 820,-586.5 820,-586.5 640,-586.5"/>
<polygon fill="none" stroke="#666666" points="640,0 640,-619 820,-619 820,0 640,0"/>
</a>
</g>
</g>
<!-- Node2 -->
<g id="Node000002" class="node">
<title>Node2</title>
<g id="a_Node000002"><a xlink:title=" ">
<polygon fill="white" stroke="transparent" points="114,-731.5 0,-731.5 0,-682.5 114,-682.5 114,-731.5"/>
<text text-anchor="start" x="5" y="-719" font-family="Helvetica,sans-Serif" font-size="10.00">Rml::RenderInterface</text>
<text text-anchor="start" x="55" y="-704" font-family="Helvetica,sans-Serif" font-size="10.00"> </text>
<text text-anchor="start" x="55" y="-689" font-family="Helvetica,sans-Serif" font-size="10.00"> </text>
<polygon fill="#666666" stroke="#666666" points="0,-714 0,-714 114,-714 114,-714 0,-714"/>
<polygon fill="#666666" stroke="#666666" points="0,-699 0,-699 114,-699 114,-699 0,-699"/>
<polygon fill="none" stroke="#666666" points="0,-682.5 0,-731.5 114,-731.5 114,-682.5 0,-682.5"/>
</a>
</g>
</g>
<!-- Node2&#45;&gt;Node1 -->
<g id="edge1_Node000001_Node000002" class="edge">
<title>Node2&#45;&gt;Node1</title>
<g id="a_edge1_Node000001_Node000002"><a xlink:title=" ">
<path fill="none" stroke="#63b8ff" d="M105.83,-677.3C218.06,-611.35 495.75,-448.16 639.91,-363.44"/>
<polygon fill="none" stroke="#63b8ff" points="103.93,-674.36 97.08,-682.44 107.48,-680.4 103.93,-674.36"/>
</a>
</g>
</g>
<!-- Node3 -->
<g id="Node000003" class="node">
<title>Node3</title>
<g id="a_Node000003"><a xlink:title=" ">
<polygon fill="white" stroke="transparent" points="213.5,-731.5 132.5,-731.5 132.5,-682.5 213.5,-682.5 213.5,-731.5"/>
<text text-anchor="start" x="138" y="-719" font-family="Helvetica,sans-Serif" font-size="10.00">TextureHandle</text>
<text text-anchor="start" x="171.5" y="-704" font-family="Helvetica,sans-Serif" font-size="10.00"> </text>
<text text-anchor="start" x="171.5" y="-689" font-family="Helvetica,sans-Serif" font-size="10.00"> </text>
<polygon fill="#666666" stroke="#666666" points="133,-714 133,-714 214,-714 214,-714 133,-714"/>
<polygon fill="#666666" stroke="#666666" points="133,-699 133,-699 214,-699 214,-699 133,-699"/>
<polygon fill="none" stroke="#666666" points="132.5,-682.5 132.5,-731.5 213.5,-731.5 213.5,-682.5 132.5,-682.5"/>
</a>
</g>
</g>
<!-- Node3&#45;&gt;Node1 -->
<g id="edge2_Node000001_Node000003" class="edge">
<title>Node3&#45;&gt;Node1</title>
<g id="a_edge2_Node000001_Node000003"><a xlink:title=" ">
<path fill="none" stroke="#63b8ff" d="M184.63,-682.45C192.45,-668.19 203.73,-650.26 217,-637 340.41,-513.7 518.25,-413.54 628.83,-358.02"/>
<polygon fill="none" stroke="#63b8ff" points="628.91,-357.98 632.49,-351.72 639.65,-352.62 636.06,-358.88 628.91,-357.98"/>
</a>
</g>
<text text-anchor="middle" x="295" y="-651" font-family="Helvetica,sans-Serif" font-size="10.00" fill="grey"> +TextureEnableWithoutBinding</text>
<text text-anchor="middle" x="295" y="-640" font-family="Helvetica,sans-Serif" font-size="10.00" fill="grey">+TexturePostprocess</text>
</g>
<!-- Node4 -->
<g id="Node000004" class="node">
<title>Node4</title>
<g id="a_Node000004"><a xlink:title=" ">
<polygon fill="white" stroke="transparent" points="371.5,-731.5 332.5,-731.5 332.5,-682.5 371.5,-682.5 371.5,-731.5"/>
<text text-anchor="start" x="338" y="-719" font-family="Helvetica,sans-Serif" font-size="10.00">size_t</text>
<text text-anchor="start" x="350.5" y="-704" font-family="Helvetica,sans-Serif" font-size="10.00"> </text>
<text text-anchor="start" x="350.5" y="-689" font-family="Helvetica,sans-Serif" font-size="10.00"> </text>
<polygon fill="#666666" stroke="#666666" points="333,-714 333,-714 372,-714 372,-714 333,-714"/>
<polygon fill="#666666" stroke="#666666" points="333,-699 333,-699 372,-699 372,-699 333,-699"/>
<polygon fill="none" stroke="#666666" points="332.5,-682.5 332.5,-731.5 371.5,-731.5 371.5,-682.5 332.5,-682.5"/>
</a>
</g>
</g>
<!-- Node4&#45;&gt;Node1 -->
<g id="edge3_Node000001_Node000004" class="edge">
<title>Node4&#45;&gt;Node1</title>
<g id="a_edge3_Node000001_Node000004"><a xlink:title=" ">
<path fill="none" stroke="#63b8ff" d="M363.24,-682.26C370.31,-668.44 380.13,-651.03 391,-637 462.16,-545.18 558.84,-454.65 630.74,-392.29"/>
<polygon fill="none" stroke="#63b8ff" points="630.74,-392.29 632.67,-385.34 639.83,-384.45 637.9,-391.39 630.74,-392.29"/>
</a>
</g>
<text text-anchor="middle" x="440" y="-645.5" font-family="Helvetica,sans-Serif" font-size="10.00" fill="grey"> &#45;MaxNumPrograms</text>
</g>
<!-- Node5 -->
<g id="Node000005" class="node">
<title>Node5</title>
<g id="a_Node000005"><a xlink:title=" ">
<polygon fill="white" stroke="transparent" points="549,-731.5 397,-731.5 397,-682.5 549,-682.5 549,-731.5"/>
<text text-anchor="start" x="402" y="-719" font-family="Helvetica,sans-Serif" font-size="10.00">bitset&lt; MaxNumPrograms &gt;</text>
<text text-anchor="start" x="471" y="-704" font-family="Helvetica,sans-Serif" font-size="10.00"> </text>
<text text-anchor="start" x="471" y="-689" font-family="Helvetica,sans-Serif" font-size="10.00"> </text>
<polygon fill="#666666" stroke="#666666" points="397,-714 397,-714 549,-714 549,-714 397,-714"/>
<polygon fill="#666666" stroke="#666666" points="397,-699 397,-699 549,-699 549,-699 397,-699"/>
<polygon fill="none" stroke="#666666" points="397,-682.5 397,-731.5 549,-731.5 549,-682.5 397,-682.5"/>
</a>
</g>
</g>
<!-- Node5&#45;&gt;Node1 -->
<g id="edge4_Node000001_Node000005" class="edge">
<title>Node5&#45;&gt;Node1</title>
<g id="a_edge4_Node000001_Node000005"><a xlink:title=" ">
<path fill="none" stroke="#63b8ff" d="M482.3,-682.48C487.99,-668.89 495.74,-651.64 504,-637 542.12,-569.46 590.38,-498.24 632.5,-439.6"/>
<polygon fill="none" stroke="#63b8ff" points="632.73,-439.29 632.99,-432.08 639.75,-429.56 639.48,-436.76 632.73,-439.29"/>
</a>
</g>
<text text-anchor="start" x="504" y="-651" font-family="Helvetica,sans-Serif" font-size="10.00" fill="grey"> &#45;program_transform</text>
<text text-anchor="middle" x="555" y="-640" font-family="Helvetica,sans-Serif" font-size="10.00" fill="grey">_dirty</text>
</g>
<!-- Node6 -->
<g id="Node000006" class="node">
<title>Node6</title>
<g id="a_Node000006"><a xlink:title=" ">
<polygon fill="white" stroke="transparent" points="624,-731.5 572,-731.5 572,-682.5 624,-682.5 624,-731.5"/>
<text text-anchor="start" x="577" y="-719" font-family="Helvetica,sans-Serif" font-size="10.00">Matrix4f</text>
<text text-anchor="start" x="596" y="-704" font-family="Helvetica,sans-Serif" font-size="10.00"> </text>
<text text-anchor="start" x="596" y="-689" font-family="Helvetica,sans-Serif" font-size="10.00"> </text>
<polygon fill="#666666" stroke="#666666" points="572,-714 572,-714 624,-714 624,-714 572,-714"/>
<polygon fill="#666666" stroke="#666666" points="572,-699 572,-699 624,-699 624,-699 572,-699"/>
<polygon fill="none" stroke="#666666" points="572,-682.5 572,-731.5 624,-731.5 624,-682.5 572,-682.5"/>
</a>
</g>
</g>
<!-- Node6&#45;&gt;Node1 -->
<g id="edge5_Node000001_Node000006" class="edge">
<title>Node6&#45;&gt;Node1</title>
<g id="a_edge5_Node000001_Node000006"><a xlink:title=" ">
<path fill="none" stroke="#63b8ff" d="M603.7,-682.24C607.03,-668.87 611.46,-651.92 616,-637 622.3,-616.31 629.08,-594.97 636.09,-573.59"/>
<polygon fill="none" stroke="#63b8ff" points="636.14,-573.45 634.21,-566.5 639.89,-562.06 641.81,-569.01 636.14,-573.45"/>
</a>
</g>
<text text-anchor="middle" x="644" y="-651" font-family="Helvetica,sans-Serif" font-size="10.00" fill="grey"> &#45;projection</text>
<text text-anchor="middle" x="644" y="-640" font-family="Helvetica,sans-Serif" font-size="10.00" fill="grey">&#45;transform</text>
</g>
<!-- Node7 -->
<g id="Node000007" class="node">
<title>Node7</title>
<g id="a_Node000007"><a xlink:title=" ">
<polygon fill="white" stroke="transparent" points="707.5,-731.5 646.5,-731.5 646.5,-682.5 707.5,-682.5 707.5,-731.5"/>
<text text-anchor="start" x="652" y="-719" font-family="Helvetica,sans-Serif" font-size="10.00">ProgramId</text>
<text text-anchor="start" x="675.5" y="-704" font-family="Helvetica,sans-Serif" font-size="10.00"> </text>
<text text-anchor="start" x="675.5" y="-689" font-family="Helvetica,sans-Serif" font-size="10.00"> </text>
<polygon fill="#666666" stroke="#666666" points="647,-714 647,-714 708,-714 708,-714 647,-714"/>
<polygon fill="#666666" stroke="#666666" points="647,-699 647,-699 708,-699 708,-699 647,-699"/>
<polygon fill="none" stroke="#666666" points="646.5,-682.5 646.5,-731.5 707.5,-731.5 707.5,-682.5 646.5,-682.5"/>
</a>
</g>
</g>
<!-- Node7&#45;&gt;Node1 -->
<g id="edge6_Node000001_Node000007" class="edge">
<title>Node7&#45;&gt;Node1</title>
<g id="a_edge6_Node000001_Node000007"><a xlink:title=" ">
<path fill="none" stroke="#63b8ff" d="M676.51,-682.33C676.44,-668.99 676.7,-652.04 678,-637 678.16,-635.17 678.32,-633.33 678.49,-631.49"/>
<polygon fill="none" stroke="#63b8ff" points="678.51,-631.21 675.1,-624.86 679.64,-619.27 683.06,-625.62 678.51,-631.21"/>
</a>
</g>
<text text-anchor="middle" x="720" y="-645.5" font-family="Helvetica,sans-Serif" font-size="10.00" fill="grey"> &#45;active_program</text>
</g>
<!-- Node8 -->
<g id="Node000008" class="node">
<title>Node8</title>
<g id="a_Node000008"><a xlink:title=" ">
<polygon fill="white" stroke="transparent" points="815,-731.5 753,-731.5 753,-682.5 815,-682.5 815,-731.5"/>
<text text-anchor="start" x="758" y="-719" font-family="Helvetica,sans-Serif" font-size="10.00">Rectanglei</text>
<text text-anchor="start" x="782" y="-704" font-family="Helvetica,sans-Serif" font-size="10.00"> </text>
<text text-anchor="start" x="782" y="-689" font-family="Helvetica,sans-Serif" font-size="10.00"> </text>
<polygon fill="#666666" stroke="#666666" points="753,-714 753,-714 815,-714 815,-714 753,-714"/>
<polygon fill="#666666" stroke="#666666" points="753,-699 753,-699 815,-699 815,-699 753,-699"/>
<polygon fill="none" stroke="#666666" points="753,-682.5 753,-731.5 815,-731.5 815,-682.5 753,-682.5"/>
</a>
</g>
</g>
<!-- Node8&#45;&gt;Node1 -->
<g id="edge7_Node000001_Node000008" class="edge">
<title>Node8&#45;&gt;Node1</title>
<g id="a_edge7_Node000001_Node000008"><a xlink:title=" ">
<path fill="none" stroke="#63b8ff" d="M780.78,-682.44C779.01,-669.46 776.6,-651.77 773.78,-631.13"/>
<polygon fill="none" stroke="#63b8ff" points="773.75,-630.9 768.97,-625.5 772.12,-619.01 776.9,-624.42 773.75,-630.9"/>
</a>
</g>
<text text-anchor="middle" x="812.5" y="-645.5" font-family="Helvetica,sans-Serif" font-size="10.00" fill="grey"> &#45;scissor_state</text>
</g>
<!-- Node9 -->
<g id="Node000009" class="node">
<title>Node9</title>
<g id="a_Node000009"><a xlink:title=" ">
<polygon fill="white" stroke="transparent" points="1208.5,-1280.5 1185.5,-1280.5 1185.5,-1231.5 1208.5,-1231.5 1208.5,-1280.5"/>
<text text-anchor="start" x="1191" y="-1268" font-family="Helvetica,sans-Serif" font-size="10.00">int</text>
<text text-anchor="start" x="1195.5" y="-1253" font-family="Helvetica,sans-Serif" font-size="10.00"> </text>
<text text-anchor="start" x="1195.5" y="-1238" font-family="Helvetica,sans-Serif" font-size="10.00"> </text>
<polygon fill="#666666" stroke="#666666" points="1186,-1263 1186,-1263 1209,-1263 1209,-1263 1186,-1263"/>
<polygon fill="#666666" stroke="#666666" points="1186,-1248 1186,-1248 1209,-1248 1209,-1248 1186,-1248"/>
<polygon fill="none" stroke="#666666" points="1185.5,-1231.5 1185.5,-1280.5 1208.5,-1280.5 1208.5,-1231.5 1185.5,-1231.5"/>
</a>
</g>
</g>
<!-- Node9&#45;&gt;Node1 -->
<g id="edge8_Node000001_Node000009" class="edge">
<title>Node9&#45;&gt;Node1</title>
<g id="a_edge8_Node000001_Node000009"><a xlink:title=" ">
<path fill="none" stroke="#63b8ff" d="M1185.14,-1246.9C1157.34,-1227.29 1087.59,-1174.34 1051,-1113 979.28,-992.78 998.06,-946.03 965,-810 950.76,-751.39 959.15,-733.49 938,-677 909.33,-600.42 866.04,-520.85 826.37,-455.49"/>
<polygon fill="none" stroke="#63b8ff" points="826.29,-455.37 819.75,-452.33 820.04,-445.13 826.58,-448.16 826.29,-455.37"/>
</a>
</g>
<text text-anchor="middle" x="1010.5" y="-796.5" font-family="Helvetica,sans-Serif" font-size="10.00" fill="grey"> &#45;viewport_height</text>
<text text-anchor="middle" x="1010.5" y="-785.5" font-family="Helvetica,sans-Serif" font-size="10.00" fill="grey">&#45;viewport_offset_x</text>
<text text-anchor="middle" x="1010.5" y="-774.5" font-family="Helvetica,sans-Serif" font-size="10.00" fill="grey">&#45;viewport_offset_y</text>
<text text-anchor="middle" x="1010.5" y="-763.5" font-family="Helvetica,sans-Serif" font-size="10.00" fill="grey">&#45;viewport_width</text>
</g>
<!-- Node12 -->
<g id="Node000012" class="node">
<title>Node12</title>
<g id="a_Node000012"><a xlink:href="classRenderInterface__GL3_1_1RenderLayerStack.html" target="_top" xlink:title=" ">
<polygon fill="white" stroke="transparent" points="933.5,-1113 730.5,-1113 730.5,-828 933.5,-828 933.5,-1113"/>
<text text-anchor="start" x="781" y="-1100.5" font-family="Helvetica,sans-Serif" font-size="10.00">RenderInterface_GL3</text>
<text text-anchor="start" x="785" y="-1089.5" font-family="Helvetica,sans-Serif" font-size="10.00">::RenderLayerStack</text>
<text text-anchor="start" x="830.5" y="-1074.5" font-family="Helvetica,sans-Serif" font-size="10.00"> </text>
<text text-anchor="start" x="735" y="-1059.5" font-family="Helvetica,sans-Serif" font-size="10.00">+</text>
<text text-anchor="start" x="748" y="-1059.5" font-family="Helvetica,sans-Serif" font-size="10.00">RenderLayerStack()</text>
<text text-anchor="start" x="735" y="-1044.5" font-family="Helvetica,sans-Serif" font-size="10.00">+</text>
<text text-anchor="start" x="748" y="-1044.5" font-family="Helvetica,sans-Serif" font-size="10.00">~RenderLayerStack()</text>
<text text-anchor="start" x="735" y="-1029.5" font-family="Helvetica,sans-Serif" font-size="10.00">+</text>
<text text-anchor="start" x="748" y="-1029.5" font-family="Helvetica,sans-Serif" font-size="10.00">PushLayer()</text>
<text text-anchor="start" x="735" y="-1014.5" font-family="Helvetica,sans-Serif" font-size="10.00">+</text>
<text text-anchor="start" x="748" y="-1014.5" font-family="Helvetica,sans-Serif" font-size="10.00">PopLayer()</text>
<text text-anchor="start" x="735" y="-999.5" font-family="Helvetica,sans-Serif" font-size="10.00">+</text>
<text text-anchor="start" x="748" y="-999.5" font-family="Helvetica,sans-Serif" font-size="10.00">GetLayer()</text>
<text text-anchor="start" x="735" y="-984.5" font-family="Helvetica,sans-Serif" font-size="10.00">+</text>
<text text-anchor="start" x="748" y="-984.5" font-family="Helvetica,sans-Serif" font-size="10.00">GetTopLayer()</text>
<text text-anchor="start" x="735" y="-969.5" font-family="Helvetica,sans-Serif" font-size="10.00">+</text>
<text text-anchor="start" x="748" y="-969.5" font-family="Helvetica,sans-Serif" font-size="10.00">GetTopLayerHandle()</text>
<text text-anchor="start" x="735" y="-954.5" font-family="Helvetica,sans-Serif" font-size="10.00">+</text>
<text text-anchor="start" x="748" y="-954.5" font-family="Helvetica,sans-Serif" font-size="10.00">GetPostprocessPrimary()</text>
<text text-anchor="start" x="735" y="-939.5" font-family="Helvetica,sans-Serif" font-size="10.00">+</text>
<text text-anchor="start" x="748" y="-939.5" font-family="Helvetica,sans-Serif" font-size="10.00">GetPostprocessSecondary()</text>
<text text-anchor="start" x="735" y="-924.5" font-family="Helvetica,sans-Serif" font-size="10.00">+</text>
<text text-anchor="start" x="748" y="-924.5" font-family="Helvetica,sans-Serif" font-size="10.00">GetPostprocessTertiary()</text>
<text text-anchor="start" x="735" y="-909.5" font-family="Helvetica,sans-Serif" font-size="10.00">+</text>
<text text-anchor="start" x="748" y="-909.5" font-family="Helvetica,sans-Serif" font-size="10.00">GetBlendMask()</text>
<text text-anchor="start" x="735" y="-894.5" font-family="Helvetica,sans-Serif" font-size="10.00">+</text>
<text text-anchor="start" x="748" y="-894.5" font-family="Helvetica,sans-Serif" font-size="10.00">SwapPostprocessPrimarySecondary()</text>
<text text-anchor="start" x="735" y="-879.5" font-family="Helvetica,sans-Serif" font-size="10.00">+</text>
<text text-anchor="start" x="748" y="-879.5" font-family="Helvetica,sans-Serif" font-size="10.00">BeginFrame()</text>
<text text-anchor="start" x="735" y="-864.5" font-family="Helvetica,sans-Serif" font-size="10.00">+</text>
<text text-anchor="start" x="748" y="-864.5" font-family="Helvetica,sans-Serif" font-size="10.00">EndFrame()</text>
<text text-anchor="start" x="737.5" y="-849.5" font-family="Helvetica,sans-Serif" font-size="10.00">&#45;</text>
<text text-anchor="start" x="748" y="-849.5" font-family="Helvetica,sans-Serif" font-size="10.00">DestroyFramebuffers()</text>
<text text-anchor="start" x="737.5" y="-834.5" font-family="Helvetica,sans-Serif" font-size="10.00">&#45;</text>
<text text-anchor="start" x="748" y="-834.5" font-family="Helvetica,sans-Serif" font-size="10.00">EnsureFramebufferPostprocess()</text>
<polygon fill="#666666" stroke="#666666" points="731,-1084.5 731,-1084.5 934,-1084.5 934,-1084.5 731,-1084.5"/>
<polygon fill="#666666" stroke="#666666" points="731,-1069.5 731,-1069.5 934,-1069.5 934,-1069.5 731,-1069.5"/>
<polygon fill="none" stroke="#666666" points="730.5,-828 730.5,-1113 933.5,-1113 933.5,-828 730.5,-828"/>
</a>
</g>
</g>
<!-- Node9&#45;&gt;Node12 -->
<g id="edge12_Node000012_Node000009" class="edge">
<title>Node9&#45;&gt;Node12</title>
<g id="a_edge12_Node000012_Node000009"><a xlink:title=" ">
<path fill="none" stroke="#63b8ff" d="M1185.18,-1254.89C1134.16,-1254.18 933.42,-1248.79 889,-1208 885.14,-1204.45 875.68,-1168.02 865.56,-1124.78"/>
<polygon fill="none" stroke="#63b8ff" points="865.55,-1124.73 860.3,-1119.79 862.84,-1113.04 868.09,-1117.98 865.55,-1124.73"/>
</a>
</g>
<text text-anchor="middle" x="918.5" y="-1178" font-family="Helvetica,sans-Serif" font-size="10.00" fill="grey"> &#45;height</text>
<text text-anchor="middle" x="918.5" y="-1167" font-family="Helvetica,sans-Serif" font-size="10.00" fill="grey">&#45;layers_size</text>
<text text-anchor="middle" x="918.5" y="-1156" font-family="Helvetica,sans-Serif" font-size="10.00" fill="grey">&#45;width</text>
</g>
<!-- Node14 -->
<g id="Node000014" class="node">
<title>Node14</title>
<g id="a_Node000014"><a xlink:href="structRenderInterface__GL3_1_1GLStateBackup.html" target="_top" xlink:title=" ">
<polygon fill="white" stroke="transparent" points="1196.5,-737 1083.5,-737 1083.5,-677 1196.5,-677 1196.5,-737"/>
<text text-anchor="start" x="1089" y="-725" font-family="Helvetica,sans-Serif" font-size="10.00">RenderInterface_GL3</text>
<text text-anchor="start" x="1100.5" y="-714" font-family="Helvetica,sans-Serif" font-size="10.00">::GLStateBackup</text>
<text text-anchor="start" x="1138.5" y="-699" font-family="Helvetica,sans-Serif" font-size="10.00"> </text>
<text text-anchor="start" x="1138.5" y="-684" font-family="Helvetica,sans-Serif" font-size="10.00"> </text>
<polygon fill="#666666" stroke="#666666" points="1084,-709 1084,-709 1197,-709 1197,-709 1084,-709"/>
<polygon fill="#666666" stroke="#666666" points="1084,-694 1084,-694 1197,-694 1197,-694 1084,-694"/>
<polygon fill="none" stroke="#666666" points="1083.5,-677 1083.5,-737 1196.5,-737 1196.5,-677 1083.5,-677"/>
</a>
</g>
</g>
<!-- Node9&#45;&gt;Node14 -->
<g id="edge16_Node000014_Node000009" class="edge">
<title>Node9&#45;&gt;Node14</title>
<g id="a_edge16_Node000014_Node000009"><a xlink:title=" ">
<path fill="none" stroke="#63b8ff" d="M1208.56,-1249.63C1240.94,-1233.92 1332.83,-1184.55 1373,-1113 1412.19,-1043.2 1467.1,-814.01 1413,-755 1383.93,-723.29 1268.19,-744.97 1208.91,-736.67"/>
<polygon fill="none" stroke="#63b8ff" points="1208.61,-736.62 1201.96,-739.4 1196.83,-734.33 1203.48,-731.55 1208.61,-736.62"/>
</a>
</g>
<text text-anchor="middle" x="1493" y="-1023" font-family="Helvetica,sans-Serif" font-size="10.00" fill="grey"> +active_texture</text>
<text text-anchor="middle" x="1493" y="-1012" font-family="Helvetica,sans-Serif" font-size="10.00" fill="grey">+blend_dst_alpha</text>
<text text-anchor="middle" x="1493" y="-1001" font-family="Helvetica,sans-Serif" font-size="10.00" fill="grey">+blend_dst_rgb</text>
<text text-anchor="middle" x="1493" y="-990" font-family="Helvetica,sans-Serif" font-size="10.00" fill="grey">+blend_equation_alpha</text>
<text text-anchor="middle" x="1493" y="-979" font-family="Helvetica,sans-Serif" font-size="10.00" fill="grey">+blend_equation_rgb</text>
<text text-anchor="middle" x="1493" y="-968" font-family="Helvetica,sans-Serif" font-size="10.00" fill="grey">+blend_src_alpha</text>
<text text-anchor="middle" x="1493" y="-957" font-family="Helvetica,sans-Serif" font-size="10.00" fill="grey">+blend_src_rgb</text>
<text text-anchor="middle" x="1493" y="-946" font-family="Helvetica,sans-Serif" font-size="10.00" fill="grey">+scissor</text>
<text text-anchor="middle" x="1493" y="-935" font-family="Helvetica,sans-Serif" font-size="10.00" fill="grey">+stencil_clear_value</text>
<text text-anchor="middle" x="1493" y="-924" font-family="Helvetica,sans-Serif" font-size="10.00" fill="grey">+viewport</text>
<text text-anchor="middle" x="1493" y="-913" font-family="Helvetica,sans-Serif" font-size="10.00" fill="grey">...</text>
</g>
<!-- Node18 -->
<g id="Node000018" class="node">
<title>Node18</title>
<g id="a_Node000018"><a xlink:href="structRenderInterface__GL3_1_1GLStateBackup_1_1Stencil.html" target="_top" xlink:title=" ">
<polygon fill="white" stroke="transparent" points="1695.5,-1000.5 1566.5,-1000.5 1566.5,-940.5 1695.5,-940.5 1695.5,-1000.5"/>
<text text-anchor="start" x="1572" y="-988.5" font-family="Helvetica,sans-Serif" font-size="10.00">RenderInterface_GL3</text>
<text text-anchor="start" x="1572" y="-977.5" font-family="Helvetica,sans-Serif" font-size="10.00">::GLStateBackup::Stencil</text>
<text text-anchor="start" x="1629.5" y="-962.5" font-family="Helvetica,sans-Serif" font-size="10.00"> </text>
<text text-anchor="start" x="1629.5" y="-947.5" font-family="Helvetica,sans-Serif" font-size="10.00"> </text>
<polygon fill="#666666" stroke="#666666" points="1567,-972.5 1567,-972.5 1696,-972.5 1696,-972.5 1567,-972.5"/>
<polygon fill="#666666" stroke="#666666" points="1567,-957.5 1567,-957.5 1696,-957.5 1696,-957.5 1567,-957.5"/>
<polygon fill="none" stroke="#666666" points="1566.5,-940.5 1566.5,-1000.5 1695.5,-1000.5 1695.5,-940.5 1566.5,-940.5"/>
</a>
</g>
</g>
<!-- Node9&#45;&gt;Node18 -->
<g id="edge20_Node000018_Node000009" class="edge">
<title>Node9&#45;&gt;Node18</title>
<g id="a_edge20_Node000018_Node000009"><a xlink:title=" ">
<path fill="none" stroke="#63b8ff" d="M1208.6,-1254.98C1245.4,-1254.47 1361.98,-1249.49 1446,-1208 1529.74,-1166.65 1586.88,-1067.35 1613.64,-1011.46"/>
<polygon fill="none" stroke="#63b8ff" points="1613.65,-1011.43 1612.57,-1004.3 1618.73,-1000.56 1619.81,-1007.69 1613.65,-1011.43"/>
</a>
</g>
<text text-anchor="middle" x="1579" y="-1200" font-family="Helvetica,sans-Serif" font-size="10.00" fill="grey"> +fail</text>
<text text-anchor="middle" x="1579" y="-1189" font-family="Helvetica,sans-Serif" font-size="10.00" fill="grey">+func</text>
<text text-anchor="middle" x="1579" y="-1178" font-family="Helvetica,sans-Serif" font-size="10.00" fill="grey">+pass_depth_fail</text>
<text text-anchor="middle" x="1579" y="-1167" font-family="Helvetica,sans-Serif" font-size="10.00" fill="grey">+pass_depth_pass</text>
<text text-anchor="middle" x="1579" y="-1156" font-family="Helvetica,sans-Serif" font-size="10.00" fill="grey">+ref</text>
<text text-anchor="middle" x="1579" y="-1145" font-family="Helvetica,sans-Serif" font-size="10.00" fill="grey">+value_mask</text>
<text text-anchor="middle" x="1579" y="-1134" font-family="Helvetica,sans-Serif" font-size="10.00" fill="grey">+writemask</text>
</g>
<!-- Node10 -->
<g id="Node000010" class="node">
<title>Node10</title>
<g id="a_Node000010"><a xlink:title=" ">
<polygon fill="white" stroke="transparent" points="1355,-731.5 1215,-731.5 1215,-682.5 1355,-682.5 1355,-731.5"/>
<text text-anchor="start" x="1220" y="-719" font-family="Helvetica,sans-Serif" font-size="10.00">CompiledGeometryHandle</text>
<text text-anchor="start" x="1283" y="-704" font-family="Helvetica,sans-Serif" font-size="10.00"> </text>
<text text-anchor="start" x="1283" y="-689" font-family="Helvetica,sans-Serif" font-size="10.00"> </text>
<polygon fill="#666666" stroke="#666666" points="1215,-714 1215,-714 1355,-714 1355,-714 1215,-714"/>
<polygon fill="#666666" stroke="#666666" points="1215,-699 1215,-699 1355,-699 1355,-699 1215,-699"/>
<polygon fill="none" stroke="#666666" points="1215,-682.5 1215,-731.5 1355,-731.5 1355,-682.5 1215,-682.5"/>
</a>
</g>
</g>
<!-- Node10&#45;&gt;Node1 -->
<g id="edge9_Node000001_Node000010" class="edge">
<title>Node10&#45;&gt;Node1</title>
<g id="a_edge9_Node000001_Node000010"><a xlink:title=" ">
<path fill="none" stroke="#63b8ff" d="M1251.94,-682.44C1170.49,-624.4 957.52,-472.63 830.2,-381.91"/>
<polygon fill="none" stroke="#63b8ff" points="829.83,-381.64 822.62,-381.41 820.05,-374.67 827.26,-374.9 829.83,-381.64"/>
</a>
</g>
<text text-anchor="middle" x="1284.5" y="-645.5" font-family="Helvetica,sans-Serif" font-size="10.00" fill="grey"> &#45;fullscreen_quad_geometry</text>
</g>
<!-- Node11 -->
<g id="Node000011" class="node">
<title>Node11</title>
<g id="a_Node000011"><a xlink:title=" ">
<polygon fill="white" stroke="transparent" points="1496,-737 1380,-737 1380,-677 1496,-677 1496,-737"/>
<text text-anchor="start" x="1385" y="-725" font-family="Helvetica,sans-Serif" font-size="10.00">UniquePtr&lt; const Gfx</text>
<text text-anchor="start" x="1397" y="-714" font-family="Helvetica,sans-Serif" font-size="10.00">::ProgramData &gt;</text>
<text text-anchor="start" x="1436" y="-699" font-family="Helvetica,sans-Serif" font-size="10.00"> </text>
<text text-anchor="start" x="1436" y="-684" font-family="Helvetica,sans-Serif" font-size="10.00"> </text>
<polygon fill="#666666" stroke="#666666" points="1380,-709 1380,-709 1496,-709 1496,-709 1380,-709"/>
<polygon fill="#666666" stroke="#666666" points="1380,-694 1380,-694 1496,-694 1496,-694 1380,-694"/>
<polygon fill="none" stroke="#666666" points="1380,-677 1380,-737 1496,-737 1496,-677 1380,-677"/>
</a>
</g>
</g>
<!-- Node11&#45;&gt;Node1 -->
<g id="edge10_Node000001_Node000011" class="edge">
<title>Node11&#45;&gt;Node1</title>
<g id="a_edge10_Node000001_Node000011"><a xlink:title=" ">
<path fill="none" stroke="#63b8ff" d="M1407,-676.72C1392.44,-663.74 1374.47,-648.77 1357,-637 1181.75,-518.94 958.61,-411.99 831.27,-354.62"/>
<polygon fill="none" stroke="#63b8ff" points="830.96,-354.47 823.85,-355.67 820.01,-349.56 827.12,-348.37 830.96,-354.47"/>
</a>
</g>
<text text-anchor="middle" x="1423" y="-645.5" font-family="Helvetica,sans-Serif" font-size="10.00" fill="grey"> &#45;program_data</text>
</g>
<!-- Node12&#45;&gt;Node1 -->
<g id="edge11_Node000001_Node000012" class="edge">
<title>Node12&#45;&gt;Node1</title>
<g id="a_edge11_Node000001_Node000012"><a xlink:title=" ">
<path fill="none" stroke="#63b8ff" d="M855.3,-827.86C861.25,-768.52 863.21,-699.03 852,-637 845.59,-601.54 835.56,-564.9 823.94,-529.56"/>
<polygon fill="none" stroke="#63b8ff" points="823.93,-529.52 818.23,-525.1 820.12,-518.14 825.81,-522.56 823.93,-529.52"/>
</a>
</g>
<text text-anchor="middle" x="897" y="-704.5" font-family="Helvetica,sans-Serif" font-size="10.00" fill="grey"> &#45;render_layers</text>
</g>
<!-- Node13 -->
<g id="Node000013" class="node">
<title>Node13</title>
<g id="a_Node000013"><a xlink:title=" ">
<polygon fill="white" stroke="transparent" points="854.5,-1286 719.5,-1286 719.5,-1226 854.5,-1226 854.5,-1286"/>
<text text-anchor="start" x="725" y="-1274" font-family="Helvetica,sans-Serif" font-size="10.00">Vector&lt; Gfx::Framebuffer</text>
<text text-anchor="start" x="770" y="-1263" font-family="Helvetica,sans-Serif" font-size="10.00">Data &gt;</text>
<text text-anchor="start" x="785.5" y="-1248" font-family="Helvetica,sans-Serif" font-size="10.00"> </text>
<text text-anchor="start" x="785.5" y="-1233" font-family="Helvetica,sans-Serif" font-size="10.00"> </text>
<polygon fill="#666666" stroke="#666666" points="720,-1258 720,-1258 855,-1258 855,-1258 720,-1258"/>
<polygon fill="#666666" stroke="#666666" points="720,-1243 720,-1243 855,-1243 855,-1243 720,-1243"/>
<polygon fill="none" stroke="#666666" points="719.5,-1226 719.5,-1286 854.5,-1286 854.5,-1226 719.5,-1226"/>
</a>
</g>
</g>
<!-- Node13&#45;&gt;Node12 -->
<g id="edge13_Node000012_Node000013" class="edge">
<title>Node13&#45;&gt;Node12</title>
<g id="a_edge13_Node000012_Node000013"><a xlink:title=" ">
<path fill="none" stroke="#63b8ff" d="M785.1,-1225.78C783.97,-1200.55 783.51,-1163.2 788,-1131 788.27,-1129.09 788.55,-1127.16 788.85,-1125.23"/>
<polygon fill="none" stroke="#63b8ff" points="788.87,-1125.12 785.92,-1118.54 790.87,-1113.29 793.81,-1119.87 788.87,-1125.12"/>
</a>
</g>
<text text-anchor="middle" x="827" y="-1172.5" font-family="Helvetica,sans-Serif" font-size="10.00" fill="grey"> &#45;fb_layers</text>
<text text-anchor="middle" x="827" y="-1161.5" font-family="Helvetica,sans-Serif" font-size="10.00" fill="grey">&#45;fb_postprocess</text>
</g>
<!-- Node14&#45;&gt;Node1 -->
<g id="edge14_Node000001_Node000014" class="edge">
<title>Node14&#45;&gt;Node1</title>
<g id="a_edge14_Node000001_Node000014"><a xlink:title=" ">
<path fill="none" stroke="#63b8ff" d="M1109.85,-676.92C1051.45,-620.58 920.57,-494.33 828.85,-405.85"/>
<polygon fill="none" stroke="#63b8ff" points="828.74,-405.74 821.64,-404.46 820.1,-397.41 827.19,-398.7 828.74,-405.74"/>
</a>
</g>
<text text-anchor="middle" x="1129.5" y="-645.5" font-family="Helvetica,sans-Serif" font-size="10.00" fill="grey"> &#45;glstate_backup</text>
</g>
<!-- Node15 -->
<g id="Node000015" class="node">
<title>Node15</title>
<g id="a_Node000015"><a xlink:title=" ">
<polygon fill="white" stroke="transparent" points="1092,-995 1060,-995 1060,-946 1092,-946 1092,-995"/>
<text text-anchor="start" x="1065" y="-982.5" font-family="Helvetica,sans-Serif" font-size="10.00">bool</text>
<text text-anchor="start" x="1074" y="-967.5" font-family="Helvetica,sans-Serif" font-size="10.00"> </text>
<text text-anchor="start" x="1074" y="-952.5" font-family="Helvetica,sans-Serif" font-size="10.00"> </text>
<polygon fill="#666666" stroke="#666666" points="1060,-977.5 1060,-977.5 1092,-977.5 1092,-977.5 1060,-977.5"/>
<polygon fill="#666666" stroke="#666666" points="1060,-962.5 1060,-962.5 1092,-962.5 1092,-962.5 1060,-962.5"/>
<polygon fill="none" stroke="#666666" points="1060,-946 1060,-995 1092,-995 1092,-946 1060,-946"/>
</a>
</g>
</g>
<!-- Node15&#45;&gt;Node14 -->
<g id="edge15_Node000014_Node000015" class="edge">
<title>Node15&#45;&gt;Node14</title>
<g id="a_edge15_Node000014_Node000015"><a xlink:title=" ">
<path fill="none" stroke="#63b8ff" d="M1069.58,-945.7C1059.78,-904.35 1045.38,-817.67 1077,-755 1078.58,-751.86 1080.49,-748.87 1082.63,-746.05"/>
<polygon fill="none" stroke="#63b8ff" points="1082.71,-745.96 1083.74,-738.82 1090.73,-737.03 1089.69,-744.17 1082.71,-745.96"/>
</a>
</g>
<text text-anchor="middle" x="1129.5" y="-802" font-family="Helvetica,sans-Serif" font-size="10.00" fill="grey"> +enable_blend</text>
<text text-anchor="middle" x="1129.5" y="-791" font-family="Helvetica,sans-Serif" font-size="10.00" fill="grey">+enable_cull_face</text>
<text text-anchor="middle" x="1129.5" y="-780" font-family="Helvetica,sans-Serif" font-size="10.00" fill="grey">+enable_depth_test</text>
<text text-anchor="middle" x="1129.5" y="-769" font-family="Helvetica,sans-Serif" font-size="10.00" fill="grey">+enable_scissor_test</text>
<text text-anchor="middle" x="1129.5" y="-758" font-family="Helvetica,sans-Serif" font-size="10.00" fill="grey">+enable_stencil_test</text>
</g>
<!-- Node16 -->
<g id="Node000016" class="node">
<title>Node16</title>
<g id="a_Node000016"><a xlink:title=" ">
<polygon fill="white" stroke="transparent" points="1220,-995 1188,-995 1188,-946 1220,-946 1220,-995"/>
<text text-anchor="start" x="1193" y="-982.5" font-family="Helvetica,sans-Serif" font-size="10.00">float</text>
<text text-anchor="start" x="1202" y="-967.5" font-family="Helvetica,sans-Serif" font-size="10.00"> </text>
<text text-anchor="start" x="1202" y="-952.5" font-family="Helvetica,sans-Serif" font-size="10.00"> </text>
<polygon fill="#666666" stroke="#666666" points="1188,-977.5 1188,-977.5 1220,-977.5 1220,-977.5 1188,-977.5"/>
<polygon fill="#666666" stroke="#666666" points="1188,-962.5 1188,-962.5 1220,-962.5 1220,-962.5 1188,-962.5"/>
<polygon fill="none" stroke="#666666" points="1188,-946 1188,-995 1220,-995 1220,-946 1188,-946"/>
</a>
</g>
</g>
<!-- Node16&#45;&gt;Node14 -->
<g id="edge17_Node000014_Node000016" class="edge">
<title>Node16&#45;&gt;Node14</title>
<g id="a_edge17_Node000014_Node000016"><a xlink:title=" ">
<path fill="none" stroke="#63b8ff" d="M1206.18,-945.76C1208.96,-904.88 1210.42,-819.38 1182,-755 1180.83,-752.34 1179.44,-749.72 1177.91,-747.17"/>
<polygon fill="none" stroke="#63b8ff" points="1177.75,-746.95 1171.03,-744.32 1170.87,-737.11 1177.59,-739.74 1177.75,-746.95"/>
</a>
</g>
<text text-anchor="middle" x="1245.5" y="-780" font-family="Helvetica,sans-Serif" font-size="10.00" fill="grey"> +color_clear_value</text>
</g>
<!-- Node17 -->
<g id="Node000017" class="node">
<title>Node17</title>
<g id="a_Node000017"><a xlink:title=" ">
<polygon fill="white" stroke="transparent" points="1363.5,-995 1284.5,-995 1284.5,-946 1363.5,-946 1363.5,-995"/>
<text text-anchor="start" x="1290" y="-982.5" font-family="Helvetica,sans-Serif" font-size="10.00">unsigned char</text>
<text text-anchor="start" x="1322.5" y="-967.5" font-family="Helvetica,sans-Serif" font-size="10.00"> </text>
<text text-anchor="start" x="1322.5" y="-952.5" font-family="Helvetica,sans-Serif" font-size="10.00"> </text>
<polygon fill="#666666" stroke="#666666" points="1285,-977.5 1285,-977.5 1364,-977.5 1364,-977.5 1285,-977.5"/>
<polygon fill="#666666" stroke="#666666" points="1285,-962.5 1285,-962.5 1364,-962.5 1364,-962.5 1285,-962.5"/>
<polygon fill="none" stroke="#666666" points="1284.5,-946 1284.5,-995 1363.5,-995 1363.5,-946 1284.5,-946"/>
</a>
</g>
</g>
<!-- Node17&#45;&gt;Node14 -->
<g id="edge18_Node000014_Node000017" class="edge">
<title>Node17&#45;&gt;Node14</title>
<g id="a_edge18_Node000014_Node000017"><a xlink:title=" ">
<path fill="none" stroke="#63b8ff" d="M1324.5,-945.65C1325.01,-895.64 1323.29,-782.2 1298,-755 1271.95,-726.99 1249.7,-745.73 1208.19,-736.89"/>
<polygon fill="none" stroke="#63b8ff" points="1208.17,-736.89 1201.35,-739.21 1196.58,-733.81 1203.4,-731.48 1208.17,-736.89"/>
</a>
</g>
<text text-anchor="middle" x="1362.5" y="-780" font-family="Helvetica,sans-Serif" font-size="10.00" fill="grey"> +color_writemask</text>
</g>
<!-- Node18&#45;&gt;Node14 -->
<g id="edge19_Node000014_Node000018" class="edge">
<title>Node18&#45;&gt;Node14</title>
<g id="a_edge19_Node000014_Node000018"><a xlink:title=" ">
<path fill="none" stroke="#63b8ff" d="M1619.52,-940.47C1606.46,-910.01 1582.87,-861.91 1552,-828 1513.49,-785.7 1499.95,-774.02 1446,-755 1348.77,-720.72 1312.43,-759.85 1208.77,-737.19"/>
<polygon fill="none" stroke="#63b8ff" points="1208.5,-737.13 1201.74,-739.64 1196.82,-734.37 1203.58,-731.86 1208.5,-737.13"/>
</a>
</g>
<text text-anchor="middle" x="1571.5" y="-785.5" font-family="Helvetica,sans-Serif" font-size="10.00" fill="grey"> +stencil_back</text>
<text text-anchor="middle" x="1571.5" y="-774.5" font-family="Helvetica,sans-Serif" font-size="10.00" fill="grey">+stencil_front</text>
</g>
</g>
</svg>

<g id="navigator" transform="translate(0 0)" fill="#404254">
  <rect fill="#f2f5e9" fill-opacity="0.5" stroke="#606060" stroke-width=".5" x="0" y="0" width="60" height="60"/>
  <use id="zoomplus" xlink:href="#zoomPlus" x="17" y="9" onmousedown="handleZoom(evt,'in')"/>
  <use id="zoomminus" xlink:href="#zoomMin" x="42" y="9" onmousedown="handleZoom(evt,'out')"/>
  <use id="reset" xlink:href="#resetDef" x="30" y="36" onmousedown="handleReset()"/>
   <use id="arrowup" xlink:href="#arrowUp" x="0" y="0" onmousedown="handlePan(0,-1)"/>
  <use id="arrowright" xlink:href="#arrowRight" x="0" y="0" onmousedown="handlePan(1,0)"/>
  <use id="arrowdown" xlink:href="#arrowDown" x="0" y="0" onmousedown="handlePan(0,1)"/>
  <use id="arrowleft" xlink:href="#arrowLeft" x="0" y="0" onmousedown="handlePan(-1,0)"/>
</g>
<svg viewBox="0 0 15 15" width="100%" height="30px" preserveAspectRatio="xMaxYMin meet">
 <g id="arrow_out" transform="scale(0.3 0.3)">
  <a xlink:href="classRenderInterface__GL3__coll__graph_org.svg" target="_base">
   <rect id="button" ry="5" rx="5" y="6" x="6" height="38" width="38"
        fill="#f2f5e9" fill-opacity="0.5" stroke="#606060" stroke-width="1.0"/>
   <path id="arrow"
     d="M 11.500037,31.436501 C 11.940474,20.09759 22.043105,11.32322 32.158766,21.979434 L 37.068811,17.246167 C 37.068811,17.246167 37.088388,32 37.088388,32 L 22.160133,31.978069 C 22.160133,31.978069 26.997745,27.140456 26.997745,27.140456 C 18.528582,18.264221 13.291696,25.230495 11.500037,31.436501 z"
     style="fill:#404040;"/>
  </a>
 </g>
</svg>

<style type='text/css'>
<![CDATA[
[data-mouse-over-selected='false'] { opacity: 0.7; }
[data-mouse-over-selected='true']  { opacity: 1.0; }
]]>
</style>
<script type="application/ecmascript"><![CDATA[
document.addEventListener('DOMContentLoaded', (event) => {
  highlightEdges();
  highlightAdjacentNodes();
});
]]></script>
</svg>
