<?xml version="1.0" encoding="UTF-8" standalone="no"?>
<!DOCTYPE svg PUBLIC "-//W3C//DTD SVG 1.1//EN"
 "http://www.w3.org/Graphics/SVG/1.1/DTD/svg11.dtd">
<!-- Generated by graphviz version 2.43.0 (0)
 -->
<!-- Title: ElementEdit Pages: 1 -->
<!--zoomable 641 -->

<svg id="main" version="1.1" xmlns="http://www.w3.org/2000/svg" xmlns:xlink="http://www.w3.org/1999/xlink" xml:space="preserve" onload="init(evt)">
<style type="text/css"><![CDATA[
.node, .edge {opacity: 0.7;}
.node.selected, .edge.selected {opacity: 1;}
.edge:hover path { stroke: red; }
.edge:hover polygon { stroke: red; fill: red; }
]]></style>

<defs>
  <circle id="rim" cx="0" cy="0" r="7"/>
  <circle id="rim2" cx="0" cy="0" r="3.5"/>
  <g id="zoomPlus">
    <use xlink:href="#rim" fill="#404040"><set attributeName="fill" to="#808080" begin="zoomplus.mouseover" end="zoomplus.mouseout"/></use>
    <path d="M-4,0h8M0,-4v8" fill="none" stroke="white" stroke-width="1.5" pointer-events="none"/>
  </g>
  <g id="zoomMin">
    <use xlink:href="#rim" fill="#404040"><set attributeName="fill" to="#808080" begin="zoomminus.mouseover" end="zoomminus.mouseout"/></use>
    <path d="M-4,0h8" fill="none" stroke="white" stroke-width="1.5" pointer-events="none"/>
  </g>
  <g id="arrowUp" transform="translate(30 24)">
    <use xlink:href="#rim"/>
    <path pointer-events="none" fill="none" stroke="white" stroke-width="1.5" d="M0,-3.0v7 M-2.5,-0.5L0,-3.0L2.5,-0.5"/>
  </g>
  <g id="arrowRight" transform="rotate(90) translate(36 -43)">
    <use xlink:href="#rim"/>
    <path pointer-events="none" fill="none" stroke="white" stroke-width="1.5" d="M0,-3.0v7 M-2.5,-0.5L0,-3.0L2.5,-0.5"/>
  </g>
  <g id="arrowDown" transform="rotate(180) translate(-30 -48)">
    <use xlink:href="#rim"/>
    <path pointer-events="none" fill="none" stroke="white" stroke-width="1.5" d="M0,-3.0v7 M-2.5,-0.5L0,-3.0L2.5,-0.5"/>
  </g>
  <g id="arrowLeft" transform="rotate(270) translate(-36 17)">
    <use xlink:href="#rim"/>
    <path pointer-events="none" fill="none" stroke="white" stroke-width="1.5" d="M0,-3.0v7 M-2.5,-0.5L0,-3.0L2.5,-0.5"/>
  </g>
  <g id="resetDef">
    <use xlink:href="#rim2" fill="#404040"><set attributeName="fill" to="#808080" begin="reset.mouseover" end="reset.mouseout"/></use>
  </g>
</defs>
<script type="application/ecmascript">
var viewWidth = 444;
var viewHeight = 641;
var sectionId = 'dynsection-1';
</script>
<script type="application/ecmascript" xlink:href="svg.min.js"/>
<svg id="graph" class="graph">
<g id="viewport">
<title>ElementEdit</title>
<!-- Node1 -->
<g id="Node000001" class="node">
<title>Node1</title>
<g id="a_Node000001"><a xlink:title=" ">
<polygon fill="#999999" stroke="transparent" points="200.5,-139 92.5,-139 92.5,0 200.5,0 200.5,-139"/>
<text text-anchor="start" x="116.5" y="-126.5" font-family="Helvetica,sans-Serif" font-size="10.00">ElementEdit</text>
<text text-anchor="start" x="144.5" y="-111.5" font-family="Helvetica,sans-Serif" font-size="10.00"> </text>
<text text-anchor="start" x="96.5" y="-96.5" font-family="Helvetica,sans-Serif" font-size="10.00">+</text>
<text text-anchor="start" x="109.5" y="-96.5" font-family="Helvetica,sans-Serif" font-size="10.00">ElementEdit()</text>
<text text-anchor="start" x="96.5" y="-81.5" font-family="Helvetica,sans-Serif" font-size="10.00">+</text>
<text text-anchor="start" x="109.5" y="-81.5" font-family="Helvetica,sans-Serif" font-size="10.00">~ElementEdit()</text>
<text text-anchor="start" x="96.5" y="-66.5" font-family="Helvetica,sans-Serif" font-size="10.00">+</text>
<text text-anchor="start" x="109.5" y="-66.5" font-family="Helvetica,sans-Serif" font-size="10.00">OnChildAdd()</text>
<text text-anchor="start" x="96.5" y="-51.5" font-family="Helvetica,sans-Serif" font-size="10.00">+</text>
<text text-anchor="start" x="109.5" y="-51.5" font-family="Helvetica,sans-Serif" font-size="10.00">OnChildRemove()</text>
<text text-anchor="start" x="96.5" y="-36.5" font-family="Helvetica,sans-Serif" font-size="10.00">+</text>
<text text-anchor="start" x="109.5" y="-36.5" font-family="Helvetica,sans-Serif" font-size="10.00">ProcessEvent()</text>
<text text-anchor="start" x="96.5" y="-21.5" font-family="Helvetica,sans-Serif" font-size="10.00">#</text>
<text text-anchor="start" x="109.5" y="-21.5" font-family="Helvetica,sans-Serif" font-size="10.00">OnUpdate()</text>
<text text-anchor="start" x="96.5" y="-6.5" font-family="Helvetica,sans-Serif" font-size="10.00">#</text>
<text text-anchor="start" x="109.5" y="-6.5" font-family="Helvetica,sans-Serif" font-size="10.00">OnRender()</text>
<polygon fill="#666666" stroke="#666666" points="92.5,-121.5 92.5,-121.5 200.5,-121.5 200.5,-121.5 92.5,-121.5"/>
<polygon fill="#666666" stroke="#666666" points="92.5,-106.5 92.5,-106.5 200.5,-106.5 200.5,-106.5 92.5,-106.5"/>
<polygon fill="none" stroke="#666666" points="92.5,0 92.5,-139 200.5,-139 200.5,0 92.5,0"/>
</a>
</g>
</g>
<!-- Node2 -->
<g id="Node000002" class="node">
<title>Node2</title>
<g id="a_Node000002"><a xlink:title=" ">
<polygon fill="white" stroke="transparent" points="77,-287.5 0,-287.5 0,-238.5 77,-238.5 77,-287.5"/>
<text text-anchor="start" x="5.5" y="-275" font-family="Helvetica,sans-Serif" font-size="10.00">Rml::Element</text>
<text text-anchor="start" x="37" y="-260" font-family="Helvetica,sans-Serif" font-size="10.00"> </text>
<text text-anchor="start" x="37" y="-245" font-family="Helvetica,sans-Serif" font-size="10.00"> </text>
<polygon fill="#666666" stroke="#666666" points="0.5,-270 0.5,-270 77.5,-270 77.5,-270 0.5,-270"/>
<polygon fill="#666666" stroke="#666666" points="0.5,-255 0.5,-255 77.5,-255 77.5,-255 0.5,-255"/>
<polygon fill="none" stroke="#666666" points="0,-238.5 0,-287.5 77,-287.5 77,-238.5 0,-238.5"/>
</a>
</g>
</g>
<!-- Node2&#45;&gt;Node1 -->
<g id="edge1_Node000001_Node000002" class="edge">
<title>Node2&#45;&gt;Node1</title>
<g id="a_edge1_Node000001_Node000002"><a xlink:title=" ">
<path fill="none" stroke="#63b8ff" d="M57,-229.2C70.9,-204.55 90.45,-169.89 107.73,-139.25"/>
<polygon fill="none" stroke="#63b8ff" points="53.82,-227.7 51.96,-238.13 59.92,-231.14 53.82,-227.7"/>
</a>
</g>
</g>
<!-- Node3 -->
<g id="Node000003" class="node">
<title>Node3</title>
<g id="a_Node000003"><a xlink:title=" ">
<polygon fill="white" stroke="transparent" points="198,-287.5 95,-287.5 95,-238.5 198,-238.5 198,-287.5"/>
<text text-anchor="start" x="100.5" y="-275" font-family="Helvetica,sans-Serif" font-size="10.00">Rml::EventListener</text>
<text text-anchor="start" x="145" y="-260" font-family="Helvetica,sans-Serif" font-size="10.00"> </text>
<text text-anchor="start" x="145" y="-245" font-family="Helvetica,sans-Serif" font-size="10.00"> </text>
<polygon fill="#666666" stroke="#666666" points="95.5,-270 95.5,-270 198.5,-270 198.5,-270 95.5,-270"/>
<polygon fill="#666666" stroke="#666666" points="95.5,-255 95.5,-255 198.5,-255 198.5,-255 95.5,-255"/>
<polygon fill="none" stroke="#666666" points="95,-238.5 95,-287.5 198,-287.5 198,-238.5 95,-238.5"/>
</a>
</g>
</g>
<!-- Node3&#45;&gt;Node1 -->
<g id="edge2_Node000001_Node000003" class="edge">
<title>Node3&#45;&gt;Node1</title>
<g id="a_edge2_Node000001_Node000003"><a xlink:title=" ">
<path fill="none" stroke="#63b8ff" d="M146.5,-227.89C146.5,-203.33 146.5,-169.35 146.5,-139.25"/>
<polygon fill="none" stroke="#63b8ff" points="143,-228.13 146.5,-238.13 150,-228.13 143,-228.13"/>
</a>
</g>
</g>
<!-- Node4 -->
<g id="Node000004" class="node">
<title>Node4</title>
<g id="a_Node000004"><a xlink:href="classEditViewModel.html" target="_top" xlink:title=" ">
<polygon fill="white" stroke="transparent" points="346.5,-340 216.5,-340 216.5,-186 346.5,-186 346.5,-340"/>
<text text-anchor="start" x="245" y="-328" font-family="Helvetica,sans-Serif" font-size="10.00">EditViewModel</text>
<text text-anchor="start" x="279.5" y="-313" font-family="Helvetica,sans-Serif" font-size="10.00"> </text>
<text text-anchor="start" x="220.5" y="-298" font-family="Helvetica,sans-Serif" font-size="10.00">+</text>
<text text-anchor="start" x="233.5" y="-298" font-family="Helvetica,sans-Serif" font-size="10.00">RegisterKey()</text>
<text text-anchor="start" x="220.5" y="-283" font-family="Helvetica,sans-Serif" font-size="10.00">+</text>
<text text-anchor="start" x="233.5" y="-283" font-family="Helvetica,sans-Serif" font-size="10.00">ResetNewShortCut()</text>
<text text-anchor="start" x="220.5" y="-268" font-family="Helvetica,sans-Serif" font-size="10.00">+</text>
<text text-anchor="start" x="233.5" y="-268" font-family="Helvetica,sans-Serif" font-size="10.00">GetNewShortCut()</text>
<text text-anchor="start" x="220.5" y="-253" font-family="Helvetica,sans-Serif" font-size="10.00">+</text>
<text text-anchor="start" x="233.5" y="-253" font-family="Helvetica,sans-Serif" font-size="10.00">SetSelectedShortCut()</text>
<text text-anchor="start" x="220.5" y="-238" font-family="Helvetica,sans-Serif" font-size="10.00">+</text>
<text text-anchor="start" x="233.5" y="-238" font-family="Helvetica,sans-Serif" font-size="10.00">GetSelectedShortCut()</text>
<text text-anchor="start" x="220.5" y="-223" font-family="Helvetica,sans-Serif" font-size="10.00">+</text>
<text text-anchor="start" x="233.5" y="-223" font-family="Helvetica,sans-Serif" font-size="10.00">Instance()</text>
<text text-anchor="start" x="220.5" y="-208" font-family="Helvetica,sans-Serif" font-size="10.00">#</text>
<text text-anchor="start" x="233.5" y="-208" font-family="Helvetica,sans-Serif" font-size="10.00">EditViewModel()</text>
<text text-anchor="start" x="220.5" y="-193" font-family="Helvetica,sans-Serif" font-size="10.00">#</text>
<text text-anchor="start" x="233.5" y="-193" font-family="Helvetica,sans-Serif" font-size="10.00">~EditViewModel()</text>
<polygon fill="#666666" stroke="#666666" points="216.5,-323 216.5,-323 346.5,-323 346.5,-323 216.5,-323"/>
<polygon fill="#666666" stroke="#666666" points="216.5,-308 216.5,-308 346.5,-308 346.5,-308 216.5,-308"/>
<polygon fill="none" stroke="#666666" points="216.5,-186 216.5,-340 346.5,-340 346.5,-186 216.5,-186"/>
</a>
</g>
</g>
<!-- Node4&#45;&gt;Node1 -->
<g id="edge3_Node000001_Node000004" class="edge">
<title>Node4&#45;&gt;Node1</title>
<g id="a_edge3_Node000001_Node000004"><a xlink:title=" ">
<path fill="none" stroke="#63b8ff" d="M227.76,-185.76C219.25,-173.7 210.45,-161.21 201.91,-149.1"/>
<polygon fill="none" stroke="#63b8ff" points="201.73,-148.84 195,-146.24 194.81,-139.03 201.54,-141.63 201.73,-148.84"/>
</a>
</g>
<text text-anchor="middle" x="244.5" y="-160" font-family="Helvetica,sans-Serif" font-size="10.00" fill="grey"> &#45;viewModel</text>
</g>
<!-- Node5 -->
<g id="Node000005" class="node">
<title>Node5</title>
<g id="a_Node000005"><a xlink:title=" ">
<polygon fill="white" stroke="transparent" points="307,-633 204,-633 204,-573 307,-573 307,-633"/>
<text text-anchor="start" x="209.5" y="-621" font-family="Helvetica,sans-Serif" font-size="10.00">vector&lt; Rml::Input</text>
<text text-anchor="start" x="216.5" y="-610" font-family="Helvetica,sans-Serif" font-size="10.00">::KeyIdentifier &gt;</text>
<text text-anchor="start" x="254" y="-595" font-family="Helvetica,sans-Serif" font-size="10.00"> </text>
<text text-anchor="start" x="254" y="-580" font-family="Helvetica,sans-Serif" font-size="10.00"> </text>
<polygon fill="#666666" stroke="#666666" points="204.5,-605 204.5,-605 307.5,-605 307.5,-605 204.5,-605"/>
<polygon fill="#666666" stroke="#666666" points="204.5,-590 204.5,-590 307.5,-590 307.5,-590 204.5,-590"/>
<polygon fill="none" stroke="#666666" points="204,-573 204,-633 307,-633 307,-573 204,-573"/>
</a>
</g>
</g>
<!-- Node5&#45;&gt;Node4 -->
<g id="edge4_Node000004_Node000005" class="edge">
<title>Node5&#45;&gt;Node4</title>
<g id="a_edge4_Node000004_Node000005"><a xlink:title=" ">
<path fill="none" stroke="#63b8ff" d="M252.65,-572.8C251.42,-558.68 250.11,-541.47 249.5,-526 247.07,-464.27 241.66,-448.28 249.5,-387 250.95,-375.63 253.14,-363.81 255.69,-352.19"/>
<polygon fill="none" stroke="#63b8ff" points="255.77,-351.87 253.22,-345.12 258.47,-340.18 261.02,-346.92 255.77,-351.87"/>
</a>
</g>
<text text-anchor="middle" x="284.5" y="-454" font-family="Helvetica,sans-Serif" font-size="10.00" fill="grey"> &#45;newShortCut</text>
</g>
<!-- Node6 -->
<g id="Node000006" class="node">
<title>Node6</title>
<g id="a_Node000006"><a xlink:href="classKeyShortCut.html" target="_top" xlink:title=" ">
<polygon fill="#fff0f0" stroke="transparent" points="417,-526 328,-526 328,-387 417,-387 417,-526"/>
<text text-anchor="start" x="342.5" y="-513.5" font-family="Helvetica,sans-Serif" font-size="10.00">KeyShortCut</text>
<text text-anchor="start" x="371" y="-498.5" font-family="Helvetica,sans-Serif" font-size="10.00"> </text>
<text text-anchor="start" x="332.5" y="-483.5" font-family="Helvetica,sans-Serif" font-size="10.00">+</text>
<text text-anchor="start" x="345.5" y="-483.5" font-family="Helvetica,sans-Serif" font-size="10.00">KeyShortCut()</text>
<text text-anchor="start" x="332.5" y="-468.5" font-family="Helvetica,sans-Serif" font-size="10.00">+</text>
<text text-anchor="start" x="345.5" y="-468.5" font-family="Helvetica,sans-Serif" font-size="10.00">getShortCut()</text>
<text text-anchor="start" x="332.5" y="-453.5" font-family="Helvetica,sans-Serif" font-size="10.00">+</text>
<text text-anchor="start" x="345.5" y="-453.5" font-family="Helvetica,sans-Serif" font-size="10.00">setShortCut()</text>
<text text-anchor="start" x="332.5" y="-438.5" font-family="Helvetica,sans-Serif" font-size="10.00">+</text>
<text text-anchor="start" x="345.5" y="-438.5" font-family="Helvetica,sans-Serif" font-size="10.00">getEvent()</text>
<text text-anchor="start" x="332.5" y="-423.5" font-family="Helvetica,sans-Serif" font-size="10.00">+</text>
<text text-anchor="start" x="345.5" y="-423.5" font-family="Helvetica,sans-Serif" font-size="10.00">operator==()</text>
<text text-anchor="start" x="332.5" y="-408.5" font-family="Helvetica,sans-Serif" font-size="10.00">+</text>
<text text-anchor="start" x="345.5" y="-408.5" font-family="Helvetica,sans-Serif" font-size="10.00">toString()</text>
<text text-anchor="start" x="332.5" y="-393.5" font-family="Helvetica,sans-Serif" font-size="10.00">+</text>
<text text-anchor="start" x="345.5" y="-393.5" font-family="Helvetica,sans-Serif" font-size="10.00">toString()</text>
<polygon fill="red" stroke="red" points="328.5,-508.5 328.5,-508.5 417.5,-508.5 417.5,-508.5 328.5,-508.5"/>
<polygon fill="red" stroke="red" points="328.5,-493.5 328.5,-493.5 417.5,-493.5 417.5,-493.5 328.5,-493.5"/>
<polygon fill="none" stroke="red" points="328,-387 328,-526 417,-526 417,-387 328,-387"/>
</a>
</g>
</g>
<!-- Node5&#45;&gt;Node6 -->
<g id="edge6_Node000006_Node000005" class="edge">
<title>Node5&#45;&gt;Node6</title>
<g id="a_edge6_Node000006_Node000005"><a xlink:title=" ">
<path fill="none" stroke="#63b8ff" d="M279.18,-572.76C290.95,-558.22 305.69,-540.02 319.94,-522.41"/>
<polygon fill="none" stroke="#63b8ff" points="320.24,-522.04 320.91,-514.86 327.8,-512.71 327.13,-519.89 320.24,-522.04"/>
</a>
</g>
<text text-anchor="middle" x="362.5" y="-547" font-family="Helvetica,sans-Serif" font-size="10.00" fill="grey"> &#45;m_shortCutCombination</text>
</g>
<!-- Node6&#45;&gt;Node4 -->
<g id="edge5_Node000004_Node000006" class="edge">
<title>Node6&#45;&gt;Node4</title>
<g id="a_edge5_Node000004_Node000006"><a xlink:title=" ">
<path fill="none" stroke="#63b8ff" d="M339.9,-386.91C334.4,-375.32 328.62,-363.16 322.92,-351.17"/>
<polygon fill="none" stroke="#63b8ff" points="322.88,-351.08 316.69,-347.38 317.73,-340.24 323.92,-343.94 322.88,-351.08"/>
</a>
</g>
<text text-anchor="middle" x="382.5" y="-361" font-family="Helvetica,sans-Serif" font-size="10.00" fill="grey"> &#45;m_selectedShortCut</text>
</g>
</g>
</svg>

<g id="navigator" transform="translate(0 0)" fill="#404254">
  <rect fill="#f2f5e9" fill-opacity="0.5" stroke="#606060" stroke-width=".5" x="0" y="0" width="60" height="60"/>
  <use id="zoomplus" xlink:href="#zoomPlus" x="17" y="9" onmousedown="handleZoom(evt,'in')"/>
  <use id="zoomminus" xlink:href="#zoomMin" x="42" y="9" onmousedown="handleZoom(evt,'out')"/>
  <use id="reset" xlink:href="#resetDef" x="30" y="36" onmousedown="handleReset()"/>
   <use id="arrowup" xlink:href="#arrowUp" x="0" y="0" onmousedown="handlePan(0,-1)"/>
  <use id="arrowright" xlink:href="#arrowRight" x="0" y="0" onmousedown="handlePan(1,0)"/>
  <use id="arrowdown" xlink:href="#arrowDown" x="0" y="0" onmousedown="handlePan(0,1)"/>
  <use id="arrowleft" xlink:href="#arrowLeft" x="0" y="0" onmousedown="handlePan(-1,0)"/>
</g>
<svg viewBox="0 0 15 15" width="100%" height="30px" preserveAspectRatio="xMaxYMin meet">
 <g id="arrow_out" transform="scale(0.3 0.3)">
  <a xlink:href="classElementEdit__coll__graph_org.svg" target="_base">
   <rect id="button" ry="5" rx="5" y="6" x="6" height="38" width="38"
        fill="#f2f5e9" fill-opacity="0.5" stroke="#606060" stroke-width="1.0"/>
   <path id="arrow"
     d="M 11.500037,31.436501 C 11.940474,20.09759 22.043105,11.32322 32.158766,21.979434 L 37.068811,17.246167 C 37.068811,17.246167 37.088388,32 37.088388,32 L 22.160133,31.978069 C 22.160133,31.978069 26.997745,27.140456 26.997745,27.140456 C 18.528582,18.264221 13.291696,25.230495 11.500037,31.436501 z"
     style="fill:#404040;"/>
  </a>
 </g>
</svg>

<style type='text/css'>
<![CDATA[
[data-mouse-over-selected='false'] { opacity: 0.7; }
[data-mouse-over-selected='true']  { opacity: 1.0; }
]]>
</style>
<script type="application/ecmascript"><![CDATA[
document.addEventListener('DOMContentLoaded', (event) => {
  highlightEdges();
  highlightAdjacentNodes();
});
]]></script>
</svg>
