<?xml version="1.0" encoding="UTF-8" standalone="no"?>
<!DOCTYPE svg PUBLIC "-//W3C//DTD SVG 1.1//EN"
 "http://www.w3.org/Graphics/SVG/1.1/DTD/svg11.dtd">
<!-- Generated by graphviz version 2.43.0 (0)
 -->
<!-- Title: EditViewModel Pages: 1 -->
<!--zoomable 455 -->

<svg id="main" version="1.1" xmlns="http://www.w3.org/2000/svg" xmlns:xlink="http://www.w3.org/1999/xlink" xml:space="preserve" onload="init(evt)">
<style type="text/css"><![CDATA[
.node, .edge {opacity: 0.7;}
.node.selected, .edge.selected {opacity: 1;}
.edge:hover path { stroke: red; }
.edge:hover polygon { stroke: red; fill: red; }
]]></style>

<defs>
  <circle id="rim" cx="0" cy="0" r="7"/>
  <circle id="rim2" cx="0" cy="0" r="3.5"/>
  <g id="zoomPlus">
    <use xlink:href="#rim" fill="#404040"><set attributeName="fill" to="#808080" begin="zoomplus.mouseover" end="zoomplus.mouseout"/></use>
    <path d="M-4,0h8M0,-4v8" fill="none" stroke="white" stroke-width="1.5" pointer-events="none"/>
  </g>
  <g id="zoomMin">
    <use xlink:href="#rim" fill="#404040"><set attributeName="fill" to="#808080" begin="zoomminus.mouseover" end="zoomminus.mouseout"/></use>
    <path d="M-4,0h8" fill="none" stroke="white" stroke-width="1.5" pointer-events="none"/>
  </g>
  <g id="arrowUp" transform="translate(30 24)">
    <use xlink:href="#rim"/>
    <path pointer-events="none" fill="none" stroke="white" stroke-width="1.5" d="M0,-3.0v7 M-2.5,-0.5L0,-3.0L2.5,-0.5"/>
  </g>
  <g id="arrowRight" transform="rotate(90) translate(36 -43)">
    <use xlink:href="#rim"/>
    <path pointer-events="none" fill="none" stroke="white" stroke-width="1.5" d="M0,-3.0v7 M-2.5,-0.5L0,-3.0L2.5,-0.5"/>
  </g>
  <g id="arrowDown" transform="rotate(180) translate(-30 -48)">
    <use xlink:href="#rim"/>
    <path pointer-events="none" fill="none" stroke="white" stroke-width="1.5" d="M0,-3.0v7 M-2.5,-0.5L0,-3.0L2.5,-0.5"/>
  </g>
  <g id="arrowLeft" transform="rotate(270) translate(-36 17)">
    <use xlink:href="#rim"/>
    <path pointer-events="none" fill="none" stroke="white" stroke-width="1.5" d="M0,-3.0v7 M-2.5,-0.5L0,-3.0L2.5,-0.5"/>
  </g>
  <g id="resetDef">
    <use xlink:href="#rim2" fill="#404040"><set attributeName="fill" to="#808080" begin="reset.mouseover" end="reset.mouseout"/></use>
  </g>
</defs>
<script type="application/ecmascript">
var viewWidth = 272;
var viewHeight = 455;
var sectionId = 'dynsection-0';
</script>
<script type="application/ecmascript" xlink:href="svg.min.js"/>
<svg id="graph" class="graph">
<g id="viewport">
<title>EditViewModel</title>
<!-- Node1 -->
<g id="Node000001" class="node">
<title>Node1</title>
<g id="a_Node000001"><a xlink:title=" ">
<polygon fill="#999999" stroke="transparent" points="130,-154 0,-154 0,0 130,0 130,-154"/>
<text text-anchor="start" x="28.5" y="-142" font-family="Helvetica,sans-Serif" font-size="10.00">EditViewModel</text>
<text text-anchor="start" x="63" y="-127" font-family="Helvetica,sans-Serif" font-size="10.00"> </text>
<text text-anchor="start" x="4" y="-112" font-family="Helvetica,sans-Serif" font-size="10.00">+</text>
<text text-anchor="start" x="17" y="-112" font-family="Helvetica,sans-Serif" font-size="10.00">RegisterKey()</text>
<text text-anchor="start" x="4" y="-97" font-family="Helvetica,sans-Serif" font-size="10.00">+</text>
<text text-anchor="start" x="17" y="-97" font-family="Helvetica,sans-Serif" font-size="10.00">ResetNewShortCut()</text>
<text text-anchor="start" x="4" y="-82" font-family="Helvetica,sans-Serif" font-size="10.00">+</text>
<text text-anchor="start" x="17" y="-82" font-family="Helvetica,sans-Serif" font-size="10.00">GetNewShortCut()</text>
<text text-anchor="start" x="4" y="-67" font-family="Helvetica,sans-Serif" font-size="10.00">+</text>
<text text-anchor="start" x="17" y="-67" font-family="Helvetica,sans-Serif" font-size="10.00">SetSelectedShortCut()</text>
<text text-anchor="start" x="4" y="-52" font-family="Helvetica,sans-Serif" font-size="10.00">+</text>
<text text-anchor="start" x="17" y="-52" font-family="Helvetica,sans-Serif" font-size="10.00">GetSelectedShortCut()</text>
<text text-anchor="start" x="4" y="-37" font-family="Helvetica,sans-Serif" font-size="10.00">+</text>
<text text-anchor="start" x="17" y="-37" font-family="Helvetica,sans-Serif" font-size="10.00">Instance()</text>
<text text-anchor="start" x="4" y="-22" font-family="Helvetica,sans-Serif" font-size="10.00">#</text>
<text text-anchor="start" x="17" y="-22" font-family="Helvetica,sans-Serif" font-size="10.00">EditViewModel()</text>
<text text-anchor="start" x="4" y="-7" font-family="Helvetica,sans-Serif" font-size="10.00">#</text>
<text text-anchor="start" x="17" y="-7" font-family="Helvetica,sans-Serif" font-size="10.00">~EditViewModel()</text>
<polygon fill="#666666" stroke="#666666" points="0,-137 0,-137 130,-137 130,-137 0,-137"/>
<polygon fill="#666666" stroke="#666666" points="0,-122 0,-122 130,-122 130,-122 0,-122"/>
<polygon fill="none" stroke="#666666" points="0,0 0,-154 130,-154 130,0 0,0"/>
</a>
</g>
</g>
<!-- Node2 -->
<g id="Node000002" class="node">
<title>Node2</title>
<g id="a_Node000002"><a xlink:title=" ">
<polygon fill="white" stroke="transparent" points="117.5,-447 14.5,-447 14.5,-387 117.5,-387 117.5,-447"/>
<text text-anchor="start" x="20" y="-435" font-family="Helvetica,sans-Serif" font-size="10.00">vector&lt; Rml::Input</text>
<text text-anchor="start" x="27" y="-424" font-family="Helvetica,sans-Serif" font-size="10.00">::KeyIdentifier &gt;</text>
<text text-anchor="start" x="64.5" y="-409" font-family="Helvetica,sans-Serif" font-size="10.00"> </text>
<text text-anchor="start" x="64.5" y="-394" font-family="Helvetica,sans-Serif" font-size="10.00"> </text>
<polygon fill="#666666" stroke="#666666" points="15,-419 15,-419 118,-419 118,-419 15,-419"/>
<polygon fill="#666666" stroke="#666666" points="15,-404 15,-404 118,-404 118,-404 15,-404"/>
<polygon fill="none" stroke="#666666" points="14.5,-387 14.5,-447 117.5,-447 117.5,-387 14.5,-387"/>
</a>
</g>
</g>
<!-- Node2&#45;&gt;Node1 -->
<g id="edge1_Node000001_Node000002" class="edge">
<title>Node2&#45;&gt;Node1</title>
<g id="a_edge1_Node000001_Node000002"><a xlink:title=" ">
<path fill="none" stroke="#63b8ff" d="M62.21,-386.82C60.55,-372.71 58.81,-355.5 58,-340 54.97,-282.28 56.67,-217.33 59.15,-166.54"/>
<polygon fill="none" stroke="#63b8ff" points="59.17,-166.26 55.48,-160.07 59.78,-154.28 63.47,-160.48 59.17,-166.26"/>
</a>
</g>
<text text-anchor="middle" x="93" y="-268" font-family="Helvetica,sans-Serif" font-size="10.00" fill="grey"> &#45;newShortCut</text>
</g>
<!-- Node3 -->
<g id="Node000003" class="node">
<title>Node3</title>
<g id="a_Node000003"><a xlink:href="classKeyShortCut.html" target="_top" xlink:title=" ">
<polygon fill="white" stroke="transparent" points="226.5,-340 137.5,-340 137.5,-201 226.5,-201 226.5,-340"/>
<text text-anchor="start" x="152" y="-327.5" font-family="Helvetica,sans-Serif" font-size="10.00">KeyShortCut</text>
<text text-anchor="start" x="180.5" y="-312.5" font-family="Helvetica,sans-Serif" font-size="10.00"> </text>
<text text-anchor="start" x="142" y="-297.5" font-family="Helvetica,sans-Serif" font-size="10.00">+</text>
<text text-anchor="start" x="155" y="-297.5" font-family="Helvetica,sans-Serif" font-size="10.00">KeyShortCut()</text>
<text text-anchor="start" x="142" y="-282.5" font-family="Helvetica,sans-Serif" font-size="10.00">+</text>
<text text-anchor="start" x="155" y="-282.5" font-family="Helvetica,sans-Serif" font-size="10.00">getShortCut()</text>
<text text-anchor="start" x="142" y="-267.5" font-family="Helvetica,sans-Serif" font-size="10.00">+</text>
<text text-anchor="start" x="155" y="-267.5" font-family="Helvetica,sans-Serif" font-size="10.00">setShortCut()</text>
<text text-anchor="start" x="142" y="-252.5" font-family="Helvetica,sans-Serif" font-size="10.00">+</text>
<text text-anchor="start" x="155" y="-252.5" font-family="Helvetica,sans-Serif" font-size="10.00">getEvent()</text>
<text text-anchor="start" x="142" y="-237.5" font-family="Helvetica,sans-Serif" font-size="10.00">+</text>
<text text-anchor="start" x="155" y="-237.5" font-family="Helvetica,sans-Serif" font-size="10.00">operator==()</text>
<text text-anchor="start" x="142" y="-222.5" font-family="Helvetica,sans-Serif" font-size="10.00">+</text>
<text text-anchor="start" x="155" y="-222.5" font-family="Helvetica,sans-Serif" font-size="10.00">toString()</text>
<text text-anchor="start" x="142" y="-207.5" font-family="Helvetica,sans-Serif" font-size="10.00">+</text>
<text text-anchor="start" x="155" y="-207.5" font-family="Helvetica,sans-Serif" font-size="10.00">toString()</text>
<polygon fill="#666666" stroke="#666666" points="138,-322.5 138,-322.5 227,-322.5 227,-322.5 138,-322.5"/>
<polygon fill="#666666" stroke="#666666" points="138,-307.5 138,-307.5 227,-307.5 227,-307.5 138,-307.5"/>
<polygon fill="none" stroke="#666666" points="137.5,-201 137.5,-340 226.5,-340 226.5,-201 137.5,-201"/>
</a>
</g>
</g>
<!-- Node2&#45;&gt;Node3 -->
<g id="edge3_Node000003_Node000002" class="edge">
<title>Node2&#45;&gt;Node3</title>
<g id="a_edge3_Node000003_Node000002"><a xlink:title=" ">
<path fill="none" stroke="#63b8ff" d="M69.49,-386.75C71.93,-376.71 76.04,-365.99 83,-358 95.8,-343.3 107.38,-351.66 123,-340 124.69,-338.74 126.36,-337.43 128.01,-336.06"/>
<polygon fill="none" stroke="#63b8ff" points="128.3,-335.8 130.12,-328.83 137.26,-327.82 135.44,-334.8 128.3,-335.8"/>
</a>
</g>
<text text-anchor="middle" x="146" y="-361" font-family="Helvetica,sans-Serif" font-size="10.00" fill="grey"> &#45;m_shortCutCombination</text>
</g>
<!-- Node3&#45;&gt;Node1 -->
<g id="edge2_Node000001_Node000003" class="edge">
<title>Node3&#45;&gt;Node1</title>
<g id="a_edge2_Node000001_Node000003"><a xlink:title=" ">
<path fill="none" stroke="#63b8ff" d="M140.09,-200.91C132.94,-189.2 125.43,-176.91 118.03,-164.81"/>
<polygon fill="none" stroke="#63b8ff" points="117.84,-164.48 111.29,-161.44 111.58,-154.24 118.12,-157.27 117.84,-164.48"/>
</a>
</g>
<text text-anchor="middle" x="181" y="-175" font-family="Helvetica,sans-Serif" font-size="10.00" fill="grey"> &#45;m_selectedShortCut</text>
</g>
<!-- Node4 -->
<g id="Node000004" class="node">
<title>Node4</title>
<g id="a_Node000004"><a xlink:title=" ">
<polygon fill="white" stroke="transparent" points="250,-441.5 212,-441.5 212,-392.5 250,-392.5 250,-441.5"/>
<text text-anchor="start" x="217" y="-429" font-family="Helvetica,sans-Serif" font-size="10.00">string</text>
<text text-anchor="start" x="229" y="-414" font-family="Helvetica,sans-Serif" font-size="10.00"> </text>
<text text-anchor="start" x="229" y="-399" font-family="Helvetica,sans-Serif" font-size="10.00"> </text>
<polygon fill="#666666" stroke="#666666" points="212,-424 212,-424 250,-424 250,-424 212,-424"/>
<polygon fill="#666666" stroke="#666666" points="212,-409 212,-409 250,-409 250,-409 212,-409"/>
<polygon fill="none" stroke="#666666" points="212,-392.5 212,-441.5 250,-441.5 250,-392.5 212,-392.5"/>
</a>
</g>
</g>
<!-- Node4&#45;&gt;Node3 -->
<g id="edge4_Node000003_Node000004" class="edge">
<title>Node4&#45;&gt;Node3</title>
<g id="a_edge4_Node000003_Node000004"><a xlink:title=" ">
<path fill="none" stroke="#63b8ff" d="M223.02,-392.46C219.15,-381.05 214.25,-366.61 209.2,-351.72"/>
<polygon fill="none" stroke="#63b8ff" points="209.18,-351.64 203.46,-347.25 205.32,-340.28 211.04,-344.68 209.18,-351.64"/>
</a>
</g>
<text text-anchor="middle" x="239" y="-361" font-family="Helvetica,sans-Serif" font-size="10.00" fill="grey"> &#45;m_event</text>
</g>
</g>
</svg>

<g id="navigator" transform="translate(0 0)" fill="#404254">
  <rect fill="#f2f5e9" fill-opacity="0.5" stroke="#606060" stroke-width=".5" x="0" y="0" width="60" height="60"/>
  <use id="zoomplus" xlink:href="#zoomPlus" x="17" y="9" onmousedown="handleZoom(evt,'in')"/>
  <use id="zoomminus" xlink:href="#zoomMin" x="42" y="9" onmousedown="handleZoom(evt,'out')"/>
  <use id="reset" xlink:href="#resetDef" x="30" y="36" onmousedown="handleReset()"/>
   <use id="arrowup" xlink:href="#arrowUp" x="0" y="0" onmousedown="handlePan(0,-1)"/>
  <use id="arrowright" xlink:href="#arrowRight" x="0" y="0" onmousedown="handlePan(1,0)"/>
  <use id="arrowdown" xlink:href="#arrowDown" x="0" y="0" onmousedown="handlePan(0,1)"/>
  <use id="arrowleft" xlink:href="#arrowLeft" x="0" y="0" onmousedown="handlePan(-1,0)"/>
</g>
<svg viewBox="0 0 15 15" width="100%" height="30px" preserveAspectRatio="xMaxYMin meet">
 <g id="arrow_out" transform="scale(0.3 0.3)">
  <a xlink:href="classEditViewModel__coll__graph_org.svg" target="_base">
   <rect id="button" ry="5" rx="5" y="6" x="6" height="38" width="38"
        fill="#f2f5e9" fill-opacity="0.5" stroke="#606060" stroke-width="1.0"/>
   <path id="arrow"
     d="M 11.500037,31.436501 C 11.940474,20.09759 22.043105,11.32322 32.158766,21.979434 L 37.068811,17.246167 C 37.068811,17.246167 37.088388,32 37.088388,32 L 22.160133,31.978069 C 22.160133,31.978069 26.997745,27.140456 26.997745,27.140456 C 18.528582,18.264221 13.291696,25.230495 11.500037,31.436501 z"
     style="fill:#404040;"/>
  </a>
 </g>
</svg>

<style type='text/css'>
<![CDATA[
[data-mouse-over-selected='false'] { opacity: 0.7; }
[data-mouse-over-selected='true']  { opacity: 1.0; }
]]>
</style>
<script type="application/ecmascript"><![CDATA[
document.addEventListener('DOMContentLoaded', (event) => {
  highlightEdges();
  highlightAdjacentNodes();
});
]]></script>
</svg>
