<?xml version="1.0" encoding="UTF-8" standalone="no"?>
<!DOCTYPE svg PUBLIC "-//W3C//DTD SVG 1.1//EN"
 "http://www.w3.org/Graphics/SVG/1.1/DTD/svg11.dtd">
<!-- Generated by graphviz version 2.43.0 (0)
 -->
<!-- Title: ElementShortcuts Pages: 1 -->
<svg width="590pt" height="680pt"
 viewBox="0.00 0.00 589.50 680.00" xmlns="http://www.w3.org/2000/svg" xmlns:xlink="http://www.w3.org/1999/xlink">
<g id="graph0" class="graph" transform="scale(1 1) rotate(0) translate(4 676)">
<title>ElementShortcuts</title>
<!-- Node1 -->
<g id="Node000001" class="node">
<title>Node1</title>
<g id="a_Node000001"><a xlink:title=" ">
<polygon fill="#999999" stroke="transparent" points="208.5,-139 84.5,-139 84.5,0 208.5,0 208.5,-139"/>
<text text-anchor="start" x="103" y="-126.5" font-family="Helvetica,sans-Serif" font-size="10.00">ElementShortcuts</text>
<text text-anchor="start" x="144.5" y="-111.5" font-family="Helvetica,sans-Serif" font-size="10.00"> </text>
<text text-anchor="start" x="88.5" y="-96.5" font-family="Helvetica,sans-Serif" font-size="10.00">+</text>
<text text-anchor="start" x="101.5" y="-96.5" font-family="Helvetica,sans-Serif" font-size="10.00">ElementShortcuts()</text>
<text text-anchor="start" x="88.5" y="-81.5" font-family="Helvetica,sans-Serif" font-size="10.00">+</text>
<text text-anchor="start" x="101.5" y="-81.5" font-family="Helvetica,sans-Serif" font-size="10.00">~ElementShortcuts()</text>
<text text-anchor="start" x="88.5" y="-66.5" font-family="Helvetica,sans-Serif" font-size="10.00">+</text>
<text text-anchor="start" x="101.5" y="-66.5" font-family="Helvetica,sans-Serif" font-size="10.00">OnChildAdd()</text>
<text text-anchor="start" x="88.5" y="-51.5" font-family="Helvetica,sans-Serif" font-size="10.00">+</text>
<text text-anchor="start" x="101.5" y="-51.5" font-family="Helvetica,sans-Serif" font-size="10.00">OnChildRemove()</text>
<text text-anchor="start" x="88.5" y="-36.5" font-family="Helvetica,sans-Serif" font-size="10.00">+</text>
<text text-anchor="start" x="101.5" y="-36.5" font-family="Helvetica,sans-Serif" font-size="10.00">ProcessEvent()</text>
<text text-anchor="start" x="88.5" y="-21.5" font-family="Helvetica,sans-Serif" font-size="10.00">#</text>
<text text-anchor="start" x="101.5" y="-21.5" font-family="Helvetica,sans-Serif" font-size="10.00">OnUpdate()</text>
<text text-anchor="start" x="88.5" y="-6.5" font-family="Helvetica,sans-Serif" font-size="10.00">#</text>
<text text-anchor="start" x="101.5" y="-6.5" font-family="Helvetica,sans-Serif" font-size="10.00">OnRender()</text>
<polygon fill="#666666" stroke="#666666" points="84.5,-121.5 84.5,-121.5 208.5,-121.5 208.5,-121.5 84.5,-121.5"/>
<polygon fill="#666666" stroke="#666666" points="84.5,-106.5 84.5,-106.5 208.5,-106.5 208.5,-106.5 84.5,-106.5"/>
<polygon fill="none" stroke="#666666" points="84.5,0 84.5,-139 208.5,-139 208.5,0 84.5,0"/>
</a>
</g>
</g>
<!-- Node2 -->
<g id="Node000002" class="node">
<title>Node2</title>
<g id="a_Node000002"><a xlink:title=" ">
<polygon fill="white" stroke="transparent" points="77,-317.5 0,-317.5 0,-268.5 77,-268.5 77,-317.5"/>
<text text-anchor="start" x="5.5" y="-305" font-family="Helvetica,sans-Serif" font-size="10.00">Rml::Element</text>
<text text-anchor="start" x="37" y="-290" font-family="Helvetica,sans-Serif" font-size="10.00"> </text>
<text text-anchor="start" x="37" y="-275" font-family="Helvetica,sans-Serif" font-size="10.00"> </text>
<polygon fill="#666666" stroke="#666666" points="0.5,-300 0.5,-300 77.5,-300 77.5,-300 0.5,-300"/>
<polygon fill="#666666" stroke="#666666" points="0.5,-285 0.5,-285 77.5,-285 77.5,-285 0.5,-285"/>
<polygon fill="none" stroke="#666666" points="0,-268.5 0,-317.5 77,-317.5 77,-268.5 0,-268.5"/>
</a>
</g>
</g>
<!-- Node2&#45;&gt;Node1 -->
<g id="edge1_Node000001_Node000002" class="edge">
<title>Node2&#45;&gt;Node1</title>
<g id="a_edge1_Node000001_Node000002"><a xlink:title=" ">
<path fill="none" stroke="#63b8ff" d="M52.54,-258.76C61.6,-237.74 73.82,-210.08 85.5,-186 92.92,-170.7 101.23,-154.45 109.27,-139.12"/>
<polygon fill="none" stroke="#63b8ff" points="49.22,-257.64 48.49,-268.21 55.65,-260.4 49.22,-257.64"/>
</a>
</g>
</g>
<!-- Node3 -->
<g id="Node000003" class="node">
<title>Node3</title>
<g id="a_Node000003"><a xlink:title=" ">
<polygon fill="white" stroke="transparent" points="198,-317.5 95,-317.5 95,-268.5 198,-268.5 198,-317.5"/>
<text text-anchor="start" x="100.5" y="-305" font-family="Helvetica,sans-Serif" font-size="10.00">Rml::EventListener</text>
<text text-anchor="start" x="145" y="-290" font-family="Helvetica,sans-Serif" font-size="10.00"> </text>
<text text-anchor="start" x="145" y="-275" font-family="Helvetica,sans-Serif" font-size="10.00"> </text>
<polygon fill="#666666" stroke="#666666" points="95.5,-300 95.5,-300 198.5,-300 198.5,-300 95.5,-300"/>
<polygon fill="#666666" stroke="#666666" points="95.5,-285 95.5,-285 198.5,-285 198.5,-285 95.5,-285"/>
<polygon fill="none" stroke="#666666" points="95,-268.5 95,-317.5 198,-317.5 198,-268.5 95,-268.5"/>
</a>
</g>
</g>
<!-- Node3&#45;&gt;Node1 -->
<g id="edge2_Node000001_Node000003" class="edge">
<title>Node3&#45;&gt;Node1</title>
<g id="a_edge2_Node000001_Node000003"><a xlink:title=" ">
<path fill="none" stroke="#63b8ff" d="M146.5,-258.27C146.5,-226.75 146.5,-178.74 146.5,-139.16"/>
<polygon fill="none" stroke="#63b8ff" points="143,-258.3 146.5,-268.3 150,-258.3 143,-258.3"/>
</a>
</g>
</g>
<!-- Node4 -->
<g id="Node000004" class="node">
<title>Node4</title>
<g id="a_Node000004"><a xlink:href="classShortCutsViewModel.html" target="_top" xlink:title=" ">
<polygon fill="white" stroke="transparent" points="355,-400 216,-400 216,-186 355,-186 355,-400"/>
<text text-anchor="start" x="235" y="-388" font-family="Helvetica,sans-Serif" font-size="10.00">ShortCutsViewModel</text>
<text text-anchor="start" x="284" y="-373" font-family="Helvetica,sans-Serif" font-size="10.00"> </text>
<text text-anchor="start" x="220.5" y="-358" font-family="Helvetica,sans-Serif" font-size="10.00">+</text>
<text text-anchor="start" x="233.5" y="-358" font-family="Helvetica,sans-Serif" font-size="10.00">updateList()</text>
<text text-anchor="start" x="220.5" y="-343" font-family="Helvetica,sans-Serif" font-size="10.00">+</text>
<text text-anchor="start" x="233.5" y="-343" font-family="Helvetica,sans-Serif" font-size="10.00">moveUpIndex()</text>
<text text-anchor="start" x="220.5" y="-328" font-family="Helvetica,sans-Serif" font-size="10.00">+</text>
<text text-anchor="start" x="233.5" y="-328" font-family="Helvetica,sans-Serif" font-size="10.00">moveDownIndex()</text>
<text text-anchor="start" x="220.5" y="-313" font-family="Helvetica,sans-Serif" font-size="10.00">+</text>
<text text-anchor="start" x="233.5" y="-313" font-family="Helvetica,sans-Serif" font-size="10.00">getMemoryCell()</text>
<text text-anchor="start" x="220.5" y="-298" font-family="Helvetica,sans-Serif" font-size="10.00">+</text>
<text text-anchor="start" x="233.5" y="-298" font-family="Helvetica,sans-Serif" font-size="10.00">getSelectedCell()</text>
<text text-anchor="start" x="220.5" y="-283" font-family="Helvetica,sans-Serif" font-size="10.00">+</text>
<text text-anchor="start" x="233.5" y="-283" font-family="Helvetica,sans-Serif" font-size="10.00">hasSelectedCell()</text>
<text text-anchor="start" x="220.5" y="-268" font-family="Helvetica,sans-Serif" font-size="10.00">+</text>
<text text-anchor="start" x="233.5" y="-268" font-family="Helvetica,sans-Serif" font-size="10.00">getSelectedCellIndex()</text>
<text text-anchor="start" x="220.5" y="-253" font-family="Helvetica,sans-Serif" font-size="10.00">+</text>
<text text-anchor="start" x="233.5" y="-253" font-family="Helvetica,sans-Serif" font-size="10.00">canMoveUp()</text>
<text text-anchor="start" x="220.5" y="-238" font-family="Helvetica,sans-Serif" font-size="10.00">+</text>
<text text-anchor="start" x="233.5" y="-238" font-family="Helvetica,sans-Serif" font-size="10.00">canMoveDown()</text>
<text text-anchor="start" x="220.5" y="-223" font-family="Helvetica,sans-Serif" font-size="10.00">+</text>
<text text-anchor="start" x="233.5" y="-223" font-family="Helvetica,sans-Serif" font-size="10.00">Instance()</text>
<text text-anchor="start" x="220.5" y="-208" font-family="Helvetica,sans-Serif" font-size="10.00">#</text>
<text text-anchor="start" x="233.5" y="-208" font-family="Helvetica,sans-Serif" font-size="10.00">ShortCutsViewModel()</text>
<text text-anchor="start" x="220.5" y="-193" font-family="Helvetica,sans-Serif" font-size="10.00">#</text>
<text text-anchor="start" x="233.5" y="-193" font-family="Helvetica,sans-Serif" font-size="10.00">~ShortCutsViewModel()</text>
<polygon fill="#666666" stroke="#666666" points="216.5,-383 216.5,-383 355.5,-383 355.5,-383 216.5,-383"/>
<polygon fill="#666666" stroke="#666666" points="216.5,-368 216.5,-368 355.5,-368 355.5,-368 216.5,-368"/>
<polygon fill="none" stroke="#666666" points="216,-186 216,-400 355,-400 355,-186 216,-186"/>
</a>
</g>
</g>
<!-- Node4&#45;&gt;Node1 -->
<g id="edge3_Node000001_Node000004" class="edge">
<title>Node4&#45;&gt;Node1</title>
<g id="a_edge3_Node000001_Node000004"><a xlink:title=" ">
<path fill="none" stroke="#63b8ff" d="M218.85,-185.79C211.14,-173.51 203.39,-161.16 195.97,-149.33"/>
<polygon fill="none" stroke="#63b8ff" points="195.92,-149.26 189.35,-146.3 189.55,-139.09 196.12,-142.05 195.92,-149.26"/>
</a>
</g>
<text text-anchor="middle" x="237.5" y="-160" font-family="Helvetica,sans-Serif" font-size="10.00" fill="grey"> &#45;viewModel</text>
</g>
<!-- Node5 -->
<g id="Node000005" class="node">
<title>Node5</title>
<g id="a_Node000005"><a xlink:href="classMemoryCellManager.html" target="_top" xlink:title=" ">
<polygon fill="#fff0f0" stroke="transparent" points="166.5,-672 18.5,-672 18.5,-458 166.5,-458 166.5,-672"/>
<text text-anchor="start" x="41" y="-660" font-family="Helvetica,sans-Serif" font-size="10.00">MemoryCellManager</text>
<text text-anchor="start" x="90.5" y="-645" font-family="Helvetica,sans-Serif" font-size="10.00"> </text>
<text text-anchor="start" x="22.5" y="-630" font-family="Helvetica,sans-Serif" font-size="10.00">+</text>
<text text-anchor="start" x="35.5" y="-630" font-family="Helvetica,sans-Serif" font-size="10.00">getMemoryCellCount()</text>
<text text-anchor="start" x="22.5" y="-615" font-family="Helvetica,sans-Serif" font-size="10.00">+</text>
<text text-anchor="start" x="35.5" y="-615" font-family="Helvetica,sans-Serif" font-size="10.00">getMemoryCell()</text>
<text text-anchor="start" x="22.5" y="-600" font-family="Helvetica,sans-Serif" font-size="10.00">+</text>
<text text-anchor="start" x="35.5" y="-600" font-family="Helvetica,sans-Serif" font-size="10.00">addMemoryCell()</text>
<text text-anchor="start" x="22.5" y="-585" font-family="Helvetica,sans-Serif" font-size="10.00">+</text>
<text text-anchor="start" x="35.5" y="-585" font-family="Helvetica,sans-Serif" font-size="10.00">initialize()</text>
<text text-anchor="start" x="22.5" y="-570" font-family="Helvetica,sans-Serif" font-size="10.00">+</text>
<text text-anchor="start" x="35.5" y="-570" font-family="Helvetica,sans-Serif" font-size="10.00">cleanup()</text>
<text text-anchor="start" x="22.5" y="-555" font-family="Helvetica,sans-Serif" font-size="10.00">+</text>
<text text-anchor="start" x="35.5" y="-555" font-family="Helvetica,sans-Serif" font-size="10.00">setSelectedCell()</text>
<text text-anchor="start" x="22.5" y="-540" font-family="Helvetica,sans-Serif" font-size="10.00">+</text>
<text text-anchor="start" x="35.5" y="-540" font-family="Helvetica,sans-Serif" font-size="10.00">getSelectedCell()</text>
<text text-anchor="start" x="22.5" y="-525" font-family="Helvetica,sans-Serif" font-size="10.00">+</text>
<text text-anchor="start" x="35.5" y="-525" font-family="Helvetica,sans-Serif" font-size="10.00">loadCells()</text>
<text text-anchor="start" x="22.5" y="-510" font-family="Helvetica,sans-Serif" font-size="10.00">+</text>
<text text-anchor="start" x="35.5" y="-510" font-family="Helvetica,sans-Serif" font-size="10.00">getContents()</text>
<text text-anchor="start" x="22.5" y="-495" font-family="Helvetica,sans-Serif" font-size="10.00">+</text>
<text text-anchor="start" x="35.5" y="-495" font-family="Helvetica,sans-Serif" font-size="10.00">moveContentsOneDown()</text>
<text text-anchor="start" x="22.5" y="-480" font-family="Helvetica,sans-Serif" font-size="10.00">+</text>
<text text-anchor="start" x="35.5" y="-480" font-family="Helvetica,sans-Serif" font-size="10.00">Instance()</text>
<text text-anchor="start" x="22.5" y="-465" font-family="Helvetica,sans-Serif" font-size="10.00">#</text>
<text text-anchor="start" x="35.5" y="-465" font-family="Helvetica,sans-Serif" font-size="10.00">MemoryCellManager()</text>
<polygon fill="red" stroke="red" points="18.5,-655 18.5,-655 166.5,-655 166.5,-655 18.5,-655"/>
<polygon fill="red" stroke="red" points="18.5,-640 18.5,-640 166.5,-640 166.5,-640 18.5,-640"/>
<polygon fill="none" stroke="red" points="18.5,-458 18.5,-672 166.5,-672 166.5,-458 18.5,-458"/>
</a>
</g>
</g>
<!-- Node5&#45;&gt;Node4 -->
<g id="edge4_Node000004_Node000005" class="edge">
<title>Node5&#45;&gt;Node4</title>
<g id="a_edge4_Node000004_Node000005"><a xlink:title=" ">
<path fill="none" stroke="#63b8ff" d="M88.73,-457.96C92.54,-443.13 99.04,-429.18 109.5,-418 137.34,-388.26 165.12,-417.88 205.23,-399.95"/>
<polygon fill="none" stroke="#63b8ff" points="205.45,-399.84 208.82,-393.46 216,-394.12 212.63,-400.49 205.45,-399.84"/>
</a>
</g>
<text text-anchor="middle" x="174.5" y="-426.5" font-family="Helvetica,sans-Serif" font-size="10.00" fill="grey"> &#45;m_memoryCellsManager</text>
</g>
<!-- Node8 -->
<g id="Node000008" class="node">
<title>Node8</title>
<g id="a_Node000008"><a xlink:title=" ">
<polygon fill="white" stroke="transparent" points="257,-589.5 234,-589.5 234,-540.5 257,-540.5 257,-589.5"/>
<text text-anchor="start" x="239.5" y="-577" font-family="Helvetica,sans-Serif" font-size="10.00">int</text>
<text text-anchor="start" x="244" y="-562" font-family="Helvetica,sans-Serif" font-size="10.00"> </text>
<text text-anchor="start" x="244" y="-547" font-family="Helvetica,sans-Serif" font-size="10.00"> </text>
<polygon fill="#666666" stroke="#666666" points="234.5,-572 234.5,-572 257.5,-572 257.5,-572 234.5,-572"/>
<polygon fill="#666666" stroke="#666666" points="234.5,-557 234.5,-557 257.5,-557 257.5,-557 234.5,-557"/>
<polygon fill="none" stroke="#666666" points="234,-540.5 234,-589.5 257,-589.5 257,-540.5 234,-540.5"/>
</a>
</g>
</g>
<!-- Node8&#45;&gt;Node4 -->
<g id="edge5_Node000004_Node000008" class="edge">
<title>Node8&#45;&gt;Node4</title>
<g id="a_edge5_Node000004_Node000008"><a xlink:title=" ">
<path fill="none" stroke="#63b8ff" d="M243.52,-540.31C241.58,-511.28 239.79,-460.69 246.5,-418 246.82,-415.97 247.16,-413.93 247.53,-411.87"/>
<polygon fill="none" stroke="#63b8ff" points="247.55,-411.81 244.8,-405.14 249.9,-400.04 252.65,-406.71 247.55,-411.81"/>
</a>
</g>
<text text-anchor="middle" x="275" y="-432" font-family="Helvetica,sans-Serif" font-size="10.00" fill="grey"> &#45;cellsIndex</text>
<text text-anchor="middle" x="275" y="-421" font-family="Helvetica,sans-Serif" font-size="10.00" fill="grey">&#45;viewIndex</text>
</g>
<!-- Node9 -->
<g id="Node000009" class="node">
<title>Node9</title>
<g id="a_Node000009"><a xlink:title=" ">
<polygon fill="white" stroke="transparent" points="371.5,-589.5 279.5,-589.5 279.5,-540.5 371.5,-540.5 371.5,-589.5"/>
<text text-anchor="start" x="284.5" y="-577" font-family="Helvetica,sans-Serif" font-size="10.00">vector&lt; size_t &gt;</text>
<text text-anchor="start" x="323.5" y="-562" font-family="Helvetica,sans-Serif" font-size="10.00"> </text>
<text text-anchor="start" x="323.5" y="-547" font-family="Helvetica,sans-Serif" font-size="10.00"> </text>
<polygon fill="#666666" stroke="#666666" points="279.5,-572 279.5,-572 371.5,-572 371.5,-572 279.5,-572"/>
<polygon fill="#666666" stroke="#666666" points="279.5,-557 279.5,-557 371.5,-557 371.5,-557 279.5,-557"/>
<polygon fill="none" stroke="#666666" points="279.5,-540.5 279.5,-589.5 371.5,-589.5 371.5,-540.5 279.5,-540.5"/>
</a>
</g>
</g>
<!-- Node9&#45;&gt;Node4 -->
<g id="edge6_Node000004_Node000009" class="edge">
<title>Node9&#45;&gt;Node4</title>
<g id="a_edge6_Node000004_Node000009"><a xlink:title=" ">
<path fill="none" stroke="#63b8ff" d="M321.95,-540.04C317.66,-511.07 310.12,-460.21 303.01,-412.22"/>
<polygon fill="none" stroke="#63b8ff" points="302.98,-411.97 298.14,-406.62 301.22,-400.1 306.05,-405.44 302.98,-411.97"/>
</a>
</g>
<text text-anchor="middle" x="369" y="-426.5" font-family="Helvetica,sans-Serif" font-size="10.00" fill="grey"> &#45;m_selectedCellsIndexes</text>
</g>
<!-- Node10 -->
<g id="Node000010" class="node">
<title>Node10</title>
<g id="a_Node000010"><a xlink:title=" ">
<polygon fill="white" stroke="transparent" points="554.5,-589.5 392.5,-589.5 392.5,-540.5 554.5,-540.5 554.5,-589.5"/>
<text text-anchor="start" x="397.5" y="-577" font-family="Helvetica,sans-Serif" font-size="10.00">vector&lt; ClipboardInterface * &gt;</text>
<text text-anchor="start" x="471.5" y="-562" font-family="Helvetica,sans-Serif" font-size="10.00"> </text>
<text text-anchor="start" x="471.5" y="-547" font-family="Helvetica,sans-Serif" font-size="10.00"> </text>
<polygon fill="#666666" stroke="#666666" points="392.5,-572 392.5,-572 554.5,-572 554.5,-572 392.5,-572"/>
<polygon fill="#666666" stroke="#666666" points="392.5,-557 392.5,-557 554.5,-557 554.5,-557 392.5,-557"/>
<polygon fill="none" stroke="#666666" points="392.5,-540.5 392.5,-589.5 554.5,-589.5 554.5,-540.5 392.5,-540.5"/>
</a>
</g>
</g>
<!-- Node10&#45;&gt;Node4 -->
<g id="edge7_Node000004_Node000010" class="edge">
<title>Node10&#45;&gt;Node4</title>
<g id="a_edge7_Node000004_Node000010"><a xlink:title=" ">
<path fill="none" stroke="#63b8ff" d="M471.84,-540.49C468.74,-510.07 459.99,-456.43 435.5,-418 417.47,-389.7 390.85,-364.7 365.03,-344.69"/>
<polygon fill="none" stroke="#63b8ff" points="364.77,-344.5 357.57,-344.08 355.19,-337.27 362.39,-337.69 364.77,-344.5"/>
</a>
</g>
<text text-anchor="middle" x="514" y="-426.5" font-family="Helvetica,sans-Serif" font-size="10.00" fill="grey"> &#45;m_memoryCellsShortCuts</text>
</g>
</g>
</svg>
