<?xml version="1.0" encoding="UTF-8" standalone="no"?>
<!DOCTYPE svg PUBLIC "-//W3C//DTD SVG 1.1//EN"
 "http://www.w3.org/Graphics/SVG/1.1/DTD/svg11.dtd">
<!-- Generated by graphviz version 2.43.0 (0)
 -->
<!-- Title: RenderInterface_GL3::RenderLayerStack Pages: 1 -->
<svg width="226pt" height="422pt"
 viewBox="0.00 0.00 226.00 422.00" xmlns="http://www.w3.org/2000/svg" xmlns:xlink="http://www.w3.org/1999/xlink">

<svg id="main" version="1.1" xmlns="http://www.w3.org/2000/svg" xmlns:xlink="http://www.w3.org/1999/xlink" xml:space="preserve" onload="init(evt)">
<style type="text/css"><![CDATA[
.node, .edge {opacity: 0.7;}
.node.selected, .edge.selected {opacity: 1;}
.edge:hover path { stroke: red; }
.edge:hover polygon { stroke: red; fill: red; }
]]></style>
<script type="application/ecmascript" xlink:href="svg.min.js"/>
<svg id="graph" class="graph">
<g id="graph0" class="graph" transform="scale(1 1) rotate(0) translate(4 418)">
<title>RenderInterface_GL3::RenderLayerStack</title>
<!-- Node1 -->
<g id="Node000001" class="node">
<title>Node1</title>
<g id="a_Node000001"><a xlink:title=" ">
<polygon fill="#999999" stroke="transparent" points="203,-285 0,-285 0,0 203,0 203,-285"/>
<text text-anchor="start" x="50.5" y="-272.5" font-family="Helvetica,sans-Serif" font-size="10.00">RenderInterface_GL3</text>
<text text-anchor="start" x="54.5" y="-261.5" font-family="Helvetica,sans-Serif" font-size="10.00">::RenderLayerStack</text>
<text text-anchor="start" x="100" y="-246.5" font-family="Helvetica,sans-Serif" font-size="10.00"> </text>
<text text-anchor="start" x="4.5" y="-231.5" font-family="Helvetica,sans-Serif" font-size="10.00">+</text>
<text text-anchor="start" x="17.5" y="-231.5" font-family="Helvetica,sans-Serif" font-size="10.00">RenderLayerStack()</text>
<text text-anchor="start" x="4.5" y="-216.5" font-family="Helvetica,sans-Serif" font-size="10.00">+</text>
<text text-anchor="start" x="17.5" y="-216.5" font-family="Helvetica,sans-Serif" font-size="10.00">~RenderLayerStack()</text>
<text text-anchor="start" x="4.5" y="-201.5" font-family="Helvetica,sans-Serif" font-size="10.00">+</text>
<text text-anchor="start" x="17.5" y="-201.5" font-family="Helvetica,sans-Serif" font-size="10.00">PushLayer()</text>
<text text-anchor="start" x="4.5" y="-186.5" font-family="Helvetica,sans-Serif" font-size="10.00">+</text>
<text text-anchor="start" x="17.5" y="-186.5" font-family="Helvetica,sans-Serif" font-size="10.00">PopLayer()</text>
<text text-anchor="start" x="4.5" y="-171.5" font-family="Helvetica,sans-Serif" font-size="10.00">+</text>
<text text-anchor="start" x="17.5" y="-171.5" font-family="Helvetica,sans-Serif" font-size="10.00">GetLayer()</text>
<text text-anchor="start" x="4.5" y="-156.5" font-family="Helvetica,sans-Serif" font-size="10.00">+</text>
<text text-anchor="start" x="17.5" y="-156.5" font-family="Helvetica,sans-Serif" font-size="10.00">GetTopLayer()</text>
<text text-anchor="start" x="4.5" y="-141.5" font-family="Helvetica,sans-Serif" font-size="10.00">+</text>
<text text-anchor="start" x="17.5" y="-141.5" font-family="Helvetica,sans-Serif" font-size="10.00">GetTopLayerHandle()</text>
<text text-anchor="start" x="4.5" y="-126.5" font-family="Helvetica,sans-Serif" font-size="10.00">+</text>
<text text-anchor="start" x="17.5" y="-126.5" font-family="Helvetica,sans-Serif" font-size="10.00">GetPostprocessPrimary()</text>
<text text-anchor="start" x="4.5" y="-111.5" font-family="Helvetica,sans-Serif" font-size="10.00">+</text>
<text text-anchor="start" x="17.5" y="-111.5" font-family="Helvetica,sans-Serif" font-size="10.00">GetPostprocessSecondary()</text>
<text text-anchor="start" x="4.5" y="-96.5" font-family="Helvetica,sans-Serif" font-size="10.00">+</text>
<text text-anchor="start" x="17.5" y="-96.5" font-family="Helvetica,sans-Serif" font-size="10.00">GetPostprocessTertiary()</text>
<text text-anchor="start" x="4.5" y="-81.5" font-family="Helvetica,sans-Serif" font-size="10.00">+</text>
<text text-anchor="start" x="17.5" y="-81.5" font-family="Helvetica,sans-Serif" font-size="10.00">GetBlendMask()</text>
<text text-anchor="start" x="4.5" y="-66.5" font-family="Helvetica,sans-Serif" font-size="10.00">+</text>
<text text-anchor="start" x="17.5" y="-66.5" font-family="Helvetica,sans-Serif" font-size="10.00">SwapPostprocessPrimarySecondary()</text>
<text text-anchor="start" x="4.5" y="-51.5" font-family="Helvetica,sans-Serif" font-size="10.00">+</text>
<text text-anchor="start" x="17.5" y="-51.5" font-family="Helvetica,sans-Serif" font-size="10.00">BeginFrame()</text>
<text text-anchor="start" x="4.5" y="-36.5" font-family="Helvetica,sans-Serif" font-size="10.00">+</text>
<text text-anchor="start" x="17.5" y="-36.5" font-family="Helvetica,sans-Serif" font-size="10.00">EndFrame()</text>
<text text-anchor="start" x="7" y="-21.5" font-family="Helvetica,sans-Serif" font-size="10.00">&#45;</text>
<text text-anchor="start" x="17.5" y="-21.5" font-family="Helvetica,sans-Serif" font-size="10.00">DestroyFramebuffers()</text>
<text text-anchor="start" x="7" y="-6.5" font-family="Helvetica,sans-Serif" font-size="10.00">&#45;</text>
<text text-anchor="start" x="17.5" y="-6.5" font-family="Helvetica,sans-Serif" font-size="10.00">EnsureFramebufferPostprocess()</text>
<polygon fill="#666666" stroke="#666666" points="0.5,-256.5 0.5,-256.5 203.5,-256.5 203.5,-256.5 0.5,-256.5"/>
<polygon fill="#666666" stroke="#666666" points="0.5,-241.5 0.5,-241.5 203.5,-241.5 203.5,-241.5 0.5,-241.5"/>
<polygon fill="none" stroke="#666666" points="0,0 0,-285 203,-285 203,0 0,0"/>
</a>
</g>
</g>
<!-- Node2 -->
<g id="Node000002" class="node">
<title>Node2</title>
<g id="a_Node000002"><a xlink:title=" ">
<polygon fill="white" stroke="transparent" points="65,-408.5 42,-408.5 42,-359.5 65,-359.5 65,-408.5"/>
<text text-anchor="start" x="47.5" y="-396" font-family="Helvetica,sans-Serif" font-size="10.00">int</text>
<text text-anchor="start" x="52" y="-381" font-family="Helvetica,sans-Serif" font-size="10.00"> </text>
<text text-anchor="start" x="52" y="-366" font-family="Helvetica,sans-Serif" font-size="10.00"> </text>
<polygon fill="#666666" stroke="#666666" points="42.5,-391 42.5,-391 65.5,-391 65.5,-391 42.5,-391"/>
<polygon fill="#666666" stroke="#666666" points="42.5,-376 42.5,-376 65.5,-376 65.5,-376 42.5,-376"/>
<polygon fill="none" stroke="#666666" points="42,-359.5 42,-408.5 65,-408.5 65,-359.5 42,-359.5"/>
</a>
</g>
</g>
<!-- Node2&#45;&gt;Node1 -->
<g id="edge1_Node000001_Node000002" class="edge">
<title>Node2&#45;&gt;Node1</title>
<g id="a_edge1_Node000001_Node000002"><a xlink:title=" ">
<path fill="none" stroke="#63b8ff" d="M58.26,-359.2C61.44,-343.29 65.72,-321.89 69.5,-303 69.88,-301.09 70.27,-299.17 70.65,-297.24"/>
<polygon fill="none" stroke="#63b8ff" points="70.7,-297.02 67.95,-290.35 73.06,-285.25 75.8,-291.92 70.7,-297.02"/>
</a>
</g>
<text text-anchor="middle" x="99" y="-328" font-family="Helvetica,sans-Serif" font-size="10.00" fill="grey"> &#45;height</text>
<text text-anchor="middle" x="99" y="-317" font-family="Helvetica,sans-Serif" font-size="10.00" fill="grey">&#45;layers_size</text>
<text text-anchor="middle" x="99" y="-306" font-family="Helvetica,sans-Serif" font-size="10.00" fill="grey">&#45;width</text>
</g>
<!-- Node3 -->
<g id="Node000003" class="node">
<title>Node3</title>
<g id="a_Node000003"><a xlink:title=" ">
<polygon fill="white" stroke="transparent" points="218,-414 83,-414 83,-354 218,-354 218,-414"/>
<text text-anchor="start" x="88.5" y="-402" font-family="Helvetica,sans-Serif" font-size="10.00">Vector&lt; Gfx::Framebuffer</text>
<text text-anchor="start" x="133.5" y="-391" font-family="Helvetica,sans-Serif" font-size="10.00">Data &gt;</text>
<text text-anchor="start" x="149" y="-376" font-family="Helvetica,sans-Serif" font-size="10.00"> </text>
<text text-anchor="start" x="149" y="-361" font-family="Helvetica,sans-Serif" font-size="10.00"> </text>
<polygon fill="#666666" stroke="#666666" points="83.5,-386 83.5,-386 218.5,-386 218.5,-386 83.5,-386"/>
<polygon fill="#666666" stroke="#666666" points="83.5,-371 83.5,-371 218.5,-371 218.5,-371 83.5,-371"/>
<polygon fill="none" stroke="#666666" points="83,-354 83,-414 218,-414 218,-354 83,-354"/>
</a>
</g>
</g>
<!-- Node3&#45;&gt;Node1 -->
<g id="edge2_Node000001_Node000003" class="edge">
<title>Node3&#45;&gt;Node1</title>
<g id="a_edge2_Node000001_Node000003"><a xlink:title=" ">
<path fill="none" stroke="#63b8ff" d="M144.49,-353.63C141.39,-338.46 137.33,-318.65 132.96,-297.26"/>
<polygon fill="none" stroke="#63b8ff" points="132.9,-297 127.78,-291.92 130.5,-285.24 135.62,-290.32 132.9,-297"/>
</a>
</g>
<text text-anchor="middle" x="178.5" y="-322.5" font-family="Helvetica,sans-Serif" font-size="10.00" fill="grey"> &#45;fb_layers</text>
<text text-anchor="middle" x="178.5" y="-311.5" font-family="Helvetica,sans-Serif" font-size="10.00" fill="grey">&#45;fb_postprocess</text>
</g>
</g>
</svg>
</svg>

<style type='text/css'>
<![CDATA[
[data-mouse-over-selected='false'] { opacity: 0.7; }
[data-mouse-over-selected='true']  { opacity: 1.0; }
]]>
</style>
<script type="application/ecmascript"><![CDATA[
document.addEventListener('DOMContentLoaded', (event) => {
  highlightEdges();
  highlightAdjacentNodes();
});
]]></script>
</svg>
