<?xml version="1.0" encoding="UTF-8" standalone="no"?>
<!DOCTYPE svg PUBLIC "-//W3C//DTD SVG 1.1//EN"
 "http://www.w3.org/Graphics/SVG/1.1/DTD/svg11.dtd">
<!-- Generated by graphviz version 2.43.0 (0)
 -->
<!-- Title: Clipboard++/RmlUI Pages: 1 -->
<!--zoomable 126 -->

<svg id="main" version="1.1" xmlns="http://www.w3.org/2000/svg" xmlns:xlink="http://www.w3.org/1999/xlink" xml:space="preserve" onload="init(evt)">
<style type="text/css"><![CDATA[
.node, .edge {opacity: 0.7;}
.node.selected, .edge.selected {opacity: 1;}
.edge:hover path { stroke: red; }
.edge:hover polygon { stroke: red; fill: red; }
]]></style>

<defs>
  <circle id="rim" cx="0" cy="0" r="7"/>
  <circle id="rim2" cx="0" cy="0" r="3.5"/>
  <g id="zoomPlus">
    <use xlink:href="#rim" fill="#404040"><set attributeName="fill" to="#808080" begin="zoomplus.mouseover" end="zoomplus.mouseout"/></use>
    <path d="M-4,0h8M0,-4v8" fill="none" stroke="white" stroke-width="1.5" pointer-events="none"/>
  </g>
  <g id="zoomMin">
    <use xlink:href="#rim" fill="#404040"><set attributeName="fill" to="#808080" begin="zoomminus.mouseover" end="zoomminus.mouseout"/></use>
    <path d="M-4,0h8" fill="none" stroke="white" stroke-width="1.5" pointer-events="none"/>
  </g>
  <g id="arrowUp" transform="translate(30 24)">
    <use xlink:href="#rim"/>
    <path pointer-events="none" fill="none" stroke="white" stroke-width="1.5" d="M0,-3.0v7 M-2.5,-0.5L0,-3.0L2.5,-0.5"/>
  </g>
  <g id="arrowRight" transform="rotate(90) translate(36 -43)">
    <use xlink:href="#rim"/>
    <path pointer-events="none" fill="none" stroke="white" stroke-width="1.5" d="M0,-3.0v7 M-2.5,-0.5L0,-3.0L2.5,-0.5"/>
  </g>
  <g id="arrowDown" transform="rotate(180) translate(-30 -48)">
    <use xlink:href="#rim"/>
    <path pointer-events="none" fill="none" stroke="white" stroke-width="1.5" d="M0,-3.0v7 M-2.5,-0.5L0,-3.0L2.5,-0.5"/>
  </g>
  <g id="arrowLeft" transform="rotate(270) translate(-36 17)">
    <use xlink:href="#rim"/>
    <path pointer-events="none" fill="none" stroke="white" stroke-width="1.5" d="M0,-3.0v7 M-2.5,-0.5L0,-3.0L2.5,-0.5"/>
  </g>
  <g id="resetDef">
    <use xlink:href="#rim2" fill="#404040"><set attributeName="fill" to="#808080" begin="reset.mouseover" end="reset.mouseout"/></use>
  </g>
</defs>
<script type="application/ecmascript">
var viewWidth = 1153;
var viewHeight = 126;
var sectionId = 'dynsection-0';
</script>
<script type="application/ecmascript" xlink:href="svg.min.js"/>
<svg id="graph" class="graph">
<g id="viewport">
<title>Clipboard++/RmlUI</title>
<g id="clust1" class="cluster">
<title>clusterdir_6c509b302056eafb8526bf2ee94991a5</title>
<g id="a_clust1"><a xlink:href="dir_6c509b302056eafb8526bf2ee94991a5.html" target="_top" xlink:title="Clipboard++">
<polygon fill="#edf0f7" stroke="#404040" stroke-dasharray="5,2" points="8,-8 8,-110 1137,-110 1137,-8 8,-8"/>
<text text-anchor="middle" x="572.5" y="-98" font-family="Helvetica,sans-Serif" font-size="10.00">Clipboard++</text>
</a>
</g>
</g>
<g id="clust2" class="cluster">
<title>clusterdir_452c8ca0414517ab591b54c0054948c3</title>
<g id="a_clust2"><a xlink:href="dir_452c8ca0414517ab591b54c0054948c3.html" target="_top">
<polygon fill="#edf0f7" stroke="#404040" stroke-width="2" points="16,-16 16,-83 1129,-83 1129,-16 16,-16"/>
</a>
</g>
</g>
<g id="clust3" class="cluster">
<title>clusterdir_46a321a3e6535e2a38773c44e65bb94a</title>
<g id="a_clust3"><a xlink:href="dir_46a321a3e6535e2a38773c44e65bb94a.html" target="_top">
<polygon fill="#e6eaf4" stroke="#404040" points="522,-24 522,-75 1121,-75 1121,-24 522,-24"/>
</a>
</g>
</g>
<g id="clust4" class="cluster">
<title>clusterdir_48e93611974c9ac0d48c6bd3a13b1806</title>
<g id="a_clust4"><a xlink:href="dir_48e93611974c9ac0d48c6bd3a13b1806.html" target="_top">
<polygon fill="#dfe5f1" stroke="#404040" points="628,-32 628,-67 1113,-67 1113,-32 628,-32"/>
</a>
</g>
</g>
<g id="clust5" class="cluster">
<title>clusterdir_3d74b765182fe5c2a6b341583e01620d</title>
<g id="a_clust5"><a xlink:href="dir_3d74b765182fe5c2a6b341583e01620d.html" target="_top">
<polygon fill="#e6eaf4" stroke="#404040" points="336,-32 336,-67 514,-67 514,-32 336,-32"/>
</a>
</g>
</g>
<!-- dir_452c8ca0414517ab591b54c0054948c3 -->
<g id="node1" class="node">
<title>dir_452c8ca0414517ab591b54c0054948c3</title>
<text text-anchor="middle" x="303" y="-47" font-family="Helvetica,sans-Serif" font-size="10.00">RmlUI</text>
</g>
<!-- dir_365ffe00187863cbd8563d272a399d2a -->
<g id="node2" class="node">
<title>dir_365ffe00187863cbd8563d272a399d2a</title>
<g id="a_node2"><a xlink:href="dir_365ffe00187863cbd8563d272a399d2a.html" target="_top" xlink:title="Backends">
<polygon fill="#e6eaf4" stroke="#404040" points="261.5,-59 198.5,-59 198.5,-40 261.5,-40 261.5,-59"/>
<text text-anchor="middle" x="230" y="-47" font-family="Helvetica,sans-Serif" font-size="10.00">Backends</text>
</a>
</g>
</g>
<!-- dir_db6d828284d48dab0506427d5ac03f15 -->
<g id="node3" class="node">
<title>dir_db6d828284d48dab0506427d5ac03f15</title>
<g id="a_node3"><a xlink:href="dir_db6d828284d48dab0506427d5ac03f15.html" target="_top" xlink:title="Elements">
<polygon fill="#e6eaf4" stroke="#404040" points="180,-59 118,-59 118,-40 180,-40 180,-59"/>
<text text-anchor="middle" x="149" y="-47" font-family="Helvetica,sans-Serif" font-size="10.00">Elements</text>
</a>
</g>
</g>
<!-- dir_46a321a3e6535e2a38773c44e65bb94a -->
<g id="node4" class="node">
<title>dir_46a321a3e6535e2a38773c44e65bb94a</title>
<text text-anchor="middle" x="574" y="-47" font-family="Helvetica,sans-Serif" font-size="10.00">EventHandlers</text>
</g>
<!-- dir_48e93611974c9ac0d48c6bd3a13b1806 -->
<g id="node5" class="node">
<title>dir_48e93611974c9ac0d48c6bd3a13b1806</title>
<text text-anchor="middle" x="1048" y="-47" font-family="Helvetica,sans-Serif" font-size="10.00">Clipboard++Events</text>
</g>
<!-- dir_dcac548670306a081e6bca009dc4d6c8 -->
<g id="node6" class="node">
<title>dir_dcac548670306a081e6bca009dc4d6c8</title>
<g id="a_node6"><a xlink:href="dir_dcac548670306a081e6bca009dc4d6c8.html" target="_top" xlink:title="Edit">
<polygon fill="#d7deed" stroke="#404040" points="973.5,-59 938.5,-59 938.5,-40 973.5,-40 973.5,-59"/>
<text text-anchor="middle" x="956" y="-47" font-family="Helvetica,sans-Serif" font-size="10.00">Edit</text>
</a>
</g>
</g>
<!-- dir_b35abc2667a853eec39e3ef2ebdbaa6c -->
<g id="node7" class="node">
<title>dir_b35abc2667a853eec39e3ef2ebdbaa6c</title>
<g id="a_node7"><a xlink:href="dir_b35abc2667a853eec39e3ef2ebdbaa6c.html" target="_top" xlink:title="Export">
<polygon fill="#d7deed" stroke="#404040" points="920,-59 872,-59 872,-40 920,-40 920,-59"/>
<text text-anchor="middle" x="896" y="-47" font-family="Helvetica,sans-Serif" font-size="10.00">Export</text>
</a>
</g>
</g>
<!-- dir_9824bf167b80be7f252573457e89ec80 -->
<g id="node8" class="node">
<title>dir_9824bf167b80be7f252573457e89ec80</title>
<g id="a_node8"><a xlink:href="dir_9824bf167b80be7f252573457e89ec80.html" target="_top" xlink:title="Import">
<polygon fill="#d7deed" stroke="#404040" points="853.5,-59 804.5,-59 804.5,-40 853.5,-40 853.5,-59"/>
<text text-anchor="middle" x="829" y="-47" font-family="Helvetica,sans-Serif" font-size="10.00">Import</text>
</a>
</g>
</g>
<!-- dir_68e71d09a89b7c1604c2fedae08a7a48 -->
<g id="node9" class="node">
<title>dir_68e71d09a89b7c1604c2fedae08a7a48</title>
<g id="a_node9"><a xlink:href="dir_68e71d09a89b7c1604c2fedae08a7a48.html" target="_top" xlink:title="Main">
<polygon fill="#d7deed" stroke="#404040" points="786.5,-59 745.5,-59 745.5,-40 786.5,-40 786.5,-59"/>
<text text-anchor="middle" x="766" y="-47" font-family="Helvetica,sans-Serif" font-size="10.00">Main</text>
</a>
</g>
</g>
<!-- dir_71c21a2808e4788c2b301d032d602215 -->
<g id="node10" class="node">
<title>dir_71c21a2808e4788c2b301d032d602215</title>
<g id="a_node10"><a xlink:href="dir_71c21a2808e4788c2b301d032d602215.html" target="_top" xlink:title="ShortCutsMenu">
<polygon fill="#d7deed" stroke="#404040" points="727.5,-59 636.5,-59 636.5,-40 727.5,-40 727.5,-59"/>
<text text-anchor="middle" x="682" y="-47" font-family="Helvetica,sans-Serif" font-size="10.00">ShortCutsMenu</text>
</a>
</g>
</g>
<!-- dir_3d74b765182fe5c2a6b341583e01620d -->
<g id="node11" class="node">
<title>dir_3d74b765182fe5c2a6b341583e01620d</title>
<text text-anchor="middle" x="485" y="-47" font-family="Helvetica,sans-Serif" font-size="10.00">Shell</text>
</g>
<!-- dir_40f3cb1a2ec698157fc9a9f899a0aeb8 -->
<g id="node12" class="node">
<title>dir_40f3cb1a2ec698157fc9a9f899a0aeb8</title>
<g id="a_node12"><a xlink:href="dir_40f3cb1a2ec698157fc9a9f899a0aeb8.html" target="_top" xlink:title="include">
<polygon fill="#dfe5f1" stroke="#404040" points="446,-59 394,-59 394,-40 446,-40 446,-59"/>
<text text-anchor="middle" x="420" y="-47" font-family="Helvetica,sans-Serif" font-size="10.00">include</text>
</a>
</g>
</g>
<!-- dir_cb31e7344ac625c7efe23984a74c1293 -->
<g id="node13" class="node">
<title>dir_cb31e7344ac625c7efe23984a74c1293</title>
<g id="a_node13"><a xlink:href="dir_cb31e7344ac625c7efe23984a74c1293.html" target="_top" xlink:title="src">
<polygon fill="#dfe5f1" stroke="#404040" points="375.5,-59 344.5,-59 344.5,-40 375.5,-40 375.5,-59"/>
<text text-anchor="middle" x="360" y="-47" font-family="Helvetica,sans-Serif" font-size="10.00">src</text>
</a>
</g>
</g>
<!-- dir_618b8582e55c59a9f1a21aa204c6b424 -->
<g id="node14" class="node">
<title>dir_618b8582e55c59a9f1a21aa204c6b424</title>
<g id="a_node14"><a xlink:href="dir_618b8582e55c59a9f1a21aa204c6b424.html" target="_top" xlink:title="ViewModels">
<polygon fill="#e6eaf4" stroke="#404040" points="100,-59 24,-59 24,-40 100,-40 100,-59"/>
<text text-anchor="middle" x="62" y="-47" font-family="Helvetica,sans-Serif" font-size="10.00">ViewModels</text>
</a>
</g>
</g>
</g>
</svg>

<g id="navigator" transform="translate(0 0)" fill="#404254">
  <rect fill="#f2f5e9" fill-opacity="0.5" stroke="#606060" stroke-width=".5" x="0" y="0" width="60" height="60"/>
  <use id="zoomplus" xlink:href="#zoomPlus" x="17" y="9" onmousedown="handleZoom(evt,'in')"/>
  <use id="zoomminus" xlink:href="#zoomMin" x="42" y="9" onmousedown="handleZoom(evt,'out')"/>
  <use id="reset" xlink:href="#resetDef" x="30" y="36" onmousedown="handleReset()"/>
   <use id="arrowup" xlink:href="#arrowUp" x="0" y="0" onmousedown="handlePan(0,-1)"/>
  <use id="arrowright" xlink:href="#arrowRight" x="0" y="0" onmousedown="handlePan(1,0)"/>
  <use id="arrowdown" xlink:href="#arrowDown" x="0" y="0" onmousedown="handlePan(0,1)"/>
  <use id="arrowleft" xlink:href="#arrowLeft" x="0" y="0" onmousedown="handlePan(-1,0)"/>
</g>
<svg viewBox="0 0 15 15" width="100%" height="30px" preserveAspectRatio="xMaxYMin meet">
 <g id="arrow_out" transform="scale(0.3 0.3)">
  <a xlink:href="dir_452c8ca0414517ab591b54c0054948c3_dep_org.svg" target="_base">
   <rect id="button" ry="5" rx="5" y="6" x="6" height="38" width="38"
        fill="#f2f5e9" fill-opacity="0.5" stroke="#606060" stroke-width="1.0"/>
   <path id="arrow"
     d="M 11.500037,31.436501 C 11.940474,20.09759 22.043105,11.32322 32.158766,21.979434 L 37.068811,17.246167 C 37.068811,17.246167 37.088388,32 37.088388,32 L 22.160133,31.978069 C 22.160133,31.978069 26.997745,27.140456 26.997745,27.140456 C 18.528582,18.264221 13.291696,25.230495 11.500037,31.436501 z"
     style="fill:#404040;"/>
  </a>
 </g>
</svg>

<style type='text/css'>
<![CDATA[
[data-mouse-over-selected='false'] { opacity: 0.7; }
[data-mouse-over-selected='true']  { opacity: 1.0; }
]]>
</style>
<script type="application/ecmascript"><![CDATA[
document.addEventListener('DOMContentLoaded', (event) => {
  highlightEdges();
  highlightAdjacentNodes();
});
]]></script>
</svg>
