<?xml version="1.0" encoding="UTF-8" standalone="no"?>
<!DOCTYPE svg PUBLIC "-//W3C//DTD SVG 1.1//EN"
 "http://www.w3.org/Graphics/SVG/1.1/DTD/svg11.dtd">
<!-- Generated by graphviz version 2.43.0 (0)
 -->
<!-- Title: Graphical Class Hierarchy Pages: 1 -->
<svg width="356pt" height="785pt"
 viewBox="0.00 0.00 356.00 785.00" xmlns="http://www.w3.org/2000/svg" xmlns:xlink="http://www.w3.org/1999/xlink">
<g id="graph0" class="graph" transform="scale(1 1) rotate(0) translate(4 781)">
<title>Graphical Class Hierarchy</title>
<!-- Node0 -->
<g id="Node000000" class="node">
<title>Node0</title>
<g id="a_Node000000"><a xlink:href="classClipboardEvent.html" target="_top" xlink:title=" ">
<polygon fill="white" stroke="#666666" points="91,-407 0,-407 0,-388 91,-388 91,-407"/>
<text text-anchor="middle" x="45.5" y="-395" font-family="Helvetica,sans-Serif" font-size="10.00">ClipboardEvent</text>
</a>
</g>
</g>
<!-- Node1 -->
<g id="Node000001" class="node">
<title>Node1</title>
<g id="a_Node000001"><a xlink:href="classAutoCopyEvent.html" target="_top" xlink:title=" ">
<polygon fill="white" stroke="#666666" points="230,-777 138,-777 138,-758 230,-758 230,-777"/>
<text text-anchor="middle" x="184" y="-765" font-family="Helvetica,sans-Serif" font-size="10.00">AutoCopyEvent</text>
</a>
</g>
</g>
<!-- Node0&#45;&gt;Node1 -->
<g id="edge1_Node000000_Node000001" class="edge">
<title>Node0&#45;&gt;Node1</title>
<g id="a_edge1_Node000000_Node000001"><a xlink:title=" ">
<path fill="none" stroke="#63b8ff" d="M48.48,-417.38C55.5,-484.25 81.33,-699.72 127,-749.5 130.11,-752.89 133.85,-755.64 137.91,-757.87"/>
<polygon fill="#63b8ff" stroke="#63b8ff" points="51.95,-416.91 47.44,-407.32 44.98,-417.63 51.95,-416.91"/>
</a>
</g>
</g>
<!-- Node2 -->
<g id="Node000002" class="node">
<title>Node2</title>
<g id="a_Node000002"><a xlink:href="classClearEvent.html" target="_top" xlink:title=" ">
<polygon fill="white" stroke="#666666" points="219,-740 149,-740 149,-721 219,-721 219,-740"/>
<text text-anchor="middle" x="184" y="-728" font-family="Helvetica,sans-Serif" font-size="10.00">ClearEvent</text>
</a>
</g>
</g>
<!-- Node0&#45;&gt;Node2 -->
<g id="edge2_Node000000_Node000002" class="edge">
<title>Node0&#45;&gt;Node2</title>
<g id="a_edge2_Node000000_Node000002"><a xlink:title=" ">
<path fill="none" stroke="#63b8ff" d="M49.04,-417.27C57.37,-479.32 85.76,-668.67 127,-712.5 132.81,-718.67 140.74,-722.74 148.8,-725.41"/>
<polygon fill="#63b8ff" stroke="#63b8ff" points="52.49,-416.69 47.72,-407.23 45.55,-417.6 52.49,-416.69"/>
</a>
</g>
</g>
<!-- Node3 -->
<g id="Node000003" class="node">
<title>Node3</title>
<g id="a_Node000003"><a xlink:href="classEditCloseEvent.html" target="_top" xlink:title=" ">
<polygon fill="white" stroke="#666666" points="229,-703 139,-703 139,-684 229,-684 229,-703"/>
<text text-anchor="middle" x="184" y="-691" font-family="Helvetica,sans-Serif" font-size="10.00">EditCloseEvent</text>
</a>
</g>
</g>
<!-- Node0&#45;&gt;Node3 -->
<g id="edge3_Node000000_Node000003" class="edge">
<title>Node0&#45;&gt;Node3</title>
<g id="a_edge3_Node000000_Node000003"><a xlink:title=" ">
<path fill="none" stroke="#63b8ff" d="M46.27,-417.38C46.78,-467.75 55.22,-601.6 127,-675.5 130.42,-679.02 134.52,-681.85 138.93,-684.12"/>
<polygon fill="#63b8ff" stroke="#63b8ff" points="49.77,-417.2 46.26,-407.2 42.77,-417.2 49.77,-417.2"/>
</a>
</g>
</g>
<!-- Node4 -->
<g id="Node000004" class="node">
<title>Node4</title>
<g id="a_Node000004"><a xlink:href="classEditDoneEvent.html" target="_top" xlink:title=" ">
<polygon fill="white" stroke="#666666" points="228.5,-666 139.5,-666 139.5,-647 228.5,-647 228.5,-666"/>
<text text-anchor="middle" x="184" y="-654" font-family="Helvetica,sans-Serif" font-size="10.00">EditDoneEvent</text>
</a>
</g>
</g>
<!-- Node0&#45;&gt;Node4 -->
<g id="edge4_Node000000_Node000004" class="edge">
<title>Node0&#45;&gt;Node4</title>
<g id="a_edge4_Node000000_Node000004"><a xlink:title=" ">
<path fill="none" stroke="#63b8ff" d="M47.32,-417.48C50.29,-463.18 63.96,-576.17 127,-638.5 130.56,-642.02 134.81,-644.85 139.35,-647.13"/>
<polygon fill="#63b8ff" stroke="#63b8ff" points="50.81,-417.18 46.77,-407.38 43.82,-417.56 50.81,-417.18"/>
</a>
</g>
</g>
<!-- Node5 -->
<g id="Node000005" class="node">
<title>Node5</title>
<g id="a_Node000005"><a xlink:href="classEditEvent.html" target="_top" xlink:title=" ">
<polygon fill="white" stroke="#666666" points="215.5,-629 152.5,-629 152.5,-610 215.5,-610 215.5,-629"/>
<text text-anchor="middle" x="184" y="-617" font-family="Helvetica,sans-Serif" font-size="10.00">EditEvent</text>
</a>
</g>
</g>
<!-- Node0&#45;&gt;Node5 -->
<g id="edge5_Node000000_Node000005" class="edge">
<title>Node0&#45;&gt;Node5</title>
<g id="a_edge5_Node000000_Node000005"><a xlink:title=" ">
<path fill="none" stroke="#63b8ff" d="M48.71,-417.39C54.27,-457.9 72.52,-550.44 127,-601.5 133.93,-607.99 143.22,-612.15 152.23,-614.8"/>
<polygon fill="#63b8ff" stroke="#63b8ff" points="52.15,-416.7 47.44,-407.21 45.21,-417.57 52.15,-416.7"/>
</a>
</g>
</g>
<!-- Node6 -->
<g id="Node000006" class="node">
<title>Node6</title>
<g id="a_Node000006"><a xlink:href="classExpandEvent.html" target="_top" xlink:title=" ">
<polygon fill="white" stroke="#666666" points="224,-592 144,-592 144,-573 224,-573 224,-592"/>
<text text-anchor="middle" x="184" y="-580" font-family="Helvetica,sans-Serif" font-size="10.00">ExpandEvent</text>
</a>
</g>
</g>
<!-- Node0&#45;&gt;Node6 -->
<g id="edge6_Node000000_Node000006" class="edge">
<title>Node0&#45;&gt;Node6</title>
<g id="a_edge6_Node000000_Node000006"><a xlink:title=" ">
<path fill="none" stroke="#63b8ff" d="M50.54,-416.85C58.78,-451.5 80.78,-524.26 127,-564.5 131.85,-568.72 137.71,-571.96 143.78,-574.44"/>
<polygon fill="#63b8ff" stroke="#63b8ff" points="53.95,-416.02 48.34,-407.03 47.12,-417.56 53.95,-416.02"/>
</a>
</g>
</g>
<!-- Node7 -->
<g id="Node000007" class="node">
<title>Node7</title>
<g id="a_Node000007"><a xlink:href="classExportCloseEvent.html" target="_top" xlink:title=" ">
<polygon fill="white" stroke="#666666" points="235.5,-555 132.5,-555 132.5,-536 235.5,-536 235.5,-555"/>
<text text-anchor="middle" x="184" y="-543" font-family="Helvetica,sans-Serif" font-size="10.00">ExportCloseEvent</text>
</a>
</g>
</g>
<!-- Node0&#45;&gt;Node7 -->
<g id="edge7_Node000000_Node000007" class="edge">
<title>Node0&#45;&gt;Node7</title>
<g id="a_edge7_Node000000_Node000007"><a xlink:title=" ">
<path fill="none" stroke="#63b8ff" d="M53.45,-416.87C64.61,-445.23 89.17,-497.92 127,-527.5 131.34,-530.9 136.35,-533.66 141.54,-535.91"/>
<polygon fill="#63b8ff" stroke="#63b8ff" points="56.64,-415.4 49.83,-407.28 50.09,-417.87 56.64,-415.4"/>
</a>
</g>
</g>
<!-- Node8 -->
<g id="Node000008" class="node">
<title>Node8</title>
<g id="a_Node000008"><a xlink:href="classExportEvent.html" target="_top" xlink:title=" ">
<polygon fill="white" stroke="#666666" points="222,-518 146,-518 146,-499 222,-499 222,-518"/>
<text text-anchor="middle" x="184" y="-506" font-family="Helvetica,sans-Serif" font-size="10.00">ExportEvent</text>
</a>
</g>
</g>
<!-- Node0&#45;&gt;Node8 -->
<g id="edge8_Node000000_Node000008" class="edge">
<title>Node0&#45;&gt;Node8</title>
<g id="a_edge8_Node000000_Node000008"><a xlink:title=" ">
<path fill="none" stroke="#63b8ff" d="M57.83,-415.81C71.69,-436.75 97.03,-470.69 127,-490.5 132.71,-494.27 139.26,-497.3 145.83,-499.72"/>
<polygon fill="#63b8ff" stroke="#63b8ff" points="60.65,-413.72 52.3,-407.2 54.76,-417.51 60.65,-413.72"/>
</a>
</g>
</g>
<!-- Node9 -->
<g id="Node000009" class="node">
<title>Node9</title>
<g id="a_Node000009"><a xlink:href="classExportFileEvent.html" target="_top" xlink:title=" ">
<polygon fill="white" stroke="#666666" points="230.5,-481 137.5,-481 137.5,-462 230.5,-462 230.5,-481"/>
<text text-anchor="middle" x="184" y="-469" font-family="Helvetica,sans-Serif" font-size="10.00">ExportFileEvent</text>
</a>
</g>
</g>
<!-- Node0&#45;&gt;Node9 -->
<g id="edge9_Node000000_Node000009" class="edge">
<title>Node0&#45;&gt;Node9</title>
<g id="a_edge9_Node000000_Node000009"><a xlink:title=" ">
<path fill="none" stroke="#63b8ff" d="M65.71,-413.32C81.41,-425.63 104.6,-442.42 127,-453.5 133.5,-456.71 140.7,-459.53 147.71,-461.92"/>
<polygon fill="#63b8ff" stroke="#63b8ff" points="67.81,-410.52 57.81,-407.01 63.44,-415.99 67.81,-410.52"/>
</a>
</g>
</g>
<!-- Node10 -->
<g id="Node000010" class="node">
<title>Node10</title>
<g id="a_Node000010"><a xlink:href="classExportSearchEvent.html" target="_top" xlink:title=" ">
<polygon fill="white" stroke="#666666" points="238.5,-444 129.5,-444 129.5,-425 238.5,-425 238.5,-444"/>
<text text-anchor="middle" x="184" y="-432" font-family="Helvetica,sans-Serif" font-size="10.00">ExportSearchEvent</text>
</a>
</g>
</g>
<!-- Node0&#45;&gt;Node10 -->
<g id="edge10_Node000000_Node000010" class="edge">
<title>Node0&#45;&gt;Node10</title>
<g id="a_edge10_Node000000_Node000010"><a xlink:title=" ">
<path fill="none" stroke="#63b8ff" d="M91.47,-409.69C109.67,-414.62 130.38,-420.24 147.49,-424.88"/>
<polygon fill="#63b8ff" stroke="#63b8ff" points="92.22,-406.27 81.65,-407.03 90.39,-413.02 92.22,-406.27"/>
</a>
</g>
</g>
<!-- Node11 -->
<g id="Node000011" class="node">
<title>Node11</title>
<g id="a_Node000011"><a xlink:href="classHelpEvent.html" target="_top" xlink:title=" ">
<polygon fill="white" stroke="#666666" points="217.5,-407 150.5,-407 150.5,-388 217.5,-388 217.5,-407"/>
<text text-anchor="middle" x="184" y="-395" font-family="Helvetica,sans-Serif" font-size="10.00">HelpEvent</text>
</a>
</g>
</g>
<!-- Node0&#45;&gt;Node11 -->
<g id="edge11_Node000000_Node000011" class="edge">
<title>Node0&#45;&gt;Node11</title>
<g id="a_edge11_Node000000_Node000011"><a xlink:title=" ">
<path fill="none" stroke="#63b8ff" d="M101.35,-397.5C117.96,-397.5 135.66,-397.5 150.33,-397.5"/>
<polygon fill="#63b8ff" stroke="#63b8ff" points="101.2,-394 91.2,-397.5 101.2,-401 101.2,-394"/>
</a>
</g>
</g>
<!-- Node12 -->
<g id="Node000012" class="node">
<title>Node12</title>
<g id="a_Node000012"><a xlink:href="classImportCloseEvent.html" target="_top" xlink:title=" ">
<polygon fill="white" stroke="#666666" points="236,-370 132,-370 132,-351 236,-351 236,-370"/>
<text text-anchor="middle" x="184" y="-358" font-family="Helvetica,sans-Serif" font-size="10.00">ImportCloseEvent</text>
</a>
</g>
</g>
<!-- Node0&#45;&gt;Node12 -->
<g id="edge12_Node000000_Node000012" class="edge">
<title>Node0&#45;&gt;Node12</title>
<g id="a_edge12_Node000000_Node000012"><a xlink:title=" ">
<path fill="none" stroke="#63b8ff" d="M91.47,-385.31C109.67,-380.38 130.38,-374.76 147.49,-370.12"/>
<polygon fill="#63b8ff" stroke="#63b8ff" points="90.39,-381.98 81.65,-387.97 92.22,-388.73 90.39,-381.98"/>
</a>
</g>
</g>
<!-- Node13 -->
<g id="Node000013" class="node">
<title>Node13</title>
<g id="a_Node000013"><a xlink:href="classImportEvent.html" target="_top" xlink:title=" ">
<polygon fill="white" stroke="#666666" points="222.5,-333 145.5,-333 145.5,-314 222.5,-314 222.5,-333"/>
<text text-anchor="middle" x="184" y="-321" font-family="Helvetica,sans-Serif" font-size="10.00">ImportEvent</text>
</a>
</g>
</g>
<!-- Node0&#45;&gt;Node13 -->
<g id="edge13_Node000000_Node000013" class="edge">
<title>Node0&#45;&gt;Node13</title>
<g id="a_edge13_Node000000_Node000013"><a xlink:title=" ">
<path fill="none" stroke="#63b8ff" d="M66.35,-381.66C82.09,-369.68 105.02,-353.48 127,-342.5 134.16,-338.92 142.16,-335.76 149.82,-333.09"/>
<polygon fill="#63b8ff" stroke="#63b8ff" points="64.16,-378.93 58.4,-387.82 68.45,-384.47 64.16,-378.93"/>
</a>
</g>
</g>
<!-- Node14 -->
<g id="Node000014" class="node">
<title>Node14</title>
<g id="a_Node000014"><a xlink:href="classImportFileEvent.html" target="_top" xlink:title=" ">
<polygon fill="white" stroke="#666666" points="231,-296 137,-296 137,-277 231,-277 231,-296"/>
<text text-anchor="middle" x="184" y="-284" font-family="Helvetica,sans-Serif" font-size="10.00">ImportFileEvent</text>
</a>
</g>
</g>
<!-- Node0&#45;&gt;Node14 -->
<g id="edge14_Node000000_Node000014" class="edge">
<title>Node0&#45;&gt;Node14</title>
<g id="a_edge14_Node000000_Node000014"><a xlink:title=" ">
<path fill="none" stroke="#63b8ff" d="M57.93,-379.47C71.89,-358.84 97.32,-325.35 127,-305.5 132.72,-301.68 139.28,-298.55 145.85,-296.02"/>
<polygon fill="#63b8ff" stroke="#63b8ff" points="54.93,-377.67 52.36,-387.95 60.78,-381.52 54.93,-377.67"/>
</a>
</g>
</g>
<!-- Node15 -->
<g id="Node000015" class="node">
<title>Node15</title>
<g id="a_Node000015"><a xlink:href="classImportSearchEvent.html" target="_top" xlink:title=" ">
<polygon fill="white" stroke="#666666" points="239,-259 129,-259 129,-240 239,-240 239,-259"/>
<text text-anchor="middle" x="184" y="-247" font-family="Helvetica,sans-Serif" font-size="10.00">ImportSearchEvent</text>
</a>
</g>
</g>
<!-- Node0&#45;&gt;Node15 -->
<g id="edge15_Node000000_Node000015" class="edge">
<title>Node0&#45;&gt;Node15</title>
<g id="a_edge15_Node000000_Node000015"><a xlink:title=" ">
<path fill="none" stroke="#63b8ff" d="M53.56,-378.36C64.84,-350.31 89.57,-298.15 127,-268.5 131.91,-264.61 137.66,-261.5 143.57,-259.01"/>
<polygon fill="#63b8ff" stroke="#63b8ff" points="50.24,-377.24 49.89,-387.83 56.76,-379.77 50.24,-377.24"/>
</a>
</g>
</g>
<!-- Node16 -->
<g id="Node000016" class="node">
<title>Node16</title>
<g id="a_Node000016"><a xlink:href="classInsertEvent.html" target="_top" xlink:title=" ">
<polygon fill="white" stroke="#666666" points="220,-222 148,-222 148,-203 220,-203 220,-222"/>
<text text-anchor="middle" x="184" y="-210" font-family="Helvetica,sans-Serif" font-size="10.00">InsertEvent</text>
</a>
</g>
</g>
<!-- Node0&#45;&gt;Node16 -->
<g id="edge16_Node000000_Node000016" class="edge">
<title>Node0&#45;&gt;Node16</title>
<g id="a_edge16_Node000000_Node000016"><a xlink:title=" ">
<path fill="none" stroke="#63b8ff" d="M50.76,-377.84C59.25,-343.32 81.5,-271.67 127,-231.5 132.93,-226.27 140.35,-222.47 147.84,-219.7"/>
<polygon fill="#63b8ff" stroke="#63b8ff" points="47.34,-377.13 48.48,-387.66 54.15,-378.71 47.34,-377.13"/>
</a>
</g>
</g>
<!-- Node17 -->
<g id="Node000017" class="node">
<title>Node17</title>
<g id="a_Node000017"><a xlink:href="classLoadEvent.html" target="_top" xlink:title=" ">
<polygon fill="white" stroke="#666666" points="218,-185 150,-185 150,-166 218,-166 218,-185"/>
<text text-anchor="middle" x="184" y="-173" font-family="Helvetica,sans-Serif" font-size="10.00">LoadEvent</text>
</a>
</g>
</g>
<!-- Node0&#45;&gt;Node17 -->
<g id="edge17_Node000000_Node000017" class="edge">
<title>Node0&#45;&gt;Node17</title>
<g id="a_edge17_Node000000_Node000017"><a xlink:title=" ">
<path fill="none" stroke="#63b8ff" d="M48.81,-377.78C54.55,-337.59 73.12,-245.73 127,-194.5 133.32,-188.49 141.62,-184.37 149.89,-181.56"/>
<polygon fill="#63b8ff" stroke="#63b8ff" points="45.32,-377.5 47.49,-387.87 52.26,-378.41 45.32,-377.5"/>
</a>
</g>
</g>
<!-- Node18 -->
<g id="Node000018" class="node">
<title>Node18</title>
<g id="a_Node000018"><a xlink:href="classResetShortCutEvent.html" target="_top" xlink:title=" ">
<polygon fill="white" stroke="#666666" points="241,-148 127,-148 127,-129 241,-129 241,-148"/>
<text text-anchor="middle" x="184" y="-136" font-family="Helvetica,sans-Serif" font-size="10.00">ResetShortCutEvent</text>
</a>
</g>
</g>
<!-- Node0&#45;&gt;Node18 -->
<g id="edge18_Node000000_Node000018" class="edge">
<title>Node0&#45;&gt;Node18</title>
<g id="a_edge18_Node000000_Node000018"><a xlink:title=" ">
<path fill="none" stroke="#63b8ff" d="M47.42,-377.67C50.59,-332.3 64.66,-220.06 127,-157.5 130.84,-153.65 135.49,-150.57 140.45,-148.12"/>
<polygon fill="#63b8ff" stroke="#63b8ff" points="43.92,-377.5 46.82,-387.69 50.91,-377.92 43.92,-377.5"/>
</a>
</g>
</g>
<!-- Node19 -->
<g id="Node000019" class="node">
<title>Node19</title>
<g id="a_Node000019"><a xlink:href="classSearchEvent.html" target="_top" xlink:title=" ">
<polygon fill="white" stroke="#666666" points="222.5,-111 145.5,-111 145.5,-92 222.5,-92 222.5,-111"/>
<text text-anchor="middle" x="184" y="-99" font-family="Helvetica,sans-Serif" font-size="10.00">SearchEvent</text>
</a>
</g>
</g>
<!-- Node0&#45;&gt;Node19 -->
<g id="edge19_Node000000_Node000019" class="edge">
<title>Node0&#45;&gt;Node19</title>
<g id="a_edge19_Node000000_Node000019"><a xlink:title=" ">
<path fill="none" stroke="#63b8ff" d="M46.36,-377.75C47.1,-327.72 56.02,-194.69 127,-120.5 132.04,-115.23 138.59,-111.43 145.43,-108.67"/>
<polygon fill="#63b8ff" stroke="#63b8ff" points="42.86,-377.85 46.31,-387.87 49.86,-377.88 42.86,-377.85"/>
</a>
</g>
</g>
<!-- Node20 -->
<g id="Node000020" class="node">
<title>Node20</title>
<g id="a_Node000020"><a xlink:href="classSlotEvent.html" target="_top" xlink:title=" ">
<polygon fill="white" stroke="#666666" points="215.5,-74 152.5,-74 152.5,-55 215.5,-55 215.5,-74"/>
<text text-anchor="middle" x="184" y="-62" font-family="Helvetica,sans-Serif" font-size="10.00">SlotEvent</text>
</a>
</g>
</g>
<!-- Node0&#45;&gt;Node20 -->
<g id="edge20_Node000000_Node000020" class="edge">
<title>Node0&#45;&gt;Node20</title>
<g id="a_edge20_Node000000_Node000020"><a xlink:title=" ">
<path fill="none" stroke="#63b8ff" d="M49.08,-377.82C57.53,-316.05 86.22,-127.51 127,-83.5 133.63,-76.35 143.05,-71.89 152.28,-69.1"/>
<polygon fill="#63b8ff" stroke="#63b8ff" points="45.6,-377.44 47.73,-387.81 52.53,-378.37 45.6,-377.44"/>
</a>
</g>
</g>
<!-- Node21 -->
<g id="Node000021" class="node">
<title>Node21</title>
<g id="a_Node000021"><a xlink:href="classWindowFocusEvent.html" target="_top" xlink:title=" ">
<polygon fill="white" stroke="#666666" points="239.5,-37 128.5,-37 128.5,-18 239.5,-18 239.5,-37"/>
<text text-anchor="middle" x="184" y="-25" font-family="Helvetica,sans-Serif" font-size="10.00">WindowFocusEvent</text>
</a>
</g>
</g>
<!-- Node0&#45;&gt;Node21 -->
<g id="edge21_Node000000_Node000021" class="edge">
<title>Node0&#45;&gt;Node21</title>
<g id="a_edge21_Node000000_Node000021"><a xlink:title=" ">
<path fill="none" stroke="#63b8ff" d="M48.51,-377.71C55.66,-311.11 81.84,-96.5 127,-46.5 130.51,-42.61 134.84,-39.52 139.53,-37.06"/>
<polygon fill="#63b8ff" stroke="#63b8ff" points="45.03,-377.41 47.46,-387.72 51.99,-378.14 45.03,-377.41"/>
</a>
</g>
</g>
<!-- Node22 -->
<g id="Node000022" class="node">
<title>Node22</title>
<g id="a_Node000022"><a xlink:href="classCopyEvent.html" target="_top" xlink:title=" ">
<polygon fill="white" stroke="#666666" points="347,-56 278,-56 278,-37 347,-37 347,-56"/>
<text text-anchor="middle" x="312.5" y="-44" font-family="Helvetica,sans-Serif" font-size="10.00">CopyEvent</text>
</a>
</g>
</g>
<!-- Node21&#45;&gt;Node22 -->
<g id="edge22_Node000021_Node000022" class="edge">
<title>Node21&#45;&gt;Node22</title>
<g id="a_edge22_Node000021_Node000022"><a xlink:title=" ">
<path fill="none" stroke="#63b8ff" d="M249.83,-37.24C259.52,-38.69 269.16,-40.14 277.84,-41.44"/>
<polygon fill="#63b8ff" stroke="#63b8ff" points="250.16,-33.75 239.75,-35.72 249.12,-40.67 250.16,-33.75"/>
</a>
</g>
</g>
<!-- Node23 -->
<g id="Node000023" class="node">
<title>Node23</title>
<g id="a_Node000023"><a xlink:href="classPasteEvent.html" target="_top" xlink:title=" ">
<polygon fill="white" stroke="#666666" points="348,-19 277,-19 277,0 348,0 348,-19"/>
<text text-anchor="middle" x="312.5" y="-7" font-family="Helvetica,sans-Serif" font-size="10.00">PasteEvent</text>
</a>
</g>
</g>
<!-- Node21&#45;&gt;Node23 -->
<g id="edge23_Node000021_Node000023" class="edge">
<title>Node21&#45;&gt;Node23</title>
<g id="a_edge23_Node000021_Node000023"><a xlink:title=" ">
<path fill="none" stroke="#63b8ff" d="M249.81,-18.28C259.1,-16.96 268.35,-15.64 276.75,-14.44"/>
<polygon fill="#63b8ff" stroke="#63b8ff" points="249.16,-14.84 239.75,-19.71 250.14,-21.77 249.16,-14.84"/>
</a>
</g>
</g>
</g>
</svg>
