<?xml version="1.0" encoding="UTF-8" standalone="no"?>
<!DOCTYPE svg PUBLIC "-//W3C//DTD SVG 1.1//EN"
 "http://www.w3.org/Graphics/SVG/1.1/DTD/svg11.dtd">
<!-- Generated by graphviz version 2.43.0 (0)
 -->
<!-- Title: Graphical Class Hierarchy Pages: 1 -->
<svg width="252pt" height="64pt"
 viewBox="0.00 0.00 252.00 64.00" xmlns="http://www.w3.org/2000/svg" xmlns:xlink="http://www.w3.org/1999/xlink">
<g id="graph0" class="graph" transform="scale(1 1) rotate(0) translate(4 60)">
<title>Graphical Class Hierarchy</title>
<!-- Node0 -->
<g id="Node000000" class="node">
<title>Node0</title>
<g id="a_Node000000"><a xlink:href="classClipboardInterface.html" target="_top" xlink:title=" ">
<polygon fill="white" stroke="#666666" points="107,-37 0,-37 0,-18 107,-18 107,-37"/>
<text text-anchor="middle" x="53.5" y="-25" font-family="Helvetica,sans-Serif" font-size="10.00">ClipboardInterface</text>
</a>
</g>
</g>
<!-- Node1 -->
<g id="Node000001" class="node">
<title>Node1</title>
<g id="a_Node000001"><a xlink:href="classClipboardAdapter.html" target="_top" xlink:title=" ">
<polygon fill="white" stroke="#666666" points="244,-56 143,-56 143,-37 244,-37 244,-56"/>
<text text-anchor="middle" x="193.5" y="-44" font-family="Helvetica,sans-Serif" font-size="10.00">ClipboardAdapter</text>
</a>
</g>
</g>
<!-- Node0&#45;&gt;Node1 -->
<g id="edge24_Node000000_Node000001" class="edge">
<title>Node0&#45;&gt;Node1</title>
<g id="a_edge24_Node000000_Node000001"><a xlink:title=" ">
<path fill="none" stroke="#63b8ff" d="M117.09,-36.12C125.71,-37.3 134.46,-38.51 142.81,-39.66"/>
<polygon fill="#63b8ff" stroke="#63b8ff" points="117.45,-32.63 107.07,-34.74 116.49,-39.57 117.45,-32.63"/>
</a>
</g>
</g>
<!-- Node2 -->
<g id="Node000002" class="node">
<title>Node2</title>
<g id="a_Node000002"><a xlink:href="classMemoryCell.html" target="_top" xlink:title=" ">
<polygon fill="white" stroke="#666666" points="231.5,-19 155.5,-19 155.5,0 231.5,0 231.5,-19"/>
<text text-anchor="middle" x="193.5" y="-7" font-family="Helvetica,sans-Serif" font-size="10.00">MemoryCell</text>
</a>
</g>
</g>
<!-- Node0&#45;&gt;Node2 -->
<g id="edge25_Node000000_Node000002" class="edge">
<title>Node0&#45;&gt;Node2</title>
<g id="a_edge25_Node000000_Node000002"><a xlink:title=" ">
<path fill="none" stroke="#63b8ff" d="M117.32,-19.31C130.23,-17.62 143.43,-15.9 155.09,-14.38"/>
<polygon fill="#63b8ff" stroke="#63b8ff" points="116.53,-15.88 107.07,-20.64 117.43,-22.82 116.53,-15.88"/>
</a>
</g>
</g>
</g>
</svg>
