<?xml version="1.0" encoding="UTF-8" standalone="no"?>
<!DOCTYPE svg PUBLIC "-//W3C//DTD SVG 1.1//EN"
 "http://www.w3.org/Graphics/SVG/1.1/DTD/svg11.dtd">
<!-- Generated by graphviz version 2.43.0 (0)
 -->
<!-- Title: Graphical Class Hierarchy Pages: 1 -->
<svg width="270pt" height="175pt"
 viewBox="0.00 0.00 270.00 175.00" xmlns="http://www.w3.org/2000/svg" xmlns:xlink="http://www.w3.org/1999/xlink">
<g id="graph0" class="graph" transform="scale(1 1) rotate(0) translate(4 171)">
<title>Graphical Class Hierarchy</title>
<!-- Node0 -->
<g id="Node000000" class="node">
<title>Node0</title>
<g id="a_Node000000"><a xlink:title=" ">
<polygon fill="#e0e0e0" stroke="#999999" points="96,-111 13,-111 13,-92 96,-92 96,-111"/>
<text text-anchor="middle" x="54.5" y="-99" font-family="Helvetica,sans-Serif" font-size="10.00">Rml::Element</text>
</a>
</g>
</g>
<!-- Node1 -->
<g id="Node000001" class="node">
<title>Node1</title>
<g id="a_Node000001"><a xlink:href="classElementClipboard.html" target="_top" xlink:title=" ">
<polygon fill="white" stroke="#666666" points="255.5,-130 151.5,-130 151.5,-111 255.5,-111 255.5,-130"/>
<text text-anchor="middle" x="203.5" y="-118" font-family="Helvetica,sans-Serif" font-size="10.00">ElementClipboard</text>
</a>
</g>
</g>
<!-- Node0&#45;&gt;Node1 -->
<g id="edge28_Node000000_Node000001" class="edge">
<title>Node0&#45;&gt;Node1</title>
<g id="a_edge28_Node000000_Node000001"><a xlink:title=" ">
<path fill="none" stroke="#63b8ff" d="M106.37,-108.08C120.9,-109.95 136.75,-112 151.3,-113.88"/>
<polygon fill="#63b8ff" stroke="#63b8ff" points="106.42,-104.55 96.06,-106.74 105.53,-111.5 106.42,-104.55"/>
</a>
</g>
</g>
<!-- Node2 -->
<g id="Node000002" class="node">
<title>Node2</title>
<g id="a_Node000002"><a xlink:href="classElementEdit.html" target="_top" xlink:title=" ">
<polygon fill="white" stroke="#666666" points="241.5,-56 165.5,-56 165.5,-37 241.5,-37 241.5,-56"/>
<text text-anchor="middle" x="203.5" y="-44" font-family="Helvetica,sans-Serif" font-size="10.00">ElementEdit</text>
</a>
</g>
</g>
<!-- Node0&#45;&gt;Node2 -->
<g id="edge29_Node000000_Node000002" class="edge">
<title>Node0&#45;&gt;Node2</title>
<g id="a_edge29_Node000000_Node000002"><a xlink:title=" ">
<path fill="none" stroke="#63b8ff" d="M87.6,-88.01C104.57,-81.03 125.8,-72.52 145,-65.5 153.89,-62.25 163.63,-58.93 172.53,-56"/>
<polygon fill="#63b8ff" stroke="#63b8ff" points="86.05,-84.87 78.15,-91.93 88.73,-91.34 86.05,-84.87"/>
</a>
</g>
</g>
<!-- Node6 -->
<g id="Node000006" class="node">
<title>Node6</title>
<g id="a_Node000006"><a xlink:href="classElementFileManager.html" target="_top" xlink:title=" ">
<polygon fill="white" stroke="#666666" points="262,-167 145,-167 145,-148 262,-148 262,-167"/>
<text text-anchor="middle" x="203.5" y="-155" font-family="Helvetica,sans-Serif" font-size="10.00">ElementFileManager</text>
</a>
</g>
</g>
<!-- Node0&#45;&gt;Node6 -->
<g id="edge30_Node000000_Node000006" class="edge">
<title>Node0&#45;&gt;Node6</title>
<g id="a_edge30_Node000000_Node000006"><a xlink:title=" ">
<path fill="none" stroke="#63b8ff" d="M86.11,-115.38C103.26,-122.93 125.13,-132.19 145,-139.5 153.05,-142.46 161.84,-145.37 170.08,-147.96"/>
<polygon fill="#63b8ff" stroke="#63b8ff" points="87.16,-112.02 76.6,-111.15 84.32,-118.41 87.16,-112.02"/>
</a>
</g>
</g>
<!-- Node4 -->
<g id="Node000004" class="node">
<title>Node4</title>
<g id="a_Node000004"><a xlink:href="classElementShortcuts.html" target="_top" xlink:title=" ">
<polygon fill="white" stroke="#666666" points="255,-93 152,-93 152,-74 255,-74 255,-93"/>
<text text-anchor="middle" x="203.5" y="-81" font-family="Helvetica,sans-Serif" font-size="10.00">ElementShortcuts</text>
</a>
</g>
</g>
<!-- Node0&#45;&gt;Node4 -->
<g id="edge31_Node000000_Node000004" class="edge">
<title>Node0&#45;&gt;Node4</title>
<g id="a_edge31_Node000000_Node000004"><a xlink:title=" ">
<path fill="none" stroke="#63b8ff" d="M106.05,-95.31C120.85,-93.5 137.03,-91.52 151.84,-89.7"/>
<polygon fill="#63b8ff" stroke="#63b8ff" points="105.56,-91.84 96.06,-96.53 106.41,-98.79 105.56,-91.84"/>
</a>
</g>
</g>
<!-- Node3 -->
<g id="Node000003" class="node">
<title>Node3</title>
<g id="a_Node000003"><a xlink:title=" ">
<polygon fill="#e0e0e0" stroke="#999999" points="109,-56 0,-56 0,-37 109,-37 109,-56"/>
<text text-anchor="middle" x="54.5" y="-44" font-family="Helvetica,sans-Serif" font-size="10.00">Rml::EventListener</text>
</a>
</g>
</g>
<!-- Node3&#45;&gt;Node2 -->
<g id="edge32_Node000003_Node000002" class="edge">
<title>Node3&#45;&gt;Node2</title>
<g id="a_edge32_Node000003_Node000002"><a xlink:title=" ">
<path fill="none" stroke="#63b8ff" d="M119.53,-46.5C135.11,-46.5 151.27,-46.5 165.14,-46.5"/>
<polygon fill="#63b8ff" stroke="#63b8ff" points="119.4,-43 109.4,-46.5 119.4,-50 119.4,-43"/>
</a>
</g>
</g>
<!-- Node3&#45;&gt;Node4 -->
<g id="edge33_Node000003_Node000004" class="edge">
<title>Node3&#45;&gt;Node4</title>
<g id="a_edge33_Node000003_Node000004"><a xlink:title=" ">
<path fill="none" stroke="#63b8ff" d="M103.15,-58.49C123.03,-63.5 145.8,-69.23 164.52,-73.94"/>
<polygon fill="#63b8ff" stroke="#63b8ff" points="103.91,-55.08 93.36,-56.03 102.2,-61.86 103.91,-55.08"/>
</a>
</g>
</g>
<!-- Node5 -->
<g id="Node000005" class="node">
<title>Node5</title>
<g id="a_Node000005"><a xlink:href="classEventListener.html" target="_top" xlink:title=" ">
<polygon fill="white" stroke="#666666" points="245,-19 162,-19 162,0 245,0 245,-19"/>
<text text-anchor="middle" x="203.5" y="-7" font-family="Helvetica,sans-Serif" font-size="10.00">EventListener</text>
</a>
</g>
</g>
<!-- Node3&#45;&gt;Node5 -->
<g id="edge34_Node000003_Node000005" class="edge">
<title>Node3&#45;&gt;Node5</title>
<g id="a_edge34_Node000003_Node000005"><a xlink:title=" ">
<path fill="none" stroke="#63b8ff" d="M103.15,-34.51C123.03,-29.5 145.8,-23.77 164.52,-19.06"/>
<polygon fill="#63b8ff" stroke="#63b8ff" points="102.2,-31.14 93.36,-36.97 103.91,-37.92 102.2,-31.14"/>
</a>
</g>
</g>
</g>
</svg>
