<?xml version="1.0" encoding="UTF-8" standalone="no"?>
<!DOCTYPE svg PUBLIC "-//W3C//DTD SVG 1.1//EN"
 "http://www.w3.org/Graphics/SVG/1.1/DTD/svg11.dtd">
<!-- Generated by graphviz version 2.43.0 (0)
 -->
<!-- Title: Graphical Class Hierarchy Pages: 1 -->
<svg width="462pt" height="27pt"
 viewBox="0.00 0.00 462.00 27.00" xmlns="http://www.w3.org/2000/svg" xmlns:xlink="http://www.w3.org/1999/xlink">
<g id="graph0" class="graph" transform="scale(1 1) rotate(0) translate(4 23)">
<title>Graphical Class Hierarchy</title>
<!-- Node0 -->
<g id="Node000000" class="node">
<title>Node0</title>
<g id="a_Node000000"><a xlink:title=" ">
<polygon fill="#e0e0e0" stroke="#999999" points="120,-19 0,-19 0,0 120,0 120,-19"/>
<text text-anchor="middle" x="60" y="-7" font-family="Helvetica,sans-Serif" font-size="10.00">Rml::RenderInterface</text>
</a>
</g>
</g>
<!-- Node1 -->
<g id="Node000001" class="node">
<title>Node1</title>
<g id="a_Node000001"><a xlink:href="classRenderInterface__GL3.html" target="_top" xlink:title=" ">
<polygon fill="white" stroke="#666666" points="275,-19 156,-19 156,0 275,0 275,-19"/>
<text text-anchor="middle" x="215.5" y="-7" font-family="Helvetica,sans-Serif" font-size="10.00">RenderInterface_GL3</text>
</a>
</g>
</g>
<!-- Node0&#45;&gt;Node1 -->
<g id="edge37_Node000000_Node000001" class="edge">
<title>Node0&#45;&gt;Node1</title>
<g id="a_edge37_Node000000_Node000001"><a xlink:title=" ">
<path fill="none" stroke="#63b8ff" d="M130.56,-9.5C139,-9.5 147.55,-9.5 155.82,-9.5"/>
<polygon fill="#63b8ff" stroke="#63b8ff" points="130.35,-6 120.35,-9.5 130.35,-13 130.35,-6"/>
</a>
</g>
</g>
<!-- Node2 -->
<g id="Node000002" class="node">
<title>Node2</title>
<g id="a_Node000002"><a xlink:href="classRenderInterface__GL3__SDL.html" target="_top" xlink:title=" ">
<polygon fill="white" stroke="#666666" points="454,-19 311,-19 311,0 454,0 454,-19"/>
<text text-anchor="middle" x="382.5" y="-7" font-family="Helvetica,sans-Serif" font-size="10.00">RenderInterface_GL3_SDL</text>
</a>
</g>
</g>
<!-- Node1&#45;&gt;Node2 -->
<g id="edge38_Node000001_Node000002" class="edge">
<title>Node1&#45;&gt;Node2</title>
<g id="a_edge38_Node000001_Node000002"><a xlink:title=" ">
<path fill="none" stroke="#63b8ff" d="M285.33,-9.5C293.78,-9.5 302.43,-9.5 310.91,-9.5"/>
<polygon fill="#63b8ff" stroke="#63b8ff" points="285.14,-6 275.14,-9.5 285.14,-13 285.14,-6"/>
</a>
</g>
</g>
</g>
</svg>
