<?xml version="1.0" encoding="UTF-8" standalone="no"?>
<!DOCTYPE svg PUBLIC "-//W3C//DTD SVG 1.1//EN"
 "http://www.w3.org/Graphics/SVG/1.1/DTD/svg11.dtd">
<!-- Generated by graphviz version 2.43.0 (0)
 -->
<!-- Title: Gfx::CompiledGeometryData Pages: 1 -->
<svg width="172pt" height="175pt"
 viewBox="0.00 0.00 172.00 175.00" xmlns="http://www.w3.org/2000/svg" xmlns:xlink="http://www.w3.org/1999/xlink">

<svg id="main" version="1.1" xmlns="http://www.w3.org/2000/svg" xmlns:xlink="http://www.w3.org/1999/xlink" xml:space="preserve" onload="init(evt)">
<style type="text/css"><![CDATA[
.node, .edge {opacity: 0.7;}
.node.selected, .edge.selected {opacity: 1;}
.edge:hover path { stroke: red; }
.edge:hover polygon { stroke: red; fill: red; }
]]></style>
<script type="application/ecmascript" xlink:href="svg.min.js"/>
<svg id="graph" class="graph">
<g id="graph0" class="graph" transform="scale(1 1) rotate(0) translate(4 171)">
<title>Gfx::CompiledGeometryData</title>
<!-- Node1 -->
<g id="Node000001" class="node">
<title>Node1</title>
<g id="a_Node000001"><a xlink:title=" ">
<polygon fill="#999999" stroke="transparent" points="152,-49 0,-49 0,0 152,0 152,-49"/>
<text text-anchor="start" x="5" y="-36.5" font-family="Helvetica,sans-Serif" font-size="10.00">Gfx::CompiledGeometryData</text>
<text text-anchor="start" x="74" y="-21.5" font-family="Helvetica,sans-Serif" font-size="10.00"> </text>
<text text-anchor="start" x="74" y="-6.5" font-family="Helvetica,sans-Serif" font-size="10.00"> </text>
<polygon fill="#666666" stroke="#666666" points="0,-31.5 0,-31.5 152,-31.5 152,-31.5 0,-31.5"/>
<polygon fill="#666666" stroke="#666666" points="0,-16.5 0,-16.5 152,-16.5 152,-16.5 0,-16.5"/>
<polygon fill="none" stroke="#666666" points="0,0 0,-49 152,-49 152,0 0,0"/>
</a>
</g>
</g>
<!-- Node2 -->
<g id="Node000002" class="node">
<title>Node2</title>
<g id="a_Node000002"><a xlink:title=" ">
<polygon fill="white" stroke="transparent" points="79.5,-167 8.5,-167 8.5,-118 79.5,-118 79.5,-167"/>
<text text-anchor="start" x="14" y="-154.5" font-family="Helvetica,sans-Serif" font-size="10.00">unsigned int</text>
<text text-anchor="start" x="42.5" y="-139.5" font-family="Helvetica,sans-Serif" font-size="10.00"> </text>
<text text-anchor="start" x="42.5" y="-124.5" font-family="Helvetica,sans-Serif" font-size="10.00"> </text>
<polygon fill="#666666" stroke="#666666" points="9,-149.5 9,-149.5 80,-149.5 80,-149.5 9,-149.5"/>
<polygon fill="#666666" stroke="#666666" points="9,-134.5 9,-134.5 80,-134.5 80,-134.5 9,-134.5"/>
<polygon fill="none" stroke="#666666" points="8.5,-118 8.5,-167 79.5,-167 79.5,-118 8.5,-118"/>
</a>
</g>
</g>
<!-- Node2&#45;&gt;Node1 -->
<g id="edge1_Node000001_Node000002" class="edge">
<title>Node2&#45;&gt;Node1</title>
<g id="a_edge1_Node000001_Node000002"><a xlink:title=" ">
<path fill="none" stroke="#63b8ff" d="M48.11,-117.77C50.91,-103.02 55.01,-83.73 60,-67 60.59,-65.02 61.23,-62.99 61.91,-60.96"/>
<polygon fill="none" stroke="#63b8ff" points="62,-60.72 60.26,-53.72 66.05,-49.42 67.79,-56.42 62,-60.72"/>
</a>
</g>
<text text-anchor="middle" x="73.5" y="-92" font-family="Helvetica,sans-Serif" font-size="10.00" fill="grey"> +ibo</text>
<text text-anchor="middle" x="73.5" y="-81" font-family="Helvetica,sans-Serif" font-size="10.00" fill="grey">+vao</text>
<text text-anchor="middle" x="73.5" y="-70" font-family="Helvetica,sans-Serif" font-size="10.00" fill="grey">+vbo</text>
</g>
<!-- Node3 -->
<g id="Node000003" class="node">
<title>Node3</title>
<g id="a_Node000003"><a xlink:title=" ">
<polygon fill="white" stroke="transparent" points="120.5,-167 97.5,-167 97.5,-118 120.5,-118 120.5,-167"/>
<text text-anchor="start" x="103" y="-154.5" font-family="Helvetica,sans-Serif" font-size="10.00">int</text>
<text text-anchor="start" x="107.5" y="-139.5" font-family="Helvetica,sans-Serif" font-size="10.00"> </text>
<text text-anchor="start" x="107.5" y="-124.5" font-family="Helvetica,sans-Serif" font-size="10.00"> </text>
<polygon fill="#666666" stroke="#666666" points="98,-149.5 98,-149.5 121,-149.5 121,-149.5 98,-149.5"/>
<polygon fill="#666666" stroke="#666666" points="98,-134.5 98,-134.5 121,-134.5 121,-134.5 98,-134.5"/>
<polygon fill="none" stroke="#666666" points="97.5,-118 97.5,-167 120.5,-167 120.5,-118 97.5,-118"/>
</a>
</g>
</g>
<!-- Node3&#45;&gt;Node1 -->
<g id="edge2_Node000001_Node000003" class="edge">
<title>Node3&#45;&gt;Node1</title>
<g id="a_edge2_Node000001_Node000003"><a xlink:title=" ">
<path fill="none" stroke="#63b8ff" d="M102.24,-117.75C97.59,-101.4 91.34,-79.41 86.1,-61"/>
<polygon fill="none" stroke="#63b8ff" points="86.03,-60.76 80.54,-56.09 82.75,-49.22 88.24,-53.9 86.03,-60.76"/>
</a>
</g>
<text text-anchor="middle" x="130" y="-81" font-family="Helvetica,sans-Serif" font-size="10.00" fill="grey"> +draw_count</text>
</g>
</g>
</svg>
</svg>

<style type='text/css'>
<![CDATA[
[data-mouse-over-selected='false'] { opacity: 0.7; }
[data-mouse-over-selected='true']  { opacity: 1.0; }
]]>
</style>
<script type="application/ecmascript"><![CDATA[
document.addEventListener('DOMContentLoaded', (event) => {
  highlightEdges();
  highlightAdjacentNodes();
});
]]></script>
</svg>
