<?xml version="1.0" encoding="UTF-8" standalone="no"?>
<!DOCTYPE svg PUBLIC "-//W3C//DTD SVG 1.1//EN"
 "http://www.w3.org/Graphics/SVG/1.1/DTD/svg11.dtd">
<!-- Generated by graphviz version 2.43.0 (0)
 -->
<!-- Title: BackendData Pages: 1 -->
<!--zoomable 1020 -->

<svg id="main" version="1.1" xmlns="http://www.w3.org/2000/svg" xmlns:xlink="http://www.w3.org/1999/xlink" xml:space="preserve" onload="init(evt)">
<style type="text/css"><![CDATA[
.node, .edge {opacity: 0.7;}
.node.selected, .edge.selected {opacity: 1;}
.edge:hover path { stroke: red; }
.edge:hover polygon { stroke: red; fill: red; }
]]></style>

<defs>
  <circle id="rim" cx="0" cy="0" r="7"/>
  <circle id="rim2" cx="0" cy="0" r="3.5"/>
  <g id="zoomPlus">
    <use xlink:href="#rim" fill="#404040"><set attributeName="fill" to="#808080" begin="zoomplus.mouseover" end="zoomplus.mouseout"/></use>
    <path d="M-4,0h8M0,-4v8" fill="none" stroke="white" stroke-width="1.5" pointer-events="none"/>
  </g>
  <g id="zoomMin">
    <use xlink:href="#rim" fill="#404040"><set attributeName="fill" to="#808080" begin="zoomminus.mouseover" end="zoomminus.mouseout"/></use>
    <path d="M-4,0h8" fill="none" stroke="white" stroke-width="1.5" pointer-events="none"/>
  </g>
  <g id="arrowUp" transform="translate(30 24)">
    <use xlink:href="#rim"/>
    <path pointer-events="none" fill="none" stroke="white" stroke-width="1.5" d="M0,-3.0v7 M-2.5,-0.5L0,-3.0L2.5,-0.5"/>
  </g>
  <g id="arrowRight" transform="rotate(90) translate(36 -43)">
    <use xlink:href="#rim"/>
    <path pointer-events="none" fill="none" stroke="white" stroke-width="1.5" d="M0,-3.0v7 M-2.5,-0.5L0,-3.0L2.5,-0.5"/>
  </g>
  <g id="arrowDown" transform="rotate(180) translate(-30 -48)">
    <use xlink:href="#rim"/>
    <path pointer-events="none" fill="none" stroke="white" stroke-width="1.5" d="M0,-3.0v7 M-2.5,-0.5L0,-3.0L2.5,-0.5"/>
  </g>
  <g id="arrowLeft" transform="rotate(270) translate(-36 17)">
    <use xlink:href="#rim"/>
    <path pointer-events="none" fill="none" stroke="white" stroke-width="1.5" d="M0,-3.0v7 M-2.5,-0.5L0,-3.0L2.5,-0.5"/>
  </g>
  <g id="resetDef">
    <use xlink:href="#rim2" fill="#404040"><set attributeName="fill" to="#808080" begin="reset.mouseover" end="reset.mouseout"/></use>
  </g>
</defs>
<script type="application/ecmascript">
var viewWidth = 597;
var viewHeight = 1020;
var sectionId = 'dynsection-0';
</script>
<script type="application/ecmascript" xlink:href="svg.min.js"/>
<svg id="graph" class="graph">
<g id="viewport">
<title>BackendData</title>
<!-- Node1 -->
<g id="Node000001" class="node">
<title>Node1</title>
<g id="a_Node000001"><a xlink:title=" ">
<polygon fill="#999999" stroke="transparent" points="401.26,-49 326.26,-49 326.26,0 401.26,0 401.26,-49"/>
<text text-anchor="start" x="331.76" y="-36.5" font-family="Helvetica,sans-Serif" font-size="10.00">BackendData</text>
<text text-anchor="start" x="362.26" y="-21.5" font-family="Helvetica,sans-Serif" font-size="10.00"> </text>
<text text-anchor="start" x="362.26" y="-6.5" font-family="Helvetica,sans-Serif" font-size="10.00"> </text>
<polygon fill="#666666" stroke="#666666" points="326.76,-31.5 326.76,-31.5 401.76,-31.5 401.76,-31.5 326.76,-31.5"/>
<polygon fill="#666666" stroke="#666666" points="326.76,-16.5 326.76,-16.5 401.76,-16.5 401.76,-16.5 326.76,-16.5"/>
<polygon fill="none" stroke="#666666" points="326.26,0 326.26,-49 401.26,-49 401.26,0 326.26,0"/>
</a>
</g>
</g>
<!-- Node2 -->
<g id="Node000002" class="node">
<title>Node2</title>
<g id="a_Node000002"><a xlink:href="classSystemInterface__SDL.html" target="_top" xlink:title=" ">
<polygon fill="white" stroke="transparent" points="276.76,-280 134.76,-280 134.76,-96 276.76,-96 276.76,-280"/>
<text text-anchor="start" x="153.26" y="-268" font-family="Helvetica,sans-Serif" font-size="10.00">SystemInterface_SDL</text>
<text text-anchor="start" x="203.76" y="-253" font-family="Helvetica,sans-Serif" font-size="10.00"> </text>
<text text-anchor="start" x="138.76" y="-238" font-family="Helvetica,sans-Serif" font-size="10.00">+</text>
<text text-anchor="start" x="151.76" y="-238" font-family="Helvetica,sans-Serif" font-size="10.00">SystemInterface_SDL()</text>
<text text-anchor="start" x="138.76" y="-223" font-family="Helvetica,sans-Serif" font-size="10.00">+</text>
<text text-anchor="start" x="151.76" y="-223" font-family="Helvetica,sans-Serif" font-size="10.00">~SystemInterface_SDL()</text>
<text text-anchor="start" x="138.76" y="-208" font-family="Helvetica,sans-Serif" font-size="10.00">+</text>
<text text-anchor="start" x="151.76" y="-208" font-family="Helvetica,sans-Serif" font-size="10.00">SetWindow()</text>
<text text-anchor="start" x="138.76" y="-193" font-family="Helvetica,sans-Serif" font-size="10.00">+</text>
<text text-anchor="start" x="151.76" y="-193" font-family="Helvetica,sans-Serif" font-size="10.00">GetElapsedTime()</text>
<text text-anchor="start" x="138.76" y="-178" font-family="Helvetica,sans-Serif" font-size="10.00">+</text>
<text text-anchor="start" x="151.76" y="-178" font-family="Helvetica,sans-Serif" font-size="10.00">SetMouseCursor()</text>
<text text-anchor="start" x="138.76" y="-163" font-family="Helvetica,sans-Serif" font-size="10.00">+</text>
<text text-anchor="start" x="151.76" y="-163" font-family="Helvetica,sans-Serif" font-size="10.00">SetClipboardText()</text>
<text text-anchor="start" x="138.76" y="-148" font-family="Helvetica,sans-Serif" font-size="10.00">+</text>
<text text-anchor="start" x="151.76" y="-148" font-family="Helvetica,sans-Serif" font-size="10.00">GetClipboardText()</text>
<text text-anchor="start" x="138.76" y="-133" font-family="Helvetica,sans-Serif" font-size="10.00">+</text>
<text text-anchor="start" x="151.76" y="-133" font-family="Helvetica,sans-Serif" font-size="10.00">ActivateKeyboard()</text>
<text text-anchor="start" x="138.76" y="-118" font-family="Helvetica,sans-Serif" font-size="10.00">+</text>
<text text-anchor="start" x="151.76" y="-118" font-family="Helvetica,sans-Serif" font-size="10.00">DeactivateKeyboard()</text>
<text text-anchor="start" x="138.76" y="-103" font-family="Helvetica,sans-Serif" font-size="10.00">+</text>
<text text-anchor="start" x="151.76" y="-103" font-family="Helvetica,sans-Serif" font-size="10.00">TranslateString()</text>
<polygon fill="#666666" stroke="#666666" points="134.76,-263 134.76,-263 276.76,-263 276.76,-263 134.76,-263"/>
<polygon fill="#666666" stroke="#666666" points="134.76,-248 134.76,-248 276.76,-248 276.76,-248 134.76,-248"/>
<polygon fill="none" stroke="#666666" points="134.76,-96 134.76,-280 276.76,-280 276.76,-96 134.76,-96"/>
</a>
</g>
</g>
<!-- Node2&#45;&gt;Node1 -->
<g id="edge1_Node000001_Node000002" class="edge">
<title>Node2&#45;&gt;Node1</title>
<g id="a_edge1_Node000001_Node000002"><a xlink:title=" ">
<path fill="none" stroke="#63b8ff" d="M239.89,-95.86C246.39,-85.29 253.97,-75.33 262.76,-67 277.09,-53.41 296.49,-44.01 314.45,-37.64"/>
<polygon fill="none" stroke="#63b8ff" points="314.57,-37.6 319.03,-31.94 325.98,-33.88 321.52,-39.54 314.57,-37.6"/>
</a>
</g>
<text text-anchor="middle" x="311.26" y="-70" font-family="Helvetica,sans-Serif" font-size="10.00" fill="grey"> +system_interface</text>
</g>
<!-- Node3 -->
<g id="Node000003" class="node">
<title>Node3</title>
<g id="a_Node000003"><a xlink:title=" ">
<polygon fill="white" stroke="transparent" points="338.76,-727 222.76,-727 222.76,-678 338.76,-678 338.76,-727"/>
<text text-anchor="start" x="227.76" y="-714.5" font-family="Helvetica,sans-Serif" font-size="10.00">Rml::SystemInterface</text>
<text text-anchor="start" x="278.76" y="-699.5" font-family="Helvetica,sans-Serif" font-size="10.00"> </text>
<text text-anchor="start" x="278.76" y="-684.5" font-family="Helvetica,sans-Serif" font-size="10.00"> </text>
<polygon fill="#666666" stroke="#666666" points="222.76,-709.5 222.76,-709.5 338.76,-709.5 338.76,-709.5 222.76,-709.5"/>
<polygon fill="#666666" stroke="#666666" points="222.76,-694.5 222.76,-694.5 338.76,-694.5 338.76,-694.5 222.76,-694.5"/>
<polygon fill="none" stroke="#666666" points="222.76,-678 222.76,-727 338.76,-727 338.76,-678 222.76,-678"/>
</a>
</g>
</g>
<!-- Node3&#45;&gt;Node2 -->
<g id="edge2_Node000002_Node000003" class="edge">
<title>Node3&#45;&gt;Node2</title>
<g id="a_edge2_Node000002_Node000003"><a xlink:title=" ">
<path fill="none" stroke="#63b8ff" d="M284.86,-667.65C292.24,-597.26 303.81,-430.6 266.76,-298 265.1,-292.05 263.05,-286.07 260.72,-280.15"/>
<polygon fill="none" stroke="#63b8ff" points="281.36,-667.39 283.76,-677.71 288.32,-668.15 281.36,-667.39"/>
</a>
</g>
</g>
<!-- Node4 -->
<g id="Node000004" class="node">
<title>Node4</title>
<g id="a_Node000004"><a xlink:title=" ">
<polygon fill="white" stroke="transparent" points="110.76,-727 28.76,-727 28.76,-678 110.76,-678 110.76,-727"/>
<text text-anchor="start" x="33.76" y="-714.5" font-family="Helvetica,sans-Serif" font-size="10.00">SDL_Window *</text>
<text text-anchor="start" x="67.76" y="-699.5" font-family="Helvetica,sans-Serif" font-size="10.00"> </text>
<text text-anchor="start" x="67.76" y="-684.5" font-family="Helvetica,sans-Serif" font-size="10.00"> </text>
<polygon fill="#666666" stroke="#666666" points="28.76,-709.5 28.76,-709.5 110.76,-709.5 110.76,-709.5 28.76,-709.5"/>
<polygon fill="#666666" stroke="#666666" points="28.76,-694.5 28.76,-694.5 110.76,-694.5 110.76,-694.5 28.76,-694.5"/>
<polygon fill="none" stroke="#666666" points="28.76,-678 28.76,-727 110.76,-727 110.76,-678 28.76,-678"/>
</a>
</g>
</g>
<!-- Node4&#45;&gt;Node1 -->
<g id="edge7_Node000001_Node000004" class="edge">
<title>Node4&#45;&gt;Node1</title>
<g id="a_edge7_Node000001_Node000004"><a xlink:title=" ">
<path fill="none" stroke="#63b8ff" d="M60.97,-677.91C29.83,-589.82 -66.02,-275.94 76.76,-96 105.89,-59.29 239.59,-39.07 313.79,-30.5"/>
<polygon fill="none" stroke="#63b8ff" points="314.11,-30.47 319.63,-25.82 326.03,-29.13 320.52,-33.77 314.11,-30.47"/>
</a>
</g>
<text text-anchor="middle" x="101.26" y="-185.5" font-family="Helvetica,sans-Serif" font-size="10.00" fill="grey"> +window</text>
</g>
<!-- Node4&#45;&gt;Node2 -->
<g id="edge3_Node000002_Node000004" class="edge">
<title>Node4&#45;&gt;Node2</title>
<g id="a_edge3_Node000002_Node000004"><a xlink:title=" ">
<path fill="none" stroke="#63b8ff" d="M67.47,-677.99C62.21,-613.93 53.82,-432.17 111.76,-298 115.97,-288.25 121.37,-278.73 127.46,-269.64"/>
<polygon fill="none" stroke="#63b8ff" points="127.66,-269.36 127.86,-262.15 134.59,-259.56 134.39,-266.77 127.66,-269.36"/>
</a>
</g>
<text text-anchor="middle" x="134.26" y="-334" font-family="Helvetica,sans-Serif" font-size="10.00" fill="grey"> &#45;window</text>
</g>
<!-- Node5 -->
<g id="Node000005" class="node">
<title>Node5</title>
<g id="a_Node000005"><a xlink:title=" ">
<polygon fill="white" stroke="transparent" points="204.76,-727 130.76,-727 130.76,-678 204.76,-678 204.76,-727"/>
<text text-anchor="start" x="135.76" y="-714.5" font-family="Helvetica,sans-Serif" font-size="10.00">SDL_Cursor *</text>
<text text-anchor="start" x="165.76" y="-699.5" font-family="Helvetica,sans-Serif" font-size="10.00"> </text>
<text text-anchor="start" x="165.76" y="-684.5" font-family="Helvetica,sans-Serif" font-size="10.00"> </text>
<polygon fill="#666666" stroke="#666666" points="130.76,-709.5 130.76,-709.5 204.76,-709.5 204.76,-709.5 130.76,-709.5"/>
<polygon fill="#666666" stroke="#666666" points="130.76,-694.5 130.76,-694.5 204.76,-694.5 204.76,-694.5 130.76,-694.5"/>
<polygon fill="none" stroke="#666666" points="130.76,-678 130.76,-727 204.76,-727 204.76,-678 130.76,-678"/>
</a>
</g>
</g>
<!-- Node5&#45;&gt;Node2 -->
<g id="edge4_Node000002_Node000005" class="edge">
<title>Node5&#45;&gt;Node2</title>
<g id="a_edge4_Node000002_Node000005"><a xlink:title=" ">
<path fill="none" stroke="#63b8ff" d="M165.29,-677.63C159.37,-614.91 146.49,-440.42 169.76,-298 170.09,-295.97 170.45,-293.93 170.84,-291.88"/>
<polygon fill="none" stroke="#63b8ff" points="170.86,-291.8 168.21,-285.09 173.38,-280.06 176.03,-286.77 170.86,-291.8"/>
</a>
</g>
<text text-anchor="middle" x="218.26" y="-367" font-family="Helvetica,sans-Serif" font-size="10.00" fill="grey"> &#45;cursor_cross</text>
<text text-anchor="middle" x="218.26" y="-356" font-family="Helvetica,sans-Serif" font-size="10.00" fill="grey">&#45;cursor_default</text>
<text text-anchor="middle" x="218.26" y="-345" font-family="Helvetica,sans-Serif" font-size="10.00" fill="grey">&#45;cursor_move</text>
<text text-anchor="middle" x="218.26" y="-334" font-family="Helvetica,sans-Serif" font-size="10.00" fill="grey">&#45;cursor_pointer</text>
<text text-anchor="middle" x="218.26" y="-323" font-family="Helvetica,sans-Serif" font-size="10.00" fill="grey">&#45;cursor_resize</text>
<text text-anchor="middle" x="218.26" y="-312" font-family="Helvetica,sans-Serif" font-size="10.00" fill="grey">&#45;cursor_text</text>
<text text-anchor="middle" x="218.26" y="-301" font-family="Helvetica,sans-Serif" font-size="10.00" fill="grey">&#45;cursor_unavailable</text>
</g>
<!-- Node6 -->
<g id="Node000006" class="node">
<title>Node6</title>
<g id="a_Node000006"><a xlink:href="classRenderInterface__GL3__SDL.html" target="_top" xlink:title=" ">
<polygon fill="white" stroke="transparent" points="432.26,-225.5 295.26,-225.5 295.26,-150.5 432.26,-150.5 432.26,-225.5"/>
<text text-anchor="start" x="300.76" y="-213" font-family="Helvetica,sans-Serif" font-size="10.00">RenderInterface_GL3_SDL</text>
<text text-anchor="start" x="362.26" y="-198" font-family="Helvetica,sans-Serif" font-size="10.00"> </text>
<text text-anchor="start" x="302.76" y="-183" font-family="Helvetica,sans-Serif" font-size="10.00">+</text>
<text text-anchor="start" x="318.76" y="-183" font-family="Helvetica,sans-Serif" font-size="10.00">RenderInterface_GL3</text>
<text text-anchor="start" x="318.76" y="-172" font-family="Helvetica,sans-Serif" font-size="10.00">_SDL()</text>
<text text-anchor="start" x="302.76" y="-157" font-family="Helvetica,sans-Serif" font-size="10.00">+</text>
<text text-anchor="start" x="318.76" y="-157" font-family="Helvetica,sans-Serif" font-size="10.00">LoadTexture()</text>
<polygon fill="#666666" stroke="#666666" points="295.76,-208 295.76,-208 432.76,-208 432.76,-208 295.76,-208"/>
<polygon fill="#666666" stroke="#666666" points="295.76,-193 295.76,-193 432.76,-193 432.76,-193 295.76,-193"/>
<polygon fill="none" stroke="#666666" points="295.26,-150.5 295.26,-225.5 432.26,-225.5 432.26,-150.5 295.26,-150.5"/>
</a>
</g>
</g>
<!-- Node6&#45;&gt;Node1 -->
<g id="edge5_Node000001_Node000006" class="edge">
<title>Node6&#45;&gt;Node1</title>
<g id="a_edge5_Node000001_Node000006"><a xlink:title=" ">
<path fill="none" stroke="#63b8ff" d="M363.76,-150.35C363.76,-123.64 363.76,-87.64 363.76,-61.16"/>
<polygon fill="none" stroke="#63b8ff" points="363.76,-61.01 359.76,-55.01 363.76,-49.01 367.76,-55.01 363.76,-61.01"/>
</a>
</g>
<text text-anchor="middle" x="409.76" y="-70" font-family="Helvetica,sans-Serif" font-size="10.00" fill="grey"> +render_interface</text>
</g>
<!-- Node7 -->
<g id="Node000007" class="node">
<title>Node7</title>
<g id="a_Node000007"><a xlink:href="classRenderInterface__GL3.html" target="_top" xlink:title=" ">
<polygon fill="#fff0f0" stroke="transparent" points="536.76,-1012 356.76,-1012 356.76,-393 536.76,-393 536.76,-1012"/>
<text text-anchor="start" x="395.26" y="-999.5" font-family="Helvetica,sans-Serif" font-size="10.00">RenderInterface_GL3</text>
<text text-anchor="start" x="444.76" y="-984.5" font-family="Helvetica,sans-Serif" font-size="10.00"> </text>
<text text-anchor="start" x="360.76" y="-969.5" font-family="Helvetica,sans-Serif" font-size="10.00">+</text>
<text text-anchor="start" x="373.76" y="-969.5" font-family="Helvetica,sans-Serif" font-size="10.00">RenderInterface_GL3()</text>
<text text-anchor="start" x="360.76" y="-954.5" font-family="Helvetica,sans-Serif" font-size="10.00">+</text>
<text text-anchor="start" x="373.76" y="-954.5" font-family="Helvetica,sans-Serif" font-size="10.00">~RenderInterface_GL3()</text>
<text text-anchor="start" x="360.76" y="-939.5" font-family="Helvetica,sans-Serif" font-size="10.00">+</text>
<text text-anchor="start" x="373.76" y="-939.5" font-family="Helvetica,sans-Serif" font-size="10.00">operator bool()</text>
<text text-anchor="start" x="360.76" y="-924.5" font-family="Helvetica,sans-Serif" font-size="10.00">+</text>
<text text-anchor="start" x="373.76" y="-924.5" font-family="Helvetica,sans-Serif" font-size="10.00">SetViewport()</text>
<text text-anchor="start" x="360.76" y="-909.5" font-family="Helvetica,sans-Serif" font-size="10.00">+</text>
<text text-anchor="start" x="373.76" y="-909.5" font-family="Helvetica,sans-Serif" font-size="10.00">BeginFrame()</text>
<text text-anchor="start" x="360.76" y="-894.5" font-family="Helvetica,sans-Serif" font-size="10.00">+</text>
<text text-anchor="start" x="373.76" y="-894.5" font-family="Helvetica,sans-Serif" font-size="10.00">EndFrame()</text>
<text text-anchor="start" x="360.76" y="-879.5" font-family="Helvetica,sans-Serif" font-size="10.00">+</text>
<text text-anchor="start" x="373.76" y="-879.5" font-family="Helvetica,sans-Serif" font-size="10.00">Clear()</text>
<text text-anchor="start" x="360.76" y="-864.5" font-family="Helvetica,sans-Serif" font-size="10.00">+</text>
<text text-anchor="start" x="373.76" y="-864.5" font-family="Helvetica,sans-Serif" font-size="10.00">CompileGeometry()</text>
<text text-anchor="start" x="360.76" y="-849.5" font-family="Helvetica,sans-Serif" font-size="10.00">+</text>
<text text-anchor="start" x="373.76" y="-849.5" font-family="Helvetica,sans-Serif" font-size="10.00">RenderGeometry()</text>
<text text-anchor="start" x="360.76" y="-834.5" font-family="Helvetica,sans-Serif" font-size="10.00">+</text>
<text text-anchor="start" x="373.76" y="-834.5" font-family="Helvetica,sans-Serif" font-size="10.00">ReleaseGeometry()</text>
<text text-anchor="start" x="360.76" y="-819.5" font-family="Helvetica,sans-Serif" font-size="10.00">+</text>
<text text-anchor="start" x="373.76" y="-819.5" font-family="Helvetica,sans-Serif" font-size="10.00">LoadTexture()</text>
<text text-anchor="start" x="360.76" y="-804.5" font-family="Helvetica,sans-Serif" font-size="10.00">+</text>
<text text-anchor="start" x="373.76" y="-804.5" font-family="Helvetica,sans-Serif" font-size="10.00">GenerateTexture()</text>
<text text-anchor="start" x="360.76" y="-789.5" font-family="Helvetica,sans-Serif" font-size="10.00">+</text>
<text text-anchor="start" x="373.76" y="-789.5" font-family="Helvetica,sans-Serif" font-size="10.00">ReleaseTexture()</text>
<text text-anchor="start" x="360.76" y="-774.5" font-family="Helvetica,sans-Serif" font-size="10.00">+</text>
<text text-anchor="start" x="373.76" y="-774.5" font-family="Helvetica,sans-Serif" font-size="10.00">EnableScissorRegion()</text>
<text text-anchor="start" x="360.76" y="-759.5" font-family="Helvetica,sans-Serif" font-size="10.00">+</text>
<text text-anchor="start" x="373.76" y="-759.5" font-family="Helvetica,sans-Serif" font-size="10.00">SetScissorRegion()</text>
<text text-anchor="start" x="360.76" y="-744.5" font-family="Helvetica,sans-Serif" font-size="10.00">+</text>
<text text-anchor="start" x="373.76" y="-744.5" font-family="Helvetica,sans-Serif" font-size="10.00">EnableClipMask()</text>
<text text-anchor="start" x="360.76" y="-729.5" font-family="Helvetica,sans-Serif" font-size="10.00">+</text>
<text text-anchor="start" x="373.76" y="-729.5" font-family="Helvetica,sans-Serif" font-size="10.00">RenderToClipMask()</text>
<text text-anchor="start" x="360.76" y="-714.5" font-family="Helvetica,sans-Serif" font-size="10.00">+</text>
<text text-anchor="start" x="373.76" y="-714.5" font-family="Helvetica,sans-Serif" font-size="10.00">SetTransform()</text>
<text text-anchor="start" x="360.76" y="-699.5" font-family="Helvetica,sans-Serif" font-size="10.00">+</text>
<text text-anchor="start" x="373.76" y="-699.5" font-family="Helvetica,sans-Serif" font-size="10.00">PushLayer()</text>
<text text-anchor="start" x="360.76" y="-684.5" font-family="Helvetica,sans-Serif" font-size="10.00">+</text>
<text text-anchor="start" x="373.76" y="-684.5" font-family="Helvetica,sans-Serif" font-size="10.00">CompositeLayers()</text>
<text text-anchor="start" x="360.76" y="-669.5" font-family="Helvetica,sans-Serif" font-size="10.00">+</text>
<text text-anchor="start" x="373.76" y="-669.5" font-family="Helvetica,sans-Serif" font-size="10.00">PopLayer()</text>
<text text-anchor="start" x="360.76" y="-654.5" font-family="Helvetica,sans-Serif" font-size="10.00">+</text>
<text text-anchor="start" x="373.76" y="-654.5" font-family="Helvetica,sans-Serif" font-size="10.00">SaveLayerAsTexture()</text>
<text text-anchor="start" x="360.76" y="-639.5" font-family="Helvetica,sans-Serif" font-size="10.00">+</text>
<text text-anchor="start" x="373.76" y="-639.5" font-family="Helvetica,sans-Serif" font-size="10.00">SaveLayerAsMaskImage()</text>
<text text-anchor="start" x="360.76" y="-624.5" font-family="Helvetica,sans-Serif" font-size="10.00">+</text>
<text text-anchor="start" x="373.76" y="-624.5" font-family="Helvetica,sans-Serif" font-size="10.00">CompileFilter()</text>
<text text-anchor="start" x="360.76" y="-609.5" font-family="Helvetica,sans-Serif" font-size="10.00">+</text>
<text text-anchor="start" x="373.76" y="-609.5" font-family="Helvetica,sans-Serif" font-size="10.00">ReleaseFilter()</text>
<text text-anchor="start" x="360.76" y="-594.5" font-family="Helvetica,sans-Serif" font-size="10.00">+</text>
<text text-anchor="start" x="373.76" y="-594.5" font-family="Helvetica,sans-Serif" font-size="10.00">CompileShader()</text>
<text text-anchor="start" x="360.76" y="-579.5" font-family="Helvetica,sans-Serif" font-size="10.00">+</text>
<text text-anchor="start" x="373.76" y="-579.5" font-family="Helvetica,sans-Serif" font-size="10.00">RenderShader()</text>
<text text-anchor="start" x="360.76" y="-564.5" font-family="Helvetica,sans-Serif" font-size="10.00">+</text>
<text text-anchor="start" x="373.76" y="-564.5" font-family="Helvetica,sans-Serif" font-size="10.00">ReleaseShader()</text>
<text text-anchor="start" x="360.76" y="-549.5" font-family="Helvetica,sans-Serif" font-size="10.00">+</text>
<text text-anchor="start" x="373.76" y="-549.5" font-family="Helvetica,sans-Serif" font-size="10.00">GetTransform()</text>
<text text-anchor="start" x="360.76" y="-534.5" font-family="Helvetica,sans-Serif" font-size="10.00">+</text>
<text text-anchor="start" x="373.76" y="-534.5" font-family="Helvetica,sans-Serif" font-size="10.00">ResetProgram()</text>
<text text-anchor="start" x="363.26" y="-519.5" font-family="Helvetica,sans-Serif" font-size="10.00">&#45;</text>
<text text-anchor="start" x="373.76" y="-519.5" font-family="Helvetica,sans-Serif" font-size="10.00">UseProgram()</text>
<text text-anchor="start" x="363.26" y="-504.5" font-family="Helvetica,sans-Serif" font-size="10.00">&#45;</text>
<text text-anchor="start" x="373.76" y="-504.5" font-family="Helvetica,sans-Serif" font-size="10.00">GetUniformLocation()</text>
<text text-anchor="start" x="363.26" y="-489.5" font-family="Helvetica,sans-Serif" font-size="10.00">&#45;</text>
<text text-anchor="start" x="373.76" y="-489.5" font-family="Helvetica,sans-Serif" font-size="10.00">SubmitTransformUniform()</text>
<text text-anchor="start" x="363.26" y="-474.5" font-family="Helvetica,sans-Serif" font-size="10.00">&#45;</text>
<text text-anchor="start" x="373.76" y="-474.5" font-family="Helvetica,sans-Serif" font-size="10.00">BlitLayerToPostprocessPrimary()</text>
<text text-anchor="start" x="363.26" y="-459.5" font-family="Helvetica,sans-Serif" font-size="10.00">&#45;</text>
<text text-anchor="start" x="373.76" y="-459.5" font-family="Helvetica,sans-Serif" font-size="10.00">RenderFilters()</text>
<text text-anchor="start" x="363.26" y="-444.5" font-family="Helvetica,sans-Serif" font-size="10.00">&#45;</text>
<text text-anchor="start" x="373.76" y="-444.5" font-family="Helvetica,sans-Serif" font-size="10.00">SetScissor()</text>
<text text-anchor="start" x="363.26" y="-429.5" font-family="Helvetica,sans-Serif" font-size="10.00">&#45;</text>
<text text-anchor="start" x="373.76" y="-429.5" font-family="Helvetica,sans-Serif" font-size="10.00">DrawFullscreenQuad()</text>
<text text-anchor="start" x="363.26" y="-414.5" font-family="Helvetica,sans-Serif" font-size="10.00">&#45;</text>
<text text-anchor="start" x="373.76" y="-414.5" font-family="Helvetica,sans-Serif" font-size="10.00">DrawFullscreenQuad()</text>
<text text-anchor="start" x="363.26" y="-399.5" font-family="Helvetica,sans-Serif" font-size="10.00">&#45;</text>
<text text-anchor="start" x="373.76" y="-399.5" font-family="Helvetica,sans-Serif" font-size="10.00">RenderBlur()</text>
<polygon fill="red" stroke="red" points="356.76,-994.5 356.76,-994.5 536.76,-994.5 536.76,-994.5 356.76,-994.5"/>
<polygon fill="red" stroke="red" points="356.76,-979.5 356.76,-979.5 536.76,-979.5 536.76,-979.5 356.76,-979.5"/>
<polygon fill="none" stroke="red" points="356.76,-393 356.76,-1012 536.76,-1012 536.76,-393 356.76,-393"/>
</a>
</g>
</g>
<!-- Node7&#45;&gt;Node6 -->
<g id="edge6_Node000006_Node000007" class="edge">
<title>Node7&#45;&gt;Node6</title>
<g id="a_edge6_Node000006_Node000007"><a xlink:title=" ">
<path fill="none" stroke="#63b8ff" d="M395.09,-382.44C384.82,-319.08 375.45,-261.17 369.68,-225.56"/>
<polygon fill="none" stroke="#63b8ff" points="391.69,-383.35 396.74,-392.66 398.6,-382.23 391.69,-383.35"/>
</a>
</g>
</g>
<!-- Node25 -->
<g id="Node000025" class="node">
<title>Node25</title>
<g id="a_Node000025"><a xlink:title=" ">
<polygon fill="white" stroke="transparent" points="536.76,-212.5 450.76,-212.5 450.76,-163.5 536.76,-163.5 536.76,-212.5"/>
<text text-anchor="start" x="455.76" y="-200" font-family="Helvetica,sans-Serif" font-size="10.00">SDL_GLContext</text>
<text text-anchor="start" x="491.76" y="-185" font-family="Helvetica,sans-Serif" font-size="10.00"> </text>
<text text-anchor="start" x="491.76" y="-170" font-family="Helvetica,sans-Serif" font-size="10.00"> </text>
<polygon fill="#666666" stroke="#666666" points="450.76,-195 450.76,-195 536.76,-195 536.76,-195 450.76,-195"/>
<polygon fill="#666666" stroke="#666666" points="450.76,-180 450.76,-180 536.76,-180 536.76,-180 450.76,-180"/>
<polygon fill="none" stroke="#666666" points="450.76,-163.5 450.76,-212.5 536.76,-212.5 536.76,-163.5 450.76,-163.5"/>
</a>
</g>
</g>
<!-- Node25&#45;&gt;Node1 -->
<g id="edge8_Node000001_Node000025" class="edge">
<title>Node25&#45;&gt;Node1</title>
<g id="a_edge8_Node000001_Node000025"><a xlink:title=" ">
<path fill="none" stroke="#63b8ff" d="M492.93,-163.44C490.8,-136.98 483.59,-94.2 459.76,-67 447.61,-53.13 429.99,-43.73 413.15,-37.44"/>
<polygon fill="none" stroke="#63b8ff" points="413.06,-37.41 406.1,-39.28 401.7,-33.57 408.66,-31.7 413.06,-37.41"/>
</a>
</g>
<text text-anchor="middle" x="496.76" y="-70" font-family="Helvetica,sans-Serif" font-size="10.00" fill="grey"> +glcontext</text>
</g>
<!-- Node21 -->
<g id="Node000021" class="node">
<title>Node21</title>
<g id="a_Node000021"><a xlink:title=" ">
<polygon fill="white" stroke="transparent" points="588.76,-212.5 556.76,-212.5 556.76,-163.5 588.76,-163.5 588.76,-212.5"/>
<text text-anchor="start" x="561.76" y="-200" font-family="Helvetica,sans-Serif" font-size="10.00">bool</text>
<text text-anchor="start" x="570.76" y="-185" font-family="Helvetica,sans-Serif" font-size="10.00"> </text>
<text text-anchor="start" x="570.76" y="-170" font-family="Helvetica,sans-Serif" font-size="10.00"> </text>
<polygon fill="#666666" stroke="#666666" points="556.76,-195 556.76,-195 588.76,-195 588.76,-195 556.76,-195"/>
<polygon fill="#666666" stroke="#666666" points="556.76,-180 556.76,-180 588.76,-180 588.76,-180 556.76,-180"/>
<polygon fill="none" stroke="#666666" points="556.76,-163.5 556.76,-212.5 588.76,-212.5 588.76,-163.5 556.76,-163.5"/>
</a>
</g>
</g>
<!-- Node21&#45;&gt;Node1 -->
<g id="edge9_Node000001_Node000021" class="edge">
<title>Node21&#45;&gt;Node1</title>
<g id="a_edge9_Node000001_Node000021"><a xlink:title=" ">
<path fill="none" stroke="#63b8ff" d="M571.56,-163.24C568.75,-135.33 559.58,-89.94 529.76,-67 496.38,-41.32 449.05,-31.35 413.47,-27.57"/>
<polygon fill="none" stroke="#63b8ff" points="413.37,-27.56 407.03,-31.01 401.41,-26.48 407.75,-23.04 413.37,-27.56"/>
</a>
</g>
<text text-anchor="middle" x="563.26" y="-70" font-family="Helvetica,sans-Serif" font-size="10.00" fill="grey"> +running</text>
</g>
</g>
</svg>

<g id="navigator" transform="translate(0 0)" fill="#404254">
  <rect fill="#f2f5e9" fill-opacity="0.5" stroke="#606060" stroke-width=".5" x="0" y="0" width="60" height="60"/>
  <use id="zoomplus" xlink:href="#zoomPlus" x="17" y="9" onmousedown="handleZoom(evt,'in')"/>
  <use id="zoomminus" xlink:href="#zoomMin" x="42" y="9" onmousedown="handleZoom(evt,'out')"/>
  <use id="reset" xlink:href="#resetDef" x="30" y="36" onmousedown="handleReset()"/>
   <use id="arrowup" xlink:href="#arrowUp" x="0" y="0" onmousedown="handlePan(0,-1)"/>
  <use id="arrowright" xlink:href="#arrowRight" x="0" y="0" onmousedown="handlePan(1,0)"/>
  <use id="arrowdown" xlink:href="#arrowDown" x="0" y="0" onmousedown="handlePan(0,1)"/>
  <use id="arrowleft" xlink:href="#arrowLeft" x="0" y="0" onmousedown="handlePan(-1,0)"/>
</g>
<svg viewBox="0 0 15 15" width="100%" height="30px" preserveAspectRatio="xMaxYMin meet">
 <g id="arrow_out" transform="scale(0.3 0.3)">
  <a xlink:href="structBackendData__coll__graph_org.svg" target="_base">
   <rect id="button" ry="5" rx="5" y="6" x="6" height="38" width="38"
        fill="#f2f5e9" fill-opacity="0.5" stroke="#606060" stroke-width="1.0"/>
   <path id="arrow"
     d="M 11.500037,31.436501 C 11.940474,20.09759 22.043105,11.32322 32.158766,21.979434 L 37.068811,17.246167 C 37.068811,17.246167 37.088388,32 37.088388,32 L 22.160133,31.978069 C 22.160133,31.978069 26.997745,27.140456 26.997745,27.140456 C 18.528582,18.264221 13.291696,25.230495 11.500037,31.436501 z"
     style="fill:#404040;"/>
  </a>
 </g>
</svg>

<style type='text/css'>
<![CDATA[
[data-mouse-over-selected='false'] { opacity: 0.7; }
[data-mouse-over-selected='true']  { opacity: 1.0; }
]]>
</style>
<script type="application/ecmascript"><![CDATA[
document.addEventListener('DOMContentLoaded', (event) => {
  highlightEdges();
  highlightAdjacentNodes();
});
]]></script>
</svg>
