<?xml version="1.0" encoding="UTF-8" standalone="no"?>
<!DOCTYPE svg PUBLIC "-//W3C//DTD SVG 1.1//EN"
 "http://www.w3.org/Graphics/SVG/1.1/DTD/svg11.dtd">
<!-- Generated by graphviz version 2.43.0 (0)
 -->
<!-- Title: Gfx::ProgramDefinition Pages: 1 -->
<svg width="347pt" height="153pt"
 viewBox="0.00 0.00 346.50 153.00" xmlns="http://www.w3.org/2000/svg" xmlns:xlink="http://www.w3.org/1999/xlink">
<g id="graph0" class="graph" transform="scale(1 1) rotate(0) translate(4 149)">
<title>Gfx::ProgramDefinition</title>
<!-- Node1 -->
<g id="Node000001" class="node">
<title>Node1</title>
<g id="a_Node000001"><a xlink:title=" ">
<polygon fill="#999999" stroke="transparent" points="218.5,-49 96.5,-49 96.5,0 218.5,0 218.5,-49"/>
<text text-anchor="start" x="101.5" y="-36.5" font-family="Helvetica,sans-Serif" font-size="10.00">Gfx::ProgramDefinition</text>
<text text-anchor="start" x="155.5" y="-21.5" font-family="Helvetica,sans-Serif" font-size="10.00"> </text>
<text text-anchor="start" x="155.5" y="-6.5" font-family="Helvetica,sans-Serif" font-size="10.00"> </text>
<polygon fill="#666666" stroke="#666666" points="96.5,-31.5 96.5,-31.5 218.5,-31.5 218.5,-31.5 96.5,-31.5"/>
<polygon fill="#666666" stroke="#666666" points="96.5,-16.5 96.5,-16.5 218.5,-16.5 218.5,-16.5 96.5,-16.5"/>
<polygon fill="none" stroke="#666666" points="96.5,0 96.5,-49 218.5,-49 218.5,0 96.5,0"/>
</a>
</g>
</g>
<!-- Node2 -->
<g id="Node000002" class="node">
<title>Node2</title>
<g id="a_Node000002"><a xlink:title=" ">
<polygon fill="white" stroke="transparent" points="61,-145 0,-145 0,-96 61,-96 61,-145"/>
<text text-anchor="start" x="5.5" y="-132.5" font-family="Helvetica,sans-Serif" font-size="10.00">ProgramId</text>
<text text-anchor="start" x="29" y="-117.5" font-family="Helvetica,sans-Serif" font-size="10.00"> </text>
<text text-anchor="start" x="29" y="-102.5" font-family="Helvetica,sans-Serif" font-size="10.00"> </text>
<polygon fill="#666666" stroke="#666666" points="0.5,-127.5 0.5,-127.5 61.5,-127.5 61.5,-127.5 0.5,-127.5"/>
<polygon fill="#666666" stroke="#666666" points="0.5,-112.5 0.5,-112.5 61.5,-112.5 61.5,-112.5 0.5,-112.5"/>
<polygon fill="none" stroke="#666666" points="0,-96 0,-145 61,-145 61,-96 0,-96"/>
</a>
</g>
</g>
<!-- Node2&#45;&gt;Node1 -->
<g id="edge1_Node000001_Node000002" class="edge">
<title>Node2&#45;&gt;Node1</title>
<g id="a_edge1_Node000001_Node000002"><a xlink:title=" ">
<path fill="none" stroke="#63b8ff" d="M56.72,-95.95C67.53,-86.6 80.35,-75.96 92.5,-67 97.56,-63.27 102.94,-59.52 108.37,-55.87"/>
<polygon fill="none" stroke="#63b8ff" points="108.75,-55.62 111.56,-48.98 118.77,-49.02 115.96,-55.66 108.75,-55.62"/>
</a>
</g>
<text text-anchor="middle" x="103" y="-70" font-family="Helvetica,sans-Serif" font-size="10.00" fill="grey"> +id</text>
</g>
<!-- Node3 -->
<g id="Node000003" class="node">
<title>Node3</title>
<g id="a_Node000003"><a xlink:title=" ">
<polygon fill="white" stroke="transparent" points="148,-145 79,-145 79,-96 148,-96 148,-145"/>
<text text-anchor="start" x="84.5" y="-132.5" font-family="Helvetica,sans-Serif" font-size="10.00">const char *</text>
<text text-anchor="start" x="112" y="-117.5" font-family="Helvetica,sans-Serif" font-size="10.00"> </text>
<text text-anchor="start" x="112" y="-102.5" font-family="Helvetica,sans-Serif" font-size="10.00"> </text>
<polygon fill="#666666" stroke="#666666" points="79.5,-127.5 79.5,-127.5 148.5,-127.5 148.5,-127.5 79.5,-127.5"/>
<polygon fill="#666666" stroke="#666666" points="79.5,-112.5 79.5,-112.5 148.5,-112.5 148.5,-112.5 79.5,-112.5"/>
<polygon fill="none" stroke="#666666" points="79,-96 79,-145 148,-145 148,-96 79,-96"/>
</a>
</g>
</g>
<!-- Node3&#45;&gt;Node1 -->
<g id="edge2_Node000001_Node000003" class="edge">
<title>Node3&#45;&gt;Node1</title>
<g id="a_edge2_Node000001_Node000003"><a xlink:title=" ">
<path fill="none" stroke="#63b8ff" d="M114.27,-95.95C115.29,-86.6 117.36,-75.96 121.5,-67 122.72,-64.37 124.15,-61.78 125.73,-59.26"/>
<polygon fill="none" stroke="#63b8ff" points="125.87,-59.06 126.15,-51.86 132.91,-49.34 132.63,-56.54 125.87,-59.06"/>
</a>
</g>
<text text-anchor="middle" x="150.5" y="-70" font-family="Helvetica,sans-Serif" font-size="10.00" fill="grey"> +name_str</text>
</g>
<!-- Node4 -->
<g id="Node000004" class="node">
<title>Node4</title>
<g id="a_Node000004"><a xlink:title=" ">
<polygon fill="white" stroke="transparent" points="239,-145 166,-145 166,-96 239,-96 239,-145"/>
<text text-anchor="start" x="171.5" y="-132.5" font-family="Helvetica,sans-Serif" font-size="10.00">VertShaderId</text>
<text text-anchor="start" x="201" y="-117.5" font-family="Helvetica,sans-Serif" font-size="10.00"> </text>
<text text-anchor="start" x="201" y="-102.5" font-family="Helvetica,sans-Serif" font-size="10.00"> </text>
<polygon fill="#666666" stroke="#666666" points="166.5,-127.5 166.5,-127.5 239.5,-127.5 239.5,-127.5 166.5,-127.5"/>
<polygon fill="#666666" stroke="#666666" points="166.5,-112.5 166.5,-112.5 239.5,-112.5 239.5,-112.5 166.5,-112.5"/>
<polygon fill="none" stroke="#666666" points="166,-96 166,-145 239,-145 239,-96 166,-96"/>
</a>
</g>
</g>
<!-- Node4&#45;&gt;Node1 -->
<g id="edge3_Node000001_Node000004" class="edge">
<title>Node4&#45;&gt;Node1</title>
<g id="a_edge3_Node000001_Node000004"><a xlink:title=" ">
<path fill="none" stroke="#63b8ff" d="M192.57,-95.81C188.64,-86.73 184,-76.32 179.5,-67 178.35,-64.61 177.13,-62.16 175.89,-59.71"/>
<polygon fill="none" stroke="#63b8ff" points="175.89,-59.7 169.58,-56.21 170.37,-49.05 176.68,-52.54 175.89,-59.7"/>
</a>
</g>
<text text-anchor="middle" x="218.5" y="-70" font-family="Helvetica,sans-Serif" font-size="10.00" fill="grey"> +vert_shader</text>
</g>
<!-- Node5 -->
<g id="Node000005" class="node">
<title>Node5</title>
<g id="a_Node000005"><a xlink:title=" ">
<polygon fill="white" stroke="transparent" points="331.5,-145 257.5,-145 257.5,-96 331.5,-96 331.5,-145"/>
<text text-anchor="start" x="262.5" y="-132.5" font-family="Helvetica,sans-Serif" font-size="10.00">FragShaderId</text>
<text text-anchor="start" x="292.5" y="-117.5" font-family="Helvetica,sans-Serif" font-size="10.00"> </text>
<text text-anchor="start" x="292.5" y="-102.5" font-family="Helvetica,sans-Serif" font-size="10.00"> </text>
<polygon fill="#666666" stroke="#666666" points="257.5,-127.5 257.5,-127.5 331.5,-127.5 331.5,-127.5 257.5,-127.5"/>
<polygon fill="#666666" stroke="#666666" points="257.5,-112.5 257.5,-112.5 331.5,-112.5 331.5,-112.5 257.5,-112.5"/>
<polygon fill="none" stroke="#666666" points="257.5,-96 257.5,-145 331.5,-145 331.5,-96 257.5,-96"/>
</a>
</g>
</g>
<!-- Node5&#45;&gt;Node1 -->
<g id="edge4_Node000001_Node000005" class="edge">
<title>Node5&#45;&gt;Node1</title>
<g id="a_edge4_Node000001_Node000005"><a xlink:title=" ">
<path fill="none" stroke="#63b8ff" d="M281.8,-95.76C275.55,-85.83 267.25,-74.81 257.5,-67 249.18,-60.34 239.65,-54.6 229.84,-49.69"/>
<polygon fill="none" stroke="#63b8ff" points="229.58,-49.57 222.46,-50.66 218.71,-44.5 225.84,-43.41 229.58,-49.57"/>
</a>
</g>
<text text-anchor="middle" x="303.5" y="-70" font-family="Helvetica,sans-Serif" font-size="10.00" fill="grey"> +frag_shader</text>
</g>
</g>
</svg>
