<?xml version="1.0" encoding="UTF-8" standalone="no"?>
<!DOCTYPE svg PUBLIC "-//W3C//DTD SVG 1.1//EN"
 "http://www.w3.org/Graphics/SVG/1.1/DTD/svg11.dtd">
<!-- Generated by graphviz version 2.43.0 (0)
 -->
<!-- Title: CompiledShader Pages: 1 -->
<svg width="601pt" height="175pt"
 viewBox="0.00 0.00 601.00 175.00" xmlns="http://www.w3.org/2000/svg" xmlns:xlink="http://www.w3.org/1999/xlink">
<g id="graph0" class="graph" transform="scale(1 1) rotate(0) translate(4 171)">
<title>CompiledShader</title>
<!-- Node1 -->
<g id="Node000001" class="node">
<title>Node1</title>
<g id="a_Node000001"><a xlink:title=" ">
<polygon fill="#999999" stroke="transparent" points="361,-49 270,-49 270,0 361,0 361,-49"/>
<text text-anchor="start" x="275.5" y="-36.5" font-family="Helvetica,sans-Serif" font-size="10.00">CompiledShader</text>
<text text-anchor="start" x="314" y="-21.5" font-family="Helvetica,sans-Serif" font-size="10.00"> </text>
<text text-anchor="start" x="314" y="-6.5" font-family="Helvetica,sans-Serif" font-size="10.00"> </text>
<polygon fill="#666666" stroke="#666666" points="270.5,-31.5 270.5,-31.5 361.5,-31.5 361.5,-31.5 270.5,-31.5"/>
<polygon fill="#666666" stroke="#666666" points="270.5,-16.5 270.5,-16.5 361.5,-16.5 361.5,-16.5 270.5,-16.5"/>
<polygon fill="none" stroke="#666666" points="270,0 270,-49 361,-49 361,0 270,0"/>
</a>
</g>
</g>
<!-- Node2 -->
<g id="Node000002" class="node">
<title>Node2</title>
<g id="a_Node000002"><a xlink:title=" ">
<polygon fill="white" stroke="transparent" points="113,-167 0,-167 0,-118 113,-118 113,-167"/>
<text text-anchor="start" x="5.5" y="-154.5" font-family="Helvetica,sans-Serif" font-size="10.00">CompiledShaderType</text>
<text text-anchor="start" x="55" y="-139.5" font-family="Helvetica,sans-Serif" font-size="10.00"> </text>
<text text-anchor="start" x="55" y="-124.5" font-family="Helvetica,sans-Serif" font-size="10.00"> </text>
<polygon fill="#666666" stroke="#666666" points="0.5,-149.5 0.5,-149.5 113.5,-149.5 113.5,-149.5 0.5,-149.5"/>
<polygon fill="#666666" stroke="#666666" points="0.5,-134.5 0.5,-134.5 113.5,-134.5 113.5,-134.5 0.5,-134.5"/>
<polygon fill="none" stroke="#666666" points="0,-118 0,-167 113,-167 113,-118 0,-118"/>
</a>
</g>
</g>
<!-- Node2&#45;&gt;Node1 -->
<g id="edge1_Node000001_Node000002" class="edge">
<title>Node2&#45;&gt;Node1</title>
<g id="a_edge1_Node000001_Node000002"><a xlink:title=" ">
<path fill="none" stroke="#63b8ff" d="M83.89,-117.66C103.92,-101.32 132.39,-80.29 160.5,-67 191.27,-52.45 227.97,-42.34 257.93,-35.74"/>
<polygon fill="none" stroke="#63b8ff" points="258.16,-35.69 263.2,-30.54 269.9,-33.21 264.86,-38.37 258.16,-35.69"/>
</a>
</g>
<text text-anchor="middle" x="177.5" y="-81" font-family="Helvetica,sans-Serif" font-size="10.00" fill="grey"> +type</text>
</g>
<!-- Node3 -->
<g id="Node000003" class="node">
<title>Node3</title>
<g id="a_Node000003"><a xlink:title=" ">
<polygon fill="white" stroke="transparent" points="259.5,-167 131.5,-167 131.5,-118 259.5,-118 259.5,-167"/>
<text text-anchor="start" x="136.5" y="-154.5" font-family="Helvetica,sans-Serif" font-size="10.00">ShaderGradientFunction</text>
<text text-anchor="start" x="193.5" y="-139.5" font-family="Helvetica,sans-Serif" font-size="10.00"> </text>
<text text-anchor="start" x="193.5" y="-124.5" font-family="Helvetica,sans-Serif" font-size="10.00"> </text>
<polygon fill="#666666" stroke="#666666" points="131.5,-149.5 131.5,-149.5 259.5,-149.5 259.5,-149.5 131.5,-149.5"/>
<polygon fill="#666666" stroke="#666666" points="131.5,-134.5 131.5,-134.5 259.5,-134.5 259.5,-134.5 131.5,-134.5"/>
<polygon fill="none" stroke="#666666" points="131.5,-118 131.5,-167 259.5,-167 259.5,-118 131.5,-118"/>
</a>
</g>
</g>
<!-- Node3&#45;&gt;Node1 -->
<g id="edge2_Node000001_Node000003" class="edge">
<title>Node3&#45;&gt;Node1</title>
<g id="a_edge2_Node000001_Node000003"><a xlink:title=" ">
<path fill="none" stroke="#63b8ff" d="M196.15,-117.82C197.78,-101.77 202.33,-81.01 214.5,-67 225.91,-53.87 242.11,-44.82 258.2,-38.62"/>
<polygon fill="none" stroke="#63b8ff" points="258.49,-38.52 262.85,-32.77 269.83,-34.58 265.47,-40.33 258.49,-38.52"/>
</a>
</g>
<text text-anchor="middle" x="263" y="-81" font-family="Helvetica,sans-Serif" font-size="10.00" fill="grey"> +gradient_function</text>
</g>
<!-- Node4 -->
<g id="Node000004" class="node">
<title>Node4</title>
<g id="a_Node000004"><a xlink:title=" ">
<polygon fill="white" stroke="transparent" points="341,-167 290,-167 290,-118 341,-118 341,-167"/>
<text text-anchor="start" x="295.5" y="-154.5" font-family="Helvetica,sans-Serif" font-size="10.00">Vector2f</text>
<text text-anchor="start" x="314" y="-139.5" font-family="Helvetica,sans-Serif" font-size="10.00"> </text>
<text text-anchor="start" x="314" y="-124.5" font-family="Helvetica,sans-Serif" font-size="10.00"> </text>
<polygon fill="#666666" stroke="#666666" points="290.5,-149.5 290.5,-149.5 341.5,-149.5 341.5,-149.5 290.5,-149.5"/>
<polygon fill="#666666" stroke="#666666" points="290.5,-134.5 290.5,-134.5 341.5,-134.5 341.5,-134.5 290.5,-134.5"/>
<polygon fill="none" stroke="#666666" points="290,-118 290,-167 341,-167 341,-118 290,-118"/>
</a>
</g>
</g>
<!-- Node4&#45;&gt;Node1 -->
<g id="edge3_Node000001_Node000004" class="edge">
<title>Node4&#45;&gt;Node1</title>
<g id="a_edge3_Node000001_Node000004"><a xlink:title=" ">
<path fill="none" stroke="#63b8ff" d="M315.5,-117.75C315.5,-101.48 315.5,-79.62 315.5,-61.26"/>
<polygon fill="none" stroke="#63b8ff" points="315.5,-61.22 311.5,-55.22 315.5,-49.22 319.5,-55.22 315.5,-61.22"/>
</a>
</g>
<text text-anchor="middle" x="349.5" y="-92" font-family="Helvetica,sans-Serif" font-size="10.00" fill="grey"> +dimensions</text>
<text text-anchor="middle" x="349.5" y="-81" font-family="Helvetica,sans-Serif" font-size="10.00" fill="grey">+p</text>
<text text-anchor="middle" x="349.5" y="-70" font-family="Helvetica,sans-Serif" font-size="10.00" fill="grey">+v</text>
</g>
<!-- Node5 -->
<g id="Node000005" class="node">
<title>Node5</title>
<g id="a_Node000005"><a xlink:title=" ">
<polygon fill="white" stroke="transparent" points="449.5,-167 363.5,-167 363.5,-118 449.5,-118 449.5,-167"/>
<text text-anchor="start" x="368.5" y="-154.5" font-family="Helvetica,sans-Serif" font-size="10.00">Vector&lt; float &gt;</text>
<text text-anchor="start" x="404.5" y="-139.5" font-family="Helvetica,sans-Serif" font-size="10.00"> </text>
<text text-anchor="start" x="404.5" y="-124.5" font-family="Helvetica,sans-Serif" font-size="10.00"> </text>
<polygon fill="#666666" stroke="#666666" points="363.5,-149.5 363.5,-149.5 449.5,-149.5 449.5,-149.5 363.5,-149.5"/>
<polygon fill="#666666" stroke="#666666" points="363.5,-134.5 363.5,-134.5 449.5,-134.5 449.5,-134.5 363.5,-134.5"/>
<polygon fill="none" stroke="#666666" points="363.5,-118 363.5,-167 449.5,-167 449.5,-118 363.5,-118"/>
</a>
</g>
</g>
<!-- Node5&#45;&gt;Node1 -->
<g id="edge4_Node000001_Node000005" class="edge">
<title>Node5&#45;&gt;Node1</title>
<g id="a_edge4_Node000001_Node000005"><a xlink:title=" ">
<path fill="none" stroke="#63b8ff" d="M404.04,-117.99C401.39,-102.22 395.88,-81.72 384.5,-67 380.7,-62.08 376.13,-57.62 371.18,-53.6"/>
<polygon fill="none" stroke="#63b8ff" points="371.01,-53.48 363.8,-53.19 361.3,-46.43 368.5,-46.71 371.01,-53.48"/>
</a>
</g>
<text text-anchor="middle" x="440.5" y="-81" font-family="Helvetica,sans-Serif" font-size="10.00" fill="grey"> +stop_positions</text>
</g>
<!-- Node6 -->
<g id="Node000006" class="node">
<title>Node6</title>
<g id="a_Node000006"><a xlink:title=" ">
<polygon fill="white" stroke="transparent" points="593,-167 468,-167 468,-118 593,-118 593,-167"/>
<text text-anchor="start" x="473.5" y="-154.5" font-family="Helvetica,sans-Serif" font-size="10.00">Vector&lt; Rml::Colourf &gt;</text>
<text text-anchor="start" x="529" y="-139.5" font-family="Helvetica,sans-Serif" font-size="10.00"> </text>
<text text-anchor="start" x="529" y="-124.5" font-family="Helvetica,sans-Serif" font-size="10.00"> </text>
<polygon fill="#666666" stroke="#666666" points="468.5,-149.5 468.5,-149.5 593.5,-149.5 593.5,-149.5 468.5,-149.5"/>
<polygon fill="#666666" stroke="#666666" points="468.5,-134.5 468.5,-134.5 593.5,-134.5 593.5,-134.5 468.5,-134.5"/>
<polygon fill="none" stroke="#666666" points="468,-118 468,-167 593,-167 593,-118 468,-118"/>
</a>
</g>
</g>
<!-- Node6&#45;&gt;Node1 -->
<g id="edge5_Node000001_Node000006" class="edge">
<title>Node6&#45;&gt;Node1</title>
<g id="a_edge5_Node000001_Node000006"><a xlink:title=" ">
<path fill="none" stroke="#63b8ff" d="M521.97,-117.89C514.75,-101.23 502.79,-79.7 485.5,-67 452.97,-43.11 408.43,-32.84 373.1,-28.49"/>
<polygon fill="none" stroke="#63b8ff" points="372.95,-28.47 366.55,-31.8 361.02,-27.18 367.41,-23.85 372.95,-28.47"/>
</a>
</g>
<text text-anchor="middle" x="546" y="-81" font-family="Helvetica,sans-Serif" font-size="10.00" fill="grey"> +stop_colors</text>
</g>
</g>
</svg>
