<?xml version="1.0" encoding="UTF-8" standalone="no"?>
<!DOCTYPE svg PUBLIC "-//W3C//DTD SVG 1.1//EN"
 "http://www.w3.org/Graphics/SVG/1.1/DTD/svg11.dtd">
<!-- Generated by graphviz version 2.43.0 (0)
 -->
<!-- Title: TGAHeader Pages: 1 -->
<svg width="229pt" height="208pt"
 viewBox="0.00 0.00 229.00 208.00" xmlns="http://www.w3.org/2000/svg" xmlns:xlink="http://www.w3.org/1999/xlink">
<g id="graph0" class="graph" transform="scale(1 1) rotate(0) translate(4 204)">
<title>TGAHeader</title>
<!-- Node1 -->
<g id="Node000001" class="node">
<title>Node1</title>
<g id="a_Node000001"><a xlink:title=" ">
<polygon fill="#999999" stroke="transparent" points="105,-49 39,-49 39,0 105,0 105,-49"/>
<text text-anchor="start" x="44" y="-36.5" font-family="Helvetica,sans-Serif" font-size="10.00">TGAHeader</text>
<text text-anchor="start" x="70" y="-21.5" font-family="Helvetica,sans-Serif" font-size="10.00"> </text>
<text text-anchor="start" x="70" y="-6.5" font-family="Helvetica,sans-Serif" font-size="10.00"> </text>
<polygon fill="#666666" stroke="#666666" points="39,-31.5 39,-31.5 105,-31.5 105,-31.5 39,-31.5"/>
<polygon fill="#666666" stroke="#666666" points="39,-16.5 39,-16.5 105,-16.5 105,-16.5 39,-16.5"/>
<polygon fill="none" stroke="#666666" points="39,0 39,-49 105,-49 105,0 39,0"/>
</a>
</g>
</g>
<!-- Node2 -->
<g id="Node000002" class="node">
<title>Node2</title>
<g id="a_Node000002"><a xlink:title=" ">
<polygon fill="white" stroke="transparent" points="32,-200 0,-200 0,-151 32,-151 32,-200"/>
<text text-anchor="start" x="5" y="-187.5" font-family="Helvetica,sans-Serif" font-size="10.00">char</text>
<text text-anchor="start" x="14" y="-172.5" font-family="Helvetica,sans-Serif" font-size="10.00"> </text>
<text text-anchor="start" x="14" y="-157.5" font-family="Helvetica,sans-Serif" font-size="10.00"> </text>
<polygon fill="#666666" stroke="#666666" points="0,-182.5 0,-182.5 32,-182.5 32,-182.5 0,-182.5"/>
<polygon fill="#666666" stroke="#666666" points="0,-167.5 0,-167.5 32,-167.5 32,-167.5 0,-167.5"/>
<polygon fill="none" stroke="#666666" points="0,-151 0,-200 32,-200 32,-151 0,-151"/>
</a>
</g>
</g>
<!-- Node2&#45;&gt;Node1 -->
<g id="edge1_Node000001_Node000002" class="edge">
<title>Node2&#45;&gt;Node1</title>
<g id="a_edge1_Node000001_Node000002"><a xlink:title=" ">
<path fill="none" stroke="#63b8ff" d="M10.49,-150.88C6.46,-128.11 3.73,-93.33 17,-67 20.03,-60.99 24.38,-55.62 29.33,-50.9"/>
<polygon fill="none" stroke="#63b8ff" points="29.49,-50.76 31.55,-43.85 38.73,-43.09 36.67,-50 29.49,-50.76"/>
</a>
</g>
<text text-anchor="middle" x="62" y="-125" font-family="Helvetica,sans-Serif" font-size="10.00" fill="grey"> +bitsPerPixel</text>
<text text-anchor="middle" x="62" y="-114" font-family="Helvetica,sans-Serif" font-size="10.00" fill="grey">+colourMapDepth</text>
<text text-anchor="middle" x="62" y="-103" font-family="Helvetica,sans-Serif" font-size="10.00" fill="grey">+colourMapType</text>
<text text-anchor="middle" x="62" y="-92" font-family="Helvetica,sans-Serif" font-size="10.00" fill="grey">+dataType</text>
<text text-anchor="middle" x="62" y="-81" font-family="Helvetica,sans-Serif" font-size="10.00" fill="grey">+idLength</text>
<text text-anchor="middle" x="62" y="-70" font-family="Helvetica,sans-Serif" font-size="10.00" fill="grey">+imageDescriptor</text>
</g>
<!-- Node3 -->
<g id="Node000003" class="node">
<title>Node3</title>
<g id="a_Node000003"><a xlink:title=" ">
<polygon fill="white" stroke="transparent" points="140.5,-200 117.5,-200 117.5,-151 140.5,-151 140.5,-200"/>
<text text-anchor="start" x="123" y="-187.5" font-family="Helvetica,sans-Serif" font-size="10.00">int</text>
<text text-anchor="start" x="127.5" y="-172.5" font-family="Helvetica,sans-Serif" font-size="10.00"> </text>
<text text-anchor="start" x="127.5" y="-157.5" font-family="Helvetica,sans-Serif" font-size="10.00"> </text>
<polygon fill="#666666" stroke="#666666" points="118,-182.5 118,-182.5 141,-182.5 141,-182.5 118,-182.5"/>
<polygon fill="#666666" stroke="#666666" points="118,-167.5 118,-167.5 141,-167.5 141,-167.5 118,-167.5"/>
<polygon fill="none" stroke="#666666" points="117.5,-151 117.5,-200 140.5,-200 140.5,-151 117.5,-151"/>
</a>
</g>
</g>
<!-- Node3&#45;&gt;Node1 -->
<g id="edge2_Node000001_Node000003" class="edge">
<title>Node3&#45;&gt;Node1</title>
<g id="a_edge2_Node000001_Node000003"><a xlink:title=" ">
<path fill="none" stroke="#63b8ff" d="M127.53,-150.78C125.36,-128.25 120.04,-93.91 107,-67 105.67,-64.25 104.12,-61.54 102.42,-58.89"/>
<polygon fill="none" stroke="#63b8ff" points="102.35,-58.8 95.59,-56.29 95.31,-49.08 102.07,-51.59 102.35,-58.8"/>
</a>
</g>
<text text-anchor="middle" x="173" y="-125" font-family="Helvetica,sans-Serif" font-size="10.00" fill="grey"> +colourMapLength</text>
<text text-anchor="middle" x="173" y="-114" font-family="Helvetica,sans-Serif" font-size="10.00" fill="grey">+colourMapOrigin</text>
<text text-anchor="middle" x="173" y="-103" font-family="Helvetica,sans-Serif" font-size="10.00" fill="grey">+height</text>
<text text-anchor="middle" x="173" y="-92" font-family="Helvetica,sans-Serif" font-size="10.00" fill="grey">+width</text>
<text text-anchor="middle" x="173" y="-81" font-family="Helvetica,sans-Serif" font-size="10.00" fill="grey">+xOrigin</text>
<text text-anchor="middle" x="173" y="-70" font-family="Helvetica,sans-Serif" font-size="10.00" fill="grey">+yOrigin</text>
</g>
</g>
</svg>
