<?xml version="1.0" encoding="UTF-8" standalone="no"?>
<!DOCTYPE svg PUBLIC "-//W3C//DTD SVG 1.1//EN"
 "http://www.w3.org/Graphics/SVG/1.1/DTD/svg11.dtd">
<!-- Generated by graphviz version 2.43.0 (0)
 -->
<!-- Title: RenderInterface_GL3::GLStateBackup Pages: 1 -->
<svg width="654pt" height="442pt"
 viewBox="0.00 0.00 654.47 442.00" xmlns="http://www.w3.org/2000/svg" xmlns:xlink="http://www.w3.org/1999/xlink">
<g id="graph0" class="graph" transform="scale(1 1) rotate(0) translate(4 438)">
<title>RenderInterface_GL3::GLStateBackup</title>
<!-- Node1 -->
<g id="Node000001" class="node">
<title>Node1</title>
<g id="a_Node000001"><a xlink:title=" ">
<polygon fill="#999999" stroke="transparent" points="391.97,-60 278.97,-60 278.97,0 391.97,0 391.97,-60"/>
<text text-anchor="start" x="284.47" y="-48" font-family="Helvetica,sans-Serif" font-size="10.00">RenderInterface_GL3</text>
<text text-anchor="start" x="295.97" y="-37" font-family="Helvetica,sans-Serif" font-size="10.00">::GLStateBackup</text>
<text text-anchor="start" x="333.97" y="-22" font-family="Helvetica,sans-Serif" font-size="10.00"> </text>
<text text-anchor="start" x="333.97" y="-7" font-family="Helvetica,sans-Serif" font-size="10.00"> </text>
<polygon fill="#666666" stroke="#666666" points="279.47,-32 279.47,-32 392.47,-32 392.47,-32 279.47,-32"/>
<polygon fill="#666666" stroke="#666666" points="279.47,-17 279.47,-17 392.47,-17 392.47,-17 279.47,-17"/>
<polygon fill="none" stroke="#666666" points="278.97,0 278.97,-60 391.97,-60 391.97,0 278.97,0"/>
</a>
</g>
</g>
<!-- Node2 -->
<g id="Node000002" class="node">
<title>Node2</title>
<g id="a_Node000002"><a xlink:title=" ">
<polygon fill="white" stroke="transparent" points="32.47,-236 0.47,-236 0.47,-187 32.47,-187 32.47,-236"/>
<text text-anchor="start" x="5.47" y="-223.5" font-family="Helvetica,sans-Serif" font-size="10.00">bool</text>
<text text-anchor="start" x="14.47" y="-208.5" font-family="Helvetica,sans-Serif" font-size="10.00"> </text>
<text text-anchor="start" x="14.47" y="-193.5" font-family="Helvetica,sans-Serif" font-size="10.00"> </text>
<polygon fill="#666666" stroke="#666666" points="0.47,-218.5 0.47,-218.5 32.47,-218.5 32.47,-218.5 0.47,-218.5"/>
<polygon fill="#666666" stroke="#666666" points="0.47,-203.5 0.47,-203.5 32.47,-203.5 32.47,-203.5 0.47,-203.5"/>
<polygon fill="none" stroke="#666666" points="0.47,-187 0.47,-236 32.47,-236 32.47,-187 0.47,-187"/>
</a>
</g>
</g>
<!-- Node2&#45;&gt;Node1 -->
<g id="edge1_Node000001_Node000002" class="edge">
<title>Node2&#45;&gt;Node1</title>
<g id="a_edge1_Node000001_Node000002"><a xlink:title=" ">
<path fill="none" stroke="#63b8ff" d="M8.41,-186.96C0.03,-157.69 -8.57,-107.94 17.47,-78 49.11,-41.61 182.95,-32.93 266.58,-31.14"/>
<polygon fill="none" stroke="#63b8ff" points="266.79,-31.13 272.72,-27.02 278.79,-30.92 272.87,-35.02 266.79,-31.13"/>
</a>
</g>
<text text-anchor="middle" x="69.97" y="-125" font-family="Helvetica,sans-Serif" font-size="10.00" fill="grey"> +enable_blend</text>
<text text-anchor="middle" x="69.97" y="-114" font-family="Helvetica,sans-Serif" font-size="10.00" fill="grey">+enable_cull_face</text>
<text text-anchor="middle" x="69.97" y="-103" font-family="Helvetica,sans-Serif" font-size="10.00" fill="grey">+enable_depth_test</text>
<text text-anchor="middle" x="69.97" y="-92" font-family="Helvetica,sans-Serif" font-size="10.00" fill="grey">+enable_scissor_test</text>
<text text-anchor="middle" x="69.97" y="-81" font-family="Helvetica,sans-Serif" font-size="10.00" fill="grey">+enable_stencil_test</text>
</g>
<!-- Node3 -->
<g id="Node000003" class="node">
<title>Node3</title>
<g id="a_Node000003"><a xlink:title=" ">
<polygon fill="white" stroke="transparent" points="163.97,-434 140.97,-434 140.97,-385 163.97,-385 163.97,-434"/>
<text text-anchor="start" x="146.47" y="-421.5" font-family="Helvetica,sans-Serif" font-size="10.00">int</text>
<text text-anchor="start" x="150.97" y="-406.5" font-family="Helvetica,sans-Serif" font-size="10.00"> </text>
<text text-anchor="start" x="150.97" y="-391.5" font-family="Helvetica,sans-Serif" font-size="10.00"> </text>
<polygon fill="#666666" stroke="#666666" points="141.47,-416.5 141.47,-416.5 164.47,-416.5 164.47,-416.5 141.47,-416.5"/>
<polygon fill="#666666" stroke="#666666" points="141.47,-401.5 141.47,-401.5 164.47,-401.5 164.47,-401.5 141.47,-401.5"/>
<polygon fill="none" stroke="#666666" points="140.97,-385 140.97,-434 163.97,-434 163.97,-385 140.97,-385"/>
</a>
</g>
</g>
<!-- Node3&#45;&gt;Node1 -->
<g id="edge2_Node000001_Node000003" class="edge">
<title>Node3&#45;&gt;Node1</title>
<g id="a_edge2_Node000001_Node000003"><a xlink:title=" ">
<path fill="none" stroke="#63b8ff" d="M144.57,-384.99C130.06,-337.38 104.36,-227.61 146.47,-151 172.07,-104.41 224.27,-73.35 267.33,-54.52"/>
<polygon fill="none" stroke="#63b8ff" points="267.57,-54.42 271.55,-48.41 278.63,-49.77 274.66,-55.78 267.57,-54.42"/>
</a>
</g>
<text text-anchor="middle" x="204.47" y="-264" font-family="Helvetica,sans-Serif" font-size="10.00" fill="grey"> +active_texture</text>
<text text-anchor="middle" x="204.47" y="-253" font-family="Helvetica,sans-Serif" font-size="10.00" fill="grey">+blend_dst_alpha</text>
<text text-anchor="middle" x="204.47" y="-242" font-family="Helvetica,sans-Serif" font-size="10.00" fill="grey">+blend_dst_rgb</text>
<text text-anchor="middle" x="204.47" y="-231" font-family="Helvetica,sans-Serif" font-size="10.00" fill="grey">+blend_equation_alpha</text>
<text text-anchor="middle" x="204.47" y="-220" font-family="Helvetica,sans-Serif" font-size="10.00" fill="grey">+blend_equation_rgb</text>
<text text-anchor="middle" x="204.47" y="-209" font-family="Helvetica,sans-Serif" font-size="10.00" fill="grey">+blend_src_alpha</text>
<text text-anchor="middle" x="204.47" y="-198" font-family="Helvetica,sans-Serif" font-size="10.00" fill="grey">+blend_src_rgb</text>
<text text-anchor="middle" x="204.47" y="-187" font-family="Helvetica,sans-Serif" font-size="10.00" fill="grey">+scissor</text>
<text text-anchor="middle" x="204.47" y="-176" font-family="Helvetica,sans-Serif" font-size="10.00" fill="grey">+stencil_clear_value</text>
<text text-anchor="middle" x="204.47" y="-165" font-family="Helvetica,sans-Serif" font-size="10.00" fill="grey">+viewport</text>
<text text-anchor="middle" x="204.47" y="-154" font-family="Helvetica,sans-Serif" font-size="10.00" fill="grey">...</text>
</g>
<!-- Node6 -->
<g id="Node000006" class="node">
<title>Node6</title>
<g id="a_Node000006"><a xlink:href="structRenderInterface__GL3_1_1GLStateBackup_1_1Stencil.html" target="_top" xlink:title=" ">
<polygon fill="white" stroke="transparent" points="399.97,-241.5 270.97,-241.5 270.97,-181.5 399.97,-181.5 399.97,-241.5"/>
<text text-anchor="start" x="276.47" y="-229.5" font-family="Helvetica,sans-Serif" font-size="10.00">RenderInterface_GL3</text>
<text text-anchor="start" x="276.47" y="-218.5" font-family="Helvetica,sans-Serif" font-size="10.00">::GLStateBackup::Stencil</text>
<text text-anchor="start" x="333.97" y="-203.5" font-family="Helvetica,sans-Serif" font-size="10.00"> </text>
<text text-anchor="start" x="333.97" y="-188.5" font-family="Helvetica,sans-Serif" font-size="10.00"> </text>
<polygon fill="#666666" stroke="#666666" points="271.47,-213.5 271.47,-213.5 400.47,-213.5 400.47,-213.5 271.47,-213.5"/>
<polygon fill="#666666" stroke="#666666" points="271.47,-198.5 271.47,-198.5 400.47,-198.5 400.47,-198.5 271.47,-198.5"/>
<polygon fill="none" stroke="#666666" points="270.97,-181.5 270.97,-241.5 399.97,-241.5 399.97,-181.5 270.97,-181.5"/>
</a>
</g>
</g>
<!-- Node3&#45;&gt;Node6 -->
<g id="edge6_Node000006_Node000003" class="edge">
<title>Node3&#45;&gt;Node6</title>
<g id="a_edge6_Node000006_Node000003"><a xlink:title=" ">
<path fill="none" stroke="#63b8ff" d="M164.19,-395.94C191.13,-367.09 258.32,-295.13 300.09,-250.39"/>
<polygon fill="none" stroke="#63b8ff" points="300.15,-250.33 301.32,-243.21 308.34,-241.55 307.17,-248.67 300.15,-250.33"/>
</a>
</g>
<text text-anchor="middle" x="305.47" y="-359" font-family="Helvetica,sans-Serif" font-size="10.00" fill="grey"> +fail</text>
<text text-anchor="middle" x="305.47" y="-348" font-family="Helvetica,sans-Serif" font-size="10.00" fill="grey">+func</text>
<text text-anchor="middle" x="305.47" y="-337" font-family="Helvetica,sans-Serif" font-size="10.00" fill="grey">+pass_depth_fail</text>
<text text-anchor="middle" x="305.47" y="-326" font-family="Helvetica,sans-Serif" font-size="10.00" fill="grey">+pass_depth_pass</text>
<text text-anchor="middle" x="305.47" y="-315" font-family="Helvetica,sans-Serif" font-size="10.00" fill="grey">+ref</text>
<text text-anchor="middle" x="305.47" y="-304" font-family="Helvetica,sans-Serif" font-size="10.00" fill="grey">+value_mask</text>
<text text-anchor="middle" x="305.47" y="-293" font-family="Helvetica,sans-Serif" font-size="10.00" fill="grey">+writemask</text>
</g>
<!-- Node4 -->
<g id="Node000004" class="node">
<title>Node4</title>
<g id="a_Node000004"><a xlink:title=" ">
<polygon fill="white" stroke="transparent" points="450.47,-236 418.47,-236 418.47,-187 450.47,-187 450.47,-236"/>
<text text-anchor="start" x="423.47" y="-223.5" font-family="Helvetica,sans-Serif" font-size="10.00">float</text>
<text text-anchor="start" x="432.47" y="-208.5" font-family="Helvetica,sans-Serif" font-size="10.00"> </text>
<text text-anchor="start" x="432.47" y="-193.5" font-family="Helvetica,sans-Serif" font-size="10.00"> </text>
<polygon fill="#666666" stroke="#666666" points="418.47,-218.5 418.47,-218.5 450.47,-218.5 450.47,-218.5 418.47,-218.5"/>
<polygon fill="#666666" stroke="#666666" points="418.47,-203.5 418.47,-203.5 450.47,-203.5 450.47,-203.5 418.47,-203.5"/>
<polygon fill="none" stroke="#666666" points="418.47,-187 418.47,-236 450.47,-236 450.47,-187 418.47,-187"/>
</a>
</g>
</g>
<!-- Node4&#45;&gt;Node1 -->
<g id="edge3_Node000001_Node000004" class="edge">
<title>Node4&#45;&gt;Node1</title>
<g id="a_edge3_Node000001_Node000004"><a xlink:title=" ">
<path fill="none" stroke="#63b8ff" d="M435.7,-186.83C436.02,-158.54 432.75,-110.91 410.47,-78 407.78,-74.03 404.64,-70.34 401.19,-66.9"/>
<polygon fill="none" stroke="#63b8ff" points="401.09,-66.81 393.94,-65.86 392.07,-58.9 399.22,-59.85 401.09,-66.81"/>
</a>
</g>
<text text-anchor="middle" x="478.97" y="-103" font-family="Helvetica,sans-Serif" font-size="10.00" fill="grey"> +color_clear_value</text>
</g>
<!-- Node5 -->
<g id="Node000005" class="node">
<title>Node5</title>
<g id="a_Node000005"><a xlink:title=" ">
<polygon fill="white" stroke="transparent" points="591.97,-236 512.97,-236 512.97,-187 591.97,-187 591.97,-236"/>
<text text-anchor="start" x="518.47" y="-223.5" font-family="Helvetica,sans-Serif" font-size="10.00">unsigned char</text>
<text text-anchor="start" x="550.97" y="-208.5" font-family="Helvetica,sans-Serif" font-size="10.00"> </text>
<text text-anchor="start" x="550.97" y="-193.5" font-family="Helvetica,sans-Serif" font-size="10.00"> </text>
<polygon fill="#666666" stroke="#666666" points="513.47,-218.5 513.47,-218.5 592.47,-218.5 592.47,-218.5 513.47,-218.5"/>
<polygon fill="#666666" stroke="#666666" points="513.47,-203.5 513.47,-203.5 592.47,-203.5 592.47,-203.5 513.47,-203.5"/>
<polygon fill="none" stroke="#666666" points="512.97,-187 512.97,-236 591.97,-236 591.97,-187 512.97,-187"/>
</a>
</g>
</g>
<!-- Node5&#45;&gt;Node1 -->
<g id="edge4_Node000001_Node000005" class="edge">
<title>Node5&#45;&gt;Node1</title>
<g id="a_edge4_Node000001_Node000005"><a xlink:title=" ">
<path fill="none" stroke="#63b8ff" d="M555.72,-186.81C558.33,-157.37 557.87,-107.45 530.47,-78 513.3,-59.55 453.21,-46.94 404.23,-39.46"/>
<polygon fill="none" stroke="#63b8ff" points="403.92,-39.42 397.4,-42.5 392.04,-37.67 398.56,-34.59 403.92,-39.42"/>
</a>
</g>
<text text-anchor="middle" x="599.97" y="-103" font-family="Helvetica,sans-Serif" font-size="10.00" fill="grey"> +color_writemask</text>
</g>
<!-- Node6&#45;&gt;Node1 -->
<g id="edge5_Node000001_Node000006" class="edge">
<title>Node6&#45;&gt;Node1</title>
<g id="a_edge5_Node000001_Node000006"><a xlink:title=" ">
<path fill="none" stroke="#63b8ff" d="M335.47,-181.26C335.47,-151.66 335.47,-105.63 335.47,-72.31"/>
<polygon fill="none" stroke="#63b8ff" points="335.47,-72.23 331.47,-66.23 335.47,-60.23 339.47,-66.23 335.47,-72.23"/>
</a>
</g>
<text text-anchor="middle" x="371.97" y="-108.5" font-family="Helvetica,sans-Serif" font-size="10.00" fill="grey"> +stencil_back</text>
<text text-anchor="middle" x="371.97" y="-97.5" font-family="Helvetica,sans-Serif" font-size="10.00" fill="grey">+stencil_front</text>
</g>
</g>
</svg>
