<?xml version="1.0" encoding="UTF-8" standalone="no"?>
<!DOCTYPE svg PUBLIC "-//W3C//DTD SVG 1.1//EN"
 "http://www.w3.org/Graphics/SVG/1.1/DTD/svg11.dtd">
<!-- Generated by graphviz version 2.43.0 (0)
 -->
<!-- Title: Gfx::VertShaderDefinition Pages: 1 -->
<svg width="170pt" height="164pt"
 viewBox="0.00 0.00 169.50 164.00" xmlns="http://www.w3.org/2000/svg" xmlns:xlink="http://www.w3.org/1999/xlink">

<svg id="main" version="1.1" xmlns="http://www.w3.org/2000/svg" xmlns:xlink="http://www.w3.org/1999/xlink" xml:space="preserve" onload="init(evt)">
<style type="text/css"><![CDATA[
.node, .edge {opacity: 0.7;}
.node.selected, .edge.selected {opacity: 1;}
.edge:hover path { stroke: red; }
.edge:hover polygon { stroke: red; fill: red; }
]]></style>
<script type="application/ecmascript" xlink:href="svg.min.js"/>
<svg id="graph" class="graph">
<g id="graph0" class="graph" transform="scale(1 1) rotate(0) translate(4 160)">
<title>Gfx::VertShaderDefinition</title>
<!-- Node1 -->
<g id="Node000001" class="node">
<title>Node1</title>
<g id="a_Node000001"><a xlink:title=" ">
<polygon fill="#999999" stroke="transparent" points="147.5,-49 13.5,-49 13.5,0 147.5,0 147.5,-49"/>
<text text-anchor="start" x="18.5" y="-36.5" font-family="Helvetica,sans-Serif" font-size="10.00">Gfx::VertShaderDefinition</text>
<text text-anchor="start" x="78.5" y="-21.5" font-family="Helvetica,sans-Serif" font-size="10.00"> </text>
<text text-anchor="start" x="78.5" y="-6.5" font-family="Helvetica,sans-Serif" font-size="10.00"> </text>
<polygon fill="#666666" stroke="#666666" points="13.5,-31.5 13.5,-31.5 147.5,-31.5 147.5,-31.5 13.5,-31.5"/>
<polygon fill="#666666" stroke="#666666" points="13.5,-16.5 13.5,-16.5 147.5,-16.5 147.5,-16.5 13.5,-16.5"/>
<polygon fill="none" stroke="#666666" points="13.5,0 13.5,-49 147.5,-49 147.5,0 13.5,0"/>
</a>
</g>
</g>
<!-- Node2 -->
<g id="Node000002" class="node">
<title>Node2</title>
<g id="a_Node000002"><a xlink:title=" ">
<polygon fill="white" stroke="transparent" points="73,-156 0,-156 0,-107 73,-107 73,-156"/>
<text text-anchor="start" x="5.5" y="-143.5" font-family="Helvetica,sans-Serif" font-size="10.00">VertShaderId</text>
<text text-anchor="start" x="35" y="-128.5" font-family="Helvetica,sans-Serif" font-size="10.00"> </text>
<text text-anchor="start" x="35" y="-113.5" font-family="Helvetica,sans-Serif" font-size="10.00"> </text>
<polygon fill="#666666" stroke="#666666" points="0.5,-138.5 0.5,-138.5 73.5,-138.5 73.5,-138.5 0.5,-138.5"/>
<polygon fill="#666666" stroke="#666666" points="0.5,-123.5 0.5,-123.5 73.5,-123.5 73.5,-123.5 0.5,-123.5"/>
<polygon fill="none" stroke="#666666" points="0,-107 0,-156 73,-156 73,-107 0,-107"/>
</a>
</g>
</g>
<!-- Node2&#45;&gt;Node1 -->
<g id="edge1_Node000001_Node000002" class="edge">
<title>Node2&#45;&gt;Node1</title>
<g id="a_edge1_Node000001_Node000002"><a xlink:title=" ">
<path fill="none" stroke="#63b8ff" d="M46.37,-106.94C52.11,-93.25 59.44,-75.75 65.84,-60.49"/>
<polygon fill="none" stroke="#63b8ff" points="65.87,-60.42 64.5,-53.34 70.51,-49.35 71.88,-56.43 65.87,-60.42"/>
</a>
</g>
<text text-anchor="middle" x="73" y="-75.5" font-family="Helvetica,sans-Serif" font-size="10.00" fill="grey"> +id</text>
</g>
<!-- Node3 -->
<g id="Node000003" class="node">
<title>Node3</title>
<g id="a_Node000003"><a xlink:title=" ">
<polygon fill="white" stroke="transparent" points="160,-156 91,-156 91,-107 160,-107 160,-156"/>
<text text-anchor="start" x="96.5" y="-143.5" font-family="Helvetica,sans-Serif" font-size="10.00">const char *</text>
<text text-anchor="start" x="124" y="-128.5" font-family="Helvetica,sans-Serif" font-size="10.00"> </text>
<text text-anchor="start" x="124" y="-113.5" font-family="Helvetica,sans-Serif" font-size="10.00"> </text>
<polygon fill="#666666" stroke="#666666" points="91.5,-138.5 91.5,-138.5 160.5,-138.5 160.5,-138.5 91.5,-138.5"/>
<polygon fill="#666666" stroke="#666666" points="91.5,-123.5 91.5,-123.5 160.5,-123.5 160.5,-123.5 91.5,-123.5"/>
<polygon fill="none" stroke="#666666" points="91,-107 91,-156 160,-156 160,-107 91,-107"/>
</a>
</g>
</g>
<!-- Node3&#45;&gt;Node1 -->
<g id="edge2_Node000001_Node000003" class="edge">
<title>Node3&#45;&gt;Node1</title>
<g id="a_edge2_Node000001_Node000003"><a xlink:title=" ">
<path fill="none" stroke="#63b8ff" d="M115.4,-106.94C109.54,-93.25 102.04,-75.75 95.49,-60.49"/>
<polygon fill="none" stroke="#63b8ff" points="95.45,-60.38 89.41,-56.44 90.72,-49.35 96.76,-53.29 95.45,-60.38"/>
</a>
</g>
<text text-anchor="middle" x="134" y="-81" font-family="Helvetica,sans-Serif" font-size="10.00" fill="grey"> +code_str</text>
<text text-anchor="middle" x="134" y="-70" font-family="Helvetica,sans-Serif" font-size="10.00" fill="grey">+name_str</text>
</g>
</g>
</svg>
</svg>

<style type='text/css'>
<![CDATA[
[data-mouse-over-selected='false'] { opacity: 0.7; }
[data-mouse-over-selected='true']  { opacity: 1.0; }
]]>
</style>
<script type="application/ecmascript"><![CDATA[
document.addEventListener('DOMContentLoaded', (event) => {
  highlightEdges();
  highlightAdjacentNodes();
});
]]></script>
</svg>
