<?xml version="1.0" encoding="UTF-8" standalone="no"?>
<!DOCTYPE svg PUBLIC "-//W3C//DTD SVG 1.1//EN"
 "http://www.w3.org/Graphics/SVG/1.1/DTD/svg11.dtd">
<!-- Generated by graphviz version 2.43.0 (0)
 -->
<!-- Title: Gfx::ProgramData Pages: 1 -->
<!--zoomable 361 -->

<svg id="main" version="1.1" xmlns="http://www.w3.org/2000/svg" xmlns:xlink="http://www.w3.org/1999/xlink" xml:space="preserve" onload="init(evt)">
<style type="text/css"><![CDATA[
.node, .edge {opacity: 0.7;}
.node.selected, .edge.selected {opacity: 1;}
.edge:hover path { stroke: red; }
.edge:hover polygon { stroke: red; fill: red; }
]]></style>

<defs>
  <circle id="rim" cx="0" cy="0" r="7"/>
  <circle id="rim2" cx="0" cy="0" r="3.5"/>
  <g id="zoomPlus">
    <use xlink:href="#rim" fill="#404040"><set attributeName="fill" to="#808080" begin="zoomplus.mouseover" end="zoomplus.mouseout"/></use>
    <path d="M-4,0h8M0,-4v8" fill="none" stroke="white" stroke-width="1.5" pointer-events="none"/>
  </g>
  <g id="zoomMin">
    <use xlink:href="#rim" fill="#404040"><set attributeName="fill" to="#808080" begin="zoomminus.mouseover" end="zoomminus.mouseout"/></use>
    <path d="M-4,0h8" fill="none" stroke="white" stroke-width="1.5" pointer-events="none"/>
  </g>
  <g id="arrowUp" transform="translate(30 24)">
    <use xlink:href="#rim"/>
    <path pointer-events="none" fill="none" stroke="white" stroke-width="1.5" d="M0,-3.0v7 M-2.5,-0.5L0,-3.0L2.5,-0.5"/>
  </g>
  <g id="arrowRight" transform="rotate(90) translate(36 -43)">
    <use xlink:href="#rim"/>
    <path pointer-events="none" fill="none" stroke="white" stroke-width="1.5" d="M0,-3.0v7 M-2.5,-0.5L0,-3.0L2.5,-0.5"/>
  </g>
  <g id="arrowDown" transform="rotate(180) translate(-30 -48)">
    <use xlink:href="#rim"/>
    <path pointer-events="none" fill="none" stroke="white" stroke-width="1.5" d="M0,-3.0v7 M-2.5,-0.5L0,-3.0L2.5,-0.5"/>
  </g>
  <g id="arrowLeft" transform="rotate(270) translate(-36 17)">
    <use xlink:href="#rim"/>
    <path pointer-events="none" fill="none" stroke="white" stroke-width="1.5" d="M0,-3.0v7 M-2.5,-0.5L0,-3.0L2.5,-0.5"/>
  </g>
  <g id="resetDef">
    <use xlink:href="#rim2" fill="#404040"><set attributeName="fill" to="#808080" begin="reset.mouseover" end="reset.mouseout"/></use>
  </g>
</defs>
<script type="application/ecmascript">
var viewWidth = 701;
var viewHeight = 361;
var sectionId = 'dynsection-0';
</script>
<script type="application/ecmascript" xlink:href="svg.min.js"/>
<svg id="graph" class="graph">
<g id="viewport">
<title>Gfx::ProgramData</title>
<!-- Node1 -->
<g id="Node000001" class="node">
<title>Node1</title>
<g id="a_Node000001"><a xlink:title=" ">
<polygon fill="#999999" stroke="transparent" points="469.81,-49 371.81,-49 371.81,0 469.81,0 469.81,-49"/>
<text text-anchor="start" x="376.81" y="-36.5" font-family="Helvetica,sans-Serif" font-size="10.00">Gfx::ProgramData</text>
<text text-anchor="start" x="418.81" y="-21.5" font-family="Helvetica,sans-Serif" font-size="10.00"> </text>
<text text-anchor="start" x="418.81" y="-6.5" font-family="Helvetica,sans-Serif" font-size="10.00"> </text>
<polygon fill="#666666" stroke="#666666" points="371.81,-31.5 371.81,-31.5 469.81,-31.5 469.81,-31.5 371.81,-31.5"/>
<polygon fill="#666666" stroke="#666666" points="371.81,-16.5 371.81,-16.5 469.81,-16.5 469.81,-16.5 371.81,-16.5"/>
<polygon fill="none" stroke="#666666" points="371.81,0 371.81,-49 469.81,-49 469.81,0 371.81,0"/>
</a>
</g>
</g>
<!-- Node2 -->
<g id="Node000002" class="node">
<title>Node2</title>
<g id="a_Node000002"><a xlink:href="classGfx_1_1EnumArray.html" target="_top" xlink:title=" ">
<polygon fill="white" stroke="transparent" points="577.81,-201 443.81,-201 443.81,-96 577.81,-96 577.81,-201"/>
<text text-anchor="start" x="448.81" y="-188.5" font-family="Helvetica,sans-Serif" font-size="10.00">Gfx::EnumArray&lt; GLuint,</text>
<text text-anchor="start" x="478.31" y="-177.5" font-family="Helvetica,sans-Serif" font-size="10.00"> ProgramId &gt;</text>
<text text-anchor="start" x="508.81" y="-162.5" font-family="Helvetica,sans-Serif" font-size="10.00"> </text>
<text text-anchor="start" x="461.81" y="-147.5" font-family="Helvetica,sans-Serif" font-size="10.00">+</text>
<text text-anchor="start" x="488.81" y="-147.5" font-family="Helvetica,sans-Serif" font-size="10.00">operator[]()</text>
<text text-anchor="start" x="461.81" y="-132.5" font-family="Helvetica,sans-Serif" font-size="10.00">+</text>
<text text-anchor="start" x="488.81" y="-132.5" font-family="Helvetica,sans-Serif" font-size="10.00">operator[]()</text>
<text text-anchor="start" x="461.81" y="-117.5" font-family="Helvetica,sans-Serif" font-size="10.00">+</text>
<text text-anchor="start" x="488.81" y="-117.5" font-family="Helvetica,sans-Serif" font-size="10.00">begin()</text>
<text text-anchor="start" x="461.81" y="-102.5" font-family="Helvetica,sans-Serif" font-size="10.00">+</text>
<text text-anchor="start" x="488.81" y="-102.5" font-family="Helvetica,sans-Serif" font-size="10.00">end()</text>
<polygon fill="#666666" stroke="#666666" points="443.81,-172.5 443.81,-172.5 577.81,-172.5 577.81,-172.5 443.81,-172.5"/>
<polygon fill="#666666" stroke="#666666" points="443.81,-157.5 443.81,-157.5 577.81,-157.5 577.81,-157.5 443.81,-157.5"/>
<polygon fill="none" stroke="#666666" points="443.81,-96 443.81,-201 577.81,-201 577.81,-96 443.81,-96"/>
</a>
</g>
</g>
<!-- Node2&#45;&gt;Node1 -->
<g id="edge1_Node000001_Node000002" class="edge">
<title>Node2&#45;&gt;Node1</title>
<g id="a_edge1_Node000001_Node000002"><a xlink:title=" ">
<path fill="none" stroke="#63b8ff" d="M492.33,-95.93C487.47,-85.81 481.64,-75.65 474.81,-67 472.17,-63.65 469.19,-60.42 466.04,-57.34"/>
<polygon fill="none" stroke="#63b8ff" points="465.75,-57.08 458.61,-56.08 456.79,-49.1 463.93,-50.1 465.75,-57.08"/>
</a>
</g>
<text text-anchor="middle" x="510.81" y="-70" font-family="Helvetica,sans-Serif" font-size="10.00" fill="grey"> +programs</text>
</g>
<!-- Node3 -->
<g id="Node000003" class="node">
<title>Node3</title>
<g id="a_Node000003"><a xlink:href="classRml_1_1Array_3_01GLuint_00_07size__t_08_01Enum_1_1Count_01_4.html" target="_top" xlink:title=" ">
<polygon fill="white" stroke="transparent" points="539.81,-330.5 433.81,-330.5 433.81,-270.5 539.81,-270.5 539.81,-330.5"/>
<text text-anchor="start" x="438.81" y="-318.5" font-family="Helvetica,sans-Serif" font-size="10.00">Array&lt; GLuint,(size</text>
<text text-anchor="start" x="441.81" y="-307.5" font-family="Helvetica,sans-Serif" font-size="10.00">_t) Enum::Count &gt;</text>
<text text-anchor="start" x="484.81" y="-292.5" font-family="Helvetica,sans-Serif" font-size="10.00"> </text>
<text text-anchor="start" x="484.81" y="-277.5" font-family="Helvetica,sans-Serif" font-size="10.00"> </text>
<polygon fill="#666666" stroke="#666666" points="433.81,-302.5 433.81,-302.5 539.81,-302.5 539.81,-302.5 433.81,-302.5"/>
<polygon fill="#666666" stroke="#666666" points="433.81,-287.5 433.81,-287.5 539.81,-287.5 539.81,-287.5 433.81,-287.5"/>
<polygon fill="none" stroke="#666666" points="433.81,-270.5 433.81,-330.5 539.81,-330.5 539.81,-270.5 433.81,-270.5"/>
</a>
</g>
</g>
<!-- Node3&#45;&gt;Node2 -->
<g id="edge2_Node000002_Node000003" class="edge">
<title>Node3&#45;&gt;Node2</title>
<g id="a_edge2_Node000002_Node000003"><a xlink:title=" ">
<path fill="none" stroke="#63b8ff" d="M498.71,-270.25C503.09,-258.02 507.54,-243.54 509.81,-230 510.7,-224.66 511.35,-219.09 511.8,-213.49"/>
<polygon fill="none" stroke="#63b8ff" points="511.82,-213.22 508.17,-207 512.51,-201.24 516.16,-207.46 511.82,-213.22"/>
</a>
</g>
<text text-anchor="middle" x="522.81" y="-222" font-family="Helvetica,sans-Serif" font-size="10.00" fill="grey"> &#45;ids</text>
</g>
<!-- Node6 -->
<g id="Node000006" class="node">
<title>Node6</title>
<g id="a_Node000006"><a xlink:href="classGfx_1_1EnumArray.html" target="_top" xlink:title=" ">
<polygon fill="white" stroke="transparent" points="425.81,-201 291.81,-201 291.81,-96 425.81,-96 425.81,-201"/>
<text text-anchor="start" x="296.81" y="-188.5" font-family="Helvetica,sans-Serif" font-size="10.00">Gfx::EnumArray&lt; GLuint,</text>
<text text-anchor="start" x="320.31" y="-177.5" font-family="Helvetica,sans-Serif" font-size="10.00"> VertShaderId &gt;</text>
<text text-anchor="start" x="356.81" y="-162.5" font-family="Helvetica,sans-Serif" font-size="10.00"> </text>
<text text-anchor="start" x="309.81" y="-147.5" font-family="Helvetica,sans-Serif" font-size="10.00">+</text>
<text text-anchor="start" x="336.81" y="-147.5" font-family="Helvetica,sans-Serif" font-size="10.00">operator[]()</text>
<text text-anchor="start" x="309.81" y="-132.5" font-family="Helvetica,sans-Serif" font-size="10.00">+</text>
<text text-anchor="start" x="336.81" y="-132.5" font-family="Helvetica,sans-Serif" font-size="10.00">operator[]()</text>
<text text-anchor="start" x="309.81" y="-117.5" font-family="Helvetica,sans-Serif" font-size="10.00">+</text>
<text text-anchor="start" x="336.81" y="-117.5" font-family="Helvetica,sans-Serif" font-size="10.00">begin()</text>
<text text-anchor="start" x="309.81" y="-102.5" font-family="Helvetica,sans-Serif" font-size="10.00">+</text>
<text text-anchor="start" x="336.81" y="-102.5" font-family="Helvetica,sans-Serif" font-size="10.00">end()</text>
<polygon fill="#666666" stroke="#666666" points="291.81,-172.5 291.81,-172.5 425.81,-172.5 425.81,-172.5 291.81,-172.5"/>
<polygon fill="#666666" stroke="#666666" points="291.81,-157.5 291.81,-157.5 425.81,-157.5 425.81,-157.5 291.81,-157.5"/>
<polygon fill="none" stroke="#666666" points="291.81,-96 291.81,-201 425.81,-201 425.81,-96 291.81,-96"/>
</a>
</g>
</g>
<!-- Node3&#45;&gt;Node6 -->
<g id="edge5_Node000006_Node000003" class="edge">
<title>Node3&#45;&gt;Node6</title>
<g id="a_edge5_Node000006_Node000003"><a xlink:title=" ">
<path fill="none" stroke="#63b8ff" d="M484.21,-270.33C481.51,-253.9 476.01,-233.78 464.81,-219 457.1,-208.83 450.67,-208.86 436.41,-201.38"/>
<polygon fill="none" stroke="#63b8ff" points="436.18,-201.24 428.98,-201.68 425.81,-195.2 433.01,-194.77 436.18,-201.24"/>
</a>
</g>
<text text-anchor="middle" x="482.81" y="-222" font-family="Helvetica,sans-Serif" font-size="10.00" fill="grey"> &#45;ids</text>
</g>
<!-- Node7 -->
<g id="Node000007" class="node">
<title>Node7</title>
<g id="a_Node000007"><a xlink:href="classGfx_1_1EnumArray.html" target="_top" xlink:title=" ">
<polygon fill="white" stroke="transparent" points="273.81,-201 139.81,-201 139.81,-96 273.81,-96 273.81,-201"/>
<text text-anchor="start" x="144.81" y="-188.5" font-family="Helvetica,sans-Serif" font-size="10.00">Gfx::EnumArray&lt; GLuint,</text>
<text text-anchor="start" x="167.31" y="-177.5" font-family="Helvetica,sans-Serif" font-size="10.00"> FragShaderId &gt;</text>
<text text-anchor="start" x="204.81" y="-162.5" font-family="Helvetica,sans-Serif" font-size="10.00"> </text>
<text text-anchor="start" x="157.81" y="-147.5" font-family="Helvetica,sans-Serif" font-size="10.00">+</text>
<text text-anchor="start" x="184.81" y="-147.5" font-family="Helvetica,sans-Serif" font-size="10.00">operator[]()</text>
<text text-anchor="start" x="157.81" y="-132.5" font-family="Helvetica,sans-Serif" font-size="10.00">+</text>
<text text-anchor="start" x="184.81" y="-132.5" font-family="Helvetica,sans-Serif" font-size="10.00">operator[]()</text>
<text text-anchor="start" x="157.81" y="-117.5" font-family="Helvetica,sans-Serif" font-size="10.00">+</text>
<text text-anchor="start" x="184.81" y="-117.5" font-family="Helvetica,sans-Serif" font-size="10.00">begin()</text>
<text text-anchor="start" x="157.81" y="-102.5" font-family="Helvetica,sans-Serif" font-size="10.00">+</text>
<text text-anchor="start" x="184.81" y="-102.5" font-family="Helvetica,sans-Serif" font-size="10.00">end()</text>
<polygon fill="#666666" stroke="#666666" points="139.81,-172.5 139.81,-172.5 273.81,-172.5 273.81,-172.5 139.81,-172.5"/>
<polygon fill="#666666" stroke="#666666" points="139.81,-157.5 139.81,-157.5 273.81,-157.5 273.81,-157.5 139.81,-157.5"/>
<polygon fill="none" stroke="#666666" points="139.81,-96 139.81,-201 273.81,-201 273.81,-96 139.81,-96"/>
</a>
</g>
</g>
<!-- Node3&#45;&gt;Node7 -->
<g id="edge8_Node000007_Node000003" class="edge">
<title>Node3&#45;&gt;Node7</title>
<g id="a_edge8_Node000007_Node000003"><a xlink:title=" ">
<path fill="none" stroke="#63b8ff" d="M433.72,-284.03C396.54,-272.05 346.45,-253.52 305.81,-230 294.98,-223.74 284.12,-216.32 273.76,-208.56"/>
<polygon fill="none" stroke="#63b8ff" points="273.51,-208.37 266.31,-207.88 264,-201.05 271.19,-201.54 273.51,-208.37"/>
</a>
</g>
<text text-anchor="middle" x="316.81" y="-222" font-family="Helvetica,sans-Serif" font-size="10.00" fill="grey"> &#45;ids</text>
</g>
<!-- Node4 -->
<g id="Node000004" class="node">
<title>Node4</title>
<g id="a_Node000004"><a xlink:href="classGfx_1_1EnumArray.html" target="_top" xlink:title=" ">
<polygon fill="#fff0f0" stroke="transparent" points="209.81,-353 101.81,-353 101.81,-248 209.81,-248 209.81,-353"/>
<text text-anchor="start" x="106.81" y="-340.5" font-family="Helvetica,sans-Serif" font-size="10.00">Gfx::EnumArray&lt; T,</text>
<text text-anchor="start" x="134.31" y="-329.5" font-family="Helvetica,sans-Serif" font-size="10.00"> Enum &gt;</text>
<text text-anchor="start" x="153.81" y="-314.5" font-family="Helvetica,sans-Serif" font-size="10.00"> </text>
<text text-anchor="start" x="113.31" y="-299.5" font-family="Helvetica,sans-Serif" font-size="10.00">+</text>
<text text-anchor="start" x="133.81" y="-299.5" font-family="Helvetica,sans-Serif" font-size="10.00">operator[]()</text>
<text text-anchor="start" x="113.31" y="-284.5" font-family="Helvetica,sans-Serif" font-size="10.00">+</text>
<text text-anchor="start" x="133.81" y="-284.5" font-family="Helvetica,sans-Serif" font-size="10.00">operator[]()</text>
<text text-anchor="start" x="113.31" y="-269.5" font-family="Helvetica,sans-Serif" font-size="10.00">+</text>
<text text-anchor="start" x="133.81" y="-269.5" font-family="Helvetica,sans-Serif" font-size="10.00">begin()</text>
<text text-anchor="start" x="113.31" y="-254.5" font-family="Helvetica,sans-Serif" font-size="10.00">+</text>
<text text-anchor="start" x="133.81" y="-254.5" font-family="Helvetica,sans-Serif" font-size="10.00">end()</text>
<polygon fill="red" stroke="red" points="101.81,-324.5 101.81,-324.5 209.81,-324.5 209.81,-324.5 101.81,-324.5"/>
<polygon fill="red" stroke="red" points="101.81,-309.5 101.81,-309.5 209.81,-309.5 209.81,-309.5 101.81,-309.5"/>
<polygon fill="none" stroke="red" points="101.81,-248 101.81,-353 209.81,-353 209.81,-248 101.81,-248"/>
</a>
</g>
</g>
<!-- Node4&#45;&gt;Node2 -->
<g id="edge3_Node000002_Node000004" class="edge">
<title>Node4&#45;&gt;Node2</title>
<g id="a_edge3_Node000002_Node000004"><a xlink:title=" ">
<path fill="none" stroke="orange" d="M219.6,-276.19C252.42,-263.58 292.78,-247.11 327.81,-230 336.58,-225.72 337.69,-222.47 346.81,-219 384.12,-204.81 398.02,-216.5 434.81,-201 437.75,-199.76 440.69,-198.4 443.62,-196.95"/>
<polygon fill="orange" stroke="orange" points="218.21,-272.97 210.12,-279.81 220.71,-279.51 218.21,-272.97"/>
</a>
</g>
<text text-anchor="middle" x="403.81" y="-222" font-family="Helvetica,sans-Serif" font-size="10.00" fill="grey"> &lt; GLuint, ProgramId &gt;</text>
</g>
<!-- Node4&#45;&gt;Node6 -->
<g id="edge6_Node000006_Node000004" class="edge">
<title>Node4&#45;&gt;Node6</title>
<g id="a_edge6_Node000006_Node000004"><a xlink:title=" ">
<path fill="none" stroke="orange" d="M147.65,-237.64C149.23,-230.79 152.1,-224.36 156.81,-219 175.47,-197.75 256.43,-211.19 282.81,-201 285.78,-199.85 288.76,-198.57 291.71,-197.18"/>
<polygon fill="orange" stroke="orange" points="144.13,-237.52 146.2,-247.91 151.07,-238.5 144.13,-237.52"/>
</a>
</g>
<text text-anchor="middle" x="219.81" y="-222" font-family="Helvetica,sans-Serif" font-size="10.00" fill="grey"> &lt; GLuint, VertShaderId &gt;</text>
</g>
<!-- Node4&#45;&gt;Node7 -->
<g id="edge9_Node000007_Node000004" class="edge">
<title>Node4&#45;&gt;Node7</title>
<g id="a_edge9_Node000007_Node000004"><a xlink:title=" ">
<path fill="none" stroke="orange" d="M91.74,-289.04C40.23,-277.69 -19.52,-256.03 6.81,-219 36.74,-176.91 94.06,-160.09 139.69,-153.47"/>
<polygon fill="orange" stroke="orange" points="91.06,-292.47 101.57,-291.11 92.5,-285.62 91.06,-292.47"/>
</a>
</g>
<text text-anchor="middle" x="70.31" y="-222" font-family="Helvetica,sans-Serif" font-size="10.00" fill="grey"> &lt; GLuint, FragShaderId &gt;</text>
</g>
<!-- Node6&#45;&gt;Node1 -->
<g id="edge4_Node000001_Node000006" class="edge">
<title>Node6&#45;&gt;Node1</title>
<g id="a_edge4_Node000001_Node000006"><a xlink:title=" ">
<path fill="none" stroke="#63b8ff" d="M385.1,-95.76C391.23,-83.71 397.6,-71.17 403.24,-60.07"/>
<polygon fill="none" stroke="#63b8ff" points="403.37,-59.81 402.53,-52.65 408.81,-49.11 409.66,-56.27 403.37,-59.81"/>
</a>
</g>
<text text-anchor="middle" x="437.31" y="-70" font-family="Helvetica,sans-Serif" font-size="10.00" fill="grey"> +vert_shaders</text>
</g>
<!-- Node7&#45;&gt;Node1 -->
<g id="edge7_Node000001_Node000007" class="edge">
<title>Node7&#45;&gt;Node1</title>
<g id="a_edge7_Node000001_Node000007"><a xlink:title=" ">
<path fill="none" stroke="#63b8ff" d="M271.61,-95.94C286.05,-85.65 301.59,-75.43 316.81,-67 330.43,-59.46 345.71,-52.57 360.27,-46.67"/>
<polygon fill="none" stroke="#63b8ff" points="360.59,-46.55 364.71,-40.63 371.75,-42.16 367.63,-48.08 360.59,-46.55"/>
</a>
</g>
<text text-anchor="middle" x="354.31" y="-70" font-family="Helvetica,sans-Serif" font-size="10.00" fill="grey"> +frag_shaders</text>
</g>
<!-- Node8 -->
<g id="Node000008" class="node">
<title>Node8</title>
<g id="a_Node000008"><a xlink:href="classGfx_1_1Uniforms.html" target="_top" xlink:title=" ">
<polygon fill="white" stroke="transparent" points="675.31,-188 596.31,-188 596.31,-109 675.31,-109 675.31,-188"/>
<text text-anchor="start" x="601.81" y="-175.5" font-family="Helvetica,sans-Serif" font-size="10.00">Gfx::Uniforms</text>
<text text-anchor="start" x="634.31" y="-160.5" font-family="Helvetica,sans-Serif" font-size="10.00"> </text>
<text text-anchor="start" x="605.81" y="-145.5" font-family="Helvetica,sans-Serif" font-size="10.00">+</text>
<text text-anchor="start" x="623.81" y="-145.5" font-family="Helvetica,sans-Serif" font-size="10.00">Get()</text>
<text text-anchor="start" x="605.81" y="-130.5" font-family="Helvetica,sans-Serif" font-size="10.00">+</text>
<text text-anchor="start" x="623.81" y="-130.5" font-family="Helvetica,sans-Serif" font-size="10.00">Insert()</text>
<text text-anchor="start" x="608.31" y="-115.5" font-family="Helvetica,sans-Serif" font-size="10.00">&#45;</text>
<text text-anchor="start" x="623.81" y="-115.5" font-family="Helvetica,sans-Serif" font-size="10.00">ToKey()</text>
<polygon fill="#666666" stroke="#666666" points="596.81,-170.5 596.81,-170.5 675.81,-170.5 675.81,-170.5 596.81,-170.5"/>
<polygon fill="#666666" stroke="#666666" points="596.81,-155.5 596.81,-155.5 675.81,-155.5 675.81,-155.5 596.81,-155.5"/>
<polygon fill="none" stroke="#666666" points="596.31,-109 596.31,-188 675.31,-188 675.31,-109 596.31,-109"/>
</a>
</g>
</g>
<!-- Node8&#45;&gt;Node1 -->
<g id="edge10_Node000001_Node000008" class="edge">
<title>Node8&#45;&gt;Node1</title>
<g id="a_edge10_Node000001_Node000008"><a xlink:title=" ">
<path fill="none" stroke="#63b8ff" d="M600.84,-108.87C596.26,-104.38 591.52,-99.98 586.81,-96 569.21,-81.12 564.47,-77.22 543.81,-67 524.22,-57.31 501.82,-49.01 481.56,-42.43"/>
<polygon fill="none" stroke="#63b8ff" points="481.35,-42.37 474.43,-44.38 469.91,-38.76 476.83,-36.75 481.35,-42.37"/>
</a>
</g>
<text text-anchor="middle" x="591.31" y="-70" font-family="Helvetica,sans-Serif" font-size="10.00" fill="grey"> +uniforms</text>
</g>
<!-- Node9 -->
<g id="Node000009" class="node">
<title>Node9</title>
<g id="a_Node000009"><a xlink:title=" ">
<polygon fill="white" stroke="transparent" points="693.31,-330.5 578.31,-330.5 578.31,-270.5 693.31,-270.5 693.31,-330.5"/>
<text text-anchor="start" x="583.81" y="-318.5" font-family="Helvetica,sans-Serif" font-size="10.00">UnorderedMap&lt; Key,</text>
<text text-anchor="start" x="616.31" y="-307.5" font-family="Helvetica,sans-Serif" font-size="10.00"> GLint &gt;</text>
<text text-anchor="start" x="634.31" y="-292.5" font-family="Helvetica,sans-Serif" font-size="10.00"> </text>
<text text-anchor="start" x="634.31" y="-277.5" font-family="Helvetica,sans-Serif" font-size="10.00"> </text>
<polygon fill="#666666" stroke="#666666" points="578.81,-302.5 578.81,-302.5 693.81,-302.5 693.81,-302.5 578.81,-302.5"/>
<polygon fill="#666666" stroke="#666666" points="578.81,-287.5 578.81,-287.5 693.81,-287.5 693.81,-287.5 578.81,-287.5"/>
<polygon fill="none" stroke="#666666" points="578.31,-270.5 578.31,-330.5 693.31,-330.5 693.31,-270.5 578.31,-270.5"/>
</a>
</g>
</g>
<!-- Node9&#45;&gt;Node8 -->
<g id="edge11_Node000008_Node000009" class="edge">
<title>Node9&#45;&gt;Node8</title>
<g id="a_edge11_Node000008_Node000009"><a xlink:title=" ">
<path fill="none" stroke="#63b8ff" d="M635.81,-270.22C635.81,-250.35 635.81,-223.55 635.81,-200.25"/>
<polygon fill="none" stroke="#63b8ff" points="635.81,-200.08 631.81,-194.08 635.81,-188.08 639.81,-194.08 635.81,-200.08"/>
</a>
</g>
<text text-anchor="middle" x="650.31" y="-222" font-family="Helvetica,sans-Serif" font-size="10.00" fill="grey"> &#45;map</text>
</g>
</g>
</svg>

<g id="navigator" transform="translate(0 0)" fill="#404254">
  <rect fill="#f2f5e9" fill-opacity="0.5" stroke="#606060" stroke-width=".5" x="0" y="0" width="60" height="60"/>
  <use id="zoomplus" xlink:href="#zoomPlus" x="17" y="9" onmousedown="handleZoom(evt,'in')"/>
  <use id="zoomminus" xlink:href="#zoomMin" x="42" y="9" onmousedown="handleZoom(evt,'out')"/>
  <use id="reset" xlink:href="#resetDef" x="30" y="36" onmousedown="handleReset()"/>
   <use id="arrowup" xlink:href="#arrowUp" x="0" y="0" onmousedown="handlePan(0,-1)"/>
  <use id="arrowright" xlink:href="#arrowRight" x="0" y="0" onmousedown="handlePan(1,0)"/>
  <use id="arrowdown" xlink:href="#arrowDown" x="0" y="0" onmousedown="handlePan(0,1)"/>
  <use id="arrowleft" xlink:href="#arrowLeft" x="0" y="0" onmousedown="handlePan(-1,0)"/>
</g>
<svg viewBox="0 0 15 15" width="100%" height="30px" preserveAspectRatio="xMaxYMin meet">
 <g id="arrow_out" transform="scale(0.3 0.3)">
  <a xlink:href="structGfx_1_1ProgramData__coll__graph_org.svg" target="_base">
   <rect id="button" ry="5" rx="5" y="6" x="6" height="38" width="38"
        fill="#f2f5e9" fill-opacity="0.5" stroke="#606060" stroke-width="1.0"/>
   <path id="arrow"
     d="M 11.500037,31.436501 C 11.940474,20.09759 22.043105,11.32322 32.158766,21.979434 L 37.068811,17.246167 C 37.068811,17.246167 37.088388,32 37.088388,32 L 22.160133,31.978069 C 22.160133,31.978069 26.997745,27.140456 26.997745,27.140456 C 18.528582,18.264221 13.291696,25.230495 11.500037,31.436501 z"
     style="fill:#404040;"/>
  </a>
 </g>
</svg>

<style type='text/css'>
<![CDATA[
[data-mouse-over-selected='false'] { opacity: 0.7; }
[data-mouse-over-selected='true']  { opacity: 1.0; }
]]>
</style>
<script type="application/ecmascript"><![CDATA[
document.addEventListener('DOMContentLoaded', (event) => {
  highlightEdges();
  highlightAdjacentNodes();
});
]]></script>
</svg>
