<?xml version="1.0" encoding="UTF-8" standalone="no"?>
<!DOCTYPE svg PUBLIC "-//W3C//DTD SVG 1.1//EN"
 "http://www.w3.org/Graphics/SVG/1.1/DTD/svg11.dtd">
<!-- Generated by graphviz version 2.43.0 (0)
 -->
<!-- Title: magic_enum::customize::enum_range&lt; Rml::Input::KeyIdentifier &gt; Pages: 1 -->
<svg width="147pt" height="186pt"
 viewBox="0.00 0.00 147.00 186.00" xmlns="http://www.w3.org/2000/svg" xmlns:xlink="http://www.w3.org/1999/xlink">
<g id="graph0" class="graph" transform="scale(1 1) rotate(0) translate(4 182)">
<title>magic_enum::customize::enum_range&lt; Rml::Input::KeyIdentifier &gt;</title>
<!-- Node1 -->
<g id="Node000001" class="node">
<title>Node1</title>
<g id="a_Node000001"><a xlink:title=" ">
<polygon fill="#999999" stroke="transparent" points="139,-71 0,-71 0,0 139,0 139,-71"/>
<text text-anchor="start" x="5.5" y="-58.5" font-family="Helvetica,sans-Serif" font-size="10.00">magic_enum::customize</text>
<text text-anchor="start" x="5.5" y="-47.5" font-family="Helvetica,sans-Serif" font-size="10.00">::enum_range&lt; Rml::Input</text>
<text text-anchor="start" x="30.5" y="-36.5" font-family="Helvetica,sans-Serif" font-size="10.00">::KeyIdentifier &gt;</text>
<text text-anchor="start" x="68" y="-21.5" font-family="Helvetica,sans-Serif" font-size="10.00"> </text>
<text text-anchor="start" x="68" y="-6.5" font-family="Helvetica,sans-Serif" font-size="10.00"> </text>
<polygon fill="#666666" stroke="#666666" points="0.5,-31.5 0.5,-31.5 139.5,-31.5 139.5,-31.5 0.5,-31.5"/>
<polygon fill="#666666" stroke="#666666" points="0.5,-16.5 0.5,-16.5 139.5,-16.5 139.5,-16.5 0.5,-16.5"/>
<polygon fill="none" stroke="#666666" points="0,0 0,-71 139,-71 139,0 0,0"/>
</a>
</g>
</g>
<!-- Node2 -->
<g id="Node000002" class="node">
<title>Node2</title>
<g id="a_Node000002"><a xlink:title=" ">
<polygon fill="white" stroke="transparent" points="81,-178 58,-178 58,-129 81,-129 81,-178"/>
<text text-anchor="start" x="63.5" y="-165.5" font-family="Helvetica,sans-Serif" font-size="10.00">int</text>
<text text-anchor="start" x="68" y="-150.5" font-family="Helvetica,sans-Serif" font-size="10.00"> </text>
<text text-anchor="start" x="68" y="-135.5" font-family="Helvetica,sans-Serif" font-size="10.00"> </text>
<polygon fill="#666666" stroke="#666666" points="58.5,-160.5 58.5,-160.5 81.5,-160.5 81.5,-160.5 58.5,-160.5"/>
<polygon fill="#666666" stroke="#666666" points="58.5,-145.5 58.5,-145.5 81.5,-145.5 81.5,-145.5 58.5,-145.5"/>
<polygon fill="none" stroke="#666666" points="58,-129 58,-178 81,-178 81,-129 58,-129"/>
</a>
</g>
</g>
<!-- Node2&#45;&gt;Node1 -->
<g id="edge1_Node000001_Node000002" class="edge">
<title>Node2&#45;&gt;Node1</title>
<g id="a_edge1_Node000001_Node000002"><a xlink:title=" ">
<path fill="none" stroke="#63b8ff" d="M69.5,-128.75C69.5,-115.67 69.5,-98.98 69.5,-83.39"/>
<polygon fill="none" stroke="#63b8ff" points="69.5,-83.23 65.5,-77.23 69.5,-71.23 73.5,-77.23 69.5,-83.23"/>
</a>
</g>
<text text-anchor="middle" x="86.5" y="-103" font-family="Helvetica,sans-Serif" font-size="10.00" fill="grey"> +max</text>
<text text-anchor="middle" x="86.5" y="-92" font-family="Helvetica,sans-Serif" font-size="10.00" fill="grey">+min</text>
</g>
</g>
</svg>
