<?xml version="1.0" encoding="UTF-8" standalone="no"?>
<!DOCTYPE svg PUBLIC "-//W3C//DTD SVG 1.1//EN"
 "http://www.w3.org/Graphics/SVG/1.1/DTD/svg11.dtd">
<!-- Generated by graphviz version 2.43.0 (0)
 -->
<!-- Title: CompiledShader Pages: 1 -->
<!--zoomable 175 -->

<svg id="main" version="1.1" xmlns="http://www.w3.org/2000/svg" xmlns:xlink="http://www.w3.org/1999/xlink" xml:space="preserve" onload="init(evt)">
<style type="text/css"><![CDATA[
.node, .edge {opacity: 0.7;}
.node.selected, .edge.selected {opacity: 1;}
.edge:hover path { stroke: red; }
.edge:hover polygon { stroke: red; fill: red; }
]]></style>

<defs>
  <circle id="rim" cx="0" cy="0" r="7"/>
  <circle id="rim2" cx="0" cy="0" r="3.5"/>
  <g id="zoomPlus">
    <use xlink:href="#rim" fill="#404040"><set attributeName="fill" to="#808080" begin="zoomplus.mouseover" end="zoomplus.mouseout"/></use>
    <path d="M-4,0h8M0,-4v8" fill="none" stroke="white" stroke-width="1.5" pointer-events="none"/>
  </g>
  <g id="zoomMin">
    <use xlink:href="#rim" fill="#404040"><set attributeName="fill" to="#808080" begin="zoomminus.mouseover" end="zoomminus.mouseout"/></use>
    <path d="M-4,0h8" fill="none" stroke="white" stroke-width="1.5" pointer-events="none"/>
  </g>
  <g id="arrowUp" transform="translate(30 24)">
    <use xlink:href="#rim"/>
    <path pointer-events="none" fill="none" stroke="white" stroke-width="1.5" d="M0,-3.0v7 M-2.5,-0.5L0,-3.0L2.5,-0.5"/>
  </g>
  <g id="arrowRight" transform="rotate(90) translate(36 -43)">
    <use xlink:href="#rim"/>
    <path pointer-events="none" fill="none" stroke="white" stroke-width="1.5" d="M0,-3.0v7 M-2.5,-0.5L0,-3.0L2.5,-0.5"/>
  </g>
  <g id="arrowDown" transform="rotate(180) translate(-30 -48)">
    <use xlink:href="#rim"/>
    <path pointer-events="none" fill="none" stroke="white" stroke-width="1.5" d="M0,-3.0v7 M-2.5,-0.5L0,-3.0L2.5,-0.5"/>
  </g>
  <g id="arrowLeft" transform="rotate(270) translate(-36 17)">
    <use xlink:href="#rim"/>
    <path pointer-events="none" fill="none" stroke="white" stroke-width="1.5" d="M0,-3.0v7 M-2.5,-0.5L0,-3.0L2.5,-0.5"/>
  </g>
  <g id="resetDef">
    <use xlink:href="#rim2" fill="#404040"><set attributeName="fill" to="#808080" begin="reset.mouseover" end="reset.mouseout"/></use>
  </g>
</defs>
<script type="application/ecmascript">
var viewWidth = 601;
var viewHeight = 175;
var sectionId = 'dynsection-0';
</script>
<script type="application/ecmascript" xlink:href="svg.min.js"/>
<svg id="graph" class="graph">
<g id="viewport">
<title>CompiledShader</title>
<!-- Node1 -->
<g id="Node000001" class="node">
<title>Node1</title>
<g id="a_Node000001"><a xlink:title=" ">
<polygon fill="#999999" stroke="transparent" points="361,-49 270,-49 270,0 361,0 361,-49"/>
<text text-anchor="start" x="275.5" y="-36.5" font-family="Helvetica,sans-Serif" font-size="10.00">CompiledShader</text>
<text text-anchor="start" x="314" y="-21.5" font-family="Helvetica,sans-Serif" font-size="10.00"> </text>
<text text-anchor="start" x="314" y="-6.5" font-family="Helvetica,sans-Serif" font-size="10.00"> </text>
<polygon fill="#666666" stroke="#666666" points="270.5,-31.5 270.5,-31.5 361.5,-31.5 361.5,-31.5 270.5,-31.5"/>
<polygon fill="#666666" stroke="#666666" points="270.5,-16.5 270.5,-16.5 361.5,-16.5 361.5,-16.5 270.5,-16.5"/>
<polygon fill="none" stroke="#666666" points="270,0 270,-49 361,-49 361,0 270,0"/>
</a>
</g>
</g>
<!-- Node2 -->
<g id="Node000002" class="node">
<title>Node2</title>
<g id="a_Node000002"><a xlink:title=" ">
<polygon fill="white" stroke="transparent" points="113,-167 0,-167 0,-118 113,-118 113,-167"/>
<text text-anchor="start" x="5.5" y="-154.5" font-family="Helvetica,sans-Serif" font-size="10.00">CompiledShaderType</text>
<text text-anchor="start" x="55" y="-139.5" font-family="Helvetica,sans-Serif" font-size="10.00"> </text>
<text text-anchor="start" x="55" y="-124.5" font-family="Helvetica,sans-Serif" font-size="10.00"> </text>
<polygon fill="#666666" stroke="#666666" points="0.5,-149.5 0.5,-149.5 113.5,-149.5 113.5,-149.5 0.5,-149.5"/>
<polygon fill="#666666" stroke="#666666" points="0.5,-134.5 0.5,-134.5 113.5,-134.5 113.5,-134.5 0.5,-134.5"/>
<polygon fill="none" stroke="#666666" points="0,-118 0,-167 113,-167 113,-118 0,-118"/>
</a>
</g>
</g>
<!-- Node2&#45;&gt;Node1 -->
<g id="edge1_Node000001_Node000002" class="edge">
<title>Node2&#45;&gt;Node1</title>
<g id="a_edge1_Node000001_Node000002"><a xlink:title=" ">
<path fill="none" stroke="#63b8ff" d="M83.89,-117.66C103.92,-101.32 132.39,-80.29 160.5,-67 191.27,-52.45 227.97,-42.34 257.93,-35.74"/>
<polygon fill="none" stroke="#63b8ff" points="258.16,-35.69 263.2,-30.54 269.9,-33.21 264.86,-38.37 258.16,-35.69"/>
</a>
</g>
<text text-anchor="middle" x="177.5" y="-81" font-family="Helvetica,sans-Serif" font-size="10.00" fill="grey"> +type</text>
</g>
<!-- Node3 -->
<g id="Node000003" class="node">
<title>Node3</title>
<g id="a_Node000003"><a xlink:title=" ">
<polygon fill="white" stroke="transparent" points="259.5,-167 131.5,-167 131.5,-118 259.5,-118 259.5,-167"/>
<text text-anchor="start" x="136.5" y="-154.5" font-family="Helvetica,sans-Serif" font-size="10.00">ShaderGradientFunction</text>
<text text-anchor="start" x="193.5" y="-139.5" font-family="Helvetica,sans-Serif" font-size="10.00"> </text>
<text text-anchor="start" x="193.5" y="-124.5" font-family="Helvetica,sans-Serif" font-size="10.00"> </text>
<polygon fill="#666666" stroke="#666666" points="131.5,-149.5 131.5,-149.5 259.5,-149.5 259.5,-149.5 131.5,-149.5"/>
<polygon fill="#666666" stroke="#666666" points="131.5,-134.5 131.5,-134.5 259.5,-134.5 259.5,-134.5 131.5,-134.5"/>
<polygon fill="none" stroke="#666666" points="131.5,-118 131.5,-167 259.5,-167 259.5,-118 131.5,-118"/>
</a>
</g>
</g>
<!-- Node3&#45;&gt;Node1 -->
<g id="edge2_Node000001_Node000003" class="edge">
<title>Node3&#45;&gt;Node1</title>
<g id="a_edge2_Node000001_Node000003"><a xlink:title=" ">
<path fill="none" stroke="#63b8ff" d="M196.15,-117.82C197.78,-101.77 202.33,-81.01 214.5,-67 225.91,-53.87 242.11,-44.82 258.2,-38.62"/>
<polygon fill="none" stroke="#63b8ff" points="258.49,-38.52 262.85,-32.77 269.83,-34.58 265.47,-40.33 258.49,-38.52"/>
</a>
</g>
<text text-anchor="middle" x="263" y="-81" font-family="Helvetica,sans-Serif" font-size="10.00" fill="grey"> +gradient_function</text>
</g>
<!-- Node4 -->
<g id="Node000004" class="node">
<title>Node4</title>
<g id="a_Node000004"><a xlink:title=" ">
<polygon fill="white" stroke="transparent" points="341,-167 290,-167 290,-118 341,-118 341,-167"/>
<text text-anchor="start" x="295.5" y="-154.5" font-family="Helvetica,sans-Serif" font-size="10.00">Vector2f</text>
<text text-anchor="start" x="314" y="-139.5" font-family="Helvetica,sans-Serif" font-size="10.00"> </text>
<text text-anchor="start" x="314" y="-124.5" font-family="Helvetica,sans-Serif" font-size="10.00"> </text>
<polygon fill="#666666" stroke="#666666" points="290.5,-149.5 290.5,-149.5 341.5,-149.5 341.5,-149.5 290.5,-149.5"/>
<polygon fill="#666666" stroke="#666666" points="290.5,-134.5 290.5,-134.5 341.5,-134.5 341.5,-134.5 290.5,-134.5"/>
<polygon fill="none" stroke="#666666" points="290,-118 290,-167 341,-167 341,-118 290,-118"/>
</a>
</g>
</g>
<!-- Node4&#45;&gt;Node1 -->
<g id="edge3_Node000001_Node000004" class="edge">
<title>Node4&#45;&gt;Node1</title>
<g id="a_edge3_Node000001_Node000004"><a xlink:title=" ">
<path fill="none" stroke="#63b8ff" d="M315.5,-117.75C315.5,-101.48 315.5,-79.62 315.5,-61.26"/>
<polygon fill="none" stroke="#63b8ff" points="315.5,-61.22 311.5,-55.22 315.5,-49.22 319.5,-55.22 315.5,-61.22"/>
</a>
</g>
<text text-anchor="middle" x="349.5" y="-92" font-family="Helvetica,sans-Serif" font-size="10.00" fill="grey"> +dimensions</text>
<text text-anchor="middle" x="349.5" y="-81" font-family="Helvetica,sans-Serif" font-size="10.00" fill="grey">+p</text>
<text text-anchor="middle" x="349.5" y="-70" font-family="Helvetica,sans-Serif" font-size="10.00" fill="grey">+v</text>
</g>
<!-- Node5 -->
<g id="Node000005" class="node">
<title>Node5</title>
<g id="a_Node000005"><a xlink:title=" ">
<polygon fill="white" stroke="transparent" points="449.5,-167 363.5,-167 363.5,-118 449.5,-118 449.5,-167"/>
<text text-anchor="start" x="368.5" y="-154.5" font-family="Helvetica,sans-Serif" font-size="10.00">Vector&lt; float &gt;</text>
<text text-anchor="start" x="404.5" y="-139.5" font-family="Helvetica,sans-Serif" font-size="10.00"> </text>
<text text-anchor="start" x="404.5" y="-124.5" font-family="Helvetica,sans-Serif" font-size="10.00"> </text>
<polygon fill="#666666" stroke="#666666" points="363.5,-149.5 363.5,-149.5 449.5,-149.5 449.5,-149.5 363.5,-149.5"/>
<polygon fill="#666666" stroke="#666666" points="363.5,-134.5 363.5,-134.5 449.5,-134.5 449.5,-134.5 363.5,-134.5"/>
<polygon fill="none" stroke="#666666" points="363.5,-118 363.5,-167 449.5,-167 449.5,-118 363.5,-118"/>
</a>
</g>
</g>
<!-- Node5&#45;&gt;Node1 -->
<g id="edge4_Node000001_Node000005" class="edge">
<title>Node5&#45;&gt;Node1</title>
<g id="a_edge4_Node000001_Node000005"><a xlink:title=" ">
<path fill="none" stroke="#63b8ff" d="M404.04,-117.99C401.39,-102.22 395.88,-81.72 384.5,-67 380.7,-62.08 376.13,-57.62 371.18,-53.6"/>
<polygon fill="none" stroke="#63b8ff" points="371.01,-53.48 363.8,-53.19 361.3,-46.43 368.5,-46.71 371.01,-53.48"/>
</a>
</g>
<text text-anchor="middle" x="440.5" y="-81" font-family="Helvetica,sans-Serif" font-size="10.00" fill="grey"> +stop_positions</text>
</g>
<!-- Node6 -->
<g id="Node000006" class="node">
<title>Node6</title>
<g id="a_Node000006"><a xlink:title=" ">
<polygon fill="white" stroke="transparent" points="593,-167 468,-167 468,-118 593,-118 593,-167"/>
<text text-anchor="start" x="473.5" y="-154.5" font-family="Helvetica,sans-Serif" font-size="10.00">Vector&lt; Rml::Colourf &gt;</text>
<text text-anchor="start" x="529" y="-139.5" font-family="Helvetica,sans-Serif" font-size="10.00"> </text>
<text text-anchor="start" x="529" y="-124.5" font-family="Helvetica,sans-Serif" font-size="10.00"> </text>
<polygon fill="#666666" stroke="#666666" points="468.5,-149.5 468.5,-149.5 593.5,-149.5 593.5,-149.5 468.5,-149.5"/>
<polygon fill="#666666" stroke="#666666" points="468.5,-134.5 468.5,-134.5 593.5,-134.5 593.5,-134.5 468.5,-134.5"/>
<polygon fill="none" stroke="#666666" points="468,-118 468,-167 593,-167 593,-118 468,-118"/>
</a>
</g>
</g>
<!-- Node6&#45;&gt;Node1 -->
<g id="edge5_Node000001_Node000006" class="edge">
<title>Node6&#45;&gt;Node1</title>
<g id="a_edge5_Node000001_Node000006"><a xlink:title=" ">
<path fill="none" stroke="#63b8ff" d="M521.97,-117.89C514.75,-101.23 502.79,-79.7 485.5,-67 452.97,-43.11 408.43,-32.84 373.1,-28.49"/>
<polygon fill="none" stroke="#63b8ff" points="372.95,-28.47 366.55,-31.8 361.02,-27.18 367.41,-23.85 372.95,-28.47"/>
</a>
</g>
<text text-anchor="middle" x="546" y="-81" font-family="Helvetica,sans-Serif" font-size="10.00" fill="grey"> +stop_colors</text>
</g>
</g>
</svg>

<g id="navigator" transform="translate(0 0)" fill="#404254">
  <rect fill="#f2f5e9" fill-opacity="0.5" stroke="#606060" stroke-width=".5" x="0" y="0" width="60" height="60"/>
  <use id="zoomplus" xlink:href="#zoomPlus" x="17" y="9" onmousedown="handleZoom(evt,'in')"/>
  <use id="zoomminus" xlink:href="#zoomMin" x="42" y="9" onmousedown="handleZoom(evt,'out')"/>
  <use id="reset" xlink:href="#resetDef" x="30" y="36" onmousedown="handleReset()"/>
   <use id="arrowup" xlink:href="#arrowUp" x="0" y="0" onmousedown="handlePan(0,-1)"/>
  <use id="arrowright" xlink:href="#arrowRight" x="0" y="0" onmousedown="handlePan(1,0)"/>
  <use id="arrowdown" xlink:href="#arrowDown" x="0" y="0" onmousedown="handlePan(0,1)"/>
  <use id="arrowleft" xlink:href="#arrowLeft" x="0" y="0" onmousedown="handlePan(-1,0)"/>
</g>
<svg viewBox="0 0 15 15" width="100%" height="30px" preserveAspectRatio="xMaxYMin meet">
 <g id="arrow_out" transform="scale(0.3 0.3)">
  <a xlink:href="structCompiledShader__coll__graph_org.svg" target="_base">
   <rect id="button" ry="5" rx="5" y="6" x="6" height="38" width="38"
        fill="#f2f5e9" fill-opacity="0.5" stroke="#606060" stroke-width="1.0"/>
   <path id="arrow"
     d="M 11.500037,31.436501 C 11.940474,20.09759 22.043105,11.32322 32.158766,21.979434 L 37.068811,17.246167 C 37.068811,17.246167 37.088388,32 37.088388,32 L 22.160133,31.978069 C 22.160133,31.978069 26.997745,27.140456 26.997745,27.140456 C 18.528582,18.264221 13.291696,25.230495 11.500037,31.436501 z"
     style="fill:#404040;"/>
  </a>
 </g>
</svg>

<style type='text/css'>
<![CDATA[
[data-mouse-over-selected='false'] { opacity: 0.7; }
[data-mouse-over-selected='true']  { opacity: 1.0; }
]]>
</style>
<script type="application/ecmascript"><![CDATA[
document.addEventListener('DOMContentLoaded', (event) => {
  highlightEdges();
  highlightAdjacentNodes();
});
]]></script>
</svg>
