<?xml version="1.0" encoding="UTF-8" standalone="no"?>
<!DOCTYPE svg PUBLIC "-//W3C//DTD SVG 1.1//EN"
 "http://www.w3.org/Graphics/SVG/1.1/DTD/svg11.dtd">
<!-- Generated by graphviz version 2.43.0 (0)
 -->
<!-- Title: RendererExtensions::Image Pages: 1 -->
<svg width="205pt" height="186pt"
 viewBox="0.00 0.00 205.00 186.00" xmlns="http://www.w3.org/2000/svg" xmlns:xlink="http://www.w3.org/1999/xlink">
<g id="graph0" class="graph" transform="scale(1 1) rotate(0) translate(4 182)">
<title>RendererExtensions::Image</title>
<!-- Node1 -->
<g id="Node000001" class="node">
<title>Node1</title>
<g id="a_Node000001"><a xlink:title=" ">
<polygon fill="#999999" stroke="transparent" points="124.5,-60 16.5,-60 16.5,0 124.5,0 124.5,-60"/>
<text text-anchor="start" x="21.5" y="-48" font-family="Helvetica,sans-Serif" font-size="10.00">RendererExtensions</text>
<text text-anchor="start" x="52" y="-37" font-family="Helvetica,sans-Serif" font-size="10.00">::Image</text>
<text text-anchor="start" x="68.5" y="-22" font-family="Helvetica,sans-Serif" font-size="10.00"> </text>
<text text-anchor="start" x="68.5" y="-7" font-family="Helvetica,sans-Serif" font-size="10.00"> </text>
<polygon fill="#666666" stroke="#666666" points="16.5,-32 16.5,-32 124.5,-32 124.5,-32 16.5,-32"/>
<polygon fill="#666666" stroke="#666666" points="16.5,-17 16.5,-17 124.5,-17 124.5,-17 16.5,-17"/>
<polygon fill="none" stroke="#666666" points="16.5,0 16.5,-60 124.5,-60 124.5,0 16.5,0"/>
</a>
</g>
</g>
<!-- Node2 -->
<g id="Node000002" class="node">
<title>Node2</title>
<g id="a_Node000002"><a xlink:title=" ">
<polygon fill="white" stroke="transparent" points="23,-178 0,-178 0,-129 23,-129 23,-178"/>
<text text-anchor="start" x="5.5" y="-165.5" font-family="Helvetica,sans-Serif" font-size="10.00">int</text>
<text text-anchor="start" x="10" y="-150.5" font-family="Helvetica,sans-Serif" font-size="10.00"> </text>
<text text-anchor="start" x="10" y="-135.5" font-family="Helvetica,sans-Serif" font-size="10.00"> </text>
<polygon fill="#666666" stroke="#666666" points="0.5,-160.5 0.5,-160.5 23.5,-160.5 23.5,-160.5 0.5,-160.5"/>
<polygon fill="#666666" stroke="#666666" points="0.5,-145.5 0.5,-145.5 23.5,-145.5 23.5,-145.5 0.5,-145.5"/>
<polygon fill="none" stroke="#666666" points="0,-129 0,-178 23,-178 23,-129 0,-129"/>
</a>
</g>
</g>
<!-- Node2&#45;&gt;Node1 -->
<g id="edge1_Node000001_Node000002" class="edge">
<title>Node2&#45;&gt;Node1</title>
<g id="a_edge1_Node000001_Node000002"><a xlink:title=" ">
<path fill="none" stroke="#63b8ff" d="M6.85,-128.83C5.02,-113.57 4.88,-93.71 12.5,-78 13.94,-75.04 15.66,-72.21 17.59,-69.5"/>
<polygon fill="none" stroke="#63b8ff" points="17.65,-69.43 18.48,-62.27 25.41,-60.28 24.58,-67.44 17.65,-69.43"/>
</a>
</g>
<text text-anchor="middle" x="60.5" y="-103" font-family="Helvetica,sans-Serif" font-size="10.00" fill="grey"> +height</text>
<text text-anchor="middle" x="60.5" y="-92" font-family="Helvetica,sans-Serif" font-size="10.00" fill="grey">+num_components</text>
<text text-anchor="middle" x="60.5" y="-81" font-family="Helvetica,sans-Serif" font-size="10.00" fill="grey">+width</text>
</g>
<!-- Node3 -->
<g id="Node000003" class="node">
<title>Node3</title>
<g id="a_Node000003"><a xlink:title=" ">
<polygon fill="white" stroke="transparent" points="197,-178 64,-178 64,-129 197,-129 197,-178"/>
<text text-anchor="start" x="69.5" y="-165.5" font-family="Helvetica,sans-Serif" font-size="10.00">UniquePtr&lt; Rml::byte[]&gt;</text>
<text text-anchor="start" x="129" y="-150.5" font-family="Helvetica,sans-Serif" font-size="10.00"> </text>
<text text-anchor="start" x="129" y="-135.5" font-family="Helvetica,sans-Serif" font-size="10.00"> </text>
<polygon fill="#666666" stroke="#666666" points="64.5,-160.5 64.5,-160.5 197.5,-160.5 197.5,-160.5 64.5,-160.5"/>
<polygon fill="#666666" stroke="#666666" points="64.5,-145.5 64.5,-145.5 197.5,-145.5 197.5,-145.5 64.5,-145.5"/>
<polygon fill="none" stroke="#666666" points="64,-129 64,-178 197,-178 197,-129 64,-129"/>
</a>
</g>
</g>
<!-- Node3&#45;&gt;Node1 -->
<g id="edge2_Node000001_Node000003" class="edge">
<title>Node3&#45;&gt;Node1</title>
<g id="a_edge2_Node000001_Node000003"><a xlink:title=" ">
<path fill="none" stroke="#63b8ff" d="M126,-128.77C122.54,-113.66 116.9,-94 108.5,-78 107.09,-75.32 105.52,-72.64 103.83,-70.01"/>
<polygon fill="none" stroke="#63b8ff" points="103.78,-69.94 97.07,-67.32 96.9,-60.11 103.62,-62.73 103.78,-69.94"/>
</a>
</g>
<text text-anchor="middle" x="137.5" y="-92" font-family="Helvetica,sans-Serif" font-size="10.00" fill="grey"> +data</text>
</g>
</g>
</svg>
