<?xml version="1.0" encoding="UTF-8" standalone="no"?>
<!DOCTYPE svg PUBLIC "-//W3C//DTD SVG 1.1//EN"
 "http://www.w3.org/Graphics/SVG/1.1/DTD/svg11.dtd">
<!-- Generated by graphviz version 2.43.0 (0)
 -->
<!-- Title: Gfx::FramebufferData Pages: 1 -->
<svg width="256pt" height="208pt"
 viewBox="0.00 0.00 255.50 208.00" xmlns="http://www.w3.org/2000/svg" xmlns:xlink="http://www.w3.org/1999/xlink">
<g id="graph0" class="graph" transform="scale(1 1) rotate(0) translate(4 204)">
<title>Gfx::FramebufferData</title>
<!-- Node1 -->
<g id="Node000001" class="node">
<title>Node1</title>
<g id="a_Node000001"><a xlink:title=" ">
<polygon fill="#999999" stroke="transparent" points="134.5,-49 18.5,-49 18.5,0 134.5,0 134.5,-49"/>
<text text-anchor="start" x="23.5" y="-36.5" font-family="Helvetica,sans-Serif" font-size="10.00">Gfx::FramebufferData</text>
<text text-anchor="start" x="74.5" y="-21.5" font-family="Helvetica,sans-Serif" font-size="10.00"> </text>
<text text-anchor="start" x="74.5" y="-6.5" font-family="Helvetica,sans-Serif" font-size="10.00"> </text>
<polygon fill="#666666" stroke="#666666" points="18.5,-31.5 18.5,-31.5 134.5,-31.5 134.5,-31.5 18.5,-31.5"/>
<polygon fill="#666666" stroke="#666666" points="18.5,-16.5 18.5,-16.5 134.5,-16.5 134.5,-16.5 18.5,-16.5"/>
<polygon fill="none" stroke="#666666" points="18.5,0 18.5,-49 134.5,-49 134.5,0 18.5,0"/>
</a>
</g>
</g>
<!-- Node2 -->
<g id="Node000002" class="node">
<title>Node2</title>
<g id="a_Node000002"><a xlink:title=" ">
<polygon fill="white" stroke="transparent" points="23,-200 0,-200 0,-151 23,-151 23,-200"/>
<text text-anchor="start" x="5.5" y="-187.5" font-family="Helvetica,sans-Serif" font-size="10.00">int</text>
<text text-anchor="start" x="10" y="-172.5" font-family="Helvetica,sans-Serif" font-size="10.00"> </text>
<text text-anchor="start" x="10" y="-157.5" font-family="Helvetica,sans-Serif" font-size="10.00"> </text>
<polygon fill="#666666" stroke="#666666" points="0.5,-182.5 0.5,-182.5 23.5,-182.5 23.5,-182.5 0.5,-182.5"/>
<polygon fill="#666666" stroke="#666666" points="0.5,-167.5 0.5,-167.5 23.5,-167.5 23.5,-167.5 0.5,-167.5"/>
<polygon fill="none" stroke="#666666" points="0,-151 0,-200 23,-200 23,-151 0,-151"/>
</a>
</g>
</g>
<!-- Node2&#45;&gt;Node1 -->
<g id="edge1_Node000001_Node000002" class="edge">
<title>Node2&#45;&gt;Node1</title>
<g id="a_edge1_Node000001_Node000002"><a xlink:title=" ">
<path fill="none" stroke="#63b8ff" d="M5.58,-150.66C1.25,-127.74 -1.7,-92.84 12.5,-67 14.32,-63.68 16.54,-60.59 19.03,-57.71"/>
<polygon fill="none" stroke="#63b8ff" points="19.18,-57.57 20.72,-50.52 27.82,-49.24 26.27,-56.28 19.18,-57.57"/>
</a>
</g>
<text text-anchor="middle" x="66.5" y="-125" font-family="Helvetica,sans-Serif" font-size="10.00" fill="grey"> +color_render_buffer</text>
<text text-anchor="middle" x="66.5" y="-114" font-family="Helvetica,sans-Serif" font-size="10.00" fill="grey">+color_tex_buffer</text>
<text text-anchor="middle" x="66.5" y="-103" font-family="Helvetica,sans-Serif" font-size="10.00" fill="grey">+depth_stencil_buffer</text>
<text text-anchor="middle" x="66.5" y="-92" font-family="Helvetica,sans-Serif" font-size="10.00" fill="grey">+framebuffer</text>
<text text-anchor="middle" x="66.5" y="-81" font-family="Helvetica,sans-Serif" font-size="10.00" fill="grey">+height</text>
<text text-anchor="middle" x="66.5" y="-70" font-family="Helvetica,sans-Serif" font-size="10.00" fill="grey">+width</text>
</g>
<!-- Node3 -->
<g id="Node000003" class="node">
<title>Node3</title>
<g id="a_Node000003"><a xlink:title=" ">
<polygon fill="white" stroke="transparent" points="158.5,-200 126.5,-200 126.5,-151 158.5,-151 158.5,-200"/>
<text text-anchor="start" x="131.5" y="-187.5" font-family="Helvetica,sans-Serif" font-size="10.00">bool</text>
<text text-anchor="start" x="140.5" y="-172.5" font-family="Helvetica,sans-Serif" font-size="10.00"> </text>
<text text-anchor="start" x="140.5" y="-157.5" font-family="Helvetica,sans-Serif" font-size="10.00"> </text>
<polygon fill="#666666" stroke="#666666" points="126.5,-182.5 126.5,-182.5 158.5,-182.5 158.5,-182.5 126.5,-182.5"/>
<polygon fill="#666666" stroke="#666666" points="126.5,-167.5 126.5,-167.5 158.5,-167.5 158.5,-167.5 126.5,-167.5"/>
<polygon fill="none" stroke="#666666" points="126.5,-151 126.5,-200 158.5,-200 158.5,-151 126.5,-151"/>
</a>
</g>
</g>
<!-- Node3&#45;&gt;Node1 -->
<g id="edge2_Node000001_Node000003" class="edge">
<title>Node3&#45;&gt;Node1</title>
<g id="a_edge2_Node000001_Node000003"><a xlink:title=" ">
<path fill="none" stroke="#63b8ff" d="M141.74,-150.86C140.09,-128.08 135.15,-93.29 120.5,-67 118.82,-63.99 116.85,-61.07 114.69,-58.27"/>
<polygon fill="none" stroke="#63b8ff" points="114.67,-58.24 107.71,-56.37 106.76,-49.22 113.73,-51.09 114.67,-58.24"/>
</a>
</g>
<text text-anchor="start" x="139.5" y="-103" font-family="Helvetica,sans-Serif" font-size="10.00" fill="grey"> +owns_depth_stencil</text>
<text text-anchor="middle" x="193.5" y="-92" font-family="Helvetica,sans-Serif" font-size="10.00" fill="grey">_buffer</text>
</g>
</g>
</svg>
