<?xml version="1.0" encoding="UTF-8" standalone="no"?>
<!DOCTYPE svg PUBLIC "-//W3C//DTD SVG 1.1//EN"
 "http://www.w3.org/Graphics/SVG/1.1/DTD/svg11.dtd">
<!-- Generated by graphviz version 2.43.0 (0)
 -->
<!-- Title: CompiledFilter Pages: 1 -->
<svg width="405pt" height="164pt"
 viewBox="0.00 0.00 405.00 164.00" xmlns="http://www.w3.org/2000/svg" xmlns:xlink="http://www.w3.org/1999/xlink">

<svg id="main" version="1.1" xmlns="http://www.w3.org/2000/svg" xmlns:xlink="http://www.w3.org/1999/xlink" xml:space="preserve" onload="init(evt)">
<style type="text/css"><![CDATA[
.node, .edge {opacity: 0.7;}
.node.selected, .edge.selected {opacity: 1;}
.edge:hover path { stroke: red; }
.edge:hover polygon { stroke: red; fill: red; }
]]></style>
<script type="application/ecmascript" xlink:href="svg.min.js"/>
<svg id="graph" class="graph">
<g id="graph0" class="graph" transform="scale(1 1) rotate(0) translate(4 160)">
<title>CompiledFilter</title>
<!-- Node1 -->
<g id="Node000001" class="node">
<title>Node1</title>
<g id="a_Node000001"><a xlink:title=" ">
<polygon fill="#999999" stroke="transparent" points="229,-49 147,-49 147,0 229,0 229,-49"/>
<text text-anchor="start" x="152" y="-36.5" font-family="Helvetica,sans-Serif" font-size="10.00">CompiledFilter</text>
<text text-anchor="start" x="186" y="-21.5" font-family="Helvetica,sans-Serif" font-size="10.00"> </text>
<text text-anchor="start" x="186" y="-6.5" font-family="Helvetica,sans-Serif" font-size="10.00"> </text>
<polygon fill="#666666" stroke="#666666" points="147,-31.5 147,-31.5 229,-31.5 229,-31.5 147,-31.5"/>
<polygon fill="#666666" stroke="#666666" points="147,-16.5 147,-16.5 229,-16.5 229,-16.5 147,-16.5"/>
<polygon fill="none" stroke="#666666" points="147,0 147,-49 229,-49 229,0 147,0"/>
</a>
</g>
</g>
<!-- Node2 -->
<g id="Node000002" class="node">
<title>Node2</title>
<g id="a_Node000002"><a xlink:title=" ">
<polygon fill="white" stroke="transparent" points="58,-156 0,-156 0,-107 58,-107 58,-156"/>
<text text-anchor="start" x="5" y="-143.5" font-family="Helvetica,sans-Serif" font-size="10.00">FilterType</text>
<text text-anchor="start" x="27" y="-128.5" font-family="Helvetica,sans-Serif" font-size="10.00"> </text>
<text text-anchor="start" x="27" y="-113.5" font-family="Helvetica,sans-Serif" font-size="10.00"> </text>
<polygon fill="#666666" stroke="#666666" points="0,-138.5 0,-138.5 58,-138.5 58,-138.5 0,-138.5"/>
<polygon fill="#666666" stroke="#666666" points="0,-123.5 0,-123.5 58,-123.5 58,-123.5 0,-123.5"/>
<polygon fill="none" stroke="#666666" points="0,-107 0,-156 58,-156 58,-107 0,-107"/>
</a>
</g>
</g>
<!-- Node2&#45;&gt;Node1 -->
<g id="edge1_Node000001_Node000002" class="edge">
<title>Node2&#45;&gt;Node1</title>
<g id="a_edge1_Node000001_Node000002"><a xlink:title=" ">
<path fill="none" stroke="#63b8ff" d="M33.08,-106.8C36.54,-93.44 42.8,-77.4 54,-67 75.91,-46.67 107.6,-36.3 134.66,-31"/>
<polygon fill="none" stroke="#63b8ff" points="134.9,-30.96 140.12,-26 146.72,-28.91 141.49,-33.88 134.9,-30.96"/>
</a>
</g>
<text text-anchor="middle" x="71" y="-75.5" font-family="Helvetica,sans-Serif" font-size="10.00" fill="grey"> +type</text>
</g>
<!-- Node3 -->
<g id="Node000003" class="node">
<title>Node3</title>
<g id="a_Node000003"><a xlink:title=" ">
<polygon fill="white" stroke="transparent" points="108,-156 76,-156 76,-107 108,-107 108,-156"/>
<text text-anchor="start" x="81" y="-143.5" font-family="Helvetica,sans-Serif" font-size="10.00">float</text>
<text text-anchor="start" x="90" y="-128.5" font-family="Helvetica,sans-Serif" font-size="10.00"> </text>
<text text-anchor="start" x="90" y="-113.5" font-family="Helvetica,sans-Serif" font-size="10.00"> </text>
<polygon fill="#666666" stroke="#666666" points="76,-138.5 76,-138.5 108,-138.5 108,-138.5 76,-138.5"/>
<polygon fill="#666666" stroke="#666666" points="76,-123.5 76,-123.5 108,-123.5 108,-123.5 76,-123.5"/>
<polygon fill="none" stroke="#666666" points="76,-107 76,-156 108,-156 108,-107 76,-107"/>
</a>
</g>
</g>
<!-- Node3&#45;&gt;Node1 -->
<g id="edge2_Node000001_Node000003" class="edge">
<title>Node3&#45;&gt;Node1</title>
<g id="a_edge2_Node000001_Node000003"><a xlink:title=" ">
<path fill="none" stroke="#63b8ff" d="M89.73,-106.77C89.71,-93.89 91.78,-78.33 100,-67 108.76,-54.93 121.94,-46.25 135.45,-40.06"/>
<polygon fill="none" stroke="#63b8ff" points="135.69,-39.96 139.73,-33.99 146.79,-35.42 142.76,-41.39 135.69,-39.96"/>
</a>
</g>
<text text-anchor="middle" x="136.5" y="-81" font-family="Helvetica,sans-Serif" font-size="10.00" fill="grey"> +blend_factor</text>
<text text-anchor="middle" x="136.5" y="-70" font-family="Helvetica,sans-Serif" font-size="10.00" fill="grey">+sigma</text>
</g>
<!-- Node4 -->
<g id="Node000004" class="node">
<title>Node4</title>
<g id="a_Node000004"><a xlink:title=" ">
<polygon fill="white" stroke="transparent" points="195.5,-156 144.5,-156 144.5,-107 195.5,-107 195.5,-156"/>
<text text-anchor="start" x="150" y="-143.5" font-family="Helvetica,sans-Serif" font-size="10.00">Vector2f</text>
<text text-anchor="start" x="168.5" y="-128.5" font-family="Helvetica,sans-Serif" font-size="10.00"> </text>
<text text-anchor="start" x="168.5" y="-113.5" font-family="Helvetica,sans-Serif" font-size="10.00"> </text>
<polygon fill="#666666" stroke="#666666" points="145,-138.5 145,-138.5 196,-138.5 196,-138.5 145,-138.5"/>
<polygon fill="#666666" stroke="#666666" points="145,-123.5 145,-123.5 196,-123.5 196,-123.5 145,-123.5"/>
<polygon fill="none" stroke="#666666" points="144.5,-107 144.5,-156 195.5,-156 195.5,-107 144.5,-107"/>
</a>
</g>
</g>
<!-- Node4&#45;&gt;Node1 -->
<g id="edge3_Node000001_Node000004" class="edge">
<title>Node4&#45;&gt;Node1</title>
<g id="a_edge3_Node000001_Node000004"><a xlink:title=" ">
<path fill="none" stroke="#63b8ff" d="M174.04,-106.94C176.34,-93.52 179.27,-76.44 181.85,-61.39"/>
<polygon fill="none" stroke="#63b8ff" points="181.88,-61.18 178.96,-54.59 183.91,-49.35 186.84,-55.94 181.88,-61.18"/>
</a>
</g>
<text text-anchor="middle" x="200" y="-75.5" font-family="Helvetica,sans-Serif" font-size="10.00" fill="grey"> +offset</text>
</g>
<!-- Node5 -->
<g id="Node000005" class="node">
<title>Node5</title>
<g id="a_Node000005"><a xlink:title=" ">
<polygon fill="white" stroke="transparent" points="326.5,-156 213.5,-156 213.5,-107 326.5,-107 326.5,-156"/>
<text text-anchor="start" x="219" y="-143.5" font-family="Helvetica,sans-Serif" font-size="10.00">ColourbPremultiplied</text>
<text text-anchor="start" x="268.5" y="-128.5" font-family="Helvetica,sans-Serif" font-size="10.00"> </text>
<text text-anchor="start" x="268.5" y="-113.5" font-family="Helvetica,sans-Serif" font-size="10.00"> </text>
<polygon fill="#666666" stroke="#666666" points="214,-138.5 214,-138.5 327,-138.5 327,-138.5 214,-138.5"/>
<polygon fill="#666666" stroke="#666666" points="214,-123.5 214,-123.5 327,-123.5 327,-123.5 214,-123.5"/>
<polygon fill="none" stroke="#666666" points="213.5,-107 213.5,-156 326.5,-156 326.5,-107 213.5,-107"/>
</a>
</g>
</g>
<!-- Node5&#45;&gt;Node1 -->
<g id="edge4_Node000001_Node000005" class="edge">
<title>Node5&#45;&gt;Node1</title>
<g id="a_edge4_Node000001_Node000005"><a xlink:title=" ">
<path fill="none" stroke="#63b8ff" d="M253.66,-106.91C245.07,-94.8 234.24,-79.9 224,-67 221.83,-64.27 219.55,-61.47 217.23,-58.68"/>
<polygon fill="none" stroke="#63b8ff" points="217.07,-58.49 210.13,-56.5 209.3,-49.34 216.24,-51.33 217.07,-58.49"/>
</a>
</g>
<text text-anchor="middle" x="257" y="-75.5" font-family="Helvetica,sans-Serif" font-size="10.00" fill="grey"> +color</text>
</g>
<!-- Node6 -->
<g id="Node000006" class="node">
<title>Node6</title>
<g id="a_Node000006"><a xlink:title=" ">
<polygon fill="white" stroke="transparent" points="397,-156 345,-156 345,-107 397,-107 397,-156"/>
<text text-anchor="start" x="350" y="-143.5" font-family="Helvetica,sans-Serif" font-size="10.00">Matrix4f</text>
<text text-anchor="start" x="369" y="-128.5" font-family="Helvetica,sans-Serif" font-size="10.00"> </text>
<text text-anchor="start" x="369" y="-113.5" font-family="Helvetica,sans-Serif" font-size="10.00"> </text>
<polygon fill="#666666" stroke="#666666" points="345,-138.5 345,-138.5 397,-138.5 397,-138.5 345,-138.5"/>
<polygon fill="#666666" stroke="#666666" points="345,-123.5 345,-123.5 397,-123.5 397,-123.5 345,-123.5"/>
<polygon fill="none" stroke="#666666" points="345,-107 345,-156 397,-156 397,-107 345,-107"/>
</a>
</g>
</g>
<!-- Node6&#45;&gt;Node1 -->
<g id="edge5_Node000001_Node000006" class="edge">
<title>Node6&#45;&gt;Node1</title>
<g id="a_edge5_Node000001_Node000006"><a xlink:title=" ">
<path fill="none" stroke="#63b8ff" d="M344.83,-110.6C326.85,-97.38 302.13,-80.12 279,-67 266.73,-60.04 253.09,-53.32 240.18,-47.39"/>
<polygon fill="none" stroke="#63b8ff" points="240.02,-47.32 232.91,-48.5 229.08,-42.39 236.19,-41.21 240.02,-47.32"/>
</a>
</g>
<text text-anchor="middle" x="348.5" y="-75.5" font-family="Helvetica,sans-Serif" font-size="10.00" fill="grey"> +color_matrix</text>
</g>
</g>
</svg>
</svg>

<style type='text/css'>
<![CDATA[
[data-mouse-over-selected='false'] { opacity: 0.7; }
[data-mouse-over-selected='true']  { opacity: 1.0; }
]]>
</style>
<script type="application/ecmascript"><![CDATA[
document.addEventListener('DOMContentLoaded', (event) => {
  highlightEdges();
  highlightAdjacentNodes();
});
]]></script>
</svg>
